<svg xmlns="http://www.w3.org/2000/svg" xmlns:xlink="http://www.w3.org/1999/xlink" preserveAspectRatio="xMidYMid" width="32" height="32" viewBox="0 0 32 32">
  <path d="M28.000,15.000 L19.000,15.000 C17.895,15.000 17.000,14.105 17.000,13.000 C17.000,11.895 17.895,11.000 19.000,11.000 L28.000,11.000 C29.105,11.000 30.000,11.895 30.000,13.000 C30.000,14.105 29.105,15.000 28.000,15.000 ZM28.000,8.000 L19.000,8.000 C17.895,8.000 17.000,7.105 17.000,6.000 C17.000,4.895 17.895,4.000 19.000,4.000 L28.000,4.000 C29.105,4.000 30.000,4.895 30.000,6.000 C30.000,7.105 29.105,8.000 28.000,8.000 ZM11.599,13.588 L7.419,13.588 L7.001,14.989 L3.013,14.989 L7.297,3.012 L11.721,3.012 L16.006,14.989 L12.017,14.989 L11.599,13.588 ZM9.509,6.567 L8.360,10.428 L10.659,10.428 L9.509,6.567 ZM5.000,18.000 L28.000,18.000 C29.105,18.000 30.000,18.895 30.000,20.000 C30.000,21.105 29.105,22.000 28.000,22.000 L5.000,22.000 C3.895,22.000 3.000,21.105 3.000,20.000 C3.000,18.895 3.895,18.000 5.000,18.000 ZM5.000,25.000 L20.000,25.000 C21.105,25.000 22.000,25.895 22.000,27.000 C22.000,28.105 21.105,29.000 20.000,29.000 L5.000,29.000 C3.895,29.000 3.000,28.105 3.000,27.000 C3.000,25.895 3.895,25.000 5.000,25.000 Z"/>
</svg>
