<svg xmlns="http://www.w3.org/2000/svg" xmlns:xlink="http://www.w3.org/1999/xlink" preserveAspectRatio="xMidYMid" width="32" height="32" viewBox="0 0 32 32">
  <path d="M30.289,13.387 L28.627,15.053 L28.627,15.053 L28.627,15.053 L15.335,28.374 L15.335,28.374 L15.335,28.374 L14.504,29.206 C14.341,29.370 14.130,29.482 13.903,29.528 L1.426,32.010 C0.654,32.164 -0.114,31.394 0.040,30.620 L2.516,18.116 C2.562,17.889 2.674,17.678 2.837,17.514 L16.960,3.360 C16.960,3.360 16.960,3.360 16.960,3.360 C16.960,3.360 16.960,3.360 16.960,3.360 L18.622,1.695 C20.912,-0.600 24.645,-0.594 26.943,1.708 L30.276,5.049 C32.574,7.351 32.579,11.092 30.289,13.387 ZM16.529,23.836 L26.130,14.215 L24.463,12.545 L15.325,21.703 C15.935,22.314 16.323,23.056 16.529,23.836 ZM22.797,10.874 L21.960,10.036 L21.130,9.204 L11.529,18.825 C11.663,19.333 11.711,19.853 11.674,20.373 C12.185,20.342 12.697,20.363 13.196,20.496 L22.797,10.874 ZM13.089,27.284 L13.668,26.703 L13.668,26.703 C14.585,25.785 14.582,24.289 13.663,23.368 C12.744,22.447 11.251,22.444 10.335,23.363 C9.876,23.822 9.132,23.822 8.671,23.360 C8.210,22.898 8.210,22.152 8.668,21.692 C9.585,20.774 9.582,19.278 8.663,18.357 C7.744,17.436 6.251,17.433 5.335,18.352 L4.756,18.932 L3.847,23.521 L8.510,28.195 L13.089,27.284 ZM2.692,29.352 L5.738,28.746 L3.297,26.300 L2.692,29.352 ZM17.796,5.863 L8.196,15.485 C8.974,15.691 9.715,16.081 10.325,16.692 L19.463,7.534 L17.796,5.863 ZM28.614,6.714 L25.281,3.373 C23.903,1.992 21.663,1.989 20.289,3.366 L19.458,4.198 L23.622,8.371 L27.791,12.550 L28.622,11.717 C29.996,10.340 29.993,8.095 28.614,6.714 Z" class="cls-1"/>
</svg>
