<svg xmlns="http://www.w3.org/2000/svg" xmlns:xlink="http://www.w3.org/1999/xlink" preserveAspectRatio="xMidYMid" width="30" height="26" viewBox="0 0 30 26">
  <path d="M26.679,12.781 C23.257,16.116 19.961,19.586 16.427,22.798 C13.826,25.161 10.568,25.601 7.358,24.233 C3.598,22.632 1.231,19.763 1.001,15.534 C0.865,13.030 1.883,10.910 3.625,9.144 C5.664,7.077 7.749,5.053 9.789,2.986 C10.231,2.539 10.515,2.540 10.945,2.998 C12.120,4.247 12.161,3.900 10.937,5.146 C9.033,7.084 7.093,8.989 5.242,10.977 C3.076,13.303 3.071,17.397 5.320,19.965 C7.479,22.430 11.228,23.139 14.141,21.495 C14.684,21.189 15.176,20.761 15.622,20.320 C18.836,17.148 22.006,13.932 25.244,10.785 C26.900,9.174 26.883,6.760 25.973,5.431 C24.640,3.486 22.439,2.853 20.402,3.834 C19.846,4.102 19.358,4.554 18.911,4.994 C16.332,7.530 13.764,10.078 11.222,12.652 C10.871,13.007 10.566,13.501 10.461,13.979 C10.314,14.655 10.682,15.233 11.325,15.514 C11.920,15.774 12.490,15.692 12.991,15.191 C15.620,12.555 18.265,9.934 20.905,7.309 C21.661,6.557 21.667,6.553 22.390,7.282 C23.514,8.414 23.557,8.158 22.400,9.312 C19.894,11.810 17.385,14.306 14.873,16.798 C13.456,18.204 11.210,18.497 9.795,17.427 C7.775,15.900 7.613,13.995 8.568,12.040 C8.680,11.811 8.886,11.621 9.072,11.436 C11.933,8.584 14.795,5.732 17.665,2.888 C19.659,0.912 23.012,0.341 25.463,1.769 C26.516,2.382 28.069,3.927 28.685,5.588 C29.497,8.391 28.756,10.758 26.679,12.781 Z" />
</svg>
