<svg xmlns="http://www.w3.org/2000/svg" xmlns:xlink="http://www.w3.org/1999/xlink" preserveAspectRatio="xMidYMid" width="32" height="32" viewBox="0 0 32 32">
  <path d="M29.333,15.747 C25.423,19.637 21.657,23.685 17.619,27.431 C14.647,30.187 10.925,30.701 7.257,29.105 C2.961,27.238 0.257,23.891 -0.006,18.958 C-0.161,16.038 1.002,13.565 2.992,11.505 C5.322,9.094 7.704,6.733 10.035,4.323 C10.540,3.801 10.864,3.802 11.356,4.337 C12.698,5.793 12.745,5.389 11.347,6.842 C9.171,9.102 6.955,11.324 4.840,13.643 C2.365,16.356 2.359,21.131 4.929,24.127 C7.396,27.002 11.679,27.829 15.007,25.911 C15.628,25.554 16.190,25.055 16.700,24.541 C20.372,20.841 23.994,17.090 27.693,13.419 C29.585,11.540 29.566,8.725 28.526,7.174 C27.003,4.906 24.488,4.167 22.161,5.312 C21.526,5.624 20.968,6.151 20.457,6.665 C17.511,9.623 14.577,12.595 11.672,15.597 C11.271,16.011 10.923,16.587 10.803,17.145 C10.635,17.933 11.055,18.607 11.790,18.935 C12.470,19.238 13.121,19.143 13.693,18.558 C16.697,15.484 19.719,12.427 22.736,9.365 C23.599,8.488 23.606,8.483 24.432,9.333 C25.717,10.654 25.766,10.355 24.444,11.701 C21.581,14.615 18.714,17.526 15.844,20.433 C14.225,22.073 11.659,22.415 10.042,21.166 C7.734,19.385 7.549,17.163 8.640,14.883 C8.768,14.616 9.003,14.394 9.216,14.179 C12.485,10.852 15.755,7.525 19.034,4.208 C21.312,1.903 25.143,1.237 27.944,2.903 C29.147,3.618 30.921,5.420 31.625,7.357 C32.553,10.627 31.706,13.388 29.333,15.747 Z"/>
</svg>
