<svg xmlns="http://www.w3.org/2000/svg" xmlns:xlink="http://www.w3.org/1999/xlink" preserveAspectRatio="xMidYMid" width="32" height="32" viewBox="0 0 32 32">
  <path d="M20.230,32.001 C26.677,32.001 30.000,28.162 30.000,23.317 C30.000,19.335 27.181,16.024 23.554,15.496 C26.728,14.872 29.347,12.137 29.347,8.156 C29.347,3.886 26.073,-0.001 19.677,-0.001 L2.000,-0.001 L2.000,32.001 L20.230,32.001 ZM18.115,12.713 L9.151,12.713 L9.151,5.997 L18.115,5.997 C20.532,5.997 22.044,7.389 22.044,9.356 C22.044,11.419 20.532,12.713 18.115,12.713 ZM18.417,26.003 L9.151,26.003 L9.151,18.711 L18.417,18.711 C21.187,18.711 22.698,20.342 22.698,22.358 C22.698,24.659 21.087,26.003 18.417,26.003 Z"/>
</svg>
