<svg xmlns="http://www.w3.org/2000/svg" xmlns:xlink="http://www.w3.org/1999/xlink" preserveAspectRatio="xMidYMid" width="30" height="26" viewBox="0 0 30 26">
  <defs>
    <style>
      .cls-1 {
        fill: #5bb8ff;
        fill-rule: evenodd;
      }
    </style>
  </defs>
  <path d="M18.016,25.015 C22.622,25.015 24.996,22.135 24.996,18.500 C24.996,15.512 22.982,13.028 20.391,12.632 C22.658,12.164 24.529,10.112 24.529,7.125 C24.529,3.921 22.190,1.005 17.621,1.005 L4.992,1.005 L4.992,25.015 L18.016,25.015 ZM16.505,10.544 L10.101,10.544 L10.101,5.505 L16.505,5.505 C18.232,5.505 19.312,6.549 19.312,8.025 C19.312,9.573 18.232,10.544 16.505,10.544 ZM16.721,20.515 L10.101,20.515 L10.101,15.044 L16.721,15.044 C18.700,15.044 19.779,16.268 19.779,17.780 C19.779,19.507 18.628,20.515 16.721,20.515 Z" class="cls-1"/>
</svg>
