<svg xmlns="http://www.w3.org/2000/svg" xmlns:xlink="http://www.w3.org/1999/xlink" preserveAspectRatio="xMidYMid" width="30" height="26" viewBox="0 0 30 26">
  <path d="M26.000,6.300 L26.000,7.000 L22.134,7.000 L22.134,17.611 C22.134,18.972 22.682,19.653 23.779,19.653 C24.402,19.653 25.014,19.493 25.614,19.174 L25.614,22.316 C25.325,22.494 24.913,22.651 24.376,22.787 C23.839,22.923 23.248,22.991 22.602,22.991 C19.578,22.991 18.066,21.275 18.066,17.842 L18.066,7.000 L11.003,7.000 L11.003,22.636 L6.935,22.636 L6.935,7.000 L3.000,7.000 L3.000,6.000 L3.005,6.000 L3.005,4.489 L5.757,2.998 L26.012,2.998 L26.012,6.300 L26.000,6.300 Z" class="cls-1"/>
</svg>
