<?xml version="1.0" encoding="utf-8"?>
<!-- Generator: Adobe Illustrator 19.0.0, SVG Export Plug-In . SVG Version: 6.00 Build 0)  -->
<svg version="1.1" id="Layer_1" xmlns="http://www.w3.org/2000/svg" xmlns:xlink="http://www.w3.org/1999/xlink" x="0px" y="0px"
	 viewBox="0 0 48 48" style="enable-background:new 0 0 48 48;" xml:space="preserve">
<path id="XMLID_107_" d="M41.6,15.1c-2.9,0-5.2,2.3-5.2,5.2c0,0.9,0.2,1.8,0.7,2.5c0,0,3,3.6-6.2-1.5c-5.8-3.8-3.7-4.4-3.7-4.4
	c1.2-0.9,1.9-2.4,1.9-4c0-2.9-2.3-5.2-5.2-5.2s-5.2,2.3-5.2,5.2c0,1.6,0.8,3.1,1.9,4c0,0,2.1,0.6-3.7,4.4c-9.2,5.1-6.2,1.5-6.2,1.5
	c0.4-0.8,0.7-1.6,0.7-2.5c0-2.9-2.3-5.2-5.2-5.2S1,17.4,1,20.3c0,2.4,1.6,4.3,3.7,5L9,37.6c0.1,0.7,0.5,1.4,1.1,1.8l0,0
	c0.1,0.1,0.3,0.2,0.4,0.3h0.1c0.1,0.1,0.3,0.1,0.4,0.2c0.1,0,0.1,0,0.2,0.1c0.1,0,0.3,0.1,0.4,0.1c0.1,0,0.2,0,0.3,0s0.1,0,0.2,0H24
	h11.5c0.1,0,0.1,0,0.2,0c0.1,0,0.2,0,0.3,0s0.3-0.1,0.4-0.1c0.1,0,0.1,0,0.2-0.1c0.2-0.1,0.3-0.1,0.4-0.2h0.1
	c0.2-0.1,0.3-0.2,0.4-0.3l0,0c0.5-0.5,0.9-1.1,1.1-1.8L43,25.2c2.2-0.6,3.7-2.6,3.7-5C46.8,17.4,44.5,15.1,41.6,15.1z"/>
</svg>
