<svg xmlns="http://www.w3.org/2000/svg" xmlns:xlink="http://www.w3.org/1999/xlink" preserveAspectRatio="xMidYMid" width="32" height="32" viewBox="0 0 32 32">
  <path d="M28.435,10.020 C26.403,10.020 24.791,11.583 24.791,13.553 C24.791,14.164 24.931,14.776 25.282,15.251 C25.282,15.251 27.384,17.697 20.937,14.232 C16.873,11.651 18.345,11.243 18.345,11.243 C19.186,10.632 19.676,9.613 19.676,8.526 C19.676,6.556 18.064,4.993 16.032,4.993 C14.000,4.993 12.389,6.556 12.389,8.526 C12.389,9.613 12.949,10.632 13.720,11.243 C13.720,11.243 15.192,11.651 11.127,14.232 C4.681,17.697 6.783,15.251 6.783,15.251 C7.063,14.708 7.274,14.164 7.274,13.553 C7.274,11.583 5.662,10.020 3.630,10.020 C1.598,10.020 -0.014,11.583 -0.014,13.553 C-0.014,15.183 1.107,16.474 2.579,16.950 L5.592,25.306 C5.662,25.781 5.942,26.257 6.363,26.528 L6.363,26.528 C6.433,26.596 6.573,26.664 6.643,26.732 L6.713,26.732 C6.783,26.800 6.923,26.800 6.993,26.868 C7.063,26.868 7.063,26.868 7.133,26.936 C7.204,26.936 7.344,27.004 7.414,27.004 C7.484,27.004 7.554,27.004 7.624,27.004 C7.694,27.004 7.694,27.004 7.764,27.004 L16.102,27.004 L24.161,27.004 C24.231,27.004 24.231,27.004 24.301,27.004 C24.371,27.004 24.441,27.004 24.511,27.004 C24.581,27.004 24.721,26.936 24.791,26.936 C24.861,26.936 24.861,26.936 24.931,26.868 C25.071,26.800 25.141,26.800 25.212,26.732 L25.282,26.732 C25.422,26.664 25.492,26.596 25.562,26.528 L25.562,26.528 C25.912,26.189 26.193,25.781 26.333,25.306 L29.416,16.882 C30.957,16.474 32.008,15.115 32.008,13.485 C32.078,11.583 30.467,10.020 28.435,10.020 Z"/>
</svg>
