<svg xmlns="http://www.w3.org/2000/svg" xmlns:xlink="http://www.w3.org/1999/xlink" preserveAspectRatio="xMidYMid" width="32" height="32" viewBox="0 0 32 32">
  <path d="M28.800,32.000 L19.166,32.000 L19.166,20.508 L22.943,20.508 L22.940,16.016 L19.224,16.020 L19.224,13.394 C19.224,13.394 19.242,12.154 20.636,12.154 C22.031,12.154 24.278,12.135 24.278,12.135 L24.278,7.715 C24.278,7.715 18.164,7.715 18.454,7.715 C14.369,7.715 14.074,12.530 14.074,12.530 L14.074,16.026 L10.851,16.029 L10.839,20.501 L14.076,20.501 L14.076,32.000 L3.200,32.000 C1.433,32.000 0.000,30.566 0.000,28.800 L0.000,3.200 C0.000,1.433 1.433,-0.000 3.200,-0.000 L28.800,-0.000 C30.568,-0.000 32.000,1.433 32.000,3.200 L32.000,28.800 C32.000,30.566 30.568,32.000 28.800,32.000 Z"/>
</svg>
