<?xml version="1.0" ?><!DOCTYPE svg  PUBLIC '-//W3C//DTD SVG 1.1//EN'  'http://www.w3.org/Graphics/SVG/1.1/DTD/svg11.dtd'><svg height="512px" id="Слой_1" style="enable-background:new 0 0 512 512;" version="1.1" viewBox="0 0 512 512" width="512px" xml:space="preserve" xmlns="http://www.w3.org/2000/svg" xmlns:xlink="http://www.w3.org/1999/xlink"><path d="M456,506H305.473V326.43h59.014l-0.049-70.176  l-58.067,0.058v-41.035c0,0,0.293-19.375,22.071-19.375c21.787,0,56.894-0.293,56.894-0.293v-69.062c0,0-95.527,0-90.996,0  c-63.828,0-68.437,75.234-68.437,75.234v54.629l-50.352,0.039l-0.195,69.883h50.586V506H56c-27.617,0-50-22.402-50-50V56  C6,28.383,28.383,6,56,6h400c27.618,0,50,22.383,50,50v400C506,483.598,483.618,506,456,506z" id="facebook" /></svg>
