<svg xmlns="http://www.w3.org/2000/svg" xmlns:xlink="http://www.w3.org/1999/xlink" preserveAspectRatio="xMidYMid" width="32" height="32" viewBox="0 0 32 32">
  <path d="M24.696,24.975 C24.763,24.627 24.830,24.280 24.830,23.932 C24.830,22.680 24.362,21.567 23.492,20.524 C25.500,19.967 27.240,17.950 27.240,17.254 C27.240,17.185 27.240,17.185 27.240,17.115 C30.185,17.811 32.125,19.202 31.992,20.802 C31.992,22.819 28.913,24.488 24.696,24.975 ZM22.421,17.115 C21.149,17.115 20.012,16.559 19.075,15.585 C19.543,14.194 19.811,12.664 19.744,10.994 C19.744,8.699 19.275,6.682 18.405,5.082 C19.409,3.760 20.815,2.995 22.421,2.995 C25.366,2.995 27.775,5.499 27.775,9.812 C27.775,14.124 25.366,17.115 22.421,17.115 ZM11.311,19.550 C7.898,19.550 5.087,16.072 5.087,11.064 C5.087,5.986 7.898,3.065 11.311,3.065 C14.724,3.065 17.535,5.986 17.535,10.994 C17.535,16.072 14.724,19.550 11.311,19.550 ZM5.555,19.689 C5.555,20.593 8.299,23.723 11.244,23.723 C14.189,23.723 16.933,20.663 16.933,19.689 C16.933,19.619 16.933,19.619 16.933,19.550 C20.346,20.454 22.622,22.054 22.622,23.932 C22.622,26.784 17.535,29.010 11.311,29.010 C5.087,29.010 -0.000,26.714 -0.000,23.932 C-0.000,22.054 2.276,20.454 5.555,19.550 C5.555,19.619 5.555,19.619 5.555,19.689 Z"/>
</svg>
