<svg version="1.1" xmlns="http://www.w3.org/2000/svg" xmlns:xlink="http://www.w3.org/1999/xlink" x="0px" y="0px"
	 viewBox="0 0 48 48">
<g>
	<path d="M25.3,29.1c0,0.1,0,0.1,0,0.2c0,1.4-4.1,5.8-8.5,5.8s-8.5-4.5-8.5-5.8c0-0.1,0-0.1,0-0.2
		C3.4,30.4,0,32.7,0,35.4c0,4,7.6,7.3,16.9,7.3s16.9-3.2,16.9-7.3C33.8,32.7,30.4,30.4,25.3,29.1z"/>
	<path d="M16.9,29.1c5.1,0,9.3-5,9.3-12.3c0-7.2-4.2-11.4-9.3-11.4S7.6,9.6,7.6,16.9C7.6,24.1,11.8,29.1,16.9,29.1z"
		/>
	<path d="M28.5,23.4c1.4,1.4,3.1,2.2,5,2.2c4.4,0,8-4.3,8-10.5s-3.6-9.8-8-9.8c-2.4,0-4.5,1.1-6,3
		c1.3,2.3,2,5.2,2,8.5C29.6,19.2,29.2,21.4,28.5,23.4z"/>
	<path d="M40.7,25.6c0,0.1,0,0.1,0,0.2c0,1-2.6,3.9-5.6,4.7c1.3,1.5,2,3.1,2,4.9c0,0.5-0.1,1-0.2,1.5
		c6.3-0.7,10.9-3.1,10.9-6C48,28.6,45.1,26.6,40.7,25.6z"/>
</g>
</svg>
