<svg xmlns="http://www.w3.org/2000/svg" xmlns:xlink="http://www.w3.org/1999/xlink" preserveAspectRatio="xMidYMid" width="32" height="32" viewBox="0 0 32 32">
  <path d="M29.334,4.989 L2.666,4.989 C1.199,4.989 -0.001,6.227 -0.001,7.742 L-0.001,24.258 C-0.001,25.773 1.199,27.011 2.666,27.011 L29.334,27.011 C30.801,27.011 32.001,25.773 32.001,24.258 L32.001,7.742 C32.001,6.227 30.801,4.989 29.334,4.989 ZM28.667,10.288 L16.667,16.482 C16.667,16.482 16.600,16.482 16.600,16.551 C16.533,16.551 16.467,16.619 16.400,16.619 L16.333,16.619 C16.267,16.619 16.200,16.619 16.133,16.619 C16.067,16.619 16.067,16.619 16.000,16.619 C15.933,16.619 15.933,16.619 15.867,16.619 C15.800,16.619 15.733,16.619 15.667,16.619 L15.600,16.619 C15.533,16.619 15.467,16.551 15.400,16.551 C15.400,16.551 15.333,16.551 15.333,16.482 L3.333,10.288 C2.666,9.944 2.466,9.118 2.866,8.430 C3.199,7.742 3.999,7.535 4.666,7.948 L16.000,13.798 L27.334,7.948 C28.001,7.535 28.801,7.810 29.134,8.430 C29.534,9.118 29.267,9.944 28.667,10.288 Z"/>
</svg>
