<svg xmlns="http://www.w3.org/2000/svg" xmlns:xlink="http://www.w3.org/1999/xlink" preserveAspectRatio="xMidYMid" width="32" height="32" viewBox="0 0 32 32">
  <path d="M2.666,9.333 L29.334,9.333 C30.801,9.333 32.001,8.133 32.001,6.666 C32.001,5.199 30.801,3.999 29.334,3.999 L2.666,3.999 C1.199,3.999 -0.001,5.199 -0.001,6.666 C-0.001,8.133 1.199,9.333 2.666,9.333 ZM29.334,13.333 L2.666,13.333 C1.199,13.333 -0.001,14.533 -0.001,16.000 C-0.001,17.467 1.199,18.667 2.666,18.667 L29.334,18.667 C30.801,18.667 32.001,17.467 32.001,16.000 C32.001,14.533 30.801,13.333 29.334,13.333 ZM29.334,22.667 L2.666,22.667 C1.199,22.667 -0.001,23.867 -0.001,25.334 C-0.001,26.801 1.199,28.001 2.666,28.001 L29.334,28.001 C30.801,28.001 32.001,26.801 32.001,25.334 C32.001,23.867 30.801,22.667 29.334,22.667 Z"/>
</svg>
