<svg version="1.1" xmlns="http://www.w3.org/2000/svg" xmlns:xlink="http://www.w3.org/1999/xlink" x="0px" y="0px"
	 viewBox="0 0 48 48">
<path d="M38,5.4L34.2,3c-1.1-0.7-2.4-1.1-3.8-1.1l0,0c-2.5,0-4.8,1.3-6.2,3.4L9.7,27.8c-0.4,0.6-0.7,1.3-0.8,2
	L7,38.9c-0.5,2.4,0.5,4.9,2.6,6.3c1,0.6,2.1,1,3.3,1s2.5-0.4,3.5-1.2l7.5-5.4c0.6-0.4,1.1-1,1.5-1.6L40,15.5
	C42.1,12,41.2,7.5,38,5.4z M20.3,34.7l-7.5,5.4l1.9-9.1l8.6-13.3l5.6,3.6L20.3,34.7z M34.9,12.2l-2.7,4.2l-5.6-3.6l2.7-4.2
	c0.3-0.4,0.7-0.7,1.1-0.7c0.2,0,0.3,0,0.5,0.1l3.8,2.4C35.2,10.8,35.3,11.6,34.9,12.2z"/>
</svg>
