<svg xmlns="http://www.w3.org/2000/svg" xmlns:xlink="http://www.w3.org/1999/xlink" preserveAspectRatio="xMidYMid" width="32" height="32" viewBox="0 0 32 32">
  <path d="M26.599,2.524 L23.719,0.790 C22.885,0.284 21.900,-0.005 20.839,-0.005 L20.839,-0.005 C18.944,-0.005 17.200,0.934 16.139,2.452 L5.149,18.709 C4.845,19.143 4.618,19.648 4.542,20.154 L3.102,26.730 C2.723,28.464 3.481,30.270 5.073,31.282 C5.831,31.715 6.664,32.004 7.574,32.004 C8.484,32.004 9.469,31.715 10.227,31.137 L15.912,27.235 C16.367,26.946 16.746,26.513 17.049,26.079 L28.115,9.822 C29.707,7.293 29.025,4.041 26.599,2.524 ZM13.183,23.695 L7.498,27.597 L8.938,21.021 L15.457,11.411 L19.702,14.012 L13.183,23.695 ZM24.250,7.437 L22.203,10.472 L17.958,7.871 L20.005,4.836 C20.232,4.547 20.536,4.330 20.839,4.330 C20.990,4.330 21.066,4.330 21.218,4.402 L24.098,6.137 C24.477,6.426 24.553,7.004 24.250,7.437 Z"/>
</svg>
