<svg xmlns="http://www.w3.org/2000/svg" xmlns:xlink="http://www.w3.org/1999/xlink" preserveAspectRatio="xMidYMid" width="32" height="32" viewBox="0 0 32 32">
  <path d="M28.813,19.187 L19.187,19.187 L19.187,28.812 C19.187,30.573 17.760,32.000 16.000,32.000 C14.240,32.000 12.813,30.573 12.813,28.812 L12.813,19.187 L3.187,19.187 C1.427,19.187 0.000,17.760 0.000,16.000 C0.000,14.240 1.427,12.812 3.187,12.812 L12.813,12.812 L12.813,3.188 C12.813,1.427 14.240,0.000 16.000,0.000 C17.760,0.000 19.187,1.427 19.187,3.188 L19.187,12.812 L28.813,12.812 C30.573,12.812 32.000,14.240 32.000,16.000 C32.000,17.760 30.573,19.187 28.813,19.187 Z"/>
</svg>
