<svg xmlns="http://www.w3.org/2000/svg" xmlns:xlink="http://www.w3.org/1999/xlink" preserveAspectRatio="xMidYMid" width="32" height="32" viewBox="0 0 32 32">
  <path d="M16.000,32.001 C7.742,32.001 0.985,29.237 0.985,25.746 C0.985,23.418 3.988,21.455 8.492,20.364 C8.492,20.437 8.492,20.437 8.492,20.509 C8.492,21.673 12.171,25.528 16.000,25.528 C19.829,25.528 23.508,21.673 23.508,20.509 C23.508,20.437 23.508,20.437 23.508,20.364 C28.012,21.455 31.015,23.418 31.015,25.746 C31.015,29.237 24.258,32.001 16.000,32.001 ZM16.000,20.364 C11.420,20.364 7.742,16.073 7.742,9.818 C7.742,3.563 11.420,-0.001 16.000,-0.001 C20.580,-0.001 24.258,3.563 24.258,9.818 C24.258,16.073 20.580,20.364 16.000,20.364 Z"/>
</svg>
