<svg xmlns="http://www.w3.org/2000/svg" xmlns:xlink="http://www.w3.org/1999/xlink" preserveAspectRatio="xMidYMid" width="32" height="32" viewBox="0 0 32 32">
  <path d="M30.994,3.144 C30.994,8.901 30.994,14.672 30.994,20.429 C30.637,21.543 29.837,22.257 28.895,22.857 C26.010,24.714 22.912,25.186 19.641,24.057 C17.742,23.400 15.886,22.571 13.972,21.957 C10.916,20.972 7.903,21.100 5.019,22.686 C4.576,22.929 4.390,23.214 4.405,23.743 C4.433,25.757 4.419,27.785 4.419,29.814 C4.419,31.071 3.962,31.771 3.005,31.957 C2.177,32.114 1.477,31.600 1.035,30.500 C1.020,30.471 1.020,30.457 1.006,30.442 C1.006,20.829 1.006,11.201 1.006,1.587 C1.234,0.830 1.677,0.287 2.434,0.016 C2.677,0.016 2.905,0.016 3.148,0.016 C4.348,0.530 4.562,1.544 4.419,2.773 C4.647,2.673 4.776,2.615 4.904,2.558 C7.403,1.401 10.031,1.044 12.687,1.615 C14.443,2.001 16.143,2.758 17.799,3.515 C19.798,4.430 21.812,4.944 23.997,4.601 C25.553,4.358 27.067,4.015 28.281,2.887 C29.395,1.815 30.151,1.915 30.994,3.144 ZM7.032,12.029 C7.032,10.315 7.032,8.601 7.032,6.887 C7.032,5.915 6.547,5.387 5.704,5.401 C4.919,5.415 4.433,5.972 4.433,6.887 C4.433,10.286 4.433,13.686 4.433,17.086 C4.433,18.043 4.919,18.600 5.733,18.600 C6.561,18.600 7.018,18.072 7.032,17.086 C7.032,15.400 7.032,13.715 7.032,12.029 Z"/>
</svg>
