<?xml version="1.0" encoding="utf-8"?>
<svg version="1.1" id="Warstwa_1" xmlns="http://www.w3.org/2000/svg" xmlns:xlink="http://www.w3.org/1999/xlink" x="0px" y="0px"
    viewBox="0 0 441.7 424" style="enable-background:new 0 0 441.7 424;" xml:space="preserve">
		<path id="XMLID_26_" class="st0" d="M313.3,136.3c0,40.3,0,80.7,0,121c-2.5,7.8-8.1,12.8-14.7,17c-20.2,13-41.9,16.3-64.8,8.4
			c-13.3-4.6-26.3-10.4-39.7-14.7c-21.4-6.9-42.5-6-62.7,5.1c-3.1,1.7-4.4,3.7-4.3,7.4c0.2,14.1,0.1,28.3,0.1,42.5
			c0,8.8-3.2,13.7-9.9,15c-5.8,1.1-10.7-2.5-13.8-10.2c-0.1-0.2-0.1-0.3-0.2-0.4c0-67.3,0-134.7,0-202c1.6-5.3,4.7-9.1,10-11
			c1.7,0,3.3,0,5,0c8.4,3.6,9.9,10.7,8.9,19.3c1.6-0.7,2.5-1.1,3.4-1.5c17.5-8.1,35.9-10.6,54.5-6.6c12.3,2.7,24.2,8,35.8,13.3
			c14,6.4,28.1,10,43.4,7.6c10.9-1.7,21.5-4.1,30-12C302.1,127,307.4,127.7,313.3,136.3z M145.5,198.5c0-12,0-24,0-36
			c0-6.8-3.4-10.5-9.3-10.4c-5.5,0.1-8.9,4-8.9,10.4c0,23.8,0,47.6,0,71.4c0,6.7,3.4,10.6,9.1,10.6c5.8,0,9-3.7,9.1-10.6
			C145.5,222.1,145.5,210.3,145.5,198.5z"/>
</svg>
