<svg xmlns="http://www.w3.org/2000/svg" xmlns:xlink="http://www.w3.org/1999/xlink" preserveAspectRatio="xMidYMid" width="32" height="32" viewBox="0 0 32 32">
  <path d="M31.031,26.458 L23.671,18.920 C24.631,17.156 25.111,15.071 25.111,12.906 C25.111,5.770 19.512,-0.003 12.552,-0.003 C5.592,-0.084 -0.007,5.690 -0.007,12.826 C-0.007,19.963 5.592,25.736 12.552,25.736 C15.112,25.736 17.432,24.934 19.432,23.651 L26.551,31.028 C27.751,32.311 29.751,32.311 31.031,31.028 C32.311,29.745 32.311,27.741 31.031,26.458 ZM12.792,20.765 C8.392,20.765 4.792,17.156 4.792,12.746 C4.792,8.336 8.392,4.728 12.792,4.728 C17.192,4.728 20.792,8.336 20.792,12.746 C20.792,17.156 17.192,20.765 12.792,20.765 Z"/>
</svg>
