<?xml version="1.0" encoding="utf-8"?>
<svg version="1.1" id="Layer_1" xmlns="http://www.w3.org/2000/svg" xmlns:xlink="http://www.w3.org/1999/xlink" x="0px" y="0px"
	 viewBox="0 0 48 48" style="enable-background:new 0 0 48 48;" xml:space="preserve">
	<path id="XMLID_49_" d="M42.8,37.1l-9.2-9.4c1.2-2.2,1.8-4.8,1.8-7.5c0-8.9-7-16.1-15.7-16.1C11,4,4,11.2,4,20.1s7,16.1,15.7,16.1
		c3.2,0,6.1-1,8.6-2.6l8.9,9.2c1.5,1.6,4,1.6,5.6,0C44.4,41.2,44.4,38.7,42.8,37.1z M20,30c-5.5,0-10-4.5-10-10s4.5-10,10-10
		s10,4.5,10,10S25.5,30,20,30z"/>
</svg>
