<?xml version="1.0" encoding="utf-8"?>
<svg version="1.1" id="Layer_1" xmlns="http://www.w3.org/2000/svg" xmlns:xlink="http://www.w3.org/1999/xlink" x="0px" y="0px"
	 viewBox="0 0 48 48" style="enable-background:new 0 0 48 48;" xml:space="preserve">
<path id="XMLID_115_" d="M46.3,18.7c-0.3-1-1.2-1.8-2.3-1.9c0,0-10.2-0.4-12.1-1.8S26.5,4,26.5,4C26,3,25.1,2.4,24,2.4S22,3,21.5,4
	c0,0-3.6,9.7-5.4,11C14.3,16.3,4,16.8,4,16.8c-1.1,0.2-2,0.9-2.3,1.9s-0.1,2.1,0.7,2.9c0,0,8.1,5.9,8.8,8.5s-2.1,12-2.1,12
	c-0.2,1.1,0.3,2.1,1.1,2.7c0.5,0.4,1.1,0.5,1.6,0.5c0.4,0,0.9-0.1,1.3-0.3c0,0,8-5.7,10.8-5.7S34.7,45,34.7,45
	c0.4,0.2,0.9,0.3,1.3,0.3c0.6,0,1.2-0.2,1.6-0.5c0.9-0.6,1.3-1.7,1.1-2.7c0,0-3-9.3-2.1-12s8.8-8.5,8.8-8.5
	C46.3,20.9,46.6,19.7,46.3,18.7z"/>
</svg>
