<svg xmlns="http://www.w3.org/2000/svg" xmlns:xlink="http://www.w3.org/1999/xlink" preserveAspectRatio="xMidYMid" width="32" height="32" viewBox="0 0 32 32">
  <path d="M31.925,12.160 C31.711,11.414 31.069,10.817 30.284,10.742 C30.284,10.742 23.005,10.444 21.650,9.400 C20.294,8.356 17.796,1.195 17.796,1.195 C17.440,0.449 16.797,0.002 16.013,0.002 C15.228,0.002 14.585,0.449 14.229,1.195 C14.229,1.195 11.660,8.430 10.375,9.400 C9.091,10.369 1.741,10.742 1.741,10.742 C0.956,10.892 0.314,11.414 0.100,12.160 C-0.114,12.905 0.029,13.726 0.600,14.323 C0.600,14.323 6.379,18.723 6.879,20.662 C7.378,22.602 5.380,29.613 5.380,29.613 C5.238,30.433 5.595,31.179 6.165,31.627 C6.522,31.925 6.950,32.000 7.307,32.000 C7.592,32.000 7.949,31.925 8.235,31.776 C8.235,31.776 13.943,27.525 15.941,27.525 C17.939,27.525 23.648,31.776 23.648,31.776 C23.933,31.925 24.290,32.000 24.575,32.000 C25.003,32.000 25.432,31.851 25.717,31.627 C26.359,31.179 26.645,30.359 26.502,29.613 C26.502,29.613 24.361,22.676 25.003,20.662 C25.646,18.649 31.283,14.323 31.283,14.323 C31.925,13.800 32.139,12.905 31.925,12.160 Z"/>
</svg>
