<svg xmlns="http://www.w3.org/2000/svg" xmlns:xlink="http://www.w3.org/1999/xlink" preserveAspectRatio="xMidYMid" width="32" height="32" viewBox="0 0 32 32">
  <path d="M29.333,4.000 L2.667,4.000 C1.200,4.000 0.000,5.200 0.000,6.667 C0.000,8.133 1.200,9.333 2.667,9.333 L29.333,9.333 C30.800,9.333 32.000,8.133 32.000,6.667 C32.000,5.200 30.800,4.000 29.333,4.000 ZM21.333,13.333 L2.667,13.333 C1.200,13.333 0.000,14.533 0.000,16.000 C0.000,17.467 1.200,18.667 2.667,18.667 L21.333,18.667 C22.800,18.667 24.000,17.467 24.000,16.000 C24.000,14.533 22.800,13.333 21.333,13.333 ZM13.333,22.667 L2.667,22.667 C1.200,22.667 0.000,23.867 0.000,25.333 C0.000,26.800 1.200,28.000 2.667,28.000 L13.333,28.000 C14.800,28.000 16.000,26.800 16.000,25.333 C16.000,23.867 14.800,22.667 13.333,22.667 Z"/>
</svg>
