<svg xmlns="http://www.w3.org/2000/svg" xmlns:xlink="http://www.w3.org/1999/xlink" preserveAspectRatio="xMidYMid" width="30" height="26" viewBox="0 0 30 26">
  <defs>
    <style>
      .cls-1 {
        fill: #5bb8ff;
        fill-rule: evenodd;
      }
    </style>
  </defs>
  <path d="M20.250,6.225 C21.453,7.507 22.054,9.371 22.054,11.818 C22.054,14.113 21.638,16.061 20.805,17.661 C19.973,19.261 18.696,20.600 16.977,21.678 L16.977,24.991 L27.001,24.991 L27.001,21.678 L20.977,21.678 C22.631,20.536 23.905,19.065 24.797,17.265 C25.690,15.465 26.136,13.472 26.136,11.284 C26.136,8.105 25.145,5.594 23.165,3.752 C21.183,1.909 18.463,0.988 15.001,0.988 C11.540,0.988 8.819,1.917 6.838,3.776 C4.857,5.635 3.867,8.138 3.867,11.284 C3.867,13.440 4.305,15.422 5.181,17.233 C6.057,19.043 7.322,20.525 8.977,21.678 L3.001,21.678 L3.001,24.991 L12.993,24.991 L12.993,21.678 C11.230,20.536 9.948,19.170 9.148,17.580 C8.348,15.991 7.948,14.070 7.948,11.818 C7.948,9.382 8.547,7.521 9.744,6.233 C10.941,4.945 12.694,4.301 15.001,4.301 C17.298,4.301 19.047,4.942 20.250,6.225 Z" class="cls-1"/>
</svg>
