<svg xmlns="http://www.w3.org/2000/svg" viewBox="0 0 512 512">
<path fill-rule="evenodd" clip-rule="evenodd" d="M64 149.333C64 102.205 102.205 64 149.333 64H362.667C409.795 64 448 102.205 448 149.333V320C448 367.128 409.795 405.333 362.667 405.333H319.461L222.935 466.416C208.724 474.672 190.908 464.435 190.885 448L190.831 405.333H149.333C102.205 405.333 64 367.128 64 320V149.333ZM106.667 149.333C106.667 137.551 116.218 128 128 128H341.333C353.115 128 362.667 137.551 362.667 149.333C362.667 161.115 353.115 170.667 341.333 170.667H128C116.218 170.667 106.667 161.115 106.667 149.333ZM409.752 262.248C418.083 270.58 418.083 284.087 409.752 292.418L345.752 356.418C337.42 364.749 323.913 364.749 315.582 356.418L283.582 324.418C275.251 316.087 275.251 302.58 283.582 294.248C291.913 285.917 305.42 285.917 313.752 294.248L330.667 311.163L379.582 262.248C387.913 253.917 401.42 253.917 409.752 262.248ZM128 213.333C116.218 213.333 106.667 222.885 106.667 234.667C106.667 246.449 116.218 256 128 256H277.333C289.115 256 298.667 246.449 298.667 234.667C298.667 222.885 289.115 213.333 277.333 213.333H128ZM106.667 320C106.667 308.218 116.218 298.667 128 298.667H170.667C182.449 298.667 192 308.218 192 320C192 331.782 182.449 341.333 170.667 341.333H128C116.218 341.333 106.667 331.782 106.667 320Z" fill="black"/>
</svg>
