<svg viewBox="0 0 512 512" xmlns="http://www.w3.org/2000/svg" xmlns:xlink="http://www.w3.org/1999/xlink">
  <title>ask-bubble</title>
  <path d="M384 85.333c23.564 0 42.667 19.103 42.667 42.667v256c0 23.564-19.103 42.667-42.667 42.667h-76.8l-51.2 64-51.2-64H128c-23.564 0-42.667-19.103-42.667-42.667V128c0-23.564 19.103-42.667 42.667-42.667h256zM256 320c-11.782 0-21.333 9.551-21.333 21.333 0 11.782 9.55 21.334 21.333 21.334 11.782 0 21.333-9.552 21.333-21.334S267.783 320 256 320zm61.152-127.428c-9.323-28.97-39.366-47.06-70.671-42.552-31.305 4.506-54.465 30.254-54.481 60.569 0 8.451 7.155 15.302 15.98 15.302 8.826 0 15.98-6.85 15.98-15.302.006-15.178 11.602-28.07 27.276-30.325 15.674-2.255 30.714 6.805 35.377 21.311 4.663 14.506-2.453 30.097-16.738 36.673-18.173 8.303-29.777 25.835-29.86 45.116 0 8.452 7.155 15.303 15.98 15.303 8.826 0 15.98-6.851 15.98-15.303 0-7.4 4.502-14.224 11.779-17.529 28.524-13.15 42.722-44.294 33.398-73.263z" fill="#000" stroke="none" stroke-width="1" fill-rule="evenodd"></path>
</svg>
