<svg xmlns="http://www.w3.org/2000/svg" viewBox="0 0 512 512">
<path fill-rule="evenodd" clip-rule="evenodd" d="M64 149.333C64 102.205 102.205 64 149.333 64H362.667C409.795 64 448 102.205 448 149.333V320C448 367.128 409.795 405.333 362.667 405.333H319.461L222.935 466.416C208.724 474.672 190.908 464.435 190.885 448L190.831 405.333H149.333C102.205 405.333 64 367.128 64 320V149.333ZM105.604 150.93C105.604 139.148 115.155 129.596 126.938 129.596H212.271C224.053 129.596 233.604 139.148 233.604 150.93C233.604 162.712 224.053 172.263 212.271 172.263H126.938C115.155 172.263 105.604 162.712 105.604 150.93ZM318.938 190.93C318.938 181.896 327.171 172.263 340.271 172.263C353.371 172.263 361.604 181.896 361.604 190.93C361.604 197.239 357.882 203.502 351.035 207.036C339.061 213.217 318.938 227.729 318.938 252.263V257.596C318.938 269.378 328.489 278.93 340.271 278.93C352.053 278.93 361.604 269.378 361.604 257.596V252.389C361.685 252.167 361.954 251.617 362.743 250.706C364.306 248.901 367.015 246.804 370.606 244.95C390.127 234.873 404.271 214.834 404.271 190.93C404.271 155.78 374.299 129.596 340.271 129.596C306.242 129.596 276.271 155.78 276.271 190.93C276.271 202.712 285.822 212.263 297.604 212.263C309.386 212.263 318.938 202.712 318.938 190.93ZM340.271 342.93C352.053 342.93 361.604 333.378 361.604 321.596C361.604 309.814 352.053 300.263 340.271 300.263C328.489 300.263 318.938 309.814 318.938 321.596C318.938 333.378 328.489 342.93 340.271 342.93ZM126.938 214.93C115.155 214.93 105.604 224.481 105.604 236.263C105.604 248.045 115.155 257.596 126.938 257.596H212.271C224.053 257.596 233.604 248.045 233.604 236.263C233.604 224.481 224.053 214.93 212.271 214.93H126.938ZM105.604 321.596C105.604 309.814 115.155 300.263 126.938 300.263H254.938C266.72 300.263 276.271 309.814 276.271 321.596C276.271 333.378 266.72 342.93 254.938 342.93H126.938C115.155 342.93 105.604 333.378 105.604 321.596Z" fill="black"/>
</svg>
