<svg viewBox="0 0 512 512" xmlns="http://www.w3.org/2000/svg">
<path fill-rule="evenodd" d="M85.3333 106.667C85.3333 83.1025 104.436 64 128 64H384C407.564 64 426.667 83.1025 426.667 106.667V362.667C426.667 386.231 407.564 405.333 384 405.333H307.2L256 469.333L204.8 405.333H128C104.436 405.333 85.3333 386.231 85.3333 362.667V106.667ZM223.96 189.256C223.966 174.078 235.562 161.186 251.236 158.931C266.91 156.676 281.95 165.736 286.613 180.242C291.276 194.748 284.16 210.339 269.875 216.915C251.702 225.217 240.098 242.75 240.015 262.031C240.015 270.482 247.17 277.333 255.995 277.333C264.821 277.333 271.975 270.482 271.975 262.031C271.975 254.631 276.477 247.806 283.754 244.502C312.278 231.352 326.476 200.208 317.152 171.238C307.829 142.268 277.786 124.179 246.481 128.686C215.176 133.193 192.016 158.941 192 189.256C192 197.707 199.154 204.558 207.98 204.558C216.806 204.558 223.96 197.707 223.96 189.256ZM256 341.333C267.782 341.333 277.333 331.782 277.333 320C277.333 308.218 267.782 298.667 256 298.667C244.218 298.667 234.667 308.218 234.667 320C234.667 331.782 244.218 341.333 256 341.333Z"/>
</svg>
