<?xml version="1.0" encoding="UTF-8"?>
<svg width="512px" height="512px" viewBox="0 0 512 512" version="1.1" xmlns="http://www.w3.org/2000/svg" xmlns:xlink="http://www.w3.org/1999/xlink">
    <title>backward_5s</title>
    <g id="backward_5s" stroke="none" stroke-width="1" fill="none" fill-rule="evenodd">
        <path d="M260.650667,364.970667 C291.562667,364.970667 311.914667,347.882667 311.914667,320.618667 C311.914667,294.698667 292.522667,279.146667 270.826667,279.146667 C259.114667,279.146667 248.746667,283.754667 242.602667,289.898667 L242.602667,258.602667 L303.274667,258.602667 L303.274667,234.602667 L215.338667,234.602667 L215.338667,308.138667 L234.346667,313.130667 C242.026667,305.834667 250.666667,302.762667 261.226667,302.762667 C275.818667,302.762667 284.266667,310.442667 284.266667,321.770667 C284.266667,332.138667 275.626667,340.778667 260.458667,340.778667 C247.018667,340.778667 235.114667,335.786667 226.474667,326.762667 L211.306667,345.770667 C222.250667,357.674667 238.378667,364.970667 260.650667,364.970667 Z" id="5" fill="#000000" fill-rule="nonzero"></path>
        <g id="Group" transform="translate(256.000000, 250.339779) scale(-1, 1) translate(-256.000000, -250.339779) translate(64.000000, 31.339779)" fill="#000000" fill-rule="nonzero">
            <path d="M162.557567,5.25087424 L164.418278,6.90861001 L224.758057,67.2483887 C232.494157,74.9844889 233.046736,87.1838573 226.415792,95.5575673 L224.758057,97.418278 L164.418278,157.758057 C156.087093,166.089242 142.579574,166.089242 134.248389,157.758057 C126.512288,150.021956 125.95971,137.822588 132.590653,129.448878 L134.248389,127.588167 L162.210274,99.6253702 C93.6468699,113.476236 42.6666667,174.138272 42.6666667,245.993555 C42.6666667,328.468077 109.525477,395.326888 192,395.326888 C274.474523,395.326888 341.333333,328.468077 341.333333,245.993555 C341.333333,226.56099 337.631014,207.678487 330.519063,190.079157 C326.104694,179.155301 331.381676,166.721213 342.305532,162.306844 C353.229388,157.892475 365.663476,163.169457 370.077845,174.093313 C379.233914,196.751043 384,221.058954 384,245.993555 C384,352.032227 298.038672,437.993555 192,437.993555 C85.961328,437.993555 0,352.032227 0,245.993555 C0,153.239999 66.0458664,75.0102098 154.772739,57.5997957 L134.248389,37.0784993 C126.512288,29.3423991 125.95971,17.1430307 132.590653,8.76932069 L134.248389,6.90861001 C141.984489,-0.827490249 154.183857,-1.38006884 162.557567,5.25087424 Z M269.224234,5.25087424 L271.084945,6.90861001 L331.424723,67.2483887 C339.160824,74.9844889 339.713402,87.1838573 333.082459,95.5575673 L331.424723,97.418278 L271.084945,157.758057 C262.75376,166.089242 249.24624,166.089242 240.915055,157.758057 C233.178955,150.021956 232.626376,137.822588 239.25732,129.448878 L240.915055,127.588167 L286.169889,82.3333333 L240.915055,37.0784993 C233.178955,29.3423991 232.626376,17.1430307 239.25732,8.76932069 L240.915055,6.90861001 C248.651156,-0.827490249 260.850524,-1.38006884 269.224234,5.25087424 Z" id="Combined-Shape"></path>
        </g>
    </g>
</svg>