<svg xmlns="http://www.w3.org/2000/svg" viewBox="0 0 512 512">
<path d="M278.851 100.418C287.182 92.0871 287.182 78.5796 278.851 70.2484C270.519 61.9172 257.012 61.9172 248.681 70.2484L203.426 115.503C195.095 123.834 195.095 137.342 203.426 145.673L248.681 190.928C257.012 199.259 270.519 199.259 278.851 190.928C287.182 182.597 287.182 169.089 278.851 160.758L267.979 149.886C333.055 155.926 384 210.68 384 277.333C384 348.026 326.692 405.333 256 405.333C185.308 405.333 128 348.026 128 277.333C128 260.473 131.249 244.423 137.135 229.738C141.519 218.802 136.207 206.383 125.271 201.999C114.334 197.615 101.915 202.927 97.5316 213.863C89.6558 233.512 85.3333 254.944 85.3333 277.333C85.3333 371.59 161.743 448 256 448C350.257 448 426.667 371.59 426.667 277.333C426.667 188.429 358.688 115.402 271.874 107.395L278.851 100.418Z" fill="black"/>
<path d="M188.34 70.2484C196.671 78.5796 196.671 92.0871 188.34 100.418L158.17 130.588L188.34 160.758C196.671 169.089 196.671 182.597 188.34 190.928C180.009 199.259 166.501 199.259 158.17 190.928L112.915 145.673C104.584 137.342 104.584 123.834 112.915 115.503L158.17 70.2484C166.501 61.9172 180.009 61.9172 188.34 70.2484Z" fill="black"/>
<path d="M208.807 321.55C203.35 328.725 204.231 339.112 212.227 343.273C223.167 348.966 236.676 352.16 252.374 352.16C288.04 352.16 309.02 334.041 309.02 306.004C309.02 280.638 289.757 264.426 268.014 264.426C257.333 264.426 247.606 268.24 241.503 274.153V256.225H283.463C292.732 256.225 300.247 248.71 300.247 239.441C300.247 230.171 292.732 222.657 283.463 222.657H225.39C213.011 222.657 202.977 232.692 202.977 245.07V283.623C202.977 293.15 209.555 301.415 218.839 303.553C225.493 305.084 232.261 302.679 238.523 299.959C242.819 298.093 247.608 297.231 253.137 297.231C264.962 297.231 269.921 301.999 269.921 307.721C269.921 313.061 264.772 318.21 251.993 318.21C246.666 318.21 241.03 317.326 235.638 315.6C226.235 312.589 214.784 313.692 208.807 321.55Z" fill="black"/>
</svg>
