<svg width="512px" height="512px" viewBox="0 0 512 512" version="1.1" xmlns="http://www.w3.org/2000/svg" xmlns:xlink="http://www.w3.org/1999/xlink" aria-label="backward end">
  <path d="M381.051334,90.0295842 C386.975238,86.0296066 393.527724,84.5796148 400.727839,85.6996085 C407.765317,86.7316691 414.254819,90.2603226 419.118608,95.6995524 C424.204404,101.259521 426.737778,108.479481 426.737778,117.379431 L426.737778,117.379431 L426.737778,394.817876 C426.737778,402.817831 424.309168,409.717792 419.451947,415.49776 C414.786528,421.155348 408.386549,424.925528 401.35642,426.1577 C394.349812,427.530263 387.107607,426.103593 381.051334,422.157722 L381.051334,422.157722 L170.666333,291.505333 L170.666667,384 C170.666667,407.564149 151.564149,426.666667 128,426.666667 C104.435851,426.666667 85.3333333,407.564149 85.3333333,384 L85.3333333,128 C85.3333333,104.435851 104.435851,85.3333333 128,85.3333333 C151.564149,85.3333333 170.666667,104.435851 170.666667,128 L170.666333,220.681333 Z"></path>
</svg>
