<svg width="512" height="512" aria-labelledby="backward 5s">
  <path d="M260.65 364.97c30.913 0 51.265-17.087 51.265-44.351 0-25.92-19.392-41.472-41.088-41.472-11.712 0-22.08 4.608-28.224 10.752v-31.296h60.672v-24h-87.936v73.536l19.008 4.992c7.68-7.296 16.32-10.368 26.88-10.368 14.592 0 23.04 7.68 23.04 19.008 0 10.368-8.64 19.008-23.808 19.008-13.44 0-25.344-4.992-33.984-14.016l-15.168 19.008c10.944 11.904 27.072 19.2 49.344 19.2z" />
  <path d="M285.442 36.59l-1.86 1.658-60.34 60.34c-7.736 7.736-8.289 19.936-1.658 28.31l1.658 1.86 60.34 60.34c8.33 8.331 21.838 8.331 30.17 0 7.736-7.736 8.288-19.936 1.657-28.31l-1.657-1.86-27.962-27.963c68.563 13.851 119.543 74.513 119.543 146.368 0 82.475-66.858 149.334-149.333 149.334s-149.333-66.86-149.333-149.334c0-19.432 3.702-38.315 10.814-55.914 4.414-10.924-.863-23.358-11.787-27.772-10.923-4.415-23.357.862-27.772 11.786C68.766 228.091 64 252.4 64 277.333c0 106.039 85.961 192 192 192s192-85.961 192-192c0-92.753-66.046-170.983-154.773-188.393l20.525-20.522c7.736-7.736 8.288-19.935 1.657-28.309l-1.657-1.86c-7.736-7.737-19.936-8.29-28.31-1.658zm-106.666 0l-1.86 1.658-60.34 60.34c-7.737 7.736-8.29 19.936-1.658 28.31l1.657 1.86 60.34 60.34c8.331 8.331 21.839 8.331 30.17 0 7.736-7.736 8.289-19.936 1.658-28.31l-1.658-1.86-45.255-45.255 45.255-45.255c7.736-7.736 8.289-19.935 1.658-28.309l-1.658-1.86c-7.736-7.737-19.936-8.29-28.31-1.658z" />
</svg>
