<svg xmlns="http://www.w3.org/2000/svg" viewBox="0 0 512 512">
<path d="M64 149.333C64 102.205 102.205 64 149.333 64H170.667C182.449 64 192 73.5513 192 85.3333C192 97.1154 182.449 106.667 170.667 106.667H149.333C125.769 106.667 106.667 125.769 106.667 149.333V170.667C106.667 182.449 97.1154 192 85.3333 192C73.5513 192 64 182.449 64 170.667V149.333Z" fill="black"/>
<path d="M320 85.3333C320 73.5513 329.551 64 341.333 64H362.667C409.795 64 448 102.205 448 149.333V170.667C448 182.449 438.449 192 426.667 192C414.885 192 405.333 182.449 405.333 170.667V149.333C405.333 125.769 386.231 106.667 362.667 106.667H341.333C329.551 106.667 320 97.1154 320 85.3333Z" fill="black"/>
<path d="M85.3333 320C97.1154 320 106.667 329.551 106.667 341.333V362.667C106.667 386.231 125.769 405.333 149.333 405.333H170.667C182.449 405.333 192 414.885 192 426.667C192 438.449 182.449 448 170.667 448H149.333C102.205 448 64 409.795 64 362.667V341.333C64 329.551 73.5513 320 85.3333 320Z" fill="black"/>
<path d="M426.667 320C438.449 320 448 329.551 448 341.333V362.667C448 409.795 409.795 448 362.667 448H341.333C329.551 448 320 438.449 320 426.667C320 414.885 329.551 405.333 341.333 405.333H362.667C386.231 405.333 405.333 386.231 405.333 362.667V341.333C405.333 329.551 414.885 320 426.667 320Z" fill="black"/>
<path d="M256 170.667C256 158.885 265.551 149.333 277.333 149.333H298.667C310.449 149.333 320 158.885 320 170.667V341.333C320 353.115 310.449 362.667 298.667 362.667H277.333C265.551 362.667 256 353.115 256 341.333V170.667Z" fill="black"/>
<path d="M224 149.333C218.109 149.333 213.333 154.109 213.333 160V352C213.333 357.891 218.109 362.667 224 362.667C229.891 362.667 234.667 357.891 234.667 352V160C234.667 154.109 229.891 149.333 224 149.333Z" fill="black"/>
<path d="M149.333 170.667C149.333 158.885 158.885 149.333 170.667 149.333C182.449 149.333 192 158.885 192 170.667V341.333C192 353.115 182.449 362.667 170.667 362.667C158.885 362.667 149.333 353.115 149.333 341.333V170.667Z" fill="black"/>
<path d="M352 149.333C346.109 149.333 341.333 154.109 341.333 160V352C341.333 357.891 346.109 362.667 352 362.667C357.891 362.667 362.667 357.891 362.667 352V160C362.667 154.109 357.891 149.333 352 149.333Z" fill="black"/>
</svg>
