<svg viewBox="0 0 512 512" xmlns="http://www.w3.org/2000/svg">
<path d="M384 256.036C391.269 256.036 398.396 255.431 405.334 254.267V426.654C405.334 464.307 360.116 483.502 333.03 457.348L256 382.969L178.971 457.348C151.884 483.502 106.667 464.307 106.667 426.654V106.667C106.667 71.3205 135.321 42.6667 170.667 42.6667H288.626C268.338 65.3167 256 95.2358 256 128.036C256 198.729 313.308 256.036 384 256.036Z" fill="black"/>
<path d="M452.419 111.121C460.75 102.79 460.75 89.2827 452.419 80.9515C444.087 72.6203 430.58 72.6203 422.249 80.9515L373.334 129.867L356.419 112.952C348.087 104.62 334.58 104.62 326.249 112.952C317.918 121.283 317.918 134.79 326.249 143.121L358.249 175.121C366.58 183.453 380.087 183.453 388.419 175.121L452.419 111.121Z" fill="black"/>
</svg>
