<svg xmlns="http://www.w3.org/2000/svg" viewBox="0 0 512 512">
<path fill-rule="evenodd" clip-rule="evenodd" d="M320 192V149.333C320 102.205 281.795 64 234.667 64H149.333C102.205 64 64 102.205 64 149.333V234.667C64 281.795 102.205 320 149.333 320H192V362.667C192 409.795 230.205 448 277.333 448H362.667C409.795 448 448 409.795 448 362.667V277.333C448 230.205 409.795 192 362.667 192H320ZM234.667 106.667H149.333C125.769 106.667 106.667 125.769 106.667 149.333V234.667C106.667 258.231 125.769 277.333 149.333 277.333H192C192 230.205 230.205 192 277.333 192V149.333C277.333 125.769 258.231 106.667 234.667 106.667Z" fill="black"/>
</svg>
