<svg viewBox="0 0 512 512" xmlns="http://www.w3.org/2000/svg" aria-label="bring front">
  <path fill-rule="evenodd" clip-rule="evenodd" d="M398.443 85.3335H217.927C210.391 85.3335 203.164 88.3303 197.836 93.6647C192.507 98.999 189.514 106.234 189.514 113.778V199.111H113.746C106.211 199.111 98.9837 202.108 93.6553 207.442C88.3268 212.777 85.3333 220.012 85.3333 227.556V398.222C85.3333 405.766 88.3268 413.001 93.6553 418.336C98.9837 423.67 106.211 426.667 113.746 426.667H294.073C301.609 426.667 308.836 423.67 314.164 418.336C319.493 413.001 322.486 405.766 322.486 398.222V312.889H398.254C405.789 312.889 413.016 309.892 418.345 304.558C423.673 299.224 426.667 291.989 426.667 284.445V113.778C426.667 106.267 423.699 99.0604 418.412 93.7314C413.124 88.4025 405.946 85.3836 398.443 85.3335V85.3335ZM370.03 142.222V256H323.054V227.556C323.054 220.012 320.061 212.777 314.732 207.442C309.404 202.108 302.177 199.111 294.642 199.111H246.34V142.222H370.03Z" fill="black"/>
</svg>
