<svg xmlns="http://www.w3.org/2000/svg" viewBox="0 0 512 512">
<path d="M85.3335 106.667C85.3335 71.3205 113.987 42.6667 149.333 42.6667V161.83C149.333 180.836 172.313 190.354 185.752 176.915L213.333 149.333L240.915 176.915C254.354 190.354 277.334 180.836 277.334 161.83V42.6667H384C407.564 42.6667 426.667 61.7693 426.667 85.3334V320C426.667 343.564 407.564 362.667 384 362.667H160C142.327 362.667 128 376.994 128 394.667C128 412.34 142.327 426.667 160 426.667H405.334C417.116 426.667 426.667 436.218 426.667 448C426.667 459.782 417.116 469.333 405.334 469.333H149.333C113.987 469.333 85.3335 440.68 85.3335 405.333V106.667Z" fill="black"/>
</svg>
