<svg xmlns="http://www.w3.org/2000/svg" viewBox="0 0 512 512">
<path fill-rule="evenodd" clip-rule="evenodd" d="M256 469.333C373.821 469.333 469.333 373.821 469.333 256C469.333 138.179 373.821 42.6667 256 42.6667C138.179 42.6667 42.6665 138.179 42.6665 256C42.6665 373.821 138.179 469.333 256 469.333ZM335.067 205.892C343.063 197.895 343.063 184.93 335.067 176.933C327.07 168.937 314.105 168.937 306.108 176.933L256 227.042L205.622 176.664C197.626 168.668 184.66 168.668 176.664 176.664L176.4 176.933C168.669 184.947 168.756 197.714 176.664 205.622L227.041 256L176.933 306.109C168.937 314.105 168.937 327.071 176.933 335.067C184.929 343.064 197.895 343.064 205.891 335.067L256 284.958L306.377 335.336C314.374 343.332 327.339 343.332 335.336 335.336L335.6 335.067C343.331 327.053 343.244 314.286 335.336 306.378L284.958 256L335.067 205.892Z" fill="black"/>
</svg>
