<svg viewBox="0 0 512 512" xmlns="http://www.w3.org/2000/svg" xmlns:xlink="http://www.w3.org/1999/xlink">
  <title>clear</title>
  <path d="M256 85.333c94.257 0 170.667 76.41 170.667 170.667S350.257 426.667 256 426.667 85.333 350.257 85.333 256 161.743 85.333 256 85.333zm79.085 91.582c-8.331-8.331-21.839-8.331-30.17 0L256 225.83l-48.915-48.915-2.01-1.775c-8.369-6.507-20.47-5.915-28.16 1.775-8.331 8.331-8.331 21.839 0 30.17L225.83 256l-48.915 48.915-1.775 2.01c-6.507 8.369-5.915 20.47 1.775 28.16 8.331 8.331 21.839 8.331 30.17 0L256 286.17l48.915 48.915 2.01 1.775c8.369 6.507 20.47 5.915 28.16-1.775 8.331-8.331 8.331-21.839 0-30.17L286.17 256l48.915-48.915 1.775-2.01c6.507-8.369 5.915-20.47-1.775-28.16z" fill="#000" stroke="none" stroke-width="1" fill-rule="evenodd"></path>
</svg>
