<svg viewBox="0 0 512 512" xmlns="http://www.w3.org/2000/svg" xmlns:xlink="http://www.w3.org/1999/xlink">
  <title>comment</title>
  <path d="M392.533 128c18.235-.516 33.473 13.77 34.134 32v192c-.66 18.23-15.9 32.516-34.134 32h-243.2l-38.441 38.44a14.972 14.972 0 01-25.559-10.586V160c.66-18.23 15.9-32.516 34.134-32zM170.667 234.667c-11.782 0-21.334 9.55-21.334 21.333 0 11.782 9.552 21.333 21.334 21.333S192 267.783 192 256c0-11.782-9.551-21.333-21.333-21.333zm170.666 0c-11.782 0-21.333 9.55-21.333 21.333 0 11.782 9.551 21.333 21.333 21.333 11.782 0 21.334-9.55 21.334-21.333 0-11.782-9.552-21.333-21.334-21.333zm-85.333 0c-11.782 0-21.333 9.55-21.333 21.333 0 11.782 9.55 21.333 21.333 21.333 11.782 0 21.333-9.55 21.333-21.333 0-11.782-9.55-21.333-21.333-21.333z" fill="#000" fill-rule="nonzero" stroke="none" stroke-width="1"></path>
</svg>
