<svg viewBox="0 0 512 512" xmlns="http://www.w3.org/2000/svg" xmlns:xlink="http://www.w3.org/1999/xlink">
  <title>crown-outline</title>
  <path d="M265.54 156.622a21.333 21.333 0 019.541 9.54l66.252 132.505 62.154-49.723c9.2-7.36 22.625-5.868 29.985 3.332a21.333 21.333 0 014.33 17.143l-29.284 161.064C406.674 440.627 397.84 448 387.53 448H124.471c-10.31 0-19.145-7.373-20.99-17.517L74.198 269.419c-2.107-11.592 5.581-22.698 17.173-24.806a21.333 21.333 0 0117.143 4.331l62.154 49.723 66.252-132.505c5.269-10.538 18.083-14.81 28.622-9.54zm-9.54 66.78l-58.965 117.933-41.206.094-29.472-23.584 15.915 87.488h227.435l15.914-87.488-29.434 23.564-41.208-.047L256 223.402zm181.333-74.069c17.673 0 32 14.327 32 32 0 17.673-14.327 32-32 32-17.673 0-32-14.327-32-32 0-17.673 14.327-32 32-32zm-362.666 0c17.673 0 32 14.327 32 32 0 17.673-14.327 32-32 32-17.673 0-32-14.327-32-32 0-17.673 14.327-32 32-32zM256 64c17.673 0 32 14.327 32 32 0 17.673-14.327 32-32 32-17.673 0-32-14.327-32-32 0-17.673 14.327-32 32-32z" fill="#000" stroke="none" stroke-width="1" fill-rule="evenodd"></path>
</svg>
