<svg viewBox="0 0 512 512" xmlns="http://www.w3.org/2000/svg">
<path d="M256 149.333C273.673 149.333 288 135.006 288 117.333C288 99.6602 273.673 85.3333 256 85.3333C238.327 85.3333 224 99.6602 224 117.333C224 135.006 238.327 149.333 256 149.333Z" fill="black"/>
<path d="M74.667 224C92.3401 224 106.667 209.673 106.667 192C106.667 174.327 92.3401 160 74.667 160C56.9939 160 42.667 174.327 42.667 192C42.667 209.673 56.9939 224 74.667 224Z" fill="black"/>
<path d="M103.014 254.174C87.136 246.235 69.0732 260.031 72.5547 277.439L96.3773 396.551C102.36 426.467 128.627 448 159.134 448H352.866C383.374 448 409.64 426.467 415.623 396.551L439.446 277.439C442.927 260.031 424.865 246.235 408.986 254.174L341.334 288L273.253 194.39C264.734 182.675 247.267 182.675 238.747 194.39L170.667 288L103.014 254.174Z" fill="black"/>
<path d="M469.334 192C469.334 209.673 455.007 224 437.334 224C419.661 224 405.334 209.673 405.334 192C405.334 174.327 419.661 160 437.334 160C455.007 160 469.334 174.327 469.334 192Z" fill="black"/>
</svg>
