<svg viewBox="0 0 512 512" xmlns="http://www.w3.org/2000/svg">
<path fill-rule="evenodd" clip-rule="evenodd" d="M149.333 85.3333C149.333 73.5513 158.885 64 170.667 64H341.333C353.115 64 362.667 73.5513 362.667 85.3333V106.667H405.333C428.898 106.667 448 125.769 448 149.333V192C448 239.128 409.795 277.333 362.667 277.333H353.791C340.081 308.713 311.708 332.222 277.333 339.2V362.667H320C343.564 362.667 362.667 381.769 362.667 405.333V426.667C362.667 438.449 353.115 448 341.333 448H170.667C158.885 448 149.333 438.449 149.333 426.667V405.333C149.333 381.769 168.436 362.667 192 362.667H234.667V339.2C200.292 332.222 171.92 308.713 158.209 277.333H149.333C102.205 277.333 64 239.128 64 192V149.333C64 125.769 83.1025 106.667 106.667 106.667H149.333V85.3333ZM362.667 234.667C386.231 234.667 405.333 215.564 405.333 192V149.333H362.667V234.667ZM106.667 149.333H149.333V234.667C125.769 234.667 106.667 215.564 106.667 192L106.667 149.333Z" fill="black"/>
</svg>
