<svg viewBox="0 0 512 512" xmlns="http://www.w3.org/2000/svg" aria-labelledby="dashed line">
  <path fill-rule="evenodd" clip-rule="evenodd" d="M143.159 416.684L130.588 429.255L85.3334 384L97.9042 371.429L143.159 416.684ZM193.442 366.401L168.301 391.542L123.046 346.288L148.187 321.146L193.442 366.401ZM243.725 316.118L218.584 341.259L173.329 296.004L198.47 270.863L243.725 316.118ZM294.008 265.835L268.867 290.976L223.612 245.721L248.754 220.58L294.008 265.835ZM344.292 215.551L319.15 240.693L273.895 195.438L299.037 170.297L344.292 215.551ZM394.575 165.268L369.433 190.41L324.178 145.155L349.32 120.013L394.575 165.268ZM432.287 127.556L419.716 140.127L374.461 94.8719L387.032 82.3011L432.287 127.556Z" fill="black"/>
</svg>
