<svg xmlns="http://www.w3.org/2000/svg" viewBox="0 0 512 512">
<path fill-rule="evenodd" clip-rule="evenodd" d="M438.627 73.3726C451.124 85.8694 451.124 106.131 438.627 118.627C426.131 131.124 405.869 131.124 393.373 118.627C380.876 106.131 380.876 85.8694 393.373 73.3726C405.869 60.8758 426.131 60.8758 438.627 73.3726ZM365.294 146.706C377.791 159.203 377.791 179.464 365.294 191.961L351.961 205.294C339.464 217.791 319.203 217.791 306.706 205.294C294.209 192.797 294.209 172.536 306.706 160.039L320.039 146.706C332.536 134.209 352.797 134.209 365.294 146.706ZM285.294 226.706C297.791 239.203 297.791 259.464 285.294 271.961L271.961 285.294C259.464 297.791 239.203 297.791 226.706 285.294C214.209 272.797 214.209 252.536 226.706 240.039L240.039 226.706C252.536 214.209 272.797 214.209 285.294 226.706ZM205.294 306.706C217.791 319.203 217.791 339.464 205.294 351.961L191.961 365.294C179.464 377.791 159.203 377.791 146.706 365.294C134.209 352.797 134.209 332.536 146.706 320.039L160.039 306.706C172.536 294.209 192.797 294.209 205.294 306.706ZM118.627 393.373C131.124 405.869 131.124 426.131 118.627 438.627C106.131 451.124 85.8694 451.124 73.3726 438.627C60.8758 426.131 60.8758 405.869 73.3726 393.373C85.8694 380.876 106.131 380.876 118.627 393.373Z" fill="black"/>
</svg>
