<svg viewBox="0 0 512 512" xmlns="http://www.w3.org/2000/svg" aria-label="draw">
  <path fill-rule="evenodd" clip-rule="evenodd" d="M200.262 125.081C200.262 78.7364 165.235 64 146.654 64C118.462 64 93.9011 85.3577 88.561 90.6957L88.5362 90.7205C81.9053 97.3523 76.2284 103.03 71.7809 108.165C66.7902 113.163 63.991 119.94 64 127.003C64 141.746 75.9527 153.7 90.6975 153.7C96.7886 153.709 102.698 151.626 107.438 147.8L107.483 147.843C111.6 144.253 115.516 140.597 119.176 137.18C130.075 127.005 138.708 118.945 143.664 121.023C155.325 124.698 145.862 139.762 139.214 150.346C138.522 151.447 137.86 152.5 137.256 153.487C136.567 154.645 135.036 156.891 132.892 160.036C118.445 181.23 76.1739 243.242 76.1739 288.249C76.1739 315.587 86.4256 338.225 104.794 351.893C120.812 363.853 141.956 367.484 161.178 361.718C183.944 355.121 202.684 331.992 226.266 302.886L226.532 302.558C252.375 270.737 286.974 229.091 313.671 229.091C346.239 229.091 348.713 247.969 350.82 264.042C350.965 265.15 351.109 266.245 351.26 267.319C270.528 280.988 236.356 345.7 236.356 382.007C236.356 418.314 267.111 448 304.914 448C339.727 448 396.539 419.595 405.081 317.722H448V264.33H404.868C401.665 229.091 381.589 174.63 318.797 174.63C270.742 174.63 229.522 215.421 213.29 235.283C200.903 250.875 169.293 288.249 164.381 293.375C164.16 293.641 163.931 293.916 163.697 294.198C158.279 300.72 149.477 311.315 140.674 311.315C131.063 311.315 125.297 293.588 132.986 270.309C140.46 247.031 162.886 209.228 172.497 195.133C189.156 170.786 200.262 154.127 200.262 125.081ZM289.75 380.725C289.75 367.911 305.342 333.74 351.047 321.779C344.64 379.23 320.505 396.102 305.555 396.102C298.934 396.102 289.75 390.55 289.75 380.725Z" fill="black"/>
</svg>
