<svg xmlns="http://www.w3.org/2000/svg" viewBox="0 0 512 512">
<path fill-rule="evenodd" clip-rule="evenodd" d="M101.723 135.468C110.327 125.142 120.42 115.128 129.743 109.895C134.259 107.361 137.306 106.691 139.033 106.667C140.163 106.652 141.43 106.829 143.449 108.582C145.711 110.547 146.137 111.737 146.273 112.197C146.444 112.778 146.773 114.433 145.888 118.086C143.881 126.375 137.259 138.856 123.642 158.255C110.08 177.577 89.4606 210.198 79.4117 242.973C74.3881 259.357 71.3951 277.686 74.7683 295.214C78.3382 313.764 88.8573 330.151 107.894 340.971C122.046 349.015 136.754 351.177 151.47 347.421C165.146 343.93 177.038 335.767 187.397 326.857C197.861 317.858 208.528 306.507 219.365 294.761C221 292.99 222.646 291.201 224.306 289.396C233.908 278.959 243.996 267.993 255.245 256.745C281.424 230.565 300.653 218.529 314.457 214.131C326.849 210.183 335.198 212.201 342.781 217.123C353.22 223.899 359.174 232.318 362.92 246.75C364.174 251.583 365.15 256.975 365.9 263.065C364.489 263.468 363.066 263.885 361.631 264.315C304.422 281.478 264.707 314.021 247.652 343.819C230.233 374.254 233.721 408.017 256.389 429.222C281.608 452.814 321.073 453.373 351.867 435.456C384.021 416.747 410.819 372.528 410.819 317.336C410.819 310.4 410.777 305.119 410.654 298.667H448V256H407.82C406.909 249.418 405.732 241.865 404.218 236.03C398.171 212.734 386.58 194.687 366.012 181.335C347.824 169.529 326.211 165.606 301.505 173.478C278.212 180.899 253.208 198.442 225.075 226.575C213.144 238.506 202.395 250.192 192.806 260.616C191.175 262.39 189.571 264.134 188.006 265.829C176.993 277.766 167.902 287.348 159.576 294.509C151.146 301.759 145.216 304.983 140.917 306.08C137.657 306.912 134.234 306.865 128.978 303.878C121.304 299.516 117.991 294.037 116.666 287.151C115.144 279.243 116.193 268.563 120.204 255.48C128.225 229.319 145.651 201.166 158.565 182.767C172.225 163.306 183.267 145.017 187.357 128.127C189.52 119.191 190.006 109.654 187.197 100.128C184.352 90.4819 178.66 82.6507 171.424 76.3671C161.614 67.848 150.217 63.8407 138.439 64.0048C127.257 64.1607 117.152 68.0356 108.862 72.6874C92.5749 81.8278 78.4446 96.7537 68.9451 108.153C61.4024 117.204 62.6254 130.656 71.6766 138.199C80.7279 145.742 94.1799 144.519 101.723 135.468ZM284.683 365.014C293.919 348.876 320.606 322.249 368.11 306.978C368.139 310.305 368.153 313.756 368.153 317.336C368.153 359.908 347.351 388.72 330.409 398.577C312.107 409.226 294.044 406.022 285.537 398.064C279.602 392.512 275.443 381.156 284.683 365.014Z" fill="black"/>
</svg>
