<svg xmlns="http://www.w3.org/2000/svg" viewBox="0 0 512 512">
<path d="M330.667 181.333C352.537 181.333 371.332 168.169 379.562 149.333H426.667C438.449 149.333 448 139.782 448 128C448 116.218 438.449 106.667 426.667 106.667H379.562C371.333 87.8302 352.537 74.6663 330.667 74.6663C301.211 74.6663 277.333 98.5445 277.333 128C277.333 157.455 301.211 181.333 330.667 181.333Z" fill="black"/>
<path d="M64 128C64 116.218 73.5513 106.667 85.3333 106.667H213.333C225.115 106.667 234.667 116.218 234.667 128C234.667 139.782 225.115 149.333 213.333 149.333H85.3333C73.5513 149.333 64 139.782 64 128Z" fill="black"/>
<path d="M448 256C448 267.782 438.449 277.333 426.667 277.333H298.667C286.885 277.333 277.333 267.782 277.333 256C277.333 244.218 286.885 234.667 298.667 234.667H426.667C438.449 234.667 448 244.218 448 256Z" fill="black"/>
<path d="M85.3333 405.333C73.5513 405.333 64 395.782 64 384C64 372.218 73.5513 362.667 85.3333 362.667H192C203.782 362.667 213.333 372.218 213.333 384C213.333 395.782 203.782 405.333 192 405.333H85.3333Z" fill="black"/>
<path d="M132.438 234.667C140.668 215.83 159.463 202.667 181.333 202.667C210.789 202.667 234.667 226.545 234.667 256C234.667 285.455 210.789 309.333 181.333 309.333C159.463 309.333 140.668 296.17 132.438 277.333H85.3333C73.5513 277.333 64 267.782 64 256C64 244.218 73.5513 234.667 85.3333 234.667H132.438Z" fill="black"/>
<path d="M358.229 405.333C349.999 424.17 331.203 437.333 309.333 437.333C279.878 437.333 256 413.455 256 384C256 354.545 279.878 330.667 309.333 330.667C331.203 330.667 349.999 343.83 358.229 362.667H426.667C438.449 362.667 448 372.218 448 384C448 395.782 438.449 405.333 426.667 405.333H358.229Z" fill="black"/>
</svg>
