<?xml version="1.0" encoding="UTF-8"?>
<svg width="512px" height="512px" viewBox="0 0 512 512" version="1.1" xmlns="http://www.w3.org/2000/svg" xmlns:xlink="http://www.w3.org/1999/xlink">
    <title>filters</title>
    <defs>
        <path d="M277.333333,320 C289.115408,320 298.666667,329.551259 298.666667,341.333333 L298.666333,362.666 L426.666667,362.666667 L426.666667,405.333333 L298.666333,405.333 L298.666667,426.666667 C298.666667,438.448741 289.115408,448 277.333333,448 C265.551259,448 256,438.448741 256,426.666667 L256,341.333333 C256,329.551259 265.551259,320 277.333333,320 Z M213.333333,362.666667 L213.333333,405.333333 L85.3333333,405.333333 L85.3333333,362.666667 L213.333333,362.666667 Z M170.666667,192 C182.448741,192 192,201.551259 192,213.333333 L192,298.666667 C192,310.448741 182.448741,320 170.666667,320 C158.884592,320 149.333333,310.448741 149.333333,298.666667 L149.333333,277.333 L85.3333333,277.333333 L85.3333333,234.666667 L149.333333,234.666 L149.333333,213.333333 C149.333333,201.551259 158.884592,192 170.666667,192 Z M426.666667,234.666667 L426.666667,277.333333 L234.666667,277.333333 L234.666667,234.666667 L426.666667,234.666667 Z M341.333333,64 C353.115408,64 362.666667,73.5512587 362.666667,85.3333333 L362.666333,106.666 L426.666667,106.666667 L426.666667,149.333333 L362.666333,149.333 L362.666667,170.666667 C362.666667,182.448741 353.115408,192 341.333333,192 C329.551259,192 320,182.448741 320,170.666667 L320,85.3333333 C320,73.5512587 329.551259,64 341.333333,64 Z M277.333333,106.666667 L277.333333,149.333333 L85.3333333,149.333333 L85.3333333,106.666667 L277.333333,106.666667 Z" id="path-1"></path>
    </defs>
    <g id="filters" stroke="none" stroke-width="1" fill="none" fill-rule="evenodd">
        <mask id="mask-2" fill="white">
            <use xlink:href="#path-1"></use>
        </mask>
        <use id="Combined-Shape" fill="#000000" xlink:href="#path-1"></use>
    </g>
</svg>