<svg width="512" height="512" xmlns:xlink="http://www.w3.org/1999/xlink" aria-labelledby="filters">
  <path d="M277.333 320c11.782 0 21.334 9.551 21.334 21.333v21.333h128v42.667h-128v21.334c0 11.782-9.552 21.333-21.334 21.333S256 438.449 256 426.667v-85.334c0-11.782 9.551-21.333 21.333-21.333zm-64 42.667v42.666h-128v-42.666h128zM170.667 192c11.782 0 21.333 9.551 21.333 21.333v85.334c0 11.782-9.551 21.333-21.333 21.333-11.782 0-21.334-9.551-21.334-21.333v-21.334h-64v-42.666l64-.001v-21.333c0-11.782 9.552-21.333 21.334-21.333zm256 42.667v42.666h-192v-42.666h192zM341.333 64c11.782 0 21.334 9.551 21.334 21.333v21.333h64v42.667h-64v21.334c0 11.782-9.552 21.333-21.334 21.333S320 182.449 320 170.667V85.333C320 73.551 329.551 64 341.333 64zm-64 42.667v42.666h-192v-42.666h192z"/>
</svg>
