<svg xmlns="http://www.w3.org/2000/svg" viewBox="0 0 512 512">
<path d="M441.707 411.577C450.038 419.908 450.038 433.416 441.707 441.747C433.376 450.078 419.868 450.078 411.537 441.747L309.995 340.205L234.67 469.333V298.666H192.004C168.439 298.666 149.337 279.564 149.337 256V179.547L70.2484 100.458C61.9172 92.1273 61.9172 78.6198 70.2484 70.2886C78.5796 61.9574 92.0871 61.9574 100.418 70.2886L441.707 411.577Z" fill="black"/>
<path d="M365.289 245.416L354.456 263.985L154.836 64.365C162.16 51.4108 176.061 42.6665 192.004 42.6665H352.004C367.227 42.6665 377.551 58.153 371.696 72.205L312.892 213.333H346.861C363.326 213.333 373.585 231.194 365.289 245.416Z" fill="black"/>
</svg>
