<svg width="512px" height="512px" viewBox="0 0 512 512" version="1.1" xmlns="http://www.w3.org/2000/svg" xmlns:xlink="http://www.w3.org/1999/xlink" aria-label="forward 5s">
  <path d="M226.557567,36.5906529 L228.418278,38.2483887 L288.758057,98.5881673 C296.494157,106.324268 297.046736,118.523636 290.415792,126.897346 L288.758057,128.758057 L228.418278,189.097835 C220.087093,197.42902 206.579574,197.42902 198.248389,189.097835 C190.512288,181.361735 189.95971,169.162367 196.590653,160.788657 L198.248389,158.927946 L226.200248,130.967175 C157.6419,144.821928 106.666667,205.481553 106.666667,277.333333 C106.666667,359.807856 173.525477,426.666667 256,426.666667 C338.474523,426.666667 405.333333,359.807856 405.333333,277.333333 C405.333333,257.900768 401.631014,239.018266 394.519063,221.418936 C390.104694,210.49508 395.381676,198.060992 406.305532,193.646623 C417.229388,189.232254 429.663476,194.509236 434.077845,205.433092 C443.233914,228.090821 448,252.398733 448,277.333333 C448,383.372005 362.038672,469.333333 256,469.333333 C149.961328,469.333333 64,383.372005 64,277.333333 C64,184.579777 130.045866,106.349988 218.772739,88.9395743 L198.248389,68.418278 C190.512288,60.6821777 189.95971,48.4828093 196.590653,40.1090993 L198.248389,38.2483887 C205.984489,30.5122884 218.183857,29.9597098 226.557567,36.5906529 Z M333.224234,36.5906529 L335.084945,38.2483887 L395.424723,98.5881673 C403.160824,106.324268 403.713402,118.523636 397.082459,126.897346 L395.424723,128.758057 L335.084945,189.097835 C326.75376,197.42902 313.24624,197.42902 304.915055,189.097835 C297.178955,181.361735 296.626376,169.162367 303.25732,160.788657 L304.915055,158.927946 L350.163446,113.666669 L304.915055,68.418278 C297.178955,60.6821777 296.626376,48.4828093 303.25732,40.1090993 L304.915055,38.2483887 C312.651156,30.5122884 324.850524,29.9597098 333.224234,36.5906529 Z"></path>
  <path d="M260.650667,364.970667 C291.562667,364.970667 311.914667,347.882667 311.914667,320.618667 C311.914667,294.698667 292.522667,279.146667 270.826667,279.146667 C259.114667,279.146667 248.746667,283.754667 242.602667,289.898667 L242.602667,258.602667 L303.274667,258.602667 L303.274667,234.602667 L215.338667,234.602667 L215.338667,308.138667 L234.346667,313.130667 C242.026667,305.834667 250.666667,302.762667 261.226667,302.762667 C275.818667,302.762667 284.266667,310.442667 284.266667,321.770667 C284.266667,332.138667 275.626667,340.778667 260.458667,340.778667 C247.018667,340.778667 235.114667,335.786667 226.474667,326.762667 L211.306667,345.770667 C222.250667,357.674667 238.378667,364.970667 260.650667,364.970667 Z"></path>
</svg>
