<svg xmlns="http://www.w3.org/2000/svg" viewBox="0 0 512 512">
<path d="M233.149 100.418C224.818 92.0871 224.818 78.5796 233.149 70.2484C241.48 61.9172 254.988 61.9172 263.319 70.2484L308.574 115.503C316.905 123.834 316.905 137.342 308.574 145.673L263.319 190.928C254.988 199.259 241.48 199.259 233.149 190.928C224.818 182.597 224.818 169.089 233.149 160.758L244.021 149.886C178.945 155.926 128 210.68 128 277.333C128 348.026 185.307 405.333 256 405.333C326.692 405.333 384 348.026 384 277.333C384 260.473 380.751 244.423 374.865 229.738C370.481 218.802 375.793 206.383 386.729 201.999C397.665 197.615 410.084 202.927 414.468 213.863C422.344 233.512 426.666 254.944 426.666 277.333C426.666 371.59 350.256 448 256 448C161.743 448 85.333 371.59 85.333 277.333C85.333 188.429 153.312 115.402 240.126 107.395L233.149 100.418Z" fill="black"/>
<path d="M323.66 70.2484C315.328 78.5796 315.328 92.0871 323.66 100.418L353.829 130.588L323.66 160.758C315.328 169.089 315.328 182.597 323.66 190.928C331.991 199.259 345.498 199.259 353.829 190.928L399.084 145.673C407.415 137.342 407.415 123.834 399.084 115.503L353.829 70.2484C345.498 61.9172 331.991 61.9172 323.66 70.2484Z" fill="black"/>
<path d="M208.807 321.883C203.35 329.058 204.23 339.445 212.227 343.606C223.167 349.299 236.676 352.493 252.374 352.493C288.04 352.493 309.02 334.374 309.02 306.337C309.02 280.971 289.756 264.759 268.014 264.759C257.333 264.759 247.606 268.573 241.503 274.486V256.558H283.462C292.732 256.558 300.246 249.043 300.246 239.774C300.246 230.504 292.732 222.99 283.462 222.99H225.389C213.011 222.99 202.976 233.025 202.976 245.403V283.956C202.976 293.483 209.555 301.748 218.839 303.886C225.493 305.418 232.261 303.012 238.523 300.292C242.818 298.426 247.608 297.564 253.137 297.564C264.962 297.564 269.921 302.332 269.921 308.054C269.921 313.394 264.771 318.544 251.993 318.544C246.666 318.544 241.03 317.659 235.637 315.933C226.235 312.922 214.784 314.025 208.807 321.883Z" fill="black"/>
</svg>
