<svg xmlns="http://www.w3.org/2000/svg" viewBox="0 0 512 512">
<path fill-rule="evenodd" clip-rule="evenodd" d="M268.795 64.017C257.7 64.0508 246.942 67.6997 238.267 74.3714C229.593 81.043 223.512 90.3458 221.011 100.77C213.183 100.696 205.419 102.129 198.172 104.984C190.925 107.839 184.342 112.058 178.807 117.396C173.271 122.734 168.896 129.082 165.935 136.07C162.974 143.058 161.489 150.545 161.565 158.093V209.931C151.024 202.687 138.052 199.515 125.206 201.038C112.359 202.561 100.571 208.669 92.1638 218.159C89.9426 220.322 88.194 222.893 87.0215 225.72C85.849 228.547 85.2763 231.571 85.3374 234.615C85.4229 238.417 85.9961 242.194 87.044 245.86C93.3015 271.094 106.954 294.407 115.487 319.366L123.451 342.405C132.617 372.668 151.647 399.279 177.722 418.298C203.798 437.317 235.533 447.732 268.226 448C289.28 447.785 310.083 443.569 329.445 435.592C348.807 427.616 366.347 416.036 381.063 401.515C395.778 386.994 407.379 369.817 415.202 350.967C423.025 332.118 426.917 311.966 426.654 291.664V208.011C426.822 191.886 421.275 176.19 410.93 163.521C400.585 150.851 386.062 141.969 369.768 138.345C366.483 127.596 359.71 118.146 350.444 111.382C341.178 104.619 329.906 100.899 318.286 100.77C315.674 90.0915 309.327 80.6069 300.313 73.9129C291.299 67.2189 280.168 63.7241 268.795 64.017ZM161.565 278.499C161.565 259.026 157.867 244.763 147.912 238.455C143.816 235.474 138.823 233.861 133.691 233.861C128.558 233.861 123.566 235.474 119.469 238.455C126.58 262.317 138.81 284.259 147.912 307.846L155.876 330.885C162.905 354.392 177.601 375.09 197.787 389.911C217.972 404.732 242.573 412.887 267.942 413.167C301.061 412.805 332.687 399.827 355.919 377.064C379.152 354.302 392.106 323.602 391.953 291.664V208.011C391.951 201.284 390.075 194.681 386.523 188.892C382.971 183.102 377.872 178.338 371.759 175.098V246.135C371.759 250.572 369.931 254.827 366.677 257.965C363.423 261.103 359.01 262.865 354.409 262.865C349.807 262.865 345.394 261.103 342.14 257.965C338.886 254.827 337.058 250.572 337.058 246.135V154.253C337.096 151.804 336.633 149.371 335.695 147.095C334.758 144.818 333.365 142.742 331.595 140.984C329.825 139.227 327.714 137.823 325.382 136.852C323.049 135.882 320.542 135.364 318.001 135.328V212.125C316.997 215.693 314.794 218.84 311.738 221.074C308.682 223.308 304.945 224.502 301.11 224.471C297.276 224.44 293.56 223.184 290.544 220.901C287.527 218.618 285.381 215.435 284.439 211.85C284.439 178.663 284.439 146.299 284.439 112.563C284.476 110.69 284.131 108.829 283.422 107.084C282.714 105.34 281.656 103.747 280.309 102.397C278.962 101.048 277.352 99.9668 275.572 99.2169C273.791 98.467 271.875 98.0626 269.933 98.0269C267.99 98.0626 266.074 98.467 264.294 99.2169C262.514 99.9668 260.904 101.048 259.557 102.397C258.21 103.747 257.152 105.34 256.443 107.084C255.734 108.829 255.389 110.69 255.427 112.563V211.85C255.432 214.143 254.948 216.412 254.006 218.517C253.064 220.622 251.683 222.517 249.95 224.086C248.216 225.655 246.167 226.864 243.928 227.637C241.69 228.41 239.311 228.731 236.939 228.581C232.337 228.581 227.924 226.818 224.67 223.681C221.417 220.543 219.589 216.288 219.589 211.85V135.054C216.488 135.09 213.426 135.714 210.576 136.891C207.726 138.068 205.144 139.776 202.978 141.915C200.812 144.054 199.105 146.584 197.953 149.36C196.801 152.136 196.228 155.103 196.265 158.093V278.499C196.265 282.936 194.437 287.192 191.183 290.329C187.93 293.467 183.517 295.23 178.915 295.23C174.313 295.23 169.9 293.467 166.647 290.329C163.393 287.192 161.565 282.936 161.565 278.499Z" fill="black"/>
</svg>
