<svg xmlns="http://www.w3.org/2000/svg" viewBox="0 0 512 512">
<path fill-rule="evenodd" clip-rule="evenodd" d="M278.024 111.274C266.262 120.628 255.624 129.95 255.624 129.95C255.624 129.95 246.451 122.197 233.976 111.274C199.632 82.0508 152.654 77.0896 113.71 98.5735C41.0609 138.65 36.9516 221.111 85.4444 293.84C124.764 352.811 212.403 405.915 244.153 423.895C250.678 427.59 261.322 427.59 267.847 423.895C299.597 405.915 387.236 352.811 426.555 293.84C475.048 221.111 470.938 138.65 398.29 98.5735C359.345 77.0896 312.367 82.0508 278.024 111.274ZM134.319 135.932C157.369 123.216 185.064 125.811 206.124 143.597C222.61 158.027 239.394 172.096 256.127 186.238C272.5 171.891 289.1 157.871 305.674 143.768C326.758 125.827 354.556 123.175 377.681 135.932C402.217 149.467 413.056 168.187 415.471 188.901C418.07 211.197 411.171 240 391.055 270.17C375.492 293.513 348.444 318.036 318.905 339.998C295.164 357.65 271.873 372.15 256 381.472C240.126 372.15 216.836 357.65 193.094 339.998C163.555 318.036 136.507 293.513 120.944 270.17C100.828 240 93.9295 211.197 96.5285 188.901C98.9432 168.187 109.782 149.467 134.319 135.932Z" fill="black"/>
</svg>
