<svg viewBox="0 0 512 512" xmlns="http://www.w3.org/2000/svg" aria-label="hexagon">
  <path fill-rule="evenodd" clip-rule="evenodd" d="M366.933 190.266L256 125.17L145.92 190.266V320.671L256 385.767L366.08 320.671L366.933 190.266ZM289.707 73.0503C279.777 67.1277 268.424 64 256.853 64C245.283 64 233.929 67.1277 224 73.0503L119.04 135.168C108.81 141.107 100.317 149.612 94.404 159.837C88.4909 170.063 85.3638 181.653 85.3334 193.457V317.48C85.4746 329.175 88.6542 340.634 94.5618 350.738C100.469 360.842 108.903 369.246 119.04 375.13L224 438.95C233.929 444.872 245.283 448 256.853 448C268.424 448 279.777 444.872 289.707 438.95L394.667 375.13C404.486 369.037 412.581 360.543 418.181 350.453C423.782 340.362 426.703 329.012 426.667 317.48V193.457C426.813 181.816 423.944 170.336 418.339 160.124C412.733 149.913 404.579 141.317 394.667 135.168L289.707 73.0503Z" fill="black"/>
</svg>
