<svg xmlns="http://www.w3.org/2000/svg" viewBox="0 0 512 512">
<path fill-rule="evenodd" clip-rule="evenodd" d="M382.874 182.093L256 108.186L129.126 182.093L129.126 329.907L256 403.814L382.874 329.907V182.093ZM277.897 69.9198C264.347 62.0267 247.653 62.0267 234.103 69.9198L107.23 143.827C93.6802 151.72 85.3333 166.307 85.3333 182.093V329.907C85.3333 345.693 93.6802 360.28 107.23 368.173L234.103 442.08C247.653 449.973 264.347 449.973 277.897 442.08L404.77 368.173C418.32 360.28 426.667 345.693 426.667 329.907V182.093C426.667 166.307 418.32 151.72 404.77 143.827L277.897 69.9198Z" fill="black"/>
</svg>
