<svg viewBox="0 0 512 512" xmlns="http://www.w3.org/2000/svg" xmlns:xlink="http://www.w3.org/1999/xlink">
  <title>icon-answer-bubble</title>
  <path d="M388.503 85.33a38.171 38.171 0 0126.993 11.177 38.17 38.17 0 0111.173 26.451l.004.542v265a38.171 38.171 0 01-11.177 26.993 38.17 38.17 0 01-26.45 11.173l-.543.004h-81.306L256 490.666l-51.198-63.998h-81.299a38.172 38.172 0 01-26.607-10.795l-.386-.38a38.17 38.17 0 01-11.173-26.452l-.004-.542V123.49a38.16 38.16 0 0137.628-38.156l.542-.004h265zM234.673 320h-85.34c-11.783 0-21.335 9.552-21.335 21.335 0 11.783 9.552 21.335 21.335 21.335h85.34c11.783 0 21.335-9.552 21.335-21.335 0-11.783-9.552-21.335-21.335-21.335zm128-85.33h-213.34c-11.78 0-21.33 9.55-21.33 21.33 0 11.78 9.55 21.33 21.33 21.33h213.34c11.78 0 21.33-9.55 21.33-21.33 0-11.78-9.55-21.33-21.33-21.33zm0-85.34h-213.34c-11.783 0-21.335 9.552-21.335 21.335 0 11.783 9.552 21.335 21.335 21.335h213.34c11.783 0 21.335-9.552 21.335-21.335 0-11.783-9.552-21.335-21.335-21.335z" fill="#000" fill-rule="nonzero" stroke="none" stroke-width="1"></path>
</svg>
