<svg viewBox="0 0 512 512" version="1.1" xmlns="http://www.w3.org/2000/svg" xmlns:xlink="http://www.w3.org/1999/xlink"><title>icon-flashlight-off</title><path d="M105.15 83.817l65.522 65.522v-.001l63.994 63.995L406.85 385.516c8.332 8.331 8.332 21.839 0 30.17-8.33 8.331-21.838 8.331-30.17 0l-69.924-69.924-72.082 123.571v-192h-42.667c-11.669 0-21.142-9.365-21.33-20.99l-.003-.353V209.68L74.98 113.987c-8.332-8.331-8.332-21.839 0-30.17 8.33-8.331 21.838-8.331 30.17 0zm257.523-41.15c11.669 0 16.955 8.372 11.947 18.765l-.154.316-75.793 151.585h63.992c11.662 0 16.434 8.085 10.769 18.12l-.175.304-22.043 37.787L170.672 88.999v-24.99c0-11.68 9.362-21.151 20.981-21.34l.353-.002h170.667z" fill="#000" stroke="none" stroke-width="1" fill-rule="evenodd"/></svg>
