<svg viewBox="0 0 512 512" xmlns="http://www.w3.org/2000/svg" xmlns:xlink="http://www.w3.org/1999/xlink">
  <title>icon-options</title>
  <path d="M256 362.667c23.564 0 42.667 19.102 42.667 42.666C298.667 428.897 279.564 448 256 448s-42.667-19.103-42.667-42.667 19.103-42.666 42.667-42.666zm0-149.334c23.564 0 42.667 19.103 42.667 42.667S279.564 298.667 256 298.667 213.333 279.564 213.333 256s19.103-42.667 42.667-42.667zM256 64c23.564 0 42.667 19.103 42.667 42.667S279.564 149.333 256 149.333s-42.667-19.102-42.667-42.666C213.333 83.103 232.436 64 256 64z" fill="#000" stroke="none" stroke-width="1" fill-rule="evenodd"></path>
</svg>
