<svg viewBox="0 0 512 512" version="1.1" xmlns="http://www.w3.org/2000/svg" xmlns:xlink="http://www.w3.org/1999/xlink"><title>icon-keyboard</title><path d="M426.667 106.667c23.466 0 42.666 19.2 42.666 42.666v213.334c0 23.466-19.2 42.666-42.666 42.666H85.333c-23.466 0-42.666-19.2-42.666-42.666l.213-213.334c0-23.466 18.987-42.666 42.453-42.666zM341.333 320H170.667v42.667h170.666V320zm-64-85.333h-42.666v42.666h42.666v-42.666zm-64 0h-42.666v42.666h42.666v-42.666zm-64 0h-42.666v42.666h42.666v-42.666zm192 0h-42.666v42.666h42.666v-42.666zm64 0h-42.666v42.666h42.666v-42.666zm-128-64h-42.666v42.666h42.666v-42.666zm-64 0h-42.666v42.666h42.666v-42.666zm-64 0h-42.666v42.666h42.666v-42.666zm192 0h-42.666v42.666h42.666v-42.666zm64 0h-42.666v42.666h42.666v-42.666z" fill="#000" stroke="none" stroke-width="1" fill-rule="evenodd"/></svg>
