<svg viewBox="0 0 512 512" version="1.1" xmlns="http://www.w3.org/2000/svg" xmlns:xlink="http://www.w3.org/1999/xlink"><title>icon-cup</title><path d="M384 64v42.666h64c11.664 0 21.142 9.362 21.33 20.981l.003.353v64c0 47.128-38.205 85.333-85.333 85.333l-7.284.001c-15.28 43.23-53.124 75.802-99.382 83.563l-.001 44.436H320c23.564 0 42.667 19.103 42.667 42.667v21.333H149.333V448c0-23.564 19.103-42.667 42.667-42.667h42.667l-.001-44.436c-46.258-7.761-84.102-40.332-99.382-83.563H128c-47.128 0-85.333-38.206-85.333-85.334v-64c0-11.782 9.55-21.333 21.333-21.333l64-.001V64h256zm42.667 85.333H384v85.334l.706-.006c23.238-.377 41.96-19.332 41.96-42.661v-42.667zm-298.667 0H85.333V192c0 23.329 18.723 42.284 41.961 42.661l.706.006v-85.334z" fill="#000" stroke="none" stroke-width="1" fill-rule="evenodd"/></svg>
