<svg viewBox="0 0 512 512" xmlns="http://www.w3.org/2000/svg" xmlns:xlink="http://www.w3.org/1999/xlink">
  <title>icon-heart-outline</title>
  <path d="M403.01 104.49a105.799 105.799 0 0144.91 82.98c2.507 69.933-54.647 126.928-143.983 209.02L281.9 416.67c-14.633 13.393-37.086 13.31-51.62-.18l-35.068-32.095C113.321 308.808 61.852 254 64.06 187.47a105.799 105.799 0 0144.92-82.98c47.186-31.752 110.76-22.554 147.01 21.27 36.203-43.917 99.855-53.125 147.02-21.27zm-179.897 48.466c-22.27-26.923-61.325-32.574-89.606-13.553-16.208 11.387-26.133 29.72-26.804 49.482l-.041 4.977c.707 40.403 27.612 75.758 124.95 165.933l24.559 22.562 23.595-21.671C346 299.404 372.312 271.56 389.035 243.201l4.158-7.419c8.834-16.588 12.636-31.496 12.085-46.866a63.133 63.133 0 00-23.423-46.971l-3.018-2.276-3.228-2.046c-27.332-16.135-62.313-11.074-83.951 12.146l-2.745 3.131-32.866 39.87-32.934-39.814z" fill="#000" fill-rule="nonzero" stroke="none" stroke-width="1"></path>
</svg>
