<svg viewBox="0 0 512 512" version="1.1" xmlns="http://www.w3.org/2000/svg" xmlns:xlink="http://www.w3.org/1999/xlink"><title>icon-sent</title><path d="M269.224 67.075l1.86 1.657 150.85 150.85c8.332 8.33 8.332 21.838 0 30.17-7.736 7.736-19.935 8.288-28.309 1.657l-1.86-1.657L277.333 135.32v291.346c0 11.782-9.55 21.333-21.333 21.333-11.782 0-21.333-9.551-21.333-21.333V135.32L120.234 249.752c-7.736 7.736-19.935 8.288-28.309 1.657l-1.86-1.657c-7.736-7.736-8.29-19.936-1.658-28.31l1.658-1.86 150.85-150.85c7.735-7.736 19.935-8.288 28.308-1.657z" fill="#000" fill-rule="nonzero" xlink:href="#a" stroke="none" stroke-width="1"/></svg>
