<svg viewBox="0 0 512 512" version="1.1" xmlns="http://www.w3.org/2000/svg" xmlns:xlink="http://www.w3.org/1999/xlink"><title>icon-star-outline</title><path d="M255.965 52.02c9.08 0 17.363 4.925 21.741 12.72l1.194 2.423 47.11 110.93 120.639 10.46a24.82 24.82 0 0116.105 41.559l-2.145 2.06-91.48 79.27 27.42 117.9a24.87 24.87 0 01-34.508 28.323l-2.632-1.394-103.45-62.57-103.439 62.32a24.87 24.87 0 01-37.644-23.985l.505-2.934 27.42-117.66-91.48-79.27a24.87 24.87 0 0111.516-43.25l2.684-.37 120.4-10.22L233.03 67.164a24.94 24.94 0 0122.935-15.142zm40.8 166.364l-40.786-96.059-40.813 96.345-104.083 8.829 79.113 68.556-23.732 101.726 89.539-53.917 89.426 54.088-23.686-101.905 79.196-68.655-104.173-9.008z" fill="#000" fill-rule="nonzero" stroke="none" stroke-width="1"/></svg>
