<?xml version="1.0" encoding="UTF-8"?>
<svg width="512px" height="512px" viewBox="0 0 512 512" version="1.1" xmlns="http://www.w3.org/2000/svg" xmlns:xlink="http://www.w3.org/1999/xlink" aria-label="replay">
  <path d="M378.879025,170.761803 C338.198617,111.363412 260.865745,89.5498396 195.142593,118.934581 C129.41944,148.319321 94.108353,220.49587 111.246404,290.42002 C128.384455,360.34417 193.068722,408.011737 264.930808,403.674171 C336.792895,399.336605 395.274205,344.234814 403.877508,272.756927 C404.98201,260.883372 415.50268,252.153342 427.376081,253.257859 C439.249483,254.362376 447.9794,264.883181 446.874898,276.756736 C436.986111,367.699461 364.307237,439.034101 273.196835,447.222533 C182.086433,455.410966 97.8530608,398.178616 71.9074073,310.456466 C45.9617538,222.734316 85.5109771,128.889741 166.416749,86.1994942 C247.322521,43.5092475 347.110914,63.831785 404.877447,134.763524 L404.877447,106.764862 C404.877447,94.8913075 414.502741,85.2658897 426.376142,85.2658897 C438.249544,85.2658897 447.874837,94.8913075 447.874837,106.764862 L447.874837,191.760799 C447.874837,203.760225 437.875444,212.759795 426.876112,212.759795 L340.881331,212.759795 C333.379209,212.759795 326.446962,208.757409 322.695901,202.260297 C318.944839,195.763185 318.944839,187.758413 322.695901,181.261301 C326.446962,174.764188 333.379209,170.761802 340.881331,170.761803 L378.879025,170.761803 L378.879025,170.761803 Z" id="Path" fill="#000000" transform="translate(255.937419, 256.000000) scale(-1, 1) translate(-255.937419, -256.000000) "></path>
</svg>
