<svg xmlns="http://www.w3.org/2000/svg" viewBox="0 0 512 512">
<path d="M256 106.667C224.235 106.667 194.791 116.573 170.578 133.491H179.815C191.597 133.491 201.148 143.042 201.148 154.824C201.148 166.606 191.597 176.158 179.815 176.158H115.815C104.033 176.158 94.4818 166.606 94.4818 154.824V90.8242C94.4818 79.0421 104.033 69.4909 115.815 69.4909C127.597 69.4909 137.148 79.0421 137.148 90.8242V105.201C169.829 79.413 211.119 64 256 64C362.039 64 448 149.961 448 256C448 362.039 362.039 448 256 448C149.961 448 64 362.039 64 256C64 244.218 73.5513 234.667 85.3333 234.667C97.1154 234.667 106.667 244.218 106.667 256C106.667 338.475 173.525 405.333 256 405.333C338.475 405.333 405.333 338.475 405.333 256C405.333 173.525 338.475 106.667 256 106.667Z" fill="black"/>
<path d="M234.667 329.901L330.667 274.475C344.889 266.264 344.889 245.736 330.667 237.525L234.667 182.099C220.444 173.888 202.667 184.152 202.667 200.574L202.667 311.426C202.667 327.848 220.444 338.112 234.667 329.901Z" fill="black"/>
</svg>
