<svg xmlns="http://www.w3.org/2000/svg" viewBox="0 0 512 512">
<path fill-rule="evenodd" clip-rule="evenodd" d="M320 149.333C320 102.205 281.795 64 234.667 64H149.333C102.205 64 64 102.205 64 149.333V234.667C64 281.795 102.205 320 149.333 320H192V362.667C192 409.795 230.205 448 277.333 448H362.667C409.795 448 448 409.795 448 362.667V277.333C448 230.205 409.795 192 362.667 192H320V149.333ZM405.333 277.333C405.333 253.769 386.231 234.667 362.667 234.667H277.333C253.769 234.667 234.667 253.769 234.667 277.333V362.667C234.667 386.231 253.769 405.333 277.333 405.333H362.667C386.231 405.333 405.333 386.231 405.333 362.667V277.333Z" fill="black"/>
</svg>
