<svg viewBox="0 0 512 512" xmlns="http://www.w3.org/2000/svg" xmlns:xlink="http://www.w3.org/1999/xlink">
  <title>share-on-ios</title>
  <path d="M170.666 149.333V192L128 192v234.667h256V192h-42.667v-42.667h64c11.782 0 21.334 9.552 21.334 21.334V448c0 11.782-9.552 21.333-21.334 21.333H106.667c-11.782 0-21.334-9.55-21.334-21.333V170.667c0-11.782 9.552-21.334 21.334-21.334h64zm85.517-106.666c5.656 0 11.08 2.25 15.077 6.25l45.25 45.25a21.331 21.331 0 01-30.166 30.167l-8.834-8.834-.156 160.32c-.032 11.774-9.58 21.312-21.354 21.333-.007.021-.014.021-.02.021-11.783-.011-21.325-9.572-21.293-21.354l.157-160.318-8.834 8.833c-8.33 8.33-21.836 8.33-30.167 0-8.33-8.331-8.33-21.838 0-30.168l45.259-45.258a21.33 21.33 0 0115.08-6.242z" fill="#000" fill-rule="nonzero" stroke="none" stroke-width="1"></path>
</svg>
