<svg viewBox="0 0 512 512" xmlns="http://www.w3.org/2000/svg">
<path d="M255.995 42.6668C261.676 42.6668 266.951 44.7724 271.095 48.9164L331.434 109.256C339.766 117.587 339.766 131.095 331.434 139.426C323.103 147.757 309.596 147.757 301.265 139.426L277.329 115.49V305.359C277.329 317.141 267.777 326.693 255.995 326.693C244.213 326.693 234.662 317.141 234.662 305.359V115.519L210.755 139.426C202.424 147.757 188.916 147.757 180.585 139.426C172.254 131.095 172.254 117.587 180.585 109.256L240.431 49.41C244.323 45.2597 249.856 42.6668 255.995 42.6668Z" fill="black"/>
<path d="M96 234.667C96 222.885 105.551 213.333 117.333 213.333C129.115 213.333 138.667 222.885 138.667 234.667V341.333C138.667 376.68 167.32 405.333 202.667 405.333H309.333C344.68 405.333 373.333 376.68 373.333 341.333V234.667C373.333 222.885 382.885 213.333 394.667 213.333C406.449 213.333 416 222.885 416 234.667V341.333C416 400.244 368.244 448 309.333 448H202.667C143.756 448 96 400.244 96 341.333V234.667Z" fill="black"/>
</svg>
