<svg xmlns="http://www.w3.org/2000/svg" viewBox="0 0 512 512">
<path d="M235.143 77.7527C243.002 59.4158 268.998 59.4157 276.857 77.7527L281.169 87.8147C308.711 152.08 359.92 203.289 424.185 230.831L434.247 235.143C452.584 243.002 452.584 268.998 434.247 276.857L424.185 281.169C359.92 308.711 308.711 359.92 281.169 424.185L276.857 434.247C268.998 452.584 243.002 452.584 235.143 434.247L230.831 424.185C203.289 359.92 152.08 308.711 87.8147 281.169L77.7527 276.857C59.4158 268.998 59.4157 243.002 77.7527 235.143L87.8147 230.831C152.08 203.289 203.289 152.08 230.831 87.8147L235.143 77.7527Z" fill="black"/>
</svg>
