<svg viewBox="0 0 512 512" xmlns="http://www.w3.org/2000/svg">
<path d="M360.728 448C354.752 448 348.776 446.72 343.014 444.16L255.94 406.187L168.867 444.16C154.354 450.56 137.921 448.64 125.33 439.467C112.738 430.293 106.122 415.573 107.616 400.213L117.22 306.56L53.8353 236.373C43.3779 224.853 39.9633 209.067 44.8718 194.347C49.7804 179.413 61.7317 168.533 77.3111 165.333L170.361 145.493L218.166 64.2134C226.062 50.7734 240.361 42.6667 255.94 42.6667C271.733 42.6667 285.819 50.7734 293.715 64.2134L341.734 145.493L434.783 165.333C450.363 168.747 462.314 179.413 467.222 194.347C471.918 209.067 468.716 224.853 458.259 236.373L394.874 306.56L404.478 400.213C405.972 415.573 399.57 430.293 386.765 439.467C379.082 445.013 370.118 448 360.941 448H360.728ZM197.251 183.253L85.8478 207.147L161.397 292.267L149.873 404.693L255.727 359.893L359.874 405.333L350.057 292.267L426.247 208L314.203 183.253L255.727 84.0534L197.251 183.253Z" fill="black"/>
</svg>
