<svg xmlns="http://www.w3.org/2000/svg" viewBox="0 0 512 512">
<path d="M320 64C308.218 64 298.667 73.5513 298.667 85.3333C298.667 97.1154 308.218 106.667 320 106.667H341.333V405.333H320C308.218 405.333 298.667 414.885 298.667 426.667C298.667 438.449 308.218 448 320 448H405.333C417.115 448 426.667 438.449 426.667 426.667C426.667 414.885 417.115 405.333 405.333 405.333H384V106.667H405.333C417.115 106.667 426.667 97.1154 426.667 85.3333C426.667 73.5513 417.115 64 405.333 64H320Z" fill="black"/>
<path fill-rule="evenodd" clip-rule="evenodd" d="M215.28 348.502L214.906 347.287H134.246L133.872 348.502C129.3 363.362 115.571 373.501 100.024 373.501H98.1097C74.3937 373.501 57.929 349.88 66.1355 327.629L117.124 189.379C125.999 165.316 148.929 149.333 174.576 149.333C200.224 149.333 223.154 165.316 232.029 189.379L283.017 327.629C291.224 349.88 274.759 373.501 251.043 373.501H249.128C233.582 373.501 219.853 363.362 215.28 348.502ZM174.576 215.878L152.395 288.136H196.758L174.576 215.878Z" fill="black"/>
</svg>
