<svg xmlns="http://www.w3.org/2000/svg" xmlns:xlink="http://www.w3.org/1999/xlink" viewBox="0 0 512 512">
  <title>
    textbook
  </title>
  <path fill="#000" fill-rule="evenodd" d="M362.666667 85.3333333C374.448741 85.3333333 384 94.884592 384 106.666667v234.666666c0 11.782075-9.551259 21.333334-21.333333 21.333334h-192c-11.782075 0-21.333334 9.551258-21.333334 21.333333 0 11.664254 9.361189 21.142085 20.980548 21.330475l.352786.002858 106.666333-.000666.000333.000666h96C379.224371 405.333333 384 410.108963 384 416c0 5.891037-4.775629 10.666667-10.666667 10.666667H170.666667C147.102517 426.666667 128 407.564149 128 384V128c0-23.564149 19.102517-42.6666667 42.666667-42.6666667h192zM320 149.333333H192v64h128v-64z"/>
</svg>
