<svg xmlns="http://www.w3.org/2000/svg" viewBox="0 0 512 512">
<path fill-rule="evenodd" clip-rule="evenodd" d="M149.333 42.6667C113.987 42.6668 85.333 71.2813 85.3335 106.627L85.3363 405.37C85.3359 440.717 113.99 469.334 149.337 469.334H405.333C417.115 469.334 426.666 459.782 426.666 448C426.666 436.218 417.115 426.667 405.333 426.667H160C142.327 426.667 128 412.34 128 394.667C128 376.994 142.327 362.667 160 362.667H384C407.564 362.667 426.666 343.564 426.666 320V85.3336C426.666 61.7694 407.564 42.6669 384 42.6669L149.333 42.6667ZM362.666 106.667H149.333V192H362.666V106.667Z" fill="black"/>
</svg>
