<svg xmlns="http://www.w3.org/2000/svg" viewBox="0 0 512 512">
  <title>
    text
  </title>
  <path fill="#000" fill-rule="nonzero" d="M250.00482 431.625c16.156276 0 26.857186-10.0625 26.857186-25.8125 0-6.125-1.468752-13.34375-4.406257-22.75L200.27706 167.375c-9.022336-28-21.611642-39.375-45.321502-39.375-23.919682 0-36.71881 11.59375-45.741146 39.375L37.0357225 383.0625C33.4687524 394.21875 32 401 32 406.90625c0 14.875 10.7009103 24.71875 26.2277213 24.71875 15.1071675 0 23.5000384-8.09375 29.3750479-28.65625l15.9464548-50.75h100.504628l16.156276 50.75c5.665188 20.34375 14.477703 28.65625 29.794692 28.65625zM191.674368 308.25H116.13853l36.508988-120.75h2.727683l36.299167 120.75zm172.084371 123.8125c27.27683 0 49.308116-11.8125 60.638492-32.59375h2.727683v8.09375c1.678574 15.09375 11.330375 23.625 26.017899 23.625C470.348199 431.1875 480 420.03125 480 400.34375v-126.875c0-51.40625-32.732196-80.28125-91.062648-80.28125-24.339326 0-43.013463 4.375-57.071522 12.03125-19.513425 10.28125-28.535761 24.0625-28.535761 37.625 0 11.8125 7.553584 20.34375 19.723247 20.34375 9.022336 0 14.897345-2.40625 21.191998-7.65625 12.379485-11.59375 24.339326-18.15625 41.125067-18.15625 25.388435 0 39.446493 12.25 39.446493 35.65625v19.03125h-52.875086c-50.567047 0-80.991203 26.46875-80.991203 69.34375 0 42.21875 29.375047 70.65625 72.808154 70.65625zM382.223055 390.5c-21.611643 0-36.299166-13.34375-36.299166-32.59375 0-19.03125 13.428593-30.40625 36.089344-30.40625h42.803641v24.0625c0 21.875-18.674137 38.9375-42.593819 38.9375z"/>
</svg>
