<svg width="512" height="512">
  <title>time_speed</title>
  <path d="M298.467 64c68.595-.07 132.017 36.459 166.376 95.828 34.36 59.369 34.436 132.559.2 192-34.235 59.44-97.582 96.101-166.176 96.172-25.07.027-49.511-4.766-72.282-13.995a191.31 191.31 0 01-23.886-11.676c-10.2-5.897-13.69-18.946-7.793-29.146 5.897-10.2 18.946-13.69 29.147-7.793a148.644 148.644 0 0018.558 9.073c17.688 7.169 36.673 10.891 56.211 10.87 53.352-.055 102.621-28.569 129.249-74.8 26.627-46.232 26.568-103.157-.156-149.333s-76.052-74.588-129.404-74.533c-53.916.057-102.763 28.902-129.253 74.752-5.894 10.202-18.942 13.694-29.144 7.8-10.202-5.894-13.694-18.942-7.8-29.144 34.03-58.9 96.858-96.002 166.153-96.075z" fill-rule="nonzero"/>
  <path d="M383.967 277.3h-85.3c-11.741-.054-21.246-9.558-21.3-21.3V149.302c0-11.764 9.536-21.3 21.3-21.3 11.763 0 21.3 9.536 21.3 21.3v85.4h64c11.763 0 21.3 9.536 21.3 21.3 0 11.763-9.537 21.3-21.3 21.3z" fill-rule="nonzero"/>
  <rect x="42.667" y="234.668" width="192" height="42.667" rx="21.333"/>
  <rect x="42.667" y="320.001" width="149.333" height="42.667" rx="21.333"/>
</svg>
