<svg xmlns="http://www.w3.org/2000/svg" viewBox="0 0 512 512">
<path d="M256.003 426.666C350.259 426.666 426.67 350.256 426.67 256C426.67 161.743 350.259 85.3332 256.003 85.3332C200.47 85.3332 151.132 111.857 119.965 152.927C112.846 162.308 99.9054 165.897 89.7063 160.01C79.4937 154.115 75.9167 140.978 82.8107 131.411C121.546 77.6592 184.688 42.6665 256.003 42.6665C373.824 42.6665 469.336 138.179 469.336 256C469.336 373.821 373.824 469.333 256.003 469.333C217.802 469.333 181.947 459.293 150.931 441.706C141.146 436.158 138.614 423.528 144.536 413.965C151 403.529 164.915 400.875 175.745 406.656C199.668 419.427 226.99 426.666 256.003 426.666Z" fill="black"/>
<path d="M42.667 256C42.667 244.218 52.2183 234.666 64.0003 234.666H170.667C182.449 234.666 192 244.218 192 256C192 267.782 182.449 277.333 170.667 277.333H64.0003C52.2183 277.333 42.667 267.782 42.667 256Z" fill="black"/>
<path d="M64.0003 320C52.2183 320 42.667 329.551 42.667 341.333C42.667 353.115 52.2183 362.666 64.0003 362.666H128C139.782 362.666 149.334 353.115 149.334 341.333C149.334 329.551 139.782 320 128 320H64.0003Z" fill="black"/>
<path d="M234.667 149.333C234.667 137.551 244.218 128 256 128C267.782 128 277.334 137.551 277.334 149.333V234.666H320C331.782 234.666 341.334 244.218 341.334 256C341.334 267.782 331.782 277.333 320 277.333H256C244.218 277.333 234.667 267.782 234.667 256V149.333Z" fill="black"/>
</svg>
