<svg xmlns="http://www.w3.org/2000/svg" viewBox="0 0 512 512" aria-labelledby="unbookmark">
  <path d="M106.667 117.337V117.333L405.333 416V416.004L428.767 439.438C429.157 439.828 429.157 440.461 428.767 440.852L400.011 469.608C399.621 469.998 398.988 469.998 398.597 469.608L252.57 323.581L141.883 439.147C132.938 446.815 119.47 445.779 111.802 436.833C108.488 432.967 106.667 428.042 106.667 422.95V177.677L37.9726 108.983C37.5821 108.593 37.5821 107.959 37.9726 107.569L66.7283 78.8133C67.1188 78.4227 67.7519 78.4227 68.1425 78.8133L106.667 117.337ZM405.333 106.667V355.66L122.869 73.1964C130.142 67.4381 139.336 64 149.333 64H362.667C386.231 64 405.333 83.1025 405.333 106.667Z"/>
</svg>
