<svg viewBox="0 0 512 512" xmlns="http://www.w3.org/2000/svg">
<path d="M111.758 81.6095C111.76 81.6054 111.756 81.6136 111.758 81.6095L441.707 411.576C450.038 419.907 450.038 433.415 441.707 441.746C433.376 450.077 419.868 450.077 411.537 441.746L404.597 434.806C398.651 466.932 358.084 481.54 333.03 457.348L256 382.969L178.97 457.348C151.884 483.502 106.667 464.307 106.667 426.654V136.876L70.2484 100.457C61.9172 92.1262 61.9172 78.6187 70.2484 70.2875C78.5796 61.9563 92.0871 61.9563 100.418 70.2875L111.758 81.6095Z" fill="black"/>
<path d="M405.333 106.667V314.845L140.628 50.1397C149.585 45.3698 159.81 42.6667 170.667 42.6667H341.333C376.68 42.6667 405.333 71.3205 405.333 106.667Z" fill="black"/>
</svg>
