<svg width="309" height="709" viewBox="0 0 309 709" fill="none" xmlns="http://www.w3.org/2000/svg">
<path d="M161.459 81.7969H146.773V163.595H161.459V81.7969Z" fill="#4FB3F6"/>
<path d="M265.254 391.047H0V401.636H265.254V391.047Z" fill="#24A865"/>
<path d="M35.3631 369.869H24.9336V422.816H35.3631V369.869Z" fill="#24A865"/>
<path fill-rule="evenodd" clip-rule="evenodd" d="M298.8 694.683L140.039 182.916H168.211L308.051 633.664L308.17 694.683H298.8Z" fill="#60D399"/>
<path fill-rule="evenodd" clip-rule="evenodd" d="M140.018 182.916H168.19L8.76986 696.801H0.0585938L0.198454 633.664L140.018 182.916Z" fill="#60D399"/>
<path fill-rule="evenodd" clip-rule="evenodd" d="M119.978 247.512L110.168 279.16L135.802 287.312L146.651 252.307L119.978 247.512Z" fill="#24A865"/>
<path fill-rule="evenodd" clip-rule="evenodd" d="M188.329 247.512L198.14 279.16L172.505 287.312L161.656 252.307L188.329 247.512Z" fill="#24A865"/>
<path fill-rule="evenodd" clip-rule="evenodd" d="M154.124 95.125C171.488 95.125 188.461 100.274 202.899 109.921C217.336 119.567 228.588 133.279 235.233 149.32C241.878 165.362 243.617 183.014 240.229 200.044C236.842 217.074 228.48 232.717 216.202 244.995C203.924 257.273 188.281 265.635 171.251 269.022C154.221 272.409 136.569 270.671 120.527 264.026C104.486 257.381 90.7743 246.129 81.1276 231.692C71.4809 217.254 66.332 200.281 66.332 182.917C66.3637 159.643 75.6234 137.331 92.0807 120.874C108.538 104.416 130.85 95.1567 154.124 95.125Z" fill="#C98600"/>
<path d="M154.127 107.893C168.975 107.893 183.49 112.296 195.835 120.546C208.18 128.796 217.802 140.522 223.482 154.241C229.162 167.959 230.646 183.054 227.747 197.616C224.847 212.179 217.694 225.554 207.192 236.05C196.69 246.547 183.311 253.693 168.747 256.585C154.183 259.476 139.089 257.984 125.374 252.297C111.658 246.609 99.9372 236.982 91.6938 224.632C83.4504 212.282 79.0546 197.765 79.0625 182.917C79.0784 163.017 86.9934 143.938 101.068 129.87C115.143 115.803 134.227 107.898 154.127 107.893Z" stroke="#FFF3D6" stroke-width="1.42" stroke-linejoin="round"/>
<path d="M166.792 0H141.438V81.798H166.792V0Z" fill="#163BF3"/>
<path fill-rule="evenodd" clip-rule="evenodd" d="M4.35476 708.269L6.95215 696.801H1.77734L4.35476 708.269Z" fill="#24A865"/>
<path fill-rule="evenodd" clip-rule="evenodd" d="M303.136 706.152L305.713 694.684H300.559L303.136 706.152Z" fill="#24A865"/>
<path fill-rule="evenodd" clip-rule="evenodd" d="M103.617 391.047L100.34 401.636H111.069L113.986 391.047H103.617Z" fill="black"/>
<path fill-rule="evenodd" clip-rule="evenodd" d="M204.596 391.047L207.873 401.636H197.144L194.227 391.047H204.596Z" fill="black"/>
<path d="M35.3631 371.707H24.9336V373.805H35.3631V371.707Z" fill="black"/>
<path d="M35.3631 418.881H24.9336V420.979H35.3631V418.881Z" fill="black"/>
<path d="M35.3631 409.449H24.9336V411.547H35.3631V409.449Z" fill="black"/>
<path d="M35.3631 400.02H24.9336V402.117H35.3631V400.02Z" fill="black"/>
<path d="M35.3631 390.588H24.9336V392.686H35.3631V390.588Z" fill="black"/>
<path d="M35.3631 381.139H24.9336V383.237H35.3631V381.139Z" fill="black"/>
<path d="M35.3631 414.164H24.9336V416.262H35.3631V414.164Z" fill="black"/>
<path d="M35.3631 404.734H24.9336V406.832H35.3631V404.734Z" fill="black"/>
<path d="M35.3631 395.303H24.9336V397.401H35.3631V395.303Z" fill="black"/>
<path d="M35.3631 385.873H24.9336V387.971H35.3631V385.873Z" fill="black"/>
<path d="M35.3631 376.422H24.9336V378.52H35.3631V376.422Z" fill="black"/>
</svg>
