<svg xmlns="http://www.w3.org/2000/svg" viewBox="0 0 1021.1 676.4">
  <polygon
    points="1021.1 280.6 1021.1 561.3 421.1 664.1 349.5 676.4 349.5 395.6 421.1 383.4 1021.1 280.6"
    fill="#53cf92"
  />
  <path
    d="M487.7,428,415,441.2V600.6l47.6-8.2V542.3l25.1-5c36.7-6.3,56.6-34.6,56.6-64.2S524.5,421.7,487.7,428ZM483,498.2h-.1l-20.3,3.2V472.1l20.3-3.3c8.1-1.3,14.4,4.6,14.4,13.2A16.6,16.6,0,0,1,483,498.2Z"
    fill="#fff"
  />
  <polygon
    points="604.8 408.6 557.2 416.8 557.2 576.2 664.4 557.8 664.4 515.8 604.8 526 604.8 408.6"
    fill="#fff"
  />
  <path
    d="M903,412.8c-13.2-.3-23.1-.5-23.1-5.6s2.6-7.6,12-9.2c14.9-2.5,32.5-.3,46.2,7.9l25.4-38.6c-17.9-11.7-41-15.2-66.7-10.8-43.1,7.4-65.3,37.1-65.3,64.1,0,42.3,39.6,42.2,65.5,42.5,12.8,0,22.2,0,22.2,5.1s-8.4,10-17.4,11.6c-21.2,3.6-38.9-2.5-50.7-11.9L826.3,508c16.8,12.4,39.6,18.5,73.1,12.8,42.2-7.2,67.8-32,67.8-67.1C967.3,414.5,928.9,413.4,903,412.8Z"
    fill="#fff"
  />
  <path
    d="M773.4,453.2l-.2,20.9c0,14.5-9.4,27.8-27.7,30.9s-27.3-6.3-27.9-20V389.4l-45.8,7.8v69.1l.2,26.9c0,1.2,0,2.2.1,3.4s.2,3.2.4,4.8c3.2,32.6,26.8,52,73.5,44,36.7-6.3,59.1-24.7,68.4-48.8a75.6,75.6,0,0,0,4.7-19,3.8,3.8,0,0,1,.1-1V372l-45.8,7.8Z"
    fill="#fff"
  />
  <polygon
    points="0 174.7 1021.1 0 1021.1 280.6 0 455.4 0 174.7"
    fill-rule="evenodd"
  />
  <path
    d="M178.1,282.2h0c10.4-5.9,22.3-20.7,22.3-39.1s-11.9-27.8-23.4-30.4-26.5-1.2-40.3,1.2L56.1,227.7v37.5l15-2.5v83.8l-15,2.5v37.5l93.3-16c14.9-2.6,31-8.8,41.4-17.5s17.7-20.4,17.7-38.8S196.5,284.1,178.1,282.2Zm-55.2-28.4,10.3-1.8c5.8-1,8.1-1.4,11.6.3s4.6,4.3,4.6,8.4a11.8,11.8,0,0,1-4.6,9.8c-3.5,2.9-5.8,3.5-11.6,4.5l-10.3,1.8Zm28.8,74.9h0c-3.5,2.9-5.8,4-11.5,5l-17.3,2.9V311.3l17.3-2.9c5.7-1.1,8-1,11.5.7s4.6,5,4.6,9.1A13.2,13.2,0,0,1,151.7,328.7Z"
    fill="#fff"
    fill-rule="evenodd"
  />
  <path
    d="M508.2,149.6h0l-5,.9V287.7l-47.7-129-57.6,10-48,146.2-23.3-35.4c6.9-5.3,26.4-20.2,26.4-52.4,0-17.3-8-29.7-19.5-35.8s-26.5-6.9-46.1-3.5l-69,11.9V358.5l52-9V296.6l6.7-1.2L302.4,344l40.3-7,19.5-3.4,34.6-5.9,6-23.4,45.3-7.8,6.2,21.2,48.9-8.4h0l52-9V141.4l-47,8.1ZM294.8,250.5h0c-2,2-5.7,3.8-11.5,4.7l-13.1,2.3V229.9l13.1-2.3c5.8-1,9.2-.4,11.5,1s5.8,2.9,5.8,9.9S297.3,248.2,294.8,250.5Zm119,12.1h0L425.5,218l11.8,40.5Z"
    fill="#fff"
    fill-rule="evenodd"
  />
  <path
    d="M674.1,180.6h0c0,11.5,1.2,28.5,1.2,28.5l-46.1-80.6-56.4,9.7V297.2l50.7-8.8V228.6c0-11.5-1.2-28.6-1.2-28.6l48.4,80.2,54-9.3V112.1l-50.6,8.7Z"
    fill="#fff"
    fill-rule="evenodd"
  />
  <polygon
    points="916.1 78.8 892.4 136.5 869 87 811.4 96.9 866.4 184 866.4 203.6 794.2 216.1 794.2 99.9 742.4 108.9 742.4 267.7 866.4 246.2 910.2 238.6 918.4 237.2 918.4 175 973.6 68.9 916.1 78.8"
    fill="#fff"
    fill-rule="evenodd"
  />
</svg>
