<svg viewBox="0 0 260 124" fill="none" xmlns="http://www.w3.org/2000/svg">
<path d="M0 40.8132V105.788L235.517 65.1922V0L0 40.8132Z" fill="black"/>
<path d="M41.275 65.5187C43.6583 64.1039 46.475 60.73 46.475 56.4854C46.475 52.132 43.7667 50.0641 41.0583 49.4111C38.35 48.7581 34.9917 49.1935 31.7417 49.6288L13 52.785V61.4918L16.4667 60.9477V80.4292L13 80.9733V89.6801L34.5583 85.8709C38.025 85.2179 41.7083 83.803 44.0917 81.844C46.475 79.885 48.2083 77.1641 48.2083 72.9195C48.2083 68.6749 45.5 65.9541 41.275 65.5187ZM28.4917 58.9886L30.875 58.5533C32.175 58.3356 32.7167 58.2268 33.5833 58.6621C34.3417 58.9886 34.6667 59.6416 34.6667 60.6211C34.6667 61.0565 34.5583 61.4918 34.45 61.9272C34.2333 62.2537 34.0167 62.689 33.6917 62.9067C32.9333 63.5597 32.3917 63.6685 30.9833 63.995L28.4917 64.3215V58.9886ZM35.1 76.4022C34.3417 77.0552 33.8 77.3818 32.3917 77.5994L28.3833 78.2524V72.3753L32.3917 71.7223C33.6917 71.5047 34.2333 71.5047 35.1 71.94C35.8583 72.2665 36.1833 73.0284 36.1833 74.1167C36.1833 74.5521 36.075 75.0962 35.9667 75.4227C35.75 75.6404 35.425 76.0757 35.1 76.4022Z" fill="white"/>
<path d="M117.542 34.7184L116.35 34.9361V66.8248L105.3 36.8951L91.9749 39.1806L80.9249 73.1372L75.5083 64.9746C77.0249 63.6685 81.5749 60.2946 81.5749 52.785C81.5749 48.7581 79.7333 45.9284 77.1333 44.5136C74.4249 43.0987 71.0666 42.9899 66.5166 43.7517L50.5916 46.4726V83.3677L62.6166 81.2998V69.0015L64.1333 68.7838L69.9833 80.1026L79.2999 78.4701L83.7416 77.7083L91.7583 76.2934L93.1666 70.8517L103.675 69.0015L105.083 73.899L116.35 71.94L128.375 69.8721V32.977L117.542 34.7184ZM68.1416 58.2268C67.5999 58.6621 66.8416 59.0975 65.4333 59.3151L62.3999 59.8593V53.438L65.4333 52.8939C66.7333 52.6762 67.5999 52.785 68.1416 53.1115C68.6833 53.3292 69.4416 53.7645 69.4416 55.3971C69.4416 57.0296 68.7916 57.6826 68.1416 58.2268ZM95.6583 61.0565L98.3666 50.7172L101.075 60.077L95.6583 61.0565Z" fill="white"/>
<path d="M155.892 42.0104C155.892 44.7312 156.108 48.6493 156.108 48.6493L145.492 29.9297L132.492 32.2152V69.1103L144.192 67.1513V53.1115C144.192 50.3907 143.975 46.4726 143.975 46.4726L155.133 65.0834L167.592 62.9067V26.0116L155.892 27.9706V42.0104Z" fill="white"/>
<path d="M211.792 18.3932L206.267 31.7799L200.85 20.2433L187.525 22.5289L200.417 42.7722V47.3433L183.733 50.173V23.1819L171.708 25.2498V62.1449L200.417 57.1385L210.492 55.3971L212.442 55.0706V40.7044L225.225 15.9988L211.792 18.3932Z" fill="white"/>
<path d="M236.383 57.9003C249.492 56.1589 260 66.4983 260 79.5585C260 92.6187 249.492 103.72 236.383 105.461L134.55 122.984C121.225 125.052 110.933 114.821 110.933 101.217C110.933 88.1564 121.442 77.5994 134.55 75.4227L236.383 57.9003Z" fill="#4FB3F6"/>
<path d="M224.575 89.2448C221.108 89.789 218.292 88.9183 216.45 87.3946L212.333 93.8159C215.042 95.7749 218.725 96.7544 224.033 95.7749C230.75 94.5777 234.867 90.6596 234.867 85.109C234.867 78.9587 228.797 78.7989 224.681 78.6906L224.575 78.6878C222.517 78.6878 220.892 78.5789 220.892 77.8171C220.892 77.1641 221.325 76.5111 222.842 76.2934C225.225 75.8581 228.042 76.1846 230.208 77.4906L234.325 71.3958C231.508 69.5456 227.825 69.0015 223.708 69.7633C216.883 70.9605 213.308 75.7492 213.308 79.9938C213.308 86.6327 219.7 86.6327 223.817 86.6327C225.875 86.6327 227.392 86.6327 227.392 87.3946C227.392 88.3741 225.983 89.0271 224.575 89.2448Z" fill="black"/>
<path d="M184.167 77.1641L191.858 75.7492V90.3331C191.858 92.7275 193.483 94.36 196.517 93.8159C199.55 93.2717 201.175 91.095 201.175 88.5918V74.1167L208.867 72.7019V87.5034C208.867 93.8159 204.967 99.04 196.517 100.564C188.067 102.087 184.058 98.1693 184.058 91.9657V77.1641H184.167Z" fill="black"/>
<path d="M171.275 79.4496L163.692 80.7556V106.005L180.808 102.958V96.3191L171.275 98.0604V79.4496Z" fill="black"/>
<path fill-rule="evenodd" clip-rule="evenodd" d="M151.125 82.9323L137.692 85.3267V110.468L145.275 109.162V101.217L151.125 100.237C156.975 99.1488 160.117 94.6865 160.117 90.0066C160.117 85.2179 156.975 81.844 151.125 82.9323ZM145.383 90.6596L150.15 89.789C151.45 89.5713 152.425 90.0066 152.425 91.3126C152.425 92.6187 151.45 93.4893 150.15 93.707L145.383 94.5777V90.6596Z" fill="black"/>
</svg>
