<?xml version="1.0" encoding="UTF-8"?>
<svg viewBox="0 0 104 72" version="1.1" xmlns="http://www.w3.org/2000/svg" xmlns:xlink="http://www.w3.org/1999/xlink">
    
    <g id="Symbols" stroke="none" stroke-width="1" fill="none" fill-rule="evenodd">
        <g id="Tutoring/Monetization/Headline/Intro" transform="translate(-103.000000, 0.000000)">
            <g id="Brainly-Tutor-Logo" transform="translate(103.000000, 0.000000)">
                <line x1="22.0688897" y1="20.1289245" x2="22.0688897" y2="24.066495" id="Path"></line>
                <g id="Group" fill-rule="nonzero">
                    <g transform="translate(19.246780, 28.148416)">
                        <polygon id="Path" fill="#EDA600" points="83.4027149 0.0320779673 83.4027149 28.2847477 0.0240584755 42.5835016 0.0240584755 14.4270658"></polygon>
                        <g transform="translate(4.089941, 7.698712)" fill="#FFFFFF">
                            <path d="M58.9913818,8.62095371 C58.9913818,5.48533241 57.4436199,3.28799165 54.1716672,2.95117299 C53.2975426,2.86295858 52.3111451,2.90305604 51.1803968,3.09552384 C50.0737069,3.28799165 49.0873094,3.57669335 48.2131848,3.96964845 C45.0775635,5.35702054 43.5217821,7.92325792 43.3934702,10.8984894 L43.4095092,13.745409 C43.4095092,13.8657014 43.4095092,13.9779742 43.4255482,14.0982666 C43.5698991,17.8594083 46.063961,20.1529829 51.2365332,19.2708388 C55.1259868,18.605221 57.4917369,16.648465 58.4781344,14.0982666 C58.8069335,13.2802785 58.9753428,12.3981344 59.0234598,11.4758928 L58.9913818,8.62095371 Z M54.1395893,9.5111173 L54.1235503,11.724497 C54.1235503,13.25622 53.1211138,14.659631 51.1884163,14.9884302 C49.3038357,15.3172294 48.3013992,14.3228124 48.2372433,12.8712844 L48.2372433,12.8712844 L48.2532823,10.6579046 C48.2532823,9.12618169 49.2557188,7.72277062 51.1884163,7.39397146 C53.0729969,7.06517229 54.0754333,8.0355308 54.1395893,9.5111173 L54.1395893,9.5111173 Z" id="Shape"></path>
                            <path d="M75.1907553,14.9563522 L71.5900035,9.5111173 C72.2796798,8.98183084 74.2524748,7.46614688 74.2524748,4.23429168 C74.2524748,2.49406196 73.4425061,1.24302123 72.2876993,0.633539854 C71.1328924,0.0240584755 69.625228,-0.0721754264 67.6444135,0.272662722 L60.6915141,1.48360599 L60.6915141,17.4744727 L65.9282423,16.5682701 L65.9282423,11.2272885 L66.6018796,11.1069962 L69.152078,15.9988862 L73.2099408,15.2931709 L75.1907553,14.9563522 M68.3902262,6.58400278 C68.0614271,6.85666551 67.6604525,7.02507483 67.2354194,7.06517229 L65.9202228,7.28971806 L65.9202228,4.5069544 L67.2434389,4.28240863 C67.8128228,4.17815524 68.1656805,4.23429168 68.3982457,4.38666203 C68.630811,4.53101288 68.9836686,4.67536373 68.9836686,5.37305952 C68.9997076,5.85422903 68.7831813,6.31134006 68.3902262,6.58400278 L68.3902262,6.58400278 Z" id="Shape"></path>
                            <path d="M29.1668918,6.87270449 L24.3150992,7.69871215 L24.2910407,16.8409328 C24.2910407,18.3726558 23.2886042,19.7760668 21.3559067,20.104866 C19.4151897,20.4416847 18.4047337,19.3911312 18.4047337,17.8594083 L18.3646363,8.7252071 L13.5128437,9.55923425 L13.5128437,9.55923425 L4.24231117,11.1310546 L4.17815524,11.1470936 L0.0721754264,11.8608284 L0.0721754264,15.7983989 L4.17815524,15.0846641 L4.17815524,27.1459798 L9.4148834,26.2397772 L9.4148834,14.1784615 L13.5208632,13.5048242 L13.5449217,18.8778837 C13.5449217,22.8395127 16.0309641,25.3255552 21.3559067,24.4033136 C26.6888688,23.497111 29.1588723,20.1529829 29.1588723,16.175315 L29.1588723,10.8423529 L33.2648521,10.1286182 L33.2648521,22.1899339 L38.5015802,21.2837313 L38.5015802,9.20637661 L42.60756,8.5327393 L42.60756,4.57912983 L33.312969,6.15095023 L33.2488131,6.16698921 L33.2488131,6.15095023 L29.1668918,6.87270449" id="Path"></path>
                        </g>
                    </g>
                    <g>
                        <polygon id="Path" fill="#000000" points="0.0721754264 17.7230769 0.0721754264 45.8714932 102.649495 28.2687087 102.649495 0"></polygon>
                        <g transform="translate(5.693839, 6.896763)" fill="#FFFFFF">
                            <path d="M12.3179394,21.540355 C13.681253,20.6983084 14.5393387,19.2147024 14.5633971,17.6027845 C14.5633971,15.7422624 13.3524539,14.7959624 12.1976471,14.5313192 C11.0428402,14.2746954 9.53517577,14.4110268 8.1397842,14.6516116 L0.0320779673,16.0389836 L0.0320779673,19.8241838 L1.55578141,19.5755795 L1.55578141,28.0040654 L0.0481169509,28.2526697 L0.0481169509,32.0378698 L9.43894187,30.425952 C10.9466063,30.1693282 12.5745632,29.5438079 13.6090776,28.6616638 C14.6516116,27.7795197 15.3894048,26.6166934 15.3894048,24.7641907 C15.3894048,22.9116881 14.1784615,21.7167838 12.3179394,21.540355 Z M6.75241211,18.6773964 L7.79494605,18.4929481 C8.38036895,18.3886947 8.60491472,18.3485973 8.94975287,18.5330456 C9.30261051,18.7014549 9.4148834,18.9500592 9.4148834,19.3750922 C9.43092238,19.7680473 9.26251305,20.1289245 8.94975287,20.3614897 C8.59689523,20.6501914 8.38036895,20.7143474 7.79494605,20.8186008 L6.75241211,21.0030491 L6.75241211,18.6773964 Z M9.65546815,26.2076993 C9.32666899,26.496401 8.9256944,26.6728298 8.50066133,26.7129273 L6.7604316,27.0096485 L6.7604316,24.4594501 L8.50066133,24.1627289 C9.08608423,24.0584755 9.31063,24.0745144 9.65546815,24.2429238 C10.0083258,24.4113331 10.1205987,24.7401323 10.1205987,25.1651653 C10.1286182,25.5661399 9.96020884,25.943056 9.65546815,26.2076993 Z" id="Shape"></path>
                            <path d="M45.053505,8.26007658 L45.053505,22.077661 L40.24181,9.08608423 L34.4437174,10.0885207 L29.6079638,24.8203272 L27.2582527,21.2596728 C27.947929,20.7303864 29.920724,19.2147024 29.920724,15.9828472 C29.920724,14.2426175 29.1107553,12.9915767 27.9559485,12.3820954 C26.8011417,11.772614 25.2934772,11.6763801 23.3126627,12.0212182 L16.3597633,13.2321615 L16.3597633,29.2230282 L21.5964915,28.3168256 L21.5964915,22.9838636 L22.2701288,22.8635712 L24.8203272,27.7554612 L28.87819,27.0497459 L30.850985,26.7129273 L34.323425,26.1114654 L34.9248869,23.7617543 L39.4879777,22.9678246 L40.1215176,25.1170484 L45.0454856,24.2750017 L50.2822137,23.3687992 L50.2822137,7.36189349 L45.5507135,8.17186216 L45.053505,8.26007658 Z M24.0584755,18.3405778 C23.7296763,18.6132405 23.3287017,18.7816498 22.9036686,18.8217473 L21.588472,19.0462931 L21.588472,16.2635294 L22.9116881,16.0389836 C23.4810721,15.9347302 23.8339297,15.9908667 24.066495,16.143237 C24.2990602,16.2875879 24.6519179,16.4319387 24.6519179,17.1296345 C24.6679568,17.5947651 24.4434111,18.0518761 24.0584755,18.3405778 Z M36.0476157,19.5595405 L37.2345005,15.0766446 L38.4213853,19.158566 L36.0476157,19.5595405 Z" id="Shape"></path>
                            <path d="M62.271354,5.28484511 L62.271354,11.3074835 C62.271354,12.4622903 62.3996659,14.1784615 62.3996659,14.1784615 L57.7563801,6.05471632 L52.0785799,7.04111382 L52.0785799,23.0480195 L57.1789767,22.1658754 L57.1789767,16.1352175 C57.1789767,14.9804107 57.0586843,13.2642395 57.0586843,13.2642395 L61.9184963,21.3318482 L67.3637313,20.3935677 L67.3637313,4.40270101 L62.271354,5.28484511 Z" id="Path"></path>
                            <polygon id="Path" points="86.6345701 1.05055343 84.2367421 6.85666551 81.887031 1.87656109 76.0889384 2.87899756 81.6304072 11.6443021 81.6304072 13.6170971 74.3487087 14.8841768 74.3487087 3.17571876 69.136039 4.07390184 69.136039 20.0647685 81.6304072 17.9075252 86.0331082 17.1456735 86.8671354 17.0013227 86.8671354 10.746119 92.4166237 0.0481169509"></polygon>
                        </g>
                    </g>
                </g>
            </g>
        </g>
    </g>
</svg>
