<svg version="1.1" id="Layer_1" xmlns="http://www.w3.org/2000/svg" x="0" y="0" viewBox="0 0 1021.1 544.5" xml:space="preserve" enable-background="new 0 0 1021.1 544.5">
    <style>
        .st1 {
            fill-rule: evenodd;
            clip-rule: evenodd;
            fill: #fff;
        }
    </style>
    <path fill-rule="evenodd" clip-rule="evenodd" d="M1021.1 1.2L0 175.9v280.7l1021.1-174.8z" />
    <path
        class="st1"
        d="M139.9 315.3c-3.5 2.9-5.7 4-11.5 5l-17.3 3V298l17.3-3c5.8-1 8-.9 11.5.8 3.4 1.7 4.6 5 4.6 9.1 0 3.9-1.2 7.5-4.6 10.4zm-28.8-74.8l10.4-1.8c5.8-1 8.1-1.4 11.5.3 3.5 1.7 4.6 4.3 4.6 8.4 0 3.9-1.2 6.9-4.6 9.8-3.4 2.9-5.7 3.5-11.5 4.5l-10.4 1.8v-23zm55.2 28.4c10.4-5.9 22.3-20.7 22.3-39.1 0-18.4-12-27.8-23.5-30.5-11.5-2.6-26.5-1.2-40.3 1.2l-80.6 13.9v37.5l15-2.5v83.8l-15 2.5v37.5l93.3-16.1c15-2.6 31.1-8.8 41.4-17.5 10.4-8.7 17.8-20.3 17.8-38.7 0-18.4-12-30.1-30.4-32zM402 249.2l11.7-44.6 11.8 40.5-23.5 4.1zm-119-12.1c-2.1 2-5.7 3.8-11.5 4.8l-13.1 2.3v-27.6l13.1-2.2c5.7-1 9.2-.5 11.5 1 2.3 1.2 5.8 2.9 5.8 9.8 0 6.8-3.3 9.7-5.8 11.9zm213.4-100.9l-5 .9v137.3l-47.7-129-57.5 10-48 146.3-23.3-35.4c6.9-5.3 26.5-20.2 26.5-52.5 0-17.3-8-29.7-19.5-35.8-11.5-6.1-26.5-6.9-46-3.5l-69 12v158.8l52-9v-52.9l6.7-1.2 25.3 48.6 40.3-7 19.6-3.4 34.5-6 6-23.4 45.3-7.8 6.2 21.3 48.9-8.5 52-9V128.1l-47.3 8.1zm165.9 31.1c0 11.5 1.2 28.6 1.2 28.6l-46-80.7-56.4 9.8v158.8l50.6-8.8v-59.8c0-11.5-1.1-28.6-1.1-28.6l48.3 80.2 54.1-9.4V98.7l-50.6 8.7v59.9zM904.4 65.5l-23.8 57.7-23.4-49.6-57.6 10 55.1 87.1v19.6l-72.3 12.5V86.6l-51.8 8.9v158.8l124.1-21.4 43.7-7.6 8.3-1.5v-62.1l55.2-106.2z"
        transform="translate(11.8 14.5)"
    />
    <g transform="translate(104.76 58.78)">
        <defs>
            <filter id="Adobe_OpacityMaskFilter" filterUnits="userSpaceOnUse" x="394.3" y="222.9" width="522.1" height="262.8"><feColorMatrix values="1 0 0 0 0  0 1 0 0 0  0 0 1 0 0  0 0 0 1 0" /></filter>
        </defs>
        <mask maskUnits="userSpaceOnUse" x="394.3" y="222.9" width="522.1" height="262.8" id="group-20-b_2_">
            <g filter="url(#Adobe_OpacityMaskFilter)"><path id="group-20-a_2_" class="st1" d="M394.3 222.9h522v262.8h-522z" /></g>
        </mask>
        <path mask="url(#group-20-b_2_)" fill-rule="evenodd" clip-rule="evenodd" fill="#eda600" d="M916.3 222.9v173.5L434 478.9l-5.1.9-34.6 5.9V312.3l34.6-5.9 5.1-.9z" />
    </g>
    <path
        class="st1"
        d="M854.3 387.4c0 9.4-6.2 18-18 20.1-11.6 2-17.8-4.1-18.1-13l.1-13.6c0-9.4 6.2-18 18-20.1 11.6-2 17.7 3.9 18.1 13l-.1 13.6zm.3-53.9c-5.4-.5-11.4-.3-18.4.9-6.8 1.2-12.9 3-18.2 5.4-19.3 8.5-28.8 24.3-29.6 42.6l.1 17.5c0 .7 0 1.4.1 2.2.9 23.1 16.2 37.2 48 31.8 23.9-4.1 38.5-16.1 44.5-31.8 2-5 3.1-10.5 3.4-16.1l-.2-17.6c0-19.3-9.5-32.9-29.7-34.9zm87.7 22.3c-2 1.7-4.5 2.7-7.1 3l-8.1 1.4V343l8.1-1.4c3.5-.6 5.7-.3 7.1.6 1.4.9 3.6 1.8 3.6 6.1.2 3-1.2 5.8-3.6 7.5zm19.7 18c4.2-3.3 16.4-12.6 16.4-32.4 0-10.7-5-18.4-12.1-22.1-7.1-3.7-16.4-4.3-28.5-2.2l-42.8 7.4v98.4l32.2-5.5v-33l4.1-.7 15.8 30.3 37.2-6.4-22.3-33.8zm-261.1-16.2l-28.3 4.9v45.4l-.1 12.9c0 8.9-5.9 17.1-17.1 19.1-11 1.9-16.9-3.9-17.2-12.4v-59.1l-28.3 4.9-82.6 14.1v24.2l25.2-4.4v74.3l31.2-5.3 1-.2v-74.4l25.2-4.1v18.4l.1 16.6c0 .7 0 1.4.1 2.1 0 1 .1 2 .2 3 2 20.2 16.6 32.1 45.4 27.2 22.7-3.9 36.5-15.3 42.3-30.2 1.5-3.7 2.4-7.6 2.9-11.7 0-.2 0-.4.1-.6V382l25.2-4.4v74.2l32.2-5.5V372l25.2-4.1v-24.3l-82.7 14z"
        transform="translate(11.8 14.5)"
    />
</svg>
