<?xml version="1.0" encoding="UTF-8"?>
<svg viewBox="0 0 1000 511" version="1.1" xmlns="http://www.w3.org/2000/svg" xmlns:xlink="http://www.w3.org/1999/xlink">
    <title>brainly plus logo</title>
    <defs>
        <polygon id="path-1" points="999.291581 225.417762 999.291581 2.05338809 0 2.05338809 0 225.417762 0 448.782136 999.291581 448.782136"></polygon>
    </defs>
    <g stroke="none" stroke-width="1" fill="none" fill-rule="evenodd">
        <g transform="translate(0.000000, -2.000000)">
            <g>
                <polygon id="Fill-1" fill="#60D399" points="572.093224 350.434908 572.093224 512.929774 999.292402 439.498563 999.292402 276.89076"></polygon>
                <path d="M667.045175,408.775154 L655.215606,410.668378 L655.215606,393.641684 L667.045175,391.74846 C671.706366,390.947639 675.408624,394.407598 675.408624,399.413758 C675.408624,404.282341 671.706366,407.974333 667.045175,408.775154 M669.790554,367.955852 L627.523614,375.643737 L627.523614,375.668378 L627.523614,468.228953 L627.523614,468.419918 L655.215606,463.664271 L655.215606,434.456879 L669.790554,431.51848 C691.176591,427.849076 702.689938,411.405544 702.689938,394.161191 C702.689938,376.773101 691.176591,364.284394 669.790554,367.955852" id="Fill-2" fill="#FFFFFF"></path>
                <polygon id="Fill-4" fill="#FFFFFF" points="738.932854 356.229363 711.242916 360.982957 711.242916 453.759138 773.616632 443.050719 773.616632 418.570226 738.932854 424.525051"></polygon>
                <path d="M838.745791,392.785216 C838.745791,401.688706 832.98809,409.768789 821.747844,411.698973 C810.370021,413.651745 804.610267,407.544969 804.610267,398.645585 L804.610267,344.953593 L776.509651,349.781109 L776.509651,404.444353 C776.509651,427.393018 790.903901,441.754415 821.747844,436.458727 C852.591786,431.160986 866.84846,411.885832 866.84846,388.797536 L866.84846,334.271869 L838.745791,339.095277 L838.745791,392.785216 Z" id="Fill-6" fill="#FFFFFF"></path>
                <path d="M916.484805,357.741273 C908.807187,357.529774 903.05154,357.406571 903.05154,354.4846 C903.05154,352.12115 904.558727,350.055441 910.041273,349.112936 C918.677823,347.63039 928.959138,348.924025 936.909856,353.677618 L951.714784,331.24846 C941.295893,324.412731 927.862628,322.408624 912.920123,324.971253 C887.833881,329.279261 874.946817,346.513347 874.946817,362.229979 C874.946817,386.850103 897.977618,386.790554 913.0577,386.983573 C920.460164,386.965092 925.94271,386.995893 925.94271,389.917864 C925.94271,393.535934 921.008419,395.772074 915.798973,396.667351 C903.462218,398.784394 893.180903,395.264887 886.326694,389.765914 L871.932444,413.100616 C881.665503,420.330595 894.963244,423.89117 914.429363,420.548255 C938.965298,416.336756 953.907803,401.946612 953.907803,381.501027 C953.907803,358.689938 931.562834,358.075975 916.484805,357.741273" id="Fill-8" fill="#FFFFFF"></path>
                <mask id="mask-2" fill="white">
                    <use xlink:href="#path-1"></use>
                </mask>
                <g id="Clip-11"></g>
                <polygon id="Fill-10" fill="#000" mask="url(#mask-2)" points="0 174.488501 0 448.782136 999.291581 277.355031 999.291581 2.05318275"></polygon>
                <path d="M148.781314,324.465914 C145.389117,327.309856 143.134497,328.387885 137.49384,329.359138 L120.551335,332.277002 L120.551335,307.45154 L137.49384,304.543943 C143.134497,303.548049 145.389117,303.607598 148.781314,305.274949 C152.155031,306.934086 153.294661,310.149692 153.294661,314.201027 C153.294661,318.022382 152.155031,321.599384 148.781314,324.465914 L148.781314,324.465914 Z M120.551335,251.008008 L130.715606,249.244148 C136.370637,248.272895 138.62115,247.876591 142.00308,249.562423 C145.389117,251.229774 146.522587,253.753388 146.522587,257.81499 C146.522587,261.640452 145.389117,264.535729 142.00308,267.412526 C138.62115,270.237988 136.370637,270.856057 130.715606,271.83347 L120.551335,273.57885 L120.551335,251.008008 Z M174.734086,278.878645 C184.904517,273.065503 196.63963,258.611704 196.63963,240.548049 C196.63963,222.467967 184.904517,213.229774 173.60883,210.671253 C162.327515,208.110678 147.649897,209.535729 134.101643,211.851951 L55.013347,225.447433 L55.013347,262.250308 L69.7525667,259.798563 L69.7525667,341.964887 L55.013347,344.416632 L55.013347,381.223614 L146.522587,365.474127 C161.200205,362.952567 176.99692,356.845791 187.14271,348.293429 C197.309035,339.790349 204.565708,328.367351 204.565708,310.31191 C204.565708,292.246201 192.797741,280.720534 174.734086,278.878645 L174.734086,278.878645 Z" id="Fill-13" fill="#FFFFFF" mask="url(#mask-2)"></path>
                <path d="M405.935113,259.627926 L417.438193,215.882546 L428.965914,255.650513 L405.935113,259.627926 Z M289.204107,247.761396 C287.18152,249.726489 283.561396,251.473922 277.926899,252.432854 L265.052156,254.671047 L265.052156,227.566324 L277.926899,225.365092 C283.561396,224.383573 286.955647,224.905133 289.204107,226.330185 C291.468994,227.510883 294.852977,229.174127 294.852977,235.985216 C294.852977,242.732649 291.672279,245.556057 289.204107,247.761396 L289.204107,247.761396 Z M498.555236,148.771663 L498.555236,148.792197 L493.622998,149.644353 L493.622998,284.299384 L446.803696,157.734702 L390.349897,167.510883 L343.265708,311.007803 L320.372485,276.268583 C327.148665,271.034497 346.323203,256.404107 346.323203,224.808624 C346.323203,207.872279 338.432033,195.691581 327.148665,189.734702 C315.838604,183.777823 301.165092,182.962628 281.980287,186.252156 L214.245175,197.987269 L214.245175,353.77577 L265.267762,344.937988 L265.267762,293.013963 L271.82423,291.872279 L296.666119,339.51499 L336.169199,332.6423 L355.358111,329.324025 L389.222587,323.490349 L395.099384,300.564271 L439.583984,292.8846 L445.682546,313.734702 L493.622998,305.436961 L493.622998,305.457495 L544.651745,296.617659 L544.651745,140.818891 L498.555236,148.771663 Z" id="Fill-15" fill="#FFFFFF" mask="url(#mask-2)"></path>
                <path d="M710.952567,267.767146 L657.911499,276.945791 L610.502875,198.233265 C610.502875,198.233265 611.619918,214.980698 611.619918,226.262012 L611.619918,284.962218 L561.946407,293.559754 L561.946407,137.769199 L617.260575,128.194251 L662.420739,207.317454 C662.420739,207.317454 661.289322,190.567967 661.289322,179.280493 L661.289322,120.567967 L710.952567,111.988912 L710.952567,267.767146 Z" id="Fill-17" fill="#FFFFFF" mask="url(#mask-2)"></path>
                <polygon id="Fill-19" fill="#FFFFFF" mask="url(#mask-2)" points="900.967146 173.770637 900.967146 234.719302 892.862423 236.15462 849.950719 243.555031 728.26078 264.631006 728.26078 108.865092 779.049281 100.051951 779.049281 214.086858 849.950719 201.805544 849.950719 182.598152 795.98768 97.1422998 852.431211 87.3702259 875.439425 135.965708 898.726899 79.3620123 955.135524 69.598152"></polygon>
            </g>
        </g>
    </g>
</svg>
