<?xml version="1.0" encoding="UTF-8" standalone="no"?>
<!-- Generator: Adobe Illustrator 19.0.0, SVG Export Plug-In . SVG Version: 6.00 Build 0)  -->
<svg id="Layer_1" xmlns="http://www.w3.org/2000/svg" xml:space="preserve" viewBox="0 0 858 384" version="1.1" y="0px" x="0px" xmlns:xlink="http://www.w3.org/1999/xlink" enable-background="new 0 0 858 384">
    <title>brainly logo</title>
	<polygon points="0 148.05 0 383.55 860 236.37 860 0" fill="#000"/>
<g fill="#fff">
	<path d="m150.02 237.68c8.731-4.99 18.807-17.401 18.807-32.91 0-15.522-10.076-23.454-19.774-25.651-9.685-2.198-22.287-0.974-33.92 1.013l-67.903 11.674v31.599l12.654-2.106v70.548l-12.654 2.104v31.603l78.568-13.523c12.603-2.163 26.165-7.407 34.875-14.75 8.73-7.3 14.959-17.107 14.959-32.609 0-15.51-10.11-25.4-25.62-26.98zm-46.52-23.93l8.726-1.514c4.855-0.834 6.789-1.173 9.691 0.273 2.908 1.432 3.881 3.599 3.881 7.085 0 3.286-0.973 5.772-3.881 8.241-2.902 2.426-4.836 2.956-9.691 3.796l-8.726 1.497v-19.39zm24.24 63.07c-2.913 2.442-4.847 3.367-9.691 4.201l-14.546 2.506v-21.315l14.546-2.498c4.844-0.854 6.779-0.803 9.691 0.629 2.896 1.424 3.875 4.185 3.875 7.663 0 3.27-0.98 6.35-3.88 8.81z"/>
	<path d="m428.05 125.99l-4.236 0.729v115.61l-40.197-108.66-48.471 8.394-40.425 123.2-19.658-29.828c5.818-4.493 22.281-17.054 22.281-44.181 0-14.541-6.775-24.999-16.463-30.114-9.71-5.116-22.309-5.815-38.78-2.991l-58.156 10.078v133.76l43.807-7.589v-44.58l5.63-0.981 21.328 40.906 33.916-5.902 16.476-2.848 29.075-5.011 5.045-19.683 38.193-6.593 5.237 17.9 41.16-7.124v0.018l43.813-7.591v-133.79l-39.577 6.829v0.02zm-179.74 84.97c-1.737 1.688-4.844 3.189-9.683 4.012l-11.054 1.922v-23.272l11.054-1.89c4.839-0.844 7.751-0.394 9.683 0.829 1.945 1.014 4.85 2.441 4.85 8.29 0 5.79-2.73 8.22-4.85 10.11zm100.22 10.19l9.876-37.559 9.898 34.143-19.78 3.42z"/>
	<path d="m567.77 152.16c0 9.691 0.971 24.071 0.971 24.071l-38.773-67.932-47.491 8.22v133.76l42.648-7.381v-50.4c0-9.685-0.959-24.065-0.959-24.065l40.705 67.58 45.539-7.879v-133.75l-42.64 7.367v50.4z"/>
	<polygon points="771.63 66.376 751.64 114.97 731.88 73.251 683.42 81.641 729.75 155.01 729.75 171.5 668.88 182.05 668.88 84.139 625.27 91.705 625.27 225.44 729.75 207.35 766.6 201 773.56 199.76 773.56 147.43 820.06 57.991"/>
</g>
</svg>
