<svg viewBox="0 0 32 32" fill="none" xmlns="http://www.w3.org/2000/svg">
<path d="M17.5108 16.7696C17.256 16.6817 17.0489 16.6102 16.6 16.7L15.1 17V19.2L16.6 18.9C17.1 18.8 17.3 18.7 17.6 18.5C17.9 18.3 18 17.9 18 17.6C18 17.2 17.9 16.9 17.6 16.8C17.5694 16.7898 17.5397 16.7795 17.5108 16.7696Z" fill="white"/>
<path d="M17.4 12.5C17.4 12.9 17.3 13.2 17 13.4C16.7 13.6 16.5 13.7 16 13.8L15.1 14V12L16 11.8C16.5 11.7 16.7 11.7 17 11.8C17.3 11.9 17.4 12.1 17.4 12.5Z" fill="white"/>
<path fill-rule="evenodd" clip-rule="evenodd" d="M0 5.6V32L32 26.5V0L0 5.6ZM21 20.6C20.1 21.4 18.7 21.9 17.4 22.1L9.3 23.5V20.2L10.6 20V12.7L9.3 12.9V9.6L16.3 8.4C17.5 8.2 18.8 8.1 19.8 8.3C20.8 8.5 21.8 9.4 21.8 11C21.8 12.6 20.8 13.9 19.9 14.4C21.5 14.6 22.5 15.6 22.5 17.2C22.6 18.8 21.9 19.8 21 20.6Z" fill="white"/>
</svg>
