<?xml version="1.0" encoding="UTF-8"?>
<svg viewBox="0 0 1000 666" version="1.1" xmlns="http://www.w3.org/2000/svg" xmlns:xlink="http://www.w3.org/1999/xlink">
    <title>brainly plus logo</title>
    <defs>
        <polygon id="path-1" points="999.892117 449.051631 999.892117 2.0546221 0.00041092442 2.0546221 0.000410924419 449.051631"></polygon>
    </defs>
    <g stroke="none" stroke-width="1" fill="none" fill-rule="evenodd">
        <g transform="translate(0.000000, -2.000000)">
            <g>
                <polygon id="Fill-1" fill="#60D399" points="324.390722 393.210084 324.390722 667.039844 999.892939 551.28449 999.892939 277.460894"></polygon>
                <path d="M459.778196,497.836989 L439.856581,501.025762 L439.856581,472.353511 L459.778196,469.164738 C467.626853,467.816905 473.860576,473.643814 473.860576,482.073928 C473.860576,490.27187 467.626853,496.489157 459.778196,497.836989 M464.401096,429.099607 L393.226932,442.04578 L393.226932,442.086873 L393.226932,597.954614 L393.226932,598.273081 L439.856581,590.266219 L439.856581,541.08062 L464.401096,536.137199 C500.412458,529.956896 519.801926,502.266754 519.801926,473.224671 C519.801926,443.946306 500.412458,422.915194 464.401096,429.099607" id="Fill-2" fill="#FFFFFF"></path>
                <polygon id="Fill-4" fill="#FFFFFF" points="580.831394 409.351812 534.201745 417.356619 534.201745 573.585975 639.234027 555.554611 639.234027 514.330673 580.831394 524.359284"></polygon>
                <path d="M748.908111,470.910139 C748.908111,485.902716 739.212349,499.510479 720.283116,502.760891 C701.123765,506.048286 691.428003,495.766957 691.428003,480.778489 L691.428003,390.366898 L644.108002,398.492929 L644.108002,490.542053 C644.108002,529.185386 668.346378,553.368288 720.283116,544.451228 C772.221908,535.534168 796.230167,503.073193 796.230167,464.191525 L796.230167,372.376627 L748.908111,380.498548 L748.908111,470.910139 Z" id="Fill-6" fill="#FFFFFF"></path>
                <path d="M879.81507,411.899954 C866.887388,411.54245 857.193681,411.334933 857.193681,406.414113 C857.193681,402.43431 859.733194,398.95378 868.964611,397.369667 C883.507226,394.873301 900.821527,397.0512 914.209444,405.058063 L939.140229,367.283835 C921.595811,355.775897 898.974421,352.400153 873.813519,356.718968 C831.570489,363.96973 809.871625,392.991267 809.871625,419.456854 C809.871625,460.912964 848.652617,460.818452 874.043637,461.143082 C886.509029,461.110208 895.742501,461.163628 895.742501,466.082393 C895.742501,472.174348 887.433609,475.942525 878.660373,477.446508 C857.886089,481.015387 840.571788,475.087802 829.030976,465.825566 L804.792599,505.120213 C821.18232,517.295904 843.573591,523.291291 876.350978,517.661627 C917.671483,510.569071 942.832385,486.338913 942.832385,451.90961 C942.832385,413.496395 905.20609,412.460866 879.81507,411.899954" id="Fill-8" fill="#FFFFFF"></path>
                <mask id="mask-2" fill="white">
                    <use xlink:href="#path-1"></use>
                </mask>
                <g id="Clip-11"></g>
                <polygon id="Fill-10" fill="#000" mask="url(#mask-2)" points="0.000410924419 174.591102 0.000410924419 449.051631 999.892528 277.51945 999.892528 2.05421117"></polygon>
                <path d="M148.871137,324.658851 C145.476901,327.506557 143.220926,328.583179 137.576879,329.55707 L120.624192,332.476688 L120.624192,307.636307 L137.576879,304.724907 C143.220926,303.728415 145.476901,303.790054 148.871137,305.456353 C152.246881,307.116487 153.387196,310.334025 153.387196,314.387795 C153.387196,318.211447 152.246881,321.790598 148.871137,324.658851 L148.871137,324.658851 Z M120.624192,251.1568 L130.792517,249.391879 C136.453001,248.422098 138.704867,248.025556 142.086775,249.710346 C145.476901,251.380754 146.611053,253.903829 146.611053,257.967872 C146.611053,261.797688 145.476901,264.694705 142.086775,267.57323 C138.704867,270.40039 136.453001,271.018832 130.792517,271.996832 L120.624192,273.741206 L120.624192,251.1568 Z M174.839506,279.044185 C185.013994,273.229605 196.758214,258.765065 196.758214,240.690555 C196.758214,222.599607 185.013994,213.357917 173.711518,210.797858 C162.425479,208.235744 147.73904,209.661652 134.182644,211.977211 L55.0468189,225.582919 L55.0468189,262.40791 L69.7948963,259.952637 L69.7948963,342.16834 L55.0468189,344.621559 L55.0468189,381.452715 L146.611053,365.691709 C161.297491,363.170687 177.103699,357.060241 187.253532,348.500685 C197.428021,339.99455 204.687001,328.564687 204.687001,310.498395 C204.687001,292.419775 192.914016,280.887182 174.839506,279.044185 L174.839506,279.044185 Z" id="Fill-13" fill="#FFFFFF" mask="url(#mask-2)"></path>
                <path d="M406.179475,259.783747 L417.689468,216.012078 L429.224117,255.803944 L406.179475,259.783747 Z M289.378318,247.910086 C287.354515,249.876359 283.732217,251.624843 278.094334,252.584351 L265.211853,254.823889 L265.211853,227.702878 L278.094334,225.498268 C283.732217,224.516159 287.126452,225.040087 289.378318,226.465995 C291.644566,227.647403 295.028529,229.309592 295.028529,236.126828 C295.028529,242.878316 291.847974,245.701367 289.378318,247.910086 L289.378318,247.910086 Z M498.85526,148.860864 L498.85526,148.88141 L493.918003,149.732024 L493.918003,284.467977 L447.072619,157.829289 L390.584894,167.611345 L343.472409,311.192447 L320.563372,276.43235 C327.343625,271.195118 346.529687,256.55799 346.529687,224.94352 C346.529687,207.996997 338.633774,195.808979 327.343625,189.84852 C316.028821,183.886007 301.346492,183.070322 282.150158,186.363881 L214.374339,198.106046 L214.374339,353.98817 L265.427588,345.143022 L265.427588,293.189848 L271.987997,292.045423 L296.844815,339.71882 L336.36958,332.842 L355.572078,329.519676 L389.456906,323.682494 L395.337234,300.744693 L439.846513,293.060407 L445.950795,313.923039 L493.918003,305.620311 L493.918003,305.638803 L544.979471,296.793655 L544.979471,140.903312 L498.85526,148.860864 Z" id="Fill-15" fill="#FFFFFF" mask="url(#mask-2)"></path>
                <path d="M711.379205,267.928064 L658.308317,277.11017 L610.871202,198.352395 C610.871202,198.352395 611.986862,215.109893 611.986862,226.395932 L611.986862,285.133469 L562.285553,293.736172 L562.285553,137.849939 L617.630908,128.27129 L662.818212,207.439989 C662.818212,207.439989 661.686115,190.680437 661.686115,179.386179 L661.686115,120.638369 L711.379205,112.054158 L711.379205,267.928064 Z" id="Fill-17" fill="#FFFFFF" mask="url(#mask-2)"></path>
                <polygon id="Fill-19" fill="#FFFFFF" mask="url(#mask-2)" points="901.509003 173.874861 901.509003 234.860154 893.39941 236.296335 850.461917 243.699138 728.698848 264.789834 728.698848 108.928256 779.517871 100.111873 779.517871 214.213256 850.461917 201.924561 850.461917 182.707681 796.464394 97.2004731 852.941846 87.4225266 875.965941 136.045158 899.267411 79.4074458 955.709934 69.6377177"></polygon>
            </g>
        </g>
    </g>
</svg>
