<svg width="134" height="89" xmlns="http://www.w3.org/2000/svg" xmlns:xlink="http://www.w3.org/1999/xlink"><defs><path id="a" d="M133.368 60.507V.097H0v60.41z"/></defs><g fill="none" fill-rule="evenodd"><path fill="#FFF" d="M42.87 51.77v36.829l90.504-15.569V36.202z"/><path d="M61.326 67.1l-2.657.431v-3.875l2.657-.43c1.047-.183 1.879.605 1.879 1.744 0 1.108-.832 1.948-1.879 2.13m.617-9.29l-9.493 1.75v21.114l6.22-1.082v-6.647l3.273-.668c4.803-.836 7.39-4.578 7.39-8.503 0-3.957-2.587-6.799-7.39-5.963M77.473 55.142l-6.22 1.082v21.114l14.01-2.437V69.33l-7.79 1.355zM99.891 63.461c0 2.027-1.293 3.866-3.818 4.305-2.555.444-3.849-.945-3.849-2.97v-12.22l-6.311 1.098v12.44c0 5.223 3.233 8.491 10.16 7.286 6.928-1.205 10.13-5.592 10.13-10.847V50.145l-6.312 1.097v12.22zM117.352 55.486c-1.724-.048-3.017-.076-3.017-.741 0-.538.338-1.008 1.57-1.222 1.94-.338 4.249-.044 6.035 1.039l3.325-5.106c-2.34-1.555-5.357-2.011-8.713-1.427-5.635.98-8.53 4.902-8.53 8.479 0 5.602 5.174 5.59 8.56 5.633 1.663-.004 2.894.003 2.894.668 0 .823-1.108 1.333-2.278 1.536-2.77.482-5.08-.319-6.62-1.57l-3.233 5.31c2.186 1.645 5.173 2.456 9.545 1.695 5.511-.959 8.867-4.233 8.867-8.887 0-5.191-5.018-5.33-8.405-5.407" fill="#53CF92"/><mask id="b" fill="#fff"><use xlink:href="#a"/></mask><path fill="#231F20" mask="url(#b)" d="M0 23.414v37.093l133.368-23.182V.096z"/><path d="M19.857 43.696c-.453.385-.754.53-1.507.662l-2.26.394v-3.357l2.26-.393c.753-.135 1.054-.127 1.507.099.45.224.602.659.602 1.207 0 .516-.152 1-.602 1.388zm-3.768-9.934l1.356-.238c.755-.131 1.056-.185 1.507.043.452.225.603.566.603 1.116 0 .517-.15.909-.603 1.298-.451.382-.752.465-1.507.598l-1.356.235v-3.052zm7.232 3.769c1.357-.786 2.923-2.74 2.923-5.183 0-2.445-1.566-3.694-3.074-4.04-1.505-.347-3.464-.154-5.272.159L7.342 30.306v4.977l1.967-.332v11.111l-1.967.332v4.977l12.213-2.13c1.96-.34 4.068-1.166 5.421-2.323 1.357-1.15 2.326-2.694 2.326-5.136 0-2.443-1.57-4.002-3.981-4.251zM54.177 34.928l1.536-5.916 1.538 5.378-3.074.538zm-15.579-1.605c-.27.266-.753.502-1.505.632l-1.718.303v-3.666l1.718-.298c.752-.132 1.205-.062 1.505.131.302.16.754.384.754 1.306 0 .912-.425 1.294-.754 1.592zm27.94-13.386v.003l-.658.115v18.209l-6.248-17.115-7.535 1.322-6.284 19.405-3.055-4.698c.904-.708 3.463-2.686 3.463-6.959 0-2.29-1.053-3.937-2.559-4.743-1.51-.805-3.468-.916-6.028-.47l-9.04 1.586V47.66l6.81-1.196v-7.021l.874-.155 3.316 6.443 5.272-.93 2.561-.448 4.52-.79.784-3.1 5.937-1.038.814 2.82 6.398-1.122v.002l6.81-1.195V18.862l-6.151 1.075zM94.886 36.029l-7.08 1.24-6.326-10.643s.148 2.264.148 3.79v7.938L75 39.517V18.449l7.382-1.295 6.027 10.7s-.15-2.265-.15-3.792v-7.94l6.628-1.16V36.03zM120.246 23.318v8.242l-1.082.194-5.727 1-16.241 2.85V14.54l6.778-1.191v15.42l9.463-1.66V24.51l-7.202-11.556 7.533-1.321 3.07 6.57 3.109-7.654 7.528-1.32z" fill="#FFF"/></g></svg>