<svg xmlns="http://www.w3.org/2000/svg" viewBox="0 0 36 36">
  <g fill="none" fill-rule="evenodd">
    <rect width="36" height="36" fill="#FFF" rx="7"/>
    <path fill="#020A1B" d="M33.3 1.476c1.643 1.28 2.7 3.28 2.7 5.53v21.75L2.71 34.53C1.06 33.25 0 31.247 0 28.995V7.35l33.3-5.874z"/>
    <path fill="#FFF" d="M20.36 20.897c-.34.287-.567.395-1.132.493l-1.696.294v-2.5l1.696-.293c.565-.1.79-.09 1.13.08.34.168.453.49.453.9 0 .384-.11.745-.45 1.03zM17.53 13.5l1.017-.178c.566-.098.79-.138 1.13.032.34.168.453.422.453.83 0 .386-.114.678-.453.968-.34.284-.564.346-1.13.445l-1.018.175V13.5zm5.426 2.806c1.018-.585 2.194-2.04 2.194-3.86 0-1.82-1.176-2.75-2.307-3.01-1.13-.257-2.6-.113-3.956.12l-7.922 1.37v3.706l1.476-.247v8.275l-1.47.247v3.707l9.165-1.587c1.47-.253 3.053-.868 4.07-1.73 1.02-.856 1.745-2.006 1.745-3.825 0-1.82-1.18-2.98-2.99-3.166z"/>
  </g>
</svg>
