<svg viewBox="0 0 180 81" fill="none" xmlns="http://www.w3.org/2000/svg">
<path d="M25.52 47.69C26.13 47.17 26.33 46.65 26.33 45.97C26.33 45.24 26.13 44.79 25.52 44.49C24.914 44.192 24.5152 44.2591 23.5198 44.4267L23.5 44.43H23.49L21.66 44.75V48.81L23.49 48.5C24.51 48.32 24.91 48.21 25.52 47.71V47.69Z" fill="white"/>
<path d="M26.74 54.49C26.13 54.19 25.73 54.18 24.71 54.36L21.67 54.88V59.34L24.71 58.82C25.72 58.65 26.13 58.45 26.74 57.94C27.35 57.42 27.55 56.78 27.55 56.1C27.55 55.37 27.34 54.79 26.74 54.5V54.49Z" fill="white"/>
<path d="M75.02 38.43L77.09 45.57L72.95 46.29L75.02 38.43Z" fill="white"/>
<path d="M51.98 40.31H51.97C51.57 40.04 50.96 39.95 49.94 40.13L47.63 40.53V45.4L49.94 45C50.95 44.83 51.6 44.51 51.97 44.16L51.9891 44.1427C52.4263 43.7455 52.98 43.2424 52.98 42.04C52.98 40.8453 52.4142 40.5424 52.0057 40.3238L51.98 40.31Z" fill="white"/>
<path fill-rule="evenodd" clip-rule="evenodd" d="M0 80.28V30.99L180 0V49.47L0 80.28ZM26.33 65.31C28.97 64.85 31.81 63.76 33.63 62.22V62.24C35.46 60.71 36.76 58.66 36.76 55.41C36.76 52.16 34.65 50.09 31.4 49.76C33.23 48.71 35.34 46.12 35.34 42.87C35.34 39.62 33.23 37.96 31.2 37.5C29.17 37.04 26.53 37.29 24.1 37.71L9.89 40.15V46.76L12.54 46.32V61.09L9.89 61.53V68.14L26.33 65.31ZM97.88 52.93H97.89V24.93L89.61 26.37L88.72 26.52V50.71L80.31 27.97L70.16 29.73L61.7 55.52L57.59 49.28L57.61 49.26L57.6124 49.2581C58.8445 48.3065 62.25 45.6763 62.25 40.03C62.25 36.99 60.83 34.8 58.8 33.73C56.76 32.66 54.13 32.51 50.68 33.1L38.51 35.21V63.21L47.68 61.62V52.29L48.86 52.08L53.32 60.64L60.42 59.4L69.95 57.76L71.01 53.64L79 52.26L80.1 56.01L97.88 52.93ZM127.76 47.7417L127.77 47.74L127.76 47.75V47.7417ZM127.76 47.7417V19.76L118.84 21.3V31.85C118.84 33.88 119.04 36.89 119.04 36.89L110.93 22.67L100.99 24.39V52.38L109.92 50.84V40.29C109.92 38.26 109.72 35.25 109.72 35.25L118.24 49.39L127.76 47.7417ZM161.92 41.8V30.84L171.65 12.12L161.51 13.88L157.33 24.05L153.19 15.32L143.05 17.08L152.75 32.44V35.89L140.01 38.1V17.61L130.88 19.19V47.18L160.46 42.06L161.92 41.8Z" fill="white"/>
</svg>
