<svg viewBox="0 0 201 100" fill="none" xmlns="http://www.w3.org/2000/svg">
<path d="M52.2847 44.7373C51.8847 45.1373 51.2847 45.4373 50.2847 45.5373L47.9847 45.9373V41.0373L50.2847 40.6373C51.2847 40.4373 51.8847 40.5373 52.2847 40.8373C52.6847 41.0373 53.2847 41.3373 53.2847 42.5373C53.3847 43.7373 52.7847 44.3373 52.2847 44.7373Z" fill="white"/>
<path d="M75.4847 38.9373L73.3847 46.8373L77.5847 46.1373L75.4847 38.9373Z" fill="white"/>
<path d="M21.8845 45.2372L23.6845 44.9372C24.6845 44.7372 25.0845 44.7372 25.6845 45.0372C26.2845 45.3372 26.4845 45.8372 26.4845 46.5372C26.4845 47.2372 26.2845 47.7372 25.6845 48.2372C25.0845 48.7372 24.6845 48.8372 23.6845 49.0372L21.8845 49.3372V45.2372Z" fill="white"/>
<path d="M24.8845 59.3372C25.8845 59.1372 26.2845 58.9372 26.8845 58.4372C27.4845 57.9372 27.6845 57.2372 27.6845 56.6372C27.6845 55.9372 27.4845 55.3372 26.8845 55.0372C26.2845 54.7372 25.8845 54.7372 24.8845 54.9372L21.7845 55.4372V59.9372L24.8845 59.3372Z" fill="white"/>
<path fill-rule="evenodd" clip-rule="evenodd" d="M0.0844727 80.8371V31.5371L180.984 0.537109V50.0371L0.0844727 80.8371ZM162.385 14.4372L158.185 24.6372L153.985 15.9372L143.785 17.7372L153.485 33.1372V36.6372L140.685 38.8372V18.1372L131.485 19.7372V47.7372L161.185 42.6372L162.685 42.3372V31.3372L172.485 12.6372L162.385 14.4372ZM119.685 37.3369C119.685 37.3369 119.485 34.3369 119.485 32.3369V21.8369L128.485 20.3369V48.3369L118.885 49.9369L110.285 35.8369C110.285 35.8369 110.485 38.8369 110.485 40.8369V51.3369L101.485 52.8369V24.8369L111.485 23.1369L119.685 37.3369ZM90.0847 26.9373L89.1847 27.1373V51.3373L80.7847 28.5373L70.5847 30.3373L62.0847 56.1373L57.9847 49.9373C58.0412 49.8902 58.1028 49.8396 58.1689 49.7852C59.5066 48.6858 62.6847 46.0736 62.6847 40.7373C62.6847 37.7373 61.2847 35.5373 59.1847 34.4373C57.1847 33.3373 54.4847 33.2373 50.9847 33.8373L38.7847 35.9373V63.9373L47.9847 62.3373V53.0373L49.1847 52.8373L53.6847 61.4373L60.7847 60.2373L70.3847 58.6373L71.4847 54.5373L79.4847 53.1373L80.5847 56.8373L89.2847 55.3373L98.4847 53.7373V25.7373L90.0847 26.9373ZM31.6845 50.2372C33.4845 49.2372 35.6845 46.6372 35.6845 43.3372C35.6845 40.1372 33.5845 38.4372 31.4845 37.9372C29.4845 37.4372 26.7845 37.7372 24.3845 38.1372L10.0845 40.5372V47.1372L12.7845 46.7372V61.5372L10.0845 61.9372V68.5372L26.5845 65.7372C29.2845 65.2372 32.0845 64.1372 33.8845 62.6372C35.6845 61.1372 36.9845 59.0372 36.9845 55.8372C36.9845 52.7372 34.8845 50.6372 31.6845 50.2372Z" fill="white"/>
<path d="M170.053 59.8721L173.604 59.2483C174.564 59.0564 175.476 59.3923 175.524 60.4479C175.524 61.5036 174.612 62.1274 173.604 62.3193L170.053 62.9431V59.8721Z" fill="#FBBE2E"/>
<path d="M150.189 63.1348C147.357 63.6147 145.534 66.1099 145.534 68.797C145.534 71.4842 147.357 73.3076 150.189 72.8277C153.02 72.3479 154.843 69.8527 154.843 67.1655C154.843 64.4304 153.02 62.607 150.189 63.1348Z" fill="#FBBE2E"/>
<path fill-rule="evenodd" clip-rule="evenodd" d="M200.285 61.5513C200.285 51.5225 192.223 43.605 182.098 44.9966L78.2116 62.7989C68.1348 64.4783 60.0254 72.5397 60.0254 82.5685C60.0254 92.9332 67.9909 100.803 78.2116 99.2192L182.098 81.3689C192.223 80.0733 200.285 71.5801 200.285 61.5513ZM170.005 68.0295L172.117 67.6456L174.756 73.3558L181.426 72.1562L177.923 65.9182C179.458 64.9105 181.426 62.7992 181.426 59.4402C181.426 55.7934 178.979 53.2022 174.468 54.018L164.151 55.8414V75.1792L170.005 74.1236V68.0295ZM150.189 57.9525C156.187 56.8968 160.793 60.1598 160.793 66.1099C160.793 72.06 156.187 76.9544 150.189 78.0101C144.19 79.0657 139.584 75.8028 139.584 69.8527C139.632 63.8546 144.238 59.0081 150.189 57.9525ZM126.771 67.5015L121.589 68.4132V63.3268L137.808 60.4478V65.5341L132.625 66.4458V80.6973L126.771 81.7529V67.5015ZM99.6602 67.1657L105.61 66.11V77.2905C105.61 79.1619 106.81 80.4095 109.257 79.9776C111.656 79.5457 112.856 77.8663 112.856 75.9949V64.8145L118.806 63.7588V75.1312C118.806 79.9296 115.783 84.0083 109.257 85.1599C102.731 86.3116 99.6602 83.3365 99.6602 78.5381V67.1657ZM80.7061 75.611L85.8884 74.6993V88.9507L91.7425 87.895V73.6436L96.9249 72.7319V67.6455L80.7061 70.5246V75.611Z" fill="#FBBE2E"/>
</svg>
