<svg viewBox="0 0 202 101" fill="none" xmlns="http://www.w3.org/2000/svg">
<path fill-rule="evenodd" clip-rule="evenodd" d="M0.0283203 31.8866V81.7423L181.651 50.5951V0.537109L0.0283203 31.8866Z" fill="black"/>
<path fill-rule="evenodd" clip-rule="evenodd" d="M31.7546 50.7974C33.5618 49.7862 35.7706 47.1569 35.7706 43.8197C35.7706 40.5836 33.6622 38.8644 31.5538 38.3588C29.5458 37.8532 26.835 38.1565 24.4254 38.561L10.0683 40.9881V47.6625L12.7791 47.258V62.2248L10.0683 62.6293V69.3037L26.6342 66.4722C29.345 65.9665 32.1562 64.8541 33.9634 63.3372C35.7706 61.8203 37.0758 59.6966 37.0758 56.4606C37.0758 53.3256 34.9674 51.202 31.7546 50.7974ZM21.9154 45.7411L23.7226 45.4377C24.7266 45.2354 25.1282 45.2354 25.7306 45.5388C26.333 45.8422 26.5338 46.3478 26.5338 47.0557C26.5338 47.7636 26.333 48.2693 25.7306 48.7749C25.1282 49.2805 24.7266 49.3817 23.7226 49.5839L21.9154 49.8873V45.7411ZM24.9274 60C25.9314 59.7978 26.333 59.5955 26.9354 59.0899C27.5378 58.5842 27.7386 57.8763 27.7386 57.2696C27.7386 56.5617 27.5378 55.9549 26.9354 55.6516C26.333 55.3482 25.9314 55.3482 24.9274 55.5504L21.815 56.0561V60.6068L24.9274 60Z" fill="white"/>
<path fill-rule="evenodd" clip-rule="evenodd" d="M90.3882 27.2349L89.4846 27.4371V51.9099L81.051 28.8529L70.8102 30.6732L62.2763 56.764L58.1599 50.4942C59.3647 49.4829 62.8787 46.8536 62.8787 41.1905C62.8787 38.1566 61.4731 35.9318 59.3647 34.8194C57.3567 33.707 54.6459 33.6059 51.1319 34.2127L38.8832 36.3363V64.652L48.1199 63.0339V53.6291L49.3247 53.4268L53.8427 62.1238L60.9711 60.9103L70.6094 59.2922L71.7138 55.146L79.7458 53.7302L80.8502 57.4719L89.585 55.955L98.8217 54.337V26.0214L90.3882 27.2349ZM52.4371 45.2355C52.0355 45.6401 51.4331 45.9434 50.4291 46.0446L48.1199 46.4491V41.4938L50.4291 41.0893C51.4331 40.8871 52.0355 40.9882 52.4371 41.2916C52.8387 41.4938 53.4411 41.7972 53.4411 43.0107C53.5415 44.2243 52.9391 44.831 52.4371 45.2355ZM75.7298 39.3702L73.6214 47.3592L77.8382 46.6513L75.7298 39.3702Z" fill="white"/>
<path fill-rule="evenodd" clip-rule="evenodd" d="M119.906 32.6954C119.906 34.7179 120.107 37.7517 120.107 37.7517L111.874 23.3917L101.834 25.1108V53.4265L110.87 51.9095V41.2912C110.87 39.2686 110.669 36.2348 110.669 36.2348L119.303 50.4938L128.942 48.8757V20.5601L119.906 22.077V32.6954Z" fill="white"/>
<path fill-rule="evenodd" clip-rule="evenodd" d="M162.977 14.5939L158.76 24.9089L154.544 16.1108L144.303 17.9311L154.042 33.5047V37.0441L141.191 39.2689V18.3356L131.954 19.9536V48.2693L161.772 43.1118L163.278 42.8084V31.6844L173.118 12.7736L162.977 14.5939Z" fill="white"/>
<path d="M182.769 45.4977C192.935 44.0905 201.028 52.0972 201.028 62.239C201.028 72.3809 192.935 80.9699 182.769 82.2801L78.4676 100.332C68.206 101.933 60.2088 93.9747 60.2088 83.4932C60.2088 73.3514 68.3506 65.1991 78.4676 63.5007L182.769 45.4977Z" fill="#FBBE2E"/>
<path fill-rule="evenodd" clip-rule="evenodd" d="M170.628 68.7903L172.748 68.4021L175.398 74.1766L182.094 72.9635L178.577 66.6552C180.119 65.6361 182.094 63.501 182.094 60.1042C182.094 56.4163 179.637 53.7959 175.109 54.6208L164.751 56.4648V76.0206L170.628 74.953V68.7903ZM170.676 60.5409L174.242 59.9101C175.205 59.716 176.12 60.0557 176.169 61.1233C176.169 62.1908 175.253 62.8216 174.242 63.0157L170.676 63.6466V60.5409Z" fill="black"/>
<path fill-rule="evenodd" clip-rule="evenodd" d="M150.732 58.5997C156.754 57.5321 161.379 60.8319 161.379 66.849C161.379 72.8662 156.754 77.8158 150.732 78.8834C144.71 79.9509 140.085 76.6512 140.085 70.634C140.133 64.5683 144.758 59.6673 150.732 58.5997ZM150.732 63.8405C147.89 64.3257 146.059 66.849 146.059 69.5665C146.059 72.2839 147.89 74.1279 150.732 73.6426C153.575 73.1574 155.405 70.634 155.405 67.9166C155.405 65.1506 153.575 63.3067 150.732 63.8405Z" fill="black"/>
<path d="M122.018 69.1783L127.221 68.2563V82.6684L133.099 81.6009V67.1888L138.302 66.2668V61.1231L122.018 64.0346V69.1783Z" fill="black"/>
<path d="M100.002 67.9168L105.976 66.8492V78.1557C105.976 80.0481 107.18 81.3098 109.637 80.8731C112.046 80.4364 113.25 78.738 113.25 76.8455V65.539L119.224 64.4714V75.972C119.224 80.8246 116.189 84.9492 109.637 86.1138C103.085 87.2785 100.002 84.2699 100.002 79.4173V67.9168Z" fill="black"/>
<path d="M86.1751 75.5352L80.9721 76.4572V71.3135L97.2557 68.402V73.5457L92.0526 74.4677V88.8798L86.1751 89.9473V75.5352Z" fill="black"/>
</svg>