<svg xmlns="http://www.w3.org/2000/svg" viewBox="0 0 406.022 406.022">
  <title>
    brainly logo
  </title>
  <path d="M-.035 405.581l406.08-69.668V.661L-.035 70.908v334.673z"/>
  <path fill="#fff" d="M253.902 184.351c11.514-6.618 24.802-23.077 24.802-43.644 0-20.585-13.288-31.104-26.078-34.017-12.773-2.915-29.39-1.292-44.732 1.344l-89.549 15.481v41.905l16.688-2.794v93.558l-16.688 2.79v41.91l103.613-17.935c16.62-2.869 34.506-9.823 45.992-19.56 11.513-9.682 19.727-22.687 19.727-43.246 0-20.572-13.323-33.694-33.775-35.792zm-61.35-31.734l11.507-2.008c6.404-1.106 8.953-1.555 12.78.363 3.836 1.899 5.119 4.772 5.119 9.396a13.065 13.065 0 0 1-5.118 10.929c-3.828 3.217-6.377 3.92-12.78 5.034l-11.508 1.985zm31.964 83.64c-3.841 3.24-6.393 4.466-12.781 5.572l-19.183 3.323v-28.266l19.183-3.313c6.388-1.132 8.94-1.064 12.78.834 3.82 1.888 5.111 5.55 5.111 10.163a14.51 14.51 0 0 1-5.11 11.688z"/>
</svg>
