<svg viewBox="0 0 260 106" fill="none" xmlns="http://www.w3.org/2000/svg">
<path fill-rule="evenodd" clip-rule="evenodd" d="M0 40.4938V104.906L235.444 64.6505V0L0 40.4938Z" fill="black"/>
<path fill-rule="evenodd" clip-rule="evenodd" d="M41.0713 65.008C43.4616 63.6432 46.2201 60.2486 46.2201 56.0066C46.2201 51.7612 43.4616 49.5916 40.8065 48.9907C38.155 48.3895 34.705 48.7243 31.5202 49.2678L12.9302 52.4608V61.1036L16.3945 60.5276V79.8234L12.9302 80.3989V89.0428L34.4399 85.3441C37.8903 84.7524 41.6032 83.3181 43.9878 81.3097C46.3778 79.3131 48.0831 76.6307 48.0831 72.3907C48.0831 68.1485 45.3153 65.4434 41.0691 65.0113L41.0713 65.008ZM28.3354 58.4632L30.7244 58.0491L30.7382 58.0467C32.0572 57.8204 32.5858 57.7296 33.3775 58.1238C34.1737 58.5154 34.44 59.1082 34.44 60.0616C34.44 60.9604 34.1737 61.6403 33.3775 62.3157C32.583 62.9792 32.0536 63.1242 30.7244 63.3539L28.3354 63.7634V58.4632ZM32.3185 76.8625C33.6446 76.6343 34.1741 76.3813 34.9716 75.7134L34.9702 75.7123C35.7642 75.0395 36.0325 74.1971 36.0325 73.3027C36.0325 72.3514 35.7644 71.5962 34.9716 71.2067C34.1744 70.8151 33.6446 70.8011 32.3185 71.0347L28.3362 71.7179V77.5479L32.3185 76.8625Z" fill="white"/>
<path fill-rule="evenodd" clip-rule="evenodd" d="M117.188 34.4584L116.029 34.6578V66.2788L105.024 36.5587L91.7538 38.8546L80.6866 72.5516L75.3047 64.3932L75.3313 64.3727C76.9471 63.1263 81.4047 59.6878 81.4047 52.309C81.4047 48.3319 79.5499 45.4715 76.8976 44.0724C74.2392 42.6731 70.79 42.482 66.2807 43.2544L50.3591 46.0108V82.5961L62.3523 80.5204V68.3271L63.8936 68.0588L69.7327 79.2472L79.0179 77.6329L83.5286 76.8539L91.4885 75.4834L92.8697 70.0998L103.326 68.2965L104.76 73.1924L116.028 71.2439V71.2488L128.023 69.1726V32.5791L117.188 34.4469V34.4524L117.188 34.4584ZM67.9805 57.699C67.505 58.1607 66.6544 58.5712 65.3296 58.7963L62.3033 59.322V52.9568L65.3296 52.4398C66.6544 52.209 67.4516 52.3321 67.9805 52.6666L68.0037 52.6787C68.5358 52.9554 69.3083 53.3573 69.3083 54.934C69.3083 56.5166 68.5619 57.1814 67.9817 57.6982L67.9805 57.6992V57.699ZM98.1217 50.2129L95.4179 60.4858L95.4163 60.4869L100.831 59.5515L98.1217 50.2129Z" fill="white"/>
<path fill-rule="evenodd" clip-rule="evenodd" d="M155.44 41.617C155.44 44.2676 155.706 48.2008 155.706 48.2008L145.091 29.6204L132.089 31.8687V68.4539L143.765 66.4351V52.65C143.765 50.001 143.502 46.0679 143.502 46.0679L154.646 64.552L167.113 62.397V25.8145L155.44 27.8294V41.6145V41.617Z" fill="white"/>
<path fill-rule="evenodd" clip-rule="evenodd" d="M211.251 18.1538L205.778 31.4449L200.369 20.0342L187.102 22.329L199.785 42.3964V46.9067L183.121 49.7923V23.0122L171.182 25.0816V61.66L199.785 56.7122L209.874 54.9753L211.779 54.6362V40.3232L224.51 15.8604L211.251 18.1538Z" fill="white"/>
<path d="M196.445 74.0738C196.445 93.6944 213.651 108.623 232.561 105.414L234.022 105.168C241.278 103.94 247.873 100.115 252.63 94.3756C257.388 88.6359 260 81.3539 260 73.8273C260 54.1561 242.699 39.2146 223.763 42.5058L222.302 42.7588C215.071 44.0122 208.507 47.8453 203.774 53.5785C199.04 59.3117 196.445 66.5748 196.445 74.0802" fill="#4FB3F6"/>
<path d="M233.056 76.6066L246.167 74.357V64.86L233.056 67.1063V53.6504L224.003 55.2041V68.6601L210.889 70.9096V80.4066L224.003 78.1571V93.4368L233.056 91.8831V76.6066Z" fill="black"/>
</svg>
