<svg xmlns="http://www.w3.org/2000/svg" viewBox="0 0 1021.1 525.2">
  <polygon
    points="1021.1 280.6 1021.1 454.1 650.3 517.6 606 525.2 606 351.7 650.3 344.2 1021.1 280.6"
    fill="#53cf92"
  />
  <path
    d="M691.4,371.7l-44.9,8.2v98.5l29.4-5.1V442.4l15.5-3.2c22.7-3.9,35-21.3,35-39.6S714.1,367.8,691.4,371.7Zm-2.9,43.4h0l-12.6,2V399l12.6-2.1c4.9-.8,8.9,2.9,8.9,8.2A10.4,10.4,0,0,1,688.5,415.1Z"
    fill="#fff"
  />
  <polygon
    points="763.8 359.7 734.4 364.8 734.4 463.3 800.6 451.9 800.6 425.9 763.8 432.3 763.8 359.7"
    fill="#fff"
  />
  <path
    d="M948.1,362.3c-8.2-.2-14.3-.3-14.3-3.4s1.6-4.7,7.4-5.7c9.2-1.6,20.1-.2,28.6,4.8l15.7-23.8c-11.1-7.3-25.4-9.4-41.2-6.7-26.7,4.6-40.4,22.9-40.4,39.6,0,26.2,24.5,26.1,40.5,26.3,7.9,0,13.7,0,13.7,3.1s-5.2,6.2-10.8,7.2c-13.1,2.2-24-1.5-31.3-7.3l-15.3,24.7c10.4,7.7,24.5,11.5,45.2,8,26-4.5,41.9-19.8,41.9-41.5C987.8,363.3,964.1,362.7,948.1,362.3Z"
    fill="#fff"
  />
  <path
    d="M868,387.3v12.9c0,9-5.9,17.2-17.1,19.1s-16.9-3.9-17.3-12.4V347.8l-28.3,4.9V412a14.8,14.8,0,0,0,.1,2.1c.1,1,.1,2,.2,3,2,20.1,16.6,32.1,45.4,27.2,22.8-3.9,36.6-15.3,42.3-30.2a46.3,46.3,0,0,0,2.9-11.8,4.3,4.3,0,0,0,.1-.5V337.1L868,341.9Z"
    fill="#fff"
  />
  <polygon
    points="0 174.7 1021.1 0 1021.1 280.6 0 455.4 0 174.7"
    fill-rule="evenodd"
  />
  <path
    d="M178.1,282.2h0c10.4-5.9,22.3-20.7,22.3-39.1s-11.9-27.8-23.4-30.4-26.5-1.2-40.3,1.2L56.1,227.7v37.5l15-2.5v83.8l-15,2.5v37.5l93.3-16c14.9-2.6,31-8.8,41.4-17.5s17.7-20.4,17.7-38.8S196.5,284.1,178.1,282.2Zm-55.2-28.4,10.3-1.8c5.8-1,8.1-1.4,11.6.3s4.6,4.3,4.6,8.4a11.8,11.8,0,0,1-4.6,9.8c-3.5,2.9-5.8,3.5-11.6,4.5l-10.3,1.8Zm28.8,74.9h0c-3.5,2.9-5.8,4-11.5,5l-17.3,2.9V311.3l17.3-2.9c5.7-1.1,8-1,11.5.7s4.6,5,4.6,9.1A13.2,13.2,0,0,1,151.7,328.7Z"
    fill="#fff"
    fill-rule="evenodd"
  />
  <path
    d="M508.2,149.6h0l-5,.9V287.7l-47.7-129-57.6,10-48,146.2-23.3-35.4c6.9-5.3,26.4-20.2,26.4-52.4,0-17.3-8-29.7-19.5-35.8s-26.5-6.9-46.1-3.5l-69,11.9V358.5l52-9V296.6l6.7-1.2L302.4,344l40.3-7,19.5-3.4,34.6-5.9,6-23.4,45.3-7.8,6.2,21.2,48.9-8.4h0l52-9V141.4l-47,8.1ZM294.8,250.5h0c-2,2-5.7,3.8-11.5,4.7l-13.1,2.3V229.9l13.1-2.3c5.8-1,9.2-.4,11.5,1s5.8,2.9,5.8,9.9S297.3,248.2,294.8,250.5Zm119,12.1h0L425.5,218l11.8,40.5Z"
    fill="#fff"
    fill-rule="evenodd"
  />
  <path
    d="M674.1,180.6h0c0,11.5,1.2,28.5,1.2,28.5l-46.1-80.6-56.4,9.7V297.2l50.7-8.8V228.6c0-11.5-1.2-28.6-1.2-28.6l48.4,80.2,54-9.3V112.1l-50.6,8.7Z"
    fill="#fff"
    fill-rule="evenodd"
  />
  <polygon
    points="916.1 78.8 892.4 136.5 869 87 811.4 96.9 866.4 184 866.4 203.6 794.2 216.1 794.2 99.9 742.4 108.9 742.4 267.7 866.4 246.2 910.2 238.6 918.4 237.2 918.4 175 973.6 68.9 916.1 78.8"
    fill="#fff"
    fill-rule="evenodd"
  />
</svg>
