<svg viewBox="0 0 199 81" fill="none" xmlns="http://www.w3.org/2000/svg">
<path fill-rule="evenodd" clip-rule="evenodd" d="M0 80.2519V30.9772L180.27 0V49.454L177.436 49.9382V41.3869L170.508 42.5715V51.1219L0 80.2519ZM35.4722 42.8429C35.4722 46.0964 33.3557 48.6861 31.5214 49.7302C34.7886 50.0597 36.9027 52.1334 36.9027 55.3772C36.9027 58.621 35.589 60.6632 33.7596 62.1991C31.9301 63.735 29.0814 64.8324 26.4321 65.2854L9.92578 68.115V61.5038L12.5848 61.075V46.312L9.92578 46.7553V40.132L24.1915 37.6877C26.6364 37.271 29.2784 37.0166 31.3171 37.4769C33.3557 37.9372 35.4722 39.5894 35.4722 42.8429ZM23.5809 44.4054L21.7466 44.7228V48.7757L23.5809 48.4632C24.6002 48.2888 25.0065 48.1773 25.6171 47.671C25.8825 47.4702 26.0952 47.2085 26.2371 46.9081C26.379 46.6078 26.4459 46.2778 26.4321 45.9462C26.4321 45.217 26.2277 44.7639 25.6171 44.4636C25.0065 44.1632 24.6002 44.231 23.5809 44.4054ZM24.8046 58.7978C25.8215 58.6234 26.2277 58.4296 26.8408 57.9184C27.1104 57.6943 27.3248 57.4115 27.4673 57.0919C27.6099 56.7723 27.6769 56.4243 27.6631 56.0749C27.6631 55.3481 27.4636 54.7691 26.8505 54.4711C26.2375 54.1731 25.8312 54.161 24.8143 54.3403L21.7466 54.8636V59.3211L24.8046 58.7978ZM89.9393 26.3598L89.0489 26.5125V50.7041L80.6024 27.966L70.4188 29.7223L61.9261 55.5007L57.7904 49.2602L57.821 49.2366C59.0639 48.2766 62.471 45.6448 62.471 40.0158C62.471 36.9755 61.0478 34.7855 59.0116 33.7171C56.9754 32.6488 54.3237 32.5059 50.8643 33.0921L38.6445 35.1997V63.1851L47.8477 61.5959V52.269L49.0324 52.0631L53.5209 60.622L60.6464 59.3865L64.1083 58.7906L70.2169 57.744L71.2776 53.6257L79.3057 52.2448L80.4053 55.9901L89.0392 54.5075L98.2448 52.9183V24.9281L89.9296 26.3574L89.9393 26.3598ZM52.1707 44.139C51.8058 44.4926 51.1538 44.8076 50.1369 44.9796L47.8136 45.3817V40.5124L50.1369 40.1175C51.1538 39.9407 51.7668 40.0351 52.1707 40.2895L52.1877 40.2983C52.5984 40.5111 53.19 40.8175 53.19 42.0241C53.19 43.2399 52.6254 43.7379 52.179 44.1316L52.1707 44.139ZM73.2262 46.2708L75.3038 38.412L77.3814 45.5562L73.2262 46.2708ZM119.5 36.8737C119.5 36.8737 119.295 33.8649 119.295 31.8372V21.2894L128.255 19.7487V47.7244L118.689 49.3814L110.136 35.2433C110.136 35.2433 110.338 38.2497 110.338 40.2774V50.8228L101.378 52.366V24.3806L111.352 22.6606L119.5 36.8737ZM162.129 13.8861L157.928 24.0559L153.777 15.3275L143.594 17.0814L153.33 32.4331V35.8829L140.541 38.0898V17.6047L131.376 19.1866V47.1695L153.33 43.3831L161.071 42.0555L162.533 41.7963V30.8464L172.305 12.1346L162.129 13.8861Z" fill="white"/>
<path fill-rule="evenodd" clip-rule="evenodd" d="M177.392 80.6662C162.501 83.1251 148.951 71.6858 148.951 56.6514C148.952 50.902 150.996 45.3386 154.723 40.9467C158.45 36.5536 163.619 33.6165 169.313 32.656L170.464 32.4622C185.376 29.9403 199 41.3893 199 56.4625C199 62.2298 196.943 67.8097 193.196 72.2078C189.45 76.6059 184.257 79.5365 178.543 80.4773L177.392 80.6662ZM187.471 57.1747L177.436 58.8899V70.5375L170.508 71.7221V60.0721L160.47 61.7872V54.5462L170.508 52.831V42.5715L177.436 41.3869V51.6464L187.471 49.9337V57.1747Z" fill="#4FB3F6"/>
</svg>
