<svg viewBox="0 0 154 82" fill="none" xmlns="http://www.w3.org/2000/svg">
<path d="M48.61 38.92C44.8 39.55 42.34 42.75 42.34 46.76C42.34 50.77 44.8 53.15 48.61 52.51C52.42 51.88 54.84 48.69 54.84 44.68C54.84 40.67 52.42 38.28 48.61 38.92Z" fill="white"/>
<path d="M81.96 35.06C81.11 34.36 79.63 33.97 77.51 34.32L75.31 34.69V47.99L77.51 47.62C79.63 47.27 81.12 46.39 81.96 45.4C82.81 44.42 83.66 43.01 83.66 40.05C83.66 37.09 82.85 35.75 81.96 35.05V35.06Z" fill="white"/>
<path fill-rule="evenodd" clip-rule="evenodd" d="M0 81.92V26.8L154 1V56.12L0 81.92ZM10.26 66.83L31.45 63.31H31.44V55.71L19.79 57.65V54.27L30.38 52.51V45.04L19.79 46.8V43.63L31.02 41.76V34.25L10.26 37.7V66.83ZM32.72 48.58C32.72 58.08 39.5 62.48 48.61 60.96V60.97C57.72 59.45 64.5 52.8 64.5 43.3C64.5 33.8 57.72 29.35 48.61 30.87C39.5 32.38 32.72 39.08 32.72 48.58ZM76.79 55.76C81.88 54.92 85.69 53.23 88.44 50.66C91.19 48.09 93.31 44.36 93.31 38.45C93.31 32.54 91.19 29.51 88.44 27.86C85.69 26.2 81.88 25.78 76.79 26.63L65.77 28.47V57.6L76.79 55.76ZM123.39 48.01L132.72 46.46H132.71L143.73 15.5L133.56 17.19L128.05 34.99L122.54 19.02L95 23.6V52.75L116.18 49.22V41.62L104.53 43.56V40.18L115.12 38.42V30.95L104.53 32.71V29.54L115.21 27.76L123.39 48.01Z" fill="white"/>
</svg>
