<?xml version="1.0" encoding="UTF-8" standalone="no"?>
<svg xmlns="http://www.w3.org/2000/svg" height="134" width="255" preserveAspectRatio="xMidYMid" xmlns:xlink="http://www.w3.org/1999/xlink" viewBox="0 0 255 134">
 <defs>
  <style>.cls-1 {
        fill: #000;
      }
      .cls-1, .cls-2 {
        fill-rule: evenodd;
      }
      .cls-2 {
        fill: #fff;
      }</style>
 </defs>
 <path d="m255 91.273l-255 42.727 0.001-91.274 255-42.73v91.277z" class="cls-1"/>
 <path d="m219.76 75.263l-15.44 2.572-13.54-33.539-17.68 2.944v5.242l17.54-2.92v12.374l-17.54 2.918v5.591l19.29-3.207v12.579l-35.07 5.839v-48.232l28.76-4.785v-0.001l16.84-2.804 9.12 26.445 9.12-29.479 16.84-2.802-18.24 51.265zm-92.61 15.41l-18.24 3.04v-48.231l18.24-3.04c8.42-1.4 14.73-0.704 19.29 2.034 4.56 2.735 8.07 7.745 8.07 17.533 0 9.784-3.51 15.96-8.07 20.213-4.56 4.252-10.87 7.051-19.29 8.451zm8.56-34.275c-1.4-1.167-3.86-1.808-7.37-1.224l-3.65 0.608v22.019l3.65-0.607c3.51-0.583 5.97-2.041 7.37-3.671s2.81-3.961 2.81-8.854c0-4.892-1.34-7.116-2.81-8.271zm-55.214 42.879c-15.086 2.513-26.311-4.774-26.311-20.505 0-15.729 11.225-26.822 26.311-29.332 15.083-2.511 26.304 4.849 26.304 20.576 0 15.729-11.221 26.749-26.304 29.261zm0-36.489c-6.314 1.051-10.384 6.344-10.384 12.984s4.07 10.575 10.384 9.523c6.315-1.05 10.314-6.327 10.314-12.967 0-6.642-3.999-10.592-10.314-9.54zm-63.495-2.017l34.38-5.719v12.441l-18.592 3.094v5.242l17.541-2.917v12.371l-17.541 2.921v5.591l19.293-3.21v12.585l-35.081 5.83v-48.229z" class="cls-2"/>
</svg>
