<svg viewBox="0 0 217 81" fill="none" xmlns="http://www.w3.org/2000/svg">
<path d="M39.2 51.89C39.2 48.82 41.07 46.38 43.97 45.89C46.88 45.41 48.71 47.23 48.71 50.3C48.71 53.37 46.87 55.8 43.97 56.29C41.07 56.77 39.2 54.96 39.2 51.89Z" fill="white"/>
<path d="M89.71 39.2001C89.05 38.6501 87.89 38.34 86.24 38.6201L84.52 38.9101V49.34L86.24 49.05C87.89 48.7701 89.05 48.0801 89.71 47.3101C90.37 46.5401 91.03 45.4301 91.03 43.1101C91.03 40.7901 90.4 39.7401 89.71 39.2001Z" fill="white"/>
<path d="M146.23 27.73C143.28 28.22 141.38 30.71 141.38 33.84C141.38 36.97 143.29 38.81 146.23 38.32C149.18 37.83 151.05 35.34 151.05 32.22C151.05 29.1 149.18 27.24 146.23 27.74V27.73Z" fill="white"/>
<path d="M180.4 21.94C180.07 21.73 179.57 21.65 178.75 21.8L176.87 22.12V26.1L178.75 25.77C179.57 25.63 180.1 25.37 180.4 25.08C180.76 24.76 181.23 24.34 181.23 23.35C181.23 22.3693 180.749 22.1148 180.41 21.9351L180.4 21.93V21.94Z" fill="white"/>
<path fill-rule="evenodd" clip-rule="evenodd" d="M59.08 27.28V27.25L217 0V43.5L157.92 53.63V53.72L0 80.81V37.47L59.08 27.28ZM22.96 66.36L30.72 65.04V42.2L23.45 43.44V56.21L17.01 44.54L8.92 45.92V68.76L16.19 67.52V54.85L22.96 66.36ZM31.89 53.27C31.89 60.54 37.04 63.9 43.97 62.74V62.73C50.89 61.57 56.05 56.48 56.05 49.22C56.05 41.96 50.9 38.56 43.97 39.72C37.04 40.88 31.89 46 31.89 53.27ZM56.49 53.11C56.64 58.13 60.02 60.08 66.35 58.96V58.95C72.36 57.89 75.62 53.86 75.62 49.69C75.62 44.7 72.49 43.81 66.85 44.21C64.38 44.33 63.72 43.95 63.72 42.88C63.72 41.91 64.47 41.12 65.94 40.86C67.44 40.59 68.22 41.24 68.38 42.59L74.96 41.43C74.58 36.6 71.48 34.89 65.94 35.87C60.36 36.86 56.98 40.47 56.98 44.61C56.98 49.22 59.17 50.72 65.62 50.3C68.04 50.22 68.82 50.46 68.82 51.65C68.82 52.75 68.01 53.65 66.35 53.94C64.03 54.35 63.34 53.31 63.22 51.92L56.49 53.11ZM85.67 55.42C89.64 54.76 92.61 53.43 94.76 51.42C96.91 49.41 98.56 46.48 98.56 41.85C98.56 37.22 96.91 34.84 94.76 33.55C92.61 32.25 89.64 31.92 85.67 32.58L77.08 34.02V56.86L85.67 55.42ZM133.92 35.24C133.92 42.64 139.17 46.06 146.22 44.88H146.2C153.26 43.7 158.5 38.51 158.5 31.12C158.5 23.73 153.25 20.27 146.2 21.45C141.76 22.19 138.04 24.53 135.89 28.01L137.41 23.72L129.54 25.04L125.28 38.9L121.02 26.47L113.15 27.79L99.71 30.06V52.9L116.11 50.13V44.17L107.09 45.69V43.04L115.29 41.66V35.8L107.09 37.18V34.7L115.37 33.3L121.68 49.03L128.9 47.82L134.05 33.26C133.96 33.9 133.92 34.56 133.92 35.24ZM160.22 42.22L167.47 40.98V18.19L160.22 19.43V42.22ZM177.86 31.56L181.49 38.55L181.51 38.56L190.09 37.06L184.97 29.27L184.994 29.2515C186.004 28.4661 188.76 26.3234 188.76 21.72C188.76 19.23 187.61 17.44 185.96 16.57C184.3 15.7 182.15 15.58 179.35 16.06L169.44 17.78V40.65L176.9 39.35V31.73L177.86 31.56ZM188.95 29.76C189.1 34.78 192.48 36.73 198.81 35.61L198.82 35.6C204.83 34.54 208.09 30.51 208.09 26.34C208.09 21.35 204.96 20.46 199.32 20.86C196.85 20.98 196.19 20.6 196.19 19.53C196.19 18.56 196.94 17.77 198.41 17.51C199.91 17.24 200.69 17.89 200.85 19.24L207.42 18.08C207.04 13.25 203.94 11.54 198.4 12.52C192.83 13.51 189.45 17.12 189.45 21.26C189.45 25.87 191.64 27.37 198.09 26.95C200.5 26.87 201.28 27.11 201.28 28.3C201.28 29.4 200.47 30.3 198.81 30.59C196.5 31 195.81 29.96 195.68 28.57L188.95 29.76Z" fill="white"/>
</svg>
