<?xml version="1.0" encoding="UTF-8" standalone="no"?>
<svg xmlns="http://www.w3.org/2000/svg" height="308" width="827" preserveAspectRatio="xMidYMid" xmlns:xlink="http://www.w3.org/1999/xlink" viewBox="0 0 827 308">
 <defs>
  <style>.cls-1 {
        fill: #000;
      }
      .cls-1, .cls-2 {
        fill-rule: evenodd;
      }
      .cls-2 {
        fill: #fff;
      }</style>
 </defs>
 <path d="m827-0.001l-601.83 103.85v0.1l-225.17 38.86v165.19l601.83-103.24v-0.34l225.17-38.62v-165.8z" class="cls-1"/>
 <path d="m756.13 66.747c-5.61 0.991-8.48 4.009-8.48 7.715 0 4.066 2.51 5.537 11.94 5.067 21.48-1.524 33.41 1.869 33.41 20.881 0 15.91-12.41 31.25-35.32 35.3-24.11 4.26-37-3.15-37.59-22.3l25.65-4.53c0.48 5.3 3.11 9.26 11.94 7.7 6.32-1.12 9.42-4.54 9.42-8.72 0-4.55-2.98-5.46-12.17-5.15-24.58 1.59-32.93-4.103-32.93-21.681 0-15.785 12.89-29.542 34.13-33.295 21.12-3.732 32.93 2.791 34.36 21.192l-25.05 4.428c-0.6-5.156-3.59-7.619-9.31-6.607zm-38.47 64.243l6.74 10.24-10.7 1.86-22.01 3.84-13.85-26.64-3.65 0.63v29.04l-28.44 4.95v-87.132l37.75-6.564c10.69-1.84 18.87-1.384 25.18 1.948 6.28 3.333 10.68 10.145 10.68 19.617 0 17.671-10.68 25.851-14.46 28.781l12.76 19.43zm-30.13-47.36c-1.25-0.797-3.15-1.09-6.29-0.54l-7.17 1.231v15.159l7.17-1.252c3.14-0.536 5.16-1.514 6.29-2.613 1.37-1.233 3.15-2.811 3.15-6.585 0-3.81-1.89-4.74-3.15-5.4zm-76.89-9.568l27.63-4.709v86.857l-27.63 4.71v-86.858zm-53.36 97.008c-26.87 4.5-46.87-8.55-46.87-36.74 0-2.58 0.17-5.09 0.5-7.53l-19.64 55.49-27.5 4.61-24.05-59.93-31.56 5.32v9.47l31.24-5.27v22.34l-31.24 5.27v10.1l34.37-5.8v22.72l-62.49 10.54v-87.09l51.24-8.64-0.01-0.01 30-5.03 16.25 47.39 16.25-52.825 30-5.022-5.78 16.337c8.2-13.245 22.38-22.169 39.29-24.999 26.88-4.499 46.87 8.689 46.87 36.869 0 28.19-19.99 47.93-46.87 52.43zm0-65.38c-11.24 1.88-18.5 11.37-18.5 23.27 0 11.89 7.26 18.94 18.5 17.06 11.25-1.88 18.38-11.34 18.38-23.24s-7.13-18.98-18.38-17.09zm-230.76 105.55l-32.73 5.49v-87.06l32.73-5.49c15.12-2.52 26.45-1.27 34.63 3.68 8.19 4.93 14.48 13.98 14.48 31.64s-6.29 28.81-14.48 36.49c-8.18 7.67-19.51 12.73-34.63 15.25zm15.37-61.86c-2.52-2.11-6.93-3.27-13.22-2.22l-6.55 1.1v39.75l6.55-1.1c6.29-1.05 10.7-3.68 13.22-6.62 2.52-2.95 5.04-7.15 5.04-15.99 0-8.82-2.4-12.84-5.04-14.92zm-87.11 19.16c21.48-1.53 33.41 1.87 33.41 20.88 0 15.9-12.41 31.25-35.32 35.3-24.11 4.26-36.99-3.15-37.59-22.3l25.66-4.53c0.47 5.3 3.1 9.26 11.93 7.7 6.32-1.12 9.43-4.54 9.43-8.73 0-4.54-2.99-5.45-12.18-5.14-24.58 1.59-32.93-4.1-32.93-21.68 0-15.79 12.89-29.54 34.13-33.3 21.12-3.73 32.93 2.79 34.37 21.2l-25.06 4.42c-0.6-5.15-3.58-7.62-9.31-6.6-5.61 0.99-8.47 4-8.47 7.71 0 4.07 2.5 5.54 11.93 5.07zm-87.2 70.57c-26.4 4.42-46.04-8.4-46.04-36.09s19.64-47.22 46.04-51.63c26.4-4.42 46.05 8.53 46.05 36.22 0 27.68-19.65 47.08-46.05 51.5zm0-64.23c-11.05 1.85-18.17 11.17-18.17 22.86 0 11.68 7.12 18.61 18.17 16.76 11.06-1.85 18.05-11.14 18.05-22.82 0-11.7-6.99-18.65-18.05-16.8zm-105.89 34.14v15.47 32.8l-27.694 4.71v-87.04l30.841-5.25 24.547 44.49v-15.87-32.8l27.692-4.72v87.05l-29.579 5.03-25.807-43.87z" class="cls-2"/>
</svg>
