<?xml version="1.0" encoding="UTF-8" standalone="no"?>
<svg xmlns="http://www.w3.org/2000/svg" height="149" width="324" preserveAspectRatio="xMidYMid" xmlns:xlink="http://www.w3.org/1999/xlink" viewBox="0 0 324 149">
 <defs>
  <style>.cls-1 {
        fill: #000;
      }
      .cls-1, .cls-2 {
        fill-rule: evenodd;
      }
      .cls-2 {
        fill: #fff;
      }</style>
 </defs>
 <path d="m324 93.845l-324 55.155 0.001-93.849 324-55.149v93.843z" class="cls-1"/>
 <path d="m296 63.479v12.918l-35.83 6.099v-49.521l35.11-5.973v12.774l-18.99 3.231v5.382l17.92-3.049v12.702l-17.92 3.05v5.742l19.71-3.355zm-71.66-2.345v8.797 18.66l-13.61 2.315v0.002l-17.56 2.988-1.93-6.634-14.12 2.402-1.86 7.278-16.84 2.865 17.2-52.446 17.91-3.049 15.05 40.765v-43.322l17.55-2.989 13.98 25.31v-9.028-18.658l15.76-2.685v49.521l-16.84 2.865-14.69-24.957zm-40.13 1.63l-3.65 13.9 7.31-1.246-3.66-12.654zm-50.15 41.196l-15.77 2.68-17.55 2.98-1.94-6.63-14.119 2.4-1.862 7.28-11.462 1.95-43.357 7.38v-11.49l21.498-28.773-20.781 3.536v-12.918l41.565-7.071v11.124l-21.5 28.772 21.809-3.71 12.585-38.381 17.914-3.05 14.33 38.822v-41.257l18.64-3.172c8.59-1.465 15.04-0.766 19.7 2.032 4.66 2.793 8.24 7.926 8.24 17.975 0 10.047-3.58 16.397-8.24 20.78-4.66 4.38-11.11 7.271-19.7 8.741zm-42.283-25.468l-3.656 13.898 7.311-1.242-3.655-12.656zm51.023-9.756c-1.44-1.195-3.94-1.845-7.53-1.234l-3.72 0.632v22.61l3.72-0.636c3.59-0.608 6.09-2.111 7.53-3.791 1.43-1.68 2.86-4.076 2.86-9.1 0-5.022-1.36-7.302-2.86-8.481z" class="cls-2"/>
</svg>
