<svg xmlns="http://www.w3.org/2000/svg" viewBox="1.59 0 66.58 36"><defs><style>.a{fill:#fff;}.b{fill:#231f20;}</style></defs><path class="b" d="M1.59,11.47V29.72L68.16,18.32V0"/><path class="a" d="M13.23,18.42a3.06,3.06,0,0,0,1.46-2.55,1.93,1.93,0,0,0-1.53-2,7.26,7.26,0,0,0-2.63.08l-5.27.9v2.45l1-.16v5.47l-1,.16v2.45l6.1-1A6,6,0,0,0,14.05,23a3.07,3.07,0,0,0,1.16-2.53,2,2,0,0,0-2-2.09ZM9.62,16.56l.68-.12c.38-.06.53-.09.75,0a.53.53,0,0,1,.3.55.77.77,0,0,1-.3.64,1.3,1.3,0,0,1-.75.3l-.68.12v-1.5Zm1.88,4.89a1.31,1.31,0,0,1-.75.33L9.62,22V20.32l1.13-.19a1,1,0,0,1,.75,0,.59.59,0,0,1,.3.6.85.85,0,0,1-.3.68ZM34.8,9.76h0l-.33.06v9l-3.12-8.42L27.59,11l-3.14,9.55-1.53-2.31a4.07,4.07,0,0,0,1.73-3.42,2.51,2.51,0,0,0-1.28-2.33,4.71,4.71,0,0,0-3-.23L15.86,13V23.4l3.4-.59V19.36l.44-.08,1.66,3.17L24,22l1.28-.22,2.26-.39.39-1.53,3-.51.41,1.39,3.19-.55h0l3.4-.59V9.23l-3.07.53ZM20.85,16.35a1.41,1.41,0,0,1-.75.31l-.86.15V15l.86-.15a1,1,0,0,1,.75.06.61.61,0,0,1,.38.64.93.93,0,0,1-.38.78Zm7.78.79.77-2.91.77,2.65-1.53.26ZM49,17.68l-3.53.61-3.16-5.24s.07,1.11.07,1.86v3.91L39,19.39V9l3.69-.64,3,5.26s-.08-1.11-.08-1.87V7.88L49,7.31V17.68Zm12.66-6.25v4.06l-.54.1-2.86.49-8.11,1.4V7.11l3.38-.59v7.59l4.72-.82V12l-3.6-5.69,3.76-.65,1.53,3.23,1.55-3.77,3.76-.65"/><path class="b" d="M68.16,20.93,35.88,26.38V36l32.28-5.45"/><path class="a" d="M65.84,27.36v1.33l-3.68.63V24.23l3.68-.61v1.31l-2,.33v.55l2-.34v1.3l-2,.34v.59l2-.34Zm-7.39-.24v2.82L57,30.18l-1.82.31L55,29.8,53.55,30l-.19.75-1.75.29,1.78-5.38,1.86-.31,1.56,4.19V25.13l1.82-.31,1.45,2.6V24.58l1.63-.28v5.08L60,29.68l-1.52-2.56Zm-4.16.17-.38,1.43.76-.13-.38-1.3Zm-5.2,4.23-1.63.28-1.82.31-.2-.68L44,31.66l-.19.75-1.19.2-4.49.76V32.19l2.23-3-2.23.38V28.29l4.38-.74v1.14l-2.23,3,2.26-.38,1.3-3.94L45.67,27l1.49,4V26.76l1.93-.33a3,3,0,0,1,2,.21A1.93,1.93,0,0,1,52,28.49a2.74,2.74,0,0,1-.85,2.13,3.84,3.84,0,0,1-2,.9ZM44.71,28.9l-.38,1.43.76-.13-.38-1.3Zm5.29-1a1,1,0,0,0-.78-.13l-.39.06v2.32l.39-.07a1.19,1.19,0,0,0,1.08-1.32,1,1,0,0,0-.3-.87Z"/></svg>