<svg viewBox="0 0 32 32" fill="none" xmlns="http://www.w3.org/2000/svg">
<path fill-rule="evenodd" clip-rule="evenodd" d="M0 5.6V32L32 26.5V0L0 5.6ZM15.9 24.1C12.6 24.7 10.4 23.8 9.6 22.6L11.8 19.1C12.8 20.2 14.6 20.3 15.7 20.2C16.7 20 17.7 19.3 17.7 18.4C17.7 17.5 17 17.1 16 17.3L14.4 17.6V14.2L16 13.9C16.8 13.8 17.4 13.3 17.4 12.5C17.4 11.7 16.7 11.5 15.8 11.6C14.4 11.9 13.1 12.5 12.1 13.5L10.4 10.5C11.5 9.5 13.1 8.3 16.2 7.8C19.3 7.3 22.2 8.4 22.2 11.1C22.3 12.6 21.5 14 20.2 14.8C21.7 15 22.7 16.2 22.7 17.9C22.5 21.4 19.2 23.6 15.9 24.1Z" fill="white"/>
</svg>
