<svg xmlns="http://www.w3.org/2000/svg" viewBox="0 0 104 104">
  <title>znanija logo</title>
  <path d="M-.001 18.145v85.856l104.002-17.818V-.001z"/>
  <path fill="#fff" d="M51.642 78.433c-10.681 1.843-17.753-1.111-20.626-4.714l6.998-11.272c3.315 3.529 9.208 4.001 12.523 3.432 3.314-.571 6.41-2.969 6.41-5.949 0-2.984-2.358-4.066-5.674-3.495l-5.156.886V46.142l5.156-.888c2.578-.445 4.42-1.88 4.42-4.489s-2.209-3.347-5.156-2.839a25.12734 25.12734 0 0 0-12.157 6.198l-5.523-9.857c3.682-3.244 8.838-7.116 18.935-8.855 10.165-1.753 19.518 1.852 19.518 10.797a13.34216 13.34216 0 0 1-6.407 11.911c4.787.664 8.102 4.567 8.102 10.157 0 11.183-10.68 18.319-21.363 20.156"/>
</svg>
