<svg viewBox="0 0 318 173.69" version="1.1" xmlns="http://www.w3.org/2000/svg" xmlns:xlink="http://www.w3.org/1999/xlink"><defs><style>.cls-1{fill:#fff;}.cls-2{fill:#60D399;}</style></defs><title>znanija plus logo</title><path d="M318,91.86,0,146V54.14L318,0Z"/><path class="cls-1" d="M278.13,77.37V61.15l-2,.35L268.37,79l-18.26,3.13h0l-15.45,2.64V66.47c0-3.52.35-8.87.35-8.87L220.26,87.27l-16.5,2.82V41.44l15.45-2.64V57.13c0,3.52-.35,8.87-.35,8.87l14-29.54,17.2-3V82.16L261,61.83c-2.12-.91-8.08-3.42-8.08-13.29a17.37,17.37,0,0,1,6-13c3.52-3.07,8.08-4.91,14.05-5.93L294,26V74.65Zm.07-36.68-4,.69a6.25,6.25,0,0,0-3.5,1.52,4.26,4.26,0,0,0-1.76,3.61,2.94,2.94,0,0,0,1.76,3.08,5.22,5.22,0,0,0,3.5.25l4-.69ZM183.68,75.55l-13.2,2.26v18L155.17,98.4l-14.25,2.45L139,94.33l-13.84,2.36-1.82,7.16L111.07,106h0L95.2,108.66v-18L82,92.94v18l-15.87,2.71V65L82,62.27V79.9l13.2-2.26V60l15.87-2.71V93.78l12.64-38.64,17.56-3,13.34,36.22V49.85l15.87-2.71V64.76l13.2-2.26V44.88l15.87-2.72V90.82l-15.87,2.71Zm-51.54-5.29-3.58,13.66,7.16-1.23ZM64,99.19c0,10.58-10.19,17.33-20.37,19.06s-16.92-1-19.66-4.45l6.67-10.66c3.16,3.33,8.78,3.78,11.94,3.24s6.11-2.81,6.11-5.63-2.25-3.84-5.41-3.3l-4.92.84V87.71l4.92-.84c2.46-.42,4.21-1.78,4.21-4.25s-2.1-3.16-4.91-2.68A24,24,0,0,0,31,85.8l-5.27-9.32c3.51-3.07,8.43-6.73,18-8.38s18.61,1.76,18.61,10.22A12.59,12.59,0,0,1,56.3,89.58C60.87,90.21,64,93.9,64,99.19Z"/><polygon class="cls-2" points="318 145.47 152.24 173.69 152.24 120.09 318 91.88 318 145.47"/><path class="cls-1" d="M184.86,134.65l-10.11,1.72v20.77l-8.55,1.45V130.38l27.2-4.62V154l-8.54,1.45Z"/><path class="cls-1" d="M201.39,138.61l1.74-14.51,22-3.75v28.21L216.62,150V129.25l-5.8,1-.93,7.56c-1.35,11.36-6.81,15-13.36,16.15v-7.53C198.94,146,200.71,144.09,201.39,138.61Z"/><path class="cls-1" d="M273.54,126.24c0,8.67-6.72,15.74-15.44,17.22-7.57,1.29-13.61-2.12-15.09-8.72l-4.74.8v10.79l-8.54,1.45V119.57l8.54-1.45v10l4.95-.84c1.77-6.65,7.65-11.75,14.88-13C266.82,112.8,273.54,117.57,273.54,126.24Zm-8.67,1.48c0-3.94-2.66-6.61-6.77-5.91a8.2,8.2,0,0,0-6.76,8.21c0,3.93,2.66,6.61,6.76,5.91A8.2,8.2,0,0,0,264.87,127.72Z"/><path class="cls-1" d="M275.06,126c0-8.71,6.69-15.73,15.52-17.23,7.41-1.26,11.13,2.42,12.82,6L296,119.45a4.89,4.89,0,0,0-5.46-3.17,8.29,8.29,0,0,0-6.85,8.23c0,3.93,2.75,6.59,6.85,5.89a7.49,7.49,0,0,0,5.46-5l7.36,2.13a16.58,16.58,0,0,1-12.82,10.43C281.75,139.44,275.06,134.65,275.06,126Z"/></svg>
