<?xml version="1.0" encoding="UTF-8"?>
<svg viewBox="0 0 318 173.69" version="1.1" xmlns="http://www.w3.org/2000/svg" xmlns:xlink="http://www.w3.org/1999/xlink">
    <title>znanija plus logo</title>
<defs>
<style>.cls-1{fill:#fff}</style></defs><path d="M318 91.86L0 146V54.14L318 0z"/><path class="cls-1" d="M278.13 77.37V61.15l-2 .35-7.76 17.5-18.26 3.13-15.45 2.64v-18.3c0-3.52.35-8.87.35-8.87l-14.75 29.67-16.5 2.82V41.44l15.45-2.64v18.33c0 3.52-.35 8.87-.35 8.87l14-29.54 17.2-3v48.7L261 61.83c-2.12-.91-8.08-3.42-8.08-13.29a17.37 17.37 0 0 1 6-13c3.52-3.07 8.08-4.91 14.05-5.93L294 26v48.65zm.07-36.68l-4 .69a6.25 6.25 0 0 0-3.5 1.52 4.26 4.26 0 0 0-1.76 3.61 2.94 2.94 0 0 0 1.76 3.08 5.22 5.22 0 0 0 3.5.25l4-.69zm-94.52 34.86l-13.2 2.26v18l-15.31 2.59-14.25 2.45-1.92-6.52-13.84 2.36-1.82 7.16-12.27 2.15-15.87 2.66v-18L82 92.94v18l-15.87 2.71V65L82 62.27V79.9l13.2-2.26V60l15.87-2.71v36.49l12.64-38.64 17.56-3 13.34 36.22V49.85l15.87-2.71v17.62l13.2-2.26V44.88l15.87-2.72v48.66l-15.87 2.71zm-51.54-5.29l-3.58 13.66 7.16-1.23zM64 99.19c0 10.58-10.19 17.33-20.37 19.06s-16.92-1-19.66-4.45l6.67-10.66c3.16 3.33 8.78 3.78 11.94 3.24s6.11-2.81 6.11-5.63-2.25-3.84-5.41-3.3l-4.92.84V87.71l4.92-.84c2.46-.42 4.21-1.78 4.21-4.25s-2.1-3.16-4.91-2.68A24 24 0 0 0 31 85.8l-5.27-9.32c3.51-3.07 8.43-6.73 18-8.38s18.61 1.76 18.61 10.22a12.59 12.59 0 0 1-6.04 11.26c4.57.63 7.7 4.32 7.7 9.61z"/><path fill="#53cf92" d="M318 145.47l-165.76 28.22v-53.6L318 91.88v53.59z"/><path class="cls-1" d="M184.86 134.65l-10.11 1.72v20.77l-8.55 1.45v-28.21l27.2-4.62V154l-8.54 1.45zM201.39 138.61l1.74-14.51 22-3.75v28.21l-8.51 1.44v-20.75l-5.8 1-.93 7.56c-1.35 11.36-6.81 15-13.36 16.15v-7.53c2.41-.43 4.18-2.34 4.86-7.82zM273.54 126.24c0 8.67-6.72 15.74-15.44 17.22-7.57 1.29-13.61-2.12-15.09-8.72l-4.74.8v10.79l-8.54 1.45v-28.21l8.54-1.45v10l4.95-.84c1.77-6.65 7.65-11.75 14.88-13 8.72-1.48 15.44 3.29 15.44 11.96zm-8.67 1.48c0-3.94-2.66-6.61-6.77-5.91a8.2 8.2 0 0 0-6.76 8.21c0 3.93 2.66 6.61 6.76 5.91a8.2 8.2 0 0 0 6.77-8.21zM275.06 126c0-8.71 6.69-15.73 15.52-17.23 7.41-1.26 11.13 2.42 12.82 6l-7.4 4.68a4.89 4.89 0 0 0-5.46-3.17 8.29 8.29 0 0 0-6.85 8.23c0 3.93 2.75 6.59 6.85 5.89a7.49 7.49 0 0 0 5.46-5l7.36 2.13a16.58 16.58 0 0 1-12.82 10.43c-8.79 1.48-15.48-3.31-15.48-11.96z"/></svg>