<svg id="Layer_1" data-name="Layer 1" xmlns="http://www.w3.org/2000/svg" viewBox="0 0 318 232.41"><defs><style>.cls-1{fill:#fff;}.cls-2{fill:#60D399;}</style></defs><title>znanija-plus-large-white</title><path d="M318,91.86,0,146V54.14L318,0Z"/><path class="cls-1" d="M278.13,77.37V61.15l-2,.35L268.37,79l-18.26,3.13h0l-15.45,2.64V66.47c0-3.52.35-8.87.35-8.87L220.26,87.27l-16.5,2.82V41.44l15.45-2.64V57.13c0,3.52-.35,8.87-.35,8.87l14-29.54,17.2-3V82.16L261,61.83c-2.12-.91-8.08-3.42-8.08-13.29a17.37,17.37,0,0,1,6-13c3.52-3.07,8.08-4.91,14.05-5.93L294,26V74.65Zm.07-36.68-4,.69a6.25,6.25,0,0,0-3.5,1.52,4.26,4.26,0,0,0-1.76,3.61,2.94,2.94,0,0,0,1.76,3.08,5.22,5.22,0,0,0,3.5.25l4-.69ZM183.68,75.55l-13.2,2.26v18L155.17,98.4l-14.25,2.45L139,94.33l-13.84,2.36-1.82,7.16L111.07,106h0L95.2,108.66v-18L82,92.94v18l-15.87,2.71V65L82,62.27V79.9l13.2-2.26V60l15.87-2.71V93.78l12.64-38.64,17.56-3,13.34,36.22V49.85l15.87-2.71V64.76l13.2-2.26V44.88l15.87-2.72V90.82l-15.87,2.71Zm-51.54-5.29-3.58,13.66,7.16-1.23ZM64,99.19c0,10.58-10.19,17.33-20.37,19.06s-16.92-1-19.66-4.45l6.67-10.66c3.16,3.33,8.78,3.78,11.94,3.24s6.11-2.81,6.11-5.63-2.25-3.84-5.41-3.3l-4.92.84V87.71l4.92-.84c2.46-.42,4.21-1.78,4.21-4.25s-2.1-3.16-4.91-2.68A24,24,0,0,0,31,85.8l-5.27-9.32c3.51-3.07,8.43-6.73,18-8.38s18.61,1.76,18.61,10.22A12.59,12.59,0,0,1,56.3,89.58C60.87,90.21,64,93.9,64,99.19Z"/><polygon fill="#60D399" points="318 183.95 33.25 232.41 33.25 140.34 318 91.88 318 183.95"/><path fill="#FFFFFF" d="M89.29,165.36l-17.36,2.95V204l-14.68,2.5V158L104,150.08v48.45L89.29,201Z"/><path fill="#FFFFFF" d="M117.69,172.15l3-24.92,37.85-6.44v48.46l-14.67,2.49V156.07l-10,1.7-1.59,13c-2.33,19.5-11.7,25.82-23,27.74V185.56C113.48,184.85,116.53,181.57,117.69,172.15Z"/><path fill="#FFFFFF" d="M241.63,150.91c0,14.89-11.55,27-26.52,29.58-13,2.21-23.39-3.65-25.93-15L181,166.89v18.52l-14.67,2.5V139.45L181,137V154.1l8.5-1.45c3.05-11.41,13.15-20.18,25.57-22.29C230.08,127.81,241.63,136,241.63,150.91Zm-14.89,2.53c0-6.75-4.58-11.35-11.63-10.15a14.1,14.1,0,0,0-11.62,14.11c0,6.76,4.58,11.35,11.62,10.15A14.1,14.1,0,0,0,226.74,153.44Z"/><path fill="#FFFFFF" d="M244.25,150.46c0-15,11.47-27,26.66-29.6,12.71-2.16,19.1,4.16,22,10.35l-12.64,8a8.39,8.39,0,0,0-9.37-5.46,14.25,14.25,0,0,0-11.77,14.14c0,6.76,4.72,11.33,11.77,10.13,4.36-.74,8.13-4.66,9.37-8.64l12.64,3.66c-2.83,6.94-9.3,15.75-22,17.91C255.72,173.57,244.25,165.36,244.25,150.46Z"/></svg>
