<?xml version="1.0" encoding="UTF-8" standalone="no"?>
<svg xmlns="http://www.w3.org/2000/svg" height="104" width="104" preserveAspectRatio="xMidYMid" xmlns:xlink="http://www.w3.org/1999/xlink" viewBox="0 0 104 104">
 <defs>
  <style>.cls-1 {
        fill: #000;
      }
      .cls-1, .cls-2 {
        fill-rule: evenodd;
      }
      .cls-2 {
        fill: #fff;
      }</style>
 </defs>
 <path d="m-0.001 18.145v85.855l104-17.817v-86.184l-104 18.146z" class="cls-1"/>
 <path d="m51.642 78.433c-10.681 1.843-17.753-1.111-20.626-4.714l6.998-11.272c3.315 3.529 9.208 4.001 12.523 3.432 3.314-0.571 6.41-2.969 6.41-5.949 0-2.984-2.358-4.066-5.674-3.495l-5.156 0.886v-11.179l5.156-0.888c2.578-0.445 4.42-1.88 4.42-4.489s-2.209-3.347-5.156-2.839c-2.946 0.51-7.367 2.014-12.157 6.198l-5.523-9.857c3.682-3.244 8.838-7.116 18.935-8.855 10.165-1.753 19.518 1.852 19.518 10.797 0 5.963-2.725 9.414-6.407 11.911 4.787 0.664 8.102 4.567 8.102 10.157 0 11.183-10.68 18.319-21.363 20.156" class="cls-2"/>
</svg>
