<?xml version="1.0" encoding="UTF-8" standalone="no"?>
<svg xmlns="http://www.w3.org/2000/svg" height="146" width="318" preserveAspectRatio="xMidYMid" xmlns:xlink="http://www.w3.org/1999/xlink" viewBox="0 0 318 146">
 <defs>
  <style>.cls-1 {
        fill: #000;
      }
      .cls-1, .cls-2 {
        fill-rule: evenodd;
      }
      .cls-2 {
        fill: #fff;
      }</style>
 </defs>
 <path d="m318 91.857l-318 54.143 0.001-91.86 318-54.14v91.857z" class="cls-1"/>
 <path d="m278.13 77.369v-16.217l-2.04 0.35-7.72 17.539-18.26 3.124-15.45 2.64v-18.335c0-3.524 0.35-8.87 0.35-8.87l-14.75 29.671-16.5 2.821v-48.65l15.45-2.644v18.333c0 3.524-0.35 8.872-0.35 8.872l14.05-29.546 17.2-2.943v48.647l10.89-20.335c-2.11-0.908-8.08-3.412-8.08-13.283 0-5.288 2.46-9.937 5.97-13.006 3.51-3.07 8.07-4.906 14.04-5.928l21.07-3.606v48.651l-15.87 2.715zm0.07-36.676l-4 0.685c-1.76 0.299-2.81 0.832-3.51 1.518-0.71 0.613-1.76 1.5-1.76 3.613 0 2.115 0.98 2.653 1.76 3.083 0.63 0.388 1.75 0.547 3.51 0.247l4-0.684v-8.462zm-94.52 34.854l-13.2 2.26v17.981l-15.31 2.617-14.25 2.445-1.9-6.521-13.83 2.366-1.83 7.155-12.28 2.1-15.875 2.71v-17.978l-13.202 2.262v17.976l-15.873 2.72v-48.652l15.873-2.714v17.626l13.202-2.261v-17.626l15.875-2.714v36.477l12.63-38.638 17.56-3.006 13.34 36.217v-38.499l15.87-2.713v17.626l13.2-2.259v-17.628l15.87-2.712v48.651l-15.87 2.713v-17.981zm-51.54-5.284l-3.58 13.655 7.16-1.224-3.58-12.431zm-68.114 28.927c0 10.58-10.181 17.33-20.365 19.07-10.182 1.74-16.924-1.06-19.663-4.46l6.671-10.66c3.16 3.33 8.778 3.78 11.938 3.24s6.111-2.81 6.111-5.63c0-2.819-2.248-3.842-5.409-3.302l-4.915 0.837v-10.574l4.915-0.839c2.458-0.421 4.214-1.779 4.214-4.247 0-2.467-2.107-3.165-4.916-2.685-2.808 0.482-7.022 1.905-11.588 5.863l-5.266-9.323c3.51-3.069 8.426-6.732 18.05-8.376 9.691-1.659 18.607 1.751 18.607 10.213 0 5.64-2.598 8.904-6.107 11.265 4.563 0.629 7.723 4.32 7.723 9.608z" class="cls-2"/>
</svg>
