<svg xmlns="http://www.w3.org/2000/svg" id="Layer_1" viewBox="0 0 36 36">
  <style>
    .st0{fill:#FFFFFF;} .st1{fill:#020A1B;}
  </style>
  <title>znanija logo</title>
  <path d="M7 0h22c3.9 0 7 3.1 7 7v22c0 3.9-3.1 7-7 7H7c-3.9 0-7-3.1-7-7V7c0-3.9 3.1-7 7-7z" class="st0"/>
  <path d="M33.3 1.5C34.9 2.8 36 4.8 36 7v21.8L2.7 34.5C1.1 33.3 0 31.2 0 29V7.4l33.3-5.9z" class="st1"/>
  <path d="M17.6 26.5c-3.5.6-5.9-.4-6.9-1.6l2.3-3.7c1.1 1.2 3.1 1.3 4.2 1.1 1.1-.2 2.1-1 2.1-2s-.8-1.4-1.9-1.2l-1.7.3v-3.7l1.7-.3c.9-.1 1.5-.6 1.5-1.5s-.7-1.1-1.7-.9c-1 .2-2.4.7-4 2.1l-1.8-3.3c1.2-1.1 2.9-2.4 6.3-2.9 3.4-.6 6.5.6 6.5 3.6 0 2-.9 3.1-2.1 4 1.6.2 2.7 1.5 2.7 3.4-.1 3.6-3.7 6-7.2 6.6" class="st0"/>
</svg>
