<svg viewBox="0 0 176 81" fill="none" xmlns="http://www.w3.org/2000/svg">
<path d="M71.15 46.45L75.12 45.77L73.13 38.89L71.15 46.45Z" fill="white"/>
<path d="M148.84 25.7451C148.842 26.9095 149.379 27.2097 149.808 27.4492L149.81 27.45C150.16 27.66 150.78 27.75 151.75 27.59L153.96 27.21V22.53L151.75 22.91C150.78 23.08 150.2 23.37 149.81 23.75L149.795 23.7633C149.406 24.1023 148.842 24.5938 148.84 25.7451Z" fill="white"/>
<path fill-rule="evenodd" clip-rule="evenodd" d="M0 80.8V29.96L176 0V50.83L0 80.8ZM13.28 62.98C14.79 64.86 18.52 66.41 24.16 65.45L24.17 65.43C29.81 64.47 35.44 60.74 35.44 54.88C35.44 51.95 33.7 49.91 31.17 49.56C33.11 48.26 34.55 46.45 34.55 43.33C34.55 38.65 29.61 36.76 24.25 37.68C18.92 38.59 16.2 40.62 14.26 42.32L17.17 47.48C19.69 45.28 22.03 44.5 23.58 44.23C25.13 43.97 26.3 44.35 26.3 45.72C26.3 47.09 25.33 47.84 23.97 48.07L21.25 48.53V54.38L23.97 53.92C25.72 53.62 26.96 54.19 26.96 55.75C26.96 57.31 25.33 58.57 23.58 58.87C21.83 59.17 18.72 58.92 16.97 57.08L13.28 62.98ZM101.66 51.76L110.44 50.26L110.45 50.27V23.34L101.67 24.84V34.6L94.36 35.85V26.09L85.58 27.59V48.9L78.2 28.86L68.48 30.52L61.49 51.9V31.71L52.7 33.21V42.97L45.39 44.22V34.46L36.6 35.96V62.89L45.39 61.38V51.43L52.7 50.18V60.13L68.28 57.47L69.29 53.51L76.94 52.2L77.99 55.81L94.35 53.01V43.06L101.66 41.81V51.76ZM153.93 42.82L162.71 41.32L162.72 41.33V14.4L151.06 16.4C147.76 16.96 145.23 17.98 143.29 19.68C141.35 21.38 139.99 23.95 139.99 26.88C139.99 32.32 143.266 33.7198 144.447 34.2245L144.46 34.23L138.438 45.4653L148.53 43.74L152.8 34.03L153.93 33.84V42.82ZM138.43 45.4666V18.56L128.91 20.19L121.13 36.54C121.13 36.54 121.32 33.58 121.32 31.63V21.48L112.77 22.94V49.85L121.9 48.29L130.06 31.87C130.06 31.87 129.87 34.83 129.87 36.78V46.93L138.43 45.4666Z" fill="white"/>
</svg>
