<?xml version="1.0" encoding="utf-8"?><svg xmlns="http://www.w3.org/2000/svg" xmlns:xlink="http://www.w3.org/1999/xlink"><symbol viewBox="0 0 32 32" style="overflow: visible" id="icon-answer">
  <path fill-rule="evenodd" d="M28.6 0H4c-.6 0-1 .4-1 1v30c0 .6.4 1 1 1h24.6c.7 0 1-.4 1-1V1c0-.6-.3-1-1-1zM14.3 24h-4c-.7 0-1-.4-1-1s.3-1 1-1h4c.6 0 1 .4 1 1s-.4 1-1 1zm8.2-5H10.2c-.6 0-1-.4-1-1s.4-1 1-1h12.3c.6 0 1 .4 1 1s-.4 1-1 1zm0-5H10.2c-.6 0-1-.4-1-1s.4-1 1-1h12.3c.6 0 1 .4 1 1s-.4 1-1 1zm0-5H10.2c-.6 0-1-.4-1-1s.4-1 1-1h12.3c.6 0 1 .4 1 1s-.4 1-1 1z"/>
</symbol><symbol preserveAspectRatio="xMidYMid" viewBox="0 0 32 32" style="overflow: visible" id="icon-answered">
 <path d="m29.064 23.266h-26.128c-1.069 0-1.936-0.867-1.936-1.937v-0.002c0-1.069 0.867-1.936 1.936-1.936h26.128c1.069 0 1.936 0.867 1.936 1.936v0.002c0 1.07-0.867 1.937-1.936 1.937zm0-8.235h-12.096c-1.07 0-1.937-0.867-1.937-1.936v-0.002c0-1.07 0.867-1.937 1.937-1.937h12.096c1.069 0 1.936 0.867 1.936 1.937v0.002c0 1.069-0.867 1.936-1.936 1.936zm0-7.75h-6.768c-1.07 0-1.937-0.867-1.937-1.936v-0.002c0-1.07 0.867-1.937 1.937-1.937h6.768c1.069 0 1.936 0.867 1.936 1.937v0.002c0 1.069-0.867 1.936-1.936 1.936zm-19.22 6.839c-0.771 0.981-2.078 1.241-2.918 0.58-0.063-0.049-0.09-0.124-0.144-0.18-0.078-0.045-0.164-0.063-0.237-0.12l-4.568-3.589c-0.841-0.66-0.987-1.878-0.326-2.719s1.878-0.987 2.719-0.326l3.426 2.692 6.679-8.501c0.771-0.981 2.078-1.241 2.919-0.58s0.897 1.992 0.127 2.973l-7.677 9.77zm-6.914 13.021h26.14c1.066 0 1.93 0.864 1.93 1.929 0 1.066-0.864 1.93-1.93 1.93h-26.14c-1.066 0-1.93-0.864-1.93-1.93 0-1.065 0.864-1.929 1.93-1.929z"/>
</symbol><symbol preserveAspectRatio="xMidYMid" viewBox="0 0 32 32" style="overflow: visible" id="icon-arrow_down">
  <path d="M31.644,9.602 C30.847,8.134 29.252,7.734 27.922,8.535 L16.092,17.340 L4.128,8.401 C2.799,7.601 1.204,8.001 0.406,9.468 C-0.391,10.936 0.140,12.804 1.337,13.604 L14.497,23.610 C15.560,24.277 16.889,24.011 17.687,23.210 L30.448,13.738 C31.910,12.804 32.442,11.069 31.644,9.602 Z"/>
</symbol><symbol preserveAspectRatio="xMidYMid" viewBox="0 0 16 32" style="overflow: visible" id="icon-arrow_left">
  <path d="M14.398,0.387 C15.866,1.183 16.266,2.777 15.465,4.105 L6.660,15.924 L15.599,27.876 C16.399,29.204 15.999,30.797 14.532,31.594 C13.064,32.391 11.196,31.860 10.396,30.665 L0.390,17.518 C-0.277,16.455 -0.011,15.127 0.790,14.330 L10.262,1.582 C11.196,0.121 12.931,-0.410 14.398,0.387 Z"/>
</symbol><symbol preserveAspectRatio="xMidYMid" viewBox="0 0 16 32" style="overflow: visible" id="icon-arrow_right">
  <path d="M1.602,0.387 C0.134,1.183 -0.266,2.777 0.535,4.105 L9.340,15.924 L0.401,27.876 C-0.399,29.204 0.001,30.797 1.468,31.594 C2.936,32.391 4.804,31.860 5.604,30.665 L15.610,17.518 C16.277,16.455 16.011,15.127 15.210,14.330 L5.738,1.582 C4.804,0.121 3.069,-0.410 1.602,0.387 Z"/>
</symbol><symbol preserveAspectRatio="xMidYMid" viewBox="0 0 32 16" style="overflow: visible" id="icon-arrow_up">
  <path d="M31.613,14.398 C30.817,15.866 29.223,16.266 27.895,15.465 L16.076,6.660 L4.124,15.599 C2.796,16.399 1.203,15.999 0.406,14.532 C-0.391,13.064 0.140,11.196 1.335,10.396 L14.482,0.390 C15.545,-0.277 16.873,-0.011 17.670,0.790 L30.418,10.262 C31.879,11.196 32.410,12.931 31.613,14.398 Z"/>
</symbol><symbol preserveAspectRatio="xMidYMid" viewBox="0 0 32 32" style="overflow: visible" id="icon-attachment">
  <path d="M29.333,15.747 C25.423,19.637 21.657,23.685 17.619,27.431 C14.647,30.187 10.925,30.701 7.257,29.105 C2.961,27.238 0.257,23.891 -0.006,18.958 C-0.161,16.038 1.002,13.565 2.992,11.505 C5.322,9.094 7.704,6.733 10.035,4.323 C10.540,3.801 10.864,3.802 11.356,4.337 C12.698,5.793 12.745,5.389 11.347,6.842 C9.171,9.102 6.955,11.324 4.840,13.643 C2.365,16.356 2.359,21.131 4.929,24.127 C7.396,27.002 11.679,27.829 15.007,25.911 C15.628,25.554 16.190,25.055 16.700,24.541 C20.372,20.841 23.994,17.090 27.693,13.419 C29.585,11.540 29.566,8.725 28.526,7.174 C27.003,4.906 24.488,4.167 22.161,5.312 C21.526,5.624 20.968,6.151 20.457,6.665 C17.511,9.623 14.577,12.595 11.672,15.597 C11.271,16.011 10.923,16.587 10.803,17.145 C10.635,17.933 11.055,18.607 11.790,18.935 C12.470,19.238 13.121,19.143 13.693,18.558 C16.697,15.484 19.719,12.427 22.736,9.365 C23.599,8.488 23.606,8.483 24.432,9.333 C25.717,10.654 25.766,10.355 24.444,11.701 C21.581,14.615 18.714,17.526 15.844,20.433 C14.225,22.073 11.659,22.415 10.042,21.166 C7.734,19.385 7.549,17.163 8.640,14.883 C8.768,14.616 9.003,14.394 9.216,14.179 C12.485,10.852 15.755,7.525 19.034,4.208 C21.312,1.903 25.143,1.237 27.944,2.903 C29.147,3.618 30.921,5.420 31.625,7.357 C32.553,10.627 31.706,13.388 29.333,15.747 Z"/>
</symbol><symbol preserveAspectRatio="xMidYMid" viewBox="0 0 32 32" style="overflow: visible" id="icon-bold">
  <path d="M20.230,32.001 C26.677,32.001 30.000,28.162 30.000,23.317 C30.000,19.335 27.181,16.024 23.554,15.496 C26.728,14.872 29.347,12.137 29.347,8.156 C29.347,3.886 26.073,-0.001 19.677,-0.001 L2.000,-0.001 L2.000,32.001 L20.230,32.001 ZM18.115,12.713 L9.151,12.713 L9.151,5.997 L18.115,5.997 C20.532,5.997 22.044,7.389 22.044,9.356 C22.044,11.419 20.532,12.713 18.115,12.713 ZM18.417,26.003 L9.151,26.003 L9.151,18.711 L18.417,18.711 C21.187,18.711 22.698,20.342 22.698,22.358 C22.698,24.659 21.087,26.003 18.417,26.003 Z"/>
</symbol><symbol preserveAspectRatio="xMidYMid" viewBox="0 0 32 32" style="overflow: visible" id="icon-camera">
	<path d="M28.8,28H3.2C1.4,28,0,26.5,0,24.8V10.5C0,8.7,1.3,7,3,7l5.1,0l3.1-3h9.6l3.1,3h5c1.7,0,3.1,1.7,3.1,3.5v14.3
		C32,26.5,30.6,28,28.8,28z M16,9.5c-4.4,0-8,3.6-8,8.1s3.6,8.1,8,8.1s8-3.6,8-8.1S20.4,9.5,16,9.5z M16,24.3c-3.8,0-6.9-3-6.9-6.8
		s3.1-6.8,6.9-6.8s6.9,3,6.9,6.8S19.8,24.3,16,24.3z M16,11.8c-3.2,0-5.9,2.6-5.9,5.7c0,3.2,2.6,5.7,5.9,5.7s5.9-2.6,5.9-5.7
		C21.9,14.4,19.2,11.8,16,11.8z"/>
</symbol><symbol preserveAspectRatio="xMidYMid" viewBox="0 0 32 32" style="overflow: visible" id="icon-check">
  <path d="M31.293,7.892 L14.900,27.540 L14.009,28.303 C13.296,29.066 12.227,29.256 11.336,28.684 C11.158,28.493 10.980,28.493 10.801,28.303 L9.911,27.540 L0.645,18.383 C-0.246,17.429 -0.246,16.094 0.645,15.140 L1.536,14.377 C2.427,13.424 3.852,13.424 4.921,14.377 L12.583,21.817 L27.373,3.695 C28.263,2.741 29.689,2.741 30.758,3.695 L31.649,4.458 C32.183,5.603 32.183,6.938 31.293,7.892 Z"/>
</symbol><symbol preserveAspectRatio="xMidYMid" viewBox="0 0 32 32" style="overflow: visible" id="icon-comment">
  <path d="M28.041,23.350 C28.257,25.152 28.616,26.427 31.204,28.754 C28.473,29.504 25.598,28.454 23.369,26.202 C21.141,27.103 18.698,27.553 16.038,27.553 C7.198,27.553 0.010,22.075 0.010,15.245 C0.010,8.416 7.198,3.012 16.038,3.012 C24.879,3.012 31.994,8.491 31.994,15.245 C31.994,18.397 30.557,21.174 28.041,23.350 Z"/>
</symbol><symbol viewBox="0 0 32 32" style="overflow: visible" id="icon-counter">
  <path fill-rule="evenodd" d="M16 0C7.2 0 0 7.2 0 16s7.2 16 16 16 16-7.2 16-16S24.8 0 16 0zm9.3 17.3H14.7V6.7h2.6v8h8v2.6z"/>
</symbol><symbol preserveAspectRatio="xMidYMid" viewBox="0 0 32 32" style="overflow: visible" id="icon-equation">
  <path d="M31.984,6.625 L31.984,7.605 L26.608,7.605 L26.608,22.465 C26.608,24.371 27.370,25.325 28.896,25.325 C29.762,25.325 30.613,25.101 31.448,24.654 L31.448,29.054 C31.046,29.304 30.473,29.523 29.726,29.714 C28.979,29.904 28.157,30.000 27.259,30.000 C23.054,30.000 20.951,27.596 20.951,22.789 L20.951,7.605 L11.129,7.605 L11.129,29.502 L5.472,29.502 L5.472,7.605 L-0.000,7.605 L-0.000,6.205 L0.007,6.205 L0.007,4.089 L3.834,2.000 L32.001,2.000 L32.001,6.625 L31.984,6.625 Z"/>
</symbol><symbol preserveAspectRatio="xMidYMid" viewBox="0 0 32 32" style="overflow: visible" id="icon-excellent">
  <path d="M28.435,10.020 C26.403,10.020 24.791,11.583 24.791,13.553 C24.791,14.164 24.931,14.776 25.282,15.251 C25.282,15.251 27.384,17.697 20.937,14.232 C16.873,11.651 18.345,11.243 18.345,11.243 C19.186,10.632 19.676,9.613 19.676,8.526 C19.676,6.556 18.064,4.993 16.032,4.993 C14.000,4.993 12.389,6.556 12.389,8.526 C12.389,9.613 12.949,10.632 13.720,11.243 C13.720,11.243 15.192,11.651 11.127,14.232 C4.681,17.697 6.783,15.251 6.783,15.251 C7.063,14.708 7.274,14.164 7.274,13.553 C7.274,11.583 5.662,10.020 3.630,10.020 C1.598,10.020 -0.014,11.583 -0.014,13.553 C-0.014,15.183 1.107,16.474 2.579,16.950 L5.592,25.306 C5.662,25.781 5.942,26.257 6.363,26.528 L6.363,26.528 C6.433,26.596 6.573,26.664 6.643,26.732 L6.713,26.732 C6.783,26.800 6.923,26.800 6.993,26.868 C7.063,26.868 7.063,26.868 7.133,26.936 C7.204,26.936 7.344,27.004 7.414,27.004 C7.484,27.004 7.554,27.004 7.624,27.004 C7.694,27.004 7.694,27.004 7.764,27.004 L16.102,27.004 L24.161,27.004 C24.231,27.004 24.231,27.004 24.301,27.004 C24.371,27.004 24.441,27.004 24.511,27.004 C24.581,27.004 24.721,26.936 24.791,26.936 C24.861,26.936 24.861,26.936 24.931,26.868 C25.071,26.800 25.141,26.800 25.212,26.732 L25.282,26.732 C25.422,26.664 25.492,26.596 25.562,26.528 L25.562,26.528 C25.912,26.189 26.193,25.781 26.333,25.306 L29.416,16.882 C30.957,16.474 32.008,15.115 32.008,13.485 C32.078,11.583 30.467,10.020 28.435,10.020 Z"/>
</symbol><symbol preserveAspectRatio="xMidYMid" viewBox="0 0 32 32" style="overflow: visible" id="icon-friends">
  <path d="M24.696,24.975 C24.763,24.627 24.830,24.280 24.830,23.932 C24.830,22.680 24.362,21.567 23.492,20.524 C25.500,19.967 27.240,17.950 27.240,17.254 C27.240,17.185 27.240,17.185 27.240,17.115 C30.185,17.811 32.125,19.202 31.992,20.802 C31.992,22.819 28.913,24.488 24.696,24.975 ZM22.421,17.115 C21.149,17.115 20.012,16.559 19.075,15.585 C19.543,14.194 19.811,12.664 19.744,10.994 C19.744,8.699 19.275,6.682 18.405,5.082 C19.409,3.760 20.815,2.995 22.421,2.995 C25.366,2.995 27.775,5.499 27.775,9.812 C27.775,14.124 25.366,17.115 22.421,17.115 ZM11.311,19.550 C7.898,19.550 5.087,16.072 5.087,11.064 C5.087,5.986 7.898,3.065 11.311,3.065 C14.724,3.065 17.535,5.986 17.535,10.994 C17.535,16.072 14.724,19.550 11.311,19.550 ZM5.555,19.689 C5.555,20.593 8.299,23.723 11.244,23.723 C14.189,23.723 16.933,20.663 16.933,19.689 C16.933,19.619 16.933,19.619 16.933,19.550 C20.346,20.454 22.622,22.054 22.622,23.932 C22.622,26.784 17.535,29.010 11.311,29.010 C5.087,29.010 -0.000,26.714 -0.000,23.932 C-0.000,22.054 2.276,20.454 5.555,19.550 C5.555,19.619 5.555,19.619 5.555,19.689 Z"/>
</symbol><symbol preserveAspectRatio="xMidYMid" viewBox="0 0 32 32" style="overflow: visible" id="icon-heart">
  <path d="M16.039,5.193 C10.504,-0.952 0.011,2.297 0.011,10.914 C0.011,19.602 9.570,23.770 16.039,29.985 C22.507,23.770 31.995,19.602 31.995,10.914 C31.995,2.297 21.573,-0.952 16.039,5.193 Z"/>
</symbol><symbol preserveAspectRatio="xMidYMid" viewBox="0 0 32 32" style="overflow: visible" id="icon-keyboard">
<path d="M30.7,10.4H1.3C0.6,10.4,0,11,0,11.7V21c0,0.7,0.6,1.3,1.3,1.3h29.5c0.7,0,1.3-0.6,1.3-1.3v-9.3
	C32,11,31.4,10.4,30.7,10.4z M24.3,13h2.6v2h-2.6V13z M17.9,13h2.6v2h-2.6V13z M17.9,15.7h2.6v2h-2.6V15.7z M14.7,13h2.6v2h-2.6V13z
	 M14.7,15.7h2.6v2h-2.6V15.7z M11.5,13h2.6v2h-2.6V13z M11.5,15.7h2.6v2h-2.6V15.7z M8.3,13h2.6v2H8.3V13z M8.3,15.7h2.6v2H8.3V15.7
	z M1.9,13h2.6v2H1.9V13z M1.9,15.7h2.6v2H1.9V15.7z M7,20.4H1.9v-2H7V20.4z M7.7,17.7H5.1v-2h2.6V17.7z M7.7,15H5.1v-2h2.6V15z
	 M23.7,20.4H8.3v-2h15.4V20.4z M23.7,17.7h-2.6v-2h2.6V17.7z M23.7,15h-2.6v-2h2.6V15z M24.3,15.7h2.6v2h-2.6V15.7z M30.1,20.4H25
	v-2h5.1V20.4z M30.1,17.7h-2.6v-2h2.6V17.7z M30.1,15h-2.6v-2h2.6V15z"/>
</symbol><symbol preserveAspectRatio="xMidYMid" viewBox="0 0 32 24" style="overflow: visible" id="icon-menu">
  <path d="M2.666,5.333 L29.334,5.333 C30.801,5.333 32.001,4.133 32.001,2.666 C32.001,1.199 30.801,-0.001 29.334,-0.001 L2.666,-0.001 C1.199,-0.001 -0.001,1.199 -0.001,2.666 C-0.001,4.133 1.199,5.333 2.666,5.333 ZM29.334,9.333 L2.666,9.333 C1.199,9.333 -0.001,10.533 -0.001,12.000 C-0.001,13.467 1.199,14.667 2.666,14.667 L29.334,14.667 C30.801,14.667 32.001,13.467 32.001,12.000 C32.001,10.533 30.801,9.333 29.334,9.333 ZM29.334,18.667 L2.666,18.667 C1.199,18.667 -0.001,19.867 -0.001,21.334 C-0.001,22.801 1.199,24.001 2.666,24.001 L29.334,24.001 C30.801,24.001 32.001,22.801 32.001,21.334 C32.001,19.867 30.801,18.667 29.334,18.667 Z"/>
</symbol><symbol preserveAspectRatio="xMidYMid" viewBox="0 0 32 32" style="overflow: visible" id="icon-messages">
  <path d="M29.334,4.989 L2.666,4.989 C1.199,4.989 -0.001,6.227 -0.001,7.742 L-0.001,24.258 C-0.001,25.773 1.199,27.011 2.666,27.011 L29.334,27.011 C30.801,27.011 32.001,25.773 32.001,24.258 L32.001,7.742 C32.001,6.227 30.801,4.989 29.334,4.989 ZM28.667,10.288 L16.667,16.482 C16.667,16.482 16.600,16.482 16.600,16.551 C16.533,16.551 16.467,16.619 16.400,16.619 L16.333,16.619 C16.267,16.619 16.200,16.619 16.133,16.619 C16.067,16.619 16.067,16.619 16.000,16.619 C15.933,16.619 15.933,16.619 15.867,16.619 C15.800,16.619 15.733,16.619 15.667,16.619 L15.600,16.619 C15.533,16.619 15.467,16.551 15.400,16.551 C15.400,16.551 15.333,16.551 15.333,16.482 L3.333,10.288 C2.666,9.944 2.466,9.118 2.866,8.430 C3.199,7.742 3.999,7.535 4.666,7.948 L16.000,13.798 L27.334,7.948 C28.001,7.535 28.801,7.810 29.134,8.430 C29.534,9.118 29.267,9.944 28.667,10.288 Z"/>
</symbol><symbol preserveAspectRatio="xMidYMid" viewBox="0 0 32 32" style="overflow: visible" id="icon-notifications">
  <path d="M27.637,27.428 L4.363,27.428 C3.598,27.428 2.985,26.819 2.985,26.057 L2.985,25.829 C2.985,25.371 3.215,24.914 3.598,24.686 C5.665,23.543 6.890,21.562 6.890,18.514 L6.890,10.057 C6.890,4.114 10.871,0.000 15.847,0.000 L16.000,0.000 C21.053,0.000 25.110,4.191 25.110,10.210 L25.110,18.514 C25.110,21.562 26.335,23.771 28.402,24.686 C28.785,24.914 29.015,25.371 29.015,25.829 L29.015,26.057 C29.015,26.819 28.402,27.428 27.637,27.428 ZM16.000,32.000 C14.316,32.000 12.938,30.628 12.938,28.952 L19.062,28.952 C19.062,30.628 17.684,32.000 16.000,32.000 Z"/>
</symbol><symbol preserveAspectRatio="xMidYMid" viewBox="0 0 32 32" style="overflow: visible" id="icon-pencil">
 <path d="m28.68 5.611c-0.292-1.293-1.058-2.387-2.152-3.08l-2.88-1.757c-0.826-0.507-1.786-0.775-2.776-0.775-1.802 0-3.499 0.898-4.535 2.399l-10.992 16.465c-0.307 0.445-0.505 0.922-0.576 1.391l-1.44 6.66c-0.366 1.698 0.373 3.423 1.875 4.39 0.82 0.473 1.606 0.704 2.402 0.704 0.921 0 1.843-0.305 2.54-0.842l5.691-3.955c0.372-0.24 0.736-0.615 1.079-1.114l11.064-16.457c0.761-1.226 1.01-2.657 0.7-4.029zm-8.613 8.606l-6.52 9.806-0.042 0.064-0.063 0.044-5.686 3.951-0.833 0.579 0.216-1 1.44-6.659 0.017-0.076 0.043-0.065 6.52-9.731 0.214-0.32 0.326 0.202 4.245 2.634 0.356 0.22-0.233 0.351zm4.544-6.652l-2.043 3.068-0.215 0.321-0.326-0.202-4.245-2.634-0.357-0.221 0.234-0.351 2.047-3.074c0.346-0.447 0.765-0.691 1.166-0.691 0.17 0 0.317 0 0.55 0.112l2.916 1.776c0.586 0.45 0.692 1.289 0.273 1.896z"/>
</symbol><symbol preserveAspectRatio="xMidYMid" viewBox="0 0 32 32" style="overflow: visible" id="icon-plus">
  <path d="M28.813,19.187 L19.187,19.187 L19.187,28.812 C19.187,30.573 17.760,32.000 16.000,32.000 C14.240,32.000 12.813,30.573 12.813,28.812 L12.813,19.187 L3.187,19.187 C1.427,19.187 0.000,17.760 0.000,16.000 C0.000,14.240 1.427,12.812 3.187,12.812 L12.813,12.812 L12.813,3.188 C12.813,1.427 14.240,0.000 16.000,0.000 C17.760,0.000 19.187,1.427 19.187,3.188 L19.187,12.812 L28.813,12.812 C30.573,12.812 32.000,14.240 32.000,16.000 C32.000,17.760 30.573,19.187 28.813,19.187 Z"/>
</symbol><symbol preserveAspectRatio="xMidYMid" viewBox="0 0 32 32" style="overflow: visible" id="icon-points"><path d="M16 32C7.2 32 0 24.8 0 16S7.2 0 16 0s16 7.2 16 16-7.2 16-16 16zm6-20c0-1.5-1-2.3-2.1-2.5-1-.2-2.3-.1-3.5.1l-7 1.2v3.1l1.3-.2v7l-1.3.2V24l8.2-1.3c1.3-.2 2.7-.7 3.6-1.5.9-.7 1.6-1.7 1.6-3.2 0-1.5-1-2.5-2.7-2.7.8-.5 1.9-1.8 1.9-3.3zm-5.3 7.6l-1.5.2v-2.1l1.5-.2c.5-.1.7-.1 1 .1.3.1.4.4.4.8 0 .3-.1.6-.4.9-.3.1-.5.2-1 .3zm.4-5.3c-.3.2-.5.3-1 .4l-.9.1v-1.9l.9-.2c.5-.1.7-.1 1 0 .3.1.4.4.4.7 0 .4-.1.6-.4.9z"/></symbol><symbol preserveAspectRatio="xMidYMid" viewBox="0 0 32 32" style="overflow: visible" id="icon-profile">
  <path d="M16.000,32.001 C7.742,32.001 0.985,29.237 0.985,25.746 C0.985,23.418 3.988,21.455 8.492,20.364 C8.492,20.437 8.492,20.437 8.492,20.509 C8.492,21.673 12.171,25.528 16.000,25.528 C19.829,25.528 23.508,21.673 23.508,20.509 C23.508,20.437 23.508,20.437 23.508,20.364 C28.012,21.455 31.015,23.418 31.015,25.746 C31.015,29.237 24.258,32.001 16.000,32.001 ZM16.000,20.364 C11.420,20.364 7.742,16.073 7.742,9.818 C7.742,3.563 11.420,-0.001 16.000,-0.001 C20.580,-0.001 24.258,3.563 24.258,9.818 C24.258,16.073 20.580,20.364 16.000,20.364 Z"/>
</symbol><symbol viewBox="0 0 32 32" style="overflow: visible" id="icon-question">
  <path fill-rule="evenodd" d="M28.6 0H4c-.6 0-1 .4-1 1v30c0 .6.4 1 1 1h24.6c.7 0 1-.4 1-1V1c0-.6-.3-1-1-1zM17.4 23c0 .6-.5 1-1 1-.7 0-1-.4-1-1v-1c0-.6.3-1 1-1 .5 0 1 .4 1 1v1zm0-7v2c0 .6-.5 1-1 1-.7 0-1-.4-1-1v-3c0-.6.3-1 1-1 1 0 2-1 2-2s-1-2-2-2-1.7.7-2 1.3c-.2.5-.8.7-1.3.5-.2-.2-.4-.8-.2-1.3.5-1.5 2-2.5 3.6-2.5 2.3 0 4 1.8 4 4 0 1.8-1.2 3.4-3 4z"/>
</symbol><symbol preserveAspectRatio="xMidYMid" viewBox="0 0 32 32" style="overflow: visible" id="icon-reload">
<path d="M31.6,14.4l-5.3,5.5c-0.3,0.3-0.7,0.5-1.1,0.5s-0.8-0.2-1.1-0.5l-5.3-5.5c-0.6-0.6-0.6-1.6,0-2.2
	c0.6-0.6,1.6-0.6,2.2,0l2.9,3.1C23.6,9.6,19.1,5.1,13.5,5.1C7.7,5.1,3,10,3,16c0,6,4.7,10.9,10.5,10.9c2.1,0,4.2-0.7,5.9-1.9
	c0.7-0.5,1.6-0.3,2.1,0.4c0.5,0.7,0.3,1.7-0.4,2.2c-2.3,1.6-4.9,2.5-7.7,2.5C6.1,30,0,23.7,0,16C0,8.3,6.1,2,13.5,2
	c7,0,12.8,5.6,13.5,12.7l2.4-2.5c0.6-0.6,1.6-0.6,2.2,0C32.1,12.8,32.2,13.8,31.6,14.4"/>
</symbol><symbol preserveAspectRatio="xMidYMid" viewBox="0 0 32 32" style="overflow: visible" id="icon-report_flag">
  <path d="M30.994,3.144 C30.994,8.901 30.994,14.672 30.994,20.429 C30.637,21.543 29.837,22.257 28.895,22.857 C26.010,24.714 22.912,25.186 19.641,24.057 C17.742,23.400 15.886,22.571 13.972,21.957 C10.916,20.972 7.903,21.100 5.019,22.686 C4.576,22.929 4.390,23.214 4.405,23.743 C4.433,25.757 4.419,27.785 4.419,29.814 C4.419,31.071 3.962,31.771 3.005,31.957 C2.177,32.114 1.477,31.600 1.035,30.500 C1.020,30.471 1.020,30.457 1.006,30.442 C1.006,20.829 1.006,11.201 1.006,1.587 C1.234,0.830 1.677,0.287 2.434,0.016 C2.677,0.016 2.905,0.016 3.148,0.016 C4.348,0.530 4.562,1.544 4.419,2.773 C4.647,2.673 4.776,2.615 4.904,2.558 C7.403,1.401 10.031,1.044 12.687,1.615 C14.443,2.001 16.143,2.758 17.799,3.515 C19.798,4.430 21.812,4.944 23.997,4.601 C25.553,4.358 27.067,4.015 28.281,2.887 C29.395,1.815 30.151,1.915 30.994,3.144 ZM7.032,12.029 C7.032,10.315 7.032,8.601 7.032,6.887 C7.032,5.915 6.547,5.387 5.704,5.401 C4.919,5.415 4.433,5.972 4.433,6.887 C4.433,10.286 4.433,13.686 4.433,17.086 C4.433,18.043 4.919,18.600 5.733,18.600 C6.561,18.600 7.018,18.072 7.032,17.086 C7.032,15.400 7.032,13.715 7.032,12.029 Z"/>
</symbol><symbol preserveAspectRatio="xMidYMid" viewBox="0 0 32 32" style="overflow: visible" id="icon-search">
  <path d="M31.031,26.458 L23.671,18.920 C24.631,17.156 25.111,15.071 25.111,12.906 C25.111,5.770 19.512,-0.003 12.552,-0.003 C5.592,-0.084 -0.007,5.690 -0.007,12.826 C-0.007,19.963 5.592,25.736 12.552,25.736 C15.112,25.736 17.432,24.934 19.432,23.651 L26.551,31.028 C27.751,32.311 29.751,32.311 31.031,31.028 C32.311,29.745 32.311,27.741 31.031,26.458 ZM12.792,20.765 C8.392,20.765 4.792,17.156 4.792,12.746 C4.792,8.336 8.392,4.728 12.792,4.728 C17.192,4.728 20.792,8.336 20.792,12.746 C20.792,17.156 17.192,20.765 12.792,20.765 Z"/>
</symbol><symbol preserveAspectRatio="xMidYMid" viewBox="0 0 32 32" style="overflow: visible" id="icon-star">
  <path d="M31.925,12.160 C31.711,11.414 31.069,10.817 30.284,10.742 C30.284,10.742 23.005,10.444 21.650,9.400 C20.294,8.356 17.796,1.195 17.796,1.195 C17.440,0.449 16.797,0.002 16.013,0.002 C15.228,0.002 14.585,0.449 14.229,1.195 C14.229,1.195 11.660,8.430 10.375,9.400 C9.091,10.369 1.741,10.742 1.741,10.742 C0.956,10.892 0.314,11.414 0.100,12.160 C-0.114,12.905 0.029,13.726 0.600,14.323 C0.600,14.323 6.379,18.723 6.879,20.662 C7.378,22.602 5.380,29.613 5.380,29.613 C5.238,30.433 5.595,31.179 6.165,31.627 C6.522,31.925 6.950,32.000 7.307,32.000 C7.592,32.000 7.949,31.925 8.235,31.776 C8.235,31.776 13.943,27.525 15.941,27.525 C17.939,27.525 23.648,31.776 23.648,31.776 C23.933,31.925 24.290,32.000 24.575,32.000 C25.003,32.000 25.432,31.851 25.717,31.627 C26.359,31.179 26.645,30.359 26.502,29.613 C26.502,29.613 24.361,22.676 25.003,20.662 C25.646,18.649 31.283,14.323 31.283,14.323 C31.925,13.800 32.139,12.905 31.925,12.160 Z"/>
</symbol><symbol preserveAspectRatio="xMidYMid" viewBox="0 0 32 32" style="overflow: visible" id="icon-stream">
  <path d="M29.333,4.000 L2.667,4.000 C1.200,4.000 0.000,5.200 0.000,6.667 C0.000,8.133 1.200,9.333 2.667,9.333 L29.333,9.333 C30.800,9.333 32.000,8.133 32.000,6.667 C32.000,5.200 30.800,4.000 29.333,4.000 ZM21.333,13.333 L2.667,13.333 C1.200,13.333 0.000,14.533 0.000,16.000 C0.000,17.467 1.200,18.667 2.667,18.667 L21.333,18.667 C22.800,18.667 24.000,17.467 24.000,16.000 C24.000,14.533 22.800,13.333 21.333,13.333 ZM13.333,22.667 L2.667,22.667 C1.200,22.667 0.000,23.867 0.000,25.333 C0.000,26.800 1.200,28.000 2.667,28.000 L13.333,28.000 C14.800,28.000 16.000,26.800 16.000,25.333 C16.000,23.867 14.800,22.667 13.333,22.667 Z"/>
</symbol><symbol preserveAspectRatio="xMidYMid" viewBox="0 0 32 32" style="overflow: visible" id="icon-symbols">
  <path d="M22.999,6.982 C24.603,8.691 25.404,11.176 25.404,14.438 C25.404,17.498 24.849,20.095 23.739,22.228 C22.629,24.361 20.927,26.146 18.635,27.583 L18.635,32.000 L32.000,32.000 L32.000,27.583 L23.968,27.583 C26.173,26.061 27.872,24.100 29.061,21.700 C30.252,19.300 30.847,16.643 30.847,13.726 C30.847,9.488 29.525,6.140 26.885,3.685 C24.243,1.228 20.616,-0.000 16.000,-0.000 C11.385,-0.000 7.757,1.238 5.116,3.717 C2.475,6.195 1.155,9.532 1.155,13.726 C1.155,16.601 1.739,19.243 2.907,21.657 C4.075,24.070 5.761,26.046 7.968,27.583 L0.000,27.583 L0.000,32.000 L13.323,32.000 L13.323,27.583 C10.972,26.061 9.263,24.240 8.196,22.120 C7.129,20.002 6.596,17.441 6.596,14.438 C6.596,11.191 7.395,8.710 8.991,6.992 C10.587,5.275 12.924,4.417 16.000,4.417 C19.063,4.417 21.395,5.271 22.999,6.982 Z"/>
</symbol><symbol preserveAspectRatio="xMidYMid" viewBox="0 0 32 32" style="overflow: visible" id="icon-unseen">
<g>
	<path d="M18.9,13.5c0.4,0.5,0.6,1,0.7,1.6l2,2c0.4-1.6,0.1-3.4-1-4.8c-0.9-1.2-2.3-2-3.8-2.2c-0.7-0.1-1.5-0.1-2.2,0.1
		l2,2C17.5,12.2,18.4,12.7,18.9,13.5"/>
	<path d="M31.8,14.9c-0.2-0.4-5.9-8.6-15.8-8.6c-1.6,0-3.2,0.2-4.6,0.6l2.3,2.3c0.7-0.1,1.4-0.2,2.2-0.2
		c6.7,0,11.3,4.7,12.9,6.6c-0.8,1-2.4,2.6-4.6,4.1l2,2c3.4-2.3,5.3-5.1,5.5-5.3C32.1,16,32.1,15.4,31.8,14.9"/>
	<path d="M26.7,25.4L24.3,23l-2.1-2.1l-1.7-1.7l-1.5-1.5L17.3,16l-1.6-1.6L14,12.6l-1.5-1.5l-1.2-1.2L9.1,7.8L5.8,4.4
		C5.5,4.2,5.1,4,4.7,4C4.3,4,3.9,4.1,3.6,4.4C3,5,3,6,3.6,6.6l2.6,2.6c-3.8,2.4-5.8,5.5-6,5.7c-0.3,0.5-0.3,1.1,0,1.5
		c0.2,0.4,5.9,8.6,15.8,8.6c1.9,0,3.7-0.3,5.2-0.8l3.3,3.3c0.6,0.6,1.6,0.6,2.2,0v0c0.3-0.3,0.5-0.7,0.4-1.1
		C27.1,26,27,25.7,26.7,25.4 M12.3,15.4l4,4c-0.3,0-0.6,0-0.9,0c-1-0.1-1.8-0.6-2.4-1.4C12.5,17.2,12.3,16.3,12.3,15.4 M16,22.3
		c-6.7,0-11.3-4.7-12.9-6.6c0.9-1,2.6-2.9,5.1-4.4l2.4,2.4c-0.7,1.8-0.4,3.9,0.8,5.5c0.9,1.2,2.3,2,3.8,2.2c0.3,0,0.5,0.1,0.8,0.1
		c0.7,0,1.4-0.1,2.1-0.4L19,22C18,22.2,17,22.3,16,22.3"/>
</g>
</symbol><symbol preserveAspectRatio="xMidYMid" viewBox="0 0 32 32" style="overflow: visible" id="icon-x">
  <path d="M21.114,15.771 L30.966,25.622 C32.326,26.982 32.326,29.188 30.966,30.547 C29.606,31.907 27.400,31.907 26.040,30.547 L16.188,20.697 L5.925,30.959 C4.565,32.319 2.359,32.319 0.999,30.959 L0.999,30.959 C-0.362,29.598 -0.362,27.393 0.999,26.033 L11.262,15.771 L1.410,5.920 C0.050,4.560 0.050,2.355 1.410,0.995 C2.770,-0.365 4.976,-0.365 6.336,0.995 L16.188,10.845 L25.630,1.404 C26.991,0.044 29.196,0.044 30.556,1.404 L30.556,1.405 C31.917,2.765 31.917,4.970 30.556,6.330 L21.114,15.771 Z"/>
</symbol></svg>