<?xml version="1.0" encoding="utf-8"?><svg width="512" height="512" viewBox="0 0 512 512" xmlns="http://www.w3.org/2000/svg" xmlns:xlink="http://www.w3.org/1999/xlink"><svg preserveAspectRatio="xMidYMid" width="64" height="64" viewBox="0 0 64 64" id="administration" x="64"><path fill="#fff" d="M51.504 32.038l-3.426 3.45-.002-.003-5.47 5.51-3.425-3.448 5.47-5.51-5.55-5.586 3.427-3.448 5.547 5.584.004-.004 3.426 3.45-.004.002.004.004zm-28.48 8.958L31.962 32l8.938 8.996H23.024zm0-17.994H40.9L31.962 32 23.024 23zm-3.673 8.96l5.55 5.585-3.427 3.45-5.546-5.585-.004.004-3.426-3.45.003-.002-.003-.004 3.426-3.45.002.003 5.468-5.51 3.426 3.448-5.47 5.512z" class="aacls-2"/></svg><svg preserveAspectRatio="xMidYMid" width="64" height="64" viewBox="0 0 64 64" id="agricultural" y="320"><path fill="#fff" d="M47.896 16.923c-.868 2.854-1.758 5.702-2.633 8.554-.13.42-.193.858-.323 1.277-.62 1.994-1.83 3.58-3.513 4.77-2.327 1.644-4.964 2.676-7.625 3.64-.042.014-.09.01-.186.02 1.514-2.99 2.893-6.044 5.668-8.08 1.126-.828 2.368-1.525 3.628-2.134 1.156-.558 1.78-1.386 2.095-2.605.53-2.05 1.16-4.077 1.753-6.112.063-.218.102-.48.247-.628.157-.16.442-.312.64-.28.158.025.367.327.38.518.027.35-.028.722-.13 1.06zm-4.71 4.148c-.045.17-.123.332-.24.635 0-1.42 0-2.69.003-3.96 0-.178-.004-.362.038-.532.435-1.79.877-3.577 1.323-5.363.044-.172.08-.402.2-.485.205-.14.49-.272.714-.238.148.022.372.357.352.527-.08.676-.207 1.353-.382 2.012-.654 2.472-1.333 4.938-2.007 7.405zm-1.81-5.79c-.076.365-.023.77.04 1.146.434 2.6.42 5.175-.345 7.717-.053.18-.19.396-.347.478-1.555.81-2.933 1.845-4.125 3.13-.05.055-.12.095-.224.177.208-1.86-.16-3.563-.838-5.22-.078-.193-.027-.484.06-.688 1.004-2.374 2.457-4.46 4.132-6.402.184-.213.356-.482.414-.75.524-2.44 1.02-4.887 1.526-7.332.026-.128.052-.256.087-.382.092-.323.3-.514.644-.482.343.033.554.273.533.595-.04.633-.103 1.27-.233 1.89-.427 2.044-.903 4.078-1.325 6.123zm-3.114-1.385c-.015.063-.035.126-.046.19-.194 1.127-.604 2.142-1.364 3.03-.47.55-.828 1.2-1.236 1.805l-.068-.043c.344-1.22.706-2.436 1.028-3.663.372-1.418.708-2.845 1.06-4.27.028-.11.056-.22.087-.33.13-.45.406-.65.773-.554.386.1.567.43.462.885-.227.984-.463 1.967-.696 2.95zm-3.42 11.067c.514 1.906.25 3.81-.522 5.61-.57 1.332-1.267 2.61-1.907 3.912l-.14-.013c-.37-1.416-.785-2.823-1.1-4.252-.37-1.672-.7-3.355-.957-5.048-.222-1.466.07-2.857.93-4.11.216-.315.347-.7.464-1.07.64-2.038 1.265-4.08 1.895-6.122.034-.11.058-.22.097-.33.15-.423.452-.607.83-.472.395.14.5.456.39.833-.478 1.643-.907 3.305-1.476 4.918-.315.892-.31 1.634.1 2.495.56 1.174 1.06 2.397 1.397 3.65zM30.038 38.22c-.774 1.485-1.732 2.874-2.61 4.306l-.153-.04c-.118-.728-.267-1.453-.348-2.186-.233-2.112-.49-4.223-.63-6.342-.06-.93.042-1.9.247-2.814.352-1.563 1.394-2.62 2.896-3.362.467 1.655.992 3.24 1.353 4.86.43 1.926.15 3.836-.756 5.577zm-6.24 8.928c-.16.207-.338.4-.5.604-.302.38-.287.776.032 1.045.31.26.72.208 1.05-.117.91-.893 1.783-1.83 2.747-2.66 1.25-1.078 2.695-1.813 4.31-2.237 1.436-.377 2.84-.864 4.26-1.3.075-.025.152-.043.29-.08.092.686.05 1.35-.208 1.93-.343.766-.725 1.55-1.257 2.186-1.524 1.82-3.548 2.853-5.842 3.363-1.464.326-2.937.627-4.416.878-1.09.185-2.007.627-2.778 1.422-1.184 1.223-2.395 2.42-3.598 3.622-.15.15-.32.283-.484.417-.693.565-1.125.5-1.6-.238v-.49c.305-.314.608-.63.916-.94 1.19-1.193 2.39-2.375 3.567-3.582.743-.764 1.004-1.682.996-2.768-.02-2.582.004-5.168.144-7.746.13-2.38 1.61-4.22 3.72-4.864.108.612.22 1.218.323 1.826.156.917.335 1.832.453 2.754.335 2.638-.538 4.92-2.126 6.976zm4.648-3.707c1.68-2.526 3.19-5.057 5.622-6.814.67-.484 1.41-.89 2.163-1.234 1.543-.706 3.115-1.347 4.723-2.035.224.894.16 1.776-.145 2.626-.704 1.965-2.085 3.393-3.822 4.457-1.98 1.212-4.21 1.84-6.426 2.466-.67.188-1.347.342-2.115.535z" class="abcls-2"/></svg><svg preserveAspectRatio="xMidYMid" width="64" height="64" viewBox="0 0 64 64" id="algebra" y="64"><path fill="#fff" d="M47.09 25.178c-.475.39-1.27 1.005-2.386 1.84-1.116.837-1.882 1.486-2.297 1.95-.178.182-.36.403-.545.66h5.806c.578 0 1.02.11 1.323.328.305.217.457.513.457.887 0 .333-.12.615-.36.846-.242.23-.607.346-1.097.346h-8.186c-.556 0-.99-.14-1.3-.423-.312-.282-.468-.614-.468-.994 0-.246.1-.57.3-.975.2-.405.42-.723.656-.954.986-.937 1.876-1.74 2.67-2.41.793-.67 1.36-1.11 1.7-1.32.61-.395 1.115-.79 1.52-1.19.404-.397.71-.805.923-1.223.21-.418.317-.827.317-1.228 0-.436-.113-.826-.34-1.17-.226-.342-.533-.61-.923-.8-.39-.19-.815-.285-1.274-.285-.972 0-1.735.39-2.29 1.173-.076.102-.2.38-.374.836-.174.455-.37.805-.59 1.05-.218.245-.54.367-.96.367-.372 0-.68-.11-.925-.335-.244-.225-.367-.53-.367-.918 0-.47.115-.96.345-1.468.23-.51.573-.974 1.03-1.388.455-.415 1.033-.75 1.734-1.005.7-.255 1.52-.382 2.463-.382 1.134 0 2.102.163 2.902.49.52.217.975.516 1.368.897.393.38.7.82.918 1.32.22.5.33 1.018.33 1.555 0 .843-.23 1.61-.685 2.3-.456.69-.92 1.23-1.396 1.62zM35.73 42.565c0 .502-.23.933-.687 1.295-.458.36-1.024.542-1.698.542-.598 0-1.103-.158-1.516-.472-.415-.315-.888-.816-1.423-1.505l-3.777-5.09-3.873 5.09c-.56.712-1.033 1.22-1.42 1.522-.39.303-.882.455-1.48.455-.66 0-1.223-.19-1.688-.57-.465-.377-.697-.812-.697-1.302 0-.5.356-1.218 1.068-2.15l4.713-6.193-4.177-5.16c-.725-.85-1.088-1.59-1.088-2.22 0-.49.216-.916.65-1.278.43-.362.997-.543 1.697-.543.61 0 1.116.157 1.516.472.402.314.87.81 1.403 1.486l3.377 4.233 3.28-4.234c.548-.7 1.022-1.2 1.423-1.504.4-.304.9-.455 1.497-.455.687 0 1.256.178 1.708.533.45.356.677.785.677 1.286 0 .36-.093.708-.277 1.04-.184.333-.467.726-.85 1.18l-4.177 5.16 4.713 6.193c.738.967 1.107 1.696 1.107 2.185z" class="accls-2"/></svg><svg preserveAspectRatio="xMidYMid" width="64" height="64" viewBox="0 0 64 64" id="all" x="64" y="64"><path fill="#fff" d="M45.208 35.006H19.292c-1.542 0-2.792-1.232-2.792-2.753 0-1.52 1.25-2.753 2.792-2.753h25.916C46.75 29.5 48 30.733 48 32.253s-1.25 2.753-2.792 2.753zm0-10.5H19.292c-1.542 0-2.792-1.232-2.792-2.753 0-1.52 1.25-2.753 2.792-2.753h25.916C46.75 19 48 20.233 48 21.753s-1.25 2.753-2.792 2.753zM19.292 40h25.916C46.75 40 48 41.233 48 42.753s-1.25 2.753-2.792 2.753H19.292c-1.542 0-2.792-1.232-2.792-2.753 0-1.52 1.25-2.753 2.792-2.753z" class="adcls-2"/></svg><svg preserveAspectRatio="xMidYMid" width="64" height="64" viewBox="0 0 64 64" id="arabic" x="128"><path fill="#fff" d="M41.343 22.37c-.562-2.405-1.42-3.536-2.25-3.536-1.3 0-3.136.82-4.704 2.008-1.66 1.245-2.902 2.63-2.902 3.65 0 2.517 7.695 2.206 9.766 3.82.77.677 1.303 1.583 1.303 3.167 0 1.498-1.066 3.988-2.427 5.232-2.9 2.603-7.428 4.697-11.424 4.697-6.895 0-10.24-4.443-10.24-10.384 0-2.63.622-4.894 1.57-6.987l1.153.367c-.652 1.895-.918 3.507-.918 4.95 0 5.347 3.817 8.233 8.7 8.233 1.836 0 5.002-.68 7.99-2.348 1.895-1.076 3.67-2.405 3.67-2.83 0-.848-2.16-1.5-4.616-1.838-2.604-.368-4.646-.905-5.416-1.726-.62-.65-1.095-1.443-1.095-2.546 0-2.857 1.273-5.262 3.285-7.27 2.072-2.037 5.298-4.018 7.34-4.018.947 0 1.628.453 2.16 1.5.474.962.71 1.895.71 2.66 0 .678-.71 2.15-1.213 3.14l-.444.056zm-13.94 27.64c-1.212-1.105-2.278-2.01-3.462-2.943.77-1.02 1.6-1.952 2.34-2.688 1.213.904 2.22 1.838 3.373 3.026-.828 1.132-1.42 1.867-2.25 2.603zm5.713-.37c-1.213-1.102-2.28-2.008-3.463-2.94.77-1.02 1.598-1.953 2.338-2.69 1.215.907 2.22 1.84 3.375 3.028-.828 1.132-1.42 1.867-2.25 2.603z" class="aecls-2"/></svg><svg preserveAspectRatio="xMidYMid" width="64" height="64" viewBox="0 0 64 64" id="art" x="128" y="64"><path fill="#fff" d="M44.717 21.37S33.55 34.71 31.207 37.04c-2.34 2.327-4.64 2.37-5.436 1.576-.797-.793-.754-3.08 1.587-5.407 2.34-2.33 15.755-13.436 15.755-13.436.97-.964 1.76-1.74 2.558-.948.798.793.016 1.58-.953 2.544zM23.99 43.944c-1.36 1.276-7.634 2.544-5.574.397.377-.393 1.222-.465 1.394-1.24.262-1.177-.687-1.705.44-3.096 2.41-2.26 4.066-1.597 4.84-.78.775.815 1.307 2.46-1.1 4.72z" class="afcls-2"/></svg><svg preserveAspectRatio="xMidYMid" width="64" height="64" viewBox="0 0 64 64" id="artmusic" y="128"><path fill="#fff" d="M47.63 12.932s-.775 21.97-1.297 26.11c-.523 4.138-2.758 5.968-4.153 5.798-1.396-.17-3.11-2.48-2.587-6.618.522-4.14 5.23-25.63 5.23-25.63.216-1.716.4-3.104 1.795-2.935 1.396.17 1.23 1.56 1.013 3.275zm-5.656 33.042c1.39.21 3.178 1.434 2.54 5.557-.363 2.33-5.58 8.47-5.195 4.73.068-.685.846-1.414.422-2.32-.646-1.375-1.987-1.163-1.942-3.426.64-4.123 2.784-4.75 4.174-4.54zM30.92 44.13c.326 1.43.63 2.88.99 4.314.922 3.677-.515 6.192-4.124 7.195-.467.13-2.004.433-3.012.34-1.593-.143-3.058-.623-4.182-1.86-1.19-1.31-1.465-3.084-.696-4.44.813-1.433 2.594-2.168 4.29-1.77 1.382.322 2.42 1.506 2.52 2.877.103 1.375-.523 2.28-1.995 2.89-.087.036-.167.092-.326.182 1.242.317 2.366.242 3.467-.183 1.394-.538 2.247-1.533 2.334-3.062.118-2.08-.72-3.986-1.058-6.018-.37.048-.638.092-.91.117-4.656.42-8.588-.984-11.437-4.85-.668-.903-1.192-1.798-1.468-3.113-.285-1.354-.32-1.525-.194-2.922.625-3.783 2.95-6.46 5.665-8.875.863-.767 1.75-1.51 2.662-2.213.44-.34.57-.65.427-1.214-.62-2.467-1.055-4.958-.57-7.515.344-1.804.993-3.493 2.07-4.97.706-.97 1.51-1.862 2.85-1.982.65-.06 1.098.165 1.515.615 1.325 1.427 2.012 3.168 2.32 5.05.472 2.892.397 5.745-1.015 8.418-.92 1.74-2.335 3.04-3.798 4.28-.415.355-.52.67-.38 1.193.31 1.162.558 2.342.827 3.497 5.15.365 7.554 1.934 8.295 5.382.813 3.788-.597 6.207-5.065 8.638zm-1.584-27.652c.41-.962.707-2.026.79-3.065.105-1.343-1-1.895-2.13-1.168-.268.172-.51.402-.718.645-1.16 1.366-1.8 2.987-1.955 4.75-.092 1.06.113 2.146.195 3.395 1.612-1.408 3.038-2.732 3.818-4.557zm-2.542 17.95c-.45.217-.813.328-1.103.54-1.01.738-1.76 1.645-1.614 3.02.134 1.277.954 1.948 2.06 2.362.106.04.254.056.31.135.132.192.33.433.297.618-.033.188-.285.4-.487.477-.222.083-.502.06-.748.02-2.793-.433-4.738-3.378-4.063-6.153.54-2.22 1.99-3.648 3.947-4.644.192-.098.45-.388.424-.543-.17-.972-.41-1.93-.654-3.002-.573.48-1.07.882-1.55 1.302-1.69 1.475-3.377 2.953-4.487 4.96-1.61 2.91-1.03 5.97 1.513 7.89 1.416 1.067 3.025 1.694 4.786 1.764 1.08.044 2.166-.125 3.32-.203l-1.95-8.54zm6.112 2.632c-.545-1.622-2.735-3.023-4.23-2.67.552 2.417 1.102 4.834 1.657 7.25.046.2.122.396.197.63 2.124-.942 3.085-3.103 2.376-5.21z" class="agcls-2"/></svg><svg preserveAspectRatio="xMidYMid" width="64" height="64" viewBox="0 0 64 64" id="belarus" x="64" y="128"><path fill="#fff" d="M32.002 18.01c9.522 0 17.242 6.235 17.242 13.926 0 7.692-7.72 13.927-17.242 13.927-.482 0-.957-.02-1.43-.05-.015 0-1.315-.126-1.34-.13-.028-.002-.058-.004-.09-.004-.207 0-.466.07-.606.183-1.712 1.372-3.363 2.713-5.062 4.1-.016.014-.044.01-.107.022v-.415c0-1.79-.003-3.58.002-5.37 0-.207-.043-.22-.26-.33-.004 0-.01-.004-.014-.007-4.584-2.237-7.77-6.15-8.265-10.687l-.02-.14c-.007-.067-.008-.133-.01-.2-.025-.297-.04-.597-.04-.9 0-7.69 7.72-13.926 17.242-13.926m0-2.767c-5.235 0-10.18 1.666-13.927 4.692-3.92 3.166-6.08 7.428-6.08 12 0 .332.015.67.045 1.063.003.084.01.215.028.372.006.052.014.104.022.156.553 4.908 3.698 9.36 8.514 12.143v4.316c0 .822.365 1.602.996 2.128.5.416 1.127.64 1.767.64.144 0 .288-.012.43-.035.54-.072 1.016-.277 1.423-.61 1.653-1.35 3.08-2.508 4.44-3.6.263.025.542.05.73.063v.003c.583.038 1.11.057 1.612.057 5.234 0 10.18-1.666 13.926-4.692 3.92-3.166 6.08-7.428 6.08-12.002 0-4.573-2.16-8.835-6.08-12-3.746-3.027-8.692-4.693-13.926-4.693z" class="ahcls-2"/><path fill="#fff" d="M42.305 35.276v2.6H33.83V26.314h8.475v2.6H36.81v1.803h5.374v2.6H36.81v1.96h5.495zM32.2 34.738c0 1.682-1.127 3.138-3.397 3.138h-6.76V26.314h6.552c2.305 0 3.38 1.49 3.38 2.947 0 1.44-.884 2.41-1.976 2.653 1.23.19 2.2 1.37 2.2 2.825zm-4.28-5.824h-2.896v1.803h2.895c.605 0 1.02-.33 1.02-.902 0-.554-.415-.9-1.02-.9zm.103 4.403h-3v1.96h3c.71 0 1.144-.365 1.144-.99 0-.572-.416-.97-1.144-.97z" class="ahcls-2"/></svg><svg preserveAspectRatio="xMidYMid" width="64" height="64" viewBox="0 0 64 64" id="biology" x="128" y="128"><path fill="#fff" d="M23.84 26.3c-6.253 6.254-5.797 10.8-2.83 14.266l-3.602 3.6c-.395.395-.395 1.035 0 1.43.394.395 1.035.395 1.43 0l3.6-3.6c3.465 2.965 8.012 3.42 14.264-2.832 6.71-6.71 9.29-22.152 9.29-22.152s-15.443 2.58-22.153 9.29zm3.868 10.424L24.9 39.532c-.394.395-1.034.395-1.428 0-.396-.394-.396-1.035 0-1.43l2.807-2.807c.394-.395 1.034-.395 1.428 0 .395.395.395 1.034 0 1.43z" class="aicls-2"/></svg><svg preserveAspectRatio="xMidYMid" width="64" height="64" viewBox="0 0 64 64" id="business" x="192"><path fill="#fff" d="M45.4 45H19.6c-2.54 0-4.6-2.047-4.6-4.57V29h14.003v2.857c0 .63.522 1.143 1.166 1.143h4.66c.645 0 1.167-.512 1.167-1.143V29H50v11.43c0 2.523-2.06 4.57-4.6 4.57zM15 26.495V24.43c0-2.526 2.06-4.573 4.6-4.573l3.964.14v-2.332c0-2.576 2.075-4.665 4.634-4.665h8.108c2.56 0 4.633 2.09 4.633 4.665v2.333l4.46-.14c2.54 0 4.6 2.046 4.6 4.57V27H15v-.505zm23.623-8.83c0-1.288-1.183-2.16-2.487-2.16h-8.268c-1.304 0-1.987.872-1.987 2.16v2.333h12.743v-2.333z" class="ajcls-2"/></svg><svg preserveAspectRatio="xMidYMid" width="64" height="64" viewBox="0 0 64 64" id="catala" x="192" y="64"><path fill="#fff" d="M32.002 18.01c9.522 0 17.242 6.235 17.242 13.926 0 7.692-7.72 13.927-17.242 13.927-.482 0-.957-.02-1.43-.05-.015 0-1.315-.126-1.34-.13-.028-.002-.058-.004-.09-.004-.207 0-.466.07-.606.183-1.712 1.372-3.363 2.713-5.062 4.1-.016.014-.044.01-.107.022v-.415c0-1.79-.003-3.58.002-5.37 0-.207-.043-.22-.26-.33-.004 0-.01-.004-.014-.007-4.584-2.237-7.77-6.15-8.265-10.687l-.02-.14c-.007-.067-.008-.133-.01-.2-.025-.297-.04-.597-.04-.9 0-7.69 7.72-13.926 17.242-13.926m0-2.767c-5.235 0-10.18 1.666-13.927 4.692-3.92 3.166-6.08 7.428-6.08 12 0 .332.015.67.045 1.063.003.084.01.215.028.372.006.052.014.104.022.156.553 4.908 3.698 9.36 8.514 12.143v4.316c0 .822.365 1.602.996 2.128.5.416 1.127.64 1.767.64.144 0 .288-.012.43-.035.54-.072 1.016-.277 1.423-.61 1.653-1.35 3.08-2.508 4.44-3.6.263.025.542.05.73.063v.003c.583.038 1.11.057 1.612.057 5.234 0 10.18-1.666 13.926-4.692 3.92-3.166 6.08-7.428 6.08-12.002 0-4.573-2.16-8.835-6.08-12-3.746-3.027-8.692-4.693-13.926-4.693z" class="akcls-2"/><path fill="#fff" d="M40.78 37.876l-.572-1.664h-4.56l-.57 1.664h-3.38l4.35-11.562h3.76l4.352 11.562h-3.38zm-2.843-8.615l-1.473 4.35h2.93l-1.457-4.35zM26.74 35.45c1.11 0 2.097-.764 2.48-1.683l2.564 1.214c-.745 1.474-2.253 3.104-5.044 3.104-3.554 0-6.258-2.427-6.258-5.98 0-3.57 2.704-5.98 6.258-5.98 2.79 0 4.3 1.577 5.044 3.085l-2.565 1.23c-.383-.92-1.37-1.682-2.48-1.682-1.89 0-3.224 1.44-3.224 3.345 0 1.89 1.334 3.346 3.224 3.346z" class="akcls-2"/></svg><svg preserveAspectRatio="xMidYMid" width="64" height="64" viewBox="0 0 64 64" id="chemistry" x="192" y="128"><path fill="#fff" d="M47 42.528c0 1.906-.75 3.28-2.233 4.088C42.187 48.736 37.427 50 32 50c-5.8 0-10.725-1.41-13.2-3.777-1.195-.89-1.8-2.132-1.8-3.695 0-.02 0-.047.003-.074L17 42.37c0-.327.034-.615.104-.88.198-1.03.685-1.95 1.376-2.61l8.023-10.01V18.285c0-.593-1.133-1.48-1.95-1.89-.415-.208-.632-.674-.525-1.124.107-.45.51-.77.972-.77h14c.464 0 .867.32.974.77.106.453-.113.918-.528 1.125-.816.41-1.95 1.296-1.95 1.89V28.87l8.024 10.01c.69.658 1.177 1.58 1.376 2.61.07.264.104.552.104.88 0 .02 0 .046-.003.073.002.028.003.056.003.085zm-11.283-12.68c-.142-.178-.22-.4-.22-.626V18.284c0-.67.28-1.27.67-1.784h-8.335c.39.513.67 1.115.67 1.784v10.938c0 .227-.076.448-.22.626l-8.026 10.015c2.05.558 6.833 1.7 11.637 1.7 4.873 0 9.764-1.15 11.847-1.705l-8.023-10.01z" class="alcls-2"/></svg><svg preserveAspectRatio="xMidYMid" width="64" height="64" viewBox="0 0 64 64" id="chinese" y="192"><path fill="#fff" d="M32.002 18.01c9.522 0 17.242 6.235 17.242 13.926 0 7.692-7.72 13.927-17.242 13.927-.482 0-.957-.02-1.43-.05-.015 0-1.315-.126-1.34-.13-.028-.002-.058-.004-.09-.004-.207 0-.466.07-.606.183-1.712 1.372-3.363 2.713-5.062 4.1-.016.014-.044.01-.107.022v-.415c0-1.79-.003-3.58.002-5.37 0-.207-.043-.22-.26-.33-.004 0-.01-.004-.014-.007-4.584-2.237-7.77-6.15-8.265-10.687l-.02-.14c-.007-.067-.008-.133-.01-.2-.025-.297-.04-.597-.04-.9 0-7.69 7.72-13.926 17.242-13.926m0-2.767c-5.235 0-10.18 1.666-13.927 4.692-3.92 3.166-6.08 7.428-6.08 12 0 .332.015.67.045 1.063.003.084.01.215.028.372.006.052.014.104.022.156.553 4.908 3.698 9.36 8.514 12.143v4.316c0 .822.365 1.602.996 2.128.5.416 1.127.64 1.767.64.144 0 .288-.012.43-.035.54-.072 1.016-.277 1.423-.61 1.653-1.35 3.08-2.508 4.44-3.6.263.025.542.05.73.063v.003c.583.038 1.11.057 1.612.057 5.234 0 10.18-1.666 13.926-4.692 3.92-3.166 6.08-7.428 6.08-12.002 0-4.573-2.16-8.835-6.08-12-3.746-3.027-8.692-4.693-13.926-4.693z" class="amcls-2"/><path fill="#fff" d="M39.566 37.876V33.23h-4.8v4.646h-2.983V26.314h2.982v4.316h4.8v-4.316h2.983v11.562h-2.982zM21.09 35.5l4.922-6.586H21.09v-2.6h8.856v2.357l-4.94 6.606h5.062v2.6h-8.98V35.5z" class="amcls-2"/></svg><svg preserveAspectRatio="xMidYMid" width="64" height="64" viewBox="0 0 64 64" id="egzam" x="64" y="192"><path fill="#fff" d="M49.804 24.644L33.347 41.35c-.866.878-2.27.878-3.135 0l-8.62-8.75c-.866-.88-.866-2.304 0-3.183l2.35-2.387c.866-.878 2.27-.878 3.135 0l4.702 4.773 12.538-12.727c.866-.88 2.27-.88 3.135 0l2.35 2.386c.866.88.866 2.303 0 3.182zm-17.62-7.832c-8.262 0-14.96 6.8-14.96 15.188 0 8.388 6.698 15.188 14.96 15.188 8.265 0 14.963-6.8 14.963-15.188 0-.443-.023-.88-.06-1.315l2.435-2.47c.257 1.22.396 2.486.396 3.785 0 9.94-7.94 18-17.733 18s-17.732-8.06-17.732-18 7.94-18 17.732-18c3.97 0 7.635 1.325 10.59 3.562l-1.986 2.016c-2.435-1.74-5.4-2.766-8.605-2.766z" class="ancls-2"/></svg><svg preserveAspectRatio="xMidYMid" width="64" height="64" viewBox="0 0 64 64" id="english" x="128" y="192"><path fill="#fff" d="M32.002 18.01c9.522 0 17.242 6.235 17.242 13.926 0 7.692-7.72 13.927-17.242 13.927-.482 0-.957-.02-1.43-.05-.015 0-1.315-.126-1.34-.13-.028-.002-.058-.004-.09-.004-.207 0-.466.07-.606.183-1.712 1.372-3.363 2.713-5.062 4.1-.016.014-.044.01-.107.022v-.415c0-1.79-.003-3.58.002-5.37 0-.207-.043-.22-.26-.33-.004 0-.01-.004-.014-.007-4.584-2.237-7.77-6.15-8.265-10.687l-.02-.14c-.007-.067-.008-.133-.01-.2-.025-.297-.04-.597-.04-.9 0-7.69 7.72-13.926 17.242-13.926m0-2.767c-5.235 0-10.18 1.666-13.927 4.692-3.92 3.166-6.08 7.428-6.08 12 0 .332.015.67.045 1.063.003.084.01.215.028.372.006.052.014.104.022.156.553 4.908 3.698 9.36 8.514 12.143v4.316c0 .822.365 1.602.996 2.128.5.416 1.127.64 1.767.64.144 0 .288-.012.43-.035.54-.072 1.016-.277 1.423-.61 1.653-1.35 3.08-2.508 4.44-3.6.263.025.542.05.73.063v.003c.583.038 1.11.057 1.612.057 5.234 0 10.18-1.666 13.926-4.692 3.92-3.166 6.08-7.428 6.08-12.002 0-4.573-2.16-8.835-6.08-12-3.746-3.027-8.692-4.693-13.926-4.693z" class="aocls-2"/><path fill="#fff" d="M39.72 37.64l-4.888-6.692v6.69h-2.98V26.08h3.067l4.68 6.36v-6.36h2.998v11.56H39.72zM21.642 26.077h8.476v2.6h-5.495v1.802h5.374v2.6h-5.374v1.96h5.495v2.6h-8.476V26.077z" class="aocls-2"/></svg><svg preserveAspectRatio="xMidYMid" width="64" height="64" viewBox="0 0 64 64" id="ethics" x="192" y="192"><path fill="#fff" d="M31.93 27.607c1.152-.778 2.075-1.418 2.075-2.378 0-1.008-.738-1.786-2.72-1.786-1.752 0-3.55.915-4.84 2.38l-4.426-5.032c2.534-2.836 6.36-4.3 10.14-4.3 6.085 0 9.866 2.928 9.866 7.318 0 3.797-2.35 5.535-4.38 7.044-1.475 1.052-2.767 1.968-2.767 3.43 0 .78.324 1.465.693 1.83l-6.133 1.557c-.874-1.054-1.43-2.47-1.43-4.208 0-3.156 2.214-4.71 3.92-5.855zm.323 11.8c2.35 0 4.333 1.966 4.333 4.3 0 2.333-1.983 4.298-4.333 4.298s-4.334-1.965-4.334-4.298c0-2.334 1.982-4.3 4.333-4.3z" class="apcls-2"/></svg><svg preserveAspectRatio="xMidYMid" width="64" height="64" viewBox="0 0 64 64" id="euskara" x="256"><path fill="#fff" d="M32.002 18.01c9.522 0 17.242 6.235 17.242 13.926 0 7.692-7.72 13.927-17.242 13.927-.482 0-.957-.02-1.43-.05-.015 0-1.315-.126-1.34-.13-.028-.002-.058-.004-.09-.004-.207 0-.466.07-.606.183-1.712 1.372-3.363 2.713-5.062 4.1-.016.014-.044.01-.107.022v-.415c0-1.79-.003-3.58.002-5.37 0-.207-.043-.22-.26-.33-.004 0-.01-.004-.014-.007-4.584-2.237-7.77-6.15-8.265-10.687l-.02-.14c-.007-.067-.008-.133-.01-.2-.025-.297-.04-.597-.04-.9 0-7.69 7.72-13.926 17.242-13.926m0-2.767c-5.235 0-10.18 1.666-13.927 4.692-3.92 3.166-6.08 7.428-6.08 12 0 .332.015.67.045 1.063.003.084.01.215.028.372.006.052.014.104.022.156.553 4.908 3.698 9.36 8.514 12.143v4.316c0 .822.365 1.602.996 2.128.5.416 1.127.64 1.767.64.144 0 .288-.012.43-.035.54-.072 1.016-.277 1.423-.61 1.653-1.35 3.08-2.508 4.44-3.6.263.025.542.05.73.063v.003c.583.038 1.11.057 1.612.057 5.234 0 10.18-1.666 13.926-4.692 3.92-3.166 6.08-7.428 6.08-12.002 0-4.573-2.16-8.835-6.08-12-3.746-3.027-8.692-4.693-13.926-4.693z" class="aqcls-2"/><path fill="#fff" d="M37.122 38.084c-3.71 0-5.477-2.046-5.477-4.89v-6.88h3.033v6.777c0 1.37.832 2.36 2.444 2.36 1.595 0 2.427-.99 2.427-2.36v-6.776h3.015v6.864c0 2.878-1.733 4.906-5.443 4.906zm-15.686-11.77h8.476v2.6h-5.495v1.803h5.374v2.6h-5.373v1.96h5.495v2.6h-8.476V26.313z" class="aqcls-2"/></svg><svg preserveAspectRatio="xMidYMid" width="64" height="64" viewBox="0 0 64 64" id="french" x="256" y="64"><path fill="#fff" d="M32.002 18.01c9.522 0 17.242 6.235 17.242 13.926 0 7.692-7.72 13.927-17.242 13.927-.482 0-.957-.02-1.43-.05-.015 0-1.315-.126-1.34-.13-.028-.002-.058-.004-.09-.004-.207 0-.466.07-.606.183-1.712 1.372-3.363 2.713-5.062 4.1-.016.014-.044.01-.107.022v-.415c0-1.79-.003-3.58.002-5.37 0-.207-.043-.22-.26-.33-.004 0-.01-.004-.014-.007-4.584-2.237-7.77-6.15-8.265-10.687l-.02-.14c-.007-.067-.008-.133-.01-.2-.025-.297-.04-.597-.04-.9 0-7.69 7.72-13.926 17.242-13.926m0-2.767c-5.235 0-10.18 1.666-13.927 4.692-3.92 3.166-6.08 7.428-6.08 12 0 .332.015.67.045 1.063.003.084.01.215.028.372.006.052.014.104.022.156.553 4.908 3.698 9.36 8.514 12.143v4.316c0 .822.365 1.602.996 2.128.5.416 1.127.64 1.767.64.144 0 .288-.012.43-.035.54-.072 1.016-.277 1.423-.61 1.653-1.35 3.08-2.508 4.44-3.6.263.025.542.05.73.063v.003c.583.038 1.11.057 1.612.057 5.234 0 10.18-1.666 13.926-4.692 3.92-3.166 6.08-7.428 6.08-12.002 0-4.573-2.16-8.835-6.08-12-3.746-3.027-8.692-4.693-13.926-4.693z" class="arcls-2"/><path fill="#fff" d="M39.86 33.63l2.358 4.246h-3.414l-1.942-3.883h-1.525v3.883h-2.982V26.314h5.79c2.565 0 4.02 1.7 4.02 3.848 0 2.01-1.212 3.085-2.304 3.467zm-2.166-4.716h-2.357v2.48h2.357c.798 0 1.44-.435 1.44-1.25 0-.797-.642-1.23-1.44-1.23zM25.25 30.717h5.373v2.6H25.25v4.56h-2.982V26.313h8.476v2.6H25.25v1.803z" class="arcls-2"/></svg><svg preserveAspectRatio="xMidYMid" width="64" height="64" viewBox="0 0 64 64" id="galego" x="256" y="128"><path fill="#fff" d="M32.002 18.01c9.522 0 17.242 6.235 17.242 13.926 0 7.692-7.72 13.927-17.242 13.927-.482 0-.957-.02-1.43-.05-.015 0-1.315-.126-1.34-.13-.028-.002-.058-.004-.09-.004-.207 0-.466.07-.606.183-1.712 1.372-3.363 2.713-5.062 4.1-.016.014-.044.01-.107.022v-.415c0-1.79-.003-3.58.002-5.37 0-.207-.043-.22-.26-.33-.004 0-.01-.004-.014-.007-4.584-2.237-7.77-6.15-8.265-10.687l-.02-.14c-.007-.067-.008-.133-.01-.2-.025-.297-.04-.597-.04-.9 0-7.69 7.72-13.926 17.242-13.926m0-2.767c-5.235 0-10.18 1.666-13.927 4.692-3.92 3.166-6.08 7.428-6.08 12 0 .332.015.67.045 1.063.003.084.01.215.028.372.006.052.014.104.022.156.553 4.908 3.698 9.36 8.514 12.143v4.316c0 .822.365 1.602.996 2.128.5.416 1.127.64 1.767.64.144 0 .288-.012.43-.035.54-.072 1.016-.277 1.423-.61 1.653-1.35 3.08-2.508 4.44-3.6.263.025.542.05.73.063v.003c.583.038 1.11.057 1.612.057 5.234 0 10.18-1.666 13.926-4.692 3.92-3.166 6.08-7.428 6.08-12.002 0-4.573-2.16-8.835-6.08-12-3.746-3.027-8.692-4.693-13.926-4.693z" class="ascls-2"/><path fill="#fff" d="M34.704 37.876V26.314h2.982v8.962h4.645v2.6h-7.626zm-6.812.208c-3.45 0-6.257-2.306-6.257-5.98 0-3.675 2.808-5.98 6.257-5.98 2.583 0 4.143 1.37 4.94 2.807l-2.495 1.3c-.434-.76-1.318-1.472-2.445-1.472-1.89 0-3.224 1.44-3.224 3.345 0 1.89 1.335 3.346 3.224 3.346.85 0 1.717-.348 2.133-.694v-.902h-2.6v-2.617h5.58v4.593c-1.23 1.37-2.928 2.254-5.113 2.254z" class="ascls-2"/></svg><svg preserveAspectRatio="xMidYMid" width="64" height="64" viewBox="0 0 64 64" id="geography" x="256" y="192"><path fill="#fff" d="M32 52c-11.046 0-20-8.954-20-20s8.954-20 20-20c7.31 0 13.702 3.924 17.19 9.78.136.13.232.295.278.482C51.078 25.144 52 28.464 52 32c0 11.046-8.954 20-20 20zm-2.8-2.224c-2.756-1.733-5.066-4.246-6.68-7.276h-5.126c2.75 3.82 6.955 6.516 11.806 7.276zM24.99 21.5H31v-5.55c-2.387 1.284-4.447 3.196-6.01 5.55zM31 31v-7.5h-7.167c-1.118 2.25-1.818 4.792-1.984 7.5H31zm-9.168 2c.1 2.695.724 5.235 1.768 7.5H31V33h-9.168zm2.837 9.5c1.595 2.583 3.776 4.675 6.33 6.05V42.5h-6.33zm-8.522-2H21.6c-.93-2.303-1.482-4.833-1.57-7.5h-6c.148 2.705.905 5.243 2.118 7.5zm.03-17.058c-1.23 2.27-2 4.83-2.148 7.558h6.017c.148-2.676.76-5.21 1.755-7.5H16.5c-.113 0-.22-.023-.322-.058zm1.216-1.942h5.415c1.813-3.188 4.4-5.775 7.478-7.41-5.31.5-9.94 3.308-12.894 7.41zM49.97 33h-6c-.088 2.667-.64 5.197-1.57 7.5h5.452c1.213-2.257 1.97-4.795 2.118-7.5zm-3.364 9.5H41.48c-1.614 3.03-3.922 5.543-6.68 7.275 4.852-.76 9.056-3.457 11.806-7.275zM33 48.55c2.554-1.374 4.736-3.467 6.332-6.05H33v6.05zm0-8.05h7.4c1.044-2.265 1.67-4.805 1.768-7.5H33v7.5zm0-9.5h9.15c-.165-2.708-.865-5.25-1.983-7.5H33V31zm0-9.5h6.01c-1.563-2.353-3.623-4.265-6.01-5.55v5.55zm.71-7.41c3.078 1.635 5.666 4.222 7.48 7.41h5.416c-2.954-4.102-7.586-6.91-12.896-7.41zm14.142 9.41h-5.654c.995 2.29 1.607 4.824 1.755 7.5h6.017c-.148-2.705-.905-5.243-2.118-7.5z" class="atcls-2"/></svg><svg preserveAspectRatio="xMidYMid" width="64" height="64" viewBox="0 0 64 64" id="geology" y="256"><path fill="#fff" d="M46.214 28.268L44.35 27.19c-.516-.296-.395-1.47-.862-1.74-.466-.268-2.425-.156-1.937.126L39.687 24.5l-14 24.247c-.594 1.03-1.91 1.383-2.94.788s-1.384-1.912-.79-2.942l14-24.248c-.515-.297-.692-.956-.395-1.47 0 0-.154-3.7-11.19-6.462 2.106-3.646 9.987-.203 14.62 2.25.067.02.133.05.196.087l.403.232c1.716.932 2.86 1.652 2.86 1.652l2.332 1.346c-.488-.28.382 1.465.86 1.74.478.277 1.422-.422 1.938-.124l1.865 1.077c.515.297.69.956.394 1.47l-2.155 3.73c-.297.516-.956.693-1.47.395z" class="aucls-2"/></svg><svg preserveAspectRatio="xMidYMid" width="64" height="64" viewBox="0 0 64 64" id="geometry" x="64" y="256"><path fill="#fff" d="M45.7 31.766c-1.02 2.29-2.66 4.333-4.838 5.87l2.058 7.432c.348 1.28-1.114 5.937-1.114 5.937l-5.42-11.227c-2.6.75-5.31.78-7.83.105L23.16 51.005s-1.46-4.656-1.112-5.937l4.593-17.344c.102-.87.227-1.48.37-1.898-.39-.793-.617-1.68-.617-2.62 0-2.463 1.504-4.576 3.655-5.503V15.4c0-1.327 1.09-2.403 2.436-2.403 1.346 0 2.436 1.076 2.436 2.402v2.303c2.15.927 3.655 3.04 3.655 5.502 0 1.03-.264 1.997-.727 2.843.154.403.31.938.48 1.676l1.884 7.372c1.416-1.18 2.51-2.635 3.237-4.24.127-.282.958-.86.958-.86l1.594 1.04s-.194.49-.3.73zm-9.907 5.697l-2.14-8.367c-.378.072-.77.113-1.17.113-.4 0-.79-.042-1.168-.114l-2.178 8.512c2.118.602 4.442.533 6.656-.145zm-3.31-17.86c-2.017 0-3.654 1.612-3.654 3.602 0 1.99 1.636 3.602 3.654 3.602s3.654-1.613 3.654-3.602c0-1.99-1.636-3.603-3.654-3.603z" class="avcls-2"/></svg><svg preserveAspectRatio="xMidYMid" width="64" height="64" viewBox="0 0 64 64" id="german" x="128" y="256"><path fill="#fff" d="M32.002 18.01c9.522 0 17.242 6.235 17.242 13.926 0 7.692-7.72 13.927-17.242 13.927-.482 0-.957-.02-1.43-.05-.015 0-1.315-.126-1.34-.13-.028-.002-.058-.004-.09-.004-.207 0-.466.07-.606.183-1.712 1.372-3.363 2.713-5.062 4.1-.016.014-.044.01-.107.022v-.415c0-1.79-.003-3.58.002-5.37 0-.207-.043-.22-.26-.33-.004 0-.01-.004-.014-.007-4.584-2.237-7.77-6.15-8.265-10.687l-.02-.14c-.007-.067-.008-.133-.01-.2-.025-.297-.04-.597-.04-.9 0-7.69 7.72-13.926 17.242-13.926m0-2.767c-5.235 0-10.18 1.666-13.927 4.692-3.92 3.166-6.08 7.428-6.08 12 0 .332.015.67.045 1.063.003.084.01.215.028.372.006.052.014.104.022.156.553 4.908 3.698 9.36 8.514 12.143v4.316c0 .822.365 1.602.996 2.128.5.416 1.127.64 1.767.64.144 0 .288-.012.43-.035.54-.072 1.016-.277 1.423-.61 1.653-1.35 3.08-2.508 4.44-3.6.263.025.542.05.73.063v.003c.583.038 1.11.057 1.612.057 5.234 0 10.18-1.666 13.926-4.692 3.92-3.166 6.08-7.428 6.08-12.002 0-4.573-2.16-8.835-6.08-12-3.746-3.027-8.692-4.693-13.926-4.693z" class="awcls-2"/><path fill="#fff" d="M42.712 35.276v2.6h-8.476V26.314h8.476v2.6h-5.494v1.803h5.373v2.6H37.22v1.96h5.494zm-16.206 2.6h-4.87V26.314h4.852c3.64 0 6.258 2.184 6.258 5.772s-2.617 5.79-6.24 5.79zm0-8.962h-1.89v6.362h1.872c2.03 0 3.207-1.474 3.207-3.19 0-1.785-1.074-3.172-3.19-3.172z" class="awcls-2"/></svg><svg preserveAspectRatio="xMidYMid" width="64" height="64" viewBox="0 0 64 64" id="grammar" x="192" y="256"><path fill="#fff" d="M28.09 49.565l-.83-2.382c3.892-1.588 6.124-3.705 6.124-6.616 0-2.805-2.128-4.657-5.034-5.346-.364 0-.935-.687-.935-2.063 0-2.01 1.92-3.334 3.893-3.334h.104c2.854 0 7.318 3.176 7.318 8.627 0 6.245-5.605 9.686-10.64 11.115zM31.854 23.5c-2.174 0-3.937-1.79-3.937-4s1.763-4 3.937-4c2.175 0 3.938 1.79 3.938 4s-1.763 4-3.938 4z" class="axcls-2"/></svg><svg preserveAspectRatio="xMidYMid" width="64" height="64" viewBox="0 0 64 64" id="health" x="256" y="256"><path fill="#fff" d="M32 24.774c-4.87-5.383-14-2.525-14 5.02 0 7.597 8.33 11.26 14 16.708 5.673-5.448 14-9.11 14-16.707 0-7.546-9.127-10.404-14-5.02z" class="aycls-2"/></svg><svg preserveAspectRatio="xMidYMid" width="64" height="64" viewBox="0 0 64 64" id="history" x="320"><path fill="#fff" d="M41.555 29c-2.588 0-4.783-1.67-5.6-4h-7.91c-.817 2.33-3.012 4-5.6 4-3.283 0-5.945-2.686-5.945-6s2.662-6 5.945-6c.19 0 .374.01.558.028.15-.017.302-.028.458-.028h15.977c.326 0 .64.044.942.118.38-.077.772-.118 1.175-.118 3.283 0 5.945 2.686 5.945 6s-2.662 6-5.945 6zM22.5 19c-2.21 0-4 1.79-4 4s1.79 4 4 4 4-1.79 4-4-1.79-4-4-4zm19 0c-2.21 0-4 1.79-4 4s1.79 4 4 4 4-1.79 4-4-1.79-4-4-4zm0 6.5c-1.38 0-2.5-1.12-2.5-2.5s1.12-2.5 2.5-2.5S44 21.62 44 23s-1.12 2.5-2.5 2.5zm-19 0c-1.38 0-2.5-1.12-2.5-2.5s1.12-2.5 2.5-2.5S25 21.62 25 23s-1.12 2.5-2.5 2.5zM22 43h.5V30.475c2.946-.183 5.456-1.955 6.685-4.475h5.63c1.23 2.52 3.74 4.292 6.685 4.475V43h.5c1.105 0 2 .895 2 2s-.895 2-2 2H22c-1.105 0-2-.895-2-2s.895-2 2-2zm14-3c0 .552.448 1 1 1s1-.448 1-1v-6c0-.552-.448-1-1-1s-1 .448-1 1v6zm-5 0c0 .552.448 1 1 1s1-.448 1-1v-8c0-.552-.448-1-1-1s-1 .448-1 1v8zm-5 0c0 .552.448 1 1 1s1-.448 1-1v-6c0-.552-.448-1-1-1s-1 .448-1 1v6z" class="azcls-2"/></svg><svg preserveAspectRatio="xMidYMid" width="64" height="64" viewBox="0 0 64 64" id="informatics" x="320" y="64"><path fill="#fff" d="M38.464 40.43v-3.488l11.038-4.32-11.038-4.383V24.75l14.366 6.08v3.55L38.464 40.43zm-12 3.52l7.583-22.622h3.488l-7.583 22.62h-3.488zM11.168 30.83l14.366-6.078v3.487l-11.006 4.383 11.006 4.32v3.487l-14.366-6.048v-3.55z" class="bacls-2"/></svg><svg preserveAspectRatio="xMidYMid" width="64" height="64" viewBox="0 0 64 64" id="italian" x="320" y="128"><path fill="#fff" d="M45.928 43.938c-3.746 3.026-8.692 4.692-13.926 4.692-.502 0-1.03-.02-1.61-.057v-.002c-.19-.012-.47-.037-.733-.062-1.36 1.092-2.787 2.25-4.44 3.6-.407.333-.884.538-1.422.61-.143.023-.287.034-.43.034-.64 0-1.267-.223-1.768-.64-.63-.525-.996-1.305-.996-2.127V48.345 45.67c-4.816-2.785-7.96-7.236-8.514-12.144-.008-.052-.016-.104-.022-.156-.02-.157-.025-.288-.028-.372-.03-.392-.044-.73-.044-1.062 0-4.573 2.16-8.835 6.08-12 3.745-3.027 8.69-4.693 13.926-4.693 5.234 0 10.18 1.666 13.926 4.692 3.92 3.166 6.08 7.428 6.08 12 0 4.575-2.16 8.837-6.08 12.003zM32.002 18.01c-9.523 0-17.243 6.235-17.243 13.926 0 .303.015.603.04.9.002.067.003.133.01.2l.02.14c.496 4.537 3.682 8.45 8.266 10.687l.015.008c.217.11.26.123.26.33-.006 1.79-.003 3.58-.003 5.37v.415c.063-.012.09-.008.107-.02 1.7-1.39 3.35-2.73 5.062-4.102.14-.112.4-.184.607-.184.03 0 .06 0 .09.004.024.003 1.324.128 1.34.128.472.03.947.05 1.43.05 9.52 0 17.24-6.234 17.24-13.926 0-7.69-7.72-13.926-17.24-13.926zm4.028 19.866h-2.98v-8.962h-3.243v-2.6h9.447v2.6H36.03v8.962zM25.405 26.314h2.98v11.562h-2.98V26.314z" class="bbcls-2"/></svg><svg preserveAspectRatio="xMidYMid" width="64" height="64" viewBox="0 0 64 64" id="japanese" x="320" y="192"><path fill="#fff" d="M32.002 18.01c9.522 0 17.242 6.235 17.242 13.926 0 7.692-7.72 13.927-17.242 13.927-.482 0-.957-.02-1.43-.05-.015 0-1.315-.126-1.34-.13-.028-.002-.058-.004-.09-.004-.207 0-.466.07-.606.183-1.712 1.372-3.363 2.713-5.062 4.1-.016.014-.044.01-.107.022v-.415c0-1.79-.003-3.58.002-5.37 0-.207-.043-.22-.26-.33-.004 0-.01-.004-.014-.007-4.584-2.237-7.77-6.15-8.265-10.687l-.02-.14c-.007-.067-.008-.133-.01-.2-.025-.297-.04-.597-.04-.9 0-7.69 7.72-13.926 17.242-13.926m0-2.767c-5.235 0-10.18 1.666-13.927 4.692-3.92 3.166-6.08 7.428-6.08 12 0 .332.015.67.045 1.063.003.084.01.215.028.372.006.052.014.104.022.156.553 4.908 3.698 9.36 8.514 12.143v4.316c0 .822.365 1.602.996 2.128.5.416 1.127.64 1.767.64.144 0 .288-.012.43-.035.54-.072 1.016-.277 1.423-.61 1.653-1.35 3.08-2.508 4.44-3.6.263.025.542.05.73.063v.003c.583.038 1.11.057 1.612.057 5.234 0 10.18-1.666 13.926-4.692 3.92-3.166 6.08-7.428 6.08-12.002 0-4.573-2.16-8.835-6.08-12-3.746-3.027-8.692-4.693-13.926-4.693z" class="bccls-2"/><path fill="#fff" d="M38.795 37.876l-.572-1.664h-4.56l-.57 1.664h-3.38l4.35-11.562h3.76l4.352 11.562h-3.38zm-2.843-8.615l-1.473 4.35h2.928l-1.456-4.35zM25.24 38.085c-1.16 0-2.305-.278-3.172-1.04l1.248-2.27c.416.346.97.675 1.664.675.936 0 1.543-.608 1.543-1.58v-7.556h2.98v7.592c0 2.86-1.732 4.178-4.263 4.178z" class="bccls-2"/></svg><svg preserveAspectRatio="xMidYMid" width="64" height="64" viewBox="0 0 64 64" id="kazach" x="320" y="256"><path fill="#fff" d="M32.002 18.01c9.522 0 17.242 6.235 17.242 13.926 0 7.692-7.72 13.927-17.242 13.927-.482 0-.957-.02-1.43-.05-.015 0-1.315-.126-1.34-.13-.028-.002-.058-.004-.09-.004-.207 0-.466.07-.606.183-1.712 1.372-3.363 2.713-5.062 4.1-.016.014-.044.01-.107.022v-.415c0-1.79-.003-3.58.002-5.37 0-.207-.043-.22-.26-.33-.004 0-.01-.004-.014-.007-4.584-2.237-7.77-6.15-8.265-10.687l-.02-.14c-.007-.067-.008-.133-.01-.2-.025-.297-.04-.597-.04-.9 0-7.69 7.72-13.926 17.242-13.926m0-2.767c-5.235 0-10.18 1.666-13.927 4.692-3.92 3.166-6.08 7.428-6.08 12 0 .332.015.67.045 1.063.003.084.01.215.028.372.006.052.014.104.022.156.553 4.908 3.698 9.36 8.514 12.143v4.316c0 .822.365 1.602.996 2.128.5.416 1.127.64 1.767.64.144 0 .288-.012.43-.035.54-.072 1.016-.277 1.423-.61 1.653-1.35 3.08-2.508 4.44-3.6.263.025.542.05.73.063v.003c.583.038 1.11.057 1.612.057 5.234 0 10.18-1.666 13.926-4.692 3.92-3.166 6.08-7.428 6.08-12.002 0-4.573-2.16-8.835-6.08-12-3.746-3.027-8.692-4.693-13.926-4.693z" class="bdcls-2"/><path fill="#fff" d="M43.493 37.876h-3.658l-3.033-4.35-.78.97v3.38H33.04V26.314h2.982v4.75l3.553-4.75h3.675l-4.49 5.408 4.733 6.154zm-14.994 0l-3.034-4.35-.78.97v3.38h-2.982V26.314h2.982v4.75l3.553-4.75h3.674l-4.49 5.408 4.733 6.154H28.5z" class="bdcls-2"/></svg><svg preserveAspectRatio="xMidYMid" width="64" height="64" viewBox="0 0 64 64" id="korean"><path fill="#fff" d="M32.002 18.01c9.522 0 17.242 6.235 17.242 13.926 0 7.692-7.72 13.927-17.242 13.927-.482 0-.957-.02-1.43-.05-.015 0-1.315-.126-1.34-.13-.028-.002-.058-.004-.09-.004-.207 0-.466.07-.606.183-1.712 1.372-3.363 2.713-5.062 4.1-.016.014-.044.01-.107.022v-.415c0-1.79-.003-3.58.002-5.37 0-.207-.043-.22-.26-.33-.004 0-.01-.004-.014-.007-4.584-2.237-7.77-6.15-8.265-10.687l-.02-.14c-.007-.067-.008-.133-.01-.2-.025-.297-.04-.597-.04-.9 0-7.69 7.72-13.926 17.242-13.926m0-2.767c-5.235 0-10.18 1.666-13.927 4.692-3.92 3.166-6.08 7.428-6.08 12 0 .332.015.67.045 1.063.003.084.01.215.028.372.006.052.014.104.022.156.553 4.908 3.698 9.36 8.514 12.143v4.316c0 .822.365 1.602.996 2.128.5.416 1.127.64 1.767.64.144 0 .288-.012.43-.035.54-.072 1.016-.277 1.423-.61 1.653-1.35 3.08-2.508 4.44-3.6.263.025.542.05.73.063v.003c.583.038 1.11.057 1.612.057 5.234 0 10.18-1.666 13.926-4.692 3.92-3.166 6.08-7.428 6.08-12.002 0-4.573-2.16-8.835-6.08-12-3.746-3.027-8.692-4.693-13.926-4.693z" class="becls-2"/><path fill="#fff" d="M37.287 38.084c-3.536 0-6.188-2.462-6.188-5.98 0-3.52 2.65-5.98 6.187-5.98 3.536 0 6.17 2.46 6.17 5.98 0 3.518-2.634 5.98-6.17 5.98zm0-9.326c-1.907 0-3.155 1.456-3.155 3.345 0 1.872 1.248 3.346 3.155 3.346 1.907 0 3.138-1.475 3.138-3.347 0-1.89-1.23-3.345-3.138-3.345zm-5.72 9.118H27.91l-3.034-4.35-.78.97v3.38h-2.98V26.314h2.98v4.75l3.554-4.75h3.675l-4.49 5.408 4.732 6.154z" class="becls-2"/></svg><svg preserveAspectRatio="xMidYMid" width="64" height="64" viewBox="0 0 64 64" id="language" x="64" y="320"><path fill="#fff" d="M47.1 18.252c-.25-.19-.577-.25-.878-.16l-14.472 4.25-14.47-4.25c-.303-.09-.63-.03-.88.16-.252.19-.4.487-.4.804V43.16c0 .447.293.84.718.965l14.752 4.333c.092.027.187.04.28.04.095 0 .188-.018.28-.045v.005l14.752-4.333c.426-.126.72-.518.72-.965V19.056c0-.317-.15-.614-.4-.804zM31 45.998L18 42.408V20.395L31 24.286v21.712zm14.503-3.59L33 45.997V24.385L37.5 23v4.5c0 .087.177.125.257.16.027.01.056.017.084.017.055 0 .11-.02.15-.06l1.573-1.652 1.573 1.51c.063.06.154.076.233.042.08-.034.13-.112.13-.2v-5.686l4.003-1.234v22.01z" class="bfcls-2"/></svg><svg preserveAspectRatio="xMidYMid" width="64" height="64" viewBox="0 0 64 64" id="latin" x="128" y="320"><path fill="#fff" d="M42.407 41.497c-1.913 0-3.603-.302-5.87-1.12V23.32c0-1.83-.2-2.11-2.046-2.262v-.97c1.646-.193 4.38-.602 6.25-1.098v9.068l1.244-.582c.934-.41 1.49-.58 2.135-.58 3.98 0 6.87 3.1 6.87 6.59 0 4.565-3.824 8.01-8.583 8.01zm-.267-12.535c-.623 0-.867.065-1.4.194v8.55c0 .41.066.797.177 1.012.178.496 1 1.465 2.068 1.508 1.8.02 3.425-1.788 3.425-5.707 0-4.03-2.202-5.558-4.27-5.558zm-17.235 11.05c1.98-.325 2.113-.69 1.624-2.026-.335-.926-.847-2.283-1.402-3.64h-6.45c-.377 1.034-.844 2.197-1.222 3.468-.49 1.443-.423 1.895 2 2.197v1.12H12.01l.044-1.12c2.268-.258 2.624-.646 3.758-3.36l6.827-16.066 1.712-.41c2.134 5.493 4.202 10.985 6.382 16.37 1.112 2.777 1.557 3.208 3.692 3.467v1.12h-9.52v-1.12zm-2.89-14.13h-.09c-.933 2.262-1.823 4.545-2.668 6.784h5.248l-2.49-6.784z" class="bgcls-2"/></svg><svg preserveAspectRatio="xMidYMid" width="64" height="64" viewBox="0 0 64 64" id="law" x="192" y="320"><path fill="#fff" d="M43 40.5c-3.86 0-7-2.69-7-6 0-.552.448-1 1-1h12c.552 0 1 .448 1 1 0 3.31-3.14 6-7 6zm4.5-8.304c-.478.276-1.09.112-1.366-.366L43 25.42l-3.134 6.41c-.276.478-.888.642-1.366.366-.478-.276-.642-.888-.366-1.366l3.5-7.16c.04-.068.098-.115.15-.17H34v19.115c4.564.52 8 2.66 8 3.385 0 .828-4.477 1.5-10 1.5s-10-.672-10-1.5c0-.726 3.436-2.865 8-3.385V23.5h-7.784c.052.055.11.102.15.17l3.5 7.16c.276.478.112 1.09-.366 1.366s-1.09.112-1.366-.366L21 25.42l-3.134 6.41c-.276.478-.888.642-1.366.366-.478-.276-.642-.888-.366-1.366l3.5-7.16c.044-.076.108-.13.167-.19-1.008-.1-1.8-.943-1.8-1.98 0-1.105.895-2 2-2h10v-2c0-1.105.895-2 2-2s2 .895 2 2v2h10c1.105 0 2 .895 2 2 0 1.037-.792 1.88-1.8 1.98.058.06.122.114.166.19l3.5 7.16c.276.478.112 1.09-.366 1.366zM28 34.5c0 3.31-3.14 6-7 6s-7-2.69-7-6c0-.552.448-1 1-1h12c.552 0 1 .448 1 1z" class="bhcls-2"/></svg><svg preserveAspectRatio="xMidYMid" width="64" height="64" viewBox="0 0 64 64" id="life-science" x="256" y="320"><path fill="#fff" d="M29.416 54.003c-.356-.225-.8-.38-1.05-.69-.69-.858-.396-1.93.613-2.547.61-.372 1.21-.76 1.92-1.207-5.54-2.94-10.978-5.82-16.518-8.758-.02.442-.04.814-.052 1.187-.017.564-.162 1.074-.62 1.45-.523.427-1.1.523-1.726.256-.59-.252-1.003-.712-.977-1.343.054-1.285.128-2.58.342-3.844.363-2.16 1.18-4.15 2.48-5.936 1.33-1.828 3.123-2.857 5.315-3.28 2.048-.397 4.116-.456 6.175-.282 4.16.35 8.306.843 12.466 1.183 1.926.158 3.87.094 5.805.128.095.002.19-.024.407-.054-4.248-3.153-8.407-6.24-12.64-9.38.024 1.045.258 1.952.71 2.78.362.664.807 1.285 1.253 1.898.626.86.566 1.818-.195 2.455-.6.502-1.507.512-2.09-.022-.868-.796-1.5-1.776-1.99-2.834-1.533-3.304-1.51-6.57.352-9.753.703-1.2 1.78-2.06 2.848-2.905.877-.692 1.795-1.34 2.735-1.942.42-.27.94-.383 1.414-.568h.086c.063.032.122.076.188.093.69.18 1.128.613 1.26 1.313.13.7-.12 1.268-.694 1.686-.265.192-.543.365-.86.577l15.083 8.705c.074-.308.13-.57.2-.827.335-1.23 1.634-1.75 2.62-.997.327.25.49.71.726 1.076v.43c-.125.513-.23 1.032-.38 1.538-.73 2.502-2.002 4.71-3.673 6.697-.846 1.005-1.767 1.91-3.008 2.444-1.873.805-3.847 1.002-5.85 1.018-3.782.032-7.52-.53-11.274-.884-2.626-.248-5.262-.39-7.894-.563-.45-.03-.907.033-1.36.053-.01.034-.02.067-.028.1l12.94 8.826c-.04-.43-.06-.756-.1-1.08-.127-1.01-.29-2.014-.384-3.025-.054-.565.218-1.036.69-1.353 1.123-.758 2.462-.096 2.65 1.31.202 1.507.436 3.01.564 4.522.125 1.47.173 2.96-.352 4.38-1.383 3.752-4.096 6.243-7.61 7.963h-.518zm4.788-8.36c.14-.694.285-1.302.366-1.918.022-.16-.113-.417-.255-.514-4.99-3.42-9.99-6.83-14.994-10.235-.126-.086-.328-.16-.46-.123-1.008.287-1.762.914-2.36 1.814l17.704 10.977zm-.896 1.406c-5.932-3.68-11.795-7.313-17.75-11.006-.29.92-.533 1.753-.816 2.574-.122.354-.002.498.302.658 5.575 2.944 11.144 5.898 16.715 8.85.136.072.277.138.453.225l1.095-1.3zm17.66-23.032l-4.046-2.336c-3.9-2.25-7.8-4.504-11.703-6.752-.126-.072-.34-.176-.413-.125-.48.344-.932.725-1.432 1.125L49.54 26.665l1.43-2.647zm-2.473 3.957L32.215 17.16c-.207.492-.386.937-.582 1.375-.13.286-.05.46.205.644 1.012.728 2.01 1.48 3.012 2.224 3.675 2.727 7.352 5.453 11.023 8.187.235.177.414.198.69.08.814-.35 1.336-1.01 1.932-1.695z" class="bicls-2"/></svg><svg preserveAspectRatio="xMidYMid" width="64" height="64" viewBox="0 0 64 64" id="literature" x="320" y="320"><path fill="#fff" d="M40 17.498H24c-.553 0-1 .447-1 .998v27.43c0 .4.238.76.606.92.127.053.26.08.393.08.25 0 .5-.097.69-.277L32 39.686l7.31 6.962c.29.275.716.35 1.084.195.367-.158.606-.518.606-.918v-27.43c0-.552-.447-1-1-1z" class="bjcls-2"/></svg><svg preserveAspectRatio="xMidYMid" width="64" height="64" viewBox="0 0 64 64" id="logic" x="384"><path fill="#fff" d="M46.966 23.37c-.005-.02-.012-.042-.02-.062-.02-.064-.047-.124-.08-.18-.008-.016-.015-.032-.024-.046-.044-.068-.095-.13-.153-.186-.014-.012-.03-.022-.043-.034-.05-.044-.106-.082-.166-.114-.01-.007-.02-.016-.03-.022L32.2 14.592c-.284-.14-.617-.14-.9 0l-13.75 8.134c-.01.006-.02.015-.03.022-.06.032-.116.07-.167.114-.014.012-.028.022-.04.034-.06.056-.11.118-.155.186-.01.014-.016.03-.024.045-.033.057-.06.117-.08.18l-.02.063c-.02.08-.034.16-.034.247v16.255c0 .02.004.038.006.058.002.036.004.07.01.106.006.032.013.063.022.093.008.03.017.06.028.09.012.032.025.06.04.09.014.03.028.057.045.084.018.027.036.052.055.077.02.028.04.053.063.078.022.023.045.044.068.065.025.022.05.042.075.062.03.02.06.038.09.056.017.01.032.024.05.033L31.3 48.396l.026.01c.048.022.098.04.15.054.02.005.037.013.057.017.07.016.144.025.22.025.074 0 .146-.01.217-.025.02-.004.038-.012.057-.017.052-.015.102-.032.15-.054l.025-.01 14.25-7.633c.337-.17.55-.514.55-.89V23.616c0-.086-.014-.168-.034-.247zM31.75 16.6l12.023 7.017-12.024 6.88-11.523-6.88L31.75 16.6zm-12.753 8.633l11.997 7.242v13.527l-11.997-6.746V25.233zm14.007 20.77V32.474l12-7.242v14.023l-12 6.746z" class="bkcls-2"/></svg><svg preserveAspectRatio="xMidYMid" width="64" height="64" viewBox="0 0 64 64" id="mathematics" x="384" y="64"><path fill="#fff" d="M47.426 22.322h-7.768L38.97 32.36c-.138 1.762-.205 3.278-.205 4.542 0 3.076.366 4.952 1.1 5.63.778.678 1.65 1.016 2.612 1.016 2.155 0 3.438-1.333 3.85-4h1.17c-.78 5.968-3.255 8.952-7.426 8.952-1.97 0-3.552-.554-4.743-1.66-1.19-1.11-1.788-2.838-1.788-5.19 0-.768.057-1.967.17-3.594.115-1.628.287-3.684.517-6.17l.893-9.564h-7.08c-.228 4.115-.492 7.608-.79 10.48-.298 2.87-.607 5.254-.928 7.153-.64 3.708-1.374 6.103-2.2 7.19-.733.903-1.81 1.355-3.23 1.355-1.01 0-1.868-.26-2.578-.78-.71-.52-1.066-1.254-1.066-2.204 0-.95.596-2.215 1.788-3.797.87-1.176 1.638-2.363 2.303-3.563.663-1.197 1.224-2.45 1.683-3.762.457-1.266.847-2.906 1.168-4.917.322-2.012.597-4.397.827-7.156H22.68c-1.835 0-3.23.408-4.194 1.22-.962.815-1.88 1.968-2.75 3.46H14.5c.687-2.35 1.534-4.295 2.543-5.832 1.053-1.537 2.107-2.532 3.162-2.984.962-.45 2.886-.68 5.774-.68h21.446v4.816z" class="blcls-2"/></svg><svg preserveAspectRatio="xMidYMid" width="64" height="64" viewBox="0 0 64 64" id="music" x="384" y="128"><path fill="#fff" d="M39.62 44.504h-3.287c-2.42 0-4.068-1.307-4.068-3.73s1.642-3.754 4.052-3.754h3.272c.825 0 1.932-.61 2.41-2.52V21.804l-15 3.8V45.5c0 2.432-1.766 3.5-4.235 3.5h-3.353c-2.47 0-3.912-.916-3.912-3.34C15.5 43.24 16.53 42 19 42h4c.847 0 1.522-.795 2-2.706v-18.81c0-.402.23-.738.56-.93v-.167l16.862-4.27c.126-.07.27-.117.46-.117.618 0 1.118.49 1.118 1.097v24.677c0 2.423-1.962 3.73-4.38 3.73z" class="bmcls-2"/></svg><svg preserveAspectRatio="xMidYMid" width="64" height="64" viewBox="0 0 64 64" id="otherlanguages" x="384" y="192"><path fill="#fff" d="M32.002 18.01c9.522 0 17.242 6.235 17.242 13.926 0 7.692-7.72 13.927-17.242 13.927-.482 0-.957-.02-1.43-.05-.015 0-1.315-.126-1.34-.13-.028-.002-.058-.004-.09-.004-.207 0-.466.07-.606.183-1.712 1.372-3.363 2.713-5.062 4.1-.016.014-.044.01-.107.022v-.415c0-1.79-.003-3.58.002-5.37 0-.207-.043-.22-.26-.33-.004 0-.01-.004-.014-.007-4.584-2.237-7.77-6.15-8.265-10.687l-.02-.14c-.007-.067-.008-.133-.01-.2-.025-.297-.04-.597-.04-.9 0-7.69 7.72-13.926 17.242-13.926m0-2.767c-5.235 0-10.18 1.666-13.927 4.692-3.92 3.166-6.08 7.428-6.08 12 0 .332.015.67.045 1.063.003.084.01.215.028.372.006.052.014.104.022.156.553 4.908 3.698 9.36 8.514 12.143v4.316c0 .822.365 1.602.996 2.128.5.416 1.127.64 1.767.64.144 0 .288-.012.43-.035.54-.072 1.016-.277 1.423-.61 1.653-1.35 3.08-2.508 4.44-3.6.263.025.542.05.73.063v.003c.583.038 1.11.057 1.612.057 5.234 0 10.18-1.666 13.926-4.692 3.92-3.166 6.08-7.428 6.08-12.002 0-4.573-2.16-8.835-6.08-12-3.746-3.027-8.692-4.693-13.926-4.693z" class="bncls-2"/><path fill="#fff" d="M38.768 34.526c-1.02 0-1.9-.86-1.9-1.88 0-1 .88-1.86 1.9-1.86s1.88.86 1.88 1.86c0 1.02-.86 1.88-1.88 1.88zm-6.4 0c-1.02 0-1.9-.86-1.9-1.88 0-1 .88-1.86 1.9-1.86s1.88.86 1.88 1.86c0 1.02-.86 1.88-1.88 1.88zm-6.4 0c-1.02 0-1.9-.86-1.9-1.88 0-1 .88-1.86 1.9-1.86s1.88.86 1.88 1.86c0 1.02-.86 1.88-1.88 1.88z" class="bncls-2"/></svg><svg preserveAspectRatio="xMidYMid" width="64" height="64" viewBox="0 0 64 64" id="others" x="384" y="256"><path fill="#fff" d="M46.598 37.25c-2.76 0-5-2.238-5-5s2.24-5 5-5c2.762 0 5 2.238 5 5s-2.238 5-5 5zm-14.348 0c-2.762 0-5-2.238-5-5s2.238-5 5-5 5 2.238 5 5-2.238 5-5 5zm-14.348 0c-2.762 0-5-2.238-5-5s2.238-5 5-5c2.76 0 5 2.238 5 5s-2.24 5-5 5z" class="bocls-2"/></svg><svg preserveAspectRatio="xMidYMid" width="64" height="64" viewBox="0 0 64 64" id="pedagogics" x="384" y="320"><path fill="#fff" d="M46 40h-6.642l2.606 8.73c.145.54-.175 1.093-.713 1.237-.537.145-1.09-.175-1.234-.714L37.254 40H33v5c0 .552-.448 1-1 1s-1-.448-1-1v-5h-4.717l-2.3 9.253c-.144.54-.696.86-1.234.714-.54-.144-.86-.698-.714-1.237l2.17-8.73H18c-1.105 0-2-.895-2-2V20c0-1.105.895-2 2-2h12.5l.5-1c0-.552.448-1 1-1s1 .448 1 1l.4 1H46c1.105 0 2 .895 2 2v18c0 1.105-.895 2-2 2zm0-19c0-.552-.448-1-1-1H31.64c-.28.003-.512 0-.64 0H19c-.552 0-1 .448-1 1v16c0 .552.448 1 1 1h26c.552 0 1-.448 1-1V21zm-3 15H21c-.552 0-1-.448-1-1V23c0-.552.448-1 1-1h22c.552 0 1 .448 1 1v12c0 .552-.448 1-1 1z" class="bpcls-2"/></svg><svg preserveAspectRatio="xMidYMid" width="64" height="64" viewBox="0 0 64 64" id="philosophy" y="384"><path fill="#fff" d="M47.177 46.5c-1.007 0-1.823-.574-1.823-1.28 0-.71.816-1.283 1.823-1.283 1.007 0 1.823.574 1.823 1.282 0 .706-.816 1.28-1.823 1.28zm-5.323-2.833c-2.094 0-3.79-1.148-3.79-2.563 0-1.415 1.696-2.562 3.79-2.562 2.094 0 3.792 1.147 3.792 2.562 0 1.415-1.698 2.563-3.792 2.563zm-11.208-4.542c-7.813 0-14.146-4.393-14.146-9.812 0-5.42 6.333-9.813 14.146-9.813 7.812 0 14.146 4.393 14.146 9.813 0 5.42-6.334 9.812-14.146 9.812z" class="bqcls-2"/></svg><svg preserveAspectRatio="xMidYMid" width="64" height="64" viewBox="0 0 64 64" id="physical_education" x="64" y="384"><path fill="#fff" d="M50 38c-1.105 0-2-.895-2-2v-6c0-1.105.895-2 2-2s2 .895 2 2v6c0 1.105-.895 2-2 2zm-5 3c-1.105 0-2-.895-2-2V27c0-1.105.895-2 2-2s2 .895 2 2v12c0 1.105-.895 2-2 2zm-5 2c-1.105 0-2-.895-2-2v-6H26.5v6c0 1.105-.895 2-2 2s-2-.895-2-2V25c0-1.105.895-2 2-2s2 .895 2 2v6H38v-6c0-1.105.895-2 2-2s2 .895 2 2v16c0 1.105-.895 2-2 2zm-20.5-2c-1.105 0-2-.895-2-2V27c0-1.105.895-2 2-2s2 .895 2 2v12c0 1.105-.895 2-2 2zm-5-3c-1.105 0-2-.895-2-2v-6c0-1.105.895-2 2-2s2 .895 2 2v6c0 1.105-.895 2-2 2z" class="brcls-2"/></svg><svg preserveAspectRatio="xMidYMid" width="64" height="64" viewBox="0 0 64 64" id="physics" x="128" y="384"><path fill="#fff" d="M52 31.827c0 2.75-3.36 5.18-8.497 6.652 1.292 5.185.875 9.312-1.503 10.686-2.373 1.372-6.14-.326-9.97-4.027-3.968 3.957-7.913 5.803-10.368 4.384-2.446-1.414-2.83-5.73-1.408-11.12-4.997-1.48-8.254-3.87-8.254-6.577 0-2.75 3.36-5.18 8.497-6.652-1.292-5.186-.875-9.313 1.503-10.687 2.376-1.374 6.15.33 9.987 4.042 3.747-3.525 7.403-5.116 9.726-3.774 2.33 1.347 2.778 5.334 1.587 10.37 5.248 1.465 8.7 3.916 8.7 6.7zM40.75 47c1.547-.895 1.623-3.943.496-7.96-1.48.314-3.077.55-4.746.706-.938 1.345-1.91 2.575-2.89 3.694 2.914 2.995 5.59 4.454 7.14 3.56zm-1.102-12.43c-.29.548-.59 1.097-.906 1.647-.17.296-.35.578-.524.867.79-.098 1.56-.207 2.292-.338-.254-.706-.548-1.436-.862-2.176zm.683-7.686c-.647-.113-1.313-.217-2.006-.303.24.39.48.777.712 1.18.202.35.38.7.57 1.05.27-.66.505-1.298.725-1.926zm-15.366 9.01c-.273-.472-.518-.943-.77-1.415-.33.757-.635 1.502-.904 2.225.762.14 1.558.265 2.386.368-.24-.39-.48-.776-.712-1.18zm.554-9.295c-.7.09-1.377.19-2.028.308.222.617.47 1.25.737 1.893.137-.245.264-.49.406-.738.288-.5.586-.984.885-1.463zm1.61 8.043c.546.946 1.11 1.85 1.68 2.717 1.037.062 2.1.098 3.192.098 1.062 0 2.09-.04 3.1-.1.498-.77.992-1.564 1.47-2.395.636-1.1 1.213-2.193 1.738-3.268-.446-.887-.916-1.78-1.437-2.684-.544-.945-1.108-1.85-1.68-2.716-1.035-.062-2.1-.098-3.19-.098-1.144 0-2.25.046-3.33.114-.636.952-1.26 1.957-1.866 3.007-.452.784-.868 1.562-1.265 2.335.488.986 1.008 1.983 1.59 2.99zm4.86 6.997c.443-.54.888-1.114 1.33-1.712-.438.012-.87.033-1.318.033-.46 0-.918-.008-1.37-.02.45.598.905 1.163 1.357 1.7zm-9.073 5.71c1.608.93 4.433-.68 7.478-3.9-1-1.114-1.993-2.354-2.952-3.704-1.735-.165-3.38-.424-4.91-.76-1.242 4.217-1.214 7.44.385 8.365zM21.14 27.417c-4.04 1.03-6.64 2.622-6.64 4.41 0 1.758 2.51 3.322 6.432 4.353.498-1.477 1.105-3.006 1.84-4.564-.645-1.434-1.19-2.842-1.63-4.2zm2.11-10.76c-1.547.893-1.623 3.94-.496 7.96 1.428-.304 2.96-.537 4.565-.694.987-1.37 2.005-2.63 3.033-3.747-2.9-2.968-5.56-4.41-7.103-3.52zm8.716 5.3c-.48.56-.964 1.145-1.447 1.774.49-.015.978-.037 1.48-.037.46 0 .918.01 1.37.02-.467-.618-.936-1.203-1.404-1.756zm8.494-5.027c-1.5-.868-4.057.467-6.863 3.263 1.004 1.116 2 2.36 2.962 3.715 1.578.15 3.08.38 4.492.67 1.035-3.865.917-6.777-.592-7.65zm2.227 10.446c-.433 1.382-.988 2.823-1.638 4.29.718 1.56 1.33 3.097 1.81 4.572 4.04-1.032 6.64-2.622 6.64-4.41 0-1.815-2.672-3.424-6.813-4.452zM32 29.333c1.38 0 2.5 1.115 2.5 2.49 0 1.375-1.12 2.49-2.5 2.49s-2.5-1.115-2.5-2.49c0-1.375 1.12-2.49 2.5-2.49z" class="bscls-2"/></svg><svg preserveAspectRatio="xMidYMid" width="64" height="64" viewBox="0 0 64 64" id="politics" x="192" y="384"><path fill="#fff" d="M52.25 42.5h-.275c-.122-.847-.844-1.5-1.725-1.5H48.5V26H52L33 14.538V13c0-.552-.448-1-1-1s-1 .448-1 1v1.698L13 26h3.5v15h-1.75c-.88 0-1.603.653-1.725 1.5H11.75c-.966 0-1.75.784-1.75 1.75S10.784 46 11.75 46h40.5c.966 0 1.75-.784 1.75-1.75s-.784-1.75-1.75-1.75zM27 41h-7V26h7v15zm9 0h-7V26h7v15zm9 0h-7V26h7v15z" class="btcls-2"/></svg><svg preserveAspectRatio="xMidYMid" width="64" height="64" viewBox="0 0 64 64" id="psychology" x="256" y="384"><path fill="#fff" d="M38.478 18.006v1.19c-.016.004-.03.01-.046.01-.48.02-.963.028-1.443.06-.408.03-.808.11-1.2.225-.702.208-1.11.692-1.317 1.365-.146.475-.158.97-.16 1.46v14.76c.115-.008.222-.013.33-.023 1.445-.128 2.854-.397 4.167-1.045.948-.468 1.683-1.154 2.15-2.107.245-.495.38-1.024.47-1.564.173-.998.225-2.005.243-3.015.017-.938.017-1.876.04-2.813.017-.613.045-1.227.1-1.837.06-.692.14-1.384.242-2.07.125-.83.335-1.637.66-2.414.385-.927 1.072-1.508 2.02-1.81.576-.186 1.168-.29 1.77-.34.772-.068 1.542-.02 2.312-.005.225.005.45.002.683.002v1.128h-.115c-.53 0-1.057-.004-1.585 0-.4.005-.703.196-.925.518-.234.34-.335.727-.4 1.126-.093.587-.07 1.18-.07 1.77-.007 1.666.013 3.333-.016 5-.035 1.96-.434 3.843-1.31 5.612-.43.864-.972 1.652-1.693 2.305-.458.417-.998.708-1.558.964-1.012.463-2.074.78-3.152 1.05-1.067.265-2.15.465-3.236.63-.37.058-.743.102-1.13.153v.1c0 1.564-.003 3.13.002 4.694.002.698.09 1.384.402 2.02.115.234.267.454.425.664.28.37.663.578 1.114.676.53.115 1.067.174 1.607.198.343.015.684.02 1.034.03v.832h-13.79v-.833c.026-.002.052-.007.077-.007.636.007 1.27-.018 1.9-.105.303-.043.605-.11.903-.186.436-.11.737-.406.995-.75.35-.47.533-1.005.63-1.574.07-.43.08-.866.08-1.302-.003-1.445 0-2.89 0-4.337v-.118c-.36-.05-.712-.09-1.06-.15-.745-.126-1.49-.25-2.23-.396-1.067-.21-2.117-.487-3.14-.852-.802-.286-1.58-.62-2.28-1.11-.526-.37-.938-.847-1.31-1.36-.762-1.05-1.25-2.226-1.586-3.47-.223-.83-.377-1.672-.43-2.528-.042-.67-.043-1.345-.047-2.018-.01-1.486-.007-2.97-.01-4.456-.002-.542-.017-1.083-.174-1.607-.055-.185-.127-.368-.22-.538-.235-.434-.604-.658-1.11-.65-.488.006-.976.003-1.465.005H14.5v-1.102c.073-.005.148-.013.224-.015.704-.015 1.408-.046 2.112-.04.856.007 1.697.127 2.513.4.96.325 1.613.954 1.982 1.89.265.673.455 1.364.572 2.072.104.637.197 1.277.254 1.92.067.742.105 1.487.126 2.232.03 1.036.02 2.073.047 3.11.024.91.08 1.818.24 2.716.12.695.31 1.37.697 1.97.477.743 1.123 1.295 1.912 1.69.784.39 1.617.636 2.473.81.622.127 1.25.206 1.882.254.046.003.092 0 .152 0v-.106c0-4.868 0-9.737-.002-14.605 0-.482-.01-.966-.14-1.434-.166-.592-.478-1.083-1.076-1.327-.25-.102-.516-.173-.78-.227-.68-.14-1.37-.166-2.062-.16h-.103v-1.2h12.953z" class="bucls-2"/></svg><svg preserveAspectRatio="xMidYMid" width="64" height="64" viewBox="0 0 64 64" id="religion" x="320" y="384"><path fill="#fff" d="M42.247 42.376c-2.45.75-3.374 2.478-3.317 4.99.028 1.234-.165 3.253-1.036 3.728-.872.474-2.515.472-3.422-.307-.906-.78-1.005-6.31-.564-9.65.183-1.39 1.5-2.833 2.663-3.868 1.96-1.745 3.383-3.233 5.568-4.718.547-.37 1.38-1.08 2.11-.464.73.615.23 1.56-.118 2.108-.665 1.046-2.82 2.766-1.81 2.87 5.614-1.053 4.755-9.267 6.308-9.494 1.553-.228 1.428.85 1.483 1.468.43 4.824-2.444 11.68-7.863 13.336zm-10.25-9.48c-5.4 0-9.776-4.357-9.776-9.732 0-5.375 4.378-9.732 9.778-9.732s9.777 4.357 9.777 9.732c0 5.375-4.377 9.732-9.777 9.732zm-1.91 8.242c.442 3.34.343 8.87-.563 9.65-.906.778-2.55.78-3.422.306-.87-.475-1.064-2.494-1.036-3.728.057-2.512-.867-4.24-3.317-4.99-5.42-1.656-8.293-8.512-7.864-13.336.055-.617-.07-1.696 1.482-1.468 1.553.227.695 8.44 6.31 9.494 1.008-.104-1.147-1.824-1.81-2.87-.35-.548-.85-1.493-.12-2.108.73-.616 1.563.093 2.11.464 2.185 1.485 3.608 2.973 5.567 4.717 1.163 1.034 2.48 2.476 2.663 3.868z" class="bvcls-2"/></svg><svg preserveAspectRatio="xMidYMid" width="64" height="64" viewBox="0 0 64 64" id="russian" x="384" y="384"><path fill="#fff" d="M32.002 18.01c9.522 0 17.242 6.235 17.242 13.926 0 7.692-7.72 13.927-17.242 13.927-.482 0-.957-.02-1.43-.05-.015 0-1.315-.126-1.34-.13-.028-.002-.058-.004-.09-.004-.207 0-.466.07-.606.183-1.712 1.372-3.363 2.713-5.062 4.1-.016.014-.044.01-.107.022v-.415c0-1.79-.003-3.58.002-5.37 0-.207-.043-.22-.26-.33-.004 0-.01-.004-.014-.007-4.584-2.237-7.77-6.15-8.265-10.687l-.02-.14c-.007-.067-.008-.133-.01-.2-.025-.297-.04-.597-.04-.9 0-7.69 7.72-13.926 17.242-13.926m0-2.767c-5.235 0-10.18 1.666-13.927 4.692-3.92 3.166-6.08 7.428-6.08 12 0 .332.015.67.045 1.063.003.084.01.215.028.372.006.052.014.104.022.156.553 4.908 3.698 9.36 8.514 12.143v4.316c0 .822.365 1.602.996 2.128.5.416 1.127.64 1.767.64.144 0 .288-.012.43-.035.54-.072 1.016-.277 1.423-.61 1.653-1.35 3.08-2.508 4.44-3.6.263.025.542.05.73.063v.003c.583.038 1.11.057 1.612.057 5.234 0 10.18-1.666 13.926-4.692 3.92-3.166 6.08-7.428 6.08-12.002 0-4.573-2.16-8.835-6.08-12-3.746-3.027-8.692-4.693-13.926-4.693z" class="bwcls-2"/><path fill="#fff" d="M37.746 38.084c-3.71 0-5.477-2.046-5.477-4.89v-6.88H35.3v6.777c0 1.37.832 2.36 2.444 2.36 1.595 0 2.427-.99 2.427-2.36v-6.776h3.016v6.864c0 2.878-1.734 4.906-5.444 4.906zm-10.486-.208l-1.942-3.883h-1.525v3.883h-2.98V26.314H26.6c2.567 0 4.023 1.7 4.023 3.848 0 2.01-1.214 3.085-2.306 3.467l2.358 4.246H27.26zm-1.11-8.962h-2.357v2.48h2.357c.798 0 1.44-.435 1.44-1.25 0-.797-.642-1.23-1.44-1.23z" class="bwcls-2"/></svg><svg preserveAspectRatio="xMidYMid" width="64" height="64" viewBox="0 0 64 64" id="science" x="448"><path fill="#fff" d="M48.5 48c0 1.657-1.343 3-3 3h-26c-1.657 0-3-1.343-3-3s1.343-3 3-3h13.306c4.07-.82 7.582-3.806 8.728-8.14 1.238-4.678-.576-9.443-4.193-12.167L31 35.817l1.807 1.056-1.67 2.928-1.805-1.056-2.168-1.268-1.668 2.928-2.53-1.48L24.637 36l-1.807-1.057-1.105-.644 1.104.645-1.044 1.83-2.53-1.478 1.044-1.83-1.806-1.056 1.668-2.928 4.336 2.536 7.3-12.81c.525-.92 1.415-1.48 2.377-1.633l2.67-4.684-.723-.422.834-1.464 5.78 3.38-.833 1.464-4.602-2.69 3.88 2.268-2.534 4.445C45 23.44 48.406 31.03 46.44 38.462c-.664 2.517-1.883 4.724-3.484 6.538H45.5c1.657 0 3 1.343 3 3z" class="bxcls-2"/></svg><svg preserveAspectRatio="xMidYMid" width="64" height="64" viewBox="0 0 64 64" id="skills" x="448" y="64"><path fill="#fff" d="M12.597 25.746c-.742 1.02-1.003 2.196-.736 3.316.205 1.15.884 2.172 1.912 2.882 1.037.717 2.305 1.006 3.48.793.568-.058 1.145-.152 1.755-.252 2.283-.37 4.87-.792 8.143.534l1.564.633-.208 1.47c-.495 3.496-2.158 5.523-3.625 7.31-.392.48-.762.93-1.098 1.393-.774.91-1.16 2.15-1.06 3.408.097 1.245.64 2.345 1.532 3.1.835.792 1.984 1.157 3.238 1.026 1.163-.12 2.285-.66 3.08-1.478.918-.83 1.503-2.083 1.566-3.358.054-1.114-.294-2.136-.982-2.878-1.034-1.117-1.633-1.243-2.07-1.335-.23-.048-.37-.077-.54-.244-.268-.26.328-1.206 1.084-2.406.77-1.224 1.825-2.9 2.836-5.125l14.574 1.312h.02c2.733.065 4.83-1.014 5.91-3.037l.207-.39-18.866-2.03 7.777-17.48-.44-.014c-2.29-.083-4.278 1.19-5.594 3.586l-6.255 13.423-.096-.01H29.7c-2.458-.25-4.453-.178-5.91-.125-1.417.05-2.535.094-2.626-.27-.058-.232-.014-.366.06-.59.14-.424.33-1.006-.115-2.46-.298-.968-1.007-1.782-1.998-2.294-1.134-.586-2.513-.71-3.69-.33-1.108.275-2.137.975-2.825 1.92zm4.755-.054c1.117.297 1.934 1.233 2.08 2.385.13 1-.288 1.882-1.114 2.356l-.016.01c-.864.567-2.127.565-3.143-.006-.468-.263-.826-.608-1.057-1.008-.215-.374-.32-.793-.3-1.235v-.024c-.027-.704.303-1.367.928-1.865.75-.596 1.78-.837 2.622-.613zm8.942 18.377l.016-.01c.825-.476 1.796-.395 2.597.218.923.706 1.322 1.882 1.02 2.997-.23.842-.955 1.61-1.848 1.96-.745.29-1.483.242-2.08-.134l-.02-.01c-.392-.206-.7-.505-.914-.876-.232-.4-.352-.886-.345-1.423.017-1.165.65-2.26 1.574-2.72z" class="bycls-2"/></svg><svg preserveAspectRatio="xMidYMid" width="64" height="64" viewBox="0 0 64 64" id="social" x="448" y="128"><path fill="#fff" d="M32 16c-5.523 0-10 4.384-10 9.79 0 3.607 3.152 11.318 5.456 16.598C28.73 45.308 29.793 48 32 48c2.095 0 3.123-2.248 4.457-5.468C38.667 37.2 42 29.432 42 25.792 42 20.383 37.523 16 32 16zm0 15c-2.762 0-5-2.24-5-5s2.238-5 5-5c2.76 0 5 2.24 5 5s-2.24 5-5 5z" class="bzcls-2"/></svg><svg preserveAspectRatio="xMidYMid" width="64" height="64" viewBox="0 0 64 64" id="sociology" x="448" y="192"><path fill="#fff" d="M42.303 42.287c.088-.38.14-.775.14-1.186 0-1.394-.54-2.674-1.56-3.79 2.31-.655 4.26-2.874 4.26-3.644 0-.04-.01-.078-.02-.117 3.31.82 5.544 2.358 5.544 4.123 0 2.23-3.563 4.097-8.364 4.614zm-2.68-8.736c-1.45 0-2.778-.617-3.822-1.7.53-1.51.824-3.195.824-5.004 0-2.51-.56-4.74-1.562-6.543 1.114-1.496 2.74-2.31 4.56-2.31 3.355 0 6.074 2.746 6.074 7.502s-2.72 8.056-6.074 8.056zm-12.695 2.726c-3.927 0-7.11-3.863-7.11-9.43s3.183-8.78 7.11-8.78c3.927 0 7.11 3.213 7.11 8.78 0 5.567-3.183 9.43-7.11 9.43zm-6.464.135c0 1.063 3.17 4.49 6.464 4.49 3.295 0 6.464-3.427 6.464-4.49 0-.046-.014-.09-.025-.136 3.875.962 6.49 2.76 6.49 4.827 0 3.08-5.79 5.574-12.93 5.574S14 44.18 14 41.1c0-2.065 2.614-3.865 6.49-4.826-.012.045-.026.09-.026.137z" class="cacls-2"/></svg><svg preserveAspectRatio="xMidYMid" width="64" height="64" viewBox="0 0 64 64" id="spanish" x="448" y="256"><path fill="#fff" d="M32.002 18.01c9.522 0 17.242 6.235 17.242 13.926 0 7.692-7.72 13.927-17.242 13.927-.482 0-.957-.02-1.43-.05-.015 0-1.315-.126-1.34-.13-.028-.002-.058-.004-.09-.004-.207 0-.466.07-.606.183-1.712 1.372-3.363 2.713-5.062 4.1-.016.014-.044.01-.107.022v-.415c0-1.79-.003-3.58.002-5.37 0-.207-.043-.22-.26-.33-.004 0-.01-.004-.014-.007-4.584-2.237-7.77-6.15-8.265-10.687l-.02-.14c-.007-.067-.008-.133-.01-.2-.025-.297-.04-.597-.04-.9 0-7.69 7.72-13.926 17.242-13.926m0-2.767c-5.235 0-10.18 1.666-13.927 4.692-3.92 3.166-6.08 7.428-6.08 12 0 .332.015.67.045 1.063.003.084.01.215.028.372.006.052.014.104.022.156.553 4.908 3.698 9.36 8.514 12.143v4.316c0 .822.365 1.602.996 2.128.5.416 1.127.64 1.767.64.144 0 .288-.012.43-.035.54-.072 1.016-.277 1.423-.61 1.653-1.35 3.08-2.508 4.44-3.6.263.025.542.05.73.063v.003c.583.038 1.11.057 1.612.057 5.234 0 10.18-1.666 13.926-4.692 3.92-3.166 6.08-7.428 6.08-12.002 0-4.573-2.16-8.835-6.08-12-3.746-3.027-8.692-4.693-13.926-4.693z" class="cbcls-2"/><path fill="#fff" d="M37.015 28.54c-.867 0-1.248.294-1.248.796 0 1.422 6.535.347 6.535 4.646 0 2.323-1.716 3.865-4.82 3.865-2.34 0-3.97-.745-5.13-1.837l1.577-2.323c.83.832 2.114 1.526 3.71 1.526 1.004 0 1.628-.347 1.628-.92 0-1.524-6.535-.26-6.535-4.714 0-1.942 1.63-3.676 4.594-3.676 1.855 0 3.467.555 4.697 1.612l-1.63 2.236c-.97-.814-2.235-1.213-3.38-1.213zm-14.04-2.462h8.476v2.6h-5.494v1.802h5.374v2.6h-5.374v1.96h5.495v2.6h-8.475V26.077z" class="cbcls-2"/></svg><svg preserveAspectRatio="xMidYMid" width="64" height="64" viewBox="0 0 64 64" id="statistics" x="448" y="320"><path fill="#fff" d="M41 15H23c-1.657 0-3 1.343-3 3v28c0 1.657 1.343 3 3 3h18c1.657 0 3-1.343 3-3V18c0-1.657-1.343-3-3-3zM27 44c0 .552-.448 1-1 1h-3c-.552 0-1-.448-1-1v-2c0-.552.448-1 1-1h3c.552 0 1 .448 1 1v2zm0-6c0 .552-.448 1-1 1h-3c-.552 0-1-.448-1-1v-2c0-.552.448-1 1-1h3c.552 0 1 .448 1 1v2zm0-6c0 .552-.448 1-1 1h-3c-.552 0-1-.448-1-1v-2c0-.552.448-1 1-1h3c.552 0 1 .448 1 1v2zm7.5 12c0 .552-.448 1-1 1h-3c-.552 0-1-.448-1-1v-2c0-.552.448-1 1-1h3c.552 0 1 .448 1 1v2zm0-6c0 .552-.448 1-1 1h-3c-.552 0-1-.448-1-1v-2c0-.552.448-1 1-1h3c.552 0 1 .448 1 1v2zm0-6c0 .552-.448 1-1 1h-3c-.552 0-1-.448-1-1v-2c0-.552.448-1 1-1h3c.552 0 1 .448 1 1v2zM42 44c0 .552-.448 1-1 1h-3c-.552 0-1-.448-1-1v-2c0-.552.448-1 1-1h3c.552 0 1 .448 1 1v2zm0-6c0 .552-.448 1-1 1h-3c-.552 0-1-.448-1-1v-2c0-.552.448-1 1-1h3c.552 0 1 .448 1 1v2zm0-6c0 .552-.448 1-1 1h-3c-.552 0-1-.448-1-1v-2c0-.552.448-1 1-1h3c.552 0 1 .448 1 1v2zm0-7c0 1.105-.895 2-2 2H24c-1.105 0-2-.895-2-2v-4c0-1.105.895-2 2-2h16c1.105 0 2 .895 2 2v4z" class="cccls-2"/></svg><svg preserveAspectRatio="xMidYMid" width="64" height="64" viewBox="0 0 64 64" id="technology" x="448" y="384"><path fill="#fff" d="M50.5 36H46v-3h4.5c.828 0 1.5.672 1.5 1.5s-.672 1.5-1.5 1.5zm0-5H46v-3h4.5c.828 0 1.5.672 1.5 1.5s-.672 1.5-1.5 1.5zm0-5.5H46v-3h4.5c.828 0 1.5.672 1.5 1.5s-.672 1.5-1.5 1.5zM41 44H23c-1.657 0-3-1.343-3-3V23c0-1.657 1.343-3 3-3h18c1.657 0 3 1.343 3 3v18c0 1.657-1.343 3-3 3zm-3-15c0-1.657-1.343-3-3-3h-6c-1.657 0-3 1.343-3 3v6c0 1.657 1.343 3 3 3h6c1.657 0 3-1.343 3-3v-6zm.5-15.5c0-.828.672-1.5 1.5-1.5s1.5.672 1.5 1.5V18h-3v-4.5zm-5.5 0c0-.828.672-1.5 1.5-1.5s1.5.672 1.5 1.5V18h-3v-4.5zm-5 0c0-.828.672-1.5 1.5-1.5s1.5.672 1.5 1.5V18h-3v-4.5zm-5.5 0c0-.828.672-1.5 1.5-1.5s1.5.672 1.5 1.5V18h-3v-4.5zM12 40c0-.828.672-1.5 1.5-1.5H18v3h-4.5c-.828 0-1.5-.672-1.5-1.5zm0-5.5c0-.828.672-1.5 1.5-1.5H18v3h-4.5c-.828 0-1.5-.672-1.5-1.5zm0-5c0-.828.672-1.5 1.5-1.5H18v3h-4.5c-.828 0-1.5-.672-1.5-1.5zm0-5.5c0-.828.672-1.5 1.5-1.5H18v3h-4.5c-.828 0-1.5-.672-1.5-1.5zm13.5 26.5c0 .828-.672 1.5-1.5 1.5s-1.5-.672-1.5-1.5V46h3v4.5zm5.5 0c0 .828-.672 1.5-1.5 1.5s-1.5-.672-1.5-1.5V46h3v4.5zm5 0c0 .828-.672 1.5-1.5 1.5s-1.5-.672-1.5-1.5V46h3v4.5zm5.5 0c0 .828-.672 1.5-1.5 1.5s-1.5-.672-1.5-1.5V46h3v4.5zM52 40c0 .828-.672 1.5-1.5 1.5H46v-3h4.5c.828 0 1.5.672 1.5 1.5z" class="cdcls-2"/></svg><svg preserveAspectRatio="xMidYMid" width="64" height="64" viewBox="0 0 64 64" id="tourism" y="448"><path fill="#fff" d="M44.825 27.348c-.678.392-1.95 1.07-3.55 1.905l-3.36 15.942-2.678 1.545-.854-13.946c-5.284 2.688-10.674 5.39-11.66 5.884l-1.485 6.907-1.26.727-.408-7.064c-.192-.117-.364-.273-.493-.498-.13-.225-.18-.45-.185-.676l-5.913-3.886 1.258-.727 6.725 2.167c.92-.606 5.955-3.923 10.925-7.155l-11.65-7.712 2.676-1.546 15.486 5.06c1.522-.968 2.747-1.73 3.425-2.122 3.464-2 6.075-1.478 6.696-.402.623 1.076-.23 3.598-3.695 5.598z" class="cecls-2"/></svg><svg preserveAspectRatio="xMidYMid" width="64" height="64" viewBox="0 0 64 64" id="trafic" x="64" y="448"><path fill="#fff" d="M44 27.086l-4.2 8.448v3.018H44L39.8 47v2.586C39.8 50.92 38.726 52 37.4 52H26.6c-1.325 0-2.4-1.08-2.4-2.414V47L20 38.552h4.2v-3.018L20 27.086h4.2V24.07L20 15.62h4.2v-1.206C24.2 13.08 25.275 12 26.6 12h10.8c1.326 0 2.4 1.08 2.4 2.414v1.207H44l-4.2 8.45v3.016H44zM32 15.62c-2.65 0-4.8 2.162-4.8 4.828 0 2.666 2.15 4.828 4.8 4.828s4.8-2.162 4.8-4.828c0-2.666-2.15-4.827-4.8-4.827zm0 11.466c-2.65 0-4.8 2.162-4.8 4.828 0 2.666 2.15 4.827 4.8 4.827s4.8-2.16 4.8-4.826c0-2.666-2.15-4.828-4.8-4.828zm0 11.466c-2.65 0-4.8 2.16-4.8 4.827 0 2.666 2.15 4.827 4.8 4.827s4.8-2.16 4.8-4.828c0-2.667-2.15-4.828-4.8-4.828z" class="cfcls-2"/></svg><svg preserveAspectRatio="xMidYMid" width="64" height="64" viewBox="0 0 64 64" id="ukrainian" x="128" y="448"><path fill="#fff" d="M32.002 18.01c9.522 0 17.242 6.235 17.242 13.926 0 7.692-7.72 13.927-17.242 13.927-.482 0-.957-.02-1.43-.05-.015 0-1.315-.126-1.34-.13-.028-.002-.058-.004-.09-.004-.207 0-.466.07-.606.183-1.712 1.372-3.363 2.713-5.062 4.1-.016.014-.044.01-.107.022v-.415c0-1.79-.003-3.58.002-5.37 0-.207-.043-.22-.26-.33-.004 0-.01-.004-.014-.007-4.584-2.237-7.77-6.15-8.265-10.687l-.02-.14c-.007-.067-.008-.133-.01-.2-.025-.297-.04-.597-.04-.9 0-7.69 7.72-13.926 17.242-13.926m0-2.767c-5.235 0-10.18 1.666-13.927 4.692-3.92 3.166-6.08 7.428-6.08 12 0 .332.015.67.045 1.063.003.084.01.215.028.372.006.052.014.104.022.156.553 4.908 3.698 9.36 8.514 12.143v4.316c0 .822.365 1.602.996 2.128.5.416 1.127.64 1.767.64.144 0 .288-.012.43-.035.54-.072 1.016-.277 1.423-.61 1.653-1.35 3.08-2.508 4.44-3.6.263.025.542.05.73.063v.003c.583.038 1.11.057 1.612.057 5.234 0 10.18-1.666 13.926-4.692 3.92-3.166 6.08-7.428 6.08-12.002 0-4.573-2.16-8.835-6.08-12-3.746-3.027-8.692-4.693-13.926-4.693z" class="cgcls-2"/><path fill="#fff" d="M44.325 37.876h-3.658l-3.033-4.35-.78.97v3.38h-2.982V26.314h2.982v4.75l3.553-4.75h3.675l-4.49 5.408 4.733 6.154zm-17.975.208c-3.71 0-5.478-2.046-5.478-4.89v-6.88h3.034v6.777c0 1.37.832 2.36 2.444 2.36 1.594 0 2.427-.99 2.427-2.36v-6.776h3.016v6.864c0 2.878-1.734 4.906-5.443 4.906z" class="cgcls-2"/></svg><svg preserveAspectRatio="xMidYMid" width="64" height="64" viewBox="0 0 64 64" id="wos" x="192" y="448"><path fill="#fff" d="M42.47 35.542c-1.952 0-3.532-1.58-3.532-3.532 0-1.95 1.58-3.53 3.53-3.53 1.95 0 3.532 1.58 3.532 3.53 0 1.95-1.58 3.532-3.53 3.532zm0-10.48c-1.952 0-3.532-1.58-3.532-3.53 0-1.95 1.58-3.532 3.53-3.532C44.42 18 46 19.58 46 21.53c0 1.952-1.58 3.532-3.53 3.532zM32.01 46c-1.95 0-3.53-1.58-3.53-3.53 0-1.952 1.58-3.532 3.53-3.532 1.95 0 3.532 1.58 3.532 3.53 0 1.95-1.58 3.532-3.532 3.532zm0-10.458c-1.95 0-3.53-1.58-3.53-3.532 0-1.95 1.58-3.53 3.53-3.53 1.95 0 3.532 1.58 3.532 3.53 0 1.95-1.58 3.532-3.532 3.532zm0-10.48c-1.95 0-3.53-1.58-3.53-3.53 0-1.95 1.58-3.532 3.53-3.532 1.95 0 3.532 1.58 3.532 3.53 0 1.952-1.58 3.532-3.532 3.532zM21.53 46C19.58 46 18 44.42 18 42.47c0-1.952 1.58-3.532 3.53-3.532 1.952 0 3.532 1.58 3.532 3.53 0 1.95-1.58 3.532-3.53 3.532zm0-10.458c-1.95 0-3.53-1.58-3.53-3.532 0-1.95 1.58-3.53 3.53-3.53 1.952 0 3.532 1.58 3.532 3.53 0 1.95-1.58 3.532-3.53 3.532zm0-10.48c-1.95 0-3.53-1.58-3.53-3.53C18 19.58 19.58 18 21.53 18c1.952 0 3.532 1.58 3.532 3.53 0 1.952-1.58 3.532-3.53 3.532zm20.94 13.876c1.95 0 3.53 1.58 3.53 3.53C46 44.42 44.42 46 42.47 46c-1.952 0-3.532-1.58-3.532-3.53 0-1.952 1.58-3.532 3.53-3.532z" class="chcls-2"/></svg></svg>