<svg viewBox="0 0 512 512" xmlns="http://www.w3.org/2000/svg">
<g id="mono_algebra">
<path id="Vector" fill-rule="evenodd" clip-rule="evenodd" d="M85.3333 64H106.667V106.667H133.708C141.085 93.9136 154.874 85.3333 170.667 85.3333C186.459 85.3333 200.248 93.9136 207.625 106.667H261.708C269.085 93.9136 282.874 85.3333 298.667 85.3333C314.459 85.3333 328.248 93.9136 335.625 106.667H405.333V64H426.667C438.449 64 448 73.5513 448 85.3333V448H405.333V405.333H378.292C370.915 418.086 357.126 426.667 341.333 426.667C325.541 426.667 311.752 418.086 304.375 405.333H250.292C242.915 418.086 229.126 426.667 213.333 426.667C197.541 426.667 183.752 418.086 176.375 405.333H106.667V448H64V85.3333C64 73.5513 73.5513 64 85.3333 64ZM378.292 362.667C370.915 349.914 357.126 341.333 341.333 341.333C325.541 341.333 311.752 349.914 304.375 362.667H250.292C242.915 349.914 229.126 341.333 213.333 341.333C197.541 341.333 183.752 349.914 176.375 362.667H106.667V277.333H133.708C141.085 290.086 154.874 298.667 170.667 298.667C186.459 298.667 200.248 290.086 207.625 277.333H261.708C269.085 290.086 282.874 298.667 298.667 298.667C314.459 298.667 328.248 290.086 335.625 277.333H405.333V362.667H378.292ZM207.625 149.333H261.708C269.085 162.086 282.874 170.667 298.667 170.667C314.459 170.667 328.248 162.086 335.625 149.333H405.333V234.667H335.625C328.248 221.914 314.459 213.333 298.667 213.333C282.874 213.333 269.085 221.914 261.708 234.667H207.625C200.248 221.914 186.459 213.333 170.667 213.333C154.874 213.333 141.085 221.914 133.708 234.667H106.667V149.333H133.708C141.085 162.086 154.874 170.667 170.667 170.667C186.459 170.667 200.248 162.086 207.625 149.333Z"/>
</g>
</svg>
