<svg viewBox="0 0 512 512" xmlns="http://www.w3.org/2000/svg">
<g id="mono_biology">
<g id="Vector">
<path d="M405.333 252.648C405.333 320.411 347.018 376.253 272 383.275V347.992L331.314 288.698C337.562 282.451 337.562 272.324 331.314 266.077C325.065 259.831 314.935 259.831 308.686 266.077L272 302.752V262.686L309.98 224.718C316.229 218.472 316.229 208.344 309.98 202.098C303.732 195.851 293.601 195.851 287.353 202.098L272 217.446V165.423C272 161.181 270.314 157.113 267.314 154.113C264.313 151.113 260.244 149.428 256 149.428C251.757 149.428 247.687 151.113 244.686 154.113C241.686 157.113 240 161.181 240 165.423V217.446L224.647 202.098C218.399 195.851 208.268 195.851 202.02 202.098C195.771 208.344 195.771 218.472 202.02 224.718L240 262.686V302.752L203.314 266.077C197.065 259.831 186.935 259.831 180.686 266.077C174.438 272.324 174.438 282.451 180.686 288.698L240 347.992V383.275C164.982 376.253 106.667 320.411 106.667 252.648C106.667 194.427 202.667 88.8605 240.64 49.1931C242.63 47.1291 245.016 45.4873 247.655 44.366C250.294 43.2446 253.132 42.6667 256 42.6667C258.868 42.6667 261.706 43.2446 264.345 44.366C266.984 45.4873 269.37 47.1291 271.36 49.1931C309.333 88.8605 405.333 194.427 405.333 252.648Z"/>
<path d="M271.5 382.777C271.18 382.531 270.746 382.393 270.293 382.393H241.707C241.254 382.393 240.82 382.531 240.5 382.777C240.18 383.023 240 383.357 240 383.705V435.699C240 438.961 241.686 442.09 244.686 444.397C247.687 446.704 251.757 448 256 448C260.244 448 264.313 446.704 267.314 444.397C270.314 442.09 272 438.961 272 435.699V383.705C272 383.357 271.82 383.023 271.5 382.777Z"/>
</g>
</g>
</svg>
