<svg viewBox="0 0 512 512" xmlns="http://www.w3.org/2000/svg">
<g id="mono_english">
<path id="Vector" fill-rule="evenodd" clip-rule="evenodd" d="M464.624 196.754C467.948 210.698 469.523 225.001 469.315 239.334C468.704 265.948 462.723 292.165 451.732 316.418C440.741 340.671 424.964 362.462 405.346 380.488C380.28 402.801 350.709 419.48 318.631 429.397C286.552 439.314 252.715 442.239 219.408 437.972C214.574 436.798 209.529 436.798 204.695 437.972C201.482 439.66 198.536 441.812 195.952 444.359C177.227 460.774 153.059 469.652 128.144 469.269C126.735 469.476 125.299 469.174 124.093 468.417C122.814 467.282 123.24 465.768 123.667 464.254C123.88 463.497 124.093 462.74 124.093 462.03C129.705 449.262 134.131 436.007 137.313 422.43C139.336 416.932 139.336 410.896 137.313 405.398C134.871 401.755 131.578 398.759 127.718 396.669C121.978 392.842 116.494 388.646 111.299 384.108C76.9181 354.562 53.7348 314.129 45.6238 269.566C41.6811 247.528 41.6811 224.966 45.6238 202.928C50.2618 181.038 59.174 160.275 71.8513 141.825C96.4617 103.255 132.661 73.4458 175.269 56.6638C206.255 45.3044 239.336 40.7739 272.241 43.3831C305.146 45.9923 337.096 55.6795 365.898 71.7798C389.979 84.8412 411.149 102.655 428.121 124.139C445.093 145.623 457.512 170.328 464.624 196.754ZM293.9 250.251V308.759C293.9 314.592 289.315 319.32 283.659 319.32H267.274C261.618 319.32 257.033 314.592 257.033 308.759V182.027C257.033 176.194 261.618 171.465 267.274 171.465H289.804C293.027 171.465 296.062 173.031 297.996 175.69L343.465 239.056C344.788 240.875 347.09 241.616 349.181 240.898C351.272 240.179 352.682 238.161 352.682 235.888V182.449C352.682 176.616 357.267 171.888 362.923 171.888H379.513C385.168 171.888 389.753 176.616 389.753 182.449V309.182C389.753 315.014 385.168 319.743 379.513 319.743H359.031C355.771 319.693 352.729 318.046 350.839 315.307L302.707 247.294C301.348 245.806 299.279 245.261 297.395 245.893C295.51 246.526 294.149 248.223 293.9 250.251ZM169.987 206.317H222.625C228.28 206.317 232.865 201.588 232.865 195.756V183.505C232.865 177.672 228.28 172.944 222.625 172.944H138.241C132.585 172.944 128 177.672 128 183.505V310.237C128 316.07 132.585 320.798 138.241 320.798H222.625C228.28 320.798 232.865 316.07 232.865 310.237V297.987C232.865 292.154 228.28 287.426 222.625 287.426H169.987C154.421 287.426 154.626 257.221 169.987 257.221H200.709C206.444 257.221 221.191 257.221 221.191 251.94C221.833 247.954 221.833 243.887 221.191 239.901C221.191 234.684 211.197 235.194 204.464 235.537C203.019 235.61 201.723 235.676 200.709 235.676H169.987C155.855 234.62 155.855 206.528 169.987 206.317Z"/>
</g>
</svg>
