<svg viewBox="0 0 512 512" xmlns="http://www.w3.org/2000/svg">
<path fill-rule="evenodd" clip-rule="evenodd" d="M92.1603 85.6064C144.64 47.6156 208.854 59.9947 256 120.609C302.08 59.9947 366.294 47.6156 419.414 85.6064C449.707 109.511 469.334 137.257 469.334 194.883C469.334 315.19 291.856 445.795 260.655 467.826C257.808 469.836 254.192 469.836 251.345 467.826C220.145 445.795 42.667 315.19 42.667 194.883C42.667 137.257 61.867 108.657 92.1603 85.6064ZM349.013 237.994C353.726 237.994 357.547 241.817 357.547 246.532V289.218C357.547 293.933 353.726 297.755 349.013 297.755H294.4C289.687 297.755 285.867 301.577 285.867 306.292V360.931C285.867 365.646 282.046 369.468 277.333 369.468H234.453C229.741 369.468 225.92 365.646 225.92 360.931V306.292C225.92 301.577 222.1 297.755 217.387 297.755H162.987C158.274 297.755 154.453 293.933 154.453 289.218V246.532C154.453 241.817 158.274 237.994 162.987 237.994H217.387C222.1 237.994 225.92 234.172 225.92 229.457V174.819C225.92 170.104 229.741 166.281 234.453 166.281H277.333C282.046 166.281 285.867 170.104 285.867 174.819V229.457C285.867 234.172 289.687 237.994 294.4 237.994H349.013Z" fill="#323C45"/>
</svg>
