<svg viewBox="0 0 512 512" xmlns="http://www.w3.org/2000/svg">
<g id="mono_indonesian-lang">
<g id="Vector">
<path d="M275.167 285.819H288.275V286.032C299.047 286.541 309.516 282.256 317.062 274.252C324.608 266.248 328.515 255.282 327.804 244.101C328.619 232.986 324.709 222.059 317.105 214.198C309.501 206.336 298.966 202.33 288.275 203.234C284.511 203.531 281.179 203.54 278.297 203.548C268.793 203.574 264.188 203.586 265.131 213.876V277.731C265.746 283.903 267.999 285.819 275.167 285.819Z"/>
<path fill-rule="evenodd" clip-rule="evenodd" d="M464.624 196.756C467.948 210.7 469.523 225.003 469.315 239.336C468.704 265.95 462.723 292.167 451.732 316.42C440.741 340.673 424.964 362.464 405.346 380.49C380.28 402.803 350.709 419.482 318.631 429.399C286.552 439.316 252.715 442.241 219.408 437.974C214.574 436.8 209.529 436.8 204.695 437.974C201.482 439.662 198.536 441.814 195.952 444.361C177.227 460.776 153.059 469.654 128.144 469.271C126.735 469.478 125.299 469.176 124.093 468.419C122.814 467.284 123.24 465.77 123.667 464.256C123.88 463.499 124.093 462.742 124.093 462.032C129.705 449.264 134.131 436.009 137.313 422.432C139.336 416.934 139.336 410.898 137.313 405.4C134.871 401.757 131.578 398.761 127.718 396.671C121.978 392.843 116.494 388.648 111.299 384.11C76.9181 354.563 53.7348 314.131 45.6238 269.568C41.6811 247.53 41.6811 224.968 45.6238 202.93C50.2618 181.04 59.174 160.277 71.8513 141.827C96.4617 103.257 132.661 73.4477 175.269 56.6657C206.255 45.3063 239.336 40.7758 272.241 43.385C305.146 45.9943 337.096 55.6815 365.898 71.7818C389.979 84.8431 411.149 102.657 428.121 124.141C445.093 145.625 457.512 170.33 464.624 196.756ZM174.506 170.668H190.892C196.547 170.668 201.132 175.423 201.132 181.289V308.743C201.132 314.609 196.547 319.364 190.892 319.364H174.506C168.851 319.364 164.266 314.609 164.266 308.743V181.289C164.266 175.423 168.851 170.668 174.506 170.668ZM238.506 170.668H288.276C333.336 170.668 365.696 198.764 365.696 245.165C366.141 266.085 357.951 286.204 343.194 300.441C328.437 314.679 308.524 321.674 288.481 319.662H238.506C232.851 319.662 228.266 314.897 228.266 309.019V181.31C228.266 175.433 232.851 170.668 238.506 170.668Z"/>
</g>
</g>
</svg>
