<svg viewBox="0 0 512 512" xmlns="http://www.w3.org/2000/svg">
<g id="mono_japanese">
<g id="Vector">
<path d="M304.375 263.978H296.592C293.307 263.953 290.232 262.315 288.326 259.574C286.42 256.832 285.914 253.321 286.966 250.133C286.966 250.133 295.773 208.178 300.688 208.178C305.604 208.178 314.411 250.133 314.411 250.133C315.488 253.392 314.935 256.985 312.933 259.747C310.931 262.51 307.733 264.091 304.375 263.978Z"/>
<path fill-rule="evenodd" clip-rule="evenodd" d="M464.624 196.756C467.948 210.7 469.523 225.003 469.315 239.336C468.704 265.95 462.723 292.167 451.732 316.42C440.741 340.673 424.964 362.464 405.346 380.49C380.28 402.803 350.709 419.482 318.631 429.399C286.552 439.316 252.715 442.241 219.408 437.974C214.574 436.8 209.529 436.8 204.695 437.974C201.482 439.662 198.536 441.814 195.952 444.361C177.227 460.776 153.059 469.654 128.144 469.271C126.735 469.478 125.299 469.176 124.093 468.419C122.814 467.284 123.24 465.77 123.667 464.256C123.88 463.499 124.093 462.742 124.093 462.032C129.705 449.264 134.131 436.009 137.313 422.432C139.336 416.934 139.336 410.898 137.313 405.4C134.871 401.757 131.578 398.761 127.718 396.671C121.978 392.843 116.494 388.648 111.299 384.11C76.9181 354.563 53.7348 314.131 45.6238 269.568C41.6811 247.53 41.6811 224.968 45.6238 202.93C50.2618 181.04 59.174 160.277 71.8513 141.827C96.4617 103.257 132.661 73.4477 175.269 56.6657C206.255 45.3063 239.336 40.7758 272.241 43.385C305.146 45.9943 337.096 55.6815 365.898 71.7818C389.979 84.8431 411.149 102.657 428.121 124.141C445.093 145.625 457.512 170.33 464.624 196.756ZM326.084 177.972L372.373 303.835C373.832 307.224 373.439 311.151 371.336 314.165C369.234 317.179 365.736 318.834 362.132 318.519H343.494C338.207 317.915 333.738 314.237 332.024 309.079C330.181 304.045 328.133 297.332 328.133 297.332H272.423L268.327 309.499C266.803 314.344 262.621 317.803 257.676 318.309H238.219C234.83 318.334 231.649 316.64 229.722 313.785C227.796 310.929 227.373 307.283 228.593 304.045L274.676 178.181C276.209 174.111 280.043 171.438 284.302 171.469H316.458C320.667 171.404 324.485 173.984 326.084 177.972ZM148.863 285.315C144.847 284.107 141.406 283.072 139.293 284.325C135.121 288.523 131.782 293.509 129.462 299.009C126.715 304.167 128.544 310.629 133.559 313.483C143.064 318.432 153.621 320.883 164.281 320.615C178.272 321.863 192.081 316.68 201.973 306.468C211.864 296.257 216.814 282.072 215.484 267.753V182.165C215.484 176.373 210.9 171.677 205.244 171.677H189.063C183.408 171.677 178.823 176.373 178.823 182.165V266.494C179.574 271.997 177.866 277.554 174.171 281.624C170.476 285.693 165.188 287.841 159.775 287.471C156.03 287.471 152.243 286.332 148.863 285.315Z"/>
</g>
</g>
</svg>
