<svg viewBox="0 0 512 512" xmlns="http://www.w3.org/2000/svg">
<g id="mono_law">
<g id="Vector">
<path d="M256 42.667C261.658 42.667 267.084 44.9146 271.085 48.9154C275.086 52.9162 277.333 58.3424 277.333 64.0003V85.3337H426.667C438.449 85.3337 448 94.8849 448 106.667C448 118.449 438.449 128 426.667 128H277.333V384H384C400.974 384 417.253 390.743 429.255 402.745C441.257 414.748 448 431.027 448 448H64.0001C64.0001 431.027 70.7429 414.748 82.7453 402.745C94.7476 390.743 111.026 384 128 384H234.667V128H85.3334C73.5513 128 64.0001 118.449 64.0001 106.667C64.0001 94.8849 73.5513 85.3337 85.3334 85.3337H234.667V64.0003C234.667 58.3424 236.914 52.9162 240.915 48.9154C244.916 44.9146 250.342 42.667 256 42.667Z"/>
<path d="M146.561 335.147C141.018 337.717 135.121 339.443 129.067 340.267C125.192 340.939 121.268 341.296 117.334 341.334C113.783 341.595 110.218 341.595 106.667 341.334C100.613 340.509 94.717 338.784 89.174 336.214C81.1738 332.587 74.0057 327.353 68.116 320.836C62.2263 314.32 57.7409 306.661 54.9393 298.336C52.1376 290.011 51.0796 281.199 51.8311 272.447C52.5826 263.696 55.1275 255.192 59.3074 247.467L93.654 175.36C94.4064 173.97 95.5131 172.804 96.862 171.979C98.2108 171.155 99.7537 170.702 101.334 170.667H133.334C134.914 170.702 136.457 171.155 137.806 171.979C139.155 172.804 140.262 173.97 141.014 175.36L176.427 246.4C180.607 254.126 183.152 262.629 183.904 271.38C184.655 280.132 183.597 288.944 180.795 297.269C177.994 305.594 173.508 313.253 167.619 319.77C161.729 326.286 154.561 331.521 146.561 335.147Z"/>
<path d="M408.533 340.267C414.808 339.396 420.919 337.599 426.667 334.934C434.481 330.929 441.419 325.408 447.076 318.693C452.734 311.978 456.998 304.204 459.619 295.824C462.24 287.443 463.167 278.625 462.344 269.883C461.521 261.141 458.966 252.651 454.827 244.907L417.707 170.667H375.04L337.493 245.974C333.37 253.743 330.838 262.257 330.045 271.017C329.253 279.778 330.216 288.608 332.878 296.991C335.54 305.375 339.847 313.143 345.548 319.841C351.25 326.539 358.23 332.033 366.08 336C371.751 338.67 377.792 340.468 384 341.334C392.171 342.538 400.497 342.176 408.533 340.267Z"/>
</g>
</g>
</svg>
