<svg viewBox="0 0 512 512" xmlns="http://www.w3.org/2000/svg">
<g id="mono_music">
<g id="Vector">
<path d="M214.643 170.667H429.619V213.333H214.643V170.667Z"/>
<path d="M248.425 128L214.642 362.667C214.642 409.795 176.143 448 128.652 448C81.1606 448 42.6614 409.795 42.6614 362.667C42.6614 315.538 81.1606 277.333 128.652 277.333C148.376 277.333 166.55 283.924 181.058 295.007L210.629 82.4162C212.097 71.8615 221.188 64 231.925 64H451.116V64.2467C462.543 65.9797 470.8 76.5992 469.108 88.3503L429.618 362.667C429.618 409.795 391.119 448 343.628 448C296.137 448 257.637 409.795 257.637 362.667C257.637 315.538 296.137 277.333 343.628 277.333C363.352 277.333 381.526 283.924 396.034 295.007L419.264 128H248.425Z"/>
</g>
</g>
</svg>
