<svg viewBox="0 0 512 512" xmlns="http://www.w3.org/2000/svg">
<path d="M159.47 112C159.47 138.51 138.098 160 111.735 160C85.3716 160 64 138.51 64 112C64 85.4903 85.3716 64 111.735 64C138.098 64 159.47 85.4903 159.47 112Z" fill="#323C45"/>
<path d="M159.47 400C159.47 426.51 138.098 448 111.735 448C85.3716 448 64 426.51 64 400C64 373.49 85.3716 352 111.735 352C138.098 352 159.47 373.49 159.47 400Z" fill="#323C45"/>
<path d="M302.674 261.333C302.674 287.843 281.303 309.333 254.939 309.333C228.576 309.333 207.205 287.843 207.205 261.333C207.205 234.824 228.576 213.333 254.939 213.333C281.303 213.333 302.674 234.824 302.674 261.333Z" fill="#323C45"/>
<path d="M448 112C448 138.51 426.628 160 400.265 160C373.902 160 352.53 138.51 352.53 112C352.53 85.4903 373.902 64 400.265 64C426.628 64 448 85.4903 448 112Z" fill="#323C45"/>
<path d="M448 400C448 426.51 426.628 448 400.265 448C373.902 448 352.53 426.51 352.53 400C352.53 373.49 373.902 352 400.265 352C426.628 352 448 373.49 448 400Z" fill="#323C45"/>
</svg>
