<svg viewBox="0 0 512 512" xmlns="http://www.w3.org/2000/svg">
<path d="M210.745 189.411C222.747 177.409 239.026 170.666 256 170.666C272.974 170.666 289.253 177.409 301.255 189.411C313.257 201.414 320 217.692 320 234.666V335.599C320 335.82 320.179 335.999 320.4 335.999H447.6C447.821 335.999 448 335.82 448 335.599V234.666C448 183.744 427.771 134.908 391.764 98.9015C355.758 62.8945 306.922 42.666 256 42.666C205.078 42.666 156.242 62.8945 120.235 98.9015C84.2285 134.908 64 183.744 64 234.666V335.599C64 335.82 64.1791 335.999 64.4 335.999H191.6C191.821 335.999 192 335.82 192 335.599V234.666C192 217.692 198.743 201.414 210.745 189.411Z" fill="#323C45"/>
<path d="M192 368.399C192 368.178 191.821 367.999 191.6 367.999H64.4C64.1791 367.999 64 368.178 64 368.399V426.666C64 432.324 66.2476 437.75 70.2484 441.751C74.2492 445.752 79.6754 447.999 85.3333 447.999H170.667C176.325 447.999 181.751 445.752 185.752 441.751C189.752 437.75 192 432.324 192 426.666V368.399Z" fill="#323C45"/>
<path d="M448 368.399C448 368.178 447.821 367.999 447.6 367.999H320.4C320.179 367.999 320 368.178 320 368.399V426.666C320 432.324 322.248 437.75 326.248 441.751C330.249 445.752 335.675 447.999 341.333 447.999H426.667C432.325 447.999 437.751 445.752 441.752 441.751C445.752 437.75 448 432.324 448 426.666V368.399Z" fill="#323C45"/>
</svg>
