<svg viewBox="0 0 512 512" xmlns="http://www.w3.org/2000/svg">
<g id="mono_technology">
<g id="Vector">
<path d="M202.667 64.0003C202.667 52.2183 193.115 42.667 181.333 42.667C169.551 42.667 160 52.2183 160 64.0003V106.667C160 118.449 169.551 128 181.333 128C193.115 128 202.667 118.449 202.667 106.667V64.0003Z"/>
<path d="M352 181.334C352 169.552 342.449 160 330.667 160H181.333C169.551 160 160 169.552 160 181.334V330.667C160 342.449 169.551 352 181.333 352H330.667C342.449 352 352 342.449 352 330.667V181.334Z"/>
<path d="M256 42.667C267.782 42.667 277.333 52.2183 277.333 64.0003V106.667C277.333 118.449 267.782 128 256 128C244.218 128 234.667 118.449 234.667 106.667V64.0003C234.667 52.2183 244.218 42.667 256 42.667Z"/>
<path d="M352 64.0003C352 52.2183 342.449 42.667 330.667 42.667C318.885 42.667 309.333 52.2183 309.333 64.0003V106.667C309.333 118.449 318.885 128 330.667 128C342.449 128 352 118.449 352 106.667V64.0003Z"/>
<path d="M181.333 384C193.115 384 202.667 393.552 202.667 405.334V448C202.667 459.782 193.115 469.334 181.333 469.334C169.551 469.334 160 459.782 160 448V405.334C160 393.552 169.551 384 181.333 384Z"/>
<path d="M277.333 405.334C277.333 393.552 267.782 384 256 384C244.218 384 234.667 393.552 234.667 405.334V448C234.667 459.782 244.218 469.334 256 469.334C267.782 469.334 277.333 459.782 277.333 448V405.334Z"/>
<path d="M330.667 384C342.449 384 352 393.552 352 405.334V448C352 459.782 342.449 469.334 330.667 469.334C318.885 469.334 309.333 459.782 309.333 448V405.334C309.333 393.552 318.885 384 330.667 384Z"/>
<path d="M106.667 202.667C118.449 202.667 128 193.116 128 181.334C128 169.552 118.449 160 106.667 160H64.0001C52.218 160 42.6667 169.552 42.6667 181.334C42.6667 193.116 52.218 202.667 64.0001 202.667H106.667Z"/>
<path d="M128 256C128 267.782 118.449 277.334 106.667 277.334H64.0001C52.218 277.334 42.6667 267.782 42.6667 256C42.6667 244.218 52.218 234.667 64.0001 234.667H106.667C118.449 234.667 128 244.218 128 256Z"/>
<path d="M106.667 352C118.449 352 128 342.449 128 330.667C128 318.885 118.449 309.334 106.667 309.334H64.0001C52.218 309.334 42.6667 318.885 42.6667 330.667C42.6667 342.449 52.218 352 64.0001 352H106.667Z"/>
<path d="M469.333 181.334C469.333 193.116 459.782 202.667 448 202.667H405.333C393.551 202.667 384 193.116 384 181.334C384 169.552 393.551 160 405.333 160H448C459.782 160 469.333 169.552 469.333 181.334Z"/>
<path d="M448 277.334C459.782 277.334 469.333 267.782 469.333 256C469.333 244.218 459.782 234.667 448 234.667H405.333C393.551 234.667 384 244.218 384 256C384 267.782 393.551 277.334 405.333 277.334H448Z"/>
<path d="M469.333 330.667C469.333 342.449 459.782 352 448 352H405.333C393.551 352 384 342.449 384 330.667C384 318.885 393.551 309.334 405.333 309.334H448C459.782 309.334 469.333 318.885 469.333 330.667Z"/>
</g>
</g>
</svg>
