<svg viewBox="0 0 512 512" xmlns="http://www.w3.org/2000/svg">
<g id="mono_uzbek">
<g id="Vector">
<path d="M138.62 224.445C143.405 218.941 150.104 215.765 157.152 215.66C164.165 215.825 170.81 219.026 175.549 224.523C180.289 230.021 182.712 237.337 182.258 244.778C183.125 254.934 178.519 264.739 170.361 270.103C162.203 275.466 151.895 275.466 143.736 270.103C135.578 264.739 130.972 254.934 131.84 244.778C131.384 237.299 133.835 229.949 138.62 224.445Z"/>
<path d="M378.666 225.811C378.727 228.151 377.865 230.411 376.288 232.045C374.712 233.679 372.565 234.538 370.366 234.414H349.618C347.751 234.414 346.921 234.414 346.714 231.546V219.634C346.714 218.531 346.714 216.767 349.618 216.105H370.366C372.582 215.909 374.769 216.745 376.361 218.395C377.953 220.045 378.793 222.348 378.666 224.708V225.811Z"/>
<path d="M370.366 275.447H349.618C347.544 275.447 346.714 275.447 346.714 272.359V259.344C346.714 257.799 346.714 256.917 349.203 256.035H369.951C372.35 255.847 374.711 256.747 376.451 258.512C378.19 260.278 379.146 262.744 379.081 265.3C379.201 267.794 378.322 270.226 376.661 271.992C375 273.758 372.712 275.575 370.366 275.447Z"/>
<path fill-rule="evenodd" clip-rule="evenodd" d="M464.624 196.754C467.948 210.698 469.523 225.001 469.315 239.334C468.704 265.948 462.723 292.165 451.732 316.418C440.741 340.671 424.964 362.462 405.346 380.488C380.28 402.801 350.709 419.48 318.631 429.397C286.552 439.314 252.715 442.239 219.408 437.972C214.574 436.798 209.529 436.798 204.695 437.972C201.482 439.66 198.536 441.812 195.952 444.359C177.227 460.774 153.059 469.652 128.144 469.269C126.735 469.476 125.299 469.174 124.093 468.417C122.814 467.282 123.24 465.768 123.667 464.254C123.88 463.497 124.093 462.74 124.093 462.03C129.705 449.262 134.131 436.007 137.313 422.43C139.336 416.932 139.336 410.896 137.313 405.398C134.871 401.755 131.578 398.759 127.718 396.669C121.978 392.842 116.494 388.646 111.299 384.108C76.9181 354.562 53.7348 314.129 45.6238 269.566C41.6811 247.528 41.6811 224.966 45.6238 202.928C50.2618 181.038 59.174 160.275 71.8513 141.825C96.4617 103.255 132.661 73.4458 175.269 56.6638C206.255 45.3044 239.336 40.7739 272.241 43.3831C305.146 45.9923 337.096 55.6795 365.898 71.7798C389.979 84.8412 411.149 102.655 428.121 124.139C445.093 145.623 457.512 170.328 464.624 196.754ZM192.664 207.024C183.275 197.041 170.424 191.626 157.152 192.058C143.739 191.374 130.667 196.679 121.093 206.69C111.519 216.701 106.314 230.51 106.734 244.78C106.014 259.238 111.086 273.343 120.696 283.602C130.305 293.86 143.551 299.312 157.152 298.605C170.612 299.056 183.634 293.493 193.057 283.264C202.481 273.036 207.443 259.078 206.74 244.78C207.147 230.669 202.053 217.006 192.664 207.024ZM403.43 221.179C404.445 232.127 397.718 242.196 387.662 244.783C397.865 247.395 405.117 257.01 405.298 268.166C405.683 275.871 402.914 283.377 397.703 288.748C392.492 294.119 385.35 296.83 378.118 296.181H340.771C331.375 296.181 323.758 288.083 323.758 278.093V211.914C323.758 201.924 331.375 193.826 340.771 193.826H376.458C383.56 193.189 390.577 195.819 395.734 201.049C400.891 206.278 403.693 213.607 403.43 221.179ZM312.141 273.675H278.529C276.869 273.675 276.247 273.675 277.077 270.587L314.216 216.983C314.649 215.473 314.649 213.86 314.216 212.35V196.909C314.216 194.923 314.216 193.6 310.896 193.82H245.955C243.92 193.82 243.681 195.094 243.477 196.183L243.465 196.247V213.453C243.465 216.1 244.71 216.983 246.577 216.983H280.604C282.056 216.983 282.056 218.085 280.604 219.188L245.747 272.572C244.493 274.936 243.782 277.581 243.672 280.293V293.97C243.672 295.293 243.672 296.617 247.407 296.837H312.556C313.344 296.905 314.12 296.601 314.679 296.007C315.238 295.412 315.524 294.587 315.461 293.749V276.763C315.407 275.885 315.027 275.066 314.404 274.486C313.781 273.906 312.967 273.615 312.141 273.675ZM232.672 200.661C228.058 204.019 224.513 208.789 222.505 214.338H225.618C228.647 214.389 231.523 215.768 233.565 218.148C235.608 220.528 236.636 223.699 236.407 226.912C236.527 234.543 230.921 240.893 223.75 241.25C219.637 240.762 215.891 238.506 213.382 235.005C210.874 231.505 209.822 227.066 210.472 222.72C210.642 211.072 215.75 200.128 224.373 192.94C225.519 191.942 227.168 191.942 228.315 192.94L233.917 198.014C234.385 198.481 234.509 199.22 234.222 199.831C233.935 200.441 233.304 200.779 232.672 200.661Z"/>
</g>
</g>
</svg>
