<svg viewBox="0 0 512 512" xmlns="http://www.w3.org/2000/svg">
<path fill-rule="evenodd" d="M448 186.292C460.753 178.915 469.333 165.126 469.333 149.333V106.667C469.333 83.1025 450.231 64 426.667 64H85.3333C61.7692 64 42.6667 83.1025 42.6667 106.667V149.333C42.6667 165.126 51.2469 178.915 64 186.292V405.333C64 428.897 83.1025 448 106.667 448H274.691C264.805 435.354 257.066 420.95 252.021 405.333H106.667V192H405.333V225.631C420.508 227.974 434.87 232.777 448 239.62V186.292ZM426.667 106.667H85.3333V149.333H426.667V106.667Z" fill="black"/>
<path fill-rule="evenodd" d="M277.333 362.667C277.333 303.756 325.09 256 384 256C442.91 256 490.667 303.756 490.667 362.667C490.667 421.577 442.91 469.333 384 469.333C325.09 469.333 277.333 421.577 277.333 362.667ZM426.915 318.443L366.258 379.1L341.116 353.952C337.417 350.254 332.026 348.809 326.973 350.163C321.921 351.517 317.974 355.463 316.62 360.516C315.267 365.568 316.711 370.959 320.41 374.658L355.902 410.15C361.635 415.852 370.878 415.852 376.599 410.162L447.603 339.162C453.302 333.428 453.302 324.191 447.617 318.47C441.875 312.757 432.636 312.757 426.915 318.443Z" fill="black"/>
</svg>
