<svg viewBox="0 0 512 512" xmlns="http://www.w3.org/2000/svg">
<path d="M337.112 269.108L335.468 270.952L185.8 420.473C177.535 428.731 164.133 428.731 155.866 420.473C148.19 412.805 147.643 400.713 154.222 392.413L155.866 390.569L266.917 277.334L85.6657 277.333C73.8841 277.333 64.3335 267.783 64.3335 256C64.3335 244.218 73.8841 234.667 85.6657 234.667L266.919 234.668L155.866 121.43C148.19 113.763 147.643 101.671 154.222 93.3708L155.866 91.5272C163.541 83.8593 175.646 83.3102 183.954 89.8838L185.8 91.5272L335.468 241.048C343.143 248.715 343.691 260.809 337.112 269.108Z" />
<path d="M465.112 269.108L463.468 270.952L313.8 420.473C305.535 428.731 292.133 428.731 283.866 420.473C276.19 412.805 275.643 400.713 282.222 392.413L283.866 390.569L415.84 256L283.866 121.43C276.19 113.763 275.643 101.671 282.222 93.3708L283.866 91.5272C291.541 83.8593 303.646 83.3102 311.954 89.8838L313.8 91.5272L463.468 241.048C471.143 248.715 471.691 260.809 465.112 269.108Z" />
</svg>
