<svg xmlns="http://www.w3.org/2000/svg" viewBox="0 0 512 512">
  <title>
    bell checked
  </title>
  <path d="M162.666669,405.291667 C186.187459,405.236969 205.256661,386.212744 205.366508,362.692543 L119.966829,362.692543 C120.021966,386.235555 139.123196,405.291667 162.666669,405.291667 L162.666669,405.291667 Z M162.666669,-1.98951966e-12 C180.339714,-1.98951966e-12 194.666549,14.3265934 194.666549,31.9993421 L194.666549,31.9993421 L194.666549,46.4990439 C255.666319,60.9987458 290.666188,115.797619 290.666188,181.296272 L290.666188,181.296272 L290.666188,255.994736 L318.166084,283.494171 C324.259459,289.613233 326.077869,298.79496 322.77668,306.774521 C319.475491,314.754083 311.701691,319.967592 303.066141,319.993567 L303.066141,319.993567 L22.1671971,319.993567 C13.5020119,320.025431 5.68112361,314.804931 2.38735641,306.790232 C-0.906410793,298.775534 0.983545845,289.564342 7.16725349,283.494171 L34.6671501,255.994736 L34.6671501,181.296272 C34.6671501,115.597623 69.4670193,60.9987458 130.666789,46.4990439 L130.666789,46.4990439 L130.666789,31.9993421 C130.666789,14.3265934 144.993623,-1.98951966e-12 162.666669,-1.98951966e-12 Z M238.155931,138.197948 C232.006028,131.852603 221.876627,131.694166 215.531281,137.844069 L215.531281,137.844069 L138.176,212.8 L109.33647,186.988194 L107.458905,185.540763 C100.947428,181.247212 92.1008408,182.25507 86.7437773,188.241279 C80.8510075,194.826109 81.4120331,204.941203 87.996863,210.833972 L87.996863,210.833972 L127.951663,246.589556 L129.919734,248.095703 C136.077139,252.094014 144.330875,251.414782 149.756851,246.155931 L149.756851,246.155931 L237.802052,160.822598 L239.379115,159.052519 C244.124069,152.862258 243.746752,143.966444 238.155931,138.197948 Z" fill="#000" fill-rule="nonzero" transform="translate(93.333 64)"/>
</svg>
