<svg xmlns="http://www.w3.org/2000/svg" viewBox="0 0 512 512">
  <title>
    camera
  </title>
  <circle cx="256" cy="277.34" r="53.33"/>
  <path d="M392.57 149.34h-43.14a19.53 19.53 0 0 1-13.82-5.72l-28.34-28.34a29.38 29.38 0 0 0-20.77-8.6h-61c-7.79 0-15.26 3.09-20.77 8.6l-28.34 28.34a19.53 19.53 0 0 1-13.81 5.72h-43.11a33.07 33.07 0 0 0-34.13 31.96v192.04a33.06 33.06 0 0 0 34.1 32h273.09a33.07 33.07 0 0 0 34.14-31.97V181.34a33.07 33.07 0 0 0-34.1-32zM256 362.67a85.33 85.33 0 1 1 0-170.66 85.33 85.33 0 0 1 0 170.66z"/>
</svg>
