<svg viewBox="0 0 512 512" xmlns="http://www.w3.org/2000/svg">
<path fill-rule="evenodd" d="M256 42.6667C138.179 42.6667 42.6667 138.179 42.6667 256C42.6667 373.821 138.179 469.333 256 469.333C373.821 469.333 469.333 373.821 469.333 256C469.333 138.179 373.821 42.6667 256 42.6667ZM218.913 288.381L328.901 178.392C339.274 168.083 356.028 168.083 366.439 178.442C376.748 188.815 376.748 205.565 366.414 215.963L237.664 344.707C227.289 355.024 210.53 355.024 200.133 344.684L135.776 280.327C129.07 273.62 126.45 263.845 128.905 254.683C131.36 245.522 138.516 238.365 147.678 235.911C156.84 233.456 166.615 236.075 173.322 242.782L218.913 288.381Z" fill="black"/>
</svg>
