<svg viewBox="0 0 512 512" version="1.1" xmlns="http://www.w3.org/2000/svg" xmlns:xlink="http://www.w3.org/1999/xlink">
    
    <g id="clipboard" stroke="none" stroke-width="1" fill="none" fill-rule="evenodd">
        <path d="M267.444444,169 C294.813222,169 317,191.141554 317,218.454545 L317,218.454545 L317,391.545455 C317,418.858446 294.813222,441 267.444444,441 L267.444444,441 L143.555556,441 C116.186778,441 94,418.858446 94,391.545455 L94,391.545455 L94,218.454545 C94,191.141554 116.186778,169 143.555556,169 L143.555556,169 Z M366.5,72 C392.595454,72 413.974587,92.1521814 415.864228,117.71322 L416,121.4 L416,269.5 C416,296.564714 394.279117,318.556244 367.318573,318.993368 L366.5,319 L366.5,121.4 L218,121.4 C218,94.1171334 240.117133,72 267.4,72 L366.5,72 Z" id="Combined-Shape" fill="currentColor" fill-rule="nonzero"></path>
    </g>
</svg>
