<svg xmlns="http://www.w3.org/2000/svg" viewBox="0 0 512 512"><path d="M381.44,212.47h-43.52c45.24,0,81.92-36.68,81.92-81.92s-36.68-81.92-81.92-81.92-81.92,36.68-81.92,81.92c0-45.24-36.68-81.92-81.92-81.92s-81.92,36.68-81.92,81.92,36.68,81.92,81.92,81.92h-43.52c-22.62,0-40.96,18.34-40.96,40.96v58.88H230.4v-99.84h51.2v99.84h140.8v-58.88c0-22.62-18.34-40.96-40.96-40.96Zm-176.64-51.2h-30.72c-16.97,0-30.72-13.75-30.72-30.72s13.75-30.72,30.72-30.72,30.72,13.75,30.72,30.72v30.72Zm102.4-30.72c0-16.97,13.75-30.72,30.72-30.72s30.72,13.75,30.72,30.72-13.75,30.72-30.72,30.72h-30.72v-30.72ZM89.6,363.51H230.4v97.28h-99.84c-22.62,0-40.96-18.34-40.96-40.96v-56.32Zm192,0h140.8v56.32c0,22.62-18.34,40.96-40.96,40.96h-99.84v-97.28Z"/></svg>