<svg xmlns="http://www.w3.org/2000/svg" viewBox="0 0 512 512">
  <title>
    image
  </title>
  <path d="M405.32 64H106.66a42.67 42.67 0 0 0-42.67 42.67v298.67a42.67 42.67 0 0 0 42.67 42.67h298.66A42.67 42.67 0 0 0 448 405.34V106.67a42.67 42.67 0 0 0-42.67-42.66zm0 341.34H106.66V106.67h298.66v298.67z"/>
  <path d="M174.98 362.67H337a10.63 10.63 0 0 0 7.51-18.14l-38.34-38.34a10.63 10.63 0 0 0-15.03 0L277.32 320l-35.15-35.15a10.63 10.63 0 0 0-15.03 0l-59.67 59.67a10.63 10.63 0 0 0 7.51 18.14z"/>
  <circle cx="319.99" cy="192.01" r="42.67"/>
</svg>
