<svg viewBox="0 0 512 512" xmlns="http://www.w3.org/2000/svg">
  <title>
    instagram
  </title>
  <path d="M381.5 153.5a23 23 0 1 1-46 0 23 23 0 0 1 46 0M256 320a64 64 0 1 1 0-128 64 64 0 0 1 0 128m0-162.6a98.6 98.6 0 1 0 0 197.2 98.6 98.6 0 0 0 0-197.2m0-93.4c-52.1 0-58.7.2-79.2 1.2a141 141 0 0 0-46.6 8.9 94.1 94.1 0 0 0-34 22.1 94 94 0 0 0-22.1 34 141 141 0 0 0-9 46.6c-.9 20.5-1.1 27-1.1 79.2 0 52.1.2 58.7 1.2 79.2a141 141 0 0 0 8.9 46.6 94.1 94.1 0 0 0 22.1 34 94.1 94.1 0 0 0 34 22.1 141 141 0 0 0 46.6 9c20.5.9 27 1.1 79.2 1.1 52.1 0 58.7-.2 79.2-1.2 20.4-.9 34.4-4.1 46.6-8.9a94.1 94.1 0 0 0 34-22.1 94.2 94.2 0 0 0 22.1-34 141 141 0 0 0 9-46.6c.9-20.5 1.1-27 1.1-79.2 0-52.1-.2-58.7-1.2-79.2a141 141 0 0 0-8.9-46.6 94.1 94.1 0 0 0-22.1-34 94.1 94.1 0 0 0-34-22.1c-12.2-4.8-26.2-8-46.6-9-20.5-.9-27-1.1-79.2-1.1m0 34.6c51.3 0 57.3.2 77.6 1.1 18.7.9 28.9 4 35.6 6.6 9 3.5 15.4 7.7 22.1 14.4a59.5 59.5 0 0 1 14.4 22c2.6 6.8 5.7 17 6.6 35.7 1 20.3 1.1 26.3 1.1 77.6s-.2 57.3-1.1 77.6c-.9 18.7-4 28.9-6.6 35.6-3.5 9-7.7 15.4-14.4 22.1a59.5 59.5 0 0 1-22 14.4c-6.8 2.6-17 5.7-35.7 6.6-20.3 1-26.3 1.1-77.6 1.1s-57.3-.2-77.6-1.1c-18.7-.9-28.9-4-35.6-6.6-9-3.5-15.4-7.7-22.1-14.4a59.5 59.5 0 0 1-14.4-22c-2.6-6.8-5.7-17-6.6-35.7-1-20.3-1.1-26.3-1.1-77.6s.2-57.3 1.1-77.6c.9-18.7 4-28.9 6.6-35.6 3.5-9 7.7-15.4 14.4-22.1a59.5 59.5 0 0 1 22-14.4c6.8-2.6 17-5.7 35.7-6.6 20.3-1 26.3-1.1 77.6-1.1" fill-rule="evenodd"/>
</svg>
