<svg xmlns="http://www.w3.org/2000/svg" viewBox="0 0 512 512">
  <title>
    mic
  </title>
  <path d="M384 234.67a21.32 21.32 0 0 0-21.34 21.34c0 58.9-47.75 106.66-106.66 106.66s-106.67-47.75-106.67-106.66a21.33 21.33 0 0 0-42.67 0c0 82.47 66.86 149.33 149.34 149.33 82.47 0 149.33-66.86 149.33-149.33A21.32 21.32 0 0 0 384 234.67z"/>
  <path d="M256 320a64 64 0 0 0 64-63.99v-128a64 64 0 1 0-128 0v128a64 64 0 0 0 64 64zm64 106.67H192a21.33 21.33 0 0 0 0 42.67h128a21.33 21.33 0 0 0 0-42.67z"/>
</svg>
