<svg xmlns="http://www.w3.org/2000/svg" viewBox="0 0 512 512">
<path d="M234.722 90.9728C247.884 83.4388 264.054 83.4544 277.201 91.0137L458.516 195.262C465.642 199.359 469.211 206.541 469.225 213.73H469.334V299.141C469.334 310.934 459.776 320.494 447.987 320.494C436.198 320.494 426.641 310.934 426.641 299.141V250.559L277.148 336.252C263.972 343.805 247.776 343.787 234.616 336.206L53.3605 231.792C39.0798 223.565 39.1082 202.942 53.4115 194.755L234.722 90.9728Z" fill="black"/>
<path d="M363.299 369.084C376.12 361.357 383.96 347.478 383.96 332.504V296.013L277.204 357.575C264.007 365.185 247.756 365.185 234.559 357.575L127.803 296.013V332.504C127.803 347.478 135.642 361.357 148.464 369.084L233.85 420.541C247.403 428.708 264.36 428.708 277.913 420.541L363.299 369.084Z" fill="black"/>
</svg>
