<svg xmlns="http://www.w3.org/2000/svg" viewBox="0 0 512 512">
  <title>
    academic cap
  </title>
  <path fill="#000" fill-rule="nonzero" d="M400.248186,280.179434 L400.248186,352.715061 C400.248186,361.933554 395.148086,370.395514 386.996923,374.701227 L386.996923,374.701227 L253.629664,445.150216 C246.362882,448.98877 237.668808,448.98877 230.402026,445.150216 L230.402026,445.150216 L97.0347676,374.701227 C88.8836047,370.395514 83.7835045,361.933554 83.7835045,352.715061 L83.7835045,352.715061 L83.7835045,280.179434 L230.402026,357.628178 C237.668808,361.466732 246.362882,361.466732 253.629664,357.628178 L253.629664,357.628178 L400.248186,280.179434 Z M218.796852,69.6950481 C233.325808,62.0240271 250.705883,62.0240271 265.234838,69.6950481 L265.234838,69.6950481 L477.411081,181.720199 C485.564643,186.02513 490.666667,194.488399 490.666667,203.708648 L490.666667,203.708648 L490.666667,341.158361 C490.666667,353.642548 480.546234,363.762981 468.062047,363.762981 C455.57786,363.762981 445.457426,353.642548 445.457426,341.158361 L445.457426,341.158361 L445.457426,212.56866 L265.236051,307.73985 C250.706492,315.41261 233.324847,315.413275 218.794702,307.741626 L218.794702,307.741626 L35.0112659,210.707354 C30.5860412,208.370916 26.9687504,204.753626 24.6323132,200.328401 C18.2205653,188.184516 22.8673808,173.142203 35.0112659,166.730455 L35.0112659,166.730455 Z"/>
</svg>

