<svg xmlns="http://www.w3.org/2000/svg" viewBox="0 0 512 512">
<path fill-rule="evenodd" clip-rule="evenodd" d="M128 64C92.6538 64 64 92.6538 64 128V256C64 362.039 149.961 448 256 448C362.039 448 448 362.039 448 256V128C448 92.6538 419.346 64 384 64H128ZM278.432 152.672C269.256 134.079 242.744 134.079 233.568 152.672L211.889 196.598L163.414 203.642C142.896 206.623 134.703 231.838 149.55 246.31L184.627 280.501L176.347 328.781C172.842 349.216 194.291 364.799 212.643 355.151L256 332.357L299.357 355.151C317.709 364.799 339.158 349.216 335.653 328.781L327.373 280.501L362.45 246.31C377.297 231.838 369.104 206.623 348.586 203.642L300.111 196.598L278.432 152.672Z" fill="black"/>
</svg>
