<svg xmlns="http://www.w3.org/2000/svg" viewBox="0 0 512 512">
<path d="M234.667 192C234.667 180.218 244.218 170.667 256 170.667C267.782 170.667 277.333 180.218 277.333 192V234.667H320C331.782 234.667 341.333 244.218 341.333 256C341.333 267.782 331.782 277.333 320 277.333H277.333V320C277.333 331.782 267.782 341.333 256 341.333C244.218 341.333 234.667 331.782 234.667 320V277.333H192C180.218 277.333 170.667 267.782 170.667 256C170.667 244.218 180.218 234.667 192 234.667H234.667V192Z" fill="black"/>
<path fill-rule="evenodd" clip-rule="evenodd" d="M256 469.333C373.821 469.333 469.333 373.821 469.333 256C469.333 138.179 373.821 42.6667 256 42.6667C138.179 42.6667 42.6667 138.179 42.6667 256C42.6667 373.821 138.179 469.333 256 469.333ZM256 426.667C350.257 426.667 426.667 350.257 426.667 256C426.667 161.743 350.257 85.3333 256 85.3333C161.743 85.3333 85.3334 161.743 85.3334 256C85.3334 350.257 161.743 426.667 256 426.667Z" fill="black"/>
</svg>
