<svg xmlns="http://www.w3.org/2000/svg" viewBox="0 0 512 512">
<path d="M206.634 224.496L188.626 282.947H224.641L206.634 224.496Z" fill="black"/>
<path fill-rule="evenodd" clip-rule="evenodd" d="M149.333 64C102.205 64 64 102.205 64 149.333V362.667C64 409.795 102.205 448 149.333 448H362.667C409.795 448 448 409.795 448 362.667V149.333C448 102.205 409.795 64 362.667 64H149.333ZM267.158 352C254.536 352 243.39 343.798 239.679 331.778L239.375 330.795H173.892L173.588 331.778C169.877 343.798 158.731 352 146.109 352C126.102 352 112.212 332.144 119.135 313.44L159.992 203.06C167.196 183.596 185.812 170.667 206.634 170.667C227.455 170.667 246.071 183.596 253.275 203.06L294.132 313.44C301.055 332.144 287.165 352 267.158 352ZM345.776 352C330.556 352 318.218 339.707 318.218 324.542V198.125C318.218 182.96 330.556 170.667 345.776 170.667C360.995 170.667 373.333 182.96 373.333 198.125V324.542C373.333 339.707 360.995 352 345.776 352Z" fill="black"/>
</svg>
