<svg xmlns="http://www.w3.org/2000/svg" viewBox="0 0 512 512">
  <title>
    all questions
  </title>
  <path d="M448 42.67H149.33A21.33 21.33 0 0 0 128 64v298.67A21.33 21.33 0 0 0 149.33 384H448a21.33 21.33 0 0 0 21.33-21.33V64A21.33 21.33 0 0 0 448 42.67zm-21.33 298.66h-256v-256h256v256z"/>
  <path d="M362.67 426.67H85.33V149.33a21.33 21.33 0 0 0-42.66 0V448A21.33 21.33 0 0 0 64 469.33h298.67a21.33 21.33 0 1 0 0-42.66zm-67.84-159.79a21.33 21.33 0 1 0 0 42.67 21.33 21.33 0 0 0 0-42.67zm-42.67-85.76c25.17 0 12.16-34.35 45.44-34.35a21.33 21.33 0 0 1 24.96 21.34c0 25.38-45.44 32.42-45.44 64a16.64 16.64 0 0 0 16.64 17.49c17.07 0 14.93-12.8 21.33-21.33 6.4-8.54 47.58-25.39 47.58-59.1 0-33.7-33.28-51.84-66.56-51.84s-61.44 22.4-61.44 48a15.57 15.57 0 0 0 17.49 15.79z"/>
</svg>
