<svg xmlns="http://www.w3.org/2000/svg" viewBox="0 0 512 512">
<path d="M64 149.333C64 102.205 102.205 64 149.333 64H277.333C308.919 64 336.496 81.1605 351.251 106.667H234.667C163.974 106.667 106.667 163.974 106.667 234.667V351.251C81.1605 336.496 64 308.919 64 277.333V149.333Z" fill="black"/>
<path d="M362.658 314.817C362.638 314.877 362.637 314.907 362.637 314.907V314.907L362.658 314.817Z" fill="black"/>
<path fill-rule="evenodd" clip-rule="evenodd" d="M149.333 234.667C149.333 187.538 187.538 149.333 234.667 149.333H362.667C409.795 149.333 448 187.538 448 234.667V362.667C448 409.795 409.795 448 362.667 448H234.667C187.538 448 149.333 409.795 149.333 362.667V234.667ZM213.333 192C201.551 192 192 201.551 192 213.333C192 225.115 201.551 234.667 213.333 234.667H234.667C246.449 234.667 256 225.115 256 213.333C256 201.551 246.449 192 234.667 192H213.333ZM341.333 234.667C328.233 234.667 320 244.3 320 253.333C320 265.115 310.449 274.667 298.667 274.667C286.885 274.667 277.333 265.115 277.333 253.333C277.333 218.184 307.305 192 341.333 192C375.362 192 405.333 218.184 405.333 253.333C405.333 277.238 391.19 297.277 371.668 307.354C368.077 309.207 365.369 311.305 363.806 313.109C363.016 314.021 362.747 314.57 362.667 314.792V320C362.667 331.782 353.115 341.333 341.333 341.333C329.551 341.333 320 331.782 320 320V314.667C320 290.132 340.123 275.621 352.098 269.44C358.944 265.906 362.667 259.643 362.667 253.333C362.667 244.3 354.433 234.667 341.333 234.667ZM362.667 384C362.667 395.782 353.115 405.333 341.333 405.333C329.551 405.333 320 395.782 320 384C320 372.218 329.551 362.667 341.333 362.667C353.115 362.667 362.667 372.218 362.667 384ZM192 298.667C192 286.885 201.551 277.333 213.333 277.333H234.667C246.449 277.333 256 286.885 256 298.667C256 310.449 246.449 320 234.667 320H213.333C201.551 320 192 310.449 192 298.667ZM213.333 362.667C201.551 362.667 192 372.218 192 384C192 395.782 201.551 405.333 213.333 405.333H277.333C289.115 405.333 298.667 395.782 298.667 384C298.667 372.218 289.115 362.667 277.333 362.667H213.333Z" fill="black"/>
</svg>
