<svg xmlns="http://www.w3.org/2000/svg" viewBox="0 0 512 512">
<path d="M64 149.333C64 102.205 102.205 64 149.333 64H277.333C308.919 64 336.496 81.1605 351.251 106.667H234.667C163.974 106.667 106.667 163.974 106.667 234.667V351.251C81.1605 336.496 64 308.919 64 277.333V149.333Z" fill="black"/>
<path fill-rule="evenodd" clip-rule="evenodd" d="M149.333 234.667C149.333 187.538 187.538 149.333 234.667 149.333H362.667C409.795 149.333 448 187.538 448 234.667V362.667C448 409.795 409.795 448 362.667 448H234.667C187.538 448 149.333 409.795 149.333 362.667V234.667ZM192 234.667C192 222.885 201.551 213.333 213.333 213.333H384C395.782 213.333 405.333 222.885 405.333 234.667C405.333 246.449 395.782 256 384 256H213.333C201.551 256 192 246.449 192 234.667ZM379.582 304.915C387.913 296.584 401.42 296.584 409.752 304.915C418.083 313.246 418.083 326.754 409.752 335.085L345.752 399.085C337.42 407.416 323.913 407.416 315.582 399.085L283.582 367.085C275.251 358.754 275.251 345.246 283.582 336.915C291.913 328.584 305.42 328.584 313.752 336.915L330.667 353.83L379.582 304.915ZM213.333 277.333C201.551 277.333 192 286.885 192 298.667C192 310.449 201.551 320 213.333 320H256C267.782 320 277.333 310.449 277.333 298.667C277.333 286.885 267.782 277.333 256 277.333H213.333Z" fill="black"/>
</svg>
