<svg xmlns="http://www.w3.org/2000/svg" xmlns:xlink="http://www.w3.org/1999/xlink" preserveAspectRatio="xMidYMid" width="32" height="32" viewBox="0 0 32 32">
  <path d="M29.630,14.839 L18.963,14.839 C17.653,14.839 16.593,13.806 16.593,12.530 C16.593,11.255 17.653,10.221 18.963,10.221 L29.630,10.221 C30.939,10.221 32.000,11.255 32.000,12.530 C32.000,13.806 30.939,14.839 29.630,14.839 ZM29.630,6.758 L18.963,6.758 C17.653,6.758 16.593,5.725 16.593,4.450 C16.593,3.174 17.653,2.141 18.963,2.141 L29.630,2.141 C30.939,2.141 32.000,3.174 32.000,4.450 C32.000,5.725 30.939,6.758 29.630,6.758 ZM10.191,13.209 L5.237,13.209 L4.742,14.826 L0.015,14.826 L5.093,1.000 L10.336,1.000 L15.415,14.826 L10.687,14.826 L10.191,13.209 ZM7.714,5.104 L6.353,9.561 L9.077,9.561 L7.714,5.104 ZM2.370,18.302 L29.630,18.302 C30.939,18.302 32.000,19.335 32.000,20.610 C32.000,21.886 30.939,22.919 29.630,22.919 L2.370,22.919 C1.061,22.919 0.000,21.886 0.000,20.610 C0.000,19.335 1.061,18.302 2.370,18.302 ZM2.370,26.382 L20.148,26.382 C21.458,26.382 22.519,27.415 22.519,28.691 C22.519,29.966 21.458,31.000 20.148,31.000 L2.370,31.000 C1.061,31.000 0.000,29.966 0.000,28.691 C0.000,27.415 1.061,26.382 2.370,26.382 Z"/>
</svg>
