<svg xmlns="http://www.w3.org/2000/svg" height="32" width="32" preserveAspectRatio="xMidYMid" xmlns:xlink="http://www.w3.org/1999/xlink" viewBox="0 0 32 32">
 <path d="m29.064 23.266h-26.128c-1.069 0-1.936-0.867-1.936-1.937v-0.002c0-1.069 0.867-1.936 1.936-1.936h26.128c1.069 0 1.936 0.867 1.936 1.936v0.002c0 1.07-0.867 1.937-1.936 1.937zm0-8.235h-12.096c-1.07 0-1.937-0.867-1.937-1.936v-0.002c0-1.07 0.867-1.937 1.937-1.937h12.096c1.069 0 1.936 0.867 1.936 1.937v0.002c0 1.069-0.867 1.936-1.936 1.936zm0-7.75h-6.768c-1.07 0-1.937-0.867-1.937-1.936v-0.002c0-1.07 0.867-1.937 1.937-1.937h6.768c1.069 0 1.936 0.867 1.936 1.937v0.002c0 1.069-0.867 1.936-1.936 1.936zm-19.22 6.839c-0.771 0.981-2.078 1.241-2.918 0.58-0.063-0.049-0.09-0.124-0.144-0.18-0.078-0.045-0.164-0.063-0.237-0.12l-4.568-3.589c-0.841-0.66-0.987-1.878-0.326-2.719s1.878-0.987 2.719-0.326l3.426 2.692 6.679-8.501c0.771-0.981 2.078-1.241 2.919-0.58s0.897 1.992 0.127 2.973l-7.677 9.77zm-6.914 13.021h26.14c1.066 0 1.93 0.864 1.93 1.929 0 1.066-0.864 1.93-1.93 1.93h-26.14c-1.066 0-1.93-0.864-1.93-1.93 0-1.065 0.864-1.929 1.93-1.929z"/>
</svg>
