<svg xmlns="http://www.w3.org/2000/svg" viewBox="0 0 512 512">
<path fill-rule="evenodd" clip-rule="evenodd" d="M149.333 64C102.205 64 64 102.205 64 149.333V362.667C64 409.795 102.205 448 149.333 448H362.667C409.795 448 448 409.795 448 362.667V149.333C448 102.205 409.795 64 362.667 64H149.333ZM106.667 170.667C106.667 158.885 116.218 149.333 128 149.333H341.333C353.115 149.333 362.667 158.885 362.667 170.667C362.667 182.449 353.115 192 341.333 192H128C116.218 192 106.667 182.449 106.667 170.667ZM409.752 283.582C418.083 291.913 418.083 305.42 409.752 313.752L345.752 377.752C337.42 386.083 323.913 386.083 315.582 377.752L283.582 345.752C275.251 337.42 275.251 323.913 283.582 315.582C291.913 307.251 305.42 307.251 313.752 315.582L330.667 332.497L379.582 283.582C387.913 275.251 401.42 275.251 409.752 283.582ZM128 234.667C116.218 234.667 106.667 244.218 106.667 256C106.667 267.782 116.218 277.333 128 277.333H277.333C289.115 277.333 298.667 267.782 298.667 256C298.667 244.218 289.115 234.667 277.333 234.667H128ZM106.667 341.333C106.667 329.551 116.218 320 128 320H170.667C182.449 320 192 329.551 192 341.333C192 353.115 182.449 362.667 170.667 362.667H128C116.218 362.667 106.667 353.115 106.667 341.333Z" fill="black"/>
</svg>
