<svg xmlns="http://www.w3.org/2000/svg" xmlns:xlink="http://www.w3.org/1999/xlink" preserveAspectRatio="xMidYMid" width="32" height="32" viewBox="0 0 32 32">
  <path d="M30.291,13.388 L28.629,15.052 L28.629,15.052 L28.629,15.052 L15.336,28.360 L15.336,28.360 L15.336,28.360 L14.505,29.191 C14.342,29.355 14.131,29.466 13.904,29.512 L1.426,31.992 C0.654,32.146 -0.114,31.376 0.040,30.603 L2.516,18.112 C2.562,17.885 2.674,17.674 2.837,17.511 L16.961,3.371 L16.961,3.371 L16.961,3.371 L18.623,1.708 C20.913,-0.585 24.647,-0.579 26.945,1.721 L30.278,5.058 C32.576,7.358 32.581,11.095 30.291,13.388 ZM16.530,23.826 L26.132,14.215 L24.465,12.547 L15.326,21.695 C15.936,22.306 16.324,23.047 16.530,23.826 ZM22.798,10.877 L21.961,10.040 L21.131,9.209 L11.530,18.820 C11.664,19.328 11.712,19.847 11.675,20.367 C12.186,20.336 12.698,20.357 13.197,20.490 L22.798,10.877 ZM13.090,27.271 L13.669,26.690 L13.669,26.690 C14.586,25.773 14.583,24.279 13.664,23.359 C12.745,22.439 11.252,22.436 10.336,23.354 C9.877,23.812 9.133,23.812 8.672,23.351 C8.211,22.889 8.211,22.144 8.669,21.684 C9.586,20.767 9.583,19.273 8.664,18.353 C7.745,17.433 6.251,17.430 5.335,18.348 L4.756,18.927 L3.847,23.511 L8.511,28.181 L13.090,27.271 ZM2.692,29.337 L5.738,28.731 L3.297,26.288 L2.692,29.337 ZM17.797,5.871 L8.197,15.484 C8.975,15.689 9.716,16.079 10.326,16.689 L19.464,7.541 L17.797,5.871 ZM28.616,6.722 L25.283,3.384 C23.904,2.004 21.664,2.001 20.290,3.377 L19.459,4.208 L23.623,8.377 L27.793,12.552 L28.624,11.719 C29.998,10.344 29.995,8.101 28.616,6.722 Z"/>
</svg>
