<svg xmlns="http://www.w3.org/2000/svg" height="32" width="32" preserveAspectRatio="xMidYMid" xmlns:xlink="http://www.w3.org/1999/xlink" viewBox="0 0 32 32">
<g>
	<path d="M19.1,18.7c-0.2,0.2-0.4,0.6-0.4,0.9c0,0.3,0.1,0.7,0.4,0.9c0.2,0.2,0.5,0.4,0.9,0.4s0.6-0.1,0.9-0.4
		c0.2-0.2,0.4-0.6,0.4-0.9c0-0.3-0.1-0.7-0.4-0.9C20.4,18.2,19.5,18.2,19.1,18.7z"/>
	<path d="M11.6,9.5H20c0.7,0,1.2-0.6,1.2-1.3c0-0.7-0.6-1.3-1.2-1.3h-8.4c-0.7,0-1.2,0.6-1.2,1.3C10.4,8.9,10.9,9.5,11.6,9.5z"/>
	<path d="M11.4,20.7h4.2c0.7,0,1.2-0.6,1.2-1.3s-0.6-1.3-1.2-1.3h-4.2c-0.7,0-1.2,0.6-1.2,1.3S10.7,20.7,11.4,20.7z"/>
	<path d="M26.6,0H5.4C4.6,0,4,0.7,4,1.5v29.1C4,31.3,4.6,32,5.4,32h21.2c0.8,0,1.4-0.7,1.4-1.5V1.5C28,0.7,27.4,0,26.6,0z
		 M25.2,29.1H6.8V2.9h18.4V29.1z"/>
	<path d="M11.6,14.9H20c0.7,0,1.2-0.6,1.2-1.3c0-0.7-0.6-1.3-1.2-1.3h-8.4c-0.7,0-1.2,0.6-1.2,1.3C10.4,14.3,10.9,14.9,11.6,14.9z"
		/>
</g>
</svg>
