<svg xmlns="http://www.w3.org/2000/svg" viewBox="0 0 512 512" aria-label="apple">
  <path d="M251.77,134.4c18.77,0,42.29-11.13,56.3-26C320.75,95,330,76.22,330,57.44a30.13,30.13,0,0,0-.79-7.18c-20.88.69-46,12.28-61,27.81-11.9,11.82-22.73,30.37-22.73,49.37a28.33,28.33,0,0,0,.79,6.49A34.64,34.64,0,0,0,251.77,134.4Zm-53,294.48c24,0,34.69-16,64.67-16,30.48,0,37.17,15.55,63.93,15.55,26.27,0,43.86-24.19,60.46-47.89a217.58,217.58,0,0,0,26.76-55c-1.73-.5-52-21-52-78.5,0-49.86,39.64-72.33,41.87-74.06-26.27-37.52-66.16-38.5-77.06-38.5-29.49,0-53.52,17.77-68.63,17.77-16.36,0-37.91-16.79-63.44-16.79-48.56,0-97.87,40-97.87,115.53,0,46.9,18.34,96.51,40.88,128.61C157.63,406.67,174.48,428.88,198.76,428.88Z"/>
</svg>
