<svg xmlns="http://www.w3.org/2000/svg" viewBox="0 0 512 512">
<path d="M374.581 64C392.94 64 409.241 75.7446 415.053 93.1585L443.641 178.925C445.062 183.198 446.14 187.57 446.869 192C447.621 196.57 448 201.201 448 205.848V269.558C435.297 260.55 420.88 253.8 405.333 249.894V205.848C405.333 201.262 404.594 196.706 403.144 192.355L403.025 192H108.975L108.856 192.355C107.406 196.706 106.667 201.262 106.667 205.848V384C106.667 395.782 116.218 405.333 128 405.333H249.894C253.8 420.88 260.55 435.297 269.558 448H128C92.6538 448 64 419.346 64 384V205.848C64 201.201 64.3795 196.57 65.1311 192C65.8631 187.549 66.948 183.156 68.379 178.863L96.9419 93.1743C102.749 75.7517 119.054 64 137.419 64H374.581Z" fill="black"/>
<path d="M442.46 357.127C450.791 348.795 450.791 335.288 442.46 326.957C434.129 318.626 420.621 318.626 412.29 326.957L363.375 375.872L346.46 358.957C338.129 350.626 324.621 350.626 316.29 358.957C307.959 367.288 307.959 380.795 316.29 389.127L348.29 421.127C356.621 429.458 370.129 429.458 378.46 421.127L442.46 357.127Z" fill="black"/>
</svg>
