<svg xmlns="http://www.w3.org/2000/svg" viewBox="0 0 512 512">
<path d="M277.333 256C277.333 244.218 267.782 234.667 256 234.667C244.218 234.667 234.667 244.218 234.667 256V311.164L225.83 302.327C217.499 293.996 203.991 293.996 195.66 302.327C187.329 310.658 187.329 324.166 195.66 332.497L240.915 377.752C249.246 386.083 262.753 386.083 271.085 377.752L316.339 332.497C324.671 324.166 324.671 310.658 316.339 302.327C308.008 293.996 294.501 293.996 286.17 302.327L277.333 311.163V256Z" fill="black"/>
<path fill-rule="evenodd" clip-rule="evenodd" d="M374.581 64C392.94 64 409.241 75.7446 415.053 93.1585L443.641 178.925C445.062 183.198 446.14 187.57 446.869 192C447.621 196.57 448 201.201 448 205.848V384C448 419.346 419.346 448 384 448H128C92.6538 448 64 419.346 64 384V205.848C64 201.201 64.3795 196.57 65.1311 192C65.8631 187.549 66.948 183.156 68.379 178.863L96.9419 93.1743C102.749 75.7517 119.054 64 137.419 64H374.581ZM108.975 192L108.856 192.355C107.406 196.706 106.667 201.262 106.667 205.848V384C106.667 395.782 116.218 405.333 128 405.333H384C395.782 405.333 405.333 395.782 405.333 384V205.848C405.333 201.262 404.594 196.706 403.144 192.355L403.025 192H108.975Z" fill="black"/>
</svg>
