<svg xmlns="http://www.w3.org/2000/svg" viewBox="0 0 512 512">
<path d="M375.756 107.286L252.176 107.286C240.16 107.286 230.418 97.5962 230.418 85.643C230.418 73.6899 240.16 64 252.176 64L426.242 64C426.993 64 427.735 64.0379 428.466 64.1117C438.707 65.1462 446.848 73.2441 447.888 83.4302C447.962 84.1577 448 84.896 448 85.643L448 258.787C448 270.74 438.258 280.43 426.242 280.43C414.225 280.43 404.484 270.74 404.484 258.787L404.484 139.926L101.144 441.661C92.6464 450.113 78.8699 450.113 70.3728 441.661C61.8757 433.209 61.8757 419.505 70.3728 411.053L375.756 107.286Z" fill="black"/>
</svg>
