<svg xmlns="http://www.w3.org/2000/svg" viewBox="0 0 512 512">
<path d="M276.745 91.5041C285.076 83.2452 298.584 83.2452 306.915 91.5041L457.764 241.046C466.095 249.305 466.095 262.695 457.764 270.954L306.915 420.496C298.584 428.755 285.076 428.755 276.745 420.496C268.414 412.237 268.414 398.846 276.745 390.588L412.509 256L276.745 121.412C268.414 113.153 268.414 99.7631 276.745 91.5041Z" fill="black"/>
<path d="M183.769 91.5041C192.1 83.2452 205.608 83.2452 213.939 91.5041L364.789 241.046C373.12 249.305 373.12 262.695 364.789 270.954L213.939 420.496C205.608 428.755 192.1 428.755 183.769 420.496C175.438 412.237 175.438 398.846 183.769 390.588L299.716 275.645L69.3333 275.645C57.5513 275.645 48 266.177 48 254.497C48 242.817 57.5513 233.349 69.3333 233.349H296.684L183.769 121.412C175.438 113.153 175.438 99.7631 183.769 91.5041Z" fill="black"/>
</svg>
