<svg viewBox="0 0 512 512" xmlns="http://www.w3.org/2000/svg">
<path d="M420.502 276.739C428.761 285.07 428.761 298.577 420.502 306.909L270.96 457.758C262.701 466.089 249.311 466.089 241.052 457.758L91.5104 306.909C83.2514 298.577 83.2514 285.07 91.5104 276.739C99.7694 268.408 113.16 268.408 121.419 276.739L256.006 412.503L390.594 276.739C398.853 268.408 412.243 268.408 420.502 276.739Z" fill="black"/>
<path d="M420.502 141.096C428.761 149.427 428.761 162.935 420.502 171.266L270.96 322.116C262.701 330.447 249.311 330.447 241.052 322.116L91.5104 171.266C83.2514 162.935 83.2514 149.427 91.5104 141.096C99.7694 132.765 113.16 132.765 121.419 141.096L236.361 257.044L236.361 69.327C236.361 57.545 245.829 47.9937 257.509 47.9937C269.189 47.9937 278.658 57.545 278.658 69.327V254.011L390.594 141.096C398.853 132.765 412.243 132.765 420.502 141.096Z" fill="black"/>
</svg>
