<svg viewBox="0 0 512 512" xmlns="http://www.w3.org/2000/svg">
<path d="M235.268 420.496C226.937 428.755 213.429 428.755 205.098 420.496L54.2484 270.954C45.9172 262.695 45.9172 249.305 54.2484 241.046L205.098 91.5042C213.429 83.2452 226.937 83.2452 235.268 91.5042C243.599 99.7631 243.599 113.154 235.268 121.413L99.5033 256L235.268 390.588C243.599 398.847 243.599 412.237 235.268 420.496Z" fill="black"/>
<path d="M370.91 420.496C362.579 428.755 349.072 428.755 340.74 420.496L189.891 270.954C181.56 262.695 181.56 249.305 189.891 241.046L340.74 91.5042C349.072 83.2452 362.579 83.2452 370.91 91.5042C379.241 99.7631 379.241 113.154 370.91 121.413L254.963 236.355L442.679 236.355C454.462 236.355 464.013 245.823 464.013 257.503C464.013 269.183 454.462 278.651 442.679 278.651H257.995L370.91 390.588C379.241 398.847 379.241 412.237 370.91 420.496Z" fill="black"/>
</svg>
