<svg viewBox="0 0 512 512" xmlns="http://www.w3.org/2000/svg">
<path d="M91.5105 235.261C83.2515 226.93 83.2515 213.423 91.5105 205.092L241.052 54.2421C249.311 45.9109 262.702 45.9109 270.961 54.2421L420.502 205.092C428.761 213.423 428.761 226.93 420.502 235.261C412.243 243.593 398.853 243.593 390.594 235.261L256.006 99.4969L121.419 235.261C113.16 243.593 99.7694 243.593 91.5105 235.261Z" fill="black"/>
<path d="M91.5105 370.904C83.2515 362.573 83.2515 349.065 91.5105 340.734L241.052 189.885C249.311 181.553 262.702 181.553 270.961 189.885L420.502 340.734C428.761 349.065 428.761 362.573 420.502 370.904C412.243 379.235 398.853 379.235 390.594 370.904L275.652 254.957L275.652 442.673C275.652 454.455 266.183 464.006 254.503 464.006C242.823 464.006 233.355 454.455 233.355 442.673V257.989L121.419 370.904C113.16 379.235 99.7694 379.235 91.5105 370.904Z" fill="black"/>
</svg>
