<svg viewBox="0 0 512 512" xmlns="http://www.w3.org/2000/svg">
<path d="M276.744 91.5038C285.075 83.2448 298.583 83.2448 306.914 91.5038L457.764 241.046C466.095 249.304 466.095 262.695 457.764 270.954L306.914 420.496C298.583 428.755 285.075 428.755 276.744 420.496C268.413 412.237 268.413 398.846 276.744 390.587L412.509 256L276.744 121.412C268.413 113.153 268.413 99.7628 276.744 91.5038Z" fill="black"/>
<path d="M141.102 91.5038C149.433 83.2448 162.94 83.2448 171.272 91.5038L322.121 241.046C330.452 249.304 330.452 262.695 322.121 270.954L171.272 420.496C162.94 428.755 149.433 428.755 141.102 420.496C132.771 412.237 132.771 398.846 141.102 390.587L257.049 275.645L69.3325 275.645C57.5504 275.645 47.9991 266.177 47.9991 254.497C47.9991 242.817 57.5504 233.348 69.3325 233.348H254.017L141.102 121.412C132.771 113.153 132.771 99.7628 141.102 91.5038Z" fill="black"/>
</svg>
