<svg viewBox="0 0 512 512" xmlns="http://www.w3.org/2000/svg">
<path d="M336 271.084L337.657 269.224C344.288 260.851 343.736 248.65 336 240.915L185.156 90.0653L183.296 88.4073C174.922 81.7753 162.723 82.3293 154.987 90.0653L153.33 91.9253C146.699 100.299 147.251 112.498 154.987 120.234L269.415 234.667L85.3334 234.666C73.5519 234.666 64.0012 244.217 64.0012 255.999C64.0012 267.782 73.5518 277.332 85.3334 277.332L269.415 277.333L154.987 391.765L153.33 393.625C146.699 401.999 147.251 414.198 154.987 421.934C163.319 430.266 176.826 430.266 185.156 421.934L336 271.084Z" />
<path d="M464.002 271.084L465.659 269.224C472.29 260.851 471.738 248.65 464.002 240.915L313.158 90.0653L311.298 88.4073C302.925 81.7753 290.725 82.3293 282.989 90.0653L281.332 91.9253C274.702 100.299 275.254 112.498 282.989 120.234L416 256L282.989 391.765L281.332 393.625C274.702 401.999 275.254 414.198 282.989 421.934C291.321 430.266 304.828 430.266 313.158 421.934L464.002 271.084Z" />
</svg>
