<svg viewBox="0 0 512 512" xmlns="http://www.w3.org/2000/svg">
<path d="M320 42.6667C343.564 42.6667 362.667 61.7692 362.667 85.3333V236.069C362.667 244.589 353.172 249.67 346.083 244.944L298.667 213.333H192C168.436 213.333 149.333 194.231 149.333 170.667V85.3333C149.333 61.7692 168.436 42.6667 192 42.6667H320Z" fill="black"/>
<path d="M202.668 338.963C231.468 338.963 254.816 315.615 254.816 286.815C254.816 258.014 231.468 234.667 202.668 234.667C173.867 234.667 150.519 258.014 150.519 286.815C150.519 315.615 173.867 338.963 202.668 338.963Z" fill="black"/>
<path d="M85.3334 432.061C85.3334 414.478 93.3643 397.459 108.782 389.005C136.649 373.725 168.643 365.036 202.667 365.036C220.819 365.036 238.395 367.51 255.073 372.138C254.225 372.586 253.38 373.041 252.54 373.502C224.787 388.719 213.333 417.444 213.333 442.227C213.333 451.84 215.278 460.999 218.794 469.332H122.605C102.02 469.332 85.3334 452.646 85.3334 432.061Z" fill="black"/>
<path d="M307.399 397.555C302.753 398.692 298.197 400.058 293.742 401.639C286.563 404.188 279.649 407.297 273.053 410.913C261.841 417.061 256 429.439 256 442.227C256 457.123 268.016 469.213 282.885 469.332L283.106 469.333H399.56C414.531 469.333 426.667 457.197 426.667 442.227C426.667 429.439 420.826 417.062 409.614 410.914C389.347 399.801 366.078 393.481 341.333 393.481C329.639 393.481 318.273 394.893 307.399 397.555Z" fill="black"/>
<path d="M379.26 336.593C379.26 357.539 362.28 374.519 341.334 374.519C320.388 374.519 303.408 357.539 303.408 336.593C303.408 315.647 320.388 298.667 341.334 298.667C362.28 298.667 379.26 315.647 379.26 336.593Z" fill="black"/>
</svg>
