<svg xmlns="http://www.w3.org/2000/svg" viewBox="0 0 512 512">
<path fill-rule="evenodd" clip-rule="evenodd" d="M397.771 150.404C372.988 125.411 332.806 125.411 308.022 150.404L197.12 262.247C188.858 270.578 188.858 284.086 197.12 292.417C205.381 300.748 218.775 300.748 227.036 292.417L331.743 186.822C340.004 178.491 353.398 178.491 361.659 186.822C369.92 195.154 369.92 208.661 361.659 216.992L256.952 322.587C232.169 347.58 191.987 347.58 167.203 322.587C142.42 297.593 142.42 257.071 167.203 232.077L278.106 120.234C319.412 78.5783 386.382 78.5783 427.687 120.234C468.993 161.89 468.993 229.428 427.687 271.084L316.784 382.927C258.956 441.245 165.199 441.245 107.371 382.927C49.5429 324.608 49.543 230.056 107.371 171.738L186.854 91.5818C195.115 83.2507 208.509 83.2507 216.77 91.5819C225.031 99.9131 225.031 113.421 216.77 121.752L137.287 201.908C95.9816 243.563 95.9815 311.101 137.287 352.757C178.593 394.413 245.562 394.413 286.868 352.757L397.771 240.914C422.555 215.92 422.555 175.398 397.771 150.404Z" fill="black"/>
</svg>
