<svg  viewBox="0 0 512 512" xmlns="http://www.w3.org/2000/svg">
<path d="M378.582 341.32C394.265 318.837 403.906 291.851 405.191 262.69C405.289 260.471 405.338 258.239 405.338 255.996C405.338 173.522 338.479 106.663 256.005 106.663C244.223 106.663 234.671 97.1115 234.671 85.3294C234.671 73.5474 244.223 63.9961 256.005 63.9961C362.043 63.9961 448.005 149.957 448.005 255.996L448.002 257.047C447.763 301.514 432.399 342.407 406.821 374.829H421.171C432.953 374.829 442.505 384.381 442.505 396.163C442.505 407.945 432.953 417.496 421.171 417.496H359.883L359.855 417.514H357.18C348.823 417.514 341.589 412.709 338.089 405.711C336.649 402.838 335.838 399.595 335.838 396.163V332.163C335.838 320.381 345.389 310.829 357.171 310.829C368.953 310.829 378.505 320.381 378.505 332.163V341.4L378.582 341.32Z" fill="black"/>
<path d="M133.427 170.672C117.745 193.155 108.104 220.141 106.818 249.302C106.721 251.521 106.671 253.753 106.671 255.996C106.671 338.471 173.53 405.329 256.005 405.329C267.787 405.329 277.338 414.881 277.338 426.663C277.338 438.445 267.787 447.996 256.005 447.996C149.966 447.996 64.0046 362.035 64.0046 255.996L64.0074 254.945C64.246 210.478 79.61 169.585 105.188 137.163H90.8379C79.0559 137.163 69.5046 127.612 69.5046 115.829C69.5046 104.047 79.0559 94.4961 90.8379 94.4961L152.126 94.4961L152.155 94.4779H154.829C163.186 94.4779 170.42 99.283 173.92 106.281C175.361 109.154 176.171 112.397 176.171 115.829L176.171 179.829C176.171 191.612 166.62 201.163 154.838 201.163C143.056 201.163 133.505 191.612 133.505 179.829V170.592L133.427 170.672Z" fill="black"/>
<path d="M231.286 290.065C228.704 287.483 228.704 283.296 231.286 280.714L271.016 240.985L212.618 265.573C210.14 266.617 207.277 266.056 205.376 264.155L195.551 254.329C188.577 247.355 191.415 235.477 200.789 232.41L299.319 200.171C307.039 197.645 314.356 204.962 311.83 212.682L279.591 311.212C276.524 320.585 264.645 323.424 257.672 316.45L231.286 290.065Z" fill="black"/>
</svg>
