<svg viewBox="0 0 512 512" xmlns="http://www.w3.org/2000/svg">
<path fill-rule="evenodd" clip-rule="evenodd" d="M213.333 85.3333C213.333 61.7692 232.436 42.6667 256 42.6667C279.564 42.6667 298.667 61.7692 298.667 85.3333V91.5174C360.352 109.876 405.334 167.018 405.334 234.667V327.111L414.291 333.083C422.023 338.237 426.667 346.915 426.667 356.207C426.667 369.333 417.568 380.334 405.334 383.245V384H106.667V383.245C94.4324 380.334 85.3335 369.333 85.3335 356.207C85.3335 346.915 89.9777 338.237 97.7095 333.083L106.667 327.111V234.667C106.667 167.018 151.648 109.876 213.333 91.5174V85.3333ZM362.667 234.667V320C362.667 331.782 353.116 341.333 341.334 341.333H170.667C158.885 341.333 149.333 331.782 149.333 320V234.667C149.333 175.756 197.09 128 256 128C314.911 128 362.667 175.756 362.667 234.667Z" fill="black"/>
<path d="M256 469.333C279.564 469.333 298.667 450.231 298.667 426.667H213.333C213.333 450.231 232.436 469.333 256 469.333Z" fill="black"/>
</svg>
