<svg viewBox="0 0 512 512" xmlns="http://www.w3.org/2000/svg">
<path d="M213.333 85.3333C213.333 61.7692 232.436 42.6667 256 42.6667C279.564 42.6667 298.667 61.7692 298.667 85.3333V91.5174C360.352 109.876 405.334 167.018 405.334 234.667V260.102C395.319 257.586 384.837 256.25 374.042 256.25C303.433 256.25 246.177 313.422 246.042 384H106.667V383.245C94.4324 380.334 85.3335 369.333 85.3335 356.207C85.3335 346.915 89.9777 338.237 97.7095 333.083L106.667 327.111V234.667C106.667 167.018 151.648 109.876 213.333 91.5174V85.3333Z" fill="black"/>
<path d="M274.732 465.012C265.503 453.678 258.176 440.734 253.237 426.667H213.333C213.333 450.231 232.436 469.333 256 469.333C262.72 469.333 269.077 467.78 274.732 465.012Z" fill="black"/>
<path d="M442.46 367.335C450.791 359.004 450.791 345.496 442.46 337.165C434.129 328.834 420.621 328.834 412.29 337.165L363.375 386.08L346.46 369.165C338.129 360.834 324.621 360.834 316.29 369.165C307.959 377.496 307.959 391.004 316.29 399.335L348.29 431.335C356.621 439.666 370.129 439.666 378.46 431.335L442.46 367.335Z" fill="black"/>
</svg>
