<svg xmlns="http://www.w3.org/2000/svg" viewBox="0 0 512 512">
  <title>
    bell oultined
  </title>
  <path d="M162.666669,405.291667 C186.187459,405.236969 205.256661,386.212744 205.366508,362.692543 L119.966829,362.692543 C120.021966,386.235555 139.123196,405.291667 162.666669,405.291667 L162.666669,405.291667 Z M162.666669,0 C180.339714,0 194.666549,14.3265934 194.666549,31.9993421 L194.666549,31.9993421 L194.666549,46.4990439 C255.666319,60.9987458 290.666188,115.797619 290.666188,181.296272 L290.666188,181.296272 L290.666188,255.994736 L318.166084,283.494171 C324.259459,289.613233 326.077869,298.79496 322.77668,306.774521 C319.475491,314.754083 311.701691,319.967592 303.066141,319.993567 L303.066141,319.993567 L22.1671971,319.993567 C13.5020119,320.025431 5.68112361,314.804931 2.38735641,306.790232 C-0.906410793,298.775534 0.983545845,289.564342 7.16725349,283.494171 L34.6671501,255.994736 L34.6671501,181.296272 C34.6671501,115.597623 69.4670193,60.9987458 130.666789,46.4990439 L130.666789,46.4990439 L130.666789,31.9993421 C130.666789,14.3265934 144.993623,0 162.666669,0 Z M162.486211,84.3301026 C104.440019,84.3301026 78.2624957,130.396748 78.2624957,174.196728 L78.2624957,236.388311 L74.9236658,253.67629 C72.6894773,265.244596 80.256274,276.433727 91.8245792,278.667916 C93.1576423,278.925371 94.5122387,279.05498 95.8699353,279.05498 L229.388023,279.05498 C241.170098,279.05498 250.721356,269.503721 250.721356,257.721646 C250.721356,256.374569 250.593767,255.030519 250.340296,253.707503 L247.022197,236.388311 L247.022197,174.196728 C247.022197,130.530081 220.532403,84.3301026 162.486211,84.3301026 Z" fill="#000" fill-rule="nonzero" transform="translate(93.333 64)"/>
</svg>
