<svg viewBox="0 0 512 512" xmlns="http://www.w3.org/2000/svg">
<path fill-rule="evenodd" clip-rule="evenodd" d="M287.69 55.3546C270.251 38.4374 241.752 38.4373 224.313 55.3546L198.957 79.9516L163.599 74.9367C139.591 71.5316 117.156 87.1732 113.143 110.115L106.656 147.196L72.8734 165.17C52.4131 176.055 44.2274 200.259 54.1336 220.58L71.4007 256L54.1336 291.42C44.2274 311.741 52.4131 335.945 72.8734 346.83L106.656 364.804L113.143 401.885C117.156 424.827 139.591 440.468 163.599 437.063L198.957 432.048L224.313 456.645C241.752 473.563 270.251 473.563 287.69 456.645L313.046 432.048L348.404 437.063C372.412 440.468 394.846 424.827 398.86 401.885L405.346 364.804L439.129 346.83C459.589 335.945 467.775 311.741 457.869 291.42L440.602 256L457.869 220.58C467.775 200.259 459.589 176.055 439.129 165.17L405.346 147.196L398.86 110.115C394.846 87.1732 372.412 71.5316 348.404 74.9367L313.046 79.9516L287.69 55.3546ZM149.333 149.333C137.551 149.333 128 158.885 128 170.667C128 182.449 137.551 192 149.333 192H320C331.782 192 341.333 182.449 341.333 170.667C341.333 158.885 331.782 149.333 320 149.333H149.333ZM388.418 313.752C396.749 305.42 396.749 291.913 388.418 283.582C380.087 275.251 366.58 275.251 358.248 283.582L309.333 332.497L292.418 315.582C284.087 307.251 270.58 307.251 262.248 315.582C253.917 323.913 253.917 337.42 262.248 345.752L294.248 377.752C302.58 386.083 316.087 386.083 324.418 377.752L388.418 313.752ZM128 256C128 244.218 137.551 234.667 149.333 234.667H256C267.782 234.667 277.333 244.218 277.333 256C277.333 267.782 267.782 277.333 256 277.333H149.333C137.551 277.333 128 267.782 128 256ZM149.333 320C137.551 320 128 329.551 128 341.333C128 353.115 137.551 362.667 149.333 362.667H192C203.782 362.667 213.333 353.115 213.333 341.333C213.333 329.551 203.782 320 192 320H149.333Z" fill="black"/>
</svg>
