<svg viewBox="0 0 512 512" xmlns="http://www.w3.org/2000/svg">
<path fill-rule="evenodd" d="M448 256C448 362.039 362.039 448 256 448C149.961 448 64 362.039 64 256C64 149.961 149.961 64 256 64C362.039 64 448 149.961 448 256ZM384 256C384 326.692 326.692 384 256 384C232.262 384 210.033 377.538 190.977 366.278L366.278 190.977C377.538 210.033 384 232.262 384 256ZM145.722 321.023L321.023 145.722C301.967 134.462 279.738 128 256 128C185.308 128 128 185.308 128 256C128 279.738 134.462 301.967 145.722 321.023Z" />
</svg>
