<svg xmlns="http://www.w3.org/2000/svg" viewBox="0 0 512 512">
<path fill-rule="evenodd" clip-rule="evenodd" d="M469.334 256C469.334 373.821 373.821 469.333 256 469.333C138.18 469.333 42.667 373.821 42.667 256C42.667 138.179 138.18 42.6667 256 42.6667C373.821 42.6667 469.334 138.179 469.334 256ZM360.654 390.824C331.754 413.289 295.439 426.667 256 426.667C161.744 426.667 85.3337 350.257 85.3337 256C85.3337 216.561 98.7114 180.246 121.177 151.346L360.654 390.824ZM390.824 360.654L151.347 121.176C180.246 98.7112 216.561 85.3334 256 85.3334C350.257 85.3334 426.667 161.743 426.667 256C426.667 295.439 413.289 331.754 390.824 360.654Z" fill="black"/>
</svg>
