<svg xmlns="http://www.w3.org/2000/svg" viewBox="0 0 512 512">
<path fill-rule="evenodd" clip-rule="evenodd" d="M391.422 173.73C389.125 204.916 372.164 233.239 345.596 250.258C382.642 267.28 406.051 304.257 405.317 344.594C402.462 402.631 353.873 448.185 295.019 447.999H134.456C119.131 447.957 106.717 435.706 106.667 420.576V91.4475C106.71 76.3127 119.126 64.0539 134.456 64.0116H280.304C309.907 63.5844 338.424 75.0072 359.358 95.677C380.292 116.347 391.858 144.503 391.422 173.73ZM287.245 379.435H190.008V297.153H287.245C310.259 297.153 328.916 315.573 328.916 338.294C328.916 361.016 310.259 379.435 287.245 379.435ZM273.35 132.589H190.008V214.871H273.35C296.364 214.871 315.021 196.451 315.021 173.73C315.021 151.008 296.364 132.589 273.35 132.589Z" fill="black"/>
</svg>
