<svg xmlns="http://www.w3.org/2000/svg" viewBox="0 0 512 512">
<path fill-rule="evenodd" clip-rule="evenodd" d="M74.6667 465.896V116.816L437.333 46.1042V396.601L74.6667 465.896ZM346.853 194.092C346.853 217.458 330.606 235.868 317.312 242.949C340.945 245.781 356.453 260.65 356.453 282.601C356.453 305.259 346.853 320.128 333.56 330.75C320.266 341.371 299.588 349.159 279.648 352.7L157.794 372.526V325.793L177.734 322.961V218.166L157.794 220.998V174.265L263.401 157.272C281.125 154.439 301.065 152.315 315.835 155.856C331.344 159.396 346.853 171.433 346.853 194.092ZM258.232 205.421L244.939 207.545V236.576L258.232 234.452C265.617 233.035 268.571 232.327 273.002 228.787C277.433 225.247 278.91 221.706 278.91 216.75C278.91 211.793 277.433 208.253 273.002 206.129C268.571 204.005 265.617 204.005 258.232 205.421ZM281.864 301.01C277.433 304.551 274.479 305.967 267.094 307.383L244.2 311.632V279.768L267.094 276.228C274.479 274.812 277.433 274.812 281.864 276.936C286.295 279.06 287.772 283.309 287.772 288.265C287.772 292.514 286.295 297.47 281.864 301.01Z" fill="black"/>
</svg>
