<svg viewBox="0 0 512 512" xmlns="http://www.w3.org/2000/svg">
<path fill-rule="evenodd" clip-rule="evenodd" d="M289.052 201.915C289.052 206.923 287.049 212.933 282.041 215.937C278.035 219.944 272.025 221.947 266.016 221.947L251.994 224.951V191.9L266.016 189.897C274.028 187.894 278.035 187.894 282.041 189.897C287.049 191.9 290.053 196.908 289.052 201.915ZM251.994 274.028L276.031 269.02C281.039 268.019 287.049 268.019 292.056 270.022C297.064 273.027 299.067 278.034 299.067 283.042C299.067 289.052 296.063 294.059 292.056 298.066C288.05 302.072 282.041 305.077 276.031 305.077L251.994 309.083V274.028Z" fill="black"/>
<path fill-rule="evenodd" clip-rule="evenodd" d="M42.6667 256C42.6667 138.179 138.179 42.6667 256 42.6667C373.821 42.6667 469.333 138.179 469.333 256C469.333 373.821 373.821 469.333 256 469.333C138.179 469.333 42.6667 373.821 42.6667 256ZM289.052 357.158C310.085 354.153 330.116 345.139 347.142 332.119C364.169 319.099 373.183 299.067 372.182 278.034C372.724 266.176 368.459 254.599 360.352 245.927C352.246 237.255 340.983 232.22 329.114 231.962C348.144 220.945 360.163 199.912 361.164 176.876C362.166 156.845 348.144 137.815 328.113 133.809C309.083 130.804 290.053 131.806 271.024 135.812L157.847 154.842V207.925L178.88 204.92V323.105L157.847 327.111V380.194L289.052 357.158Z" fill="black"/>
</svg>
