<svg xmlns="http://www.w3.org/2000/svg" viewBox="0 0 512 512">
<path d="M416 202.667C416 219.429 413.422 235.589 408.642 250.773C397.636 247.69 386.031 246.042 374.042 246.042C303.349 246.042 246.042 303.349 246.042 374.042C246.042 384.836 247.378 395.319 249.894 405.333H213.333C189.769 405.333 170.667 386.231 170.667 362.667V338.036C125.799 309.693 96 259.66 96 202.667C96 114.301 167.634 42.6667 256 42.6667C344.366 42.6667 416 114.301 416 202.667Z" fill="black"/>
<path d="M288.579 469.333C275.409 457.513 264.703 443.003 257.325 426.666H213.333C201.551 426.666 192 436.218 192 448C192 459.782 201.551 469.333 213.333 469.333H288.579Z" fill="black"/>
<path d="M442.46 357.127C450.791 348.796 450.791 335.288 442.46 326.957C434.129 318.626 420.621 318.626 412.29 326.957L363.375 375.872L346.46 358.957C338.129 350.626 324.621 350.626 316.29 358.957C307.959 367.288 307.959 380.796 316.29 389.127L348.29 421.127C356.621 429.458 370.129 429.458 378.46 421.127L442.46 357.127Z" fill="black"/>
</svg>
