<svg xmlns="http://www.w3.org/2000/svg" viewBox="0 0 512 512">
<path d="M416 202.667C416 259.66 386.201 309.694 341.333 338.036V362.667C341.333 386.231 322.231 405.333 298.667 405.333H213.333C189.769 405.333 170.667 386.231 170.667 362.667V338.036C125.799 309.694 96 259.66 96 202.667C96 114.301 167.634 42.667 256 42.667C344.366 42.667 416 114.301 416 202.667Z" fill="black"/>
<path d="M213.333 426.667C201.551 426.667 192 436.218 192 448C192 459.782 201.551 469.333 213.333 469.333H298.667C310.449 469.333 320 459.782 320 448C320 436.218 310.449 426.667 298.667 426.667H213.333Z" fill="black"/>
</svg>
