<svg xmlns="http://www.w3.org/2000/svg" viewBox="0 0 512 512" aria-label="bulb">
<path d="M192 426.667H320V447.967C320 459.667 310.4 469.267 298.7 469.267H213.4C201.7 469.267 192.1 459.667 192.1 447.967V426.667H192Z"/>
<path d="M255.967 42.6666C173.667 42.6666 106.667 109.667 106.667 191.967C106.667 242.767 132.067 287.367 170.667 314.467V362.667C170.667 374.367 180.267 383.967 191.967 383.967H319.967C331.667 383.967 341.267 374.367 341.267 362.667V314.467C379.867 287.367 405.267 242.767 405.267 191.967C405.367 109.667 338.367 42.6666 255.967 42.6666ZM316.767 279.467L298.667 292.267V341.367H213.367V292.267L195.267 279.467C166.467 259.367 149.367 226.767 149.367 191.967C149.367 133.067 197.166 85.2666 256.066 85.2666C314.966 85.2666 362.667 133.167 362.667 191.967C362.667 226.767 345.567 259.367 316.767 279.467Z"/>
</svg>
