<svg xmlns="http://www.w3.org/2000/svg" viewBox="0 0 512 512">
<path fill-rule="evenodd" clip-rule="evenodd" d="M298.667 338.036C298.667 323.398 306.171 309.782 318.547 301.964C351.56 281.11 373.333 244.416 373.333 202.667C373.333 137.866 320.801 85.3337 256 85.3337C191.199 85.3337 138.667 137.866 138.667 202.667C138.667 244.416 160.44 281.11 193.453 301.964C205.829 309.782 213.333 323.398 213.333 338.036V352C213.333 357.891 218.109 362.667 224 362.667H288C293.891 362.667 298.667 357.891 298.667 352V338.036ZM319.837 445.353C318.534 434.82 309.552 426.667 298.667 426.667H213.333C202.448 426.667 193.466 434.82 192.163 445.353C192.055 446.221 192 447.104 192 448C192 459.782 201.551 469.333 213.333 469.333H298.667C310.449 469.333 320 459.782 320 448C320 447.104 319.945 446.221 319.837 445.353ZM329.659 391.991C336.895 384.346 341.333 374.025 341.333 362.667V338.036C386.201 309.694 416 259.66 416 202.667C416 114.301 344.366 42.667 256 42.667C167.634 42.667 96 114.301 96 202.667C96 259.66 125.799 309.694 170.667 338.036V362.667C170.667 374.025 175.105 384.346 182.341 391.991C190.118 400.208 201.127 405.333 213.333 405.333H298.667C310.873 405.333 321.882 400.208 329.659 391.991Z" fill="black"/>
</svg>
