<svg xmlns="http://www.w3.org/2000/svg" viewBox="0 0 512 512" aria-labelledby="bulb_checked">
<path d="M255.967 42.6667C173.667 42.6667 106.667 109.667 106.667 191.967C106.667 242.767 132.067 287.367 170.667 314.467V362.667C170.667 374.367 180.267 383.967 191.967 383.967H319.967C331.667 383.967 341.267 374.367 341.267 362.667V314.467C379.867 287.367 405.267 242.767 405.267 191.967C405.367 109.667 338.367 42.6667 255.967 42.6667ZM338.066 175.067L336.467 176.867L248.467 262.167C243.067 267.367 234.767 268.067 228.667 264.067L226.667 262.567L186.667 226.767C180.067 220.867 179.567 210.767 185.467 204.167C190.867 198.167 199.667 197.167 206.167 201.467L208.067 202.967L236.867 228.767L314.267 153.767C320.567 147.567 330.767 147.767 336.867 154.167C342.367 159.967 342.766 168.867 338.066 175.067Z"/>
<path d="M192 426.667H320V447.967C320 459.667 310.4 469.267 298.7 469.267H213.4C201.7 469.267 192.1 459.667 192.1 447.967V426.667H192Z"/>
</svg>
