<svg xmlns="http://www.w3.org/2000/svg" height="32" width="32" preserveAspectRatio="xMidYMid" xmlns:xlink="http://www.w3.org/1999/xlink" viewBox="0 0 32 32">
<path class="st0" d="M16,0C10.2,0,5.5,4.7,5.5,10.5c0,3.5,1.4,6.4,4.2,8.3v3.4c0,0.4,0.2,0.8,0.5,1c0.3,0.2,0.6,0.4,1,0.4
	c0,0,0.1,0,0.1,0l9.6-0.8c0.7-0.1,1.3-0.7,1.3-1.4v-2.6c2.4-1.8,4.2-4.8,4.2-8.3C26.5,4.7,21.8,0,16,0 M20.2,16.9
	c-0.5,0.2-0.7,0.7-0.7,1.2v2.1l-7,0.5v-2.7c0-0.5-0.2-1-0.6-1.2c-2.4-1.4-3.6-3.5-3.6-6.3c0-4.3,3.4-7.8,7.7-7.8s7.7,3.5,7.7,7.8
	C23.7,13.3,22.4,15.7,20.2,16.9 M22.2,25.8c0.1,0.8-0.5,1.4-1.3,1.5L11.3,28c0,0-0.1,0-0.1,0c-0.7,0-1.3-0.6-1.4-1.3
	c-0.1-0.8,0.5-1.4,1.3-1.5l9.6-0.7C21.5,24.5,22.1,25.1,22.2,25.8 M19.1,30.2c0.1,0.8-0.5,1.4-1.3,1.5L14.4,32c0,0-0.1,0-0.1,0
	c-0.7,0-1.3-0.6-1.4-1.3c-0.1-0.8,0.5-1.4,1.3-1.5l3.5-0.3C18.4,28.9,19.1,29.5,19.1,30.2 M21.6,10.5c-0.1,0.6-0.6,1.1-1.2,1.1
	c0,0-0.1,0-0.1,0c-0.7-0.1-1.2-0.7-1.1-1.3c0.2-2-1.6-2.7-1.8-2.8c-0.6-0.2-1-0.9-0.7-1.6c0.2-0.6,0.9-1,1.5-0.7
	C19.5,5.7,21.9,7.4,21.6,10.5"/>
</svg>
