<svg xmlns="http://www.w3.org/2000/svg" viewBox="0 0 512 512">
<path d="M106.667 149.333C130.231 149.333 149.333 130.231 149.333 106.667C149.333 83.1025 130.231 64 106.667 64C83.1025 64 64 83.1025 64 106.667C64 130.231 83.1025 149.333 106.667 149.333Z" fill="black"/>
<path d="M106.667 298.667C130.231 298.667 149.333 279.564 149.333 256C149.333 232.436 130.231 213.333 106.667 213.333C83.1025 213.333 64 232.436 64 256C64 279.564 83.1025 298.667 106.667 298.667Z" fill="black"/>
<path d="M149.333 405.333C149.333 428.898 130.231 448 106.667 448C83.1025 448 64 428.898 64 405.333C64 381.769 83.1025 362.667 106.667 362.667C130.231 362.667 149.333 381.769 149.333 405.333Z" fill="black"/>
<path d="M213.333 234.667C201.551 234.667 192 244.218 192 256C192 267.782 201.551 277.333 213.333 277.333H426.667C438.449 277.333 448 267.782 448 256C448 244.218 438.449 234.667 426.667 234.667H213.333Z" fill="black"/>
<path d="M192 106.667C192 94.8846 201.551 85.3333 213.333 85.3333H426.667C438.449 85.3333 448 94.8846 448 106.667C448 118.449 438.449 128 426.667 128H213.333C201.551 128 192 118.449 192 106.667Z" fill="black"/>
<path d="M213.333 384C201.551 384 192 393.551 192 405.333C192 417.115 201.551 426.667 213.333 426.667H426.667C438.449 426.667 448 417.115 448 405.333C448 393.551 438.449 384 426.667 384H213.333Z" fill="black"/>
</svg>
