<svg xmlns="http://www.w3.org/2000/svg" viewBox="0 0 512 512">
<path d="M234.667 320C234.667 308.218 244.218 298.667 256 298.667C267.782 298.667 277.333 308.218 277.333 320C277.333 331.782 267.782 341.333 256 341.333C244.218 341.333 234.667 331.782 234.667 320Z" fill="black"/>
<path d="M341.333 298.667C329.551 298.667 320 308.218 320 320C320 331.782 329.551 341.333 341.333 341.333C353.115 341.333 362.667 331.782 362.667 320C362.667 308.218 353.115 298.667 341.333 298.667Z" fill="black"/>
<path d="M234.667 256C234.667 244.218 244.218 234.667 256 234.667C267.782 234.667 277.333 244.218 277.333 256C277.333 267.782 267.782 277.333 256 277.333C244.218 277.333 234.667 267.782 234.667 256Z" fill="black"/>
<path d="M341.333 234.667C329.551 234.667 320 244.218 320 256C320 267.782 329.551 277.333 341.333 277.333C353.115 277.333 362.667 267.782 362.667 256C362.667 244.218 353.115 234.667 341.333 234.667Z" fill="black"/>
<path d="M149.333 320C149.333 308.218 158.885 298.667 170.667 298.667C182.449 298.667 192 308.218 192 320C192 331.782 182.449 341.333 170.667 341.333C158.885 341.333 149.333 331.782 149.333 320Z" fill="black"/>
<path d="M170.667 234.667C158.885 234.667 149.333 244.218 149.333 256C149.333 267.782 158.885 277.333 170.667 277.333C182.449 277.333 192 267.782 192 256C192 244.218 182.449 234.667 170.667 234.667Z" fill="black"/>
<path fill-rule="evenodd" clip-rule="evenodd" d="M128 64.0001C128 52.218 137.551 42.6667 149.333 42.6667C161.115 42.6667 170.667 52.218 170.667 64.0001V85.3334H341.333V64.0001C341.333 52.218 350.885 42.6667 362.667 42.6667C374.449 42.6667 384 52.218 384 64.0001V88.0218C420.805 97.4947 448 130.905 448 170.667V341.333C448 388.462 409.795 426.667 362.667 426.667H149.333C102.205 426.667 64 388.462 64 341.333V170.667C64 130.905 91.1952 97.4947 128 88.0218V64.0001ZM128 192C116.218 192 106.667 201.551 106.667 213.333V341.333C106.667 364.898 125.769 384 149.333 384H362.667C386.231 384 405.333 364.898 405.333 341.333V213.333C405.333 201.551 395.782 192 384 192H128Z" fill="black"/>
</svg>
