<svg xmlns="http://www.w3.org/2000/svg" viewBox="0 0 512 512">
  <title>
    calendar
  </title>
  <path fill="#000" fill-rule="nonzero" d="M192 42.667c11.782 0 21.333 9.55 21.333 21.333v21.333h-64v21.334c0 11.664 9.362 21.142 20.98 21.33l.354.003H192c11.782 0 21.333-9.551 21.333-21.333V85.333h85.333V64c0-11.782 9.552-21.333 21.334-21.333h21.333c11.782 0 21.334 9.55 21.334 21.333l-.001 21.333h-64v21.334c0 11.664 9.362 21.142 20.981 21.33L320 128h21.333c11.782 0 21.334-9.551 21.334-21.333l-.001-21.334h42.667C428.897 85.333 448 104.436 448 128v277.032c0 23.564-19.103 42.667-42.667 42.667H106.667C83.103 447.699 64 428.596 64 405.032V128c0-23.564 19.103-42.667 42.667-42.667h42.666V64c0-11.782 9.552-21.333 21.334-21.333H192zm213.333 150.936H106.667v213.334h298.666V193.603zM213.333 320c11.782 0 21.334 9.551 21.334 21.333 0 11.782-9.552 21.334-21.334 21.334h-42.666c-11.782 0-21.334-9.552-21.334-21.334S158.885 320 170.667 320h42.666zm128 0c11.782 0 21.334 9.551 21.334 21.333 0 11.782-9.552 21.334-21.334 21.334h-42.666c-11.782 0-21.334-9.552-21.334-21.334S286.885 320 298.667 320h42.666zm-128-85.333c11.782 0 21.334 9.55 21.334 21.333 0 11.782-9.552 21.333-21.334 21.333h-42.666c-11.782 0-21.334-9.55-21.334-21.333 0-11.782 9.552-21.333 21.334-21.333h42.666zm128 0c11.782 0 21.334 9.55 21.334 21.333 0 11.782-9.552 21.333-21.334 21.333h-42.666c-11.782 0-21.334-9.55-21.334-21.333 0-11.782 9.552-21.333 21.334-21.333h42.666z"/>
</svg>
