<svg xmlns="http://www.w3.org/2000/svg" viewBox="0 0 512 512">
<path d="M256 341.334C291.346 341.334 320 312.68 320 277.334C320 241.987 291.346 213.333 256 213.333C220.654 213.333 192 241.987 192 277.334C192 312.68 220.654 341.334 256 341.334Z" fill="black"/>
<path fill-rule="evenodd" clip-rule="evenodd" d="M330.667 106.667C324.129 93.5924 310.766 85.3335 296.149 85.3335H215.851C201.234 85.3335 187.871 93.5924 181.333 106.667C174.796 119.741 161.433 128 146.815 128H128C80.8718 128 42.6667 166.205 42.6667 213.333V341.334C42.6667 388.462 80.8718 426.667 128 426.667H384C431.128 426.667 469.333 388.462 469.333 341.334V213.333C469.333 166.205 431.128 128 384 128H365.185C350.567 128 337.204 119.741 330.667 106.667ZM362.667 277.334C362.667 336.244 314.91 384 256 384C197.09 384 149.333 336.244 149.333 277.334C149.333 218.423 197.09 170.667 256 170.667C314.91 170.667 362.667 218.423 362.667 277.334Z" fill="black"/>
</svg>
