<svg xmlns="http://www.w3.org/2000/svg" xmlns:xlink="http://www.w3.org/1999/xlink" preserveAspectRatio="xMidYMid" width="32" height="32" viewBox="0 0 32 32">
	<path d="M28.8,28H3.2C1.4,28,0,26.5,0,24.8V10.5C0,8.7,1.3,7,3,7l5.1,0l3.1-3h9.6l3.1,3h5c1.7,0,3.1,1.7,3.1,3.5v14.3
		C32,26.5,30.6,28,28.8,28z M16,9.5c-4.4,0-8,3.6-8,8.1s3.6,8.1,8,8.1s8-3.6,8-8.1S20.4,9.5,16,9.5z M16,24.3c-3.8,0-6.9-3-6.9-6.8
		s3.1-6.8,6.9-6.8s6.9,3,6.9,6.8S19.8,24.3,16,24.3z M16,11.8c-3.2,0-5.9,2.6-5.9,5.7c0,3.2,2.6,5.7,5.9,5.7s5.9-2.6,5.9-5.7
		C21.9,14.4,19.2,11.8,16,11.8z"/>
</svg>
