<svg viewBox="0 0 19 19" xmlns="http://www.w3.org/2000/svg">
<path fill-rule="evenodd" clip-rule="evenodd" d="M3.32604 18.093L1.90722 18.4799C1.10622 18.6984 0.391983 17.9226 0.675719 17.1423L1.15476 15.825C1.70579 14.3097 1.59128 12.9643 1.20021 11.4C1.11967 11.0778 1.00021 10 1.00021 9C1.00021 4.02944 5.02965 0 10.0002 0C14.9708 0 19.0002 4.02944 19.0002 9C19.0002 13.9706 14.9708 18 10.0002 18C9.33438 18 8.66939 17.9527 8.01026 17.8586C6.53857 17.6483 4.76029 17.7018 3.32604 18.093ZM11.4567 5.83171C11.5506 6.03228 11.6631 6.23506 11.7922 6.43343C12.3129 7.22911 13.1339 7.95205 14.4335 8.11516C14.7596 8.15703 15.0012 8.41712 15.0012 8.72569V9.27892C15.0012 9.58749 14.7572 9.84758 14.4335 9.88946C13.1339 10.0548 12.3129 10.7777 11.7922 11.5712C11.6631 11.7696 11.5506 11.9723 11.4567 12.1729C11.2198 12.6754 11.0861 13.1581 11.011 13.5042C10.9477 13.7929 10.6803 14.0023 10.3659 14.0023H9.63641C9.32207 14.0023 9.05231 13.7951 8.99132 13.5064C8.9186 13.1625 8.78255 12.6776 8.54562 12.1729C8.45179 11.9723 8.3392 11.7696 8.21018 11.5712C7.68942 10.7755 6.8684 10.0526 5.56885 9.88946C5.24279 9.84758 5.00117 9.58749 5.00117 9.27892V8.72569C5.00117 8.41712 5.24513 8.15703 5.56885 8.11516C6.8684 7.94985 7.68942 7.2269 8.21018 6.43343C8.3392 6.23506 8.45179 6.03228 8.54562 5.83171C8.78255 5.32917 8.91625 4.84648 8.99132 4.50043C9.05466 4.2117 9.32207 4.00231 9.63641 4.00231H10.3659C10.6803 4.00231 10.95 4.20949 11.011 4.49823C11.0837 4.84207 11.2198 5.32697 11.4567 5.83171Z" />
</svg>
