<svg width="32" height="32" viewBox="0 0 32 32" xmlns="http://www.w3.org/2000/svg">
    <path d="M30.02 16l1.85-3.68c.33-.8 0-1.76-.67-2.24l-3.87-1.92-.67-4c-.17-.96-1-1.44-2-1.44l-4.2.64L17.42.48c-.68-.64-1.68-.64-2.36 0l-3.35 2.88-4.2-.64c-1-.16-1.85.48-2.02 1.44l-.67 4-3.86 1.92c-.84.48-1.18 1.44-.84 2.24l2 3.68L.3 19.68c-.34.8 0 1.76.67 2.24l3.86 1.92.67 4c.17.96 1 1.44 2.02 1.44l4.2-.64 3.02 2.88c.67.64 1.68.64 2.35 0l3-2.88 4.2.64c1.02.16 1.86-.48 2.03-1.44l.67-4 3.86-1.92c.84-.48 1.18-1.44.67-2.24L30.03 16zM14.4 23.04l-6.04-5.76 1.84-1.76 4.2 4 9.24-8.8 1.85 1.76-11.1 10.56z" fill-rule="nonzero" fill="#FFF"/>
</svg>
