<svg viewBox="0 0 512 512" xmlns="http://www.w3.org/2000/svg">
<path fill-rule="evenodd" clip-rule="evenodd" d="M256 42.6667C138.18 42.6667 42.667 138.179 42.667 256C42.667 373.821 138.18 469.333 256 469.333C373.821 469.333 469.334 373.821 469.334 256C469.334 138.179 373.821 42.6667 256 42.6667ZM356.419 228.418C364.75 220.087 364.75 206.58 356.419 198.248C348.087 189.917 334.58 189.917 326.249 198.248L234.667 289.83L185.752 240.915C177.421 232.584 163.913 232.584 155.582 240.915C147.251 249.246 147.251 262.754 155.582 271.085L219.582 335.085C227.913 343.416 241.421 343.416 249.752 335.085L356.419 228.418Z" fill="black"/>
</svg>
