<svg xmlns="http://www.w3.org/2000/svg" viewBox="0 0 512 512">
<path d="M142.9 91.5264C134.611 83.2685 121.172 83.2685 112.883 91.5264C104.594 99.7842 104.594 113.173 112.883 121.431L247.962 256L112.883 390.569C104.594 398.827 104.594 412.215 112.883 420.473C121.172 428.731 134.611 428.731 142.9 420.473L292.988 270.952C301.277 262.694 301.277 249.305 292.988 241.048L142.9 91.5264Z" fill="black"/>
<path d="M249.028 91.5263C240.739 83.2685 227.3 83.2685 219.011 91.5263C210.722 99.7842 210.722 113.173 219.011 121.431L354.09 256L219.011 390.569C210.722 398.827 210.722 412.215 219.011 420.473C227.3 428.731 240.739 428.731 249.028 420.473L399.116 270.952C407.405 262.694 407.405 249.305 399.116 241.048L249.028 91.5263Z" fill="black"/>
</svg>
