<svg viewBox="0 0 512 512" xmlns="http://www.w3.org/2000/svg">
<path d="M292.467 270.952L294.111 269.108C300.691 260.809 300.143 248.715 292.467 241.048L142.799 91.5272L140.954 89.8838C132.645 83.3102 120.541 83.8593 112.866 91.5272L111.222 93.3708C104.642 101.671 105.19 113.763 112.866 121.43L244.839 256L112.866 390.569L111.222 392.413C104.642 400.713 105.19 412.805 112.866 420.473C121.132 428.731 134.534 428.731 142.799 420.473L292.467 270.952Z" />
<path d="M420.467 270.952L422.111 269.108C428.691 260.809 428.143 248.715 420.467 241.048L270.799 91.5272L268.954 89.8838C260.645 83.3102 248.541 83.8593 240.866 91.5272L239.222 93.3708C232.642 101.671 233.19 113.763 240.866 121.43L372.839 256L240.866 390.569L239.222 392.413C232.642 400.713 233.19 412.805 240.866 420.473C249.132 428.731 262.534 428.731 270.799 420.473L420.467 270.952Z" />
</svg>
