<svg viewBox="0 0 512 512" xmlns="http://www.w3.org/2000/svg">
<path d="M302.461 271.084L304.118 269.224C310.748 260.851 310.196 248.65 302.461 240.915L151.617 90.0653L149.757 88.4073C141.383 81.7753 129.183 82.3293 121.448 90.0653L119.791 91.9253C113.16 100.299 113.712 112.498 121.448 120.234L254.458 256L121.448 391.765L119.791 393.625C113.16 401.999 113.712 414.198 121.448 421.934C129.779 430.266 143.287 430.266 151.616 421.934L302.461 271.084Z" />
<path d="M419.203 271.084L420.86 269.224C427.491 260.851 426.939 248.65 419.203 240.915L268.359 90.0653L266.499 88.4073C258.125 81.7753 245.926 82.3293 238.19 90.0653L236.533 91.9253C229.902 100.299 230.454 112.498 238.19 120.234L371.201 256L238.19 391.765L236.533 393.625C229.902 401.999 230.454 414.198 238.19 421.934C246.522 430.266 260.029 430.266 268.359 421.934L419.203 271.084Z" />
</svg>
