<svg viewBox="0 0 512 512" xmlns="http://www.w3.org/2000/svg">
<path d="M420.473 132.234C428.731 123.945 428.731 110.506 420.473 102.217C412.215 93.9277 398.827 93.9277 390.569 102.217L256 237.296L121.431 102.217C113.173 93.9277 99.7845 93.9277 91.5266 102.217C83.2688 110.506 83.2688 123.945 91.5266 132.234L241.048 282.322C249.306 290.611 262.694 290.611 270.952 282.322L420.473 132.234Z" fill="black"/>
<path d="M420.473 259.696C428.731 251.407 428.731 237.967 420.473 229.678C412.215 221.389 398.827 221.389 390.569 229.678L256 364.757L121.431 229.678C113.173 221.389 99.7845 221.389 91.5266 229.678C83.2688 237.967 83.2688 251.406 91.5266 259.696L241.048 409.783C249.306 418.072 262.694 418.072 270.952 409.783L420.473 259.696Z" fill="black"/>
</svg>
