<svg xmlns="http://www.w3.org/2000/svg" viewBox="0 0 512 512">
<path d="M283.532 91.5262C291.798 83.2684 305.2 83.2684 313.466 91.5262L463.133 241.047C471.399 249.305 471.399 262.693 463.133 270.951L313.466 420.472C305.2 428.73 291.798 428.73 283.532 420.472C275.266 412.214 275.266 398.826 283.532 390.568L418.233 255.999L283.532 121.43C275.266 113.173 275.266 99.784 283.532 91.5262Z" fill="black"/>
<path d="M228.467 420.472C220.201 428.73 206.799 428.73 198.533 420.472L48.8656 270.951C40.5997 262.694 40.5997 249.305 48.8656 241.047L198.533 91.5266C206.799 83.2688 220.201 83.2688 228.467 91.5266C236.733 99.7844 236.733 113.173 228.467 121.431L93.7658 255.999L228.467 390.568C236.733 398.826 236.733 412.214 228.467 420.472Z" fill="black"/>
</svg>
