<svg xmlns="http://www.w3.org/2000/svg" viewBox="0 0 512 512">
<path d="M420.473 142.901C428.731 134.612 428.731 121.172 420.473 112.883C412.215 104.594 398.826 104.594 390.569 112.883L255.999 247.962L121.43 112.883C113.173 104.594 99.784 104.594 91.5261 112.883C83.2683 121.172 83.2683 134.612 91.5261 142.901L241.047 292.988C249.305 301.277 262.694 301.277 270.952 292.988L420.473 142.901Z" fill="black"/>
<path d="M420.473 249.029C428.731 240.74 428.731 227.3 420.473 219.011C412.215 210.722 398.826 210.722 390.568 219.011L255.999 354.09L121.43 219.011C113.173 210.722 99.784 210.722 91.5261 219.011C83.2683 227.3 83.2683 240.74 91.5261 249.029L241.047 399.116C249.305 407.405 262.694 407.405 270.952 399.116L420.473 249.029Z" fill="black"/>
</svg>
