<svg viewBox="0 0 512 512" xmlns="http://www.w3.org/2000/svg">
<path d="M132.234 91.5264C123.945 83.2686 110.506 83.2686 102.217 91.5264C93.9277 99.7842 93.9277 113.173 102.217 121.431L237.296 256L102.217 390.569C93.9277 398.827 93.9277 412.215 102.217 420.473C110.506 428.731 123.945 428.731 132.234 420.473L282.322 270.952C290.611 262.694 290.611 249.305 282.322 241.048L132.234 91.5264Z" fill="black"/>
<path d="M259.696 91.5264C251.406 83.2686 237.967 83.2686 229.678 91.5264C221.389 99.7842 221.389 113.173 229.678 121.431L364.757 256L229.678 390.569C221.389 398.827 221.389 412.215 229.678 420.473C237.967 428.731 251.406 428.731 259.696 420.473L409.783 270.952C418.072 262.694 418.072 249.305 409.783 241.048L259.696 91.5264Z" fill="black"/>
</svg>
