<svg xmlns="http://www.w3.org/2000/svg" viewBox="0 0 512 512">
<path fill-rule="evenodd" clip-rule="evenodd" d="M207.085 112.925C215.416 121.257 215.416 134.764 207.085 143.095L94.1697 256.01L207.085 368.925C215.416 377.257 215.416 390.764 207.085 399.095C198.754 407.427 185.246 407.427 176.915 399.095L48.9149 271.095C40.5837 262.764 40.5837 249.257 48.9149 240.925L176.915 112.925C185.246 104.594 198.754 104.594 207.085 112.925Z" fill="black"/>
<path fill-rule="evenodd" clip-rule="evenodd" d="M304.915 112.925C296.584 121.257 296.584 134.764 304.915 143.095L417.83 256.01L304.915 368.925C296.584 377.257 296.584 390.764 304.915 399.095C313.246 407.427 326.754 407.427 335.085 399.095L463.085 271.095C471.416 262.764 471.416 249.257 463.085 240.925L335.085 112.925C326.754 104.594 313.246 104.594 304.915 112.925Z" fill="black"/>
</svg>
