<svg xmlns="http://www.w3.org/2000/svg" viewBox="0 0 512 512">
<path d="M234.666 85.3334H351.25C336.496 59.8272 308.918 42.6667 277.333 42.6667H149.333C102.205 42.6667 63.9995 80.8718 63.9995 128V298.667C63.9995 330.252 81.16 357.829 106.666 372.584V213.333C106.666 142.641 163.974 85.3334 234.666 85.3334Z" fill="black"/>
<path d="M362.667 128C409.795 128 448 166.205 448 213.333V384C448 431.128 409.795 469.333 362.667 469.333H234.667C187.538 469.333 149.333 431.128 149.333 384V213.333C149.333 166.205 187.538 128 234.667 128H362.667Z" fill="black"/>
</svg>
