<svg xmlns="http://www.w3.org/2000/svg" viewBox="0 0 512 512"><path fill-rule="evenodd" d="M298.667 170.667H128v256h170.667v-256ZM128 128c-23.564 0-42.666 19.103-42.666 42.667v256c0 23.564 19.102 42.666 42.666 42.666h170.667c23.564 0 42.666-19.102 42.666-42.666v-256c0-23.564-19.102-42.667-42.666-42.667H128Z" clip-rule="evenodd"/><path d="M170.667 85.333c0-23.564 19.102-42.666 42.666-42.666H384c23.564 0 42.667 19.102 42.667 42.666v256c0 23.561-19.097 42.662-42.657 42.667V170.667c0-.439-.003-.876-.01-1.313V128c0-23.564-19.102-42.667-42.667-42.667H170.667Z"/></svg>