<svg xmlns="http://www.w3.org/2000/svg" viewBox="0 0 512 512">
<path d="M234.666 85.3334H351.255C336.501 59.8272 308.924 42.6667 277.338 42.6667H149.338C102.21 42.6667 64.0049 80.8718 64.0049 128V298.667C64.0049 330.25 81.163 357.826 106.666 372.581V213.333C106.666 142.641 163.974 85.3334 234.666 85.3334Z" fill="black"/>
<path fill-rule="evenodd" clip-rule="evenodd" d="M448 213.333C448 166.205 409.795 128 362.667 128H234.667C187.539 128 149.334 166.205 149.334 213.333V384C149.334 431.128 187.539 469.333 234.667 469.333H362.667C409.795 469.333 448 431.128 448 384V213.333ZM362.667 170.667H234.667C211.103 170.667 192 189.769 192 213.333V384C192 407.564 211.103 426.667 234.667 426.667H362.667C386.231 426.667 405.334 407.564 405.334 384V213.333C405.334 189.769 386.231 170.667 362.667 170.667Z" fill="black"/>
</svg>
