<svg xmlns="http://www.w3.org/2000/svg" viewBox="0 0 512 512"><path fill="black" d="M213.333 42.667c-23.564 0-42.666 19.102-42.666 42.666h170.667C364.898 85.333 384 104.436 384 128v41.354c.007.437.01.874.01 1.313V384c23.56-.005 42.657-19.106 42.657-42.667v-256c0-23.564-19.103-42.666-42.667-42.666H213.333Z"/><path fill="black" d="M85.334 170.667C85.334 147.103 104.436 128 128 128h170.667c23.564 0 42.667 19.103 42.667 42.667v256c0 23.564-19.103 42.666-42.667 42.666H128c-23.564 0-42.666-19.102-42.666-42.666v-256Z"/></svg>