<svg viewBox="0 0 512 512" xmlns="http://www.w3.org/2000/svg">
<path fill-rule="evenodd" clip-rule="evenodd" d="M420.419 91.5816C428.75 99.9126 428.75 113.421 420.419 121.752L286.17 256L420.419 390.248C428.658 398.487 428.749 411.788 420.694 420.138L420.419 420.418C412.088 428.749 398.58 428.749 390.249 420.418L256 286.17L121.752 420.418C113.421 428.749 99.913 428.749 91.582 420.418C83.251 412.087 83.251 398.579 91.582 390.248L225.83 256L91.582 121.752C83.343 113.513 83.252 100.212 91.307 91.8616L91.582 91.5816C99.913 83.2506 113.421 83.2506 121.752 91.5816L256 225.83L390.249 91.5816C398.58 83.2506 412.088 83.2506 420.419 91.5816Z" fill="black"/>
</svg>
