<svg xmlns="http://www.w3.org/2000/svg" viewBox="0 0 512 512">
<path fill-rule="evenodd" clip-rule="evenodd" d="M441.752 70.2483C450.083 78.5793 450.083 92.0873 441.752 100.418L286.17 256L441.752 411.582C449.991 419.821 450.082 433.122 442.027 441.472L441.752 441.752C433.421 450.083 419.913 450.083 411.582 441.752L256 286.17L100.418 441.752C92.0873 450.083 78.5793 450.083 70.2483 441.752C61.9172 433.421 61.9172 419.913 70.2483 411.582L225.83 256L70.2483 100.418C62.0092 92.1793 61.9182 78.8783 69.9733 70.5283L70.2483 70.2483C78.5793 61.9173 92.0873 61.9173 100.418 70.2483L256 225.83L411.582 70.2483C419.913 61.9172 433.421 61.9172 441.752 70.2483Z" fill="black"/>
</svg>
