<svg viewBox="0 0 512 512" xmlns="http://www.w3.org/2000/svg">
  <title>close</title>
  <path d="M399.085 112.915c8.331 8.331 8.331 21.839 0 30.17L286.17 256l112.915 112.915c8.239 8.239 8.33 21.54.275 29.89l-.275.28c-8.331 8.331-21.839 8.331-30.17 0L256 286.17 143.085 399.085c-8.331 8.331-21.839 8.331-30.17 0-8.331-8.331-8.331-21.839 0-30.17L225.83 256 112.915 143.085c-8.239-8.239-8.33-21.54-.275-29.89l.275-.28c8.331-8.331 21.839-8.331 30.17 0L256 225.83l112.915-112.915c8.331-8.331 21.839-8.331 30.17 0z" fill-rule="nonzero"/>
</svg>
