<svg xmlns="http://www.w3.org/2000/svg" viewBox="0 0 512 512">
    <title>
        collapse
    </title>
    <path d="M91.6637 420.423C83.9697 412.736 83.3736 400.635 89.8776 392.263L91.6516 390.253L161.866 319.992L106.667 320C95.7266 320 86.7097 311.765 85.4766 301.155L85.3337 298.667C85.3337 287.727 93.5687 278.71 104.179 277.477L106.667 277.334L213.334 277.334C213.796 277.334 214.254 277.348 214.709 277.377L214.825 277.386C216.867 277.526 218.879 277.96 220.797 278.676L220.861 278.7L221.108 278.795L221.22 278.839C223.916 279.911 226.364 281.523 228.413 283.577C228.664 283.828 228.909 284.086 229.148 284.349C232.132 287.633 234.013 291.771 234.524 296.179L234.526 296.212C234.621 297.04 234.668 297.873 234.667 298.706L234.667 405.333C234.667 417.115 225.116 426.666 213.334 426.666C202.394 426.666 193.376 418.431 192.144 407.821L192 405.333L191.999 350.199L121.833 420.412C113.505 428.747 99.9976 428.752 91.6637 420.423Z"/>
    <path d="M298.311 234.663L298.013 234.656C297.778 234.649 297.543 234.638 297.31 234.624L297.176 234.614C294.633 234.439 292.214 233.818 289.994 232.83C287.605 231.768 285.424 230.265 283.578 228.414L283.531 228.367L283.514 228.35C283.125 227.957 282.751 227.55 282.393 227.129L282.292 227.008C281.075 225.556 280.058 223.947 279.269 222.225L279.221 222.119C278.317 220.122 277.729 217.998 277.477 215.822L277.475 215.789C277.381 214.975 277.335 214.156 277.334 213.338L277.334 106.667C277.334 94.8855 286.885 85.3345 298.667 85.3345C309.607 85.3345 318.625 93.5695 319.857 104.179L320.001 106.667L320.001 161.806L390.168 91.5875C398.496 83.2535 412.004 83.2485 420.338 91.5775C428.031 99.2644 428.627 111.365 422.123 119.737L420.349 121.747L350.145 192.001L405.334 192.001C416.274 192.001 425.291 200.236 426.524 210.846L426.667 213.334C426.667 224.274 418.432 233.291 407.822 234.524L405.334 234.667L298.651 234.666L298.311 234.663Z"/>
</svg>
