<svg viewBox="0 0 512 512" xmlns="http://www.w3.org/2000/svg">
<path d="M329.925 96.758C329.925 84.976 320.373 75.4247 308.591 75.4247C296.809 75.4247 287.258 84.976 287.258 96.758V203.425C287.258 215.207 296.809 224.758 308.591 224.758H415.258C427.04 224.758 436.591 215.207 436.591 203.425C436.591 191.643 427.04 182.091 415.258 182.091H360.095L441.768 100.418C450.099 92.0871 450.099 78.5796 441.768 70.2484C433.437 61.9172 419.929 61.9172 411.598 70.2484L329.925 151.921V96.758Z" fill="black"/>
<path d="M182.091 415.242C182.091 427.024 191.643 436.575 203.425 436.575C215.207 436.575 224.758 427.024 224.758 415.242V308.575C224.758 296.793 215.207 287.242 203.425 287.242H96.7581C84.976 287.242 75.4247 296.793 75.4247 308.575C75.4247 320.357 84.976 329.909 96.7581 329.909H151.921L70.2484 411.582C61.9172 419.913 61.9172 433.42 70.2484 441.752C78.5796 450.083 92.0871 450.083 100.418 441.752L182.091 360.079V415.242Z" fill="black"/>
</svg>
