<svg xmlns="http://www.w3.org/2000/svg" viewBox="0 0 512 512">
  <title>comment outlined</title>
  <path d="M392.533333,128 C410.767817,127.484251 426.006148,141.770186 426.666667,160 L426.666667,160 L426.666667,352 C426.006148,370.229814 410.767817,384.515749 392.533333,384 L392.533333,384 L149.333333,384 L110.891947,422.440107 C106.610237,426.722326 100.170533,428.00354 94.5758229,425.686288 C88.981113,423.369036 85.3333333,417.909692 85.3333333,411.85408 L85.3333333,411.85408 L85.3333333,160 C85.9938517,141.770186 101.232183,127.484251 119.466667,128 L119.466667,128 Z M358.4,170.748704 L153.6,170.748704 C139.924137,170.404907 128.495389,179.927857 128,192.079782 L128,320.066247 C128,334.286965 136.533333,341.397325 153.6,341.397325 L358.4,341.397325 L358.4,341.397325 C372.075863,341.741121 383.504611,332.218171 384,320.066247 L384,192.079782 C383.504611,179.927857 372.075863,170.404907 358.4,170.748704 Z M170.666667,234.666667 C182.448741,234.666667 192,244.217925 192,256 C192,267.782075 182.448741,277.333333 170.666667,277.333333 C158.884592,277.333333 149.333333,267.782075 149.333333,256 C149.333333,244.217925 158.884592,234.666667 170.666667,234.666667 Z M341.333333,234.666667 C353.115408,234.666667 362.666667,244.217925 362.666667,256 C362.666667,267.782075 353.115408,277.333333 341.333333,277.333333 C329.551259,277.333333 320,267.782075 320,256 C320,244.217925 329.551259,234.666667 341.333333,234.666667 Z M256,234.666667 C267.782075,234.666667 277.333333,244.217925 277.333333,256 C277.333333,267.782075 267.782075,277.333333 256,277.333333 C244.217925,277.333333 234.666667,267.782075 234.666667,256 C234.666667,244.217925 244.217925,234.666667 256,234.666667 Z" fill-rule="nonzero"></path>
</svg>