<svg viewBox="0 0 512 512" xmlns="http://www.w3.org/2000/svg">
<path d="M192.267 234.667C192.267 252.34 177.88 266.667 160.133 266.667C142.387 266.667 128 252.34 128 234.667C128 216.994 142.387 202.667 160.133 202.667C177.88 202.667 192.267 216.994 192.267 234.667Z" fill="black"/>
<path d="M257.225 266.667C274.971 266.667 289.358 252.34 289.358 234.667C289.358 216.994 274.971 202.667 257.225 202.667C239.478 202.667 225.091 216.994 225.091 234.667C225.091 252.34 239.478 266.667 257.225 266.667Z" fill="black"/>
<path d="M351.867 266.667C369.613 266.667 384 252.34 384 234.667C384 216.994 369.613 202.667 351.867 202.667C334.12 202.667 319.733 216.994 319.733 234.667C319.733 252.34 334.12 266.667 351.867 266.667Z" fill="black"/>
<path fill-rule="evenodd" clip-rule="evenodd" d="M190.831 405.333L190.885 448C190.908 464.435 208.724 474.672 222.935 466.416L319.461 405.333H362.667C409.795 405.333 448 367.128 448 320V149.333C448 102.205 409.795 64 362.667 64H149.333C102.205 64 64 102.205 64 149.333V320C64 367.128 102.205 405.333 149.333 405.333H190.831ZM362.667 362.667C386.231 362.667 405.333 343.564 405.333 320V149.333C405.333 125.769 386.231 106.667 362.667 106.667H149.333C125.769 106.667 106.667 125.769 106.667 149.333V320C106.667 343.564 125.769 362.667 149.333 362.667H362.667Z" fill="black"/>
</svg>
