<svg xmlns="http://www.w3.org/2000/svg" viewBox="0 0 512 512">
<path fill-rule="evenodd" clip-rule="evenodd" d="M256 469.333C373.821 469.333 469.333 373.821 469.333 256C469.333 138.179 373.821 42.6667 256 42.6667C138.179 42.6667 42.6665 138.179 42.6665 256C42.6665 373.821 138.179 469.333 256 469.333ZM234.666 149.333C234.666 137.551 244.218 128 256 128C267.782 128 277.333 137.551 277.333 149.333V234.667H341.333C353.115 234.667 362.666 244.218 362.666 256C362.666 267.782 353.115 277.333 341.333 277.333H256C244.218 277.333 234.666 267.782 234.666 256V149.333Z" fill="black"/>
</svg>
