<svg xmlns="http://www.w3.org/2000/svg" height="32" width="32" preserveAspectRatio="xMidYMid" xmlns:xlink="http://www.w3.org/1999/xlink" viewBox="0 0 32 32">
<path d="M25.3,8.7l-6.7,14.4c-0.6,1.5-1.6,2.4-2.8,2.4c-0.9,0-1.7-0.5-2.2-1.3c-0.5-0.9-0.4-2,0.1-2.9l8.8-14.1
	c0.4-0.7,1.3-0.9,2.1-0.5C25.4,7.1,25.7,8,25.3,8.7 M27.7,12.9c-0.5-0.6-1.4-0.6-2-0.1c-0.6,0.5-0.6,1.4-0.1,2
	c2.3,2.5,3.6,5.7,3.6,9.2c0,0.8,0.6,1.4,1.4,1.4c0.8,0,1.4-0.6,1.4-1.4C32,19.8,30.5,15.9,27.7,12.9 M17.1,10.6
	c0.8,0.1,1.4-0.5,1.5-1.3c0.1-0.8-0.5-1.4-1.3-1.5c-0.4,0-0.9-0.1-1.4-0.1C7.2,7.8,0,15,0,23.9c0,0.8,0.6,1.4,1.4,1.4
	s1.4-0.6,1.4-1.4c0-7.4,5.9-13.4,13.2-13.4C16.4,10.5,16.8,10.6,17.1,10.6"/>
</svg>
