<svg xmlns="http://www.w3.org/2000/svg" viewBox="0 0 512 512">
<path fill-rule="evenodd" clip-rule="evenodd" d="M42.6665 170.667C42.6665 135.321 71.3203 106.667 106.667 106.667H405.333C440.679 106.667 469.333 135.321 469.333 170.667V298.667H42.6665V170.667ZM128 170.667C116.218 170.667 106.667 180.218 106.667 192V213.333C106.667 225.115 116.218 234.667 128 234.667H192C203.782 234.667 213.333 225.115 213.333 213.333V192C213.333 180.218 203.782 170.667 192 170.667H128Z" fill="black"/>
<path d="M42.6665 341.333H469.333C469.333 376.68 440.679 405.333 405.333 405.333H106.666C71.3203 405.333 42.6665 376.68 42.6665 341.333Z" fill="black"/>
</svg>
