<svg xmlns="http://www.w3.org/2000/svg" viewBox="0 0 512 512">
<path d="M128 85.3333C128 73.5513 137.551 64 149.333 64C161.115 64 170.667 73.5513 170.667 85.3333V320C170.667 331.782 180.218 341.333 192 341.333L426.667 341.333C438.449 341.333 448 350.885 448 362.667C448 374.449 438.449 384 426.667 384H384V426.667C384 438.449 374.449 448 362.667 448C350.885 448 341.333 438.449 341.333 426.667V384H192C156.654 384 128 355.346 128 320V170.667H85.3333C73.5513 170.667 64 161.115 64 149.333C64 137.551 73.5513 128 85.3333 128H128V85.3333Z" fill="black"/>
<path d="M384 298.667V192C384 156.654 355.346 128 320 128L213.333 128V170.667H320C331.782 170.667 341.333 180.218 341.333 192V298.667H384Z" fill="black"/>
</svg>
