<svg xmlns="http://www.w3.org/2000/svg" viewBox="0 0 512 512">
  <title>crop</title>
  <path fill-rule="nonzero" d="M138.666671 33.5553889c7.425253 0 14.147493 3.0096875 19.013432 7.8756491 4.760159 4.760181 7.743848 11.2968245 7.871308 18.5301678l.004254.4832432-.00066 285.999553 286.000552.000254c7.425209.000006 14.147473 3.009671 19.013434 7.875637 4.865961 4.865965 7.87562 11.588231 7.87562 19.01344-.120322 7.545855-3.153134 14.238904-7.977381 19.063127-4.751561 4.751537-11.243143 7.693071-18.421219 7.821425l-.490465.00438-51.333536-.000255.000255 51.349228c-.11591 7.520506-3.149583 14.219746-7.977286 19.047474-4.859526 4.85955-11.539075 7.825899-18.911646 7.825899-7.425213 0-14.147486-3.009655-19.013462-7.875614-4.760194-4.760177-7.743922-11.296826-7.871425-18.53019l-.004256-.483244-.000183-51.333559-188.221785.000385c-12.640024 0-24.138824-5.107314-32.532753-13.364041-8.274598-8.139348-13.530255-19.337874-13.891912-31.714194l-.013832-.609613-.006114-.748593-.000605-188.23093-51.3482396.000474c-7.5205253-.115908-14.219761-3.149565-19.0474813-7.97724-4.8595534-4.859509-7.8258962-11.539036-7.8258962-18.911586 0-7.42522 3.0096498-14.147503 7.8756047-19.013496 4.7601733-4.760211 11.29682-7.743962 18.5301902-7.871494l.483245-.004259 51.3325872-.000401.000401-51.3325872c.000058-7.4252203 3.00976-14.1474803 7.875753-19.0134352s11.588276-7.8756047 19.013501-7.8756047zm215.111107 78.2222221c12.778635 0 24.390909 5.21994 32.80779 13.636821 8.283279 8.28328 13.470303 19.661316 13.632884 32.200173l.003937.607617V311.3335h-53.778107l-.000278-145.77849-145.777504.000722v-53.778121h153.111278z"/>
</svg>
