<svg viewBox="0 0 512 512" xmlns="http://www.w3.org/2000/svg">
<path d="M256 149.333C273.673 149.333 288 135.006 288 117.333C288 99.6602 273.673 85.3333 256 85.3333C238.327 85.3333 224 99.6602 224 117.333C224 135.006 238.327 149.333 256 149.333Z" fill="black"/>
<path d="M74.667 224C92.3401 224 106.667 209.673 106.667 192C106.667 174.327 92.3401 160 74.667 160C56.9939 160 42.667 174.327 42.667 192C42.667 209.673 56.9939 224 74.667 224Z" fill="black"/>
<path fill-rule="evenodd" clip-rule="evenodd" d="M103.02 254.174L170.673 288L238.753 194.39C247.273 182.676 264.74 182.676 273.259 194.39L341.34 288L408.992 254.174C424.871 246.235 442.933 260.031 439.452 277.439L415.629 396.552C409.646 426.467 383.38 448 352.872 448H159.14C128.633 448 102.366 426.467 96.3833 396.552L72.5607 277.439C69.0792 260.031 87.142 246.235 103.02 254.174ZM167.756 334.245C177.084 338.908 188.416 336.145 194.55 327.711L256.006 243.208L317.463 327.711C323.597 336.145 334.929 338.908 344.257 334.245L389.059 311.843L373.791 388.184C371.797 398.156 363.041 405.334 352.872 405.334H159.14C148.971 405.334 140.216 398.156 138.221 388.184L122.953 311.843L167.756 334.245Z" fill="black"/>
<path d="M469.334 192C469.334 209.673 455.007 224 437.334 224C419.661 224 405.334 209.673 405.334 192C405.334 174.327 419.661 160 437.334 160C455.007 160 469.334 174.327 469.334 192Z" fill="black"/>
</svg>
