<svg xmlns="http://www.w3.org/2000/svg" viewBox="0 0 512 512">
  <title>cyrillic</title>
  <path fill-rule="nonzero" d="M256.323232,-5.47710025e-15 C265.249046,-5.47710025e-15 272.484848,7.35741019 272.484848,16.4332356 L272.484848,134.423867 C271.531033,147.428987 276.337777,160.187927 285.592558,169.216748 C294.847338,178.245569 307.583467,182.601185 320.323232,181.094256 C332.983431,182.376348 345.557739,177.933777 354.708419,168.945785 C363.859098,159.957794 368.660591,147.333484 367.838384,134.423867 L367.838384,16.4332356 C367.838384,7.35741019 375.074186,-5.47710025e-15 384,-5.47710025e-15 L410.505051,-5.47710025e-15 C419.430865,-5.47710025e-15 426.666667,7.35741019 426.666667,16.4332356 L426.666667,136.067191 C426.666667,193.254851 392.40404,234.666604 320.323232,234.666604 C248.242424,234.666604 213.333333,194.240845 213.333333,136.067191 L213.333333,16.4332356 C213.333333,7.35741019 220.569135,-5.47710025e-15 229.494949,-5.47710025e-15 L256.323232,-5.47710025e-15 Z M164.754076,20.8207027 C179.361406,35.6396536 187.318785,56.381093 186.624783,77.8281611 C187.387651,103.236633 175.408002,127.167964 155.153487,140.697277 C147.824476,145.818556 145.722177,156.243321 150.432793,164.105991 L173.092126,209.920187 C175.763368,215.107772 175.657282,221.408798 172.813124,226.491536 C169.968966,231.574273 164.809781,234.682706 159.244755,234.666604 L130.920589,234.666604 C124.903355,234.679337 119.406083,231.044729 116.758506,225.303056 C116.758506,225.303056 95.3580255,180.826501 89.3784794,167.450093 C83.3989332,154.073685 55.0747672,151.732814 55.0747672,167.450093 L55.0747672,216.942801 C55.0747672,226.177284 48.0296777,233.663311 39.3391194,233.663311 L15.7356478,233.663311 C7.04508948,233.663311 0,226.177284 0,216.942801 L0,16.2966856 C0.338020226,7.32439459 7.28507718,0.23780997 15.7356478,0.244996313 L110.149534,0.244996313 C130.279577,-1.48445744 150.146745,6.00175191 164.754076,20.8207027 Z M102.662824,52.4921036 L70.7028725,52.4921036 C61.1099409,52.4921036 53.3333333,60.1719418 53.3333333,69.6455022 L53.3333333,86.7989008 C53.3333333,96.2724612 61.1099409,103.952299 70.7028725,103.952299 L102.662824,103.952299 C112.986523,105.622714 123.335218,101.115878 129.048427,92.4614215 C134.761635,83.8069651 134.761635,72.6374378 129.048427,63.9829814 C123.335218,55.328525 112.986523,50.8216885 102.662824,52.4921036 Z" transform="translate(42.667 149.333)"/>
</svg>
