<svg xmlns="http://www.w3.org/2000/svg" viewBox="0 0 512 512">
<path fill-rule="evenodd" clip-rule="evenodd" d="M357.839 152.247C300.593 161.079 270.497 197.062 270.497 273.936C270.497 325.295 303.21 364.222 359.148 364.222C415.413 364.222 448.125 325.295 448.125 280.806C448.125 236.971 419.338 198.371 374.195 198.371C353.587 198.371 339.193 204.259 326.435 219.307C331.015 203.605 343.446 192.156 379.429 186.267C404.291 182.342 441.91 172.855 441.91 142.106C441.91 135.982 436.946 131.018 430.822 131.018H387.573C381.449 131.018 376.485 135.982 376.485 142.106C376.485 146.686 367.98 150.611 357.839 152.247ZM359.148 250.383C377.467 250.383 387.607 263.795 387.607 280.806C387.607 298.798 377.467 312.21 359.148 312.21C341.156 312.21 331.015 298.798 331.015 280.806C331.015 263.795 341.156 250.383 359.148 250.383Z" fill="black"/>
<path fill-rule="evenodd" clip-rule="evenodd" d="M194.471 338.87C199.088 353.873 212.95 364.111 228.647 364.111C253.53 364.111 270.805 339.327 262.195 315.982L211.382 178.208C202.421 153.913 179.269 137.775 153.374 137.775C127.478 137.775 104.327 153.913 95.366 178.208L44.5531 315.982C35.9427 339.327 53.2177 364.111 78.1007 364.111C93.7981 364.111 107.66 353.873 112.276 338.87L112.654 337.643H194.094L194.471 338.87ZM130.978 277.92L153.374 204.963L175.77 277.92H130.978Z" fill="black"/>
</svg>
