<svg xmlns="http://www.w3.org/2000/svg" viewBox="0 0 512 512">
<path fill="#000" fill-rule="evenodd" d="M64 149.3A85.3 85.3 0 0 1 149.3 64h213.4a85.3 85.3 0 0 1 85.3 85.3v213.4a85.3 85.3 0 0 1-85.3 85.3H149.3A85.3 85.3 0 0 1 64 362.7V149.3Zm85.3 0a21.3 21.3 0 0 0-21.3 21.4V256c0 11.8 9.6 21.3 21.3 21.3h64c11.8 0 21.4-9.5 21.4-21.3v-85.3c0-11.8-9.6-21.4-21.4-21.4h-64Zm-21.3 192c0-11.7 9.6-21.3 21.3-21.3h213.4a21.3 21.3 0 1 1 0 42.7H149.3a21.3 21.3 0 0 1-21.3-21.4ZM277.3 256c0-11.8 9.6-21.3 21.4-21.3h64a21.3 21.3 0 1 1 0 42.6h-64a21.3 21.3 0 0 1-21.4-21.3Zm0-85.3c0-11.8 9.6-21.4 21.4-21.4h64a21.3 21.3 0 0 1 0 42.7h-64a21.3 21.3 0 0 1-21.4-21.3Z" clip-rule="evenodd"/>
</svg>
