<svg xmlns="http://www.w3.org/2000/svg" viewBox="0 0 512 512">
  <title>draw</title>
  <path fill-rule="nonzero" d="M146.56 64c18.56 0 53.546667 14.72 53.546667 61.013333 0 29.013334-11.093334 45.653334-27.733334 69.973334-9.6 14.08-32 51.84-39.466666 75.093333-7.68 23.253333-1.92 40.96 7.68 40.96 9.173333 0 18.346666-11.52 23.68-17.92 4.906666-5.12 36.48-42.453333 48.853333-58.026667 16.213333-19.84 57.386667-60.586666 105.386667-60.586666 62.72 0 82.773333 54.4 85.973333 89.6h52.693333V317.44h-52.48C396.16 419.2 339.413333 447.573333 304.64 447.573333c-37.76 0-68.48-29.653333-68.48-65.92 0-36.266666 34.133333-100.906666 114.773333-114.56-2.346666-16.64-2.773333-38.186666-37.546666-38.186666-26.666667 0-61.226667 41.6-87.04 73.386666-23.68 29.226667-42.453334 52.48-65.28 59.093334-19.2 5.76-40.32 2.133333-56.32-9.813334C86.4 337.92 76.16 315.306667 76.16 288c0-51.626667 55.68-125.653333 61.013333-134.613333 6.4-10.453334 19.259793-28.373334 6.4-32.426667-6.613333-2.773333-19.780879 12.525374-36.14056 26.79l-.044819-.042667C102.814271 151.393425 96.9981554 153.6 90.6666667 153.6 75.9390733 153.6 64 141.660927 64 126.933333c0-7.344058 2.968789-13.994719 7.7717208-18.817336 4.4479173-5.135635 10.1271614-10.8148792 16.7616125-17.4493303C93.8666667 85.3333333 118.4 64 146.56 64zm204.16 257.493333c-45.653333 11.946667-61.226667 46.08-61.226667 58.88 0 9.813334 9.173334 15.36 15.786667 15.36 14.933333 0 39.04-16.853333 45.44-74.24z"/>
</svg>
