<svg xmlns="http://www.w3.org/2000/svg" viewBox="0 0 512 512">
<path d="M304.651 76.4968C321.313 59.8344 348.328 59.8344 364.991 76.4968L395.16 106.667C411.823 123.329 411.823 150.344 395.16 167.006L380.075 182.091L289.566 91.5817L304.651 76.4968Z" fill="black"/>
<path d="M263.372 117.283L353.882 207.793L224.758 336.917C220.757 340.917 215.331 343.165 209.673 343.165L149.333 343.165C137.551 343.165 128 333.614 128 321.832V261.492C128 255.834 130.248 250.408 134.248 246.407L263.372 117.283Z" fill="black"/>
<path d="M126.579 400.119C135.85 407.072 148.597 407.072 157.868 400.119C182.309 381.788 215.916 381.788 240.357 400.119C249.628 407.072 262.375 407.072 271.646 400.119C296.087 381.788 329.693 381.788 354.135 400.119C363.405 407.072 376.153 407.072 385.423 400.119L413.868 378.785C423.294 371.716 436.665 373.626 443.735 383.052C450.804 392.478 448.894 405.849 439.468 412.919L411.023 434.252C386.582 452.583 352.976 452.583 328.535 434.252C319.264 427.299 306.517 427.299 297.246 434.252C272.805 452.583 239.198 452.583 214.757 434.252C205.486 427.299 192.739 427.299 183.468 434.252C159.027 452.583 125.42 452.583 100.979 434.252L72.5346 412.919C63.1089 405.849 61.1987 392.478 68.2679 383.052C75.3372 373.626 88.7089 371.716 98.1346 378.785L126.579 400.119Z" fill="black"/>
</svg>
