<svg xmlns="http://www.w3.org/2000/svg" viewBox="0 0 512 512">
  <title>drawing mode</title>
  <path fill-rule="nonzero" d="M395.317297 386.496656c9.353998-4.988433 21.177844-2.346633 27.447604 6.540003 6.792239 9.627189 4.494059 22.937765-5.13313 29.730005l-49.368437 34.830754-3.803162 2.463464c-22.12939 13.138471-53.693967 12.317316-74.643958-2.463464l-23.795092-16.788074-2.425576-1.41636c-7.818328-3.776959-20.136058-3.304839-26.827794 1.41636l-19.616315 13.842522-3.803679 2.463179c-22.132281 13.136954-53.698973 12.315954-74.645035-2.462054l-44.334494-31.279173-2.0907565-1.678507c-7.8362091-7.139719-9.3121328-19.164862-3.0423732-28.051498 6.7922396-9.627189 20.1028167-11.925369 29.7300047-5.13313l44.334494 31.279173 2.424239 1.415633c7.815395 3.775011 20.139313 3.302999 26.831243-1.417123l19.614203-13.841032 3.803314-2.463602c22.12995-13.139214 53.690237-12.318151 74.643289 2.460988l23.797203 16.789564 2.425035 1.416292c7.817099 3.776781 20.136916 3.304683 26.828335-1.416292l49.368437-34.830755zm-96.335084-285.762659l64.817 64.817-181.594616 181.430138c-1.491562 1.607698-3.567486 2.539486-5.751502 2.591857l-.298445.001672h-52.548117c-2.299086.021986-4.510613-.881306-6.136391-2.507085-1.55188-1.55188-2.44546-3.63747-2.504449-5.823472l-.00273-.312922v-52.548136c-.031122-2.343278.907288-4.595463 2.593623-6.222806l181.425627-181.426246zm54.025891-49.8259998c4.659084 0 9.13255 1.7974244 12.493638 5.0077685l.311815.3050975 42.503207 42.5032067c3.401347 3.3934921 5.312866 8.0007731 5.312866 12.8054531 0 4.659084-1.797425 9.132551-5.007769 12.493639l-.305097.311815-27.782551 27.78102-68.114-68.1139998 27.782437-27.781134c3.29066-3.2982762 7.722659-5.1956483 12.369237-5.3076118l.436217-.0052542z"/>
</svg>
