<svg xmlns="http://www.w3.org/2000/svg" viewBox="0 0 512 512">
<path fill-rule="evenodd" clip-rule="evenodd" d="M106.667 85.3333C71.3203 85.3333 42.6665 113.987 42.6665 149.333V362.667C42.6665 398.013 71.3203 426.667 106.666 426.667H405.333C440.679 426.667 469.333 398.013 469.333 362.667V149.333C469.333 113.987 440.679 85.3333 405.333 85.3333H106.667ZM117.251 130.811C107.021 124.965 93.9895 128.519 88.144 138.749C82.2984 148.979 85.8525 162.01 96.0822 167.856L245.416 253.189C251.974 256.937 260.026 256.937 266.584 253.189L415.917 167.856C426.147 162.01 429.701 148.979 423.856 138.749C418.01 128.519 404.979 124.965 394.749 130.811L256 210.096L117.251 130.811Z" fill="black"/>
</svg>
