<svg xmlns="http://www.w3.org/2000/svg" viewBox="0 0 512 512" aria-label="envelope">
<path d="M405.3 106H106.7C83.1 106 64 125.1 64 148.7V362C64 385.6 83.1 404.7 106.7 404.7H405.4C429 404.7 448.1 385.6 448.1 362V148.7C448 125.1 428.9 106 405.3 106ZM397.8 186.2L395.8 187.7L267.8 273C261.4 277.2 253.3 277.7 246.6 274.4L244.1 273L116.1 187.7C106.3 181.2 103.6 167.9 110.2 158.1C116.3 149 128.1 146.1 137.6 150.9L139.8 152.2L256 229.7L372.2 152.3C382 145.8 395.2 148.4 401.8 158.2C407.8 167.3 406 179.3 397.8 186.2Z"/>
</svg>
