<svg xmlns="http://www.w3.org/2000/svg" viewBox="0 0 512 512">
  <title>
    equation
  </title>
  <path d="M426.65 106.67H206.21a21.31 21.31 0 0 0-20.23 14.59l-65.1 195.27-15.31-45.94a21.33 21.33 0 0 0-40.46 13.5l35.54 106.67a21.32 21.32 0 0 0 40.46 0l80.48-241.42h205.06a21.33 21.33 0 0 0 0-42.67z"/>
  <path d="M399.1 226.94a21.4 21.4 0 0 0-30.17 0l-45.26 45.25-45.25-45.25a21.33 21.33 0 0 0-30.17 30.17l45.25 45.25-45.25 45.26a21.33 21.33 0 0 0 30.17 30.17l45.25-45.26 45.26 45.26a21.33 21.33 0 0 0 30.17-30.17l-45.26-45.26 45.26-45.25a21.4 21.4 0 0 0 0-30.17z"/>
</svg>
