<svg xmlns="http://www.w3.org/2000/svg" viewBox="0 0 512 512">
<path d="M235.317 121.87C238.024 112.846 246.33 106.667 255.751 106.667H448.005C459.787 106.667 469.339 97.1154 469.339 85.3333C469.339 73.5513 459.787 64 448.005 64H255.751C227.488 64 202.571 82.5387 194.45 109.61L124.461 342.906L83.6137 247.596C78.9725 236.767 66.4311 231.75 55.6017 236.392C44.7723 241.033 39.7557 253.574 44.3969 264.404L108.397 413.737C111.932 421.987 120.254 427.141 129.215 426.632C138.176 426.124 145.86 420.06 148.439 411.463L235.317 121.87Z" fill="black"/>
<path d="M262.253 347.621C253.922 355.953 253.922 369.46 262.253 377.791C270.585 386.123 284.092 386.123 292.423 377.791L341.358 328.856L390.293 377.791C398.624 386.123 412.132 386.123 420.463 377.791C428.794 369.46 428.794 355.953 420.463 347.622L371.528 298.687L420.463 249.752C428.794 241.42 428.794 227.913 420.463 219.582C412.132 211.251 398.624 211.251 390.293 219.582L341.358 268.517L292.423 219.582C284.092 211.251 270.585 211.251 262.253 219.582C253.922 227.913 253.922 241.42 262.253 249.752L311.188 298.687L262.253 347.621Z" fill="black"/>
</svg>
