<svg xmlns="http://www.w3.org/2000/svg" viewBox="0 0 512 512">
<path fill-rule="evenodd" clip-rule="evenodd" d="M249.786 82.71C274.78 57.7165 315.302 57.7165 340.296 82.71L429.029 171.443C454.022 196.436 454.022 236.959 429.028 261.952L261.964 429.017C236.97 454.01 196.448 454.01 171.454 429.017L82.7217 340.284C57.7282 315.291 57.7282 274.768 82.7217 249.775L249.786 82.71ZM112.892 279.944L196.891 195.945L315.793 314.848L231.794 398.847C223.463 407.178 209.955 407.178 201.624 398.847L112.892 310.114C104.56 301.783 104.56 288.276 112.892 279.944Z" fill="black"/>
<path d="M320 405.333C308.218 405.333 298.667 414.885 298.667 426.667C298.667 438.449 308.218 448 320 448H426.667C438.449 448 448 438.449 448 426.667C448 414.885 438.449 405.333 426.667 405.333H320Z" fill="black"/>
</svg>
