<svg xmlns="http://www.w3.org/2000/svg" viewBox="0 0 512 512">
    <title>
        eraser
    </title>
    <path fill-rule="evenodd" clip-rule="evenodd" d="M106.431 297.367L201.901 204.021L310.1 312.221L214.63 405.566L106.431 297.367ZM329.193 76.7293C312.221 59.7569 286.763 59.7569 269.79 76.7293L76.7293 267.665C59.7569 284.637 59.7569 310.096 76.7293 327.068L184.928 435.268C201.9 452.24 227.359 452.24 244.331 435.268L435.271 244.332C452.243 227.36 452.243 201.901 435.271 184.928L329.193 76.7293ZM320.707 405.569C307.978 405.569 299.492 414.055 299.492 426.784C299.492 439.514 310.099 448 322.828 448H405.331C418.06 448 426.664 439.401 426.664 426.672C426.664 413.943 418.06 405.569 405.331 405.569H320.707Z"/>
</svg>
