<svg xmlns="http://www.w3.org/2000/svg" viewBox="0 0 512 512">
  <title>european</title>
  <path fill-rule="nonzero" d="M170.666667 37.2114286C170.666667 46.4687729 163.204746 53.9733333 154 53.9733333L68.3333333 53.9733333C45.3333333 53.9733333 45.3333333 99.9009524 68.3333333 99.9009524L118.333333 99.9009524C127.666667 99.9009524 151.666667 96.5485714 151.666667 106.605714 152.711076 112.931935 152.711076 119.388065 151.666667 125.714286 151.666667 134.430476 127.666667 134.095238 118.333333 134.095238L68.6666667 134.095238C43.3333333 134.095238 43.3333333 181.699048 68.6666667 182.034286L154 182.034286C163.204746 182.034286 170.666667 189.538846 170.666667 198.79619L170.666667 217.904762C170.666667 227.162106 163.204746 234.666667 154 234.666667L16.6666667 234.666667C7.46192084 234.666667 0 227.162106 0 217.904762L0 16.7619048C0 7.50456038 7.46192084 0 16.6666667 0L154 0C163.204746 0 170.666667 7.50456038 170.666667 16.7619048L170.666667 37.2114286zM426.666667 136.205128C426.666667 193.312821 392.40404 234.666667 320.323232 234.666667 248.242424 234.666667 213.333333 193.969231 213.333333 136.205128L213.333333 16.4102564C213.333333 7.34712205 220.569135 0 229.494949 0L256.323232 0C265.249046 0 272.484848 7.34712205 272.484848 16.4102564L272.484848 134.235897C271.531033 147.222831 276.337777 159.96393 285.592558 168.980126 294.847338 177.996321 307.583467 182.345847 320.323232 180.841026 332.983431 182.121324 345.557739 177.684966 354.708419 168.709542 363.859098 159.734119 368.660591 147.127462 367.838384 134.235897L367.838384 16.4102564C367.838384 7.34712205 375.074186 0 384 0L410.505051 0C419.430865 0 426.666667 7.34712205 426.666667 16.4102564L426.666667 136.205128z" transform="translate(42.667 149.333)"/>
</svg>
