<svg xmlns="http://www.w3.org/2000/svg" viewBox="0 0 512 512">
<path fill-rule="evenodd" clip-rule="evenodd" d="M194.357 338.757C198.959 353.714 212.778 363.92 228.427 363.92C253.234 363.92 270.456 339.213 261.872 315.939L211.215 178.59C202.282 154.369 179.202 138.281 153.386 138.281C127.571 138.281 104.49 154.369 95.5571 178.59L44.9006 315.939C36.3169 339.213 53.5386 363.92 78.345 363.92C93.994 363.92 107.813 353.714 112.415 338.757L112.792 337.533H193.981L194.357 338.757ZM131.059 277.995L153.386 205.262L175.713 277.995H131.059Z" fill="black"/>
<path fill-rule="evenodd" clip-rule="evenodd" d="M290.378 333.474C290.378 350.289 304.009 363.92 320.824 363.92H334.018C343.546 363.92 351.27 356.196 351.27 346.667C365.14 362.229 380.701 367.979 397.278 367.979C436.857 367.979 469.333 338.21 469.333 282.054C469.333 227.928 437.534 196.467 397.278 196.467C380.701 196.467 364.125 202.218 351.27 217.779V168.727C351.27 151.912 337.639 138.281 320.824 138.281C304.009 138.281 290.378 151.912 290.378 168.727V333.474ZM376.642 314.192C368.523 314.192 357.021 310.47 351.27 303.366V261.418C357.021 254.314 368.523 250.255 376.642 250.255C393.218 250.255 407.088 261.757 407.088 282.054C407.088 302.69 393.218 314.192 376.642 314.192Z" fill="black"/>
</svg>
