<svg width="32px" height="32px" viewBox="0 0 32 32" version="1.1" xmlns="http://www.w3.org/2000/svg" xmlns:xlink="http://www.w3.org/1999/xlink">
  <title>exclamation_mark</title>
  <g id="exclamation_mark" stroke="none" stroke-width="1" fill="none" fill-rule="evenodd"><path d="M21.3333333,26.0833333 C21.3333333,27.34375 20.8763892,28.4227428 19.9625,29.3203125 C19.0486108,30.2178822 17.95,30.6666667 16.6666667,30.6666667 C15.3833333,30.6666667 14.2847225,30.2178822 13.3708333,29.3203125 C12.4569441,28.4227428 12,27.34375 12,26.0833333 C12,24.8229167 12.4569441,23.7439239 13.3708333,22.8463542 C14.2847225,21.9487844 15.3833333,21.5 16.6666667,21.5 C17.95,21.5 19.0486108,21.9487844 19.9625,22.8463542 C20.8763892,23.7439239 21.3333333,24.8229167 21.3333333,26.0833333 Z" id="Path" fill="#000000" fill-rule="nonzero"></path><path d="M12.525,2.6875 C12.525,2.32638861 12.6611108,2.01041667 12.9333333,1.73958333 C13.2055559,1.46875 13.5361108,1.33333333 13.925,1.33333333 L19.4083333,1.33333333 C19.7972225,1.33333333 20.1277775,1.46875 20.4,1.73958333 C20.6722225,2.01041667 20.8083333,2.32638861 20.8083333,2.6875 L19.9916667,17.4208333 C19.9916667,17.7819447 19.8555559,18.0798614 19.5833333,18.3145833 C19.3111108,18.5493053 18.9805559,18.6666667 18.5916667,18.6666667 L14.7416667,18.6666667 C14.3527775,18.6666667 14.0222225,18.5493053 13.75,18.3145833 C13.4777775,18.0798614 13.3416667,17.7819447 13.3416667,17.4208333 L12.525,2.6875 Z" id="Path" fill="#000000" fill-rule="nonzero"></path></g>
</svg>
