<svg width="32" height="32" viewBox="0 0 32 32" xmlns="http://www.w3.org/2000/svg">
    <path d="M1.92 4c-.35 0-.64.3-.64.64V23.2h5.76v-2.56h6.98l.7 1.28-.7 1.28h16.7V4.64c0-.35-.3-.64-.64-.64H1.92zm23.14 4.48c.16.03.32.12.42.26.2.3.15.7-.14.9l-8.96 6.4c-.24.17-.56.16-.78-.02l-3.46-2.88-4.72 3.54c-.12.1-.25.12-.38.12-.2 0-.4-.1-.52-.26-.2-.28-.14-.7.14-.9l5.12-3.84c.24-.18.55-.17.78.02l3.48 2.9 8.54-6.12c.14-.1.32-.15.48-.12zm-24.42 16c-.35 0-.64.3-.64.64v1.92c0 .35.3.64.64.64h30.72c.35 0 .64-.3.64-.64v-1.92c0-.35-.3-.64-.64-.64H.64z" fill-rule="nonzero" />
</svg>
