<svg xmlns="http://www.w3.org/2000/svg" viewBox="0 0 512 512">
<path d="M467.763 246.75C465.672 240.52 461.575 235.655 455.489 232.155L254.451 110.776C249.12 107.276 243.222 106.007 236.742 106.987C230.409 107.89 224.568 110.978 220.191 115.737C215.613 120.602 213.333 126.919 213.333 134.707V188.993L83.7846 110.776C78.453 107.276 72.5558 106.007 66.0757 106.987C59.742 107.89 53.9014 110.978 49.524 115.737C44.9468 120.602 42.6667 126.919 42.6667 134.707V377.466C42.6667 384.465 44.8525 390.503 49.224 395.56C53.4229 400.511 59.1829 403.81 65.51 404.888C71.8159 406.089 78.3339 404.841 83.7846 401.388L213.333 323.171V377.466C213.333 384.465 215.519 390.503 219.891 395.56C224.09 400.511 229.85 403.81 236.177 404.888C242.483 406.089 249.001 404.841 254.451 401.388L455.489 280.009C461.575 276.509 465.672 271.644 467.763 265.422C469.857 259.382 469.857 252.791 467.763 246.75Z" fill="black"/>
</svg>
