<svg xmlns="http://www.w3.org/2000/svg" viewBox="0 0 512 512">
  <title>
    friend checked
  </title>
  <path d="M351.966678,277.302934 C401.66667,277.302934 490.666657,302.302768 490.666657,352.002438 L490.666657,405.980498 C490.666657,417.78042 481.066658,427.280357 469.36666,427.280357 L234.666696,427.280357 C222.92578,427.22562 213.421436,417.721338 213.366699,405.980498 L213.366699,352.002438 C213.366699,302.302768 302.366686,277.302934 351.966678,277.302934 Z M185.659347,161.575618 C191.08714,152.174403 203.341339,149.087781 213.029866,154.681455 C222.718392,160.275128 226.172399,172.430887 220.744605,181.832101 L220.744605,181.832101 L157.856454,290.757575 L145.797495,311.644304 L122.53996,298.21656 L67.2276764,266.378901 C60.9602985,262.760429 57.0421874,256.172371 56.9492582,249.096384 C56.856329,242.020397 60.6026997,235.531493 66.7771486,232.073978 C72.9515975,228.616464 80.6160789,228.715619 86.8834567,232.334091 L86.8834567,232.334091 L130.368017,257.34301 Z M404.922914,107.218647 C426.279073,128.603294 432.64538,160.74927 421.051726,188.659335 C409.458073,216.5694 382.18907,234.743676 351.966678,234.703285 L351.966678,234.603218 C332.165239,234.65652 313.159455,226.814069 299.157672,212.812377 C285.155889,198.810685 277.313388,179.805025 277.36642,160.003714 C277.36642,129.781491 295.577623,102.537037 323.503375,90.9808567 C351.429127,79.4246766 383.566755,85.8339988 404.922914,107.218647 Z" />
</svg>
