<svg xmlns="http://www.w3.org/2000/svg" viewBox="0 0 32 32">
    <title>friends</title>
    <path fill-rule="evenodd" d="M18.8 9.27c0-2.38 1.9-4.3 4.23-4.3 2.33 0 4.22 1.92 4.22 4.3s-1.9 5.27-4.22 5.27c-2.33 0-4.22-2.9-4.22-5.27zm-2.8 0c0 2.9-2.3 6.23-5.16 6.23S5.7 12.18 5.7 9.27C5.7 6.37 8 4 10.83 4S16 6.36 16 9.27zm12.65 8.27c1.43.58 2.35 1.97 2.35 3.55v3h-8.44v-.78c0-2.5-1.33-4.93-4.05-6.2 1.2-.36 2.74-.68 4.55-.68 2.46 0 4.42.58 5.63 1.08zm-10.58 1.5c1.6.8 2.62 2.48 2.62 4.3V27H1v-3.66c0-1.82 1.03-3.5 2.62-4.3 1.5-.74 3.95-1.62 7.22-1.62s5.74.88 7.23 1.62z"/>
</svg>
