<svg viewBox="0 0 512 512" xmlns="http://www.w3.org/2000/svg">
<path d="M256 234.667C303.128 234.667 341.333 196.462 341.333 149.333C341.333 102.205 303.128 64 256 64C208.872 64 170.667 102.205 170.667 149.333C170.667 196.462 208.872 234.667 256 234.667Z" fill="black"/>
<path d="M64 387.011C64 358.238 77.1415 330.389 102.37 316.555C147.97 291.552 200.325 277.333 256 277.333C266.916 277.333 277.704 277.88 288.339 278.947C262.355 302.375 246.021 336.301 246.021 374.042C246.021 401.595 254.727 427.114 269.537 448H124.989C91.3059 448 64 420.694 64 387.011Z" fill="black"/>
<path d="M442.439 357.127C450.77 348.795 450.77 335.288 442.439 326.957C434.108 318.626 420.6 318.626 412.269 326.957L363.354 375.872L346.439 358.957C338.108 350.626 324.6 350.626 316.269 358.957C307.938 367.288 307.938 380.795 316.269 389.127L348.269 421.127C356.6 429.458 370.108 429.458 378.439 421.127L442.439 357.127Z" fill="black"/>
</svg>
