<svg xmlns="http://www.w3.org/2000/svg" viewBox="0 0 512 512">
  <title>
    friend pending
  </title>
  <path d="M351.942301,288 C409.295348,288 512,314.670504 512,367.691465 L512,425.276731 C512,437.865209 500.921745,448 487.420123,448 L216.579877,448 C203.031036,447.941605 192.063166,437.802178 192,425.276731 L192,367.691465 C192,314.670504 294.704652,288 351.942301,288 Z M351.964488,333.517508 C316.737081,333.517508 253.526611,355.069275 253.526611,372.743047 L253.526611,372.743047 L253.526611,394.161718 C253.565487,398.336895 260.315758,401.716727 268.65451,401.736192 L268.65451,401.736192 L435.34549,401.736192 C443.655181,401.736192 450.473389,398.357905 450.473389,394.161718 L450.473389,394.161718 L450.473389,372.743047 C450.473389,355.069275 387.262919,333.517508 351.964488,333.517508 Z M144,64 C205.855892,64 256,114.144108 256,176 C256,237.855892 205.855892,288 144,288 C82.144108,288 32,237.855892 32,176 C32,114.144108 82.144108,64 144,64 Z M144,102.4 C103.351842,102.4 70.4,135.351842 70.4,176 C70.4,216.648158 103.351842,249.6 144,249.6 C184.648158,249.6 217.6,216.648158 217.6,176 C217.6,135.351842 184.648158,102.4 144,102.4 Z M424.604517,87.4713543 C447.475494,110.373058 454.293371,144.799514 441.877365,174.689557 C429.46136,204.5796 400.258134,224.043184 367.892031,223.999928 L367.892031,223.892762 C346.686052,223.949845 326.332165,215.55104 311.337219,200.556049 C296.342272,185.561058 287.943493,165.20711 288.000286,144.001067 C288.000286,111.634838 307.503233,82.4576246 337.409792,70.0816333 C367.316351,57.705642 401.733539,64.5696502 424.604517,87.4713543 Z M144,121.6 C153.720212,121.6 161.753369,128.823139 163.024727,138.194674 L163.2,140.8 L163.2,176 C163.2,186.603867 154.603867,195.2 144,195.2 C134.279788,195.2 126.246631,187.976861 124.975273,178.605326 L124.8,176 L124.8,140.8 C124.8,130.196133 133.396133,121.6 144,121.6 Z M357.007643,117.609678 C346.331668,122.027667 339.369551,132.443367 339.369551,143.997483 C339.349277,151.56763 342.347454,158.833595 347.700316,164.186516 C352.939287,169.425545 360.010741,172.408998 367.406356,172.514478 L367.889123,172.51727 L367.889123,172.555526 C379.4431,172.570968 389.868001,165.622845 394.300238,154.952679 C398.732475,144.282513 396.298645,131.992936 388.134216,123.817471 C379.969787,115.642007 367.683618,113.191689 357.007643,117.609678 Z" fill-rule="nonzero"/>
</svg>
