<svg viewBox="0 0 512 512" xmlns="http://www.w3.org/2000/svg">
<path d="M256 277.333C270.721 277.333 285.21 278.327 299.403 280.252C284.723 290.806 272.369 304.392 263.257 320.093C260.846 320.031 258.426 320 256 320C207.674 320 162.355 332.324 122.884 353.967C114.195 358.731 106.667 370.234 106.667 387.011C106.667 397.13 114.87 405.333 124.989 405.333H247.77C250.307 420.644 255.562 435.037 263.022 448H124.989C91.3059 448 64 420.694 64 387.011C64 358.238 77.1415 330.389 102.37 316.555C147.97 291.552 200.325 277.333 256 277.333Z" fill="black"/>
<path fill-rule="evenodd" clip-rule="evenodd" d="M256 234.667C303.128 234.667 341.333 196.462 341.333 149.333C341.333 102.205 303.128 64 256 64C208.872 64 170.667 102.205 170.667 149.333C170.667 196.462 208.872 234.667 256 234.667ZM256 192C279.564 192 298.667 172.897 298.667 149.333C298.667 125.769 279.564 106.667 256 106.667C232.436 106.667 213.333 125.769 213.333 149.333C213.333 172.897 232.436 192 256 192Z" fill="black"/>
<path d="M374.042 320.25C385.824 320.25 395.375 329.801 395.375 341.583V362.917H416.708C428.49 362.917 438.042 372.468 438.042 384.25C438.042 396.032 428.49 405.583 416.708 405.583H395.375V426.917C395.375 438.699 385.824 448.25 374.042 448.25C362.26 448.25 352.708 438.699 352.708 426.917V405.583H331.375C319.593 405.583 310.042 396.032 310.042 384.25C310.042 372.468 319.593 362.917 331.375 362.917H352.708V341.583C352.708 329.801 362.26 320.25 374.042 320.25Z" fill="black"/>
</svg>
