<svg xmlns="http://www.w3.org/2000/svg" width="32" height="32" viewBox="0 0 32 32">
  <path fill-rule="evenodd" d="M19 9.5c0 2.485 2.015 5.5 4.5 5.5S28 11.985 28 9.5 25.985 5 23.5 5 19 7.015 19 9.5zm-3 0c0 3.038-2.462 6.5-5.5 6.5S5 12.538 5 9.5 7.462 4 10.5 4 16 6.462 16 9.5zm13.5 8.628c-1.292-.515-3.38-1.128-6-1.128-1.93 0-3.57.334-4.817.715C21.577 19.035 23 21.58 23 24.185V25h9v-3.162c0-1.65-.98-3.105-2.5-3.71zm-11.295 1.567C16.618 18.922 13.993 18 10.5 18c-3.493 0-6.118.922-7.705 1.695C1.097 20.522 0 22.285 0 24.185V28h21v-3.815c0-1.9-1.097-3.663-2.795-4.49z"/>
</svg>
