<svg viewBox="0 0 512 512" xmlns="http://www.w3.org/2000/svg">
<path d="M256 277.333C270.721 277.333 285.21 278.327 299.403 280.252C284.723 290.806 272.369 304.392 263.257 320.093C260.846 320.031 258.426 320 256 320C207.674 320 162.355 332.324 122.884 353.967C114.195 358.731 106.667 370.234 106.667 387.011C106.667 397.13 114.87 405.333 124.989 405.333H247.77C250.307 420.644 255.562 435.037 263.022 448H124.989C91.3059 448 64 420.694 64 387.011C64 358.238 77.1415 330.389 102.37 316.555C147.97 291.552 200.325 277.333 256 277.333Z" fill="black"/>
<path fill-rule="evenodd" clip-rule="evenodd" d="M256 234.667C303.128 234.667 341.333 196.462 341.333 149.333C341.333 102.205 303.128 64 256 64C208.872 64 170.667 102.205 170.667 149.333C170.667 196.462 208.872 234.667 256 234.667ZM256 192C279.564 192 298.667 172.897 298.667 149.333C298.667 125.769 279.564 106.667 256 106.667C232.436 106.667 213.333 125.769 213.333 149.333C213.333 172.897 232.436 192 256 192Z" fill="black"/>
<path d="M326.063 384.25C326.063 398.978 314.123 410.917 299.396 410.917C284.668 410.917 272.729 398.978 272.729 384.25C272.729 369.522 284.668 357.583 299.396 357.583C314.123 357.583 326.063 369.522 326.063 384.25Z" fill="black"/>
<path d="M401.438 384.25C401.438 398.978 389.498 410.917 374.771 410.917C360.043 410.917 348.104 398.978 348.104 384.25C348.104 369.522 360.043 357.583 374.771 357.583C389.498 357.583 401.438 369.522 401.438 384.25Z" fill="black"/>
<path d="M475.396 384.25C475.396 398.978 463.457 410.917 448.729 410.917C434.002 410.917 422.063 398.978 422.063 384.25C422.063 369.522 434.002 357.583 448.729 357.583C463.457 357.583 475.396 369.522 475.396 384.25Z" fill="black"/>
</svg>
