<svg viewBox="0 0 512 512" xmlns="http://www.w3.org/2000/svg">
<path d="M256 277.333C270.721 277.333 285.21 278.327 299.403 280.252C284.723 290.806 272.369 304.392 263.257 320.093C260.846 320.031 258.426 320 256 320C207.674 320 162.355 332.324 122.884 353.967C114.195 358.731 106.667 370.234 106.667 387.011C106.667 397.13 114.87 405.333 124.989 405.333H247.77C250.307 420.644 255.562 435.037 263.022 448H124.989C91.3059 448 64 420.694 64 387.011C64 358.238 77.1415 330.389 102.37 316.555C147.97 291.552 200.325 277.333 256 277.333Z" fill="black"/>
<path fill-rule="evenodd" clip-rule="evenodd" d="M256 234.667C303.128 234.667 341.333 196.462 341.333 149.333C341.333 102.205 303.128 64 256 64C208.872 64 170.667 102.205 170.667 149.333C170.667 196.462 208.872 234.667 256 234.667ZM256 192C279.564 192 298.667 172.897 298.667 149.333C298.667 125.769 279.564 106.667 256 106.667C232.436 106.667 213.333 125.769 213.333 149.333C213.333 172.897 232.436 192 256 192Z" fill="black"/>
<path d="M326.485 363.103C319.023 355.578 319.023 343.377 326.485 335.852C333.948 328.327 346.047 328.327 353.509 335.852L373.334 355.843L393.157 335.853C400.62 328.328 412.719 328.328 420.181 335.853C427.644 343.378 427.644 355.578 420.181 363.104L400.358 383.093L421.07 403.979C428.532 411.504 428.532 423.705 421.07 431.23C413.607 438.755 401.508 438.755 394.046 431.23L373.334 410.344L352.621 431.231C345.159 438.756 333.059 438.756 325.597 431.231C318.134 423.706 318.134 411.505 325.597 403.98L346.309 383.093L326.485 363.103Z" fill="black"/>
</svg>
