<svg xmlns="http://www.w3.org/2000/svg" viewBox="0 0 512 512">
  <title>
    friend remove
  </title>
  <path d="M351.942301,288 C409.295348,288 512,314.670504 512,367.691465 L512,425.276731 C512,437.865209 500.921745,448 487.420123,448 L216.579877,448 C203.031036,447.941605 192.063166,437.802178 192,425.276731 L192,367.691465 C192,314.670504 294.704652,288 351.942301,288 Z M351.964489,333.517508 C316.737081,333.517508 253.526611,355.069275 253.526611,372.743047 L253.526611,372.743047 L253.526611,394.161718 C253.565487,398.336895 260.315758,401.716727 268.65451,401.736192 L268.65451,401.736192 L435.34549,401.736192 C443.655181,401.736192 450.473389,398.357905 450.473389,394.161718 L450.473389,394.161718 L450.473389,372.743047 C450.473389,355.069275 387.262919,333.517508 351.964489,333.517508 Z M32.2557411,129.35234 C40.5619224,121.046159 53.8292224,120.846478 61.889085,128.906341 L61.889085,128.906341 L112.735708,179.752963 L162.400623,130.088048 C170.706805,121.781866 183.974105,121.582186 192.033967,129.642048 C200.09383,137.701911 199.894149,150.969211 191.587968,159.275392 L191.587968,159.275392 L141.923052,208.940308 L191.093659,258.110914 C196.307476,263.324731 198.258697,271.009042 196.212315,278.269241 C194.165933,285.529441 188.432842,291.262531 181.172643,293.308913 C173.912443,295.355295 166.228132,293.404075 161.014316,288.190258 L161.014316,288.190258 L111.843709,239.019651 L63.2753929,287.587967 C57.9022358,292.961125 50.1556954,295.144589 42.9538187,293.31587 C35.751942,291.48715 30.1888653,285.924074 28.360146,278.722197 C26.5314267,271.52032 28.7148907,263.77378 34.0880483,258.400623 L34.0880483,258.400623 L82.6563645,209.832307 L31.8097418,158.985684 C23.7498792,150.925821 23.9495598,137.658521 32.2557411,129.35234 Z M424.604517,87.4713543 C447.475494,110.373058 454.293371,144.799514 441.877365,174.689557 C429.46136,204.5796 400.258134,224.043184 367.892031,223.999928 L367.892031,223.892762 C346.686052,223.949845 326.332165,215.55104 311.337219,200.556049 C296.342272,185.561058 287.943493,165.20711 288.000286,144.001067 C288.000286,111.634838 307.503233,82.4576246 337.409792,70.0816333 C367.316351,57.705642 401.733539,64.5696502 424.604517,87.4713543 Z M357.007643,117.609678 C346.331668,122.027667 339.369551,132.443367 339.369551,143.997483 C339.349277,151.56763 342.347454,158.833595 347.700316,164.186516 C352.939287,169.425545 360.010741,172.408998 367.406356,172.514478 L367.889123,172.51727 L367.889123,172.555526 C379.4431,172.570968 389.868001,165.622845 394.300238,154.952679 C398.732475,144.282513 396.298645,131.992936 388.134216,123.817471 C379.969787,115.642007 367.683618,113.191689 357.007643,117.609678 Z" fill-rule="nonzero"/>
</svg>
