<svg xmlns="http://www.w3.org/2000/svg" xmlns:xlink="http://www.w3.org/1999/xlink" viewBox="0 0 512 512">
  <title>
    friend add
  </title>
  <path fill="#000" fill-rule="nonzero" d="M320 298.666667c61.188049.099955 170.666667 30.486342 170.666667 90.95925v36.983431c0 11.794716-9.598126 21.39111-21.395821 21.39111H170.729154c-5.665311.025898-11.107712-2.205453-15.123107-6.201075-4.015394-3.995622-6.272714-9.426137-6.272714-15.09008v-37.083386c0-60.472908 109.478618-90.95925 170.666667-90.95925zm-4.010667 42.752l-2.988094.066589c-26.295081 1.108095-59.123135 8.211608-84.309707 19.130221-23.932645 10.375025-35.317447 21.08896-36.574023 27.800074L192 389.625917v15.707416h256v-15.707416c0-6.181125-9.963286-16.626151-32.328583-27.005893l-4.339425-1.944379c-25.180943-10.898205-58.011198-17.985292-84.327086-19.090791L320 341.433289l-4.010667-.014622zM106.666667 149.333333c11.782074 0 21.333333 9.551259 21.333333 21.333334l-.000667 42.666 42.667334.000666c11.782074 0 21.333333 9.551259 21.333333 21.333334C192 246.448741 182.448741 256 170.666667 256l-42.667334-.000333.000667 42.667C128 310.448741 118.448741 320 106.666667 320c-11.782075 0-21.3333337-9.551259-21.3333337-21.333333v-42.667L42.6666667 256c-11.7820747 0-21.3333334-9.551259-21.3333334-21.333333 0-11.782075 9.5512587-21.333334 21.3333334-21.333334l42.6666666-.000666v-42.666c0-11.782075 9.5512587-21.333334 21.3333337-21.333334zm213.366699-63.9166663c47.109898 0 85.300016 38.1883063 85.300016 85.2959693 0 47.107664-38.190118 85.296502-85.300016 85.296502-22.647424.079538-44.390372-8.881261-60.404619-24.894748-16.014247-16.013487-24.975472-37.755404-24.895929-60.401754 0-47.107663 38.19065-85.2959693 85.300548-85.2959693zm-.000133 42.6295693c-23.564076 0-42.6668 19.102457-42.6668 42.666533-.039786 11.3281 4.442562 22.203786 12.452788 30.214012s18.885913 12.492574 30.214012 12.452788c23.564076 0 42.666534-19.102724 42.666534-42.6668 0-23.564076-19.102458-42.666533-42.666534-42.666533z"/>
</svg>
