<svg xmlns="http://www.w3.org/2000/svg" viewBox="0 0 512 512">
  <title>
    friend add
  </title>
    <path d="M351.966678,277.302934 C401.66667,277.302934 490.666657,302.302768 490.666657,352.002438 L490.666657,405.980498 C490.666657,417.78042 481.066658,427.280357 469.36666,427.280357 L234.666696,427.280357 C222.92578,427.22562 213.421436,417.721338 213.366699,405.980498 L213.366699,352.002438 C213.366699,302.302768 302.366686,277.302934 351.966678,277.302934 Z M351.985905,319.969176 C321.459159,319.969176 266.683345,340.170916 266.683345,356.737583 L266.683345,356.737583 L266.683345,376.814565 C266.717033,380.728204 272.566564,383.896319 279.792613,383.914565 L279.792613,383.914565 L424.240743,383.914565 C431.441609,383.914565 437.350011,380.747898 437.350011,376.814565 L437.350011,376.814565 L437.350011,356.737583 C437.350011,340.170916 382.574197,319.969176 351.985905,319.969176 Z M134.893567,134.287634 C146.080914,134.287634 155.150051,143.087826 155.150051,153.943414 L155.150051,153.943414 L155.150051,222.427208 L222.042239,222.427208 C233.229586,222.427208 242.298722,231.2274 242.298722,242.082988 C242.298722,252.938576 233.229586,261.738768 222.042239,261.738768 L222.042239,261.738768 L155.150051,261.738768 L155.150051,327.965186 C155.150051,334.98752 151.289187,341.476425 145.021809,344.987592 C138.754431,348.498759 131.032703,348.498759 124.765325,344.987592 C118.497948,341.476425 114.637084,334.98752 114.637084,327.965186 L114.637084,327.965186 L114.637084,261.738768 L49.221873,261.738768 C41.9849283,261.738769 35.2977155,257.992398 31.6792431,251.910878 C28.0607706,245.829359 28.0607706,238.336617 31.6792431,232.255098 C35.2977155,226.173578 41.9849283,222.427207 49.221873,222.427208 L49.221873,222.427208 L114.637084,222.427208 L114.637084,153.943414 C114.637084,143.087826 123.706221,134.287634 134.893567,134.287634 Z M404.922914,107.218647 C426.279073,128.603294 432.64538,160.74927 421.051726,188.659335 C409.458073,216.5694 382.18907,234.743676 351.966678,234.703285 L351.966678,234.603218 C332.165239,234.65652 313.159455,226.814069 299.157672,212.812377 C285.155889,198.810685 277.313388,179.805025 277.36642,160.003714 C277.36642,129.781491 295.577623,102.537037 323.503375,90.9808567 C351.429127,79.4246766 383.566755,85.8339988 404.922914,107.218647 Z M341.803198,135.360545 C331.834327,139.485878 325.333333,149.21162 325.333333,160.000368 C325.314402,167.069052 328.114,173.853704 333.112325,178.852037 C337.999575,183.739295 344.594633,186.52446 351.493155,186.628044 L351.963963,186.630945 L351.963963,186.666667 C362.752683,186.681085 372.487109,180.193221 376.625785,170.229869 C380.764461,160.266517 378.491831,148.791026 370.868158,141.157122 C363.244486,133.523217 351.772069,131.235213 341.803198,135.360545 Z" fill-rule="nonzero" />
</svg>
