
<svg xmlns="http://www.w3.org/2000/svg" xmlns:xlink="http://www.w3.org/1999/xlink" viewBox="0 0 512 512">
  <title>
    friend_pending
  </title>
  <path d="M320 298.666667c61.188049.099955 170.666667 30.486342 170.666667 90.95925v36.983431c0 11.794716-9.598126 21.39111-21.395821 21.39111H170.729154c-5.665311.025898-11.107712-2.205453-15.123107-6.201075-4.015394-3.995622-6.272714-9.426137-6.272714-15.09008v-37.083386c0-60.472908 109.478618-90.95925 170.666667-90.95925zm-4.010667 42.752l-2.988094.066589c-26.295081 1.108095-59.123135 8.211608-84.309707 19.130221-23.932645 10.375025-35.317447 21.08896-36.574023 27.800074L192 389.625917v15.707416h256v-15.707416c0-6.181125-9.963286-16.626151-32.328583-27.005893l-4.339425-1.944379c-25.180943-10.898205-58.011198-17.985292-84.327086-19.090791L320 341.433289l-4.010667-.014622zm-209.322666-234.752c58.910373 0 106.666666 47.756293 106.666666 106.666666C213.333333 272.243707 165.57704 320 106.666667 320 47.7562934 320 0 272.243707 0 213.333333c0-58.910373 47.7562934-106.666666 106.666667-106.666666zm16.000844 44.683163l-.000844 45.983503c0 8.836556-7.163444 16-16 16-8.8365563 0-16.0000003-7.163444-16.0000003-16l-.0008443-45.983503c-27.603207 7.104979-47.9991557 32.162376-47.9991557 61.983503 0 35.346224 28.653776 64 64.0000003 64 35.346224 0 64-28.653776 64-64 0-29.821127-20.395949-54.878524-47.999156-61.983503zm197.365855-65.9331633c47.109898 0 85.300016 38.1883063 85.300016 85.2959693 0 47.107664-38.190118 85.296502-85.300016 85.296502-22.647424.079538-44.390372-8.881261-60.404619-24.894748-16.014247-16.013487-24.975472-37.755404-24.895929-60.401754 0-47.107663 38.19065-85.2959693 85.300548-85.2959693zm-.000133 42.6295693c-23.564076 0-42.6668 19.102457-42.6668 42.666533-.039786 11.3281 4.442562 22.203786 12.452788 30.214012s18.885913 12.492574 30.214012 12.452788c23.564076 0 42.666534-19.102724 42.666534-42.6668 0-23.564076-19.102458-42.666533-42.666534-42.666533z"/>
</svg>
