<svg viewBox="0 0 512 512" xmlns="http://www.w3.org/2000/svg">
<path d="M141.482 189.927C151.749 181.275 158.273 168.316 158.273 153.833C158.273 127.784 137.169 106.667 111.137 106.667C85.1038 106.667 64.0001 127.784 64.0001 153.833C64.0001 169.905 72.0335 184.099 84.3016 192.615C75.3189 195.788 66.7424 200.222 58.6947 205.762C47.7684 213.283 42.6667 226.405 42.6667 239.67C42.6667 257.678 57.2653 272.277 75.2736 272.277H158.57L159.286 271.974C158.631 267.408 158.292 262.741 158.292 257.997C158.292 238.271 164.13 219.909 174.171 204.547C164.008 197.824 153.031 192.848 141.482 189.927Z" fill="black"/>
<path d="M436.727 272.277H353.429L352.723 271.978C353.378 267.411 353.717 262.743 353.717 257.997C353.717 238.269 347.878 219.905 337.835 204.543C347.229 198.33 357.316 193.609 367.909 190.624C357.155 181.98 350.271 168.711 350.271 153.833C350.271 127.784 371.375 106.667 397.407 106.667C423.44 106.667 444.544 127.784 444.544 153.833C444.544 169.414 436.994 183.23 425.355 191.819C435.191 195.027 444.561 199.743 453.306 205.762C464.232 213.284 469.333 226.405 469.333 239.67C469.333 257.678 454.735 272.277 436.727 272.277Z" fill="black"/>
<path d="M311.051 263.358C311.051 279.392 304.204 293.826 293.277 303.892C315.304 307.912 336.112 315.43 355.103 325.85C371.377 334.779 379.854 352.755 379.854 371.327C379.854 393.069 362.24 410.694 340.511 410.694H171.489C149.76 410.694 132.146 393.069 132.146 371.327C132.146 352.755 140.623 334.778 156.897 325.849C175.891 315.428 196.7 307.91 218.73 303.89C207.804 293.824 200.958 279.391 200.958 263.358C200.958 232.938 225.603 208.277 256.005 208.277C286.406 208.277 311.051 232.938 311.051 263.358Z" fill="black"/>
</svg>
