<svg xmlns="http://www.w3.org/2000/svg" xmlns:xlink="http://www.w3.org/1999/xlink" viewBox="0 0 512 512">
  <title>
    friend_checked
  </title>
    <path fill="#000" fill-rule="nonzero" d="M320.033366 298.606593v.099995c61.200012 0 170.700032 30.398564 170.700032 90.895705v36.998252c0 11.799443-9.600001 21.399224-21.400004 21.399224H170.733337c-5.666418.026367-11.109883-2.205879-15.126063-6.203102-4.01618-3.997223-6.273941-9.429914-6.273941-15.096127v-37.098247c0-60.497141 109.500021-90.9957 170.700033-90.9957zm-121.593548-81.97669l1.860711 1.657735c7.7361 7.736101 8.288679 19.935469 1.657736 28.309179l-1.657736 1.860711-90.509668 90.509668c-7.7361 7.7361-19.9354687 8.288679-28.3091787 1.657735l-1.8607106-1.657735-45.254834-45.254834c-8.3311849-8.331185-8.3311849-21.838705 0-30.16989 7.7361002-7.7361 19.9354686-8.288679 28.3091786-1.657735l1.8607107 1.657735 30.1698893 30.16989 75.4247237-75.424724c7.7361-7.7361 19.935468-8.288679 28.309178-1.657735zM320.033366 85.4166667c47.109898 0 85.300016 38.1883063 85.300016 85.2959693 0 47.107664-38.190118 85.296502-85.300016 85.296502-22.647424.079538-44.390372-8.881261-60.404619-24.894748-16.014247-16.013487-24.975472-37.755404-24.895929-60.401754 0-47.107663 38.19065-85.2959693 85.300548-85.2959693z"/>
</svg>
