<?xml version="1.0" encoding="UTF-8"?>
  <svg viewBox="0 0 512 512" version="1.1" xmlns="http://www.w3.org/2000/svg" xmlns:xlink="http://www.w3.org/1999/xlink">
    <title>fullscreen</title>
    <g id="fullscreen" stroke="none" stroke-width="1" fill="none" fill-rule="evenodd">
      <path d="M208.350947,303.771886 C216.043997,311.459483 216.639851,323.560202 210.135621,331.931387 L208.361644,333.941773 L138.148115,404.204 L193.346964,404.195511 C204.287462,404.195511 213.30445,412.431035 214.536772,423.040927 L214.680297,425.528844 C214.680297,436.469342 206.444773,445.486331 195.834881,446.718653 L193.346964,446.862178 L86.6802971,446.862178 C86.2184327,446.862178 85.7599963,446.8475 85.305429,446.818587 C85.2667332,446.815622 85.2277658,446.813014 85.1888043,446.8103 C83.1011472,446.666636 81.0964967,446.222201 79.2173449,445.520402 C79.1959493,445.511806 79.1746387,445.503826 79.1533383,445.495811 C79.0707748,445.465242 78.9883335,445.433559 78.9061405,445.40138 C78.8690703,445.386548 78.8314583,445.371734 78.7938802,445.356809 C78.5276404,445.251066 78.2646959,445.140156 78.0045009,445.02419 C75.8694955,444.075126 73.858346,442.757453 72.0672933,441.071669 C71.9287104,440.941149 71.7918542,440.808957 71.6567807,440.67497 C71.637768,440.65611 71.6192222,440.637644 71.6007019,440.619137 C71.4020277,440.420603 71.208087,440.219127 71.0188797,440.014847 C70.9673263,439.958829 70.9162784,439.903075 70.865524,439.84705 C69.2098698,438.021713 67.9271282,435.979178 67.0166915,433.817023 C66.989736,433.752885 66.9630813,433.688847 66.9367305,433.624653 C66.9199657,433.583553 66.9031659,433.542162 66.8865014,433.500729 C66.1899218,431.773197 65.713142,429.933734 65.4904887,428.016762 L65.4878443,427.983822 C65.3924331,427.155456 65.3454842,426.322566 65.3469993,425.489744 L65.3469638,318.862178 C65.3469638,307.080103 74.8982224,297.528844 86.6802971,297.528844 C97.620795,297.528844 106.637783,305.764368 107.870105,316.37426 L108.01363,318.862178 L108.015115,373.997 L178.181059,303.782583 C186.50929,295.448444 200.016808,295.443655 208.350947,303.771886 Z M320.528981,446.422185 C308.746906,446.422185 299.195647,436.870926 299.195647,425.088852 C299.195647,414.148354 307.431171,405.131366 318.041063,403.899043 L320.528981,403.755518 L375.654115,403.744 L305.449386,333.58809 C297.115247,325.259859 297.110458,311.75234 305.438689,303.418202 C313.126286,295.725151 325.227005,295.129298 333.59819,301.633528 L335.608576,303.407505 L405.863115,373.612 L405.862314,318.422185 C405.862314,307.481687 414.097838,298.464699 424.70773,297.232377 L427.195647,297.088852 C438.136145,297.088852 447.153133,305.324376 448.385456,315.934268 L448.528981,318.422185 L448.528981,425.088852 C448.528981,428.091718 447.908556,430.949677 446.7889,433.541534 C445.879295,435.652393 444.612392,437.646416 442.988497,439.431649 C442.860793,439.571746 442.731716,439.710064 442.60084,439.846645 C442.57087,439.877996 442.54095,439.909017 442.510919,439.939969 C442.382272,440.072565 442.25177,440.203688 442.119592,440.333106 L442.28594,440.168447 C441.850994,440.603701 441.401922,441.016237 440.940199,441.406053 C440.919558,441.422463 440.899182,441.43958 440.878773,441.456659 C439.401671,442.695392 437.796019,443.701832 436.11008,444.476766 C436.066902,444.495955 436.023866,444.515601 435.980754,444.535108 C435.922116,444.562164 435.863118,444.58848 435.804026,444.614516 C435.756961,444.634884 435.709918,444.655451 435.662788,444.675852 C435.608328,444.699655 435.553607,444.723018 435.498809,444.746141 C435.429748,444.775223 435.360693,444.803998 435.291456,444.832418 C435.247366,444.850408 435.202979,444.868412 435.158545,444.88626 C435.093916,444.912469 435.029314,444.938109 434.964558,444.963441 C434.907234,444.985447 434.8499,445.007537 434.792491,445.029371 C433.174744,445.646559 431.46253,446.072036 429.683565,446.27866 L429.650625,446.281304 C428.837192,446.374996 428.019395,446.421956 427.201585,446.422184 L320.528981,446.422185 Z M192.813115,65.1025028 C204.59519,65.1025028 214.146449,74.6537615 214.146449,86.4358361 C214.146449,97.376334 205.910925,106.393322 195.301033,107.625645 L192.813115,107.769169 L137.676115,107.77 L207.892711,177.936598 C216.226849,186.264829 216.231638,199.772347 207.903408,208.106486 C200.21581,215.799536 188.115092,216.39539 179.743906,209.89116 L177.73352,208.117183 L107.470115,137.904 L107.479782,193.102503 C107.479782,204.043001 99.244258,213.059989 88.6343661,214.292311 L86.1464487,214.435836 C75.2059508,214.435836 66.1889626,206.200312 64.9566403,195.59042 L64.8131154,193.102503 L64.8131217,86.4194015 C64.8132863,86.2037476 64.8167005,85.9880956 64.8233643,85.7725251 C64.8314562,85.5032854 64.8446588,85.2354639 64.8627548,84.9689853 C64.86973,84.8749543 64.8768206,84.7805809 64.8845363,84.6862491 L64.8627548,84.9689853 C65.042197,82.3265601 65.702811,79.8161862 66.7576743,77.5247862 C67.5343472,75.832945 68.5443557,74.2224802 69.7873278,72.7411166 C69.8156183,72.7085781 69.8434779,72.6755366 69.8714357,72.6425812 C70.0494684,72.4319048 70.2325349,72.2245788 70.4203183,72.0200281 C70.4818805,71.9532632 70.5435659,71.8868576 70.6056672,71.8208477 C70.6945506,71.7262485 70.7849473,71.6319442 70.8763781,71.5382725 C71.0139049,71.3973636 71.153121,71.2585589 71.2942227,71.1216872 L71.0561565,71.3562409 C71.1660679,71.2462516 71.2768813,71.137713 71.388573,71.0306252 C71.437002,70.9843146 71.4858784,70.9379174 71.5349735,70.8917502 C73.1947036,69.3297039 75.0431779,68.0840182 77.0041818,67.1542876 C77.0089868,67.1529112 77.0136373,67.1507043 77.0182887,67.148499 L77.0041818,67.1542876 C77.1954244,67.0636177 77.3877373,66.9759527 77.5810494,66.8912927 C77.6159,66.8763693 77.6505771,66.861261 77.685302,66.8462423 C77.7586972,66.8142933 77.8324006,66.7829797 77.9062424,66.7520997 C77.9582623,66.7303642 78.0098959,66.7089642 78.0616313,66.6877616 C78.1020885,66.6712968 78.1427999,66.6547969 78.1835516,66.6384278 C78.2756538,66.601158 78.3678902,66.5647744 78.4604385,66.5290176 C78.4734914,66.5244267 78.4861767,66.5195511 78.4988657,66.5146881 C80.131305,65.8871127 81.860836,65.4548272 83.6585314,65.2460277 L83.6784604,65.2448859 C84.496184,65.1501941 85.3183407,65.1027328 86.1405112,65.1025036 L192.813115,65.1025028 Z M427.023068,64.002958 L427.32134,64.0098538 C427.556465,64.0169409 427.790634,64.0278326 428.023787,64.0424694 C428.068253,64.0457569 428.11321,64.0487463 428.158159,64.0518773 C430.700766,64.2269698 433.120425,64.8479819 435.34005,65.8369131 C437.313102,66.7136551 439.18044,67.9052612 440.86608,69.4112254 C441.056266,69.581466 441.244021,69.7551453 441.428601,69.9321104 C441.472657,69.974286 441.516336,70.0165391 441.559878,70.0590155 C441.603999,70.1020754 441.647685,70.1450467 441.691187,70.188204 C441.709196,70.206068 441.727742,70.224534 441.746262,70.2430412 L441.803213,70.3001664 C441.857215,70.3545372 441.910926,70.4091973 441.964343,70.4641443 L441.746262,70.2430412 C441.858862,70.3555617 441.969942,70.4690276 442.079502,70.5834135 C442.107524,70.6127929 442.135704,70.6423998 442.1638,70.6720875 C442.432125,70.9552555 442.691023,71.2439395 442.940682,71.5377907 C442.973987,71.5781495 443.008046,71.6185877 443.041957,71.6591538 C444.282928,73.1405677 445.290363,74.7509929 446.065131,76.4418888 C446.080797,76.4774849 446.096907,76.51283 446.112923,76.5482266 C446.185649,76.7080037 446.255841,76.8687534 446.323956,77.0301715 C447.094788,78.853159 447.61953,80.8053977 447.856475,82.8454161 L447.859119,82.8783557 C447.952887,83.6924529 447.999848,84.5109201 448,85.3293975 L448,192 C448,203.782075 438.448741,213.333333 426.666667,213.333333 C415.726169,213.333333 406.709181,205.097809 405.476858,194.487917 L405.333333,192 L405.333115,136.861 L335.165905,207.079595 C326.837674,215.413734 313.330155,215.418523 304.996017,207.090292 C297.302966,199.402695 296.707112,187.301976 303.211342,178.93079 L304.98532,176.920405 L375.189115,106.666 L320,106.666667 C309.059502,106.666667 300.042514,98.4311427 298.810192,87.8212507 L298.666667,85.3333334 C298.666667,74.3928355 306.902191,65.3758473 317.512083,64.143525 L320,64.0000001 L426.683101,64.0000063 C426.796428,64.0000928 426.909754,64.0010767 427.023068,64.002958 Z" id="Combined-Shape" fill="#000000" fill-rule="nonzero"></path>
    </g>
</svg>
