<svg xmlns="http://www.w3.org/2000/svg" viewBox="0 0 512 512">
<path d="M85.3333 213.333C97.1154 213.333 106.667 203.782 106.667 192V136.837L188.34 218.51C196.671 226.841 210.178 226.841 218.51 218.51C226.841 210.178 226.841 196.671 218.51 188.34L136.837 106.667H192C203.782 106.667 213.333 97.1154 213.333 85.3333C213.333 73.5513 203.782 64 192 64H85.3333C73.5512 64 64 73.5513 64 85.3333V192C64 203.782 73.5513 213.333 85.3333 213.333Z" fill="black"/>
<path d="M85.3333 298.667C97.1154 298.667 106.667 308.218 106.667 320V375.163L188.34 293.49C196.671 285.159 210.178 285.159 218.51 293.49C226.841 301.822 226.841 315.329 218.51 323.66L136.837 405.333H192C203.782 405.333 213.333 414.885 213.333 426.667C213.333 438.449 203.782 448 192 448H85.3333C73.5512 448 64 438.449 64 426.667V320C64 308.218 73.5513 298.667 85.3333 298.667Z" fill="black"/>
<path d="M405.334 192C405.334 203.782 414.885 213.333 426.667 213.333C438.449 213.333 448 203.782 448 192V85.3333C448 73.5513 438.449 64 426.667 64H320C308.218 64 298.667 73.5513 298.667 85.3333C298.667 97.1154 308.218 106.667 320 106.667H375.164L293.491 188.34C285.16 196.671 285.16 210.178 293.491 218.51C301.822 226.841 315.33 226.841 323.661 218.51L405.334 136.837V192Z" fill="black"/>
<path d="M426.667 298.667C414.885 298.667 405.334 308.218 405.334 320V375.163L323.661 293.49C315.33 285.159 301.822 285.159 293.491 293.49C285.16 301.822 285.16 315.329 293.491 323.66L375.164 405.333H320C308.218 405.333 298.667 414.885 298.667 426.667C298.667 438.449 308.218 448 320 448H426.667C438.449 448 448 438.449 448 426.667V320C448 308.218 438.449 298.667 426.667 298.667Z" fill="black"/>
</svg>
