<svg xmlns="http://www.w3.org/2000/svg" viewBox="0 0 512 512">
<path fill-rule="evenodd" clip-rule="evenodd" d="M277.333 192H234.667V309.333H85.3333V256C85.3333 220.654 113.987 192 149.333 192H181.333C140.096 192 106.667 158.571 106.667 117.333C106.667 76.0962 140.096 42.6667 181.333 42.6667C222.571 42.6667 256 76.0962 256 117.333C256 76.0962 289.429 42.6667 330.667 42.6667C371.904 42.6667 405.333 76.0962 405.333 117.333C405.333 158.571 371.904 192 330.667 192H362.667C398.013 192 426.667 220.654 426.667 256V309.333H277.333V192ZM341.333 147.513C353.762 143.12 362.667 131.266 362.667 117.333C362.667 99.6603 348.34 85.3334 330.667 85.3334C316.734 85.3334 304.88 94.238 300.488 106.667C299.308 110.003 298.667 113.593 298.667 117.333V149.333H330.667C334.407 149.333 337.997 148.692 341.333 147.513ZM149.333 117.333C149.333 131.266 158.238 143.12 170.667 147.513C174.003 148.692 177.593 149.333 181.333 149.333H213.333V117.333C213.333 113.593 212.692 110.003 211.512 106.667C207.12 94.238 195.266 85.3334 181.333 85.3334C163.66 85.3334 149.333 99.6603 149.333 117.333Z" fill="black"/>
<path d="M426.667 352H277.333V469.333H362.667C398.013 469.333 426.667 440.68 426.667 405.333V352Z" fill="black"/>
<path d="M234.667 469.333V352H85.3333V405.333C85.3333 440.68 113.987 469.333 149.333 469.333H234.667Z" fill="black"/>
</svg>
