<svg
  width="512"
  height="512"
  viewBox="0 0 512 512"
  xmlns="http://www.w3.org/2000/svg"
>
  <path
    d="M391.846 126.581C389.163 129.237 384.87 127.979 383.797 124.344L362.87 49.1248C361.797 45.3498 365.15 41.8545 368.772 42.8332L444.431 64.2246C448.053 65.2032 449.261 70.0967 446.444 72.7531L391.846 126.581Z"
  />
  <path
    d="M99.9879 147.566L146.941 100.613C149.311 98.2433 149.311 94.3923 146.941 92.0224L99.9879 45.2175C97.618 42.8476 93.7669 42.8476 91.3971 45.2175L44.4441 92.0224C42.0742 94.3923 42.0742 98.2433 44.4441 100.613L91.3971 147.566C93.6188 149.936 97.618 149.936 99.9879 147.566Z"
  />
  <path
    d="M386.005 417.72C386.116 417.758 386.227 417.795 386.301 417.869C397.854 422.46 405.26 434.606 403.038 447.196C400.52 459.786 389.707 468.525 377.414 468.673C301.874 471.783 221.002 465.71 162.941 410.907C72.7375 325.888 78.0697 216.726 141.316 149.629C199.377 88.1607 300.689 84.0134 364.528 144.149C425.996 202.211 430.736 287.674 380.969 340.404C369.564 352.549 356.677 360.844 349.568 364.843C335.645 372.693 329.424 403.649 379.339 415.795C379.339 415.795 380.672 416.239 381.561 416.387C382.894 416.684 384.375 417.128 385.708 417.572C385.782 417.646 385.893 417.683 386.005 417.72Z"
  />
  <path
    d="M467.173 373.144C467.173 388.277 454.905 400.545 439.771 400.545C424.638 400.545 412.37 388.277 412.37 373.144C412.37 358.01 424.638 345.742 439.771 345.742C454.905 345.742 467.173 358.01 467.173 373.144Z"
  />
</svg>
