<svg xmlns="http://www.w3.org/2000/svg" viewBox="0 0 512 512">
<path d="M379.86 139.523C377.433 141.914 373.55 140.781 372.58 137.51L353.649 69.8123C352.679 66.4148 355.712 63.2691 358.989 64.1499L427.428 83.4021C430.705 84.2829 431.797 88.687 429.249 91.0778L379.86 139.523Z" fill="black"/>
<path d="M115.852 158.41L158.324 116.152C160.468 114.019 160.468 110.553 158.324 108.42L115.852 66.2958C113.708 64.1629 110.224 64.1629 108.081 66.2958L65.6078 108.42C63.4641 110.553 63.4641 114.019 65.6078 116.152L108.081 158.41C110.09 160.542 113.708 160.542 115.852 158.41Z" fill="black"/>
<path d="M374.577 401.548C374.677 401.582 374.778 401.615 374.845 401.682C385.295 405.814 391.994 416.745 389.985 428.076C387.707 439.407 377.926 447.272 366.806 447.405C298.474 450.205 225.319 444.739 172.797 395.416C91.2015 318.899 96.0249 220.653 153.236 160.266C205.757 104.945 297.402 101.212 355.149 155.334C410.752 207.59 415.04 284.507 370.021 331.963C359.704 342.894 348.048 350.359 341.617 353.958C329.022 361.024 323.395 388.884 368.547 399.815C368.547 399.815 369.753 400.215 370.557 400.349C371.763 400.615 373.103 401.015 374.309 401.415C374.376 401.482 374.476 401.515 374.577 401.548Z" fill="black"/>
<path d="M448 361.429C448 375.049 436.902 386.091 423.213 386.091C409.524 386.091 398.426 375.049 398.426 361.429C398.426 347.809 409.524 336.768 423.213 336.768C436.902 336.768 448 347.809 448 361.429Z" fill="black"/>
</svg>
