<svg viewBox="0 0 512 512" xmlns="http://www.w3.org/2000/svg">
<path fill-rule="evenodd" clip-rule="evenodd" d="M256 42.667C373.821 42.667 469.333 138.18 469.333 256C469.333 373.821 373.821 469.334 256 469.334C138.179 469.334 42.6665 373.821 42.6665 256C42.6665 138.18 138.179 42.667 256 42.667ZM256 426.667C260.588 426.667 276.227 421.839 293.262 387.769C299.802 374.689 305.519 359.025 309.969 341.334H202.031C206.481 359.025 212.198 374.689 218.737 387.769C235.772 421.839 251.412 426.667 256 426.667ZM194.378 298.667H317.622C319.164 285.102 320 270.825 320 256C320 241.175 319.164 226.898 317.622 213.334H194.378C192.836 226.898 192 241.175 192 256C192 270.825 192.836 285.102 194.378 298.667ZM202.031 170.667C206.481 152.976 212.198 137.312 218.737 124.232C235.772 90.1619 251.412 85.3337 256 85.3337C260.588 85.3337 276.227 90.1619 293.262 124.232C299.802 137.312 305.519 152.976 309.969 170.667H202.031ZM360.533 213.334C361.932 227.12 362.666 241.388 362.666 256C362.666 270.612 361.932 284.881 360.533 298.667H421.29C424.8 285.03 426.666 270.733 426.666 256C426.666 241.268 424.8 226.971 421.29 213.334H360.533ZM403.834 170.667H353.791C348.121 144.712 339.943 121.45 329.871 102.105C360.879 117.017 386.687 141.024 403.834 170.667ZM158.209 170.667H108.165C125.313 141.024 151.121 117.017 182.129 102.105C172.056 121.45 163.879 144.712 158.209 170.667ZM90.7099 213.334H151.467C150.068 227.12 149.333 241.388 149.333 256C149.333 270.612 150.068 284.881 151.467 298.667H90.7099C87.2 285.03 85.3332 270.733 85.3332 256C85.3332 241.268 87.2 226.971 90.7099 213.334ZM329.871 409.895C339.943 390.551 348.121 367.288 353.791 341.334H403.834C386.687 370.977 360.879 394.984 329.871 409.895ZM182.129 409.895C151.121 394.984 125.313 370.977 108.165 341.334H158.209C163.879 367.288 172.056 390.551 182.129 409.895Z" fill="black"/>
</svg>
