<svg xmlns="http://www.w3.org/2000/svg" viewBox="0 0 512 512"><title>globe</title><path d="M256 64a192 192 0 1 0 0 384 192 192 0 0 0 0-384Zm148 171h-66c-1-40-10-80-25-117a149 149 0 0 1 91 117ZM258 403l-2 2-2-2c-7-8-13-17-17-27-12-32-19-65-20-99h78c-1 34-8 67-20 98-4 10-10 19-17 28Zm-41-168c1-34 8-67 20-98 4-10 10-19 17-28l2-2 2 2c7 8 13 17 17 27 12 32 19 65 20 99h-78Zm-18-117c-15 37-24 77-25 117h-66a149 149 0 0 1 91-117Zm-91 159h66c1 40 10 80 25 117a149 149 0 0 1-91-117Zm205 117c15-37 24-77 25-117h66a149 149 0 0 1-91 117Z" /></svg>
