<svg xmlns="http://www.w3.org/2000/svg" viewBox="0 0 512 512">
<path fill-rule="evenodd" clip-rule="evenodd" d="M256 42.6667C373.821 42.6667 469.334 138.179 469.334 256C469.334 373.821 373.821 469.333 256 469.333C138.18 469.333 42.667 373.821 42.667 256C42.667 138.179 138.18 42.6667 256 42.6667ZM256 426.667C270.471 426.667 290.862 416.667 309.924 384.898C317.338 372.54 323.843 357.859 328.981 341.333H183.02C188.158 357.859 194.663 372.54 202.077 384.898C221.139 416.667 241.529 426.667 256 426.667ZM173.587 298.667H338.414C340.306 285.12 341.334 270.841 341.334 256C341.334 241.159 340.306 226.88 338.414 213.333H173.587C171.694 226.88 170.667 241.159 170.667 256C170.667 270.841 171.694 285.12 173.587 298.667ZM183.02 170.667C188.158 154.141 194.663 139.46 202.077 127.102C221.139 95.3328 241.529 85.3334 256 85.3334C270.471 85.3334 290.862 95.3328 309.924 127.102C317.338 139.46 323.843 154.141 328.981 170.667H183.02ZM381.44 213.333C383.119 227.119 384 241.388 384 256C384 270.612 383.119 284.881 381.44 298.667H421.29C424.8 285.03 426.667 270.733 426.667 256C426.667 241.267 424.8 226.971 421.29 213.333H381.44ZM403.835 170.667H373.35C367.981 150.189 360.74 131.388 351.987 114.864C373.18 129.305 390.951 148.395 403.835 170.667ZM138.651 170.667H108.166C121.049 148.395 138.821 129.305 160.014 114.864C151.26 131.388 144.019 150.189 138.651 170.667ZM90.7104 213.333H130.561C128.882 227.119 128 241.388 128 256C128 270.612 128.882 284.881 130.561 298.667H90.7104C87.2005 285.03 85.3337 270.733 85.3337 256C85.3337 241.267 87.2005 226.971 90.7104 213.333ZM351.987 397.136C360.74 380.612 367.981 361.811 373.35 341.333H403.835C390.951 363.605 373.18 382.695 351.987 397.136ZM160.014 397.136C138.821 382.695 121.049 363.605 108.166 341.333H138.651C144.019 361.811 151.261 380.612 160.014 397.136Z" fill="black"/>
</svg>
