<svg data-fixedcolors="true" xmlns="http://www.w3.org/2000/svg" viewBox="0 0 512 512" aria-label="google">
  <g>
    <path d="M445.63,260.39a225,225,0,0,0-3.34-38.86H259.84v73.59h104.5a88.38,88.38,0,0,1-38.64,58.07V401h62.37C424.59,367.71,445.63,318.53,445.63,260.39Z" fill="#4285f4"/>
    <path d="M259.83,447.09C312,447.09,356,430.16,388.06,401L325.69,353.2c-17.35,11.62-39.71,18.26-65.86,18.26-50.46,0-93.29-33.6-108.61-78.88H87v49.23C119.81,406.35,186.7,447.09,259.83,447.09Z" fill="#34a853"/>
    <path d="M151.22,292.59a113.24,113.24,0,0,1,0-73.14V170.22H87a189,189,0,0,0,0,171.59Z" fill="#fbbc04"/>
    <path d="M259.83,140.57a105.78,105.78,0,0,1,74.22,28.66l55.22-54.53A187.11,187.11,0,0,0,259.83,64.94c-73.13,0-140,40.73-172.86,105.27l64.25,49.23C166.54,174.17,209.37,140.57,259.83,140.57Z" fill="#ea4335"/>
  </g>
</svg>
