<svg viewBox="0 0 512 512" xmlns="http://www.w3.org/2000/svg">
<path d="M164.347 164C156.015 172.332 142.508 172.332 134.177 164L128.01 158.174V341.333C128.01 364.897 147.112 384 170.676 384H353.83L346.362 377.356C338.031 369.025 338.031 355.518 346.362 347.186C354.693 338.855 368.201 338.855 376.532 347.186L420.168 389.998C428.499 398.33 428.499 411.837 420.168 420.168L376.532 463.062C368.201 471.393 354.693 471.393 346.362 463.062C338.031 454.731 338.031 441.223 346.362 432.892L353.331 426.666H170.676C123.548 426.666 85.343 388.461 85.343 341.333V158.165L79.1087 164C70.7775 172.332 57.27 172.332 48.9388 164C40.6076 155.669 40.6076 142.162 48.9388 133.83L91.5866 91.5814C99.9177 83.2502 113.425 83.2502 121.756 91.5814L164.347 133.83C172.678 142.162 172.678 155.669 164.347 164Z" fill="black"/>
<path d="M437.572 110.046C447.675 116.107 450.951 129.212 444.889 139.315L381.231 245.64C377.375 252.066 370.431 255.997 362.938 255.997H286.441L207.356 335.082C199.025 343.413 185.517 343.413 177.186 335.082C168.855 326.751 168.855 313.244 177.186 304.912L262.519 219.579C266.52 215.578 271.946 213.331 277.604 213.331H350.859L408.303 117.363C414.365 107.26 427.469 103.984 437.572 110.046Z" fill="black"/>
</svg>
