<svg xmlns="http://www.w3.org/2000/svg" viewBox="0 0 512 512">
<path d="M139.425 167.007C147.756 175.338 161.263 175.338 169.595 167.007C177.926 158.675 177.926 145.168 169.595 136.837L124.34 91.5819C116.009 83.2507 102.501 83.2507 94.1698 91.5819L48.915 136.837C40.5838 145.168 40.5838 158.675 48.915 167.007C57.2462 175.338 70.7537 175.338 79.0849 167.007L85.331 160.76V336.155C85.331 383.284 123.536 421.489 170.664 421.489H356.416L344.991 432.914C336.659 441.245 336.659 454.752 344.991 463.084C353.322 471.415 366.829 471.415 375.16 463.084L420.415 417.829C428.746 409.497 428.746 395.99 420.415 387.659L375.16 342.404C366.829 334.073 353.322 334.073 344.991 342.404C336.659 350.735 336.659 364.243 344.991 372.574L351.239 378.822H170.664C147.1 378.822 127.998 359.719 127.998 336.155V155.58L139.425 167.007Z" fill="black"/>
<path d="M444.898 139.315C450.96 129.212 447.684 116.108 437.581 110.046C427.478 103.984 414.374 107.26 408.312 117.364L350.868 213.331H277.613C271.956 213.331 266.529 215.579 262.529 219.58L177.195 304.913C168.864 313.244 168.864 326.752 177.195 335.083C185.526 343.414 199.034 343.414 207.365 335.083L286.45 255.998H362.947C370.44 255.998 377.385 252.066 381.24 245.64L444.898 139.315Z" fill="black"/>
</svg>
