<svg xmlns="http://www.w3.org/2000/svg" viewBox="0 0 512 512">
<path fill-rule="evenodd" clip-rule="evenodd" d="M345.109 395.447C345.109 412.689 330.767 426.667 313.076 426.667C295.384 426.667 281.042 412.689 281.042 395.447V209.864C281.042 149.16 334.431 128 375.719 128C435.871 128 463.99 154.016 463.99 192.173C463.99 216.802 443.702 238.656 413.448 243.512C439.786 246.287 469.329 265.713 469.329 305.604C469.329 338.905 435.159 367.003 400.634 367.003C376.075 367.003 359.702 361.106 345.109 345.149V395.447ZM345.109 300.748C353.296 308.033 363.262 311.848 377.499 311.848C394.583 311.848 403.838 303.523 403.838 292.77C403.838 282.71 395.651 274.385 377.499 274.385H361.838V218.883H375.363C392.092 218.883 398.143 210.905 398.143 201.192C398.143 190.092 389.6 183.501 375.719 183.501C356.143 183.501 345.109 195.295 345.109 209.864V300.748Z" fill="black"/>
<path fill-rule="evenodd" clip-rule="evenodd" d="M228.427 363.837C212.778 363.837 198.959 353.63 194.357 338.673L193.981 337.45H112.792L112.415 338.673C107.813 353.63 93.994 363.837 78.345 363.837C53.5386 363.837 36.3169 339.129 44.9006 315.855L95.5571 178.506C104.49 154.286 127.571 138.198 153.386 138.198C179.202 138.198 202.282 154.286 211.215 178.507L261.872 315.855C270.456 339.129 253.234 363.837 228.427 363.837ZM153.386 205.179L131.059 277.911H175.713L153.386 205.179Z" fill="black"/>
</svg>
