<svg xmlns="http://www.w3.org/2000/svg" viewBox="0 0 512 512">
  <title>greek</title>
  <path fill-rule="nonzero" d="M447.421076 170.1537027c14.60733 14.8189509 22.564709 35.5603903 21.870707 57.0074584.762868 25.4084719-11.216781 49.3398029-31.471296 62.8691159-7.329011 5.121279-9.43131 15.546044-4.720694 23.408714l22.659333 45.814196c2.671242 5.187585 2.565156 11.488611-.279002 16.571349-2.844158 5.082737-8.003343 8.19117-13.568369 8.175068h-28.324166c-6.017234.012733-11.514506-3.621875-14.162083-9.363548 0 0-21.40048-44.476555-27.380027-57.852963-5.979546-13.376408-34.303712-15.717279-34.303712 0v49.492708c0 9.234483-7.045089 16.72051-15.735648 16.72051h-23.603471c-8.690559 0-15.735648-7.486027-15.735648-16.72051V165.6296856c.33802-8.97229101 7.285077-16.05887563 15.735648-16.05168929h94.413886c20.130043-1.72945375 39.997211 5.7567556 54.604542 20.57570639zM160.06402 149.55541305c31.795611-1.10176596 62.249676 13.34814215 82.2734 39.03725375 2.808412 3.8039596 3.842932 8.7089778 2.823004 13.3848428-1.019927 4.675865-3.988596 8.637965-8.100921 10.811802l-19.24887 9.678658c-6.333093 3.2691314-13.99199 1.6773754-18.62794-3.8714632-15.552065-18.3501395-41.04586-23.5160802-62.0931324-12.5822553-21.8710541 10.7983729-35.9508889 33.5579087-36.3244823 58.7171919-.5952344 17.014293 5.5399937 33.539778 16.9776788 45.730062 11.4376851 12.190284 27.1801029 18.981994 43.5631249 18.794324 14.589923.731812 29.091747-2.728625 41.912864-10.00128 5.277917-6.129817 5.277917-21.293047 0-22.260913h-36.324482c-8.693038 0-15.523283-2.258354-15.523283-11.291768v-18.712072c0-8.908959 6.950011-16.131096 15.523283-16.131096h73.580362c8.573272 0 15.523283 7.222137 15.523283 16.131096v64.847008c.072613 4.313918-1.488305 8.484866-4.346519 11.61439-23.78869 26.115654-56.984644 40.732493-91.58737 40.327741-30.7494134 1.982526-60.899636-9.461785-83.1798115-31.573088-22.2801756-22.111302-34.66804097-52.882661-34.1762088-84.893429-.8444785-32.2326743 11.3887253-63.3496727 33.7104855-85.7477024 22.3217601-22.39802966 52.6759024-34.01389095 83.6455348-32.00930255zm225.265804 52.26969055h-31.959952c-9.592931 0-17.369539 7.6798382-17.369539 17.1533986v17.1533986c0 9.4735604 7.776608 17.1533982 17.369539 17.1533982h31.959952c10.323699 1.670415 20.672394-2.836421 26.385603-11.4908775 5.713208-8.6544564 5.713208-19.8239837 0-28.4784401-5.713209-8.6544564-16.061904-13.1612929-26.385603-11.4908778z"/>
</svg>
