<svg xmlns="http://www.w3.org/2000/svg" viewBox="0 0 512 512">
  <title>
    greek
  </title>
  <path fill-rule="nonzero" d="M448 85.3333333c11.664254 0 21.142085 9.3602459 21.330475 20.9784347l.002858.35275v234.643035c0 11.663079-9.361188 21.139956-20.980547 21.328327L448 362.638738H149.333333L60.8 450.949844c-3.04747 2.987642-7.5826263 3.871349-11.5290502 2.246514-3.8546466-1.587047-6.4227734-5.268878-6.5959979-9.415475l-.0082852-.296954V106.664518c0-11.663079 9.3611886-21.1399557 20.9805476-21.3283269L64 85.3333333h384zM149.243819 164.944758c-15.338172 14.809177-23.744094 35.38318-23.163819 56.694847-.337957 21.164948 8.174239 41.510419 23.483836 56.130017 15.309596 14.619598 36.027016 22.186371 57.156164 20.875561 23.776913.267615 46.587176-9.396778 62.933333-26.663981 1.885434-1.986418 2.949331-4.607423 2.987281-7.337444L272.64 221.426293c0-5.795436-4.622819-10.511265-10.382502-10.661881l-.284165-.003711h-50.56c-5.79602 0-10.512324 4.622354-10.662955 10.381457l-.003711.284135v12.372088c0 5.874818 4.540715 7.415754 10.373943 7.464697l.292723.001217h24.96c3.626667.639936 3.626667 10.665593 0 14.718518-8.8099 4.80855-18.774682 7.096528-28.8 6.612667-11.257428.124084-22.07467-4.366472-29.93396-12.42647-7.859289-8.059998-12.075049-18.986353-11.66604-30.2359.256711-16.634867 9.931527-31.683065 24.96-38.822756 14.462421-7.22925 31.980224-3.813622 42.666667 8.319162 3.117769 3.590733 8.225274 4.675264 12.521022 2.693351l.278978-.133609 13.226667-6.399355c2.825742-1.437302 4.865632-4.056972 5.566465-7.14857.700833-3.091599-.010027-6.334709-1.939799-8.849819-13.759098-16.985181-34.685301-26.539202-56.533333-25.810734-21.280469-1.325398-42.13801 6.354802-57.476181 21.163978zm221.759847-15.503077l-.586999.044463h-61.5c-5.411296-.004407-9.876139 4.267034-10.235111 9.728313l-.014889.283525V284.64596c0 5.66378 4.437386 10.273054 9.967863 10.425124l.282137.003874h15.375c5.56657 0 10.096733-4.514878 10.246192-10.141935l.003808-.287063v-30.869835c0-9.803258 18.45-8.343198 22.345 0 3.895 8.343199 17.835 36.084334 17.835 36.084334 1.679213 3.486981 5.118269 5.727994 8.916293 5.836196l.308707.004082h18.45c3.624986.010043 6.985613-1.928764 8.838261-5.098994 1.794753-3.07116 1.915691-6.855447.339566-10.030632l-.157827-.30533-14.76-28.575455c-3.068435-4.904144-1.699024-11.406329 3.075-14.600598 13.193532-8.438569 20.996923-23.365136 20.5-39.213033.452064-13.37707-4.731271-26.314022-14.246299-35.556971-9.373014-9.104994-22.070707-13.771882-34.981702-12.878043zm-6.326999 33.417257c6.092154-1.015587 12.199059 1.7245 15.570501 6.986274 3.371441 5.261774 3.371441 12.052672 0 17.314446-3.371442 5.261774-9.478347 8.00186-15.570501 6.986274h-18.86c-5.660919 0-10.25-4.669221-10.25-10.428998v-10.428998c0-5.759777 4.589081-10.428998 10.25-10.428998z"/>
</svg>
