<svg xmlns="http://www.w3.org/2000/svg" viewBox="0 0 512 512">
<path d="M96 64C78.3269 64 64 78.3269 64 96V138.667C64 156.34 78.3269 170.667 96 170.667C113.673 170.667 128 156.34 128 138.667V128H160L160 384H138.667C120.994 384 106.667 398.327 106.667 416C106.667 433.673 120.994 448 138.667 448H245.333C263.006 448 277.333 433.673 277.333 416C277.333 398.327 263.006 384 245.333 384H224L224 128H256V138.667C256 156.34 270.327 170.667 288 170.667C305.673 170.667 320 156.34 320 138.667V96C320 78.3269 305.673 64 288 64H96Z" fill="black"/>
<path d="M277.333 288C277.333 270.327 291.66 256 309.333 256H416C433.673 256 448 270.327 448 288C448 305.673 433.673 320 416 320H394.667V416C394.667 433.673 380.34 448 362.667 448C344.994 448 330.667 433.673 330.667 416V320H309.333C291.66 320 277.333 305.673 277.333 288Z" fill="black"/>
</svg>
