<svg viewBox="0 0 512 512" xmlns="http://www.w3.org/2000/svg">
  <title>heart outlined</title>
  <path d="M403.010091,104.490882 C430.167882,123.574595 446.795495,154.297117 447.920107,187.470259 C450.426699,257.402687 393.273398,314.397765 303.936702,396.490239 L281.900046,416.668536 C267.267209,430.061742 244.813947,429.979098 230.280027,416.488537 L195.212188,384.394142 C113.320852,308.808499 61.8529196,254.000213 64.0599658,187.470259 C65.1868994,154.295323 81.8184018,123.572456 108.979982,104.490882 C156.165601,72.7383446 219.739274,81.9363676 255.990036,125.760722 C292.192762,81.8432945 355.844773,72.6345637 403.010091,104.490882 Z M133.506738,139.403383 C117.298838,150.789769 107.374498,169.122699 106.703175,188.884893 L106.661884,193.861613 C107.36937,234.265469 134.273667,269.619563 231.612558,359.795437 L256.170667,382.357333 L279.765507,360.685974 C346.000546,299.404384 372.311543,271.559998 389.034679,243.200711 L393.192538,235.782061 C402.027043,219.193721 405.828753,204.285535 405.277938,188.915883 C404.654795,170.534796 396.055075,153.414564 381.854581,141.944997 L378.837333,139.669333 L375.609189,137.623166 C348.277445,121.487814 313.295586,126.548745 291.657631,149.768642 L288.912688,152.900056 L256.046748,192.76964 L223.113369,152.955744 C200.84343,126.033118 161.788043,120.382472 133.506738,139.403383 Z"></path>
</svg>
