<svg xmlns="http://www.w3.org/2000/svg" viewBox="0 0 512 512">
  <title>
    hide
  </title>
  <path d="M112.084621,89.3799294 L428.868459,406.163767 C437.199644,414.494952 437.199644,428.002472 428.868459,436.333657 L427.497101,437.705015 C419.165916,446.0362 405.658396,446.0362 397.327211,437.705015 L345.178704,385.556155 C317.558118,397.70748 287.358591,404.631177 256,405.333333 C161.254754,403.211127 77.0902671,344.295986 42.6666667,256 C58.2456285,216.040211 84.0123329,182.098098 116.336913,156.714566 L80.5433734,120.921177 C72.2121885,112.589992 72.2121885,99.0824729 80.5433734,90.751288 L81.914732,89.3799294 C90.2459169,81.0487445 103.753436,81.0487445 112.084621,89.3799294 Z M170.666667,256 C170.666667,303.128299 208.871701,341.333333 256,341.333333 C268.809911,341.333333 281.322857,338.45305 292.672997,333.051126 L267.673574,308.051885 C263.916527,308.890792 260.009944,309.333333 256,309.333333 C226.544813,309.333333 202.666667,285.455187 202.666667,256 C202.666667,251.989779 203.109269,248.082934 203.948289,244.325648 L178.933973,219.312134 C173.633674,230.425964 170.666667,242.866491 170.666667,256 Z M256,106.666667 C350.745489,108.788131 434.910347,167.703531 469.333333,256 C457.023751,287.574617 438.353371,315.392097 415.112965,338.198897 L340.95397,264.040111 C341.205765,261.378607 341.333333,258.69588 341.333333,256 C341.333333,208.871701 303.128299,170.666667 256,170.666667 C253.286883,170.666667 250.603339,170.793284 247.954956,171.040933 L193.505256,116.590878 C213.484004,110.564256 234.468784,107.148946 256,106.666667 Z"></path>
</svg>
