<svg xmlns="http://www.w3.org/2000/svg" viewBox="0 0 512 512">
<path d="M321.562 81.0338C338.502 66.5192 363.761 67.4917 379.535 83.2659L435.494 139.225C451.293 155.024 452.24 180.331 437.667 197.267L280.195 379.259C276.144 383.966 268.946 384.236 264.555 379.845L138.726 254.015C134.328 249.618 134.606 242.408 139.328 238.361L321.562 81.0338Z" fill="black"/>
<path d="M172.088 413.665L144.512 441.241L64 400.985L106.078 358.907L100.785 300.685C99.8813 290.742 111.904 285.111 118.964 292.171L226.447 399.654C233.506 406.713 227.875 418.736 217.932 417.832L172.088 413.665Z" fill="black"/>
</svg>
