<svg xmlns="http://www.w3.org/2000/svg" viewBox="0 0 512 512">
<path d="M64 149.333C64 102.205 102.205 64 149.333 64H170.667C182.449 64 192 73.5513 192 85.3333C192 97.1154 182.449 106.667 170.667 106.667H149.333C125.769 106.667 106.667 125.769 106.667 149.333V170.667C106.667 182.449 97.1154 192 85.3333 192C73.5513 192 64 182.449 64 170.667V149.333Z" fill="black"/>
<path d="M320 85.3333C320 73.5513 329.551 64 341.333 64H362.667C409.795 64 448 102.205 448 149.333V170.667C448 182.449 438.449 192 426.667 192C414.885 192 405.333 182.449 405.333 170.667V149.333C405.333 125.769 386.231 106.667 362.667 106.667H341.333C329.551 106.667 320 97.1154 320 85.3333Z" fill="black"/>
<path d="M85.3333 320C97.1154 320 106.667 329.551 106.667 341.333V362.667C106.667 386.231 125.769 405.333 149.333 405.333H170.667C182.449 405.333 192 414.885 192 426.667C192 438.449 182.449 448 170.667 448H149.333C102.205 448 64 409.795 64 362.667V341.333C64 329.551 73.5513 320 85.3333 320Z" fill="black"/>
<path d="M426.667 320C438.449 320 448 329.551 448 341.333V362.667C448 409.795 409.795 448 362.667 448H341.333C329.551 448 320 438.449 320 426.667C320 414.885 329.551 405.333 341.333 405.333H362.667C386.231 405.333 405.333 386.231 405.333 362.667V341.333C405.333 329.551 414.885 320 426.667 320Z" fill="black"/>
<path fill-rule="evenodd" clip-rule="evenodd" d="M234.667 221.333C234.667 212.3 242.9 202.667 256 202.667C269.1 202.667 277.333 212.3 277.333 221.333C277.333 227.643 273.611 233.906 266.764 237.44C254.79 243.621 234.667 258.132 234.667 282.667V288C234.667 299.782 244.218 309.333 256 309.333C267.782 309.333 277.333 299.782 277.333 288V282.792C277.414 282.57 277.683 282.021 278.472 281.109C280.036 279.305 282.744 277.207 286.335 275.354C305.856 265.277 320 245.238 320 221.333C320 186.184 290.028 160 256 160C221.972 160 192 186.184 192 221.333C192 233.115 201.551 242.667 213.333 242.667C225.115 242.667 234.667 233.115 234.667 221.333Z" fill="black"/>
<path d="M256 373.333C267.782 373.333 277.333 363.782 277.333 352C277.333 340.218 267.782 330.667 256 330.667C244.218 330.667 234.667 340.218 234.667 352C234.667 363.782 244.218 373.333 256 373.333Z" fill="black"/>
</svg>
