<svg xmlns="http://www.w3.org/2000/svg" viewBox="0 0 512 512">
<path fill-rule="evenodd" clip-rule="evenodd" d="M64 149.333C64 102.205 102.205 64 149.333 64H362.667C409.795 64 448 102.205 448 149.333V362.667C448 409.795 409.795 448 362.667 448H149.333C102.205 448 64 409.795 64 362.667V149.333ZM356.092 318.345L379.733 349.867C390.281 363.93 380.246 384 362.667 384H143.966C127.467 384 117.213 366.072 125.578 351.85L195.358 233.225C203.511 219.364 223.486 219.165 231.914 232.861L298.667 341.333L323.94 316.06C333.12 306.88 348.302 307.959 356.092 318.345ZM320 234.667C343.564 234.667 362.667 215.564 362.667 192C362.667 168.436 343.564 149.333 320 149.333C296.436 149.333 277.333 168.436 277.333 192C277.333 215.564 296.436 234.667 320 234.667Z" fill="black"/>
</svg>
