<svg xmlns="http://www.w3.org/2000/svg" viewBox="0 0 512 512">
<path d="M64 149.333C64 102.205 102.205 64 149.333 64H277.333C308.919 64 336.496 81.1605 351.251 106.667H234.667C163.974 106.667 106.667 163.974 106.667 234.667V351.251C81.1605 336.496 64 308.919 64 277.333V149.333Z" fill="black"/>
<path fill-rule="evenodd" clip-rule="evenodd" d="M234.667 149.333C187.538 149.333 149.333 187.538 149.333 234.667V362.667C149.333 409.795 187.538 448 234.667 448H362.667C409.795 448 448 409.795 448 362.667V234.667C448 187.538 409.795 149.333 362.667 149.333H234.667ZM374.316 343.13L379.355 349.77C390.017 363.818 379.997 384 362.361 384H229.525C212.976 384 202.729 365.975 211.193 351.755L250.27 286.107C258.445 272.373 278.262 272.174 286.711 285.741L329.143 353.882L342.327 340.853C351.49 331.798 366.528 332.868 374.316 343.13ZM352 277.333C369.673 277.333 384 263.006 384 245.333C384 227.66 369.673 213.333 352 213.333C334.327 213.333 320 227.66 320 245.333C320 263.006 334.327 277.333 352 277.333Z" fill="black"/>
</svg>
