<svg viewBox="0 0 512 512" xmlns="http://www.w3.org/2000/svg">
<path fill-rule="evenodd" clip-rule="evenodd" d="M202.667 66C202.667 64.8954 203.562 64 204.667 64H307.333C308.438 64 309.333 64.8954 309.333 66V446C309.333 447.105 308.438 448 307.333 448H204.667C203.562 448 202.667 447.105 202.667 446V66ZM64 172.667C64 171.562 64.8954 170.667 66 170.667H168.667C169.771 170.667 170.667 171.562 170.667 172.667V446C170.667 447.105 169.771 448 168.667 448H66C64.8954 448 64 447.105 64 446V172.667ZM343.333 256C342.229 256 341.333 256.895 341.333 258V446C341.333 447.105 342.229 448 343.333 448H446C447.105 448 448 447.105 448 446V258C448 256.895 447.105 256 446 256H343.333Z" fill="black"/>
</svg>
