<svg viewBox="0 0 512 512" xmlns="http://www.w3.org/2000/svg">
<path d="M202.667 106.667C202.667 83.1025 221.769 64 245.333 64H266.667C290.231 64 309.333 83.1025 309.333 106.667V405.333C309.333 428.898 290.231 448 266.667 448H245.333C221.769 448 202.667 428.898 202.667 405.333V106.667Z" fill="black"/>
<path d="M64 213.333C64 189.769 83.1025 170.667 106.667 170.667H128C151.564 170.667 170.667 189.769 170.667 213.333V405.333C170.667 428.898 151.564 448 128 448H106.667C83.1025 448 64 428.897 64 405.333V213.333Z" fill="black"/>
<path d="M384 256C360.436 256 341.333 275.103 341.333 298.667V405.333C341.333 428.898 360.436 448 384 448H405.333C428.898 448 448 428.898 448 405.333V298.667C448 275.103 428.898 256 405.333 256H384Z" fill="black"/>
</svg>
