<svg xmlns="http://www.w3.org/2000/svg" viewBox="0 0 512 512">
<path fill-rule="evenodd" clip-rule="evenodd" d="M256 469.333C373.821 469.333 469.333 373.821 469.333 256C469.333 138.179 373.821 42.6667 256 42.6667C138.179 42.6667 42.6665 138.179 42.6665 256C42.6665 373.821 138.179 469.333 256 469.333ZM213.333 149.333C213.333 125.769 232.436 106.667 256 106.667C279.564 106.667 298.666 125.769 298.666 149.333C298.666 172.898 279.564 192 256 192C232.436 192 213.333 172.898 213.333 149.333ZM288 373.333C288 391.006 273.673 405.333 256 405.333C238.327 405.333 224 391.006 224 373.333L224 266.667C224 248.994 238.327 234.667 256 234.667C273.673 234.667 288 248.994 288 266.667V373.333Z" fill="black"/>
</svg>
