<svg xmlns="http://www.w3.org/2000/svg" viewBox="0 0 512 512">
<path d="M213.334 149.333C213.334 125.769 232.436 106.667 256 106.667C279.564 106.667 298.667 125.769 298.667 149.333C298.667 172.898 279.564 192 256 192C232.436 192 213.334 172.898 213.334 149.333Z" fill="black"/>
<path d="M288 373.333C288 391.006 273.673 405.333 256 405.333C238.327 405.333 224 391.006 224 373.333L224 266.667C224 248.994 238.327 234.667 256 234.667C273.673 234.667 288 248.994 288 266.667V373.333Z" fill="black"/>
<path fill-rule="evenodd" clip-rule="evenodd" d="M469.334 256C469.334 373.821 373.821 469.333 256 469.333C138.18 469.333 42.667 373.821 42.667 256C42.667 138.179 138.18 42.6667 256 42.6667C373.821 42.6667 469.334 138.179 469.334 256ZM426.667 256C426.667 350.257 350.257 426.667 256 426.667C161.744 426.667 85.3337 350.257 85.3337 256C85.3337 161.743 161.744 85.3334 256 85.3334C350.257 85.3334 426.667 161.743 426.667 256Z" fill="black"/>
</svg>
