<svg viewBox="0 0 512 512" xmlns="http://www.w3.org/2000/svg">
<path fill-rule="evenodd" clip-rule="evenodd" d="M256 64C203.9 64 197.3 64.2 176.8 65.2C160.875 65.5134 145.119 68.5226 130.2 74.1C117.395 78.9081 105.792 86.4499 96.2 96.2C86.4474 105.79 78.9052 117.394 74.1 130.2C68.4885 145.113 65.4454 160.87 65.1 176.8C64.2 197.3 64 203.8 64 256C64 308.1 64.2 314.7 65.2 335.2C65.5134 351.125 68.5226 366.881 74.1 381.8C78.9081 394.605 86.4499 406.208 96.2 415.8C105.792 425.55 117.395 433.092 130.2 437.9C145.113 443.512 160.87 446.555 176.8 446.9C197.3 447.8 203.8 448 256 448C308.1 448 314.7 447.8 335.2 446.8C355.6 445.9 369.6 442.7 381.8 437.9C394.605 433.092 406.208 425.55 415.8 415.8C425.548 406.205 433.089 394.603 437.9 381.8C443.512 366.887 446.555 351.13 446.9 335.2C447.8 314.7 448 308.2 448 256C448 203.9 447.8 197.3 446.8 176.8C446.487 160.875 443.477 145.119 437.9 130.2C433.092 117.395 425.55 105.792 415.8 96.2C406.208 86.4499 394.605 78.9081 381.8 74.1C369.6 69.3 355.6 66.1 335.2 65.1C314.7 64.2 308.2 64 256 64ZM381.5 153.5C381.5 161.717 377.116 169.31 370 173.419C362.884 177.527 354.116 177.527 347 173.419C339.884 169.31 335.5 161.717 335.5 153.5C335.5 140.797 345.797 130.5 358.5 130.5C371.203 130.5 381.5 140.797 381.5 153.5ZM256 320C220.654 320 192 291.346 192 256C192 220.654 220.654 192 256 192C291.346 192 320 220.654 320 256C320 291.346 291.346 320 256 320ZM157.4 256C157.4 201.545 201.545 157.4 256 157.4C310.455 157.4 354.6 201.545 354.6 256C354.6 310.455 310.455 354.6 256 354.6C201.545 354.6 157.4 310.455 157.4 256ZM333.6 99.7C313.3 98.8 307.3 98.6 256 98.6C204.7 98.6 198.7 98.7 178.4 99.7C159.7 100.6 149.5 103.7 142.7 106.3C134.385 109.399 126.868 114.319 120.7 120.7C114 127.4 109.8 133.8 106.3 142.8C103.7 149.5 100.6 159.7 99.7 178.4C98.8 198.7 98.6 204.7 98.6 256C98.6 307.3 98.7 313.3 99.7 333.6C100.6 352.3 103.7 362.5 106.3 369.3C109.399 377.615 114.319 385.132 120.7 391.3C127.4 398 133.8 402.2 142.8 405.7C149.5 408.3 159.7 411.4 178.4 412.3C198.7 413.2 204.7 413.4 256 413.4C307.3 413.4 313.3 413.3 333.6 412.3C352.3 411.4 362.5 408.3 369.3 405.7C377.615 402.601 385.132 397.681 391.3 391.3C398 384.6 402.2 378.2 405.7 369.2C408.3 362.5 411.4 352.3 412.3 333.6C413.2 313.3 413.4 307.3 413.4 256C413.4 204.7 413.3 198.7 412.3 178.4C411.4 159.7 408.3 149.5 405.7 142.7C402.601 134.385 397.681 126.868 391.3 120.7C384.6 114 378.2 109.8 369.2 106.3C362.5 103.7 352.3 100.6 333.6 99.7Z" fill="black"/>
</svg>
