<svg xmlns="http://www.w3.org/2000/svg" viewBox="0 0 512 512">
<path d="M234.667 96C234.667 78.3269 248.994 64 266.667 64H416C433.673 64 448 78.3269 448 96C448 113.673 433.673 128 416 128H366.111L224.869 384H245.333C263.006 384 277.333 398.327 277.333 416C277.333 433.673 263.006 448 245.333 448H171.252C170.843 448.008 170.434 448.008 170.024 448H96C78.3269 448 64 433.673 64 416C64 398.327 78.3269 384 96 384H151.775L293.016 128H266.667C248.994 128 234.667 113.673 234.667 96Z" fill="black"/>
</svg>
