<svg xmlns="http://www.w3.org/2000/svg" height="32" width="32" preserveAspectRatio="xMidYMid" xmlns:xlink="http://www.w3.org/1999/xlink" viewBox="0 0 32 32">
<path d="M30.7,10.4H1.3C0.6,10.4,0,11,0,11.7V21c0,0.7,0.6,1.3,1.3,1.3h29.5c0.7,0,1.3-0.6,1.3-1.3v-9.3
	C32,11,31.4,10.4,30.7,10.4z M24.3,13h2.6v2h-2.6V13z M17.9,13h2.6v2h-2.6V13z M17.9,15.7h2.6v2h-2.6V15.7z M14.7,13h2.6v2h-2.6V13z
	 M14.7,15.7h2.6v2h-2.6V15.7z M11.5,13h2.6v2h-2.6V13z M11.5,15.7h2.6v2h-2.6V15.7z M8.3,13h2.6v2H8.3V13z M8.3,15.7h2.6v2H8.3V15.7
	z M1.9,13h2.6v2H1.9V13z M1.9,15.7h2.6v2H1.9V15.7z M7,20.4H1.9v-2H7V20.4z M7.7,17.7H5.1v-2h2.6V17.7z M7.7,15H5.1v-2h2.6V15z
	 M23.7,20.4H8.3v-2h15.4V20.4z M23.7,17.7h-2.6v-2h2.6V17.7z M23.7,15h-2.6v-2h2.6V15z M24.3,15.7h2.6v2h-2.6V15.7z M30.1,20.4H25
	v-2h5.1V20.4z M30.1,17.7h-2.6v-2h2.6V17.7z M30.1,15h-2.6v-2h2.6V15z"/>
</svg>
