<svg xmlns="http://www.w3.org/2000/svg" viewBox="0 0 512 512">
<path fill-rule="evenodd" clip-rule="evenodd" d="M128 106.667C80.8717 106.667 42.6667 144.872 42.6667 192V320C42.6667 367.128 80.8717 405.333 128 405.333H384C431.128 405.333 469.333 367.128 469.333 320V192C469.333 144.872 431.128 106.667 384 106.667H128ZM128 170.667C116.218 170.667 106.667 180.218 106.667 192C106.667 203.782 116.218 213.333 128 213.333C139.782 213.333 149.333 203.782 149.333 192C149.333 180.218 139.782 170.667 128 170.667ZM128 234.666C116.218 234.666 106.667 244.218 106.667 256C106.667 267.782 116.218 277.333 128 277.333C139.782 277.333 149.333 267.782 149.333 256C149.333 244.218 139.782 234.666 128 234.666ZM234.667 192C234.667 180.218 244.218 170.667 256 170.667C267.782 170.667 277.333 180.218 277.333 192C277.333 203.782 267.782 213.333 256 213.333C244.218 213.333 234.667 203.782 234.667 192ZM192 170.667C180.218 170.667 170.667 180.218 170.667 192C170.667 203.782 180.218 213.333 192 213.333C203.782 213.333 213.333 203.782 213.333 192C213.333 180.218 203.782 170.667 192 170.667ZM170.667 256C170.667 244.218 180.218 234.666 192 234.666C203.782 234.666 213.333 244.218 213.333 256C213.333 267.782 203.782 277.333 192 277.333C180.218 277.333 170.667 267.782 170.667 256ZM256 234.666C244.218 234.666 234.667 244.218 234.667 256C234.667 267.782 244.218 277.333 256 277.333C267.782 277.333 277.333 267.782 277.333 256C277.333 244.218 267.782 234.666 256 234.666ZM149.333 341.333C149.333 329.551 158.885 320 170.667 320H341.333C353.115 320 362.667 329.551 362.667 341.333C362.667 353.115 353.115 362.666 341.333 362.666H170.667C158.885 362.666 149.333 353.115 149.333 341.333ZM320 170.667C308.218 170.667 298.667 180.218 298.667 192C298.667 203.782 308.218 213.333 320 213.333C331.782 213.333 341.333 203.782 341.333 192C341.333 180.218 331.782 170.667 320 170.667ZM298.667 256C298.667 244.218 308.218 234.666 320 234.666C331.782 234.666 341.333 244.218 341.333 256C341.333 267.782 331.782 277.333 320 277.333C308.218 277.333 298.667 267.782 298.667 256ZM384 170.667C372.218 170.667 362.667 180.218 362.667 192C362.667 203.782 372.218 213.333 384 213.333C395.782 213.333 405.333 203.782 405.333 192C405.333 180.218 395.782 170.667 384 170.667ZM362.667 256C362.667 244.218 372.218 234.666 384 234.666C395.782 234.666 405.333 244.218 405.333 256C405.333 267.782 395.782 277.333 384 277.333C372.218 277.333 362.667 267.782 362.667 256Z" fill="black"/>
</svg>
