<svg xmlns="http://www.w3.org/2000/svg" viewBox="0 0 512 512">
<path fill-rule="evenodd" clip-rule="evenodd" d="M256 469.333C373.821 469.333 469.334 373.821 469.334 256C469.334 138.179 373.821 42.6667 256 42.6667C138.18 42.6667 42.667 138.179 42.667 256C42.667 373.821 138.18 469.333 256 469.333ZM256 426.667C350.257 426.667 426.667 350.257 426.667 256C426.667 161.743 350.257 85.3333 256 85.3333C161.744 85.3333 85.3337 161.743 85.3337 256C85.3337 350.257 161.744 426.667 256 426.667Z" fill="black"/>
<path fill-rule="evenodd" clip-rule="evenodd" d="M335.067 176.933C343.064 184.93 343.064 197.895 335.067 205.892L284.959 256L335.336 306.378C343.244 314.286 343.332 327.053 335.6 335.067L335.336 335.336C327.34 343.332 314.374 343.332 306.378 335.336L256 284.958L205.892 335.067C197.895 343.064 184.93 343.064 176.933 335.067C168.937 327.071 168.937 314.105 176.933 306.109L227.042 256L176.665 205.622C168.756 197.714 168.669 184.947 176.401 176.933L176.665 176.664C184.661 168.668 197.626 168.668 205.623 176.664L256 227.042L306.109 176.933C314.105 168.937 327.071 168.937 335.067 176.933Z" fill="black"/>
</svg>
