<svg viewBox="0 0 512 512" xmlns="http://www.w3.org/2000/svg">
<path d="M391.186 391.194H334.289V302.088C334.289 280.84 333.91 253.487 304.697 253.487C275.063 253.487 270.529 276.638 270.529 300.541V391.188H213.633V207.95H268.254V232.992H269.018C274.484 223.645 282.383 215.956 291.874 210.744C301.364 205.532 312.09 202.991 322.91 203.392C380.577 203.392 391.21 241.325 391.21 290.673L391.186 391.194ZM149.434 182.903C142.904 182.904 136.52 180.969 131.089 177.342C125.659 173.714 121.426 168.558 118.926 162.525C116.426 156.492 115.771 149.853 117.044 143.448C118.316 137.043 121.46 131.159 126.077 126.54C130.694 121.922 136.576 118.776 142.981 117.501C149.386 116.225 156.024 116.878 162.058 119.376C168.092 121.874 173.249 126.105 176.878 131.535C180.507 136.964 182.445 143.348 182.446 149.878C182.447 154.214 181.594 158.508 179.935 162.514C178.276 166.521 175.845 170.161 172.78 173.228C169.714 176.294 166.075 178.727 162.069 180.387C158.063 182.047 153.77 182.902 149.434 182.903ZM177.882 391.194H120.926V207.95H177.882V391.194ZM419.552 64.0262H92.3358C84.909 63.9423 77.7525 66.8106 72.4393 72.0007C67.1261 77.1907 64.0906 84.278 64 91.705V420.289C64.0875 427.72 67.1211 434.812 72.4342 440.008C77.7472 445.203 84.9053 448.077 92.3358 447.998H419.552C426.997 448.091 434.175 445.226 439.509 440.03C444.843 434.835 447.897 427.735 448 420.289V91.6813C447.894 84.2395 444.838 77.1442 439.504 71.9543C434.169 66.7644 426.993 63.9043 419.552 64.0024" fill="black"/>
</svg>
