<svg xmlns="http://www.w3.org/2000/svg" viewBox="0 0 512 512">
<path d="M253.231 95.5978C295.353 53.4756 363.647 53.4755 405.769 95.5978C447.891 137.72 447.891 206.014 405.769 248.136L365.918 287.987C357.587 296.318 344.079 296.318 335.748 287.987C327.417 279.655 327.417 266.148 335.748 257.817L375.599 217.966C401.059 192.506 401.059 151.228 375.599 125.768C350.139 100.308 308.861 100.308 283.401 125.768L243.55 165.618C235.219 173.95 221.711 173.95 213.38 165.618C205.049 157.287 205.049 143.78 213.38 135.449L253.231 95.5978Z" fill="black"/>
<path d="M84.974 263.855C42.8518 305.977 42.8517 374.27 84.974 416.393C127.096 458.515 195.39 458.515 237.512 416.393L277.363 376.542C285.694 368.211 285.694 354.703 277.363 346.372C269.032 338.041 255.524 338.041 247.193 346.372L207.342 386.223C181.882 411.683 140.604 411.683 115.144 386.223C89.684 360.763 89.684 319.484 115.144 294.024L154.995 254.174C163.326 245.842 163.326 232.335 154.995 224.004C146.663 215.673 133.156 215.673 124.825 224.004L84.974 263.855Z" fill="black"/>
<path d="M313.981 186.952C305.649 178.621 292.142 178.621 283.811 186.952L191.612 279.15C183.281 287.482 183.281 300.989 191.612 309.32L192.035 309.742C200.366 318.074 213.873 318.074 222.204 309.742L314.403 217.544C322.734 209.213 322.734 195.705 314.403 187.374L313.981 186.952Z" fill="black"/>
</svg>
