<svg xmlns="http://www.w3.org/2000/svg" viewBox="0 0 512 512">
<path d="M128 85.3334C104.436 85.3334 85.3337 104.436 85.3337 128C85.3337 139.782 75.7824 149.333 64.0003 149.333C52.2183 149.333 42.667 139.782 42.667 128C42.667 80.8718 80.872 42.6667 128 42.6667C175.129 42.6667 213.334 80.8718 213.334 128V170.667H362.667C398.013 170.667 426.667 199.321 426.667 234.667V257.326C410.615 250.077 392.8 246.042 374.042 246.042C303.35 246.042 246.042 303.349 246.042 374.042C246.042 392.799 250.077 410.614 257.326 426.667H149.334C113.987 426.667 85.3337 398.013 85.3337 362.667V234.667C85.3337 199.321 113.987 170.667 149.334 170.667H170.667V128C170.667 104.436 151.564 85.3334 128 85.3334Z" fill="black"/>
<path d="M355.183 313.235C339.587 304.219 320 315.368 320 333.261V414.822C320 432.716 339.587 443.865 355.183 434.849L425.727 394.068C441.203 385.122 441.203 362.962 425.727 354.016L355.183 313.235Z" fill="black"/>
</svg>
