<svg xmlns="http://www.w3.org/2000/svg" viewBox="0 0 512 512">
<path d="M153.823 106.667H298.667V149.333C298.667 161.115 308.218 170.667 320 170.667C331.782 170.667 341.333 161.115 341.333 149.333V106.667C341.333 83.1025 322.231 64 298.667 64H106.667C83.1025 64 64 83.1025 64 106.667V362.667C64 380.476 74.9119 395.737 90.4147 402.129L90.4167 402.25C136.078 417.156 181.74 432.062 227.402 446.968C241.54 451.372 256 441.134 256 426.721V405.333H298.667C322.231 405.333 341.333 386.231 341.333 362.667V341.333C341.333 329.551 331.782 320 320 320C308.218 320 298.667 329.551 298.667 341.333V362.667H256L256 154.002C256 144.761 249.852 136.578 240.788 133.755L153.823 106.667Z" fill="black"/>
<path d="M366.327 316.341C357.996 308.01 357.996 294.502 366.327 286.171L375.164 277.333H314.823C303.041 277.333 293.49 267.782 293.49 256C293.49 244.218 303.041 234.667 314.823 234.667H375.163L366.327 225.831C357.996 217.5 357.996 203.992 366.327 195.661C374.658 187.33 388.166 187.33 396.497 195.661L441.752 240.916C450.083 249.247 450.083 262.755 441.752 271.086L396.497 316.341C388.166 324.672 374.658 324.672 366.327 316.341Z" fill="black"/>
</svg>
