<svg xmlns="http://www.w3.org/2000/svg" width="32" height="32" viewBox="0 0 32 32">
    <title>logout</title>
    <path d="M12.9,8.2L4.2,3C3.9,2.8,3.6,2.8,3.3,3C3,3.1,2.8,3.4,2.8,3.8V23c0,0.3,0.2,0.6,0.4,0.8L12,29c0.1,0.1,0.3,0.1,0.5,0.1c0.1,0,0.3,0,0.4-0.1c0.3-0.2,0.4-0.4,0.4-0.8V9C13.3,8.7,13.2,8.4,12.9,8.2L12.9,8.2z M19.5,3.7c0-0.5-0.4-0.9-0.9-0.9H7.4l6.5,3.9c0.8,0.5,1.3,1.3,1.3,2.3v14.9h3.5c0.5,0,0.9-0.4,0.9-0.9C19.5,23,19.5,3.7,19.5,3.7z M30.8,13.4l-6.1-5.2v4.4h-3.5v1.8h3.5v4.4L30.8,13.4z"/>
</svg>
