<svg viewBox="0 0 512 512" xmlns="http://www.w3.org/2000/svg">
  <title>
    logout
  </title>
  <path d="M320 234.7V320h42.7v66.7c0 10.3-8.8 18.6-19.6 18.7h-65.8v33.1a21.3 21.3 0 0 1-28.8 20l-128-48a21.3 21.3 0 0 1-13.8-20V82.7c0-10.3 8.7-18.7 19.5-18.7h217c10.7 0 19.5 8.4 19.5 18.7v66.6H320v85.4c0-11.8 9.6-21.3 21.3-21.3l53.7.1-8.8-8.8a21.3 21.3 0 0 1 30.1-30.2l45.3 45.3a21.3 21.3 0 0 1 0 30.1l-45.3 45.3a21.3 21.3 0 1 1-30.1-30.2l8.8-8.8-53.7-.1a21.3 21.3 0 0 1-21.3-21.4zm-42.7 128H320v-256H192l73.5 36.7c7.3 3.7 11.8 11 11.8 19.1v200.2z" fill-rule="nonzero"/>
</svg>
