<svg xmlns="http://www.w3.org/2000/svg" viewBox="0 0 512 512">
<path d="M64 149.333C64 102.205 102.205 64 149.333 64H170.667C182.449 64 192 73.5513 192 85.3333C192 97.1154 182.449 106.667 170.667 106.667H149.333C125.769 106.667 106.667 125.769 106.667 149.333V170.667C106.667 182.449 97.1154 192 85.3333 192C73.5513 192 64 182.449 64 170.667V149.333Z" fill="black"/>
<path d="M320 85.3333C320 73.5513 329.551 64 341.333 64H362.667C409.795 64 448 102.205 448 149.333V170.667C448 182.449 438.449 192 426.667 192C414.885 192 405.333 182.449 405.333 170.667V149.333C405.333 125.769 386.231 106.667 362.667 106.667H341.333C329.551 106.667 320 97.1154 320 85.3333Z" fill="black"/>
<path d="M85.3333 320C97.1154 320 106.667 329.551 106.667 341.333V362.667C106.667 386.231 125.769 405.333 149.333 405.333H170.667C182.449 405.333 192 414.885 192 426.667C192 438.449 182.449 448 170.667 448H149.333C102.205 448 64 409.795 64 362.667V341.333C64 329.551 73.5513 320 85.3333 320Z" fill="black"/>
<path d="M426.667 320C438.449 320 448 329.551 448 341.333V362.667C448 409.795 409.795 448 362.667 448H341.333C329.551 448 320 438.449 320 426.667C320 414.885 329.551 405.333 341.333 405.333H362.667C386.231 405.333 405.333 386.231 405.333 362.667V341.333C405.333 329.551 414.885 320 426.667 320Z" fill="black"/>
<path d="M240.915 356.416C232.584 348.085 232.584 334.578 240.915 326.246L268.517 298.645L240.915 271.043C232.584 262.712 232.584 249.205 240.915 240.873C249.246 232.542 262.754 232.542 271.085 240.873L298.687 268.475L326.288 240.873C334.619 232.542 348.127 232.542 356.458 240.873C364.789 249.205 364.789 262.712 356.458 271.043L328.856 298.645L356.458 326.246C364.789 334.578 364.789 348.085 356.458 356.416C348.127 364.748 334.619 364.748 326.288 356.416L298.687 328.815L271.085 356.416C262.754 364.748 249.246 364.748 240.915 356.416Z" fill="black"/>
<path d="M229.296 149.333C210.368 149.333 193.703 161.803 188.363 179.961L157.553 284.716L147.975 259.176C143.838 248.144 131.541 242.555 120.509 246.692C109.477 250.829 103.888 263.125 108.025 274.157L140.025 359.491C143.247 368.084 151.604 373.653 160.776 373.319C169.947 372.986 177.877 366.824 180.466 358.02L229.296 192H352C363.782 192 373.333 182.449 373.333 170.667C373.333 158.885 363.782 149.333 352 149.333H229.296Z" fill="black"/>
</svg>
