<svg viewBox="0 0 512 512" xmlns="http://www.w3.org/2000/svg">
<path d="M163.001 134.841C229.461 134.841 283.332 189.089 283.332 256.002C283.332 322.915 229.457 377.159 163.001 377.159C96.546 377.159 42.6663 322.915 42.6663 256.002C42.6663 189.089 96.5419 134.841 163.001 134.841ZM355.168 141.938C388.398 141.938 415.335 193.001 415.335 256.002C415.335 318.986 388.402 370.066 355.172 370.066C321.942 370.066 295.004 318.986 295.004 256.002C295.004 193.018 321.938 141.938 355.168 141.938ZM448.173 153.819C459.857 153.819 469.334 199.567 469.334 256.002C469.334 312.421 459.861 358.185 448.173 358.185C436.484 358.185 427.016 312.433 427.016 256.002C427.016 199.571 436.488 153.819 448.173 153.819Z" fill="black"/>
</svg>
