<svg viewBox="0 0 512 512" xmlns="http://www.w3.org/2000/svg">
<path d="M147.188 207.284C142.921 199.894 143.469 190.671 148.581 183.838L208.409 103.868C222.171 85.4727 250.258 87.1417 261.745 107.037L383.883 318.586C395.369 338.481 382.771 363.64 359.959 366.36L260.789 378.188C252.315 379.199 244.054 375.062 239.787 367.672L147.188 207.284Z" fill="black"/>
<path d="M103.204 216.435C52.1858 245.89 34.7058 311.127 64.161 362.145C89.9632 406.836 143.222 425.791 190.328 410.006L206.857 437.275C212.748 447.478 225.795 450.974 235.998 445.083C246.202 439.192 249.698 426.145 243.807 415.942L128.79 218.085C124.863 211.283 116.164 208.952 109.362 212.88L103.204 216.435Z" fill="black"/>
<path d="M360.556 165.876C350.353 171.767 346.857 184.814 352.748 195.017C358.639 205.221 371.686 208.717 381.89 202.826L437.315 170.826C447.519 164.935 451.015 151.888 445.124 141.684C439.233 131.481 426.185 127.985 415.982 133.876L360.556 165.876Z" fill="black"/>
<path d="M391.131 252.915C391.131 264.697 400.682 274.248 412.464 274.248L433.797 274.249C445.579 274.248 455.131 264.697 455.131 252.915C455.131 241.133 445.579 231.582 433.797 231.582L412.464 231.582C400.682 231.582 391.131 241.133 391.131 252.915Z" fill="black"/>
<path d="M313.989 103.684C308.098 113.888 311.594 126.935 321.797 132.826C332.001 138.717 345.048 135.221 350.939 125.018L361.606 106.543C367.497 96.3389 364.001 83.2917 353.797 77.4006C343.594 71.5096 330.546 75.0056 324.655 85.2092L313.989 103.684Z" fill="black"/>
</svg>
