<svg xmlns="http://www.w3.org/2000/svg" viewBox="0 0 512 512">
<title>megaphone</title>
<path d="M478.51,177.24l-79,29a24.23,24.23,0,0,1-31.16-14.61,24.56,24.56,0,0,1,14.5-31.41l79-29A24.27,24.27,0,0,1,493,145.83,24.55,24.55,0,0,1,478.51,177.24Zm-17.4,62.54-47,1.76a24.5,24.5,0,0,0,1.81,49l47-1.77a24.49,24.49,0,0,0-1.82-49Zm-89.57-116,37-29.15a24.62,24.62,0,0,0,4.21-34.38A24.16,24.16,0,0,0,378.7,56L341.65,85.19a24.62,24.62,0,0,0-4.22,34.38A24.17,24.17,0,0,0,371.54,123.82ZM108.71,184.45A10.6,10.6,0,0,0,92,179.83l-38.17,31.7A93.94,93.94,0,0,0,24.1,317a92.73,92.73,0,0,0,84.84,61.35l21.86,60.39c5.41,15,20.42,25,36,22.45a33,33,0,0,0,25.78-43.89ZM267.37,67.78C261.06,50.35,238,44.84,222,56.93l-68.87,57.18a26.73,26.73,0,0,0-8,29.66l83.33,229.37a26.37,26.37,0,0,0,25,17.45l89-.74c20-1.15,34.18-20.33,27.87-37.79Z" fill-rule="evenodd"/>
</svg>