<svg xmlns="http://www.w3.org/2000/svg" xmlns:xlink="http://www.w3.org/1999/xlink" preserveAspectRatio="xMidYMid" width="32" height="24" viewBox="0 0 32 24">
  <path d="M2.666,5.333 L29.334,5.333 C30.801,5.333 32.001,4.133 32.001,2.666 C32.001,1.199 30.801,-0.001 29.334,-0.001 L2.666,-0.001 C1.199,-0.001 -0.001,1.199 -0.001,2.666 C-0.001,4.133 1.199,5.333 2.666,5.333 ZM29.334,9.333 L2.666,9.333 C1.199,9.333 -0.001,10.533 -0.001,12.000 C-0.001,13.467 1.199,14.667 2.666,14.667 L29.334,14.667 C30.801,14.667 32.001,13.467 32.001,12.000 C32.001,10.533 30.801,9.333 29.334,9.333 ZM29.334,18.667 L2.666,18.667 C1.199,18.667 -0.001,19.867 -0.001,21.334 C-0.001,22.801 1.199,24.001 2.666,24.001 L29.334,24.001 C30.801,24.001 32.001,22.801 32.001,21.334 C32.001,19.867 30.801,18.667 29.334,18.667 Z"/>
</svg>
