<svg xmlns="http://www.w3.org/2000/svg" width="32" height="32" viewBox="0 0 32 32">
  <path fill-rule="evenodd" d="M28.833 13.333H3.167c-.7 0-1.167.534-1.167 1.334v2.666c0 .8.467 1.334 1.167 1.334h25.666c.7 0 1.167-.534 1.167-1.334v-2.666c0-.8-.467-1.334-1.167-1.334zm0-9.333H3.167C2.467 4 2 4.533 2 5.333V8c0 .8.467 1.333 1.167 1.333h25.666C29.533 9.333 30 8.8 30 8V5.333C30 4.533 29.533 4 28.833 4zm0 18.667H3.167C2.467 22.667 2 23.2 2 24v2.667c0 .8.467 1.333 1.167 1.333h25.666c.7 0 1.167-.533 1.167-1.333V24c0-.8-.467-1.333-1.167-1.333z"/>
</svg>
