<svg xmlns="http://www.w3.org/2000/svg" viewBox="0 0 512 512">
<path fill-rule="evenodd" clip-rule="evenodd" d="M85.0773 170.67C74.3466 169.471 66.2465 160.258 66.3167 149.33C66.2516 138.406 74.3504 129.198 85.0773 128H426.923C437.65 129.198 445.748 138.406 445.683 149.33C445.754 160.258 437.653 169.471 426.923 170.67H85.0773ZM85.0773 277.33H426.923C438.561 277.33 447.995 267.78 447.995 256C447.995 244.22 438.561 234.67 426.923 234.67H85.0773C73.4394 234.67 64.0049 244.22 64.0049 256C64.0049 267.78 73.4394 277.33 85.0773 277.33ZM85.0773 384H426.923C434.453 384 441.411 379.934 445.176 373.333C448.941 366.731 448.941 358.599 445.176 351.998C441.411 345.396 434.453 341.33 426.923 341.33H85.0773C73.4366 341.33 64 350.882 64 362.665C64 374.448 73.4366 384 85.0773 384Z" fill="black"/>
</svg>
