<svg viewBox="0 0 512 512" xmlns="http://www.w3.org/2000/svg">
<path d="M392.533 106.659C410.768 106.143 426.006 120.43 426.667 138.661V239.621C407.52 229.641 385.752 224 362.667 224C286.083 224 224 286.084 224 362.667L149.333 362.672L110.892 401.114C106.61 405.396 100.171 406.677 94.5762 404.36C88.9815 402.043 85.3336 396.583 85.3333 390.527V138.661C85.9933 120.43 101.233 106.143 119.467 106.659H392.533Z" fill="black"/>
<path fill-rule="evenodd" clip-rule="evenodd" d="M256 362.667C256 303.756 303.756 256 362.667 256C421.577 256 469.333 303.756 469.333 362.667C469.333 421.577 421.577 469.333 362.667 469.333C303.756 469.333 256 421.577 256 362.667ZM362.667 298.667C353.83 298.667 346.667 305.83 346.667 314.667V346.667H314.667C305.83 346.667 298.667 353.83 298.667 362.667C298.667 371.503 305.83 378.667 314.667 378.667H346.667V410.667C346.667 419.503 353.83 426.667 362.667 426.667C371.503 426.667 378.667 419.503 378.667 410.667V378.667H410.667C419.503 378.667 426.667 371.503 426.667 362.667C426.667 353.83 419.503 346.667 410.667 346.667H378.667V314.667C378.667 305.83 371.503 298.667 362.667 298.667Z" fill="black"/>
</svg>
