<svg viewBox="0 0 512 512" xmlns="http://www.w3.org/2000/svg">
<path d="M64 106.667C64 83.1025 83.1025 64 106.667 64H277.333C300.897 64 320 83.1025 320 106.667V213.333C320 236.897 300.897 256 277.333 256H170.667L95.4115 296.124C81.1861 303.709 64 293.412 64 277.304V106.667Z" fill="black"/>
<path d="M192 362.667V298.667H277.333C324.462 298.667 362.667 260.462 362.667 213.333H405.333C428.897 213.333 448 232.436 448 256V426.637C448 442.745 430.814 453.042 416.588 445.458L341.333 405.333H234.667C211.103 405.333 192 386.231 192 362.667Z" fill="black"/>
</svg>
