<svg xmlns="http://www.w3.org/2000/svg" viewBox="0 0 512 512">
<path d="M42.6615 170.667C42.6615 123.539 80.8665 85.3335 127.995 85.3335H384.001C431.129 85.3335 469.333 123.539 469.333 170.667V288.511C445.899 262.399 411.889 245.973 374.042 245.973C303.349 245.973 246.042 303.281 246.042 373.973C246.042 377.348 246.172 380.692 246.429 384H171.183L74.6568 445.083C60.4463 453.338 42.6304 443.101 42.6069 426.667C42.5264 362.739 42.5718 307.607 42.6146 255.624C42.6384 226.653 42.6615 198.66 42.6615 170.667Z" fill="black"/>
<path d="M374.042 309.969C385.824 309.969 395.375 319.52 395.375 331.302V352.636H416.708C428.49 352.636 438.042 362.187 438.042 373.969C438.042 385.751 428.49 395.302 416.708 395.302H395.375V416.636C395.375 428.418 385.824 437.969 374.042 437.969C362.26 437.969 352.708 428.418 352.708 416.636V395.302H331.375C319.593 395.302 310.042 385.751 310.042 373.969C310.042 362.187 319.593 352.636 331.375 352.636H352.708V331.302C352.708 319.52 362.26 309.969 374.042 309.969Z" fill="black"/>
</svg>
