<svg xmlns="http://www.w3.org/2000/svg" width="32" height="32" viewBox="0 0 32 32">
  <path fill-rule="evenodd" d="M24.478 2H2.304C1.584 2 1 2.584 1 3.304v15.653c0 .72.584 1.304 1.304 1.304h3.913v5.87c0 .25.137.47.354.58.22.11.48.1.68-.05l8.96-6.4h8.27c.72 0 1.308-.58 1.308-1.3V3.306C25.788 2.585 25.2 2 24.48 2zm5.218 5.217h-2.61V19.61c0 1.08-.875 1.955-1.956 1.955h-8.503l-5.48 3.913h5.96l7.66 5.108c.204.134.46.145.67.033.213-.12.346-.34.346-.58v-4.567h3.913c.72 0 1.304-.583 1.304-1.304V8.522c0-.72-.584-1.305-1.304-1.305z"/>
</svg>
