<svg xmlns="http://www.w3.org/2000/svg" viewBox="0 0 32 32">
    <title>messages</title>
    <path fill-rule="evenodd"
          d="M22.78 5c.58 0 1.05.47 1.05 1.04v12.53c0 .57-.47 1.04-1.05 1.04h-6.6L9 24.75c-.16.1-.37.13-.54.04-.18-.1-.3-.27-.3-.47v-4.7h-3.1c-.58 0-1.05-.45-1.05-1.03V6.04C4 5.47 4.48 5 5.05 5h17.74zm4.18 4.17c.57 0 1.04.47 1.04 1.05v12.52c0 .58-.47 1.04-1.04 1.04h-3.13v3.65c0 .2-.1.37-.28.46-.17.1-.37.07-.54-.04l-6.1-4.1h-4.8l4.38-3.12h6.8c.87 0 1.57-.7 1.57-1.56V9.16h2.1z"/>
</svg>
