<svg xmlns="http://www.w3.org/2000/svg" viewBox="0 0 512 512">
<path d="M170.667 128C170.667 80.8715 208.872 42.6665 256 42.6665C303.128 42.6665 341.333 80.8715 341.333 128V234.666C341.333 281.795 303.128 320 256 320C208.872 320 170.667 281.795 170.667 234.666V128Z" fill="black"/>
<path d="M170.667 448C170.667 436.218 180.218 426.666 192.001 426.666H319.999C331.782 426.666 341.333 436.218 341.333 448C341.333 459.782 331.782 469.333 319.999 469.333H192.001C180.218 469.333 170.667 459.782 170.667 448Z" fill="black"/>
<path d="M128 234.666C128 222.884 118.449 213.333 106.667 213.333C94.8846 213.333 85.3333 222.884 85.3333 234.666C85.3333 328.923 161.743 405.333 256 405.333C350.257 405.333 426.667 328.923 426.667 234.666C426.667 222.884 417.115 213.333 405.333 213.333C393.551 213.333 384 222.884 384 234.666C384 305.359 326.692 362.666 256 362.666C185.308 362.666 128 305.359 128 234.666Z" fill="black"/>
</svg>
