<svg xmlns="http://www.w3.org/2000/svg" viewBox="0 0 512 512">
  <path d="M319.996 426.673H191.996C180.214 426.673 170.663 436.225 170.663 448.007C170.663 459.789 180.214 469.34 191.996 469.34H319.996C331.778 469.34 341.329 459.789 341.329 448.007C341.329 436.225 331.778 426.673 319.996 426.673Z" fill="black"/>
  <path d="M301.252 301.263C289.251 313.264 272.974 320.007 256.001 320.007C239.029 320.007 222.751 313.265 210.749 301.263C205.413 295.927 201.117 289.746 197.99 283.034L319.996 197.605V256.012C319.996 272.984 313.254 289.262 301.252 301.263Z" fill="black"/>
  <path d="M319.996 143.911L192.005 233.531V128.003C191.963 105.111 204.152 83.9411 223.969 72.4834C243.786 61.0257 268.215 61.0257 288.032 72.4834C307.849 83.9411 320.038 105.111 319.996 128.003V143.911Z" fill="black"/>
  <path d="M149.571 263.244C149.411 260.852 149.329 258.439 149.329 256.007C149.329 244.225 139.778 234.673 127.996 234.673C116.214 234.673 106.663 244.225 106.663 256.007C106.663 267.875 108.047 279.419 110.663 290.487L149.571 263.244Z" fill="black"/>
  <path d="M127.606 332.318C153.652 376.045 201.403 405.34 255.996 405.34C338.47 405.34 405.329 338.481 405.329 256.007C405.332 250.348 403.086 244.92 399.084 240.918C395.083 236.917 389.655 234.67 383.996 234.673C378.337 234.67 372.909 236.917 368.907 240.918C364.906 244.92 362.659 250.348 362.663 256.007C362.663 314.917 314.906 362.673 255.996 362.673C215.86 362.673 180.902 340.506 162.696 307.748L127.606 332.318Z" fill="black"/>
  <path d="M62.0108 385.162C55.2529 375.51 57.5984 362.208 67.2497 355.45L405.074 118.903C414.725 112.145 428.028 114.491 434.786 124.142L435.541 125.221C442.299 134.872 439.953 148.174 430.302 154.932L92.4778 391.48C82.8264 398.237 69.5241 395.892 62.7662 386.241L62.0108 385.162Z" fill="black"/>
</svg>
