<svg xmlns="http://www.w3.org/2000/svg" viewBox="0 0 512 512">
<path d="M320.6 290.427C320.6 290.428 320.601 290.427 320.6 290.427L350.823 320.652C350.824 320.652 350.823 320.652 350.823 320.652L381.021 350.848C381.02 350.848 381.021 350.847 381.021 350.848L441.748 411.577C450.08 419.908 450.08 433.416 441.748 441.747C433.417 450.078 419.91 450.078 411.579 441.747L348.166 378.334C321.584 395.421 289.951 405.333 256.004 405.333C161.747 405.333 85.337 328.923 85.337 234.666C85.337 222.884 94.8882 213.333 106.67 213.333C118.452 213.333 128.004 222.884 128.004 234.666C128.004 305.359 185.311 362.666 256.004 362.666C278.104 362.666 298.896 357.066 317.038 347.206L284.837 315.006C275.831 318.238 266.123 320 256.004 320C208.875 320 170.67 281.795 170.67 234.666V200.839L70.2901 100.458C61.9589 92.1273 61.959 78.6198 70.2901 70.2886C78.6213 61.9574 92.1288 61.9574 100.46 70.2886L320.6 290.427Z" fill="black"/>
<path d="M374.257 283.744L406.233 315.72C419.269 291.607 426.67 264.001 426.67 234.666C426.67 222.884 417.119 213.333 405.337 213.333C393.555 213.333 384.004 222.884 384.004 234.666C384.004 252.053 380.537 268.63 374.257 283.744Z" fill="black"/>
<path d="M179.89 89.3776L340.046 249.534C340.895 244.705 341.337 239.738 341.337 234.666V128C341.337 80.8715 303.132 42.6665 256.004 42.6665C222.776 42.6665 193.984 61.6576 179.89 89.3776Z" fill="black"/>
<path d="M192.005 426.666C180.222 426.666 170.67 436.218 170.67 448C170.67 459.782 180.222 469.333 192.005 469.333H320.002C331.785 469.333 341.337 459.782 341.337 448C341.337 436.218 331.785 426.666 320.002 426.666H192.005Z" fill="black"/>
</svg>
