<svg xmlns="http://www.w3.org/2000/svg" viewBox="0 0 512 512">
<path d="M355.693 255.623C355.493 244.489 346.404 235.523 335.22 235.523L271.371 235.523C275.595 235.523 279.253 235.523 176.771 235.523C165.462 235.523 156.294 244.691 156.294 256L156.298 256.376C156.498 267.511 165.587 276.476 176.771 276.476C279.528 276.477 275.576 276.477 271.338 276.477L335.22 276.477C346.529 276.477 355.697 267.309 355.697 256L355.693 255.623Z" fill="black"/>
<path fill-rule="evenodd" clip-rule="evenodd" d="M469.334 256C469.334 373.821 373.821 469.333 256 469.333C138.18 469.333 42.667 373.821 42.667 256C42.667 138.179 138.18 42.6667 256 42.6667C373.821 42.6667 469.334 138.179 469.334 256ZM426.667 256C426.667 350.257 350.257 426.667 256 426.667C161.744 426.667 85.3337 350.257 85.3337 256C85.3337 161.743 161.744 85.3333 256 85.3333C350.257 85.3333 426.667 161.743 426.667 256Z" fill="black"/>
</svg>
