<svg xmlns="http://www.w3.org/2000/svg" viewBox="0 0 512 512">
<path d="M316.339 124.34C308.008 132.671 294.5 132.671 286.169 124.34L277.333 115.503V170.667C277.333 182.449 267.781 192 255.999 192C244.217 192 234.666 182.449 234.666 170.667V115.503L225.829 124.34C217.498 132.671 203.991 132.671 195.66 124.34C187.328 116.009 187.328 102.501 195.66 94.17L240.914 48.9151C249.246 40.584 262.753 40.584 271.084 48.9151L316.339 94.17C324.67 102.501 324.67 116.009 316.339 124.34Z" fill="black"/>
<path d="M298.666 373.333C298.666 385.115 289.115 394.667 277.333 394.667C265.551 394.667 256 385.115 256 373.333C256 361.551 265.551 352 277.333 352C289.115 352 298.666 361.551 298.666 373.333Z" fill="black"/>
<path fill-rule="evenodd" clip-rule="evenodd" d="M128 213.333C104.436 213.333 85.333 232.436 85.333 256V426.667C85.333 450.231 104.436 469.333 128 469.333H384C407.564 469.333 426.666 450.231 426.666 426.667V320C426.666 296.436 407.564 277.333 384 277.333H160C154.109 277.333 149.333 272.558 149.333 266.667C149.333 260.776 154.109 256 160 256H384V234.667C384 222.885 374.448 213.333 362.666 213.333H128ZM384 330.667H277.333C253.769 330.667 234.666 349.769 234.666 373.333C234.666 396.898 253.769 416 277.333 416H384V330.667Z" fill="black"/>
</svg>
