<svg xmlns="http://www.w3.org/2000/svg" viewBox="0 0 512 512">
<path d="M127.997 255.999C127.997 279.564 108.895 298.666 85.3307 298.666C61.7666 298.666 42.6641 279.564 42.6641 255.999C42.6641 232.435 61.7666 213.333 85.3307 213.333C108.895 213.333 127.997 232.435 127.997 255.999Z" fill="black"/>
<path d="M298.666 256C298.666 279.564 279.564 298.667 256 298.667C232.436 298.667 213.333 279.564 213.333 256C213.333 232.436 232.436 213.333 256 213.333C279.564 213.333 298.666 232.436 298.666 256Z" fill="black"/>
<path d="M426.664 298.667C450.228 298.667 469.331 279.564 469.331 256C469.331 232.436 450.228 213.333 426.664 213.333C403.1 213.333 383.997 232.436 383.997 256C383.997 279.564 403.1 298.667 426.664 298.667Z" fill="black"/>
</svg>
