<svg viewBox="0 0 512 512" xmlns="http://www.w3.org/2000/svg">
    <path d="M256 85.3334H128C104.436 85.3334 85.3334 104.436 85.3334 128V256C85.3334 279.564 104.436 298.667 128 298.667V341.333C80.8717 341.333 42.6667 303.128 42.6667 256V128C42.6667 80.8717 80.8717 42.6667 128 42.6667H256C303.128 42.6667 341.333 80.8717 341.333 128H298.667C298.667 104.436 279.564 85.3334 256 85.3334Z" />
    <path fill-rule="evenodd" d="M170.667 256C170.667 208.872 208.872 170.667 256 170.667H384C431.128 170.667 469.333 208.872 469.333 256V384C469.333 431.128 431.128 469.333 384 469.333H256C208.872 469.333 170.667 431.128 170.667 384V256ZM256 213.333H384C407.564 213.333 426.667 232.436 426.667 256V384C426.667 407.564 407.564 426.667 384 426.667H256C232.436 426.667 213.333 407.564 213.333 384V256C213.333 232.436 232.436 213.333 256 213.333Z" />
</svg>
