<svg xmlns="http://www.w3.org/2000/svg" viewBox="0 0 512 512">
<path d="M64 149.333C64 102.205 102.205 64 149.333 64H277.333C308.919 64 336.496 81.1605 351.251 106.667H234.667C163.974 106.667 106.667 163.974 106.667 234.667V351.251C81.1605 336.496 64 308.919 64 277.333V149.333Z" fill="black"/>
<path fill-rule="evenodd" clip-rule="evenodd" d="M149.333 234.667C149.333 187.538 187.538 149.333 234.667 149.333H362.667C409.795 149.333 448 187.538 448 234.667V362.667C448 409.795 409.795 448 362.667 448H234.667C187.538 448 149.333 409.795 149.333 362.667V234.667ZM361.752 251.582C370.083 259.913 370.083 273.42 361.752 281.752L297.752 345.752C289.42 354.083 275.913 354.083 267.582 345.752L235.582 313.752C227.251 305.42 227.251 291.913 235.582 283.582C243.913 275.251 257.42 275.251 265.752 283.582L282.667 300.497L331.582 251.582C339.913 243.251 353.42 243.251 361.752 251.582Z" fill="black"/>
</svg>
