<svg viewBox="0 0 512 512" xmlns="http://www.w3.org/2000/svg">
    <path d="M42.6667 128C42.6667 80.8717 80.8717 42.6667 128 42.6667H256C303.128 42.6667 341.333 80.8717 341.333 128H256C185.308 128 128 185.308 128 256L128 341.333C80.8717 341.333 42.6667 303.128 42.6667 256V128Z"/>
    <path fill-rule="evenodd" d="M256 170.667C208.872 170.667 170.667 208.872 170.667 256V384C170.667 431.128 208.872 469.333 256 469.333H384C431.128 469.333 469.333 431.128 469.333 384V256C469.333 208.872 431.128 170.667 384 170.667H256ZM298.684 338.891L376.134 261.44C383.439 254.181 395.236 254.181 402.568 261.475C409.827 268.78 409.827 280.574 402.55 287.896L311.888 378.553C304.583 385.818 292.782 385.818 285.461 378.538L240.143 333.219C235.42 328.497 233.575 321.613 235.304 315.162C237.033 308.71 242.072 303.671 248.523 301.943C254.975 300.214 261.858 302.058 266.581 306.781L298.684 338.891Z"/>
</svg>
