<svg xmlns="http://www.w3.org/2000/svg" viewBox="0 0 512 512">
<path d="M106.667 351.251C81.1605 336.496 64 308.919 64 277.333V149.333C64 102.205 102.205 64 149.333 64H277.333C308.919 64 336.496 81.1605 351.251 106.667H234.667C163.974 106.667 106.667 163.974 106.667 234.667V351.251Z" fill="black"/>
<path fill-rule="evenodd" clip-rule="evenodd" d="M149.333 234.667C149.333 187.538 187.538 149.333 234.667 149.333H362.667C409.795 149.333 448 187.538 448 234.667V362.667C448 409.795 409.795 448 362.667 448H234.667C187.538 448 149.333 409.795 149.333 362.667V234.667ZM234.667 192H362.667C386.231 192 405.333 211.103 405.333 234.667V362.667C405.333 386.231 386.231 405.333 362.667 405.333H234.667C211.103 405.333 192 386.231 192 362.667V234.667C192 211.103 211.103 192 234.667 192Z" fill="black"/>
</svg>
