<svg xmlns="http://www.w3.org/2000/svg" xmlns:xlink="http://www.w3.org/1999/xlink" preserveAspectRatio="xMidYMid" width="32" height="32" viewBox="0 0 32 32">
  <path d="M27.637,27.428 L4.363,27.428 C3.598,27.428 2.985,26.819 2.985,26.057 L2.985,25.829 C2.985,25.371 3.215,24.914 3.598,24.686 C5.665,23.543 6.890,21.562 6.890,18.514 L6.890,10.057 C6.890,4.114 10.871,0.000 15.847,0.000 L16.000,0.000 C21.053,0.000 25.110,4.191 25.110,10.210 L25.110,18.514 C25.110,21.562 26.335,23.771 28.402,24.686 C28.785,24.914 29.015,25.371 29.015,25.829 L29.015,26.057 C29.015,26.819 28.402,27.428 27.637,27.428 ZM16.000,32.000 C14.316,32.000 12.938,30.628 12.938,28.952 L19.062,28.952 C19.062,30.628 17.684,32.000 16.000,32.000 Z"/>
</svg>
