<svg viewBox="0 0 512 512" xmlns="http://www.w3.org/2000/svg">
<path d="M213.333 85.3334C213.333 61.7692 232.436 42.6667 256 42.6667C279.564 42.6667 298.666 61.7692 298.666 85.3334V91.5174C360.351 109.876 405.333 167.018 405.333 234.667V327.111L414.29 333.083C422.022 338.237 426.666 346.915 426.666 356.207C426.666 369.333 417.567 380.334 405.333 383.246V384H106.666V383.246C94.4319 380.334 85.333 369.333 85.333 356.207C85.333 346.915 89.9772 338.237 97.709 333.083L106.666 327.111V234.667C106.666 167.018 151.648 109.876 213.333 91.5174V85.3334Z" fill="black"/>
<path d="M256 469.333C279.564 469.333 298.666 450.231 298.666 426.667H213.333C213.333 450.231 232.436 469.333 256 469.333Z" fill="black"/>
</svg>
