<svg xmlns="http://www.w3.org/2000/svg" viewBox="0 0 512 512">
<path d="M192 256C192 244.218 201.551 234.667 213.333 234.667H426.667C438.449 234.667 448 244.218 448 256C448 267.782 438.449 277.333 426.667 277.333H213.333C201.551 277.333 192 267.782 192 256Z" fill="black"/>
<path d="M192 117.291C192 105.508 201.551 95.9572 213.333 95.9572H426.667C438.449 95.9572 448 105.508 448 117.291C448 129.073 438.449 138.624 426.667 138.624H213.333C201.551 138.624 192 129.073 192 117.291Z" fill="black"/>
<path d="M192 390.728C192 378.946 201.551 369.394 213.333 369.394H426.667C438.449 369.394 448 378.946 448 390.728C448 402.51 438.449 412.061 426.667 412.061H213.333C201.551 412.061 192 402.51 192 390.728Z" fill="black"/>
<path d="M77.5916 309.333C70.0852 309.333 64 303.455 64 296.203V291.405C64 287.136 66.1749 283.117 69.7844 280.654C114.118 250.399 118.475 246.466 118.475 238.905C118.475 233.863 112.93 230.712 105.916 230.712C99.9645 230.712 94.7451 231.794 89.9481 233.766C82.2803 236.918 72.8876 236.496 67.6003 230.273C62.8352 224.666 63.0361 216.319 69.3571 212.401C80.5605 205.458 93.7977 202.667 105.264 202.667C133.48 202.667 151.91 217.792 151.91 238.905C151.91 253.243 143.429 265.059 117.496 281.603H138.536C146.463 281.603 152.889 287.811 152.889 295.468C152.889 303.126 146.463 309.333 138.536 309.333H77.5916Z" fill="black"/>
<path d="M112.729 170.667C105.363 170.667 99.3918 164.695 99.3918 157.329V105.047L90.8064 113.556C85.586 118.73 77.138 118.621 72.0533 113.313C67.0702 108.112 67.1995 99.8691 72.3432 94.8262L98.1065 69.5681C101.803 65.9444 106.773 63.9146 111.949 63.9146C122.869 63.9146 131.721 72.7671 131.721 83.6872V157.329C131.721 164.695 125.75 170.667 118.384 170.667H112.729Z" fill="black"/>
<path d="M68.6631 437.896C63.0924 434.35 62.6819 426.849 66.5309 421.483L67.5236 420.099C72.2736 413.478 81.8424 412.427 89.499 415.216C95.5284 417.413 101.702 418.408 106.461 418.408C117.433 418.408 122.587 414.917 122.587 410.927C122.587 407.103 120.259 404.942 105.463 404.942C105.126 404.942 104.765 404.943 104.384 404.944C96.3264 404.977 89.3374 398.282 89.3374 390.224C89.3374 382.29 96.1123 375.679 104.046 375.682C104.573 375.682 105.05 375.682 105.463 375.682C116.103 375.682 120.758 373.687 120.758 370.196C120.758 365.042 113.942 363.047 104.3 363.047C99.4556 363.047 94.4812 363.916 89.754 365.61C82.3236 368.271 73.2337 367.427 68.4821 361.125L68.3132 360.901C64.3071 355.588 64.5456 347.994 69.995 344.175C79.3771 337.6 91.8712 333.455 107.957 333.455C138.547 333.455 154.174 345.924 154.174 364.211C154.174 376.015 143.867 386.488 129.736 388.816C142.038 390.146 156.003 399.456 156.003 414.75C156.003 434.534 136.552 448 107.791 448C91.5751 448 78.2642 444.006 68.6631 437.896Z" fill="black"/>
</svg>
