<svg xmlns="http://www.w3.org/2000/svg" viewBox="0 0 512 512">
  <title>
    numbered list
  </title>
  <path d="M405.33 234.67H192a21.33 21.33 0 1 0 0 42.66h213.33a21.33 21.33 0 1 0 0-42.66zM192 149.33h213.33a21.33 21.33 0 1 0 0-42.66H192a21.33 21.33 0 1 0 0 42.66zm213.33 213.34H192a21.33 21.33 0 1 0 0 42.66h213.33a21.33 21.33 0 1 0 0-42.66zm-330.66-256h10.66V160a10.67 10.67 0 0 0 21.34 0V96A10.7 10.7 0 0 0 96 85.33H74.67a10.67 10.67 0 1 0 0 21.34zm42.66 234.66H74.67a10.67 10.67 0 0 0 0 21.34h32v10.66H96a10.67 10.67 0 0 0 0 21.34h10.67v10.66h-32a10.67 10.67 0 0 0 0 21.34h42.66A10.7 10.7 0 0 0 128 416v-64a10.7 10.7 0 0 0-10.67-10.67zm.05-128H74.67a10.67 10.67 0 0 0 0 21.34h32c-.01 5.88-4.78 10.66-10.67 10.66a32.03 32.03 0 0 0-32 32v10.57c0 5.95 4.82 10.77 10.77 10.77h42.56a10.67 10.67 0 0 0 0-21.34h-32c.01-5.88 4.78-10.66 10.67-10.66a32.03 32.03 0 0 0 32-32v-10.72a10.61 10.61 0 0 0-10.62-10.62z"/>
</svg>
