<svg viewBox="0 0 512 512" xmlns="http://www.w3.org/2000/svg">
  <title>open in a new tab</title>
  <path d="M405.33 405.33H106.67V106.67H256V64H106.67A42.67 42.67 0 0 0 64 106.67v298.66A42.67 42.67 0 0 0 106.67 448h298.66A42.8 42.8 0 0 0 448 405.33V256h-42.67v149.33zm-106.66-320A21.33 21.33 0 0 0 320 106.67h55.25L180.6 301.33a21.27 21.27 0 1 0 30.08 30.08l194.66-194.66V192a21.33 21.33 0 0 0 42.67 0V85.33A21.33 21.33 0 0 0 426.67 64H320a21.33 21.33 0 0 0-21.33 21.33z" fill="#000" fill-rule="nonzero"/>
</svg>
