<svg xmlns="http://www.w3.org/2000/svg" viewBox="0 0 512 512">
<path d="M106.667 170.667C106.667 135.32 135.32 106.667 170.667 106.667H256C267.782 106.667 277.333 97.1154 277.333 85.3333C277.333 73.5513 267.782 64 256 64H170.667C111.756 64 64 111.756 64 170.667V341.333C64 400.244 111.756 448 170.667 448H341.333C400.244 448 448 400.244 448 341.333V256C448 244.218 438.449 234.667 426.667 234.667C414.885 234.667 405.333 244.218 405.333 256V341.333C405.333 376.68 376.68 405.333 341.333 405.333H170.667C135.32 405.333 106.667 376.68 106.667 341.333V170.667Z" fill="black"/>
<path d="M341.333 64C329.551 64 320 73.5513 320 85.3333C320 97.1154 329.551 106.667 341.333 106.667H375.163L240.915 240.915C232.584 249.246 232.584 262.754 240.915 271.085C249.246 279.416 262.754 279.416 271.085 271.085L405.333 136.837V170.667C405.333 182.449 414.885 192 426.667 192C438.449 192 448 182.449 448 170.667V85.3333C448 73.5513 438.449 64 426.667 64H341.333Z" fill="black"/>
</svg>
