<svg xmlns="http://www.w3.org/2000/svg" viewBox="0 0 512 512">
<path d="M256 384C279.564 384 298.666 403.103 298.666 426.667C298.666 450.231 279.564 469.334 256 469.334C232.436 469.334 213.333 450.231 213.333 426.667C213.333 403.103 232.436 384 256 384Z" fill="black"/>
<path d="M256 213.331C279.564 213.331 298.667 232.434 298.667 255.998C298.667 279.562 279.564 298.665 256 298.665C232.436 298.665 213.334 279.562 213.334 255.998C213.334 232.434 232.436 213.331 256 213.331Z" fill="black"/>
<path d="M298.667 85.3336C298.667 61.7695 279.564 42.667 256 42.667C232.436 42.667 213.334 61.7695 213.334 85.3336C213.334 108.898 232.436 128 256 128C279.564 128 298.667 108.898 298.667 85.3336Z" fill="black"/>
</svg>
