<svg xmlns="http://www.w3.org/2000/svg" version="1" viewBox="0 0 512 512">
  <title>
    padlock
  </title>
  <path fill-rule="nonzero" d="M192 170.667v-21.334c0-35.413 28.587-64 64-64s64 28.587 64 64v21.334H192zm64 170.666c-23.467 0-42.667-19.2-42.667-42.666C213.333 275.2 232.533 256 256 256c23.467 0 42.667 19.2 42.667 42.667 0 23.466-19.2 42.666-42.667 42.666zm106.667-192c0-58.88-47.787-106.666-106.667-106.666S149.333 90.453 149.333 149.333v21.334c-23.466 0-42.666 19.2-42.666 42.666V384c0 23.467 19.2 42.667 42.666 42.667h213.334c23.466 0 42.666-19.2 42.666-42.667V213.333c0-23.466-19.2-42.666-42.666-42.666v-21.334z"/>
</svg>
