<svg xmlns="http://www.w3.org/2000/svg" viewBox="0 0 512 512">
<path fill-rule="evenodd" clip-rule="evenodd" d="M341.333 170.667H362.666C398.013 170.667 426.666 199.321 426.666 234.667V362.667C426.666 398.013 398.013 426.667 362.666 426.667H149.333C113.987 426.667 85.333 398.013 85.333 362.667V234.667C85.333 199.321 113.987 170.667 149.333 170.667H170.666V128C170.666 80.8718 208.871 42.6667 256 42.6667C303.128 42.6667 341.333 80.8718 341.333 128V170.667ZM213.333 170.667H298.666V128C298.666 104.436 279.564 85.3334 256 85.3334C232.436 85.3334 213.333 104.436 213.333 128V170.667ZM256 234.667C232.436 234.667 213.333 253.769 213.333 277.333C213.333 293.126 221.913 306.915 234.666 314.292V341.333C234.666 353.115 244.218 362.667 256 362.667C267.782 362.667 277.333 353.115 277.333 341.333V314.292C290.086 306.915 298.666 293.126 298.666 277.333C298.666 253.769 279.564 234.667 256 234.667Z" fill="black"/>
</svg>
