<svg xmlns="http://www.w3.org/2000/svg" viewBox="0 0 512 512">
<path fill-rule="evenodd" clip-rule="evenodd" d="M128 85.3334C104.436 85.3334 85.3337 104.436 85.3337 128C85.3337 139.782 75.7824 149.333 64.0003 149.333C52.2183 149.333 42.667 139.782 42.667 128C42.667 80.8718 80.872 42.6667 128 42.6667C175.129 42.6667 213.334 80.8718 213.334 128V170.667H362.667C398.013 170.667 426.667 199.321 426.667 234.667V362.667C426.667 398.013 398.013 426.667 362.667 426.667H149.334C113.987 426.667 85.3337 398.013 85.3337 362.667V234.667C85.3337 199.321 113.987 170.667 149.334 170.667H170.667V128C170.667 104.436 151.564 85.3334 128 85.3334ZM213.334 277.333C213.334 293.126 221.914 306.915 234.667 314.292V341.333C234.667 353.115 244.218 362.667 256 362.667C267.782 362.667 277.334 353.115 277.334 341.333V314.292C290.087 306.915 298.667 293.126 298.667 277.333C298.667 253.769 279.564 234.667 256 234.667C232.436 234.667 213.334 253.769 213.334 277.333Z" fill="black"/>
</svg>
