<svg xmlns="http://www.w3.org/2000/svg" viewBox="0 0 512 512">
<path fill="#000" d="M159 231.3c5.4 0 9.7 2.7 9.7 8.3 0 5.5-4.3 8.2-9.6 8.2h-20v-16.5h20Zm83.9 49.4h15a24.2 24.2 0 0 0 25.3-24.8c0-14.1-8.2-24.6-25.1-24.6h-15.2v49.4Z"/><path fill="#000" fill-rule="evenodd" d="M150 64a85.3 85.3 0 0 0-85.3 85.3v213.4A85.3 85.3 0 0 0 150 448h213.4a85.3 85.3 0 0 0 85.3-85.3V149.3A85.3 85.3 0 0 0 363.4 64H150Zm-42.7 228.5a15.8 15.8 0 1 0 31.7 0v-17.1h24.2c24.4 0 37.6-16.3 37.6-35.8 0-19.6-13.2-36-37.6-36h-38.4c-9.7 0-17.5 7.9-17.5 17.5v71.4Zm121.3 15.8c-9.6 0-17.4-7.8-17.4-17.4V221c0-9.6 7.8-17.4 17.4-17.4H258c33 0 57.4 18.8 57.4 52.2 0 33.4-24.4 52.4-57.2 52.4h-29.5Zm113.9 0c-8.7 0-15.8-7-15.8-15.8V221c0-9.6 7.8-17.4 17.4-17.4h48.1a13.8 13.8 0 1 1 0 27.6h-33.9v10.3h32.8a13.8 13.8 0 1 1 0 27.6h-32.8v23.3c0 8.7-7 15.8-15.8 15.8Z" clip-rule="evenodd"/>
</svg>
