<svg xmlns="http://www.w3.org/2000/svg" height="32" width="32" preserveAspectRatio="xMidYMid" xmlns:xlink="http://www.w3.org/1999/xlink" viewBox="0 0 32 32">
 <path d="m28.68 5.611c-0.292-1.293-1.058-2.387-2.152-3.08l-2.88-1.757c-0.826-0.507-1.786-0.775-2.776-0.775-1.802 0-3.499 0.898-4.535 2.399l-10.992 16.465c-0.307 0.445-0.505 0.922-0.576 1.391l-1.44 6.66c-0.366 1.698 0.373 3.423 1.875 4.39 0.82 0.473 1.606 0.704 2.402 0.704 0.921 0 1.843-0.305 2.54-0.842l5.691-3.955c0.372-0.24 0.736-0.615 1.079-1.114l11.064-16.457c0.761-1.226 1.01-2.657 0.7-4.029zm-8.613 8.606l-6.52 9.806-0.042 0.064-0.063 0.044-5.686 3.951-0.833 0.579 0.216-1 1.44-6.659 0.017-0.076 0.043-0.065 6.52-9.731 0.214-0.32 0.326 0.202 4.245 2.634 0.356 0.22-0.233 0.351zm4.544-6.652l-2.043 3.068-0.215 0.321-0.326-0.202-4.245-2.634-0.357-0.221 0.234-0.351 2.047-3.074c0.346-0.447 0.765-0.691 1.166-0.691 0.17 0 0.317 0 0.55 0.112l2.916 1.776c0.586 0.45 0.692 1.289 0.273 1.896z"/>
</svg>
