<svg xmlns="http://www.w3.org/2000/svg" viewBox="0 0 512 512">
<path d="M128 106.667C116.218 106.667 106.667 116.218 106.667 128C106.667 139.782 97.1154 149.333 85.3333 149.333C73.5513 149.333 64 139.782 64 128C64 92.6538 92.6538 64 128 64H426.667C438.449 64 448 73.5513 448 85.3333C448 97.1154 438.449 106.667 426.667 106.667L320 106.667L320 373.333C320 391.006 334.327 405.333 352 405.333C369.673 405.333 384 391.006 384 373.333V341.333C384 329.551 393.551 320 405.333 320C417.115 320 426.667 329.551 426.667 341.333V373.333C426.667 414.571 393.237 448 352 448C310.763 448 277.333 414.571 277.333 373.333L277.333 106.667H213.333L213.333 426.667C213.333 438.449 203.782 448 192 448C180.218 448 170.667 438.449 170.667 426.667L170.667 106.667H128Z" fill="black"/>
</svg>
