<svg xmlns="http://www.w3.org/2000/svg" viewBox="0 0 512 512">
  <title>pi</title>
  <path fill-rule="nonzero" d="M423.493894 103.257889c-1.374649 0-2.731865.129774-4.057693.385183l-296.721531-.00407-.965409.007182c-31.7878917.473734-57.7479993 24.298088-59.3969305 54.374269-.1875235 1.038403-.2842894 2.126487-.2842894 3.226111 0 10.665196 9.098285 19.305669 20.3153252 19.305669l.354999-.002897.3524968-.008631c10.7867483-.351677 19.4203959-8.685464 19.6048189-18.958472l.001319-.276233.200085.000153.005291-.58307c.186013-10.241099 8.995673-18.472744 19.812294-18.472744h40.13065l.350907.00288c10.796886.176868 19.464418 8.542984 19.464418 18.802789l-.000075 225.582147c-.132331.865839-.200578 1.781288-.200578 2.704762 0 10.665196 9.098285 19.305669 20.315325 19.305669l.352457-.00285c10.668429-.172666 19.360912-8.169108 19.932919-18.245323l.018307-.426413.212296-.000134V161.056008l.003031-.332925c.186013-10.241099 8.995673-18.472744 19.812294-18.472744h20.065325l.350907.00288c10.796886.176868 19.464418 8.542984 19.464418 18.802789v181.028851l.006214.698935c.330868 23.07509 13.04914 44.396494 33.726537 56.525193 20.89227 12.254738 46.963916 13.39924 68.957044 3.027345 24.229865-10.973088 39.274297-34.584928 38.267287-60.070787l-.009488-.240129-.193865-.000416-.000158-.087046c-.191128-10.52387-9.228413-18.968207-20.312273-18.968207-11.21704 0-20.315325 8.640473-20.315325 19.305669 0 .716085.041037 1.423964.122929 2.121732-1.124923 14.703835-14.096384 26.211771-29.770263 26.211771-16.487393 0-29.847988-12.688311-29.847988-28.333503V161.056008l.003031-.332925c.186013-10.241099 8.995673-18.472744 19.812294-18.472744h80.511658L423.944 141.864l-.096068.002335c11.069268-.181303 19.961288-8.7641 19.961288-19.302778 0-10.665195-9.098285-19.305668-20.315326-19.305668z"/>
</svg>
