<svg xmlns="http://www.w3.org/2000/svg" viewBox="0 0 512 512">
<path fill-rule="evenodd" clip-rule="evenodd" d="M408.207 225.342C416.321 229.842 421.784 236.097 424.573 244.107C427.364 251.874 427.364 260.348 424.573 268.115C421.784 276.113 416.321 282.368 408.207 286.868L140.157 442.927C132.889 447.367 124.199 448.972 115.791 447.427C107.355 446.041 99.6748 441.8 94.0762 435.435C88.2476 428.933 85.3333 421.17 85.3333 412.17V100.052C85.3333 90.0394 88.3733 81.917 94.4763 75.662C100.313 69.5429 108.1 65.5731 116.545 64.4121C125.185 63.1521 133.048 64.7833 140.157 69.2833L408.207 225.342Z" fill="black"/>
</svg>
