<svg xmlns="http://www.w3.org/2000/svg" viewBox="0 0 512 512">
<path fill-rule="evenodd" clip-rule="evenodd" d="M426.662 234.669H277.321V85.3308C277.321 73.5501 267.771 64 255.99 64C244.209 64 234.658 73.5501 234.658 85.3308V234.669H85.3171C77.6962 234.669 70.6542 238.735 66.8437 245.335C63.0332 251.934 63.0332 260.066 66.8437 266.665C70.6542 273.265 77.6962 277.331 85.3171 277.331H234.658V426.669C234.658 434.29 238.724 441.332 245.324 445.142C251.924 448.953 260.055 448.953 266.655 445.142C273.255 441.332 277.321 434.29 277.321 426.669V277.331H426.662C438.443 277.331 447.993 267.781 447.993 256C447.993 244.219 438.443 234.669 426.662 234.669Z" fill="black"/>
</svg>
