<svg viewBox="0 0 512 512" xmlns="http://www.w3.org/2000/svg">
<path d="M278.876 201.623C278.876 206.283 277.012 211.874 272.353 214.67C268.625 218.397 263.034 220.261 257.443 220.261L244.396 223.056V192.304L257.443 190.441C264.898 188.577 268.625 188.577 272.353 190.441C277.012 192.304 279.808 196.964 278.876 201.623Z" fill="black"/>
<path d="M244.396 268.719L266.762 264.059C271.421 263.127 277.012 263.127 281.672 264.991C286.331 267.787 288.195 272.446 288.195 277.106C288.195 282.697 285.399 287.356 281.672 291.084C277.944 294.811 272.353 297.607 266.762 297.607L244.396 301.334V268.719Z" fill="black"/>
<path fill-rule="evenodd" clip-rule="evenodd" d="M287.69 55.3546C270.251 38.4374 241.752 38.4374 224.313 55.3546L198.957 79.9516L163.599 74.9367C139.591 71.5316 117.156 87.1732 113.143 110.115L106.656 147.196L72.8734 165.17C52.4131 176.055 44.2274 200.259 54.1336 220.58L71.4007 256L54.1336 291.42C44.2274 311.741 52.4131 335.945 72.8734 346.83L106.656 364.804L113.143 401.885C117.156 424.827 139.591 440.468 163.599 437.063L198.957 432.048L224.313 456.645C241.752 473.563 270.251 473.563 287.69 456.645L313.046 432.048L348.404 437.063C372.412 440.468 394.846 424.827 398.86 401.885L405.346 364.804L439.129 346.83C459.589 335.945 467.775 311.741 457.869 291.42L440.602 256L457.869 220.58C467.775 200.259 459.589 176.055 439.129 165.17L405.346 147.196L398.86 110.115C394.846 87.1732 372.412 71.5316 348.404 74.9367L313.046 79.9516L287.69 55.3546ZM278.869 346.067C298.438 343.271 317.076 334.884 332.918 322.77C348.76 310.655 357.146 292.018 356.215 272.448C356.719 261.414 352.751 250.644 345.208 242.575C337.666 234.506 327.186 229.821 316.144 229.582C333.849 219.331 345.032 199.762 345.964 178.328C346.896 159.691 333.849 141.985 315.212 138.258C297.506 135.462 279.8 136.394 262.095 140.121L156.792 157.827V207.217L176.362 204.421V314.383L156.792 318.11V367.5L278.869 346.067Z" fill="black"/>
</svg>
