<svg xmlns="http://www.w3.org/2000/svg" preserveAspectRatio="xMidYMid" width="32" height="32" viewBox="0 0 32 32"><path d="M16 32C7.2 32 0 24.8 0 16S7.2 0 16 0s16 7.2 16 16-7.2 16-16 16zm6-20c0-1.5-1-2.3-2.1-2.5-1-.2-2.3-.1-3.5.1l-7 1.2v3.1l1.3-.2v7l-1.3.2V24l8.2-1.3c1.3-.2 2.7-.7 3.6-1.5.9-.7 1.6-1.7 1.6-3.2 0-1.5-1-2.5-2.7-2.7.8-.5 1.9-1.8 1.9-3.3zm-5.3 7.6l-1.5.2v-2.1l1.5-.2c.5-.1.7-.1 1 .1.3.1.4.4.4.8 0 .3-.1.6-.4.9-.3.1-.5.2-1 .3zm.4-5.3c-.3.2-.5.3-1 .4l-.9.1v-1.9l.9-.2c.5-.1.7-.1 1 0 .3.1.4.4.4.7 0 .4-.1.6-.4.9z"/></svg>