<svg xmlns="http://www.w3.org/2000/svg" viewBox="0 0 512 512">
<path d="M170.666 85.3333C147.102 85.3333 128 104.436 128 128V149.333L384 149.333V128C384 104.436 364.897 85.3333 341.333 85.3333H170.666Z" fill="black"/>
<path fill-rule="evenodd" clip-rule="evenodd" d="M128 362.667H106.666C71.3203 362.667 42.6665 334.013 42.6665 298.667V234.667C42.6665 199.32 71.3203 170.667 106.667 170.667H405.333C440.679 170.667 469.333 199.32 469.333 234.667V298.667C469.333 334.013 440.679 362.667 405.333 362.667H384C384 398.013 355.346 426.667 320 426.667H192C156.654 426.667 128 398.013 128 362.667ZM170.666 384H341.333V320H170.666V384ZM405.333 213.333C393.551 213.333 384 222.885 384 234.667C384 246.449 393.551 256 405.333 256C417.115 256 426.666 246.449 426.666 234.667C426.666 222.885 417.115 213.333 405.333 213.333Z" fill="black"/>
</svg>
