<svg xmlns="http://www.w3.org/2000/svg" viewBox="0 0 512 512"><path fill="#000" d="M170.667 85.334C147.103 85.334 128 104.436 128 128v21.334l256-.001V128c0-23.564-19.102-42.666-42.666-42.666H170.667Z"/><path fill="#000" fill-rule="evenodd" d="M128 362.667h-21.333c-35.346 0-64-28.654-64-64v-64c0-35.346 28.654-64 64-64h298.667c35.346 0 64 28.654 64 64v64c0 35.346-28.654 64-64 64H384c0 35.346-28.653 64-64 64H192c-35.346 0-64-28.654-64-64ZM170.667 384h170.667v-64H170.667v64Zm234.667-170.667c-11.782 0-21.334 9.552-21.334 21.334S393.552 256 405.334 256s21.333-9.551 21.333-21.333c0-11.782-9.551-21.334-21.333-21.334Z" clip-rule="evenodd"/></svg>