<svg xmlns="http://www.w3.org/2000/svg" width="32" height="32" viewBox="0 0 32 32">
  <title>profile</title>
  <path fill-rule="evenodd" d="M25.8 27.2c-.9.8-1.9 1.4-3 2-2 1.1-4.3 1.7-6.8 1.7s-4.8-.6-6.8-1.7c-1.1-.5-2.1-1.2-3-2v-.1c0-1.5.8-2.9 2.1-3.6l2.9-1.7c1.4 1.4 3.1 2.2 4.8 2.2 1.7 0 3.5-.8 4.8-2.2l2.9 1.7c1.3.7 2.1 2.1 2.1 3.6v.1zM10.4 13.5c0-3.1 2.5-5.6 5.6-5.6 3.1 0 5.6 2.5 5.6 5.6v2.8c0 3.1-2.5 6.3-5.6 6.3-3 0-5.5-3.2-5.6-6.3v-2.8zM16 0C7.2 0 0 7.2 0 16s7.2 16 16 16 16-7.2 16-16S24.8 0 16 0z"/>
</svg>
