<svg xmlns="http://www.w3.org/2000/svg" width="32" height="32" viewBox="0 0 32 32">
    <title>view profile</title>
    <path d="M15.1,17.7c4,0,7-4.2,7-7.9c0-3.9-3.1-7-7-7s-7,3.1-7,7C8.1,13.6,11.1,17.7,15.1,17.7z M18.3,19.6c-1-0.1-2-0.2-3.2-0.2c-4.9,0-8.3,1-10.2,1.9c-1.3,0.6-2.1,1.8-2.1,3.2v4.6c0,0.5,0.4,0.9,0.9,0.9h16.7c-2.2-1.2-3.6-3.5-3.6-6.1C16.8,22.2,17.4,20.8,18.3,19.6z"/>
    <path d="M30.6,29.3l-2.5-2.5c0.6-0.9,1-1.9,1-3c0-2.9-2.4-5.2-5.2-5.2s-5.2,2.4-5.2,5.2s2.4,5.2,5.2,5.2c1.1,0,2.2-0.4,3-1l2.5,2.5c0.2,0.2,0.4,0.3,0.6,0.3c0.2,0,0.4-0.1,0.6-0.3C30.9,30.2,30.9,29.7,30.6,29.3L30.6,29.3z M20.3,23.8c0-1.9,1.6-3.5,3.5-3.5s3.5,1.6,3.5,3.5s-1.6,3.5-3.5,3.5S20.3,25.8,20.3,23.8z"/>
</svg>
