<svg viewBox="0 0 512 512" xmlns="http://www.w3.org/2000/svg">
<path d="M256 277.333C270.721 277.333 285.21 278.327 299.403 280.252C284.723 290.806 272.369 304.392 263.257 320.093C260.846 320.031 258.426 320 256 320C207.674 320 162.355 332.324 122.884 353.967C114.195 358.731 106.667 370.234 106.667 387.011C106.667 397.13 114.87 405.333 124.989 405.333H247.77C250.307 420.644 255.562 435.037 263.022 448H124.989C91.3059 448 64 420.694 64 387.011C64 358.238 77.1415 330.389 102.37 316.555C147.97 291.552 200.325 277.333 256 277.333Z" fill="black"/>
<path fill-rule="evenodd" clip-rule="evenodd" d="M256 234.667C303.128 234.667 341.333 196.462 341.333 149.333C341.333 102.205 303.128 64 256 64C208.872 64 170.667 102.205 170.667 149.333C170.667 196.462 208.872 234.667 256 234.667ZM256 192C279.564 192 298.667 172.897 298.667 149.333C298.667 125.769 279.564 106.667 256 106.667C232.436 106.667 213.333 125.769 213.333 149.333C213.333 172.897 232.436 192 256 192Z" fill="black"/>
<path fill-rule="evenodd" clip-rule="evenodd" d="M363.981 298.917C359.917 298.917 356.418 301.788 355.621 305.776L352.915 319.322C343.757 322.306 335.449 327.178 328.451 333.478L315.36 329.045C311.51 327.741 307.277 329.339 305.245 332.862L295.184 350.305C293.152 353.828 293.887 358.296 296.939 360.982L307.309 370.104C306.348 374.668 305.843 379.4 305.843 384.25C305.843 389.1 306.348 393.832 307.309 398.396L296.939 407.518C293.887 410.204 293.152 414.672 295.184 418.195L305.245 435.638C307.277 439.161 311.51 440.759 315.36 439.455L328.451 435.022C335.449 441.322 343.757 446.194 352.915 449.178L355.621 462.724C356.418 466.712 359.917 469.583 363.981 469.583H384.103C388.166 469.583 391.665 466.712 392.462 462.724L395.168 449.178C404.327 446.194 412.634 441.322 419.632 435.022L432.724 439.455C436.573 440.759 440.806 439.161 442.838 435.638L452.899 418.195C454.931 414.672 454.196 410.204 451.144 407.518L440.774 398.396C441.735 393.832 442.24 389.1 442.24 384.25C442.24 379.4 441.735 374.668 440.774 370.104L451.144 360.982C454.196 358.296 454.931 353.828 452.899 350.305L442.838 332.862C440.806 329.339 436.573 327.741 432.724 329.045L419.632 333.478C412.634 327.178 404.327 322.306 395.168 319.322L392.462 305.776C391.665 301.788 388.166 298.917 384.103 298.917H363.981ZM408.141 384.25C408.141 403.101 392.874 418.383 374.042 418.383C355.209 418.383 339.942 403.101 339.942 384.25C339.942 365.399 355.209 350.117 374.042 350.117C392.874 350.117 408.141 365.399 408.141 384.25Z" fill="black"/>
</svg>
