<svg viewBox="0 0 512 512" xmlns="http://www.w3.org/2000/svg">
<path d="M256 234.667C303.128 234.667 341.333 196.462 341.333 149.333C341.333 102.205 303.128 64 256 64C208.872 64 170.667 102.205 170.667 149.333C170.667 196.462 208.872 234.667 256 234.667Z" fill="black"/>
<path d="M64 387.011C64 358.238 77.1415 330.389 102.37 316.555C147.97 291.552 200.325 277.333 256 277.333C311.675 277.333 364.03 291.552 409.63 316.556C434.859 330.389 448 358.239 448 387.011C448 420.694 420.694 448 387.011 448H124.989C91.3059 448 64 420.694 64 387.011Z" fill="black"/>
</svg>
