<svg viewBox="0 0 512 512" xmlns="http://www.w3.org/2000/svg">
<path d="M341.334 149.333C341.334 196.462 303.128 234.667 256 234.667C208.872 234.667 170.667 196.462 170.667 149.333C170.667 102.205 208.872 64 256 64C303.128 64 341.334 102.205 341.334 149.333Z" fill="black"/>
<path d="M416.958 326.77C424.679 335.014 425.25 347.436 419.298 357.035C385.443 411.636 324.968 448 256 448C187.032 448 126.557 411.636 92.7028 357.035C86.7506 347.435 87.3214 335.014 95.0426 326.77C103.378 317.87 113.397 310.497 125.109 305.241C165.064 287.308 209.367 277.333 256 277.333C302.633 277.333 346.936 287.308 386.892 305.241C398.603 310.497 408.623 317.87 416.958 326.77Z" fill="black"/>
</svg>
