<svg xmlns="http://www.w3.org/2000/svg" viewBox="0 0 512 512" aria-labelledby="profile settings">
  <path d="M189.57,196.86a76.29,76.29,0,1,0-76.29-76.28,76,76,0,0,0,76.29,76.28Z"/><path d="M245.76,273.79a41.45,41.45,0,0,1,22.78-18.56A40.64,40.64,0,0,1,289.92,254c-31.74-15-71.94-22.53-100.35-22.53-53.89,0-150.15,27.14-150.15,80.9v33a18.94,18.94,0,0,0,5.51,13.44,18.44,18.44,0,0,0,13.31,5.51h178a41.93,41.93,0,0,1,6.91-6.53l4.35-3.33-4.35-3.2a41.49,41.49,0,0,1-11-54.27Z"/><path d="M457.86,381.31,438,366.46l.38-7.93c.13-2.69.13-5.38,0-8.19L438,342.4l20-14.85a12.71,12.71,0,0,0,4.61-7.17,12.56,12.56,0,0,0-1.41-8.44l-13.69-23.3a11.63,11.63,0,0,0-6.66-5.38,12.79,12.79,0,0,0-8.7.39l-22.91,9.6L402.69,289c-2.43-1.53-4.87-3.07-7.43-4.35l-7-3.45-3.07-24.45A12.39,12.39,0,0,0,373,246.14H345.73a11.45,11.45,0,0,0-7.94,3.08,11.69,11.69,0,0,0-4.09,7.55l-3.08,24.45-2.17,1-4.87,2.43C321,286,318.46,287.49,316,289l-6.53,4.23-23-9.6a12.39,12.39,0,0,0-8.57-.39,12.05,12.05,0,0,0-6.66,5.38l-13.57,23.3a11.88,11.88,0,0,0,3.2,15.61L280.7,342.4l-.38,7.94c-.13,2.68-.13,5.5,0,8.19l.26,5.76.12,2.17-19.84,14.85a12,12,0,0,0-3.2,15.62l13.57,23.29a12.43,12.43,0,0,0,15.36,5.12l23-9.6,6.53,4.23a70.29,70.29,0,0,0,7.42,4.22l7,3.59,3.08,24.44a12.15,12.15,0,0,0,4,7.56,12.53,12.53,0,0,0,8.07,2.94H373a12.53,12.53,0,0,0,8.07-2.94,12.15,12.15,0,0,0,4-7.56l3.2-24.44,7-3.59c2.56-1.28,5-2.69,7.43-4.22l6.53-4.23,22.91,9.6a12.43,12.43,0,0,0,15.36-5.12l13.57-23.16a12.1,12.1,0,0,0-3.2-15.75Zm-101,12.55a36.91,36.91,0,0,1-36.09-29.57,35,35,0,0,1-.77-7.43,36.93,36.93,0,1,1,36.86,37Z"/>
</svg>
