<svg xmlns="http://www.w3.org/2000/svg" viewBox="0 0 512 512">
<path d="M277.325 272.15C277.304 272.211 277.304 272.24 277.304 272.24L277.314 272.212L277.325 272.15Z" fill="black"/>
<path fill-rule="evenodd" clip-rule="evenodd" d="M256 42.6667C138.179 42.6667 42.6667 138.179 42.6667 256C42.6667 373.821 138.179 469.333 256 469.333C373.821 469.333 469.333 373.821 469.333 256C469.333 138.179 373.821 42.6667 256 42.6667ZM256 192C242.9 192 234.667 201.633 234.667 210.667C234.667 222.449 225.115 232 213.333 232C201.551 232 192 222.449 192 210.667C192 175.517 221.972 149.333 256 149.333C290.028 149.333 320 175.517 320 210.667C320 234.571 305.856 254.61 286.335 264.687C282.744 266.541 280.036 268.638 278.472 270.443C277.683 271.354 277.414 271.904 277.333 272.126V277.333C277.333 289.115 267.782 298.667 256 298.667C244.218 298.667 234.667 289.115 234.667 277.333V272C234.667 247.466 254.79 232.954 266.764 226.773C273.611 223.239 277.333 216.976 277.333 210.667C277.333 201.633 269.1 192 256 192ZM277.333 341.333C277.333 353.115 267.782 362.667 256 362.667C244.218 362.667 234.667 353.115 234.667 341.333C234.667 329.551 244.218 320 256 320C267.782 320 277.333 329.551 277.333 341.333Z" fill="black"/>
</svg>
