<svg xmlns="http://www.w3.org/2000/svg" width="32" height="32" viewBox="0 0 32 32">
    <path d="M11.8 26h-1.5c-1 0-2 .8-2 2v2c0 1 1 2 2 2h1.5c1 0 2-1 2-2v-2c0-1.2-1-2-2-2zM1 9.4l2.8.3c1 .2 1.8-.4 2-1.2.5-1 1-2 1.8-2.6 1-1 2.3-1.4 4-1.4 1.5 0 2.7.5 3.7 1.3 1 .7 1.4 1.7 1.4 3 0 .8-.3 1.5-.8 2.2-.4.5-1.5 1.4-3.3 3-1.7 1.3-3 2.6-3.5 3.7-.6 1-.8 2.4-1 3.7 0 1.2 1 2 2 2H12c1 0 1.8-.7 2-1.7 0-.7 0-1.3.2-1.7.3-.6 1-1.5 2.4-2.5 2.5-2 4-3.7 5-5 .6-1 1-2.4 1-3.7 0-2.3-1-4.4-3-6.3C17.5 1 14.5 0 11 0c-3.3 0-6 1-8 2.7C1.5 4.2.4 6 0 8c0 .7.3 1.3 1 1.4z"/>
</svg>
