<svg xmlns="http://www.w3.org/2000/svg" viewBox="0 0 512 512">
<path fill-rule="evenodd" clip-rule="evenodd" d="M149.333 64C102.205 64 64 102.205 64 149.333V362.667C64 409.795 102.205 448 149.333 448H362.667C409.795 448 448 409.795 448 362.667V149.333C448 102.205 409.795 64 362.667 64H149.333ZM106.667 170.667C106.667 158.885 116.218 149.333 128 149.333H213.333C225.115 149.333 234.667 158.885 234.667 170.667C234.667 182.449 225.115 192 213.333 192H128C116.218 192 106.667 182.449 106.667 170.667ZM320 210.667C320 201.633 328.233 192 341.333 192C354.433 192 362.667 201.633 362.667 210.667C362.667 216.976 358.944 223.239 352.098 226.773C340.123 232.954 320 247.465 320 272V277.333C320 289.115 329.551 298.667 341.333 298.667C353.115 298.667 362.667 289.115 362.667 277.333V272.126C362.747 271.904 363.016 271.354 363.806 270.443C365.369 268.638 368.077 266.54 371.668 264.687C391.19 254.61 405.333 234.571 405.333 210.667C405.333 175.517 375.362 149.333 341.333 149.333C307.305 149.333 277.333 175.517 277.333 210.667C277.333 222.449 286.885 232 298.667 232C310.449 232 320 222.449 320 210.667ZM341.333 362.667C353.115 362.667 362.667 353.115 362.667 341.333C362.667 329.551 353.115 320 341.333 320C329.551 320 320 329.551 320 341.333C320 353.115 329.551 362.667 341.333 362.667ZM128 234.667C116.218 234.667 106.667 244.218 106.667 256C106.667 267.782 116.218 277.333 128 277.333H213.333C225.115 277.333 234.667 267.782 234.667 256C234.667 244.218 225.115 234.667 213.333 234.667H128ZM106.667 341.333C106.667 329.551 116.218 320 128 320H256C267.782 320 277.333 329.551 277.333 341.333C277.333 353.115 267.782 362.667 256 362.667H128C116.218 362.667 106.667 353.115 106.667 341.333Z" fill="black"/>
</svg>
