<svg width="32" height="32" viewBox="0 0 32 32" xmlns="http://www.w3.org/2000/svg">
  <title>question</title>
  <path d="M16.5 26H15c-1 0-2 .8-2 2v2c0 1 1 2 2 2h1.5c1 0 2-1 2-2v-2c0-1.2-1-2-2-2zM5.7 9.4l2.8.3c1 .2 1.8-.4 2-1.2.5-1 1-2 1.8-2.6 1-1 2.3-1.5 4-1.5 1.5 0 2.7.5 3.7 1.3 1 .7 1.4 1.7 1.4 3 0 .8-.3 1.5-.8 2.2-.4.5-1.5 1.4-3.3 3-1.7 1.3-3 2.6-3.5 3.7-.6 1-.8 2.4-1 3.7 0 1.2 1 2 2 2h2c1 0 1.7-.7 2-1.7V20c.4-.6 1-1.5 2.5-2.5 2.5-2 4-3.7 5-5 .6-1 1-2.4 1-3.7 0-2.3-1-4.4-3-6.3-2-1.5-5-2.5-8.6-2.5-3.3 0-6 1-8 2.7C6.2 4.2 5 6 4.7 8c0 .7.3 1.3 1 1.4z"/>
</svg>
