<svg xmlns="http://www.w3.org/2000/svg" width="32" height="32" viewBox="0 0 32 32">
    <path d="M11.8370431,25.895655 L10.2928953,25.895655 C9.20542095,25.895655 8.32164271,26.7794332 8.32164271,27.8669077 L8.32164271,29.9991458 C8.32164271,31.08662 9.20542095,31.9703983 10.2928953,31.9703983 L11.8370431,31.9703983 C12.9245503,31.9703983 13.8082957,31.08662 13.8082957,29.9991458 L13.8082957,27.8669077 C13.8082957,26.7761807 12.9245503,25.895655 11.8370431,25.895655 Z" id="Shape"></path>
    <path d="M0.94915811,9.38973306 L3.79761807,9.74455851 C4.70110884,9.85626283 5.55860369,9.33716632 5.88386037,8.4862423 C6.294538,7.41190965 6.86620122,6.56427104 7.59885011,5.94661192 C8.63707597,5.07268994 9.92821355,4.63244354 11.4723614,4.63244354 C13.0723614,4.63244354 14.3471047,5.05297741 15.293306,5.89075976 C16.2395072,6.73182752 16.7093224,7.73716632 16.7093224,8.91663245 C16.7093224,9.76427104 16.4432033,10.5396304 15.9109651,11.2427105 C15.5659959,11.6895277 14.5048049,12.6291581 12.733963,14.0648871 C10.9598357,15.500616 9.78040247,16.795039 9.18902669,17.9449363 C8.58450923,19.1211499 8.3742423,20.4254291 8.32167556,21.7330596 C8.27571253,22.853388 9.16931416,23.7864476 10.2929281,23.7864476 L11.9027844,23.7864476 C12.9278357,23.7864476 13.7754743,23.001232 13.8674661,21.9827516 C13.9331745,21.2501355 14.0547351,20.6948994 14.2387515,20.317076 C14.5475483,19.6698152 15.3459055,18.8156057 16.6272197,17.7511622 C19.1076796,15.6977413 20.7241067,14.0747433 21.4830718,12.8788501 C22.2387187,11.6862423 22.6198276,10.4213552 22.6198276,9.08418891 C22.6198276,6.66940452 21.5914908,4.55030801 19.5315319,2.73018481 C17.4748583,0.910061602 14.701963,0 11.2194168,0 C7.90771253,0 5.2366653,0.896919917 3.19970432,2.69404518 C1.46500205,4.22505133 0.410381929,6.03860369 0.0391293634,8.13141685 C-0.0758932239,8.74250513 0.341355236,9.31416838 0.94915811,9.38973306 Z" id="Shape"></path>
</svg>
