<svg xmlns="http://www.w3.org/2000/svg" viewBox="0 0 512 512">
  <title>quote</title>
  <path fill-rule="nonzero" d="M115.4318318 429.031549c-.3789261-.220196-.6136696-.639319-.6136696-1.093472v-57.000691c0-.370329.1572901-.723143.4277813-.959603 4.630525-4.057358 9.1704889-8.423741 13.4923916-12.972787 15.4132369-16.194401 28.1406269-34.576999 37.8640149-54.673621-9.079928 2.886317-18.513759 4.348868-28.0834311 4.348868-7.6952985 0-15.3619988-.959604-22.7903808-2.850035C72.3188565 292.809157 42 252.30814 42 205.340121 42 149.4616789 85.2988637 104 138.5189189 104c10.5241371 0 20.8838341 1.76907323 30.7883431 5.25717518 39.316565 13.89485662 65.730576 52.50794502 65.730576 96.08294582 0 .658086 0 1.317422-.011916 1.975507-.425398 61.423374-21.439116 121.063912-59.169672 167.920581-17.001629 21.097512-36.9250404 39.186098-59.2161443 53.764062-.1930378.125111-.4110991.188918-.6303519.188918-.1989958 0-.3979916-.052547-.577922-.15764zm235.9351352 0c-.378926-.220196-.61367-.639319-.61367-1.093472v-57.000691c0-.370329.15729-.723143.427782-.959603 4.630525-4.057358 9.170489-8.423741 13.492391-12.972787 15.413238-16.194401 28.140627-34.576999 37.864015-54.673621-9.079928 2.886317-18.513759 4.348868-28.083431 4.348868-7.695298 0-15.361999-.959604-22.790381-2.850035-43.409681-11.021051-73.728538-51.522068-73.728538-98.490087C277.935135 149.4616789 321.233999 104 374.454054 104c10.524137 0 20.883834 1.76907323 30.788344 5.25717518 39.316564 13.89485662 65.730575 52.50794502 65.730575 96.08294582 0 .658086 0 1.317422-.011916 1.975507-.425398 61.423374-21.439116 121.063912-59.169672 167.920581-17.001629 21.097512-36.92504 39.186098-59.216144 53.764062-.193038.125111-.411099.188918-.630352.188918-.198996 0-.397992-.052547-.577922-.15764z"/>
</svg>
