<svg xmlns="http://www.w3.org/2000/svg" viewBox="0 0 512 512">
<path d="M64 192C64 156.654 92.6538 128 128 128H170.667C206.013 128 234.667 156.654 234.667 192V298.667C234.667 357.577 186.91 405.333 128 405.333C116.218 405.333 106.667 395.782 106.667 384C106.667 372.218 116.218 362.667 128 362.667C156.01 362.667 179.818 344.673 188.493 319.614C192.348 308.48 182.449 298.667 170.667 298.667H128C92.6538 298.667 64 270.013 64 234.667V192Z" fill="black"/>
<path d="M277.333 192C277.333 156.654 305.987 128 341.333 128H384C419.346 128 448 156.654 448 192V298.667C448 357.577 400.244 405.333 341.333 405.333C329.551 405.333 320 395.782 320 384C320 372.218 329.551 362.667 341.333 362.667C369.343 362.667 393.151 344.673 401.827 319.614C405.681 308.48 395.782 298.667 384 298.667H341.333C305.987 298.667 277.333 270.013 277.333 234.667V192Z" fill="black"/>
</svg>
