<svg xmlns="http://www.w3.org/2000/svg" viewBox="0 0 512 512">
<path d="M224 64.0001C224 75.7822 233.551 85.3334 245.333 85.3334H266.667V107.908C225.904 112.685 189.274 130.982 161.381 158.194C147.821 171.423 158.711 192 177.655 192C184.224 192 190.438 189.242 195.323 184.85C219.883 162.769 252.372 149.333 288 149.333C364.583 149.333 426.666 211.417 426.666 288C426.666 364.584 364.583 426.667 288 426.667C252.715 426.667 220.508 413.488 196.033 391.784C186.657 383.469 172.121 382.545 163.26 391.407C155.513 399.154 154.915 411.652 162.841 419.215C195.386 450.267 239.466 469.333 288 469.333C388.147 469.333 469.333 388.148 469.333 288C469.333 195.07 399.427 118.467 309.333 107.908V85.3334L330.667 85.3334C342.449 85.3334 352 75.7822 352 64.0001C352 52.218 342.449 42.6667 330.667 42.6667H245.333C233.551 42.6667 224 52.218 224 64.0001Z" fill="black"/>
<path d="M266.667 224C266.667 212.218 276.218 202.667 288 202.667C299.782 202.667 309.334 212.218 309.334 224V266.667H320C331.782 266.667 341.334 276.218 341.334 288C341.334 299.782 331.782 309.333 320 309.333H288C276.218 309.333 266.667 299.782 266.667 288V224Z" fill="black"/>
<path d="M64.0003 234.667C52.2183 234.667 42.667 244.218 42.667 256C42.667 267.782 52.2183 277.333 64.0003 277.333H170.667C182.449 277.333 192 267.782 192 256C192 244.218 182.449 234.667 170.667 234.667H64.0003Z" fill="black"/>
<path d="M42.667 341.333C42.667 329.551 52.2183 320 64.0003 320H128C139.782 320 149.334 329.551 149.334 341.333C149.334 353.115 139.782 362.667 128 362.667H64.0003C52.2183 362.667 42.667 353.115 42.667 341.333Z" fill="black"/>
</svg>
