<svg xmlns="http://www.w3.org/2000/svg" viewBox="0 0 512 512">
<path d="M150.405 150.405C127.944 172.867 114.129 200.692 108.97 229.775L115.502 223.244C123.833 214.913 137.341 214.913 145.672 223.244C154.003 231.575 154.003 245.083 145.672 253.414L100.417 298.669C92.0858 307 78.5783 307 70.2471 298.669L24.9923 253.414C16.6611 245.083 16.6611 231.575 24.9923 223.244C33.3235 214.913 46.831 214.913 55.1622 223.244L65.328 233.41C70.202 192.066 88.4994 151.971 120.235 120.236C195.216 45.2548 316.784 45.2548 391.764 120.236C466.745 195.216 466.745 316.784 391.764 391.765C316.784 466.745 195.216 466.745 120.235 391.765C111.904 383.433 111.904 369.926 120.235 361.595C128.567 353.263 142.074 353.263 150.405 361.595C208.724 419.913 303.276 419.913 361.594 361.595C419.913 303.276 419.913 208.724 361.594 150.405C303.276 92.0871 208.724 92.0871 150.405 150.405Z" fill="black"/>
<path fill-rule="evenodd" clip-rule="evenodd" d="M255.994 192C242.894 192 234.661 201.633 234.661 210.667C234.661 222.449 225.109 232 213.327 232C201.545 232 191.994 222.449 191.994 210.667C191.994 175.517 221.966 149.333 255.994 149.333C290.022 149.333 319.994 175.517 319.994 210.667C319.994 234.571 305.85 254.61 286.329 264.687C282.738 266.54 280.03 268.638 278.466 270.443C277.677 271.354 277.408 271.904 277.327 272.126V277.333C277.327 289.115 267.776 298.667 255.994 298.667C244.212 298.667 234.661 289.115 234.661 277.333V272C234.661 247.465 254.784 232.954 266.758 226.773C273.605 223.239 277.327 216.976 277.327 210.667C277.327 201.633 269.094 192 255.994 192ZM277.319 272.15C277.298 272.211 277.298 272.24 277.298 272.24L277.313 272.186L277.319 272.15Z" fill="black"/>
<path d="M277.327 341.333C277.327 353.115 267.776 362.667 255.994 362.667C244.212 362.667 234.661 353.115 234.661 341.333C234.661 329.551 244.212 320 255.994 320C267.776 320 277.327 329.551 277.327 341.333Z" fill="black"/>
</svg>
