<svg xmlns="http://www.w3.org/2000/svg" viewBox="0 0 512 512">
  <title>
    recent questions
  </title>
  <path d="M376.75 177.92a171.95 171.95 0 0 0-99.42-48.43V85.33h21.34a21.33 21.33 0 0 0 0-42.66h-85.34a21.33 21.33 0 0 0 0 42.66h21.34v44.16a171.95 171.95 0 0 0-99.42 48.43 21.42 21.42 0 0 0 30.3 30.3 128 128 0 1 1 0 180.9 21.42 21.42 0 0 0-30.3 30.3c66.69 66.68 174.81 66.68 241.5 0 66.68-66.7 66.68-174.81 0-241.5z"/>
  <path d="M213.33 341.33A21.33 21.33 0 0 0 192 320H64a21.33 21.33 0 0 0 0 42.67h128a21.33 21.33 0 0 0 21.33-21.34zM64 277.33h170.67a21.33 21.33 0 1 0 0-42.66H64a21.33 21.33 0 1 0 0 42.66z"/>
</svg>
