<svg xmlns="http://www.w3.org/2000/svg" viewBox="0 0 512 512">
<path fill-rule="evenodd" clip-rule="evenodd" d="M384 128H128C104.436 128 85.3332 147.103 85.3332 170.667V341.334C85.3332 364.898 104.436 384 128 384H384C407.564 384 426.666 364.898 426.666 341.334V170.667C426.666 147.103 407.564 128 384 128ZM128 85.3335C80.8715 85.3335 42.6665 123.539 42.6665 170.667V341.334C42.6665 388.462 80.8715 426.667 128 426.667H384C431.128 426.667 469.333 388.462 469.333 341.334V170.667C469.333 123.539 431.128 85.3335 384 85.3335H128Z" fill="black"/>
</svg>
