<svg xmlns="http://www.w3.org/2000/svg" height="32" width="32" preserveAspectRatio="xMidYMid" xmlns:xlink="http://www.w3.org/1999/xlink" viewBox="0 0 32 32">
    <title>reload</title>
    <path d="M31.6,14.4l-5.3,5.5c-0.3,0.3-0.7,0.5-1.1,0.5s-0.8-0.2-1.1-0.5l-5.3-5.5c-0.6-0.6-0.6-1.6,0-2.2
	c0.6-0.6,1.6-0.6,2.2,0l2.9,3.1C23.6,9.6,19.1,5.1,13.5,5.1C7.7,5.1,3,10,3,16c0,6,4.7,10.9,10.5,10.9c2.1,0,4.2-0.7,5.9-1.9
	c0.7-0.5,1.6-0.3,2.1,0.4c0.5,0.7,0.3,1.7-0.4,2.2c-2.3,1.6-4.9,2.5-7.7,2.5C6.1,30,0,23.7,0,16C0,8.3,6.1,2,13.5,2
	c7,0,12.8,5.6,13.5,12.7l2.4-2.5c0.6-0.6,1.6-0.6,2.2,0C32.1,12.8,32.2,13.8,31.6,14.4"/>
</svg>
