<svg xmlns="http://www.w3.org/2000/svg" viewBox="0 0 512 512">
<path d="M170.578 133.491C194.791 116.573 224.235 106.667 256 106.667C338.475 106.667 405.333 173.525 405.333 256C405.333 338.475 338.475 405.333 256 405.333C173.525 405.333 106.667 338.475 106.667 256C106.667 244.218 97.1154 234.667 85.3333 234.667C73.5513 234.667 64 244.218 64 256C64 362.039 149.961 448 256 448C362.039 448 448 362.039 448 256C448 149.961 362.039 64 256 64C211.119 64 169.829 79.413 137.148 105.201V90.8242C137.148 79.0421 127.597 69.4909 115.815 69.4909C104.033 69.4909 94.4818 79.0421 94.4818 90.8242V154.824C94.4818 166.606 104.033 176.158 115.815 176.158H179.815C191.597 176.158 201.148 166.606 201.148 154.824C201.148 143.042 191.597 133.491 179.815 133.491H170.578Z" fill="black"/>
</svg>
