<svg viewBox="0 0 512 512" xmlns="http://www.w3.org/2000/svg">
<path fill-rule="evenodd" clip-rule="evenodd" d="M85.333 85.3333C85.333 61.7692 104.436 42.6667 128 42.6667H289.82C313.87 42.6667 332.55 62.3204 332.501 85.3333C332.495 88.0838 332.222 90.8823 331.658 93.701L324.798 128H383.841C417.005 128 437.49 164.18 420.427 192.618L395.198 234.667L420.427 276.715C437.49 305.153 417.005 341.333 383.841 341.333H265.91C241.86 341.333 223.18 321.68 223.229 298.667C223.235 295.916 223.508 293.118 224.072 290.299L230.931 256H128L128 448C128 459.782 118.448 469.333 106.666 469.333C94.8843 469.333 85.333 459.782 85.333 448V85.3333Z" fill="black"/>
</svg>
