<svg xmlns="http://www.w3.org/2000/svg" viewBox="0 0 512 512">
  <title>
    report flag outlined
  </title>
  <path d="M405.329927,128.002982 L307.199952,128.002982 L302.079954,102.403223 C300.069351,92.4609774 291.323545,85.3179371 281.179959,85.3333583 L127.999998,85.3333583 C116.231829,85.371831 106.702935,94.9051049 106.670003,106.673183 L106.670003,426.670176 C106.670003,438.450299 116.219767,447.999975 127.999998,447.999975 C139.780229,447.999975 149.329992,438.450299 149.329992,426.670176 L149.329992,298.671378 L268.799962,298.671378 L273.919961,324.271138 C275.858991,334.254908 284.65003,341.430685 294.819955,341.330978 L405.329927,341.330978 C417.098113,341.298046 426.631474,331.769239 426.669922,320.001178 L426.669922,149.332782 C426.631474,137.564721 417.098113,128.035914 405.329927,128.002982 Z M257.243428,128.005313 C266.975237,128.005313 275.47353,134.591355 277.901919,144.015316 L284.97843,171.477452 L363.856294,171.477452 C375.638368,171.477452 385.189627,181.028711 385.189627,192.810785 L385.189627,277.33098 C385.189627,289.113055 375.638368,298.664313 363.856294,298.664313 L326.508919,298.664313 C316.754123,298.664313 308.241901,292.047746 305.835114,282.594523 L299.065511,256.005313 L255.996659,256.005313 C244.214584,256.005313 234.663326,246.454055 234.663326,234.67198 L234.663326,147.561861 C234.663326,136.761078 243.419091,128.005313 254.219874,128.005313 L257.243428,128.005313 Z M170.664987,127.997982 C182.447979,127.997982 191.999982,137.549897 191.999982,149.332782 L191.999982,234.67198 C191.999982,246.454864 182.447979,256.006779 170.664987,256.006779 C158.881995,256.006779 149.329992,246.454864 149.329992,234.67198 L149.329992,149.332782 C149.329992,137.549897 158.881995,127.997982 170.664987,127.997982 Z" fill="#000" fill-rule="nonzero"/>
</svg>
