<svg viewBox="0 0 512 512" xmlns="http://www.w3.org/2000/svg">
<path fill-rule="evenodd" clip-rule="evenodd" d="M85.333 85.3333C85.333 61.7692 104.436 42.6667 128 42.6667L289.976 42.6667C314.026 42.6667 332.706 62.3204 332.657 85.3333C332.651 88.0838 332.378 90.8823 331.814 93.701L324.954 128H383.997C417.161 128 437.646 164.18 420.583 192.618L395.354 234.667L420.583 276.715C437.646 305.153 417.161 341.333 383.997 341.333H266.066C242.016 341.333 223.336 321.68 223.385 298.667C223.391 295.916 223.664 293.118 224.228 290.299L231.087 256H128L128 448C128 459.782 118.448 469.333 106.666 469.333C94.8843 469.333 85.333 459.782 85.333 448V85.3333ZM374.304 282.512C378.57 289.622 373.448 298.667 365.157 298.667H266.066L278.029 238.85C280.669 225.65 270.572 213.333 257.11 213.333H149.333C137.551 213.333 128 203.782 128 192V106.667C128 94.8846 137.551 85.3333 149.333 85.3333L289.976 85.3333L278.013 145.15C275.372 158.35 285.469 170.667 298.932 170.667L365.157 170.667C373.448 170.667 378.57 179.712 374.304 186.821L345.597 234.667L374.304 282.512Z" fill="black"/>
</svg>
