<svg xmlns="http://www.w3.org/2000/svg" viewBox="0 0 512 512">
<path d="M144.276 138.667C176.724 118.369 215.001 106.667 255.998 106.667C317.169 106.667 372.284 132.72 411.018 174.503C419.028 183.144 432.526 183.655 441.167 175.645C449.807 167.635 450.318 154.137 442.308 145.497C395.868 95.3999 329.576 64 255.998 64C200.272 64 148.725 82.0119 106.816 112.517V96C106.816 84.2179 97.2316 74.6667 85.4082 74.6667C73.5848 74.6667 64 84.2179 64 96V159.991C64 161.943 64.2629 163.841 64.7554 165.637C65.7688 169.351 67.7994 172.835 70.8302 175.645C74.9539 179.468 80.184 181.35 85.3959 181.333L149.259 181.333C161.082 181.333 170.667 171.782 170.667 160C170.667 148.218 161.082 138.667 149.259 138.667H144.276Z" fill="black"/>
<path fill-rule="evenodd" clip-rule="evenodd" d="M448 252.927C448 276.491 428.897 295.594 405.333 295.594C381.769 295.594 362.667 276.491 362.667 252.927C362.667 229.363 381.769 210.26 405.333 210.26C428.897 210.26 448 229.363 448 252.927ZM419.556 252.927C419.556 260.782 413.188 267.149 405.333 267.149C397.479 267.149 391.111 260.782 391.111 252.927C391.111 245.072 397.479 238.705 405.333 238.705C413.188 238.705 419.556 245.072 419.556 252.927Z" fill="black"/>
<path fill-rule="evenodd" clip-rule="evenodd" d="M118.515 401.778C105.184 400.367 89.5895 403.315 83.1758 415.086C77.6698 425.191 80.7652 438.005 91.6256 441.811C102.458 445.606 114.735 447.743 126.72 447.743C179.712 447.743 216.32 416.511 216.32 359.423C216.32 309.503 190.976 271.359 134.912 271.359C94.464 271.359 64 295.679 64 332.799C64 369.151 93.696 389.375 124.416 389.375C140.032 389.375 155.392 383.231 164.096 371.967V372.735C164.096 389.375 148.48 402.175 126.72 402.175C123.823 402.175 121.104 402.053 118.515 401.778ZM137.984 316.927C156.16 316.927 163.328 327.167 164.352 338.687C157.44 344.063 148.992 345.599 140.288 345.599C130.048 345.599 116.48 341.759 116.48 330.751C116.48 323.583 125.184 316.927 137.984 316.927Z" fill="black"/>
<path fill-rule="evenodd" clip-rule="evenodd" d="M301.141 271.615C250.197 271.615 225.365 313.343 225.365 359.679C225.365 406.015 250.197 447.999 301.141 447.999C352.085 447.999 376.917 406.015 376.917 359.679C376.917 313.343 352.085 271.615 301.141 271.615ZM301.141 317.183C317.525 317.183 324.949 330.751 324.949 359.679C324.949 388.607 317.525 402.431 301.141 402.431C284.757 402.431 277.333 388.607 277.333 359.679C277.333 330.751 284.757 317.183 301.141 317.183Z" fill="black"/>
</svg>
