<svg xmlns="http://www.w3.org/2000/svg" viewBox="0 0 512 512">
  <title>rotate 90</title>
  <path fill-rule="nonzero" d="M315.004188 107.011803c-40.680408-59.3983912-118.01328-81.2119634-183.736433-51.8272225C65.544603 84.5693215 30.2335157 156.74587 47.3715668 226.67002 64.509618 296.59417 129.193885 344.261737 201.055971 339.924171c71.862087-4.337566 130.343397-59.439357 138.946699-130.917244 1.104503-11.873555 11.625173-20.603585 23.498574-19.499068 11.873402 1.104517 20.603319 11.625322 19.498817 23.498877-9.888787 90.942725-82.567661 162.277365-173.678063 170.465797-91.110403 8.188433-175.3437745-49.043917-201.28942794-136.766067C-17.9130834 158.984316 21.6361399 65.1397408 102.541912 22.4494942 183.447684-20.2407525 283.236077.08178504 341.00261 71.0135235V43.014862c0-11.8735545 9.625293-21.4989723 21.498695-21.4989723C374.374706 21.5158897 384 31.1413075 384 43.014862v84.995937c0 11.999426-9.999393 20.998996-20.998725 20.998996h-85.994781c-7.502122 0-14.434369-4.002386-18.185431-10.499498-3.751061-6.497112-3.751061-14.501884 0-20.998996 3.751062-6.497113 10.683309-10.499499 18.185431-10.499498h37.997694z"/>
  <path fill-rule="nonzero" d="M141.461333 252.224c29.418667 0 46.293334-21.354667 46.293334-51.370667 0-28.224-12.693334-51.52-42.858667-51.52-22.698667 0-38.229333 14.784-38.229333 34.197334 0 21.205333 16.128 32.405333 34.048 32.405333 10.901333 0 20.906666-6.122667 25.685333-12.842667v2.24c0 14.336-8.512 28.074667-24.938667 28.074667-8.810666 0-14.485333-2.688-19.861333-7.765333L112.192 241.92c7.018667 6.272 17.173333 10.304 29.269333 10.304zm5.226667-54.506667c-9.258667 0-18.368-4.48-18.368-14.933333 0-6.869333 6.272-14.634667 17.621333-14.634667 14.037334 0 19.413334 10.752 20.309334 20.309334-4.778667 5.824-12.096 9.258666-19.562667 9.258666zm92.586667 54.656c28.373333 0 41.216-25.834666 41.216-51.52 0-25.685333-12.842667-51.370666-41.216-51.370666-28.522667 0-41.216 25.685333-41.216 51.370666 0 25.685334 12.693333 51.52 41.216 51.52zm0-18.816c-14.336 0-19.712-14.336-19.712-32.704 0-18.368 5.376-32.554666 19.712-32.554666 14.186666 0 19.562666 14.186666 19.562666 32.554666 0 18.368-5.376 32.704-19.562666 32.704z"/>
</svg>
