<svg xmlns="http://www.w3.org/2000/svg" viewBox="0 0 512 512">
<path d="M255.998 106.667C215.001 106.667 176.724 118.369 144.276 138.667H149.259C161.082 138.667 170.667 148.218 170.667 160C170.667 171.782 161.082 181.333 149.259 181.333L85.3959 181.333C80.184 181.35 74.9539 179.468 70.8302 175.645C67.7994 172.835 65.7688 169.351 64.7554 165.637C64.2629 163.841 64 161.943 64 159.991V96C64 84.2179 73.5848 74.6667 85.4082 74.6667C97.2316 74.6667 106.816 84.2179 106.816 96V112.517C148.725 82.0119 200.272 64 255.998 64C329.576 64 395.867 95.3999 442.308 145.497C450.318 154.137 449.807 167.635 441.167 175.645C432.526 183.655 419.028 183.144 411.018 174.503C372.284 132.72 317.169 106.667 255.998 106.667Z" fill="black"/>
<path fill-rule="evenodd" clip-rule="evenodd" d="M166.572 240.471C143.811 246.57 130.303 269.965 136.402 292.727L169.531 416.365C175.63 439.126 199.025 452.634 221.787 446.535L345.425 413.406C368.186 407.307 381.694 383.912 375.595 361.15L342.466 237.512C336.367 214.751 312.972 201.243 290.21 207.342L166.572 240.471ZM295.278 348.064L289.617 358.205L247.601 317.447C235.887 306.084 216.27 311.547 212.116 327.33L199.493 375.293C195.324 391.134 209.824 405.569 225.646 401.329L317.579 376.696C333.139 372.526 337.391 352.46 324.858 342.339C315.355 334.665 301.231 337.398 295.278 348.064ZM306.775 269.161C309.824 280.542 303.07 292.24 291.69 295.289C280.309 298.339 268.611 291.585 265.562 280.204C262.512 268.824 269.266 257.126 280.647 254.076C292.027 251.027 303.725 257.781 306.775 269.161Z" fill="black"/>
</svg>
