<?xml version="1.0" encoding="UTF-8"?>
<svg width="512px" height="512px" viewBox="0 0 512 512" version="1.1" xmlns="http://www.w3.org/2000/svg" xmlns:xlink="http://www.w3.org/1999/xlink">
    <title>icon-rotation</title>
    <defs>
        <path d="M315.004188,107.011803 C274.32378,47.6134118 196.990908,25.7998396 131.267755,55.1845805 C65.544603,84.5693215 30.2335157,156.74587 47.3715668,226.67002 C64.509618,296.59417 129.193885,344.261737 201.055971,339.924171 C272.918058,335.586605 331.399368,280.484814 340.00267,209.006927 C341.107173,197.133372 351.627843,188.403342 363.501244,189.507859 C375.374646,190.612376 384.104563,201.133181 383.000061,213.006736 C373.111274,303.949461 300.4324,375.284101 209.321998,383.472533 C118.211595,391.660966 33.9782235,334.428616 8.03257006,246.706466 C-17.9130834,158.984316 21.6361399,65.1397408 102.541912,22.4494942 C183.447684,-20.2407525 283.236077,0.0817850358 341.00261,71.0135235 L341.00261,43.014862 C341.00261,31.1413075 350.627903,21.5158897 362.501305,21.5158897 C374.374706,21.5158897 384,31.1413075 384,43.014862 L384,128.010799 C384,140.010225 374.000607,149.009795 363.001275,149.009795 L277.006494,149.009795 C269.504372,149.009795 262.572125,145.007409 258.821063,138.510297 C255.070002,132.013185 255.070002,124.008413 258.821063,117.511301 C262.572125,111.014188 269.504372,107.011802 277.006494,107.011803 L315.004188,107.011803 L315.004188,107.011803 Z" id="path-1"></path>
    </defs>
    <g id="Page-1" stroke="none" stroke-width="1" fill="none" fill-rule="evenodd">
        <g id="icon-rotation">
            <g id="Group" transform="translate(64.000000, 64.000000)">
                <path d="M135.618784,258 C168.270718,258 187,234.339622 187,201.082728 C187,169.811321 172.911601,144 139.430939,144 C114.237568,144 97,160.380261 97,181.889696 C97,205.384616 114.900552,217.793904 134.790055,217.793904 C146.889502,217.793904 157.994474,211.010159 163.298342,203.564586 L163.298342,206.046444 C163.298342,221.930334 153.850828,237.152395 135.618784,237.152395 C125.839779,237.152395 119.541436,234.174166 113.574585,228.548622 L103.132596,246.583454 C110.922652,253.532656 122.193369,258 135.618784,258 Z M141.338582,198 C131.086614,198 121,193 121,181.333334 C121,173.666667 127.944882,165 140.51181,165 C156.055118,165 162.007874,177 163,187.666667 C157.708661,194.166667 149.606299,198 141.338582,198 Z M244.5,258 C275.822463,258 290,229.375908 290,200.917271 C290,172.458636 275.822463,144 244.5,144 C213.012681,144 199,172.458636 199,200.917271 C199,229.375908 213.012681,258 244.5,258 Z M243.581749,237 C227.885932,237 222,221.183066 222,200.91762 C222,180.652173 227.885932,165 243.581749,165 C259.114068,165 265,180.652173 265,200.91762 C265,221.183066 259.114068,237 243.581749,237 Z" id="Shape" fill="#000000" fill-rule="nonzero"></path>
                <g id="icon-rotation-a-link" fill="#000000" fill-rule="nonzero">
                    <path d="M315.004188,107.011803 C274.32378,47.6134118 196.990908,25.7998396 131.267755,55.1845805 C65.544603,84.5693215 30.2335157,156.74587 47.3715668,226.67002 C64.509618,296.59417 129.193885,344.261737 201.055971,339.924171 C272.918058,335.586605 331.399368,280.484814 340.00267,209.006927 C341.107173,197.133372 351.627843,188.403342 363.501244,189.507859 C375.374646,190.612376 384.104563,201.133181 383.000061,213.006736 C373.111274,303.949461 300.4324,375.284101 209.321998,383.472533 C118.211595,391.660966 33.9782235,334.428616 8.03257006,246.706466 C-17.9130834,158.984316 21.6361399,65.1397408 102.541912,22.4494942 C183.447684,-20.2407525 283.236077,0.0817850358 341.00261,71.0135235 L341.00261,43.014862 C341.00261,31.1413075 350.627903,21.5158897 362.501305,21.5158897 C374.374706,21.5158897 384,31.1413075 384,43.014862 L384,128.010799 C384,140.010225 374.000607,149.009795 363.001275,149.009795 L277.006494,149.009795 C269.504372,149.009795 262.572125,145.007409 258.821063,138.510297 C255.070002,132.013185 255.070002,124.008413 258.821063,117.511301 C262.572125,111.014188 269.504372,107.011802 277.006494,107.011803 L315.004188,107.011803 L315.004188,107.011803 Z" id="icon-rotation-a"></path>
                </g>
                <g id="Clipped">
                    <mask id="mask-2" fill="white">
                        <use xlink:href="#path-1"></use>
                    </mask>
                    <g id="icon-rotation-a"></g>
                    <g id="Group" mask="url(#mask-2)" fill="#000000" fill-rule="nonzero">
                        <g transform="translate(-64.000000, -64.000000)" id="Rectangle">
                            <rect x="0" y="0" width="512" height="512"></rect>
                        </g>
                    </g>
                </g>
            </g>
            <rect id="Rectangle" x="0" y="0" width="512" height="512"></rect>
        </g>
    </g>
</svg>