<svg xmlns="http://www.w3.org/2000/svg" viewBox="0 0 512 512">
<path d="M387.117 357.006C408.511 329.898 422.317 296.523 425.328 260.087C412.566 264.355 398.907 266.667 384.708 266.667C383.697 266.667 382.689 266.655 381.684 266.632C371.289 332.778 314.04 383.371 244.975 383.371C168.543 383.371 106.582 321.41 106.582 244.977C106.582 168.544 168.543 106.583 244.975 106.583C250.238 106.583 255.432 106.877 260.542 107.449C264.202 92.8463 270.37 79.2388 278.562 67.1108C267.678 65.0683 256.452 64 244.975 64C145.025 64 64 145.026 64 244.977C64 344.927 145.025 425.953 244.975 425.953C287.279 425.953 326.192 411.438 357.007 387.117L411.654 441.764C419.968 450.079 433.449 450.079 441.764 441.764C450.079 433.449 450.079 419.968 441.764 411.653L387.117 357.006Z" fill="black"/>
<path d="M384.708 74.6667C396.49 74.6667 406.042 84.2179 406.042 96V117.333H427.375C439.157 117.333 448.708 126.885 448.708 138.667C448.708 150.449 439.157 160 427.375 160H406.042V181.333C406.042 193.115 396.49 202.667 384.708 202.667C372.926 202.667 363.375 193.115 363.375 181.333V160H342.042C330.26 160 320.708 150.449 320.708 138.667C320.708 126.885 330.26 117.333 342.042 117.333H363.375V96C363.375 84.2179 372.926 74.6667 384.708 74.6667Z" fill="black"/>
</svg>
