<svg xmlns="http://www.w3.org/2000/svg" viewBox="0 0 512 512">
<path fill-rule="evenodd" clip-rule="evenodd" d="M357.007 387.117C326.192 411.438 287.279 425.953 244.975 425.953C145.025 425.953 64 344.927 64 244.977C64 145.026 145.025 64 244.975 64C344.925 64 425.95 145.026 425.95 244.977C425.95 287.279 411.437 326.191 387.117 357.006L441.764 411.653C450.079 419.968 450.079 433.449 441.764 441.764C433.449 450.079 419.968 450.079 411.654 441.764L357.007 387.117ZM383.368 244.977C383.368 321.41 321.407 383.371 244.975 383.371C168.543 383.371 106.582 321.41 106.582 244.977C106.582 168.544 168.543 106.583 244.975 106.583C321.407 106.583 383.368 168.544 383.368 244.977Z" fill="black"/>
</svg>
