<svg xmlns:xlink="http://www.w3.org/1999/xlink" xmlns="http://www.w3.org/2000/svg" height="32" width="32" preserveAspectRatio="xMidYMid" viewBox="0 0 32 32">
    <title>eye</title>
    <g>
        <path d="M14.61 5.87C8.236 5.87 2.713 9.58 0 15c2.714 5.42 8.237 9.13 14.61 9.13 6.37 0 11.893-3.71 14.607-9.13-2.714-5.42-8.237-9.13-14.608-9.13zm7.202 4.842c1.716 1.095 3.17 2.56 4.264 4.288-1.093 1.727-2.548 3.193-4.264 4.288-2.157 1.376-4.648 2.103-7.203 2.103-2.557 0-5.047-.726-7.204-2.102-1.717-1.095-3.17-2.56-4.264-4.288 1.092-1.727 2.547-3.193 4.264-4.288.11-.072.224-.14.338-.21-.284.78-.44 1.623-.44 2.5 0 4.035 3.27 7.305 7.305 7.305 4.033 0 7.303-3.27 7.303-7.304 0-.878-.155-1.72-.44-2.5.114.068.227.137.34.21zM14.61 12.09c0 1.512-1.228 2.74-2.74 2.74-1.513 0-2.74-1.228-2.74-2.74 0-1.513 1.227-2.74 2.74-2.74 1.512 0 2.74 1.227 2.74 2.74z"/>
    </g>
</svg>
