<svg xmlns="http://www.w3.org/2000/svg" viewBox="0 0 512 512">
<path d="M256 320C291.346 320 320 291.346 320 256C320 220.654 291.346 192 256 192C220.654 192 192 220.654 192 256C192 291.346 220.654 320 256 320Z" fill="black"/>
<path fill-rule="evenodd" clip-rule="evenodd" d="M42.6668 256C71.1554 157.084 155.894 85.3333 256 85.3333C356.106 85.3333 440.845 157.084 469.334 256C440.845 354.916 356.106 426.667 256 426.667C155.894 426.667 71.1552 354.916 42.6668 256ZM362.667 256C362.667 314.91 314.911 362.667 256 362.667C197.09 362.667 149.333 314.91 149.333 256C149.333 197.09 197.09 149.333 256 149.333C314.911 149.333 362.667 197.09 362.667 256Z" fill="black"/>
</svg>
