<svg xmlns="http://www.w3.org/2000/svg" viewBox="0 0 512 512">
<path fill-rule="evenodd" clip-rule="evenodd" d="M213.333 448C213.333 459.782 222.885 469.333 234.667 469.333H277.333C289.115 469.333 298.667 459.782 298.667 448V421.29C314.326 417.259 329.116 411.062 342.697 403.037L361.595 421.934C369.926 430.266 383.433 430.266 391.765 421.934L421.934 391.765C430.266 383.433 430.266 369.926 421.934 361.595L403.037 342.697C411.062 329.116 417.259 314.326 421.29 298.667H448C459.782 298.667 469.333 289.115 469.333 277.333V234.667C469.333 222.885 459.782 213.333 448 213.333H421.29C417.259 197.674 411.062 182.884 403.037 169.303L421.934 150.405C430.266 142.074 430.266 128.567 421.934 120.236L391.765 90.0657C383.433 81.7345 369.926 81.7345 361.595 90.0657L342.697 108.963C329.116 100.938 314.326 94.7406 298.667 90.7102V64.0001C298.667 52.218 289.115 42.6667 277.333 42.6667H234.667C222.885 42.6667 213.333 52.218 213.333 64.0001V90.7102C197.674 94.7406 182.884 100.938 169.303 108.963L150.405 90.0657C142.074 81.7346 128.567 81.7346 120.236 90.0657L90.0657 120.236C81.7345 128.567 81.7345 142.074 90.0657 150.406L108.963 169.303C100.938 182.884 94.7405 197.674 90.71 213.333H64C52.2179 213.333 42.6666 222.885 42.6666 234.667V277.333C42.6666 289.115 52.2179 298.667 64 298.667H90.71C94.7405 314.326 100.938 329.116 108.963 342.697L90.0657 361.595C81.7345 369.926 81.7345 383.433 90.0657 391.765L120.236 421.934C128.567 430.266 142.074 430.266 150.405 421.934L169.303 403.037C182.884 411.062 197.674 417.259 213.333 421.29V448ZM256 341.333C303.128 341.333 341.333 303.128 341.333 256C341.333 208.872 303.128 170.667 256 170.667C208.872 170.667 170.667 208.872 170.667 256C170.667 303.128 208.872 341.333 256 341.333Z" fill="black"/>
</svg>
