<svg viewBox="0 0 512 512" xmlns="http://www.w3.org/2000/svg">
  <title>
    settings
  </title>
  <path d="M169.4 147.7c10.8-8.7 23-15.7 36-20.9l5.6-44.1A21.3 21.3 0 0 1 232.2 64h47.6c10.8 0 19.9 8 21.2 18.7l5.5 44.1a138.5 138.5 0 0 1 36 20.9l41-17.3c10-4.2 21.5-.4 26.9 9l23.8 41.2c5.4 9.4 3 21.2-5.6 27.7L393 235.2a139.8 139.8 0 0 1 0 41.6l35.5 26.9c8.6 6.5 11 18.3 5.6 27.7l-23.8 41.2a21.3 21.3 0 0 1-26.8 9l-41-17.3c-10.8 8.7-23 15.7-36 20.9l-5.6 44.1a21.3 21.3 0 0 1-21.2 18.7h-47.6c-10.8 0-19.9-8-21.2-18.7l-5.5-44.1a138.5 138.5 0 0 1-36-20.9l-41 17.3c-10 4.2-21.5.4-26.9-9l-23.8-41.2c-5.4-9.4-3-21.2 5.6-27.7l35.5-26.9a139.8 139.8 0 0 1 0-41.6l-35.5-26.9a21.3 21.3 0 0 1-5.6-27.7l23.8-41.2a21.3 21.3 0 0 1 26.8-9l41 17.3zM256 320a64 64 0 1 0 0-128 64 64 0 0 0 0 128z" fill-rule="evenodd"/>
</svg>
