<svg viewBox="0 0 512 512" xmlns="http://www.w3.org/2000/svg">
<path d="M384 192C419.346 192 448 163.346 448 128C448 92.6538 419.346 64 384 64C348.654 64 320 92.6538 320 128C320 130.677 320.164 133.316 320.484 135.907L214.459 188.919C203.921 194.188 199.65 207.002 204.919 217.541C210.188 228.079 223.002 232.35 233.541 227.081L339.571 174.066C351.082 185.17 366.743 192 384 192Z" fill="black"/>
<path d="M384 448C419.346 448 448 419.346 448 384C448 348.654 419.346 320 384 320C348.654 320 320 348.654 320 384C320 419.346 348.654 448 384 448Z" fill="black"/>
<path d="M171.807 302.658C160.358 313.412 144.948 320 128 320C92.6538 320 64 291.346 64 256C64 220.654 92.6538 192 128 192C163.346 192 192 220.654 192 256C192 258.968 191.798 261.889 191.407 264.75L298.161 322.575C308.521 328.187 312.37 341.134 306.758 351.494C301.147 361.854 288.199 365.703 277.839 360.092L171.807 302.658Z" fill="black"/>
</svg>
