<svg xmlns="http://www.w3.org/2000/svg" viewBox="0 0 512 512">
  <title>
    share
  </title>
  <path d="M404.88 416a63.85 63.85 0 0 0-96.8-80.51l-117.63-67.92c.1-.52.08-1.05.16-1.57.27-1.75.44-3.51.57-5.29.12-1.62.22-3.24.21-4.86 0-1.37-.09-2.74-.18-4.11a64.53 64.53 0 0 0-.65-6.06c-.06-.42-.05-.83-.13-1.25l117.64-67.92a64 64 0 1 0-21.33-36.95l-117.5 67.84a63.45 63.45 0 0 0-9.5-6.82 62.56 62.56 0 0 0-5.72-2.58c-.79-.36-1.56-.74-2.36-1.07a63.3 63.3 0 0 0-7.27-2.48c-1.11-.3-2.24-.51-3.37-.76a56.03 56.03 0 0 0-16.97-1.52c-1.23.07-2.42.32-3.64.47-2.61.27-5.2.7-7.76 1.3-1.26.3-2.47.7-3.7 1.08-2.43.74-4.8 1.63-7.13 2.66-1.26.56-2.5 1.13-3.73 1.77-.78.4-1.59.68-2.36 1.12-1.1.64-1.97 1.5-3.02 2.18a53.93 53.93 0 0 0-10.16 8.28 62.43 62.43 0 0 0-4 4.33 63.25 63.25 0 0 0-4.24 5.89c-.63.96-1.4 1.75-1.99 2.75-.34.59-.5 1.22-.81 1.81a63.48 63.48 0 0 0-2.97 6.6c-.7 1.73-1.41 3.44-1.94 5.2-.6 2.1-1.08 4.24-1.45 6.4-.37 1.93-.78 3.83-.97 5.77a63.7 63.7 0 0 0-.17 6.5c0 1.92-.03 3.83.15 5.73.25 2.18.61 4.34 1.09 6.48.38 1.92.73 3.82 1.29 5.7.58 1.96 1.38 3.87 2.16 5.79.8 2.05 1.7 4.06 2.71 6.02.35.65.53 1.35.9 2 .64 1.1 1.5 1.98 2.18 3.03 2.33 3.7 5.1 7.1 8.25 10.12a62.59 62.59 0 0 0 4.4 4.08 62.94 62.94 0 0 0 5.75 4.14c1 .65 1.82 1.46 2.86 2.06.72.42 1.5.67 2.22 1.05a62.95 62.95 0 0 0 10.85 4.46c1.3.4 2.57.82 3.89 1.14 2.5.58 5.04 1 7.6 1.27 1.25.15 2.48.4 3.75.48 3.35.18 6.7.09 10.04-.27 2.28-.28 4.55-.7 6.78-1.22 1.2-.26 2.4-.49 3.59-.81 2.4-.67 4.77-1.48 7.08-2.42.9-.37 1.79-.8 2.68-1.2 1.83-.85 3.72-1.46 5.5-2.49a63.4 63.4 0 0 0 9.51-6.83l117.51 67.85A63.85 63.85 0 0 0 404.88 416z"/>
</svg>
