<svg viewBox="0 0 512 512" xmlns="http://www.w3.org/2000/svg">
<path d="M184.55 175.803C175.605 168.135 162.137 169.171 154.469 178.117C146.802 187.062 147.837 200.53 156.783 208.198L212.553 256L156.783 303.803C147.837 311.471 146.802 324.938 154.469 333.884C162.137 342.83 175.605 343.866 184.55 336.198L249.768 280.297C264.668 267.526 264.668 244.475 249.768 231.704L184.55 175.803Z" fill="black"/>
<path fill-rule="evenodd" clip-rule="evenodd" d="M128 64C92.6538 64 64 92.6538 64 128V384C64 419.346 92.6538 448 128 448H384C419.346 448 448 419.346 448 384V128C448 92.6538 419.346 64 384 64H128ZM384 106.667H341.333V405.333H384C395.782 405.333 405.333 395.782 405.333 384V128C405.333 116.218 395.782 106.667 384 106.667ZM128 106.667H298.667V405.333H128C116.218 405.333 106.667 395.782 106.667 384V128C106.667 116.218 116.218 106.667 128 106.667Z" fill="black"/>
</svg>
