<svg xmlns="http://www.w3.org/2000/svg" viewBox="0 0 512 512">
<path d="M356.418 176.915C364.749 185.246 364.749 198.754 356.418 207.085L307.503 256L356.418 304.915C364.749 313.246 364.749 326.754 356.418 335.085C348.087 343.416 334.58 343.416 326.248 335.085L262.248 271.085C253.917 262.754 253.917 249.246 262.248 240.915L326.248 176.915C334.58 168.584 348.087 168.584 356.418 176.915Z" fill="black"/>
<path fill-rule="evenodd" clip-rule="evenodd" d="M64 170.667C64 111.756 111.756 64 170.667 64H341.333C400.244 64 448 111.756 448 170.667V341.333C448 400.244 400.244 448 341.333 448H170.667C111.756 448 64 400.244 64 341.333V170.667ZM170.667 106.667C135.32 106.667 106.667 135.32 106.667 170.667V341.333C106.667 376.68 135.32 405.333 170.667 405.333V106.667ZM341.333 405.333H213.333V106.667H341.333C376.68 106.667 405.333 135.32 405.333 170.667V341.333C405.333 376.68 376.68 405.333 341.333 405.333Z" fill="black"/>
</svg>
