<svg viewBox="0 0 512 512" xmlns="http://www.w3.org/2000/svg">
<path d="M327.449 336.197C336.395 343.865 349.863 342.829 357.53 333.883C365.198 324.938 364.162 311.47 355.217 303.802L299.447 256L355.217 208.197C364.162 200.529 365.198 187.062 357.53 178.116C349.863 169.17 336.395 168.134 327.449 175.802L262.231 231.703C247.332 244.474 247.332 267.525 262.231 280.296L327.449 336.197Z" fill="black"/>
<path fill-rule="evenodd" clip-rule="evenodd" d="M128 64C92.6538 64 64 92.6538 64 128V384C64 419.346 92.6538 448 128 448H384C419.346 448 448 419.346 448 384V128C448 92.6538 419.346 64 384 64H128ZM384 106.667H213.333V405.333H384C395.782 405.333 405.333 395.782 405.333 384V128C405.333 116.218 395.782 106.667 384 106.667ZM128 106.667H170.667V405.333H128C116.218 405.333 106.667 395.782 106.667 384V128C106.667 116.218 116.218 106.667 128 106.667Z" fill="black"/>
</svg>
