<svg xmlns="http://www.w3.org/2000/svg" viewBox="0 0 512 512">
<path d="M155.582 176.915C147.251 185.246 147.251 198.754 155.582 207.085L204.497 256L155.582 304.915C147.251 313.246 147.251 326.754 155.582 335.085C163.913 343.416 177.42 343.416 185.752 335.085L249.752 271.085C258.083 262.754 258.083 249.246 249.752 240.915L185.752 176.915C177.42 168.584 163.913 168.584 155.582 176.915Z" fill="black"/>
<path fill-rule="evenodd" clip-rule="evenodd" d="M64 170.667C64 111.756 111.756 64 170.667 64H341.333C400.244 64 448 111.756 448 170.667V341.333C448 400.244 400.244 448 341.333 448H170.667C111.756 448 64 400.244 64 341.333V170.667ZM170.667 106.667C135.32 106.667 106.667 135.32 106.667 170.667V341.333C106.667 376.68 135.32 405.333 170.667 405.333H298.667V106.667H170.667ZM405.333 341.333C405.333 376.68 376.68 405.333 341.333 405.333V106.667C376.68 106.667 405.333 135.32 405.333 170.667V341.333Z" fill="black"/>
</svg>
