<svg viewBox="0 0 512 512" xmlns="http://www.w3.org/2000/svg">
<path d="M338.116 336.197C347.062 343.865 360.53 342.829 368.197 333.883C375.865 324.938 374.829 311.47 365.883 303.802L310.114 256L365.883 208.197C374.829 200.529 375.865 187.062 368.197 178.116C360.53 169.17 347.062 168.134 338.116 175.802L272.898 231.703C257.999 244.474 257.999 267.525 272.898 280.296L338.116 336.197Z" fill="black"/>
<path fill-rule="evenodd" clip-rule="evenodd" d="M128 64C92.6538 64 64 92.6538 64 128V384C64 419.346 92.6538 448 128 448H384C419.346 448 448 419.346 448 384V128C448 92.6538 419.346 64 384 64H128ZM384 106.667H213.333V405.333H384C395.782 405.333 405.333 395.782 405.333 384V128C405.333 116.218 395.782 106.667 384 106.667ZM128 106.667H170.667V405.333H128C116.218 405.333 106.667 395.782 106.667 384V128C106.667 116.218 116.218 106.667 128 106.667Z" fill="black"/>
</svg>
