<svg xmlns="http://www.w3.org/2000/svg" viewBox="0 0 512 512">
<path fill-rule="evenodd" clip-rule="evenodd" d="M128 106.667C128 71.3205 156.654 42.6667 192 42.6667H320C355.346 42.6667 384 71.3205 384 106.667V405.333C384 440.68 355.346 469.333 320 469.333H192C156.654 469.333 128 440.68 128 405.333V106.667ZM192 106.646C192 94.8638 201.551 85.3126 213.333 85.3126H298.667C310.449 85.3126 320 94.8638 320 106.646C320 118.428 310.449 127.979 298.667 127.979H213.333C201.551 127.979 192 118.428 192 106.646ZM256 426.667C267.782 426.667 277.333 417.115 277.333 405.333C277.333 393.551 267.782 384 256 384C244.218 384 234.667 393.551 234.667 405.333C234.667 417.115 244.218 426.667 256 426.667Z" fill="black"/>
</svg>
