<svg xmlns="http://www.w3.org/2000/svg" viewBox="0 0 512 512">
<path d="M256 85.3334H320V106.667C320 118.449 329.551 128 341.333 128C353.115 128 362.667 118.449 362.667 106.667V85.3334C362.667 61.7693 343.564 42.6667 320 42.6667H128C104.436 42.6667 85.3333 61.7693 85.3333 85.3334V426.667C85.3333 450.231 104.436 469.333 128 469.333H320C343.564 469.333 362.667 450.231 362.667 426.667V405.333C362.667 393.551 353.115 384 341.333 384C329.551 384 320 393.551 320 405.333V426.667H128V85.3334H192C180.218 85.3334 170.667 94.8847 170.667 106.667C170.667 118.449 180.218 128 192 128H256C267.782 128 277.333 118.449 277.333 106.667C277.333 94.8847 267.782 85.3334 256 85.3334Z" fill="black"/>
<path d="M213.333 213.333C213.333 189.769 232.436 170.667 256 170.667H384C407.564 170.667 426.667 189.769 426.667 213.333V298.667C426.667 322.231 407.564 341.333 384 341.333H277.333L229.917 372.944C222.828 377.67 213.333 372.589 213.333 364.069V213.333Z" fill="black"/>
</svg>
