<svg xmlns="http://www.w3.org/2000/svg" viewBox="0 0 512 512">
  <title>
    sms
  </title>
  <path d="M392.53 128H119.47a33.22 33.22 0 0 0-34.14 32v251.85a14.97 14.97 0 0 0 25.56 10.59L149.33 384h243.2a33.22 33.22 0 0 0 34.14-32V160a33.22 33.22 0 0 0-34.14-32zm-226.2 170.61a51.15 51.15 0 0 1-36.66-13.13l10.57-16.02a37.51 37.51 0 0 0 26.42 10.9c7.33 0 11.77-2.89 11.77-6.81 0-3.92-6.31-5.63-13.81-7.33-13.81-2.73-32.57-6.48-32.57-26.6 0-13.8 11.77-26.25 32.9-26.25a51.14 51.14 0 0 1 34.1 11.42l-11.76 15.17a38.7 38.7 0 0 0-24.04-8.52c-6.3 0-8.86 2.55-8.86 5.96s6.3 5.46 13.8 7.16c13.82 2.9 32.23 7 32.23 26.43 0 17.05-12.28 27.62-34.1 27.62zm136.9-1.53h-21.15v-54.22l-20.97 54.22h-9.37l-20.8-53.54v53.54H209.8v-82.86h29.5l17.04 44.5 17.05-44.5h29.84v82.86zm45 1.02a51.14 51.14 0 0 1-36.14-13.3l11.6-15.34a37.34 37.34 0 0 0 26.25 10.9c7.33 0 11.76-2.9 11.76-6.81 0-3.92-6.13-5.63-13.8-7.33-13.82-2.73-32.57-6.48-32.57-26.6 0-13.81 11.76-26.25 32.9-26.25a51.15 51.15 0 0 1 32.57 11.08l-11.6 15.17a38.87 38.87 0 0 0-24.2-8.52c-6.14 0-8.7 2.38-8.7 5.96s6.3 5.29 13.64 7.16c13.81 2.9 32.4 6.82 32.4 26.26 0 17.05-12.28 27.62-34.1 27.62z"/>
</svg>
