<svg xmlns="http://www.w3.org/2000/svg" viewBox="0 0 512 512">
<path d="M197.112 74.6966C203.224 60.4345 223.443 60.4345 229.555 74.6966L232.909 82.5226C254.331 132.507 294.16 172.336 344.144 193.758L351.97 197.112C366.232 203.224 366.232 223.443 351.97 229.555L344.144 232.909C294.16 254.331 254.331 294.16 232.909 344.144L229.555 351.97C223.443 366.232 203.224 366.232 197.112 351.97L193.758 344.144C172.336 294.16 132.507 254.331 82.5226 232.909L74.6966 229.555C60.4345 223.443 60.4345 203.224 74.6966 197.112L82.5226 193.758C132.507 172.336 172.336 132.507 193.758 82.5226L197.112 74.6966Z" fill="black"/>
<path d="M406.627 238.549C411.804 233.373 420.196 233.373 425.373 238.549L444.118 257.294C449.294 262.47 449.294 270.863 444.118 276.039L425.373 294.784C420.196 299.961 411.804 299.961 406.627 294.784L387.882 276.039C382.706 270.863 382.706 262.47 387.882 257.294L406.627 238.549Z" fill="black"/>
<path d="M354.588 325.49C347.268 318.17 335.399 318.17 328.078 325.49L282.824 370.745C275.503 378.066 275.503 389.934 282.824 397.255L328.078 442.51C335.399 449.83 347.268 449.83 354.588 442.51L399.843 397.255C407.163 389.934 407.163 378.066 399.843 370.745L354.588 325.49Z" fill="black"/>
</svg>
