<svg viewBox="0 0 512 512" xmlns="http://www.w3.org/2000/svg">
<path fill-rule="evenodd" clip-rule="evenodd" d="M343.014 444.16C348.776 446.72 354.752 448 360.728 448H360.941C370.118 448 379.082 445.013 386.765 439.467C399.57 430.293 405.972 415.573 404.478 400.213L394.874 306.56L458.259 236.373C468.716 224.853 471.918 209.067 467.222 194.347C462.314 179.413 450.363 168.747 434.783 165.333L341.734 145.493L293.715 64.2134C285.819 50.7734 271.733 42.6667 255.94 42.6667C240.361 42.6667 226.062 50.7734 218.166 64.2134L170.361 145.493L77.3111 165.333C61.7317 168.533 49.7804 179.413 44.8718 194.347C39.9633 209.067 43.3779 224.853 53.8353 236.373L117.22 306.56L107.616 400.213C106.122 415.573 112.738 430.293 125.33 439.467C137.921 448.64 154.354 450.56 168.867 444.16L255.94 406.187L343.014 444.16ZM256.002 360.013L359.874 405.333L350.057 292.267L426.247 208L314.203 183.253L256.014 84.5394L256.002 360.013Z" fill="black"/>
</svg>
