<svg xmlns="http://www.w3.org/2000/svg" viewBox="0 0 512 512">
  <title>
    star outlined
  </title>
  <path d="M255.939679,53.3333333 C265.019034,53.3333333 273.302432,58.2574 277.681178,66.0530507 L278.874554,68.4758409 L325.984295,179.405287 L446.623634,189.865234 C456.595807,190.727095 465.074369,197.4946 468.125292,207.027648 C470.871123,215.607391 468.736874,224.915855 462.728467,231.424139 L460.583557,233.485017 L369.104059,312.754621 L396.523909,430.654032 C398.814614,440.410849 395.025075,450.58927 386.911432,456.472429 C379.609153,461.767272 370.088699,462.651678 362.016264,458.977619 L359.384112,457.583897 L255.934679,395.01421 L152.495247,457.333898 C143.93539,462.541227 133.086662,462.103448 124.974216,456.223342 C117.673015,450.931246 113.871622,442.16112 114.850393,433.348452 L115.35545,430.414033 L142.7753,312.754621 L51.2958015,233.485017 C43.7071018,226.940731 40.7873291,216.481289 43.8892547,206.952693 C46.709187,198.290333 54.0048805,191.935793 62.811406,190.233884 L65.4957237,189.865234 L185.895063,179.645286 L233.004805,68.4758409 C236.928207,59.2914539 245.952389,53.3333333 255.939679,53.3333333 Z M296.7404,219.696458 L255.953439,123.637833 L215.140946,219.982888 L111.057439,228.811167 L190.171093,297.367679 L166.438772,399.093833 L255.977752,345.176387 L345.404105,399.2645 L321.718161,297.359105 L400.913439,228.7045 L296.7404,219.696458 Z"/>
</svg>
