<svg width="32" height="32" viewBox="0 0 32 32" xmlns="http://www.w3.org/2000/svg">
    <path d="M16 4.08c-.1 0-.18 0-.27.06L.83 11.6c-.2.1-.35.3-.35.55 0 .24.14.46.35.56l2.13 1.08v9.04c-.72.26-1.24.94-1.24 1.75 0 .8.95 2.24 1.36 2.83l.5.74.5-.74c.4-.6 1.36-2.04 1.36-2.83 0-.8-.52-1.5-1.24-1.75V14.4l1.24.62V13.4c0-2.16 3.1-2.6 4.43-2.78 2-.28 4.43-.33 6.13-.33 1.7 0 4.14.04 6.13.32 1.33.18 4.43.62 4.43 2.77V15l4.6-2.3c.22-.1.36-.33.36-.57 0-.24-.14-.46-.35-.56l-14.9-7.46c-.1-.05-.17-.06-.27-.06zm0 7.45c-3.48 0-9.3.24-9.3 1.86v2.88c1.28-.55 3.9-1.03 9.3-1.03s8.02.48 9.3 1.03v-2.9c0-1.6-5.82-1.85-9.3-1.85zm0 4.97c-6.45 0-9.13.75-9.3 1.24 0 1.6 5.82 1.86 9.3 1.86 3.4 0 9.05-.24 9.3-1.76v-.1c-.15-.48-2.83-1.24-9.3-1.24z" fill-rule="nonzero" />
</svg>
