<svg xmlns="http://www.w3.org/2000/svg" viewBox="0 0 512 512">
  <title>
    sup sub
  </title>
  <path fill-rule="nonzero" d="M393.826141,337.266667 C385.515374,337.266667 378.032715,339.378317 372.124931,342.973314 C366.084623,346.648955 361.691197,351.875341 359.751623,357.978212 C359.199962,359.569048 358.900188,361.224526 358.900188,362.970395 C358.900188,366.305699 360.094485,369.095514 362.160579,371.05343 C364.243036,373.026852 367.207078,374.152994 370.711695,374.152994 C375.987986,374.152994 379.426472,371.872718 382.254931,367.069017 C383.594534,364.215087 385.111827,362.209828 386.940391,360.911146 C388.801482,359.589362 390.986755,358.99548 393.646029,358.99548 C396.418301,358.99548 398.693077,359.781398 400.285839,361.114718 C401.924921,362.486813 402.847655,364.439427 402.847655,366.730847 C402.847655,371.202737 400.699206,374.452504 390.70332,383.705904 L364.563175,407.772794 C360.369597,411.559071 358.6,414.717781 358.6,419.203616 C358.6,422.673778 359.839218,425.561288 362.037865,427.577354 C364.234066,429.591178 367.382388,430.733333 371.191995,430.733333 L419.479091,430.73007 C422.791835,430.661626 425.613885,429.503627 427.603065,427.557594 C429.580018,425.623524 430.731288,422.912881 430.733331,419.732771 L430.544576,417.518634 C430.072065,414.846197 428.731262,412.641651 426.752816,411.107998 C424.777867,409.577055 422.169948,408.715254 419.161976,408.715254 L396.481254,408.711925 L407.997343,398.061769 L408.481053,397.62054 C424.063774,383.380432 428.63202,376.637572 428.63202,365.631638 C428.63202,357.230034 425.057014,350.169074 418.961851,345.195391 C412.794285,340.162626 404.05175,337.266667 393.826141,337.266667 Z M154.253275,132.064761 C148.926432,125.570836 141.473888,121.80449 133.703275,120.974914 C125.945808,120.146742 117.871331,122.245434 111.277253,127.477919 C110.834767,127.829037 110.402017,128.192255 109.979496,128.567161 L109.571711,128.934731 C102.917745,135.02732 99.1772168,143.187276 98.5100225,151.595769 C97.8438718,159.991109 100.241468,168.634221 105.860848,175.715872 L178.030906,266.665999 L105.860849,357.61746 C100.180253,364.776257 97.7920199,373.530718 98.5328831,382.011838 C99.2737464,390.492958 103.143706,398.700738 109.979496,404.766172 C110.402017,405.141078 110.834767,405.504296 111.277253,405.855415 C117.943593,411.14524 126.122956,413.23221 133.958191,412.330138 C141.793425,411.428067 149.284531,407.536954 154.574356,400.870615 L219.548589,318.987243 L284.523993,400.870615 L284.845073,401.268572 C290.171916,407.762498 297.62446,411.528843 305.395073,412.358419 C313.15254,413.186591 321.227017,411.087899 327.821095,405.855415 C328.263582,405.504296 328.696331,405.141078 329.118853,404.766172 L329.526638,404.398602 C336.180603,398.306014 339.921132,390.146057 340.588326,381.737564 C341.254477,373.342224 338.856881,364.699113 333.2375,357.617461 L261.066273,266.665999 L333.237501,175.715871 C338.918096,168.557076 341.306329,159.802616 340.565465,151.321495 C339.824602,142.840375 335.954643,134.632595 329.118853,128.567161 C328.696331,128.192255 328.263582,127.829037 327.821095,127.477919 C321.154755,122.188093 312.975392,120.101124 305.140158,121.003195 C297.304924,121.905267 289.813818,125.796379 284.523993,132.462719 L219.548589,214.344754 L154.574356,132.462718 L154.253275,132.064761 Z M393.826141,102.6 C385.515374,102.6 378.032715,104.71165 372.124931,108.306648 C366.084623,111.982288 361.691197,117.208675 359.751623,123.311545 C359.199962,124.902381 358.900188,126.557859 358.900188,128.303729 C358.900188,131.639033 360.094485,134.428847 362.160579,136.386763 C364.243036,138.360185 367.207078,139.486328 370.711695,139.486328 C375.987986,139.486328 379.426472,137.206051 382.254931,132.402351 C383.594534,129.54842 385.111827,127.543162 386.940391,126.244479 C388.801482,124.922695 390.986755,124.328814 393.646029,124.328814 C396.418301,124.328814 398.693077,125.114731 400.285839,126.448051 C401.924921,127.820146 402.847655,129.772761 402.847655,132.064181 C402.847655,136.53607 400.699206,139.785838 390.70332,149.039238 L364.563175,173.106127 C360.369597,176.892405 358.6,180.051114 358.6,184.536949 C358.6,188.007111 359.839218,190.894621 362.037865,192.910688 C364.234066,194.924511 367.382388,196.066667 371.191995,196.066667 L419.479091,196.063403 C422.791835,195.994959 425.613885,194.83696 427.603065,192.890928 C429.580018,190.956857 430.731288,188.246214 430.733331,185.066105 L430.544576,182.851967 C430.072065,180.17953 428.731262,177.974985 426.752816,176.441331 C424.777867,174.910389 422.169948,174.048588 419.161976,174.048588 L396.481254,174.045258 L407.997343,163.395102 L408.481053,162.953873 C424.063774,148.713765 428.63202,141.970906 428.63202,130.964972 C428.63202,122.563368 425.057014,115.502407 418.961851,110.528724 C412.794285,105.49596 404.05175,102.6 393.826141,102.6 Z"/>
</svg>
