<svg xmlns="http://www.w3.org/2000/svg" viewBox="0 0 512 512">
<path d="M336.31 170.666C327.302 170.666 320 163.612 320 154.911V149.153C320 144.03 322.61 139.207 326.941 136.251C380.141 99.945 385.37 95.2259 385.37 86.1525C385.37 80.1022 378.715 76.3209 370.299 76.3209C363.157 76.3209 356.894 77.6195 351.137 79.9857C341.936 83.768 330.665 83.2613 324.32 75.7949C318.602 69.0658 318.843 59.0492 326.428 54.3481C339.872 46.0159 355.757 42.6665 369.516 42.6665C403.376 42.6665 425.492 60.8172 425.492 86.1525C425.492 103.358 415.315 117.538 384.195 137.39H409.443C418.955 137.39 426.666 144.839 426.666 154.028C426.666 163.217 418.955 170.666 409.443 170.666H336.31Z" fill="black"/>
<path d="M91.5814 356.418C83.2502 348.087 83.2502 334.579 91.5814 326.248L161.85 255.98L91.5814 185.712C83.2502 177.381 83.2502 163.873 91.5814 155.542C99.9126 147.211 113.42 147.211 121.751 155.542L192.02 225.81L262.288 155.542C270.619 147.211 284.127 147.211 292.458 155.542C300.789 163.873 300.789 177.381 292.458 185.712L222.189 255.98L292.458 326.248C300.789 334.579 300.789 348.087 292.458 356.418C284.127 364.749 270.619 364.749 262.288 356.418L192.02 286.15L121.751 356.418C113.42 364.749 99.9126 364.749 91.5814 356.418Z" fill="black"/>
<path d="M320 453.577C320 462.279 327.302 469.333 336.31 469.333H409.443C418.955 469.333 426.666 461.884 426.666 452.695C426.666 443.506 418.955 436.057 409.443 436.057H384.195C415.315 416.205 425.492 402.024 425.492 384.819C425.492 359.484 403.376 341.333 369.516 341.333C355.757 341.333 339.872 344.683 326.428 353.015C318.843 357.716 318.602 367.732 324.32 374.462C330.665 381.928 341.936 382.435 351.137 378.652C356.894 376.286 363.157 374.988 370.299 374.988C378.715 374.988 385.37 378.769 385.37 384.819C385.37 393.893 380.141 398.612 326.941 434.918C322.61 437.874 320 442.697 320 447.82V453.577Z" fill="black"/>
</svg>
