<svg xmlns="http://www.w3.org/2000/svg" viewBox="0 0 512 512">
<path d="M256 106.667C185.307 106.667 128 163.974 128 234.667C128 285.424 157.544 329.282 200.373 349.98C219.137 359.048 234.666 376.162 234.666 397.002V405.333C234.666 428.897 215.564 448 192 448H128C104.436 448 85.333 428.897 85.333 405.333V384C85.333 372.218 94.8843 362.667 106.666 362.667C118.448 362.667 128 372.218 128 384V405.333H192V392.928C129.454 367.61 85.333 306.291 85.333 234.667C85.333 140.41 161.743 64 256 64C350.256 64 426.666 140.41 426.666 234.667C426.666 306.291 382.545 367.61 320 392.928V405.333H384V384C384 372.218 393.551 362.667 405.333 362.667C417.115 362.667 426.666 372.218 426.666 384V405.333C426.666 428.897 407.564 448 384 448H320C296.436 448 277.333 428.898 277.333 405.333V397.002C277.333 376.162 292.862 359.048 311.626 349.98C354.456 329.282 384 285.424 384 234.667C384 163.974 326.692 106.667 256 106.667Z" fill="black"/>
</svg>
