<svg xmlns="http://www.w3.org/2000/svg" xmlns:xlink="http://www.w3.org/1999/xlink" preserveAspectRatio="xMidYMid" width="32" height="32" viewBox="0 0 32 32">
  <path d="M22.999,6.982 C24.603,8.691 25.404,11.176 25.404,14.438 C25.404,17.498 24.849,20.095 23.739,22.228 C22.629,24.361 20.927,26.146 18.635,27.583 L18.635,32.000 L32.000,32.000 L32.000,27.583 L23.968,27.583 C26.173,26.061 27.872,24.100 29.061,21.700 C30.252,19.300 30.847,16.643 30.847,13.726 C30.847,9.488 29.525,6.140 26.885,3.685 C24.243,1.228 20.616,-0.000 16.000,-0.000 C11.385,-0.000 7.757,1.238 5.116,3.717 C2.475,6.195 1.155,9.532 1.155,13.726 C1.155,16.601 1.739,19.243 2.907,21.657 C4.075,24.070 5.761,26.046 7.968,27.583 L0.000,27.583 L0.000,32.000 L13.323,32.000 L13.323,27.583 C10.972,26.061 9.263,24.240 8.196,22.120 C7.129,20.002 6.596,17.441 6.596,14.438 C6.596,11.191 7.395,8.710 8.991,6.992 C10.587,5.275 12.924,4.417 16.000,4.417 C19.063,4.417 21.395,5.271 22.999,6.982 Z"/>
</svg>
