<svg xmlns="http://www.w3.org/2000/svg" xmlns:xlink="http://www.w3.org/1999/xlink" viewBox="0 0 512 512">
  <title>
    thumb up outlined
  </title>
  <path d="M387.84 405.333H213.333V192L267.2 70.677A11.005 11.005 0 01277.333 64v170.667h139.968c6.4 0 12.416 2.837 16.47 7.808 4.074 4.97 5.696 11.413 4.437 17.706L387.84 405.333zM170.667 192v256H387.84c20.267 0 37.888-14.421 41.835-34.283l50.368-145.173c3.776-18.859-1.046-38.229-13.27-53.12C454.571 200.533 436.544 192 417.301 192H320V64c0-23.53-19.136-42.667-42.667-42.667a53.637 53.637 0 00-49.344 32.534L170.667 192zm-127 0a1 1 0 00-1 1v254a1 1 0 001 1H128V192H43.667z"/>
</svg>
