<svg width="24" height="24" viewBox="0 0 24 24" fill="none" xmlns="http://www.w3.org/2000/svg">
  <title>
    thumb up outlined
  </title>
  <path fill-rule="evenodd" clip-rule="evenodd" d="M18.18 19H10V9L12.525 3.313C12.606 3.123 12.793 3 13 3V11H19.561C19.861 11 20.143 11.133 20.333 11.366C20.524 11.599 20.6 11.901 20.541 12.196L18.18 19ZM8 9V21H18.18C19.13 21 19.956 20.324 20.141 19.393L22.502 12.588C22.679 11.704 22.453 10.796 21.88 10.098C21.308 9.4 20.463 9 19.561 9H15V3C15 1.897 14.103 1 13 1C11.992 1 11.084 1.599 10.687 2.525L8 9ZM3 9C2.44772 9 2 9.44771 2 10V20C2 20.5523 2.44772 21 3 21H6V9H3Z"/>
</svg>
