<svg width="24" height="25" viewBox="0 0 24 25" fill="none" xmlns="http://www.w3.org/2000/svg">
  <title>
    thumb down outlined
  </title>
  <path fill-rule="evenodd" clip-rule="evenodd" d="M8 3.21582V15.2148L10.687 21.6908C11.084 22.6168 11.992 23.2158 13 23.2158C14.103 23.2158 15 22.3188 15 21.2158V15.2148H19.561C20.463 15.2148 21.307 14.8158 21.88 14.1178C22.453 13.4198 22.679 12.5118 22.502 11.6278L20.141 4.82282C19.956 3.89182 19.13 3.21582 18.18 3.21582H8ZM12.525 20.9038L9.999 15.2148V5.21682H18.18L20.541 12.0198C20.601 12.3148 20.524 12.6168 20.333 12.8498C20.143 13.0828 19.861 13.2158 19.561 13.2158H13V21.2158C12.793 21.2158 12.606 21.0918 12.525 20.9038ZM3 3.21582C2.448 3.21582 2 3.66382 2 4.21582V14.2168C2 14.7678 2.448 15.2148 3 15.2148H6V3.21582H3Z"/>
</svg>
