<svg viewBox="0 0 512 512" xmlns="http://www.w3.org/2000/svg">
<path d="M64 405.333C64 428.897 83.1025 448 106.667 448C118.449 448 128 438.449 128 426.667V213.333C128 201.551 118.449 192 106.667 192C83.1025 192 64 211.103 64 234.667V405.333Z" fill="black"/>
<path d="M149.333 405.333C149.333 428.897 168.436 448 192 448H362.667C381.63 448 398.317 435.484 403.627 417.28L445.44 273.92C457.387 232.96 426.667 192 384 192H277.333L300.527 122.42C310.107 93.6795 288.715 64 258.42 64C243.58 64 229.722 71.4166 221.49 83.7642L149.333 192V405.333Z" fill="black"/>
</svg>
