<svg viewBox="0 0 512 512" xmlns="http://www.w3.org/2000/svg">
<path fill-rule="evenodd" clip-rule="evenodd" d="M227.496 206.587C222.892 220.401 233.174 234.667 247.735 234.667H384C398.222 234.667 408.462 248.32 404.48 261.973L364.907 397.653C363.579 402.204 359.407 405.333 354.667 405.333H202.667C196.776 405.333 192 400.558 192 394.667V208.148C192 206.042 192.623 203.983 193.791 202.231L256.991 107.431C257.31 106.954 257.846 106.667 258.42 106.667C258.913 106.667 259.102 106.762 259.195 106.811C259.356 106.896 259.594 107.075 259.814 107.38C260.033 107.685 260.128 107.966 260.158 108.147C260.175 108.25 260.205 108.46 260.05 108.927L227.496 206.587ZM168.993 441.272C175.631 445.53 183.527 448 192 448H362.667C381.63 448 398.317 435.484 403.627 417.28L445.44 273.92C457.387 232.96 426.667 192 384 192H277.333L300.527 122.42C310.107 93.6795 288.715 64 258.42 64C243.58 64 229.722 71.4166 221.49 83.7642L156.499 181.251C151.827 188.26 149.333 196.495 149.333 204.918V405.333C149.333 413.105 151.411 420.391 155.041 426.667C158.461 432.578 163.257 437.592 168.993 441.272ZM116.693 445.502C113.704 447.096 110.291 448 106.667 448C83.1025 448 64 428.897 64 405.333V234.667C64 211.103 83.1025 192 106.667 192C118.449 192 128 201.551 128 213.333V426.667C128 434.825 123.421 441.913 116.693 445.502Z" fill="black"/>
</svg>
