<svg viewBox="0 0 512 512" xmlns="http://www.w3.org/2000/svg">
<path fill-rule="evenodd" clip-rule="evenodd" d="M227.496 305.413C222.892 291.599 233.174 277.333 247.735 277.333H384C398.222 277.333 408.462 263.68 404.48 250.027L364.907 114.347C363.579 109.796 359.407 106.667 354.667 106.667L202.667 106.667C196.776 106.667 192 111.442 192 117.333V303.852C192 305.958 192.623 308.017 193.791 309.769L256.991 404.569C257.31 405.046 257.846 405.333 258.42 405.333C258.913 405.333 259.102 405.238 259.195 405.189C259.356 405.104 259.594 404.925 259.814 404.62C260.033 404.315 260.128 404.034 260.158 403.853C260.175 403.75 260.205 403.54 260.05 403.073L227.496 305.413ZM168.993 70.7285C175.631 66.4697 183.527 64 192 64H362.667C381.63 64 398.317 76.5156 403.627 94.72L445.44 238.08C457.387 279.04 426.667 320 384 320H277.333L300.527 389.58C310.107 418.32 288.715 448 258.42 448C243.58 448 229.722 440.583 221.49 428.236L156.499 330.749C151.827 323.74 149.333 315.505 149.333 307.082V106.667C149.333 98.8952 151.411 91.609 155.041 85.3333C158.461 79.4223 163.257 74.4077 168.993 70.7285ZM116.693 66.4982C113.704 64.9037 110.291 64 106.667 64C83.1025 64 64 83.1025 64 106.667V277.333C64 300.897 83.1025 320 106.667 320C118.449 320 128 310.449 128 298.667V85.3333C128 77.1755 123.421 70.0871 116.693 66.4982Z" fill="black"/>
</svg>
