<svg xmlns="http://www.w3.org/2000/svg" xmlns:xlink="http://www.w3.org/1999/xlink" viewBox="0 0 512 512" aria-labelledby="thumb down">
  <path fill-rule="evenodd" clip-rule="evenodd" d="M170.667 64V319.979L227.989 458.133C236.459 477.888 255.829 490.667 277.333 490.667V490.667C300.864 490.667 320 471.531 320 448V448V319.979H417.301C436.544 319.979 454.549 311.467 466.773 296.576V296.576C478.997 281.685 483.819 262.315 480.043 243.456V243.456L429.675 98.2827C425.728 78.4213 408.107 64 387.84 64V64H170.667ZM64 64C52.224 64 42.6666 73.5573 42.6666 85.3333V85.3333V298.688C42.6666 310.443 52.224 319.979 64 319.979V319.979H128V64H64Z"/>
</svg>
