<svg width="32" height="32" xmlns="http://www.w3.org/2000/svg"><path d="M7.688 14.25c.364 0 .674.128.93.383.254.255.382.565.382.93v13.124c0 .365-.128.675-.383.93a1.266 1.266 0 0 1-.93.383H3.313c-.364 0-.674-.128-.93-.383a1.266 1.266 0 0 1-.382-.93V15.563c0-.364.128-.674.383-.93.255-.254.565-.382.93-.382h4.374zM5.5 27.813c.365 0 .674-.128.93-.383.255-.256.383-.565.383-.93 0-.365-.128-.674-.383-.93a1.266 1.266 0 0 0-.93-.383c-.365 0-.674.128-.93.383a1.266 1.266 0 0 0-.383.93c0 .365.128.674.383.93.256.255.565.383.93.383zM23 6.43c0 .656-.11 1.312-.328 1.968-.146.365-.401.875-.766 1.532-.4.765-.638 1.33-.71 1.695h5.523c.911 0 1.686.319 2.324.957.638.638.957 1.376.957 2.215 0 .51-.1 1.002-.3 1.476-.201.474-.447.875-.74 1.204h-.054c.292.692.401 1.44.328 2.242a4.04 4.04 0 0 1-.82 2.133c.219.692.237 1.421.055 2.187-.183.766-.492 1.404-.93 1.914.219.948.091 1.768-.383 2.461-.474.693-1.349 1.148-2.625 1.367-.765.146-1.95.219-3.554.219h-.165c-1.166 0-2.37-.2-3.609-.602-.729-.218-1.723-.61-2.98-1.175-1.258-.565-2.197-.848-2.817-.848a.633.633 0 0 1-.465-.191.633.633 0 0 1-.191-.465V15.016a.52.52 0 0 1 .219-.438c.729-.765 1.622-1.914 2.68-3.445.874-1.276 1.604-2.188 2.187-2.735.365-.364.656-.856.875-1.476.146-.365.31-.948.492-1.75v-.055c.219-.838.42-1.476.602-1.914.364-.802.784-1.203 1.258-1.203.984 0 1.804.237 2.46.71C22.508 3.44 23 4.68 23 6.43z" fill="#000" fill-rule="nonzero"/></svg>