<svg xmlns="http://www.w3.org/2000/svg" xmlns:xlink="http://www.w3.org/1999/xlink" viewBox="0 0 512 512">
  <title>
    thumb down outlined
  </title>
  <path d="M170.667 64v255.979l57.322 138.154a53.637 53.637 0 0049.344 32.534C300.864 490.667 320 471.531 320 448V319.979h97.301c19.243 0 37.248-8.512 49.472-23.403 12.224-14.891 17.046-34.261 13.27-53.12L429.675 98.283C425.728 78.42 408.107 64 387.84 64H170.667zm96.534 377.344l-53.888-121.365V106.688h174.528l50.368 145.131c1.28 6.293-.363 12.736-4.438 17.706-4.053 4.971-10.069 7.808-16.469 7.808H277.334V448a11.053 11.053 0 01-10.133-6.656zM64.001 64c-11.777 0-21.334 9.557-21.334 21.333v213.355c0 11.755 9.557 21.291 21.333 21.291h64V64H64z"/>
</svg>
