<svg viewBox="0 0 512 512" xmlns="http://www.w3.org/2000/svg">
<path d="M64 106.667C64 83.1025 83.1025 64 106.667 64C118.449 64 128 73.5513 128 85.3333V298.667C128 310.449 118.449 320 106.667 320C83.1025 320 64 300.897 64 277.333V106.667Z" fill="black"/>
<path d="M149.333 106.667C149.333 83.1025 168.436 64 192 64H362.667C381.63 64 398.317 76.5156 403.627 94.72L445.44 238.08C457.387 279.04 426.667 320 384 320H277.333L300.527 389.58C310.107 418.32 288.715 448 258.42 448C243.58 448 229.722 440.583 221.49 428.236L149.333 320V106.667Z" fill="black"/>
</svg>
