<svg xmlns="http://www.w3.org/2000/svg" viewBox="0 0 512 512">
<path d="M64 96C64 78.3269 78.3269 64 96 64H416C433.673 64 448 78.3269 448 96V138.667C448 156.34 433.673 170.667 416 170.667C398.327 170.667 384 156.34 384 138.667V128H288V384H330.667C348.34 384 362.667 398.327 362.667 416C362.667 433.673 348.34 448 330.667 448H181.333C163.66 448 149.333 433.673 149.333 416C149.333 398.327 163.66 384 181.333 384H224L224 128H128V138.667C128 156.34 113.673 170.667 96 170.667C78.3269 170.667 64 156.34 64 138.667V96Z" fill="black"/>
</svg>
