<svg xmlns="http://www.w3.org/2000/svg" viewBox="0 0 512 512">
<path d="M234.667 117.333C234.667 87.8781 258.545 64 288 64C317.455 64 341.333 87.8781 341.333 117.333V128H405.333C428.897 128 448 147.103 448 170.667V234.667H437.333C407.878 234.667 384 258.545 384 288C384 317.455 407.878 341.333 437.333 341.333H448V405.333C448 428.897 428.897 448 405.333 448H341.333V437.333C341.333 407.878 317.455 384 288 384C258.545 384 234.667 407.878 234.667 437.333V448H170.667C147.103 448 128 428.897 128 405.333V341.333H117.333C87.8781 341.333 64 317.455 64 288C64 258.545 87.8781 234.667 117.333 234.667H128V170.667C128 147.103 147.103 128 170.667 128H234.667V117.333Z" fill="black"/>
</svg>
