<svg xmlns="http://www.w3.org/2000/svg" viewBox="0 0 512 512">
<path d="M319.991 272.15C319.971 272.211 319.967 272.24 319.971 272.24C319.972 272.24 319.968 272.248 319.971 272.24C319.975 272.226 319.987 272.188 319.991 272.15Z" fill="black"/>
<path fill-rule="evenodd" clip-rule="evenodd" d="M304.589 74.6634L256 21.3333L207.411 74.6634L138.667 52.7726L123.252 123.252L52.7727 138.667L74.6635 207.411L21.3333 256L74.6635 304.589L52.7727 373.333L123.252 388.747L138.667 459.227L207.411 437.336L256 490.667L304.589 437.336L373.333 459.227L388.748 388.747L459.227 373.333L437.337 304.589L490.667 256L437.337 207.411L459.227 138.667L388.748 123.252L373.333 52.7726L304.589 74.6634ZM149.333 170.667C149.333 158.885 158.885 149.333 170.667 149.333H192C203.782 149.333 213.333 158.885 213.333 170.667C213.333 182.449 203.782 192 192 192H170.667C158.885 192 149.333 182.449 149.333 170.667ZM277.333 210.667C277.333 201.633 285.567 192 298.667 192C311.767 192 320 201.633 320 210.667C320 216.976 316.278 223.239 309.431 226.773C297.457 232.954 277.333 247.465 277.333 272V277.333C277.333 289.115 286.885 298.667 298.667 298.667C310.449 298.667 320 289.115 320 277.333V272.126C320.08 271.904 320.35 271.354 321.139 270.443C322.702 268.638 325.411 266.54 329.002 264.687C348.523 254.61 362.667 234.571 362.667 210.667C362.667 175.517 332.695 149.333 298.667 149.333C264.638 149.333 234.667 175.517 234.667 210.667C234.667 222.449 244.218 232 256 232C267.782 232 277.333 222.449 277.333 210.667ZM298.667 362.667C310.449 362.667 320 353.115 320 341.333C320 329.551 310.449 320 298.667 320C286.885 320 277.333 329.551 277.333 341.333C277.333 353.115 286.885 362.667 298.667 362.667ZM170.667 234.667C158.885 234.667 149.333 244.218 149.333 256C149.333 267.782 158.885 277.333 170.667 277.333H192C203.782 277.333 213.333 267.782 213.333 256C213.333 244.218 203.782 234.667 192 234.667H170.667ZM149.333 341.333C149.333 329.551 158.885 320 170.667 320H234.667C246.449 320 256 329.551 256 341.333C256 353.115 246.449 362.667 234.667 362.667H170.667C158.885 362.667 149.333 353.115 149.333 341.333Z" fill="black"/>
</svg>
