<svg xmlns="http://www.w3.org/2000/svg" viewBox="0 0 512 512">
  <title>
    toughest questions
  </title>
  <path d="M405.33 277.33H448A21.33 21.33 0 0 0 469.33 256V149.33A21.33 21.33 0 0 0 448 128h-85.33v-21.33a64 64 0 0 0-128 0V128h-85.34A21.33 21.33 0 0 0 128 149.33v85.34h-21.33a64 64 0 1 0 0 128H128V448a21.33 21.33 0 0 0 21.33 21.33H448A21.33 21.33 0 0 0 469.33 448V341.33A21.33 21.33 0 0 0 448 320h-42.67a21.33 21.33 0 0 1 0-42.67zm0 85.34h21.34v64h-256v-85.34A21.33 21.33 0 0 0 149.33 320h-42.66a21.33 21.33 0 1 1 0-42.67h42.66A21.33 21.33 0 0 0 170.67 256v-85.33H256a21.33 21.33 0 0 0 21.33-21.34v-42.66a21.33 21.33 0 0 1 42.67 0v42.66a21.33 21.33 0 0 0 21.33 21.34h85.34v64h-21.34a64 64 0 0 0 0 128z"/>
</svg>
