<svg xmlns="http://www.w3.org/2000/svg" viewBox="0 0 512 512">
<path d="M234.667 64C222.885 64 213.334 73.5513 213.334 85.3333V106.667H138.667C120.994 106.667 106.667 120.994 106.667 138.667C106.667 156.34 120.994 170.667 138.667 170.667H373.334C391.007 170.667 405.334 156.34 405.334 138.667C405.334 120.994 391.007 106.667 373.334 106.667H298.667V85.3333C298.667 73.5513 289.116 64 277.334 64H234.667Z" fill="black"/>
<path d="M128 213.333H384L367.958 389.794C364.962 422.759 337.322 448 304.221 448H207.779C174.678 448 147.039 422.759 144.042 389.794L128 213.333Z" fill="black"/>
</svg>
