<?xml version="1.0" encoding="UTF-8"?>
<svg viewBox="0 0 512 512" version="1.1" xmlns="http://www.w3.org/2000/svg" xmlns:xlink="http://www.w3.org/1999/xlink">
    <title>trash</title>
    <path d="M384,170.666667 L365.926949,387.543274 C364.084133,409.657071 345.598112,426.666667 323.407664,426.666667 L188.592336,426.666667 C166.401888,426.666667 147.915867,409.657071 146.073051,387.543274 L128,170.666667 L384,170.666667 Z M277.333333,64 C289.115408,64 298.666667,73.5512587 298.666667,85.3333333 L298.666667,95.999 L384,96 C395.782075,96 405.333333,105.551259 405.333333,117.333333 C405.333333,129.115408 395.782075,138.666667 384,138.666667 L128,138.666667 C116.217925,138.666667 106.666667,129.115408 106.666667,117.333333 C106.666667,105.551259 116.217925,96 128,96 L213.332667,95.999 L213.333333,85.3333333 C213.333333,73.5512587 222.884592,64 234.666667,64 L277.333333,64 Z" id="Combined-Shape" fill="#000000"></path>
</svg>
