<svg viewBox="0 0 512 512" xmlns="http://www.w3.org/2000/svg">
  <title>
    twitter
  </title>
  <path d="M408.5 184.3v10.4A223.9 223.9 0 0 1 64 383.9c6.3.4 12.7.4 19 0a158 158 0 0 0 97.8-34.6 79.4 79.4 0 0 1-73.8-54.8c5 .3 10 .3 14.9 0 7 0 14-1 20.8-2.8a78.7 78.7 0 0 1-63.1-77.2c10.6 6 22.5 9.5 34.7 10A78 78 0 0 1 79.6 159c0-14 3.8-27.7 10.7-39.9 40.1 49.3 99.2 79.3 162.6 82.5-1.4-5.9-2.1-12-2.1-18 1-42.9 36.1-77.1 79-77 21.9 0 42.7 9 57.6 25 17.6-3.4 34.4-9.9 49.9-19a78.3 78.3 0 0 1-34.7 43.3c15.6-1.9 31-6 45.4-12.1a162.5 162.5 0 0 1-39.5 40.5z" fill-rule="nonzero"/>
</svg>
