<svg xmlns="http://www.w3.org/2000/svg" viewBox="0 0 512 512">
<path d="M118.701 106.667V227.76C118.701 296.514 162.453 346.933 256.209 346.933C349.964 346.933 393.3 296.514 393.3 227.343V106.667C393.3 83.1025 374.153 64 350.589 64C327.025 64 307.878 83.1025 307.878 106.667V224.843C307.878 251.511 290.377 272.762 256.209 272.762C221.623 272.762 204.122 251.511 204.122 224.843V106.667C204.122 83.1025 184.976 64 161.411 64C137.847 64 118.701 83.1025 118.701 106.667Z" fill="black"/>
<path d="M85.3333 405.333C73.5513 405.333 64 414.885 64 426.667C64 438.449 73.5513 448 85.3333 448H426.667C438.449 448 448 438.449 448 426.667C448 414.885 438.449 405.333 426.667 405.333H85.3333Z" fill="black"/>
</svg>
