<svg xmlns:xlink="http://www.w3.org/1999/xlink" xmlns="http://www.w3.org/2000/svg" height="32" width="32" preserveAspectRatio="xMidYMid" viewBox="0 0 32 32">
	<title>unseen</title>
	<g>
		<path d="M18.9,13.5c0.4,0.5,0.6,1,0.7,1.6l2,2c0.4-1.6,0.1-3.4-1-4.8c-0.9-1.2-2.3-2-3.8-2.2c-0.7-0.1-1.5-0.1-2.2,0.1
		l2,2C17.5,12.2,18.4,12.7,18.9,13.5"/>
		<path d="M31.8,14.9c-0.2-0.4-5.9-8.6-15.8-8.6c-1.6,0-3.2,0.2-4.6,0.6l2.3,2.3c0.7-0.1,1.4-0.2,2.2-0.2
		c6.7,0,11.3,4.7,12.9,6.6c-0.8,1-2.4,2.6-4.6,4.1l2,2c3.4-2.3,5.3-5.1,5.5-5.3C32.1,16,32.1,15.4,31.8,14.9"/>
		<path d="M26.7,25.4L24.3,23l-2.1-2.1l-1.7-1.7l-1.5-1.5L17.3,16l-1.6-1.6L14,12.6l-1.5-1.5l-1.2-1.2L9.1,7.8L5.8,4.4
		C5.5,4.2,5.1,4,4.7,4C4.3,4,3.9,4.1,3.6,4.4C3,5,3,6,3.6,6.6l2.6,2.6c-3.8,2.4-5.8,5.5-6,5.7c-0.3,0.5-0.3,1.1,0,1.5
		c0.2,0.4,5.9,8.6,15.8,8.6c1.9,0,3.7-0.3,5.2-0.8l3.3,3.3c0.6,0.6,1.6,0.6,2.2,0v0c0.3-0.3,0.5-0.7,0.4-1.1
		C27.1,26,27,25.7,26.7,25.4 M12.3,15.4l4,4c-0.3,0-0.6,0-0.9,0c-1-0.1-1.8-0.6-2.4-1.4C12.5,17.2,12.3,16.3,12.3,15.4 M16,22.3
		c-6.7,0-11.3-4.7-12.9-6.6c0.9-1,2.6-2.9,5.1-4.4l2.4,2.4c-0.7,1.8-0.4,3.9,0.8,5.5c0.9,1.2,2.3,2,3.8,2.2c0.3,0,0.5,0.1,0.8,0.1
		c0.7,0,1.4-0.1,2.1-0.4L19,22C18,22.2,17,22.3,16,22.3"/>
	</g>
</svg>
