<svg xmlns="http://www.w3.org/2000/svg" viewBox="0 0 512 512">
<path fill-rule="evenodd" clip-rule="evenodd" d="M70.2482 70.2875C61.917 78.6186 61.917 92.1261 70.2482 100.457L112.222 142.431C80.0258 171.948 55.5733 211.186 42.6665 256C71.1549 354.916 155.894 426.667 256 426.667C295.722 426.667 333.024 415.37 365.352 395.561L411.537 441.746C419.868 450.077 433.375 450.077 441.707 441.746C450.038 433.415 450.038 419.907 441.707 411.576L399.737 369.606L344.985 314.837L313.75 283.619L228.392 198.244L197.152 167.021L146.61 116.462L100.418 70.2875C92.0869 61.9563 78.5794 61.9563 70.2482 70.2875ZM166.99 197.199C155.831 214.057 149.333 234.27 149.333 256C149.333 314.91 197.089 362.667 256 362.667C277.73 362.667 297.943 356.169 314.801 345.01L283.566 313.775C275.218 317.766 265.87 320 256 320C220.653 320 192 291.346 192 256C192 246.13 194.234 236.782 198.224 228.433L166.99 197.199Z" fill="black"/>
<path d="M362.666 256C362.666 261.131 362.304 266.178 361.604 271.116L428.48 337.991C446.594 314.067 460.604 286.309 469.334 256C440.845 157.084 356.106 85.3333 256 85.3333C232.1 85.3333 209.076 89.4231 187.484 96.996L240.884 150.396C245.822 149.696 250.869 149.333 256 149.333C314.91 149.333 362.666 197.09 362.666 256Z" fill="black"/>
</svg>
