<svg xmlns="http://www.w3.org/2000/svg" viewBox="0 0 512 512">
<path fill="#000" fill-rule="evenodd" d="M242.3 102.7c-44.8 4.2-81.7 34.7-81.7 83.7 0 5.4-2.1 10.5-5.8 14.1a17.4 17.4 0 0 1-13.8 5c-22.9-2-37.3 4.6-46 13.3-9.1 9-14.1 22-14.6 36.4-.9 30 17 55.5 44 55.5 10 0 18.1 8.6 18.1 19.1 0 10.6-8 19.1-18 19.1-54.2 0-81.5-51-80.1-95 .6-22.7 8.6-46 25.8-63a84.6 84.6 0 0 1 55.6-23.8c9-63 61.6-97.6 113.3-102.5 52.6-5 111.7 20 133.2 82.2 26.8-.8 49 8 65.3 23.7a104 104 0 0 1 30 69.8c1.3 25.5-5.3 52.3-20.4 73a84 84 0 0 1-70 35.6c-9.9 0-18-8.5-18-19 0-10.6 8.1-19.2 18-19.2 19 0 32.5-8.4 41.3-20.6a75.7 75.7 0 0 0 13-47.7 64.9 64.9 0 0 0-18.1-43.6c-10.4-10-26.7-16.6-51.4-12.6a18.1 18.1 0 0 1-20.4-14.6c-11-50.1-54.6-73.1-99.3-68.9Zm-3.1 116c7-7.5 18.5-7.5 25.5 0l63.2 66.9a20 20 0 0 1 0 27c-7 7.5-18.5 7.5-25.5 0L270 278.3v126c0 10.5-8 19-18 19s-18.1-8.5-18.1-19v-126l-32.4 34.3c-7 7.5-18.5 7.5-25.5 0a20 20 0 0 1 0-27l63.2-67Z" clip-rule="evenodd"/>
</svg>
