<svg viewBox="0 0 512 512" xmlns="http://www.w3.org/2000/svg">
<path d="M256 234.667C303.128 234.667 341.333 196.462 341.333 149.333C341.333 102.205 303.128 64 256 64C208.872 64 170.667 102.205 170.667 149.333C170.667 196.462 208.872 234.667 256 234.667Z" fill="black"/>
<path d="M64 387.011C64 358.238 77.1415 330.389 102.37 316.555C147.97 291.552 200.325 277.333 256 277.333C270.721 277.333 285.21 278.327 299.403 280.252C267.087 303.486 246.042 341.41 246.042 384.25C246.042 407.461 252.22 429.23 263.022 448H124.989C91.3059 448 64 420.694 64 387.011Z" fill="black"/>
<path fill-rule="evenodd" clip-rule="evenodd" d="M374.042 480.25C427.061 480.25 470.042 437.269 470.042 384.25C470.042 331.231 427.061 288.25 374.042 288.25C321.022 288.25 278.042 331.231 278.042 384.25C278.042 437.269 321.022 480.25 374.042 480.25ZM374.042 437.583C380.92 437.583 387.495 436.281 393.532 433.91L324.382 364.76C322.011 370.797 320.708 377.371 320.708 384.25C320.708 413.705 344.586 437.583 374.042 437.583ZM354.552 334.59L423.702 403.74C426.073 397.703 427.375 391.128 427.375 384.25C427.375 354.795 403.497 330.917 374.042 330.917C367.163 330.917 360.589 332.219 354.552 334.59Z" fill="black"/>
</svg>
