<svg viewBox="0 0 512 512" xmlns="http://www.w3.org/2000/svg">
<path d="M268.542 117.926C268.542 76.361 234.846 42.6667 193.28 42.6667C151.713 42.6667 118.017 76.361 118.017 117.925C117.947 137.907 125.854 157.091 139.983 171.22C154.113 185.35 173.298 193.256 193.28 193.184C234.846 193.184 268.542 159.489 268.542 117.926Z" />
<path d="M193.28 230.77V230.858C213.754 230.858 240.355 234.714 265.492 242.411C239.883 267.571 224 302.597 224 341.333C224 348.559 224.553 355.656 225.618 362.583H61.5485C56.549 362.606 51.7464 360.636 48.2029 357.109C44.6594 353.582 42.6672 348.789 42.6667 343.789V311.057C42.6667 257.679 139.281 230.77 193.28 230.77Z" />
<path fill-rule="evenodd" d="M362.667 448C421.577 448 469.333 400.244 469.333 341.333C469.333 282.423 421.577 234.667 362.667 234.667C303.756 234.667 256 282.423 256 341.333C256 400.244 303.756 448 362.667 448ZM362.667 405.333C398.013 405.333 426.667 376.68 426.667 341.333C426.667 331.453 424.428 322.096 420.43 313.742L335.075 399.097C343.43 403.095 352.787 405.333 362.667 405.333ZM390.261 283.571L304.905 368.928C300.906 360.572 298.667 351.214 298.667 341.333C298.667 305.987 327.32 277.333 362.667 277.333C372.548 277.333 381.906 279.573 390.261 283.571Z" />
</svg>