<svg viewBox="0 0 512 512" xmlns="http://www.w3.org/2000/svg">
<path d="M189.567 196.861C204.656 196.861 219.406 192.387 231.952 184.003C244.498 175.62 254.276 163.705 260.05 149.764C265.824 135.823 267.334 120.483 264.39 105.684C261.445 90.8851 254.179 77.2915 243.508 66.6226C232.838 55.9536 219.243 48.6885 204.444 45.746C189.644 42.8034 174.305 44.3156 160.365 50.0914C146.425 55.8671 134.511 65.647 126.129 78.1941C117.747 90.7412 113.275 105.492 113.277 120.581C113.24 130.61 115.188 140.546 119.009 149.818C122.83 159.09 128.448 167.515 135.54 174.605C142.631 181.696 151.056 187.313 160.329 191.133C169.601 194.953 179.538 196.9 189.567 196.861Z" fill="black"/>
<path d="M203.797 232.033C198.814 231.659 194.044 231.472 189.567 231.472H189.475C161.065 231.472 120.865 239.002 89.1249 254.002L89.558 253.913C61.0557 267.378 39.4169 286.883 39.4169 312.372V345.372C39.4058 347.865 39.8868 350.335 40.8323 352.641C41.7778 354.948 43.1693 357.045 44.9269 358.812C46.6622 360.577 48.7349 361.974 51.0216 362.92C53.3083 363.867 55.7622 364.344 58.2369 364.322L200.368 364.322C200.125 360.32 200 356.213 200 352V252C200 246.607 200.886 239.455 203.797 232.033Z" fill="black"/>
<path fill-rule="evenodd" clip-rule="evenodd" d="M232 352C232 462 332 472 352 472C372 472 472 462 472 362V252C472 235.75 458.875 232 452 232H252C235.75 232 232 245.125 232 252V352ZM352 272H432V352C432 378.875 415.75 432 352 432V272Z" fill="black"/>
</svg>
