<svg viewBox="0 0 512 512" xmlns="http://www.w3.org/2000/svg">
<path fill-rule="evenodd" clip-rule="evenodd" d="M287.686 55.3548C270.247 38.4376 241.748 38.4375 224.309 55.3548L198.953 79.9518L163.595 74.9369C139.587 71.5318 117.152 87.1734 113.139 110.116L106.652 147.196L72.8695 165.17C52.4092 176.055 44.2235 200.259 54.1297 220.58L71.3968 256L54.1297 291.421C44.2235 311.741 52.4092 335.945 72.8695 346.83L106.652 364.804L113.139 401.885C117.152 424.827 139.587 440.469 163.595 437.063L198.953 432.049L224.309 456.646C241.748 473.563 270.247 473.563 287.686 456.646L313.042 432.049L348.4 437.063C372.408 440.469 394.842 424.827 398.856 401.885L405.342 364.804L439.125 346.83C459.586 335.945 467.771 311.741 457.865 291.421L440.598 256L457.865 220.58C467.771 200.259 459.586 176.055 439.125 165.17L405.342 147.196L398.856 110.116C394.842 87.1734 372.408 71.5318 348.4 74.9369L313.042 79.9518L287.686 55.3548ZM356.418 228.418C364.749 220.087 364.749 206.58 356.418 198.248C348.087 189.917 334.58 189.917 326.248 198.248L234.667 289.83L185.752 240.915C177.42 232.584 163.913 232.584 155.582 240.915C147.251 249.246 147.251 262.754 155.582 271.085L219.582 335.085C227.913 343.416 241.42 343.416 249.752 335.085L356.418 228.418Z" fill="black"/>
</svg>
