<svg xmlns="http://www.w3.org/2000/svg" viewBox="0 0 512 512">
  <title>
    verified
  </title>
  <path d="M458.68 177.07l-51.58-25.6-8.93-53.33a24.5 24.5 0 0 0-26.66-19.2l-55.99 8.53L275 49.07a22.52 22.52 0 0 0-31.45 0l-44.66 38.4-55.98-8.53a23.1 23.1 0 0 0-26.93 19.2l-8.93 53.33-51.45 25.6a23.92 23.92 0 0 0-11.2 29.86L71.08 256 46.8 305.07a25.59 25.59 0 0 0 8.94 29.86l51.45 25.6 8.93 53.34a24.6 24.6 0 0 0 26.92 19.2l55.99-8.54 40.25 38.4a22.37 22.37 0 0 0 31.32 0l40-38.4 55.98 8.54a23.1 23.1 0 0 0 27.05-19.2l8.93-53.34 51.46-25.6a21 21 0 0 0 8.93-29.86L443.08 256h-.13l24.66-49.07a25.77 25.77 0 0 0-8.93-29.86zm-112.17 48.76L256 316.34a21.4 21.4 0 0 1-30.17 0L165.5 256a21.33 21.33 0 1 1 30.17-30.17l45.26 45.25 75.42-75.42a21.33 21.33 0 0 1 30.17 30.17z"/>
</svg>
