<svg xmlns="http://www.w3.org/2000/svg" viewBox="0 0 512 512">
<path d="M42.6667 256C71.1553 157.084 155.894 85.3333 256 85.3333C356.106 85.3333 440.845 157.084 469.334 256C466.957 264.252 464.189 272.315 461.053 280.163C438.217 258.987 407.641 246.042 374.042 246.042C370.068 246.042 366.137 246.223 362.256 246.577C357.486 192.08 311.735 149.333 256 149.333C197.09 149.333 149.333 197.09 149.333 256C149.333 311.735 192.08 357.486 246.577 362.256C246.223 366.137 246.042 370.068 246.042 374.042C246.042 392.797 250.076 410.611 257.324 426.662L256 426.667C155.894 426.667 71.1551 354.916 42.6667 256Z" fill="black"/>
<path d="M320 256C320 256.666 319.99 257.329 319.969 257.99C292.728 270.704 270.704 292.728 257.99 319.97C257.329 319.99 256.666 320 256 320C220.654 320 192 291.346 192 256C192 220.654 220.654 192 256 192C291.346 192 320 220.654 320 256Z" fill="black"/>
<path d="M442.46 357.127C450.791 348.795 450.791 335.288 442.46 326.957C434.129 318.625 420.621 318.625 412.29 326.957L363.375 375.872L346.46 358.957C338.129 350.625 324.621 350.625 316.29 358.957C307.959 367.288 307.959 380.795 316.29 389.127L348.29 421.127C356.621 429.458 370.129 429.458 378.46 421.127L442.46 357.127Z" fill="black"/>
</svg>
