<svg viewBox="0 0 512 512" xmlns="http://www.w3.org/2000/svg" xmlns:xlink="http://www.w3.org/1999/xlink">
  <title>
    warning
  </title>
  <defs>
    <path d="M266.816429,66.354647 C269.942908,68.1937518 272.548825,70.7996693 274.38793,73.9261475 L450.421708,373.183571 C456.395457,383.338944 453.005581,396.414181 442.850208,402.38793 C439.571773,404.316421 435.837358,405.333333 432.033778,405.333333 L79.9662217,405.333333 C68.184147,405.333333 58.6328884,395.782075 58.6328884,384 C58.6328884,380.196421 59.6498005,376.462006 61.5782918,373.183571 L237.61207,73.9261475 C243.585819,63.7707743 256.661056,60.380898 266.816429,66.354647 Z M256.000329,309.333333 C241.273332,309.333333 229.333333,321.273339 229.333333,336.000345 C229.333333,350.727352 241.273332,362.667358 256.000329,362.667358 C270.728327,362.667358 282.667326,350.727352 282.667326,336.000345 C282.667326,321.273339 270.727327,309.333333 256.000329,309.333333 Z M256,149.333333 C244.217925,149.333333 234.666667,158.884592 234.666667,170.666667 L234.666667,170.666667 L234.666667,256 C234.666667,267.782075 244.217925,277.333333 256,277.333333 C267.782075,277.333333 277.333333,267.782075 277.333333,256 L277.333333,256 L277.333333,170.666667 C277.333333,158.884592 267.782075,149.333333 256,149.333333 Z" id="path-1"></path>
  </defs>
    <g id="icon-/-warning" stroke="none" stroke-width="1" fill="none" fill-rule="evenodd">
      <mask id="mask-2" fill="white">
        <use xlink:href="#path-1"></use>
      </mask>
      <use id="Combined-Shape" fill="#000000" xlink:href="#path-1"></use>
    </g>
</svg>
