<svg xmlns="http://www.w3.org/2000/svg" viewBox="0 0 512 512">
<path fill-rule="evenodd" clip-rule="evenodd" d="M293.245 106.667C276.696 78.2221 235.324 78.2221 218.775 106.667L69.8347 362.667C53.2858 391.111 73.9719 426.667 107.07 426.667H404.951C438.049 426.667 458.735 391.111 442.186 362.667L293.245 106.667ZM224 181.333C224 163.66 238.327 149.333 256 149.333C273.673 149.333 288 163.66 288 181.333L288 266.667C288 284.34 273.673 298.667 256 298.667C238.327 298.667 224 284.34 224 266.667L224 181.333ZM256 384C273.673 384 288 369.673 288 352C288 334.327 273.673 320 256 320C238.327 320 224 334.327 224 352C224 369.673 238.327 384 256 384Z" fill="black"/>
</svg>
