<svg xmlns="http://www.w3.org/2000/svg" xmlns:xlink="http://www.w3.org/1999/xlink" preserveAspectRatio="xMidYMid" width="32" height="32" viewBox="0 0 32 32">
  <path d="M21.114,15.771 L30.966,25.622 C32.326,26.982 32.326,29.188 30.966,30.547 C29.606,31.907 27.400,31.907 26.040,30.547 L16.188,20.697 L5.925,30.959 C4.565,32.319 2.359,32.319 0.999,30.959 L0.999,30.959 C-0.362,29.598 -0.362,27.393 0.999,26.033 L11.262,15.771 L1.410,5.920 C0.050,4.560 0.050,2.355 1.410,0.995 C2.770,-0.365 4.976,-0.365 6.336,0.995 L16.188,10.845 L25.630,1.404 C26.991,0.044 29.196,0.044 30.556,1.404 L30.556,1.405 C31.917,2.765 31.917,4.970 30.556,6.330 L21.114,15.771 Z"/>
</svg>
