<svg viewBox="0 0 512 512" xmlns="http://www.w3.org/2000/svg">
<path fill-rule="evenodd" clip-rule="evenodd" d="M405.99 390.482C422.596 385.997 435.553 373.002 439.99 356.383V356.283C445.517 325.596 448.195 294.463 447.99 263.283C448.195 232.103 445.517 200.971 439.99 170.284C435.584 153.626 422.622 140.588 405.99 136.084C356.19 130.084 306.09 127.484 255.99 128.084C205.89 127.484 155.79 130.184 105.99 136.184C89.3586 140.688 76.3959 153.726 71.9901 170.384C66.4637 201.071 63.7857 232.203 63.9901 263.383C63.7857 294.563 66.4637 325.696 71.9901 356.383C76.3959 373.04 89.3586 386.079 105.99 390.582C155.79 396.582 205.89 399.182 255.99 398.582C306.09 399.182 356.19 396.482 405.99 390.482ZM317.09 263.383L216.69 320.383V206.284L317.09 263.383Z" fill="black"/>
</svg>
