<svg xmlns="http://www.w3.org/2000/svg" xmlns:xlink="http://www.w3.org/1999/xlink" viewBox="0 0 24 24">
    <title>alpha</title>
    <rect fill="transparent" x="0" y="0" width="24" height="24"></rect>
    <path d="M15.3755144,6.36148301 L17.649177,6.36148301 L16.2716049,12.5602472 C16.0041139,13.7384199 15.8213311,14.4613787 15.723251,14.7291452 C16.0799058,16.3714466 16.5970474,17.192585 17.2746914,17.192585 C18.0771645,17.192585 18.4917694,16.6392091 18.5185185,15.5324408 L19,15.5324408 C18.9732509,16.5678047 18.7837809,17.4045625 18.4315844,18.0427394 C18.0793878,18.6809163 17.6179727,19 17.0473251,19 C16.5747576,19 16.2225663,18.8081035 15.9907407,18.4243048 C15.7589152,18.0405061 15.5092606,17.2550694 15.2417695,16.0679712 C14.3144672,18.0226668 12.7987074,19 10.6944444,19 C9.25890915,19 8.11763112,18.4399301 7.27057613,17.3197734 C6.42352114,16.1996168 6,14.5952731 6,12.5066941 C6,10.4538174 6.4636442,8.85616774 7.3909465,7.71369722 C8.31824881,6.57122669 9.43277813,6 10.7345679,6 C11.6529538,6 12.4063757,6.32577772 12.994856,6.97734295 C13.5833363,7.62890817 14.104936,8.6910328 14.5596708,10.1637487 L15.3755144,6.36148301 Z M14.1985597,11.6096807 C13.7794904,10.172667 13.311388,9.05029583 12.7942387,8.24253347 C12.2770893,7.43477111 11.657411,7.03089598 10.9351852,7.03089598 C9.30348978,7.03089598 8.48765432,8.94093524 8.48765432,12.7610711 C8.48765432,16.3848448 9.26782485,18.1967044 10.8281893,18.1967044 C12.1834773,18.1967044 13.1865537,16.5990548 13.8374486,13.4037075 L14.1985597,11.6096807 Z"></path>
</svg>
