<svg xmlns="http://www.w3.org/2000/svg" xmlns:xlink="http://www.w3.org/1999/xlink" viewBox="0 0 24 24">
    <title>beta</title>
    <rect fill="transparent" x="0" y="0" width="24" height="24"></rect>
    <path d="M8,21 C8.2222208,19.9691395 8.33333191,19.0358787 8.33333333,18.2002155 L8.33333333,8.23627527 C8.33333191,7.19932811 8.42592427,6.42771053 8.61111087,5.92142067 C8.80246708,5.4151533 9.16975076,4.96987202 9.71296284,4.5855759 C10.2623422,4.19520477 10.9475266,4.00001265 11.7685182,4 C12.7438213,4.00001265 13.5617214,4.2562021 14.2222222,4.76856836 C14.8888808,5.27485916 15.2222137,5.99767858 15.2222222,6.93702899 C15.2222137,8.03499269 14.6944365,8.93470476 13.6388888,9.636168 C15.2129545,10.3681444 15.9999905,11.5179457 16,13.0855759 C15.9999905,13.9395437 15.7901146,14.7050615 15.3703704,15.3821315 C14.956782,16.0531045 14.475301,16.5319346 13.9259259,16.8186222 C13.3827096,17.1053104 12.7314754,17.2486542 11.9722221,17.2486546 C11.1080201,17.2486542 10.4043174,16.9284177 9.86111099,16.2879438 L9.86111099,17.989774 C9.86110815,19.1609235 9.74999704,20.1643312 9.52777766,21 L8,21 Z M11.8796293,16.6447793 C12.7129572,16.6447797 13.3240676,16.3458924 13.7129628,15.7481164 C14.1018444,15.1442429 14.2962887,14.412274 14.2962963,13.5522068 C14.2962887,12.8934377 14.1666593,12.2224661 13.9074072,11.5392897 C13.6543142,10.8500242 13.3271538,10.3254461 12.9259259,9.96555444 C12.5555499,10.0570575 12.2222165,10.1028055 11.9259259,10.1027984 C11.3024645,10.1028055 10.9907366,9.94116216 10.9907404,9.61786852 C10.9907366,9.32508807 11.2530821,9.17869456 11.7777778,9.1786866 C12.104933,9.17869456 12.5123399,9.25189155 13,9.39827756 C13.4382649,8.66631612 13.6574004,7.87029971 13.6574071,7.01022597 C13.6574004,6.24166838 13.4845611,5.65304328 13.1388885,5.24434878 C12.7993766,4.8356777 12.3549326,4.63133608 11.8055552,4.6313239 C11.3672794,4.63133608 10.9907366,4.75333121 10.6759258,4.99730883 C10.3672804,5.24131034 10.1543177,5.53409829 10.037037,5.87567268 C9.91974969,6.21116972 9.86110815,6.76319633 9.86111099,7.53175439 L9.86111099,15.464478 C10.3425892,16.2513463 11.0154278,16.6447797 11.8796293,16.6447793 Z" fill-rule="nonzero"></path>
</svg>
