<svg xmlns="http://www.w3.org/2000/svg" xmlns:xlink="http://www.w3.org/1999/xlink" viewBox="0 0 24 24">
    <title>beta</title>
    <path d="M7,23 C7.277776,21.7265841 7.41666489,20.5737325 7.41666667,19.5414427 L7.41666667,7.23304592 C7.41666489,5.95211119 7.53240533,4.99893654 7.76388859,4.37351966 C8.00308385,3.74813055 8.46218844,3.19807721 9.14120356,2.72335846 C9.8279277,2.2411353 10.6844083,2.00001562 11.7106477,2 C12.9297766,2.00001562 13.9521517,2.31648495 14.7777778,2.94940798 C15.611101,3.57482602 16.0277671,4.4677206 16.0277778,5.62809463 C16.0277671,6.98440274 15.3680456,8.09581176 14.048611,8.96232518 C16.0161932,9.86653135 16.9999881,11.286874 17,13.2233585 C16.9999881,14.2782599 16.7376433,15.2238994 16.212963,16.0602801 C15.6959775,16.8891291 15.0941262,17.4806251 14.4074074,17.8347686 C13.728387,18.1889128 12.9143443,18.3659846 11.9652776,18.3659852 C10.8850252,18.3659846 10.0053967,17.9703984 9.32638874,17.1792247 L9.32638874,19.2814856 C9.32638519,20.7281996 9.1874963,21.9677032 8.90972207,23 L7,23 Z M11.8495366,17.6200215 C12.8911964,17.620022 13.6550844,17.2508083 14.1412036,16.5123791 C14.6273055,15.7664177 14.8703609,14.8622208 14.8703704,13.7997849 C14.8703609,12.9860112 14.7083241,12.157164 14.384259,11.3132402 C14.0678927,10.4617946 13.6589422,9.81378637 13.1574074,9.36921431 C12.6944373,9.48224746 12.2777707,9.5387597 11.9074074,9.53875102 C11.1280806,9.5387597 10.7384207,9.33908267 10.7384255,8.93971994 C10.7384207,8.57804996 11.0663526,8.39721093 11.7222222,8.39720109 C12.1311662,8.39721093 12.6404249,8.48763074 13.25,8.66846051 C13.7978311,7.76427285 14.0717505,6.78095846 14.0717588,5.71851444 C14.0717505,4.76911977 13.8557013,4.04199464 13.4236107,3.53713673 C12.9992207,3.03230775 12.4436658,2.77988574 11.756944,2.77987069 C11.2090993,2.77988574 10.7384207,2.93058561 10.3449073,3.23196973 C9.95910044,3.53338336 9.69289719,3.89506259 9.5462963,4.31700742 C9.39968711,4.73144495 9.32638519,5.41336017 9.32638874,6.36275542 L9.32638874,16.1620022 C9.92823644,17.134016 10.7692847,17.620022 11.8495366,17.6200215 Z"></path>
</svg>
