<svg xmlns="http://www.w3.org/2000/svg" xmlns:xlink="http://www.w3.org/1999/xlink" viewBox="0 0 48 24">
    <title>integral</title>
    <path d="M32.0087146,10 L36,10 L36,9.4534712 L33.1503268,9.4534712 C34.7712418,8.36779911 35.9738562,7.45199409 35.9738562,6.44756278 C35.9738562,5.46528804 34.9891068,5 34.0217865,5 C33.2026144,5 32.4444444,5.28064993 32,5.77548006 L32.4444444,6.16691285 C32.7843137,5.79763663 33.3246187,5.5465288 34.0217865,5.5465288 C34.6230937,5.5465288 35.2331155,5.81979321 35.2331155,6.44756278 C35.2331155,7.29689808 34.1002179,8.11669129 32.0087146,9.51255539 L32.0087146,10 Z"></path>
    <path d="M32.0087146,19 L36,19 L36,18.4534712 L33.1503268,18.4534712 C34.7712418,17.3677991 35.9738562,16.4519941 35.9738562,15.4475628 C35.9738562,14.465288 34.9891068,14 34.0217865,14 C33.2026144,14 32.4444444,14.2806499 32,14.7754801 L32.4444444,15.1669129 C32.7843137,14.7976366 33.3246187,14.5465288 34.0217865,14.5465288 C34.6230937,14.5465288 35.2331155,14.8197932 35.2331155,15.4475628 C35.2331155,16.2968981 34.1002179,17.1166913 32.0087146,18.5125554 L32.0087146,19 Z"></path>
    <path d="M24,15.53 L28.41,15.53 L28.41,15 L24,15 L24,15.53 Z M24,17.46 L28.41,17.46 L28.41,16.94 L24,16.94 L24,17.46 Z"></path>
    <path d="M24,6.53 L28.41,6.53 L28.41,6 L24,6 L24,6.53 Z M24,8.46 L28.41,8.46 L28.41,7.94 L24,7.94 L24,8.46 Z"></path>
    <path d="M13,4 C12,4 11.5,4.33333333 11.5,5 C11.5,6 11.5,10 11.5,11 C11.5,11.6666667 11,12 10,12"></path>
    <rect x="16" y="5" width="5" height="5" rx="1"></rect>
    <rect x="16" y="14" width="5" height="5" rx="1"></rect>
    <path d="M13,12 C12,12 11.5,12.3333333 11.5,13 C11.5,14 11.5,18 11.5,19 C11.5,19.6666667 11,20 10,20" transform="translate(11.500000, 16.000000) scale(1, -1) translate(-11.500000, -16.000000) "></path>
</svg>
