<svg xmlns="http://www.w3.org/2000/svg" xmlns:xlink="http://www.w3.org/1999/xlink" viewBox="0 0 48 24">
    <title>equation_system</title>
    <path d="M32.0087146,10 L36,10 L36,9.4534712 L33.1503268,9.4534712 C34.7712418,8.36779911 35.9738562,7.45199409 35.9738562,6.44756278 C35.9738562,5.46528804 34.9891068,5 34.0217865,5 C33.2026144,5 32.4444444,5.28064993 32,5.77548006 L32.4444444,6.16691285 C32.7843137,5.79763663 33.3246187,5.5465288 34.0217865,5.5465288 C34.6230937,5.5465288 35.2331155,5.81979321 35.2331155,6.44756278 C35.2331155,7.29689808 34.1002179,8.11669129 32.0087146,9.51255539 L32.0087146,10 Z"></path>
    <path d="M32.0087146,19 L36,19 L36,18.4534712 L33.1503268,18.4534712 C34.7712418,17.3677991 35.9738562,16.4519941 35.9738562,15.4475628 C35.9738562,14.465288 34.9891068,14 34.0217865,14 C33.2026144,14 32.4444444,14.2806499 32,14.7754801 L32.4444444,15.1669129 C32.7843137,14.7976366 33.3246187,14.5465288 34.0217865,14.5465288 C34.6230937,14.5465288 35.2331155,14.8197932 35.2331155,15.4475628 C35.2331155,16.2968981 34.1002179,17.1166913 32.0087146,18.5125554 L32.0087146,19 Z"></path>
    <path d="M24,15.53 L28.41,15.53 L28.41,15 L24,15 L24,15.53 Z M24,17.46 L28.41,17.46 L28.41,16.94 L24,16.94 L24,17.46 Z"></path>
    <path d="M24,6.53 L28.41,6.53 L28.41,6 L24,6 L24,6.53 Z M24,8.46 L28.41,8.46 L28.41,7.94 L24,7.94 L24,8.46 Z"></path>
    <rect x="16" y="5" width="5" height="5" rx="1"></rect>
    <rect x="16" y="14" width="5" height="5" rx="1"></rect>
    <path d="M13.0047302,4.48857117 L13.0047302,3.50296021 C12.7646281,3.50730871 12.5799357,3.51995825 12.4506531,3.54090881 C12.1589498,3.58818005 11.9732239,3.6461738 11.8723468,3.68944612 C11.5207062,3.84028625 11.3700181,3.96728922 11.2329861,4.18894046 C11.0959542,4.41059169 11.0205013,4.6044785 11.0069755,4.85853537 C10.9979583,5.02790661 10.9979583,5.54462317 11.0069755,6.40868504 L11.0069755,8.16636339 L11.0069755,9.94583889 L11.0069755,11.0345191 C10.9967811,11.2014986 10.9354909,11.3062998 10.8231049,11.3489227 C10.6545258,11.4128571 10.6067657,11.4646759 10.2932129,11.4866638 C10.0841777,11.5013224 9.98851013,11.5086517 10.0062103,11.5086517 L10.0062103,12.4911652 C10.1402639,12.4955088 10.2426554,12.5022125 10.313385,12.5112762 C10.4194794,12.5248718 10.7281647,12.5845795 10.8231049,12.6486816 C10.918045,12.7127838 11.0069755,12.8636322 11.0069755,12.9659576 C11.0069755,13.0341746 11.0069755,15.0582886 11.0069755,19.0382996 C11.0254673,19.3890279 11.1008041,19.645223 11.2329861,19.8068848 C11.3651682,19.9685465 11.4529363,20.062795 11.4962905,20.0896301 C11.6896815,20.2265828 11.8495026,20.3138784 11.9757538,20.3515167 C12.1651306,20.4079742 12.4040222,20.4609222 12.5293427,20.4768677 C12.6128896,20.487498 12.7659232,20.4928131 12.9884433,20.4928131 L12.9884433,19.5088501 L12.5293427,19.4700928 C12.3000743,19.4078267 12.1568756,19.3514455 12.0997467,19.3009491 C12.0140533,19.2252045 11.9940796,19.0953369 11.9975891,18.9896851 C11.9999288,18.9192505 12.0010986,17.847819 12.0010986,15.7753906 L12.0010986,12.9468231 C11.9603984,12.6507823 11.9098612,12.4457652 11.8494873,12.3317719 C11.7891134,12.2177785 11.7092489,12.1074836 11.6098938,12.0008871 C11.7808126,11.7862047 11.8814545,11.6313578 11.9118195,11.5363464 C11.9573669,11.3938293 12.0010986,11.1576843 12.0010986,10.976593 C12.0010986,10.8558655 11.9999288,10.1619059 11.9975891,8.89471436 C11.9973053,7.18292255 11.9973053,6.16384398 11.9975891,5.83747864 C11.9980148,5.34793063 11.9757538,4.97122192 12.0010986,4.85853537 C12.0264435,4.74584881 12.0997467,4.6802063 12.2118683,4.62600708 C12.286616,4.58987427 12.4118805,4.55436198 12.5876617,4.51947021 L13.0047302,4.48857117 Z"></path>
</svg>
