<svg xmlns="http://www.w3.org/2000/svg" xmlns:xlink="http://www.w3.org/1999/xlink" viewBox="0 0 48 24">
    <title>integral</title>
    <path d="M16,6 C14.6666667,6 13.8333333,6.5 13.5,7.5 C13,9 13,15 12.5,16.5 C12.1666667,17.5 11.3333333,18 10,18"></path>
    <rect x="11" y="1" width="4" height="4" rx="1"></rect>
    <rect x="11" y="19" width="4" height="4" rx="1"></rect>
    <polygon points="22.62 17 24.04 17 22.31 14.52 23.93 12.17 22.51 12.17 21.52 13.66 20.52 12.17 19.1 12.17 20.71 14.52 19 17 20.41 17 21.52 15.37"></polygon>
    <path d="M30.95,17 L30.95,16.38 C30.57,16.86 30.04,17.12 29.46,17.12 C28.24,17.12 27.32,16.2 27.32,14.59 C27.32,13.01 28.23,12.05 29.46,12.05 C30.03,12.05 30.57,12.3 30.95,12.79 L30.95,10.33 L32.23,10.33 L32.23,17 L30.95,17 Z M30.95,15.44 L30.95,13.73 C30.74,13.41 30.28,13.18 29.85,13.18 C29.13,13.18 28.63,13.75 28.63,14.59 C28.63,15.42 29.13,15.99 29.85,15.99 C30.28,15.99 30.74,15.76 30.95,15.44 Z M36.9244444,17 L38.3444444,17 L36.6144444,14.52 L38.2344444,12.17 L36.8144444,12.17 L35.8244444,13.66 L34.8244444,12.17 L33.4044444,12.17 L35.0144444,14.52 L33.3044444,17 L34.7144444,17 L35.8244444,15.37 L36.9244444,17 Z"></path>
</svg>


