<svg xmlns="http://www.w3.org/2000/svg" xmlns:xlink="http://www.w3.org/1999/xlink" viewBox="0 0 48 24">
    <title>integral</title>
    <rect fill="transparent" x="0" y="0" width="48" height="24"></rect>
    <rect x="11" y="1" width="4" height="4" rx="1"></rect>
    <rect x="11" y="19" width="4" height="4" rx="1"></rect>
    <polygon points="22.62 17 24.04 17 22.31 14.52 23.93 12.17 22.51 12.17 21.52 13.66 20.52 12.17 19.1 12.17 20.71 14.52 19 17 20.41 17 21.52 15.37"></polygon>
    <path d="M30.95,17 L30.95,16.38 C30.57,16.86 30.04,17.12 29.46,17.12 C28.24,17.12 27.32,16.2 27.32,14.59 C27.32,13.01 28.23,12.05 29.46,12.05 C30.03,12.05 30.57,12.3 30.95,12.79 L30.95,10.33 L32.23,10.33 L32.23,17 L30.95,17 Z M30.95,15.44 L30.95,13.73 C30.74,13.41 30.28,13.18 29.85,13.18 C29.13,13.18 28.63,13.75 28.63,14.59 C28.63,15.42 29.13,15.99 29.85,15.99 C30.28,15.99 30.74,15.76 30.95,15.44 Z M36.9244444,17 L38.3444444,17 L36.6144444,14.52 L38.2344444,12.17 L36.8144444,12.17 L35.8244444,13.66 L34.8244444,12.17 L33.4044444,12.17 L35.0144444,14.52 L33.3044444,17 L34.7144444,17 L35.8244444,15.37 L36.9244444,17 Z"></path>
    <path d="M10.0078667,17.499597 L10.0078667,18.505188 C10.3272072,18.5086508 10.6400019,18.4746018 10.9462509,18.4030411 C11.4056244,18.2957001 11.6027947,18.2032281 11.8411713,18.0762634 C12.0795478,17.9492987 12.2739734,17.801219 12.4488891,17.5971793 C12.6238048,17.3931397 12.7428854,17.204696 12.7992376,17.0983679 C12.8555897,16.9920398 13.031058,16.5278126 13.0747945,16.2930662 C13.1219482,16.039978 13.2028693,15.6094127 13.3084412,14.5290527 C13.3490218,14.1137741 13.4118067,13.3298386 13.4967957,12.1772461 L13.6978455,9.47676086 C13.8382568,8.35115051 13.9434764,7.71083069 14.013504,7.55580139 C14.1185455,7.32325745 14.234375,7.06904602 14.5157928,6.88360596 C14.7972107,6.69816589 14.9352722,6.63830566 15.2236786,6.58192444 C15.4159495,6.54433695 15.5984039,6.519104 15.7710419,6.50622559 L15.9989166,6.50622559 L15.9989166,5.49516296 C15.5644379,5.50788879 15.2281952,5.54456075 14.9901886,5.60517883 C14.6331787,5.69610596 14.3573151,5.79518127 14.0368652,5.99887085 C13.7164154,6.20256042 13.7103345,6.19564819 13.4779623,6.50622559 C13.2455902,6.81680298 13.1858063,6.90641785 13.0283966,7.34558105 C12.8709869,7.78474426 12.7992376,8.39501953 12.7548218,8.87683105 C12.710406,9.35864258 12.6138763,10.3069153 12.5912628,10.6966248 C12.5686493,11.0863342 12.4607239,12.5098267 12.4281616,12.9701385 C12.3955994,13.4304504 12.3220367,14.4977112 12.2684021,14.9269409 C12.2147675,15.3561707 12.1062164,16.273407 11.9334869,16.5759735 C11.7655071,16.8702201 11.6753082,17.0372772 11.2106018,17.2728577 C10.9007975,17.4299113 10.4998858,17.5054911 10.0078667,17.499597 Z"></path>
</svg>


