<svg xmlns="http://www.w3.org/2000/svg" xmlns:xlink="http://www.w3.org/1999/xlink" viewBox="0 0 48 24">
    <title>limit</title>
    <rect x="40" y="14" width="4" height="4" rx="1"></rect>
    <rect x="5" y="16" width="5" height="5" rx="1"></rect>
    <path d="M26.0253685,16 C26.552394,16 27.0478802,16.259838 27.4213233,16.7314815 C27.7947663,17.2042824 28,17.8310185 28,18.4994213 C28,19.1678241 27.7943092,19.7962963 27.4208662,20.2673611 C27.0483373,20.740162 26.5528511,21 26.0253685,21 C25.497886,21 25.0014855,20.7395833 24.6289567,20.2673611 L24,19.5034722 L23.3623586,20.2777778 C22.9980574,20.740162 22.501657,21 21.9746315,21 C21.4466918,21 20.9507485,20.7395833 20.5786767,20.2673611 C20.2052337,19.7957176 20,19.1672454 20,18.5005787 C20,17.8321759 20.2056908,17.2048611 20.5791338,16.7326389 C20.9512056,16.2609954 21.4471489,16 21.9746315,16 C22.502114,16 22.9985145,16.259838 23.3710433,16.7326389 L23.9995429,17.4965278 L24.6376414,16.7210648 C25.0028568,16.259838 25.498343,16 26.0253685,16 Z M26.61273,19.2436343 C26.7699691,19.0445602 26.8568164,18.7795139 26.8568164,18.4982639 C26.8568164,18.2170139 26.7704262,17.9537037 26.6131871,17.7534722 C26.2991658,17.3564815 25.7515712,17.3564815 25.4370929,17.7546296 L24.8250486,18.4982639 L25.4288653,19.2332176 C25.7597989,19.6516204 26.2987087,19.6423611 26.61273,19.2436343 Z M22.56245,19.2436343 L23.1749514,18.5005787 L22.5711347,17.765625 C22.4052108,17.5561343 22.1963204,17.4467593 21.9746315,17.4467593 C21.7529425,17.4467593 21.5440521,17.5561343 21.3877271,17.7552083 C21.2295738,17.9554398 21.1431836,18.21875 21.1431836,18.5 C21.1431836,18.7800926 21.2295738,19.0445602 21.3868129,19.2436343 C21.7012913,19.6417824 22.2484288,19.6417824 22.56245,19.2436343 Z"></path>
    <path d="M37.4907407,5.25025747 L39.0648148,5.25025747 L38.1111111,9.54170958 C37.925925,10.3573676 37.7993831,10.8578775 37.7314815,11.0432544 C37.9783963,12.1802323 38.3364174,12.7487127 38.8055556,12.7487127 C39.3611139,12.7487127 39.6481481,12.3656063 39.6666667,11.5993821 L40,11.5993821 C39.9814814,12.3161725 39.8503099,12.8954664 39.6064815,13.3372812 C39.3626531,13.7790959 39.0432119,14 38.6481481,14 C38.320986,14 38.0771613,13.8671486 37.9166667,13.6014418 C37.756172,13.335735 37.5833343,12.7919712 37.3981481,11.9701339 C36.7561696,13.3233847 35.7067974,14 34.25,14 C33.2561679,14 32.4660523,13.6122593 31.8796296,12.8367662 C31.2932069,12.0612732 31,10.9505737 31,9.5046344 C31,8.08341205 31.3209844,6.9773469 31.962963,6.18640577 C32.6049415,5.39546463 33.3765387,5 34.2777778,5 C34.9135834,5 35.4351831,5.22553842 35.8425926,5.67662204 C36.250002,6.12770565 36.6111095,6.86302271 36.9259259,7.88259526 L37.4907407,5.25025747 Z M36.6759259,8.88362513 C36.385801,7.88876949 36.0617302,7.11174327 35.7037037,6.55252317 C35.3456772,5.99330307 34.9166692,5.71369722 34.4166667,5.71369722 C33.2870314,5.71369722 32.7222222,7.03603209 32.7222222,9.6807415 C32.7222222,12.1895079 33.2623403,13.4438723 34.3425926,13.4438723 C35.2808689,13.4438723 35.9753064,12.3378071 36.4259259,10.1256437 L36.6759259,8.88362513 Z"></path>
    <path d="M7,14 L8.66618076,14 L8.66618076,5.24927114 L7,5.24927114 L7,14 Z M11.7288629,6.98104956 C12.2798833,6.98104956 12.7259475,6.53498542 12.7259475,5.98396501 C12.7259475,5.43294461 12.2798833,5 11.7288629,5 C11.190962,5 10.7317784,5.43294461 10.7317784,5.98396501 C10.7317784,6.53498542 11.190962,6.98104956 11.7288629,6.98104956 Z M10.9023323,14 L12.5685131,14 L12.5685131,7.66326531 L10.9023323,7.66326531 L10.9023323,14 Z M22.6632652,14 L24.3425655,14 L24.3425655,9.4212828 C24.3425655,8.12244898 23.6472302,7.5058309 22.4795917,7.5058309 C21.5087462,7.5058309 20.6690961,8.08309038 20.3017492,8.66034985 C20.0655976,7.93877551 19.4752185,7.5058309 18.5437317,7.5058309 C17.5728862,7.5058309 16.733236,8.10932945 16.4708454,8.48979592 L16.4708454,7.66326531 L14.8046646,7.66326531 L14.8046646,14 L16.4708454,14 L16.4708454,9.7361516 C16.7201165,9.3819242 17.2055392,8.98833819 17.7827987,8.98833819 C18.4650145,8.98833819 18.7274051,9.40816327 18.7274051,9.99854227 L18.7274051,14 L20.4067054,14 L20.4067054,9.72303207 C20.642857,9.3819242 21.1282798,8.98833819 21.7186588,8.98833819 C22.4008745,8.98833819 22.6632652,9.40816327 22.6632652,9.99854227 L22.6632652,14 Z"></path>
    <polygon points="12 18.1938951 12 18.9735818 16.5075633 18.9735818 15.2649377 20.1674769 16.3857372 20.1674769 18.0913017 18.6081037 16.3857372 17 15.2649377 17 16.5075633 18.1938951"></polygon>
</svg>

