<svg xmlns="http://www.w3.org/2000/svg" xmlns:xlink="http://www.w3.org/1999/xlink" viewBox="0 0 48 24">
    <title>matrix</title>
    <rect fill="transparent" x="0" y="0" width="48" height="24"></rect>
    <rect x="15" y="5" width="4" height="4" rx="1"></rect>
    <rect x="15" y="11" width="4" height="4" rx="1"></rect>
    <rect x="15" y="17" width="4" height="4" rx="1"></rect>
    <rect x="22" y="5" width="4" height="4" rx="1"></rect>
    <rect x="22" y="11" width="4" height="4" rx="1"></rect>
    <rect x="22" y="17" width="4" height="4" rx="1"></rect>
    <rect x="29" y="5" width="4" height="4" rx="1"></rect>
    <rect x="29" y="11" width="4" height="4" rx="1"></rect>
    <rect x="29" y="17" width="4" height="4" rx="1"></rect>
    <polygon points="11.944191 3 11.944191 3.95201384 9.96964373 3.95201384 9.96964373 20.9472239 11.944191 20.9472239 11.944191 21.9521274 9 21.9521274 9 3"></polygon>
    <polygon transform="translate(37.472095, 12.476064) rotate(180.000000) translate(-37.472095, -12.476064) " points="38.944191 3 38.944191 3.95201384 36.9696437 3.95201384 36.9696437 20.9472239 38.944191 20.9472239 38.944191 21.9521274 36 21.9521274 36 3"></polygon>
</svg>

