<svg xmlns="http://www.w3.org/2000/svg" xmlns:xlink="http://www.w3.org/1999/xlink" viewBox="0 0 24 24">
    <title>nth root</title>
    <path d="M8.37147492,15.215991 L10.8108188,6.70898793 L10.8108188,6.70898793 C10.8184808,6.68226729 10.827678,6.65640273 10.838287,6.63146257 C10.8545641,6.27997244 11.144687,6 11.5002009,6 L11.5002009,6 L21.3373659,6 L21.3373659,6 C21.7033286,6 22,6.29667141 22,6.66263414 L22,6.66263414 C22,7.02859686 21.7033286,7.32526827 21.3373659,7.32526827 L12.0127791,7.32526827 L9.15599957,17.2880424 C9.15495068,17.2917003 9.15387301,17.2953422 9.15276689,17.2989679 C9.14491904,17.5535511 8.98981248,17.7917447 8.73849707,17.8932827 C8.39918233,18.0303748 8.01297833,17.8664409 7.87588628,17.5271261 L6.69584953,14.6064327 L5.66263414,14.6064327 L5.66263414,14.6064327 C5.29667141,14.6064327 5,14.3097613 5,13.9437986 L5,13.9437986 L5,13.9437986 C5,13.5778358 5.29667141,13.2811644 5.66263414,13.2811644 L7.14356784,13.2811644 C7.43702529,13.2811644 7.68592785,13.4719266 7.77303511,13.7362106 C7.77667869,13.7442916 7.7801778,13.7524792 7.78352813,13.7607716 L8.37147492,15.215991 Z" transform="translate(13.500000, 11.970854) rotate(-360.000000) translate(-13.500000, -11.970854) "></path>
    <rect x="13" y="10" width="8" height="8" rx="1"></rect>
    <rect x="3" y="7" width="5" height="5" rx="1"></rect>
</svg>
