<svg xmlns="http://www.w3.org/2000/svg" xmlns:xlink="http://www.w3.org/1999/xlink" viewBox="0 0 24 24">
    <title>pi</title>
    <path d="M9.95778446,7.01315377 L17.2625119,7.01315377 C17.7711244,7.22946023 18.0166614,7.57730439 17.9991231,8.05668626 C17.9815847,8.53606814 17.7360477,8.89268148 17.2625119,9.1265263 L15.1140627,9.1265263 C14.6756036,11.3422059 14.5294506,12.751121 14.6756036,13.3532714 C14.8948331,14.256497 14.9474482,14.6160334 15.1140627,14.9755698 C15.2806771,15.3351062 15.6840594,15.5631049 16.0435958,15.6244891 C16.4031322,15.6858734 16.6749768,15.4578747 16.8942063,15.3175678 C17.1134358,15.1772609 17.1485126,15.2035685 17.2625119,14.7826478 C17.3385115,14.502034 17.3531268,14.309112 17.3063578,14.2038819 C17.4057419,14.162959 17.510972,14.1892666 17.6220483,14.2828045 C17.7886627,14.4231114 17.9026621,14.7563402 17.9289696,14.8440321 C17.9552772,14.9317239 17.9728155,15.3000294 17.9289696,15.519259 C17.8851237,15.7384885 17.7009709,16.2295626 17.6220483,16.3435619 C17.5431257,16.4575613 17.0432824,16.8960203 16.8328221,17.0100197 C16.6223617,17.124019 16.1839027,17.3520177 15.7015978,17.3783253 C15.2192928,17.4046328 15.03514,17.3607869 14.6756036,17.2117108 C14.3160672,17.0626348 13.8513007,16.7294059 13.6145328,16.2120242 C13.3777649,15.6946426 13.2286888,14.5809566 13.2199196,14.2828045 C13.2111505,13.9846524 13.1497662,12.3695366 13.1585354,12.1993308 C13.1643815,12.0858603 13.2199196,11.0615922 13.3251498,9.1265263 L11.5713137,9.1265263 L11.7291589,14.940493 C11.635621,15.7180271 11.4660835,16.2909469 11.2205465,16.6592524 C10.9750094,17.027558 10.6973187,17.2380184 10.3874743,17.2906334 C9.91393856,17.3315563 9.53394073,17.1766341 9.24748083,16.8258669 C8.81779098,16.299716 8.95809787,15.8700262 8.98440541,15.6946426 C9.01071296,15.519259 9.3965569,14.4844957 9.49301789,14.3441888 C9.58947888,14.2038819 9.95778446,13.4585015 9.99286118,12.8797356 C10.0279379,12.3009697 10.1857832,10.5032877 10.1243989,10.0648286 C10.0834761,9.7725226 10.0630146,9.45975516 10.0630146,9.1265263 C9.89932326,9.06806509 9.70932435,9.05344979 9.49301789,9.08268039 C9.16855821,9.1265263 8.1337949,9.40714008 7.88825784,9.53867779 C7.72456647,9.62636959 7.51410613,9.70529222 7.25687683,9.77544566 C7.22764623,9.79883014 7.17795421,9.79883014 7.10780076,9.77544566 C7.0025706,9.74036894 6.99380142,9.72283058 7.0025706,9.59129287 C7.01133978,9.45975516 7.51995225,8.74068235 7.5901057,8.64422136 C7.66025914,8.54776038 8.18640998,7.91637937 8.30917851,7.80238003 C8.43194704,7.68838068 8.93179033,7.27622919 9.08963558,7.23238329 C9.24748083,7.18853738 9.43163363,7.03946131 9.69470904,7.01315377 C9.87009266,6.99561541 9.95778446,6.99561541 9.95778446,7.01315377 Z"></path>
</svg>
