<svg xmlns="http://www.w3.org/2000/svg" xmlns:xlink="http://www.w3.org/1999/xlink" viewBox="0 0 24 24">
    <title>squere root</title>
    <path d="M7.37147492,15.215991 L9.81081878,6.70898793 L9.81081878,6.70898793 C9.81848081,6.68226729 9.82767797,6.65640273 9.83828702,6.63146257 C9.85456408,6.27997244 10.144687,6 10.5002009,6 L10.5002009,6 L20.3373659,6 L20.3373659,6 C20.7033286,6 21,6.29667141 21,6.66263414 L21,6.66263414 C21,7.02859686 20.7033286,7.32526827 20.3373659,7.32526827 L11.0127791,7.32526827 L8.15599957,17.2880424 C8.15495068,17.2917003 8.15387301,17.2953422 8.15276689,17.2989679 C8.14491904,17.5535511 7.98981248,17.7917447 7.73849707,17.8932827 C7.39918233,18.0303748 7.01297833,17.8664409 6.87588628,17.5271261 L5.69584953,14.6064327 L4.66263414,14.6064327 L4.66263414,14.6064327 C4.29667141,14.6064327 4,14.3097613 4,13.9437986 L4,13.9437986 L4,13.9437986 C4,13.5778358 4.29667141,13.2811644 4.66263414,13.2811644 L6.14356784,13.2811644 C6.43702529,13.2811644 6.68592785,13.4719266 6.77303511,13.7362106 C6.77667869,13.7442916 6.7801778,13.7524792 6.78352813,13.7607716 L7.37147492,15.215991 Z" transform="translate(12.500000, 11.970854) rotate(-360.000000) translate(-12.500000, -11.970854)"></path>
    <rect x="12" y="10" width="8" height="8" rx="1"></rect>
</svg>
