<svg xmlns="http://www.w3.org/2000/svg" xmlns:xlink="http://www.w3.org/1999/xlink" viewBox="0 0 24 24">
    <title>subscript</title>
    <rect fill="transparent" x="0" y="0" width="24" height="24"></rect>
    <path d="M18.1,22 L22.68,22 L22.68,21.26 L19.41,21.26 C21.27,19.79 22.65,18.55 22.65,17.19 C22.65,15.86 21.52,15.23 20.41,15.23 C19.47,15.23 18.6,15.61 18.09,16.28 L18.6,16.81 C18.99,16.31 19.61,15.97 20.41,15.97 C21.1,15.97 21.8,16.34 21.8,17.19 C21.8,18.34 20.5,19.45 18.1,21.34 L18.1,22 Z"></path>
    <rect x="3" y="3" width="12" height="12" rx="1"></rect>
    <polygon points="15.78 22 16.61 22 16.61 15.33 15.88 15.33 14.21 17.05 14.71 17.56 15.78 16.43"></polygon>
</svg>

