<svg data-fixedcolors="true" viewBox="0 0 512 512" fill="none" xmlns="http://www.w3.org/2000/svg">
<g id="accountancy">
<g id="Vector">
<path d="M64 85.3333C64 73.5513 73.5513 64 85.3333 64H426.667C438.449 64 448 73.5513 448 85.3333V426.667C448 438.449 438.449 448 426.667 448H85.3333C73.5513 448 64 438.449 64 426.667V85.3333Z" fill="#0C114D"/>
<path d="M149.333 266.667C149.333 254.885 158.885 245.333 170.667 245.333C182.449 245.333 192 254.885 192 266.667V288H213.333C225.115 288 234.667 297.551 234.667 309.333C234.667 321.115 225.115 330.667 213.333 330.667H192V352C192 363.782 182.449 373.333 170.667 373.333C158.885 373.333 149.333 363.782 149.333 352V330.667H128C116.218 330.667 106.667 321.115 106.667 309.333C106.667 297.551 116.218 288 128 288H149.333V266.667Z" fill="#FEDD8E"/>
<path d="M328.533 270.933C328.533 285.072 317.072 296.533 302.933 296.533C288.795 296.533 277.333 285.072 277.333 270.933C277.333 256.795 288.795 245.333 302.933 245.333C317.072 245.333 328.533 256.795 328.533 270.933Z" fill="#FEDD8E"/>
<path d="M328.533 347.733C328.533 361.872 317.072 373.333 302.933 373.333C288.795 373.333 277.333 361.872 277.333 347.733C277.333 333.595 288.795 322.133 302.933 322.133C317.072 322.133 328.533 333.595 328.533 347.733Z" fill="#FEDD8E"/>
<path d="M379.733 296.533C393.872 296.533 405.333 285.072 405.333 270.933C405.333 256.795 393.872 245.333 379.733 245.333C365.595 245.333 354.133 256.795 354.133 270.933C354.133 285.072 365.595 296.533 379.733 296.533Z" fill="#FEDD8E"/>
<path d="M405.333 347.733C405.333 361.872 393.872 373.333 379.733 373.333C365.595 373.333 354.133 361.872 354.133 347.733C354.133 333.595 365.595 322.133 379.733 322.133C393.872 322.133 405.333 333.595 405.333 347.733Z" fill="#FEDD8E"/>
<path d="M106.667 149.333C106.667 125.769 125.769 106.667 149.333 106.667H362.667C386.231 106.667 405.333 125.769 405.333 149.333C405.333 172.897 386.231 192 362.667 192H149.333C125.769 192 106.667 172.897 106.667 149.333Z" fill="#6D83F3"/>
</g>
</g>
</svg>
