<svg xmlns="http://www.w3.org/2000/svg" xmlns:xlink="http://www.w3.org/1999/xlink" viewBox="0 0 24 24">
    <defs>
        <style>
            .b {
            fill: #020a1a;
            }

            .c {
            fill: #ff796b;
            }

            .d {
            fill: #fec83c;
            }

            .e {
            fill: #57b2f8;
            }

            .f {
            fill: #53cf92;
            }
        </style>
    </defs>
    <title>accountancy</title>
    <rect class="b" x="3" y="3" width="8" height="8" rx="1" ry="1" />
    <rect class="b" x="13" y="3" width="8" height="8" rx="1" ry="1" />
    <rect class="b" x="13" y="13" width="8" height="8" rx="1" ry="1" />
    <rect class="b" x="3" y="13" width="8" height="8" rx="1" ry="1" />
    <rect class="c" x="6" y="4" width="2" height="6" rx="1" ry="1" />
    <rect class="c" x="4" y="6" width="6" height="2" rx="1" ry="1" />
    <rect class="d" x="3.98" y="15.97" width="6" height="2" rx="1" ry="1" transform="translate(-9.96 9.9) rotate(-45)" />
    <rect class="d" x="3.98" y="15.97" width="6" height="2" rx="1" ry="1" transform="translate(14.04 0.04) rotate(45)" />
    <rect class="e" x="14" y="6" width="6" height="2" rx="1" ry="1" />
    <circle class="f" cx="15" cy="15" r="1" />
    <circle class="f" cx="19" cy="19" r="1" />
    <rect class="f" x="13.98" y="15.97" width="6" height="2" rx="1" ry="1" transform="translate(-7.03 16.97) rotate(-45)" />
</svg>
