<svg viewBox="0 0 512 512" fill="none" xmlns="http://www.w3.org/2000/svg">
<g id="administration">
<g id="Vector">
<path d="M42.6666 383.999V421.333C42.6666 447.999 76.16 469.333 117.12 469.333C139.135 469.591 160.528 462.032 177.493 447.999C181.362 444.567 186.406 442.761 191.574 442.96C196.742 443.159 201.633 445.346 205.227 449.066C218.897 462.128 237.093 469.391 256 469.333C274.67 469.832 292.827 463.195 306.773 450.773C310.366 447.053 315.258 444.865 320.426 444.667C325.594 444.468 330.638 446.273 334.507 449.706C351.641 463.095 372.933 470.041 394.667 469.333C435.84 469.333 469.333 447.999 469.333 421.333V383.999H42.6666Z" fill="#CF1D00"/>
<path d="M458.068 285.572C463.112 292.837 466.051 301.355 466.56 310.186C468.013 320.514 468.939 330.91 469.333 341.333H42.6666C43.0828 331.124 44.0084 320.942 45.44 310.826C45.9487 301.995 48.8875 293.477 53.9321 286.212C58.9766 278.946 65.9307 273.215 74.0266 269.653C80.1476 268.046 86.4806 267.399 92.8 267.733H142.72C157.863 269.869 173.23 269.869 188.373 267.733C210.773 260.266 209.28 225.919 202.88 208.639C200.298 201.042 196.634 193.857 192 187.306C179.936 168.065 174.567 145.377 176.728 122.769C178.888 100.161 188.457 78.901 203.947 62.2927C218.618 50.1196 236.944 43.21 256 42.666C274.98 43.0288 293.297 49.71 308.053 61.6527C323.576 78.2361 333.184 99.4841 335.383 122.092C337.583 144.701 332.249 167.402 320.213 186.666C315.579 193.217 311.915 200.402 309.333 207.999C302.507 224.426 302.507 259.626 323.84 267.093C338.983 269.229 354.35 269.229 369.493 267.093H419.2C425.519 266.759 431.852 267.406 437.973 269.013C446.069 272.575 453.023 278.306 458.068 285.572Z" fill="#133191"/>
</g>
</g>
</svg>
