<svg xmlns="http://www.w3.org/2000/svg" xmlns:xlink="http://www.w3.org/1999/xlink" preserveAspectRatio="xMidYMid" width="64" height="64" viewBox="0 0 64 64">
<path fill="white" d="M51.504,32.038 L48.078,35.487 L48.076,35.485 L42.607,40.996 L39.181,37.547 L44.650,32.036 L39.101,26.451 L42.527,23.002 L48.074,28.586 L48.078,28.582 L51.504,32.031 L51.500,32.034 L51.504,32.038 ZM23.024,40.996 L31.962,31.999 L40.900,40.996 L23.024,40.996 ZM23.024,23.002 L40.900,23.002 L31.962,31.999 L23.024,23.002 ZM19.351,31.962 L24.900,37.547 L21.473,40.996 L15.927,35.412 L15.923,35.416 L12.497,31.967 L12.500,31.964 L12.497,31.960 L15.923,28.511 L15.925,28.513 L21.393,23.002 L24.819,26.451 L19.351,31.962 Z" class="cls-2"/>
</svg>
