<svg xmlns="http://www.w3.org/2000/svg" xmlns:xlink="http://www.w3.org/1999/xlink" preserveAspectRatio="xMidYMid" width="64" height="64" viewBox="0 0 64 64">
<path fill="white" d="M47.896,16.923 C47.028,19.777 46.138,22.625 45.263,25.477 C45.134,25.896 45.070,26.335 44.940,26.754 C44.321,28.748 43.110,30.333 41.427,31.523 C39.100,33.168 36.463,34.200 33.802,35.163 C33.760,35.178 33.711,35.173 33.616,35.183 C35.130,32.193 36.509,29.140 39.284,27.103 C40.410,26.276 41.652,25.579 42.912,24.970 C44.068,24.412 44.692,23.584 45.007,22.365 C45.536,20.314 46.167,18.288 46.760,16.253 C46.823,16.035 46.862,15.774 47.007,15.625 C47.164,15.465 47.449,15.313 47.648,15.345 C47.805,15.370 48.014,15.672 48.028,15.863 C48.054,16.212 47.999,16.585 47.896,16.923 ZM43.187,21.071 C43.141,21.240 43.063,21.402 42.947,21.705 C42.947,20.286 42.946,19.016 42.949,17.745 C42.949,17.567 42.946,17.383 42.988,17.213 C43.423,15.424 43.865,13.636 44.311,11.850 C44.354,11.678 44.389,11.448 44.510,11.365 C44.715,11.225 44.999,11.093 45.224,11.127 C45.372,11.149 45.596,11.484 45.576,11.654 C45.496,12.330 45.369,13.007 45.194,13.666 C44.540,16.138 43.861,18.604 43.187,21.071 ZM41.375,15.280 C41.300,15.645 41.353,16.051 41.416,16.426 C41.850,19.025 41.836,21.601 41.071,24.143 C41.017,24.324 40.881,24.539 40.723,24.621 C39.168,25.430 37.790,26.465 36.598,27.750 C36.547,27.805 36.479,27.845 36.374,27.927 C36.582,26.068 36.214,24.364 35.536,22.706 C35.458,22.514 35.509,22.223 35.596,22.019 C36.600,19.646 38.053,17.561 39.728,15.618 C39.912,15.405 40.084,15.136 40.142,14.867 C40.666,12.427 41.163,9.981 41.668,7.536 C41.694,7.408 41.720,7.280 41.755,7.154 C41.847,6.831 42.055,6.640 42.399,6.672 C42.743,6.705 42.954,6.945 42.933,7.267 C42.892,7.900 42.830,8.537 42.700,9.157 C42.273,11.201 41.797,13.235 41.375,15.280 ZM38.262,13.895 C38.247,13.958 38.227,14.021 38.216,14.085 C38.022,15.212 37.612,16.227 36.852,17.114 C36.381,17.665 36.024,18.315 35.616,18.920 C35.593,18.906 35.571,18.892 35.548,18.877 C35.892,17.657 36.254,16.441 36.576,15.214 C36.948,13.796 37.284,12.369 37.637,10.945 C37.664,10.835 37.692,10.724 37.723,10.614 C37.853,10.163 38.129,9.965 38.496,10.060 C38.882,10.159 39.063,10.490 38.958,10.945 C38.731,11.929 38.495,12.912 38.262,13.895 ZM34.843,24.962 C35.356,26.868 35.092,28.773 34.320,30.572 C33.749,31.904 33.053,33.182 32.413,34.484 C32.366,34.480 32.319,34.476 32.272,34.471 C31.902,33.054 31.488,31.647 31.173,30.218 C30.804,28.546 30.472,26.863 30.216,25.170 C29.994,23.704 30.286,22.313 31.146,21.060 C31.362,20.745 31.493,20.360 31.610,19.990 C32.251,17.952 32.875,15.909 33.505,13.868 C33.539,13.759 33.563,13.647 33.602,13.539 C33.752,13.115 34.054,12.931 34.433,13.066 C34.827,13.206 34.932,13.522 34.822,13.899 C34.344,15.543 33.915,17.205 33.346,18.818 C33.031,19.710 33.036,20.452 33.446,21.313 C34.005,22.487 34.507,23.710 34.843,24.962 ZM30.037,38.219 C29.263,39.705 28.305,41.094 27.428,42.526 C27.377,42.513 27.325,42.500 27.274,42.487 C27.156,41.758 27.007,41.033 26.926,40.300 C26.693,38.188 26.436,36.077 26.297,33.958 C26.236,33.027 26.338,32.057 26.543,31.144 C26.895,29.581 27.937,28.525 29.439,27.782 C29.907,29.437 30.432,31.021 30.793,32.641 C31.223,34.568 30.943,36.478 30.037,38.219 ZM23.797,47.148 C23.637,47.355 23.459,47.548 23.296,47.752 C22.995,48.131 23.010,48.528 23.329,48.797 C23.640,49.058 24.050,49.005 24.381,48.680 C25.290,47.787 26.163,46.851 27.127,46.020 C28.377,44.942 29.822,44.207 31.438,43.783 C32.873,43.406 34.278,42.919 35.697,42.482 C35.772,42.458 35.849,42.440 35.988,42.403 C36.079,43.089 36.038,43.752 35.779,44.334 C35.437,45.099 35.055,45.883 34.523,46.519 C32.999,48.339 30.975,49.373 28.681,49.883 C27.216,50.209 25.743,50.510 24.264,50.761 C23.173,50.945 22.257,51.387 21.486,52.182 C20.302,53.405 19.091,54.601 17.888,55.804 C17.738,55.954 17.569,56.087 17.404,56.221 C16.711,56.785 16.279,56.719 15.803,55.982 C15.803,55.818 15.803,55.654 15.803,55.491 C16.109,55.178 16.412,54.862 16.720,54.553 C17.909,53.359 19.111,52.177 20.287,50.970 C21.030,50.206 21.291,49.288 21.283,48.202 C21.264,45.620 21.287,43.034 21.427,40.456 C21.556,38.076 23.036,36.235 25.146,35.592 C25.255,36.204 25.367,36.810 25.470,37.418 C25.626,38.335 25.805,39.250 25.923,40.172 C26.258,42.810 25.385,45.091 23.797,47.148 ZM28.445,43.441 C30.126,40.914 31.635,38.383 34.067,36.626 C34.737,36.142 35.478,35.736 36.230,35.392 C37.773,34.686 39.345,34.045 40.953,33.357 C41.177,34.251 41.112,35.133 40.808,35.983 C40.104,37.948 38.723,39.376 36.986,40.440 C35.005,41.652 32.777,42.280 30.560,42.906 C29.891,43.094 29.213,43.248 28.445,43.441 Z" class="cls-2"/>
</svg>
