<svg viewBox="0 0 512 512" fill="none" xmlns="http://www.w3.org/2000/svg">
<g id="algebra">
<g id="Vector">
<path fill-rule="evenodd" clip-rule="evenodd" d="M106.667 64H85.3333C73.5513 64 64 73.5513 64 85.3333V448H106.667V405.333H405.333V448H448V85.3333C448 73.5513 438.449 64 426.667 64H405.333V106.667H106.667V64ZM106.667 149.333V234.667H405.333V149.333H106.667ZM106.667 277.333V362.667H405.333V277.333H106.667Z" fill="#935000"/>
<path d="M341.333 426.667C364.897 426.667 384 407.564 384 384C384 360.436 364.897 341.333 341.333 341.333C317.769 341.333 298.667 360.436 298.667 384C298.667 407.564 317.769 426.667 341.333 426.667Z" fill="#FF341A"/>
<path d="M213.333 426.667C236.897 426.667 256 407.564 256 384C256 360.436 236.897 341.333 213.333 341.333C189.769 341.333 170.667 360.436 170.667 384C170.667 407.564 189.769 426.667 213.333 426.667Z" fill="#FF341A"/>
<path d="M298.667 170.667C322.231 170.667 341.333 151.564 341.333 128C341.333 104.436 322.231 85.3333 298.667 85.3333C275.103 85.3333 256 104.436 256 128C256 151.564 275.103 170.667 298.667 170.667Z" fill="#FF341A"/>
<path d="M170.667 170.667C194.231 170.667 213.333 151.564 213.333 128C213.333 104.436 194.231 85.3333 170.667 85.3333C147.103 85.3333 128 104.436 128 128C128 151.564 147.103 170.667 170.667 170.667Z" fill="#FF341A"/>
<path d="M298.667 298.667C322.231 298.667 341.333 279.564 341.333 256C341.333 232.436 322.231 213.333 298.667 213.333C275.103 213.333 256 232.436 256 256C256 279.564 275.103 298.667 298.667 298.667Z" fill="#FBBE2E"/>
<path d="M170.667 298.667C194.231 298.667 213.333 279.564 213.333 256C213.333 232.436 194.231 213.333 170.667 213.333C147.103 213.333 128 232.436 128 256C128 279.564 147.103 298.667 170.667 298.667Z" fill="#FBBE2E"/>
</g>
</g>
</svg>
