<svg xmlns="http://www.w3.org/2000/svg" xmlns:xlink="http://www.w3.org/1999/xlink" preserveAspectRatio="xMidYMid" width="64" height="64" viewBox="0 0 64 64">
<path fill="white" d="M47.089,25.178 C46.615,25.569 45.819,26.183 44.704,27.019 C43.588,27.855 42.822,28.504 42.407,28.967 C42.229,29.150 42.047,29.371 41.862,29.629 L47.668,29.629 C48.246,29.629 48.687,29.738 48.991,29.956 C49.295,30.173 49.447,30.469 49.447,30.843 C49.447,31.176 49.327,31.458 49.086,31.689 C48.845,31.920 48.480,32.036 47.990,32.036 L39.804,32.036 C39.248,32.036 38.814,31.895 38.503,31.613 C38.192,31.331 38.036,30.999 38.036,30.619 C38.036,30.374 38.136,30.049 38.336,29.645 C38.536,29.240 38.755,28.922 38.992,28.691 C39.978,27.753 40.868,26.949 41.662,26.280 C42.455,25.610 43.022,25.170 43.363,24.959 C43.971,24.565 44.477,24.169 44.882,23.771 C45.286,23.373 45.593,22.965 45.805,22.547 C46.016,22.129 46.122,21.720 46.122,21.319 C46.122,20.884 46.009,20.494 45.782,20.151 C45.556,19.808 45.249,19.541 44.859,19.350 C44.470,19.160 44.045,19.065 43.586,19.065 C42.614,19.065 41.851,19.456 41.295,20.238 C41.220,20.340 41.096,20.618 40.922,21.074 C40.748,21.529 40.551,21.879 40.333,22.124 C40.114,22.369 39.793,22.491 39.371,22.491 C39.000,22.491 38.692,22.379 38.447,22.155 C38.203,21.930 38.080,21.624 38.080,21.237 C38.080,20.768 38.195,20.278 38.425,19.769 C38.655,19.259 38.998,18.796 39.454,18.382 C39.910,17.967 40.488,17.632 41.189,17.377 C41.890,17.122 42.711,16.995 43.653,16.995 C44.787,16.995 45.755,17.158 46.555,17.484 C47.074,17.702 47.530,18.001 47.923,18.382 C48.316,18.763 48.622,19.203 48.841,19.702 C49.060,20.202 49.169,20.720 49.169,21.257 C49.169,22.100 48.941,22.867 48.485,23.557 C48.029,24.247 47.564,24.787 47.089,25.178 ZM35.730,42.565 C35.730,43.067 35.501,43.498 35.043,43.860 C34.585,44.221 34.019,44.402 33.345,44.402 C32.747,44.402 32.242,44.244 31.829,43.930 C31.415,43.615 30.942,43.114 30.407,42.425 L26.630,37.335 L22.757,42.425 C22.198,43.137 21.724,43.644 21.336,43.947 C20.948,44.250 20.455,44.402 19.858,44.402 C19.196,44.402 18.634,44.212 18.169,43.833 C17.705,43.455 17.473,43.020 17.473,42.530 C17.473,42.029 17.829,41.312 18.541,40.379 L23.253,34.187 L19.076,29.027 C18.351,28.176 17.988,27.436 17.988,26.806 C17.988,26.316 18.204,25.891 18.637,25.529 C19.069,25.168 19.635,24.987 20.335,24.987 C20.945,24.987 21.451,25.144 21.851,25.459 C22.252,25.774 22.719,26.270 23.253,26.946 L26.630,31.179 L29.911,26.946 C30.458,26.246 30.932,25.745 31.333,25.442 C31.733,25.138 32.232,24.987 32.830,24.987 C33.517,24.987 34.086,25.165 34.538,25.520 C34.989,25.876 35.215,26.305 35.215,26.806 C35.215,27.167 35.122,27.514 34.938,27.847 C34.754,28.179 34.471,28.572 34.089,29.027 L29.911,34.187 L34.623,40.379 C35.361,41.347 35.730,42.076 35.730,42.565 Z" class="cls-2"/>
</svg>
