<svg xmlns="http://www.w3.org/2000/svg" xmlns:xlink="http://www.w3.org/1999/xlink" preserveAspectRatio="xMidYMid" width="64" height="64" viewBox="0 0 64 64">
<path fill="white" d="M45.208,35.006 L19.292,35.006 C17.750,35.006 16.500,33.774 16.500,32.253 C16.500,30.733 17.750,29.500 19.292,29.500 L45.208,29.500 C46.750,29.500 48.000,30.733 48.000,32.253 C48.000,33.774 46.750,35.006 45.208,35.006 ZM45.208,24.506 L19.292,24.506 C17.750,24.506 16.500,23.274 16.500,21.753 C16.500,20.233 17.750,19.000 19.292,19.000 L45.208,19.000 C46.750,19.000 48.000,20.233 48.000,21.753 C48.000,23.274 46.750,24.506 45.208,24.506 ZM19.292,40.000 L45.208,40.000 C46.750,40.000 48.000,41.233 48.000,42.753 C48.000,44.274 46.750,45.506 45.208,45.506 L19.292,45.506 C17.750,45.506 16.500,44.274 16.500,42.753 C16.500,41.233 17.750,40.000 19.292,40.000 Z" class="cls-2"/>
</svg>
