<svg viewBox="0 0 512 512" fill="none" xmlns="http://www.w3.org/2000/svg">
<g id="all">
<g id="Vector">
<path d="M405.333 458.667C434.789 458.667 458.667 434.788 458.667 405.333C458.667 375.878 434.789 352 405.333 352C375.878 352 352 375.878 352 405.333C352 434.788 375.878 458.667 405.333 458.667Z" fill="black"/>
<path d="M256 458.667C285.455 458.667 309.333 434.788 309.333 405.333C309.333 375.878 285.455 352 256 352C226.545 352 202.667 375.878 202.667 405.333C202.667 434.788 226.545 458.667 256 458.667Z" fill="#24A865"/>
<path d="M106.667 458.667C136.122 458.667 160 434.788 160 405.333C160 375.878 136.122 352 106.667 352C77.2115 352 53.3334 375.878 53.3334 405.333C53.3334 434.788 77.2115 458.667 106.667 458.667Z" fill="black"/>
<path d="M405.333 309.333C434.789 309.333 458.667 285.455 458.667 256C458.667 226.545 434.789 202.667 405.333 202.667C375.878 202.667 352 226.545 352 256C352 285.455 375.878 309.333 405.333 309.333Z" fill="#0089E3"/>
<path d="M256 309.333C285.455 309.333 309.333 285.455 309.333 256C309.333 226.545 285.455 202.667 256 202.667C226.545 202.667 202.667 226.545 202.667 256C202.667 285.455 226.545 309.333 256 309.333Z" fill="black"/>
<path d="M106.667 309.333C136.122 309.333 160 285.455 160 256C160 226.545 136.122 202.667 106.667 202.667C77.2115 202.667 53.3334 226.545 53.3334 256C53.3334 285.455 77.2115 309.333 106.667 309.333Z" fill="#FBBE2E"/>
<path d="M405.333 160C434.789 160 458.667 136.122 458.667 106.667C458.667 77.2115 434.789 53.3333 405.333 53.3333C375.878 53.3333 352 77.2115 352 106.667C352 136.122 375.878 160 405.333 160Z" fill="black"/>
<path d="M256 160C285.455 160 309.333 136.122 309.333 106.667C309.333 77.2115 285.455 53.3333 256 53.3333C226.545 53.3333 202.667 77.2115 202.667 106.667C202.667 136.122 226.545 160 256 160Z" fill="#FF341A"/>
<path d="M106.667 160C136.122 160 160 136.122 160 106.667C160 77.2115 136.122 53.3333 106.667 53.3333C77.2115 53.3333 53.3334 77.2115 53.3334 106.667C53.3334 136.122 77.2115 160 106.667 160Z" fill="black"/>
</g>
</g>
</svg>
