<svg viewBox="0 0 512 512" fill="none" xmlns="http://www.w3.org/2000/svg">
<path d="M159.47 261.333C159.47 287.843 138.098 309.333 111.735 309.333C85.3716 309.333 64 287.843 64 261.333C64 234.824 85.3716 213.333 111.735 213.333C138.098 213.333 159.47 234.824 159.47 261.333Z" fill="#FBBE2E"/>
<path d="M302.674 112C302.674 138.51 281.303 160 254.939 160C228.576 160 207.205 138.51 207.205 112C207.205 85.4903 228.576 64 254.939 64C281.303 64 302.674 85.4903 302.674 112Z" fill="#FF341A"/>
<path d="M302.674 400C302.674 426.51 281.303 448 254.939 448C228.576 448 207.205 426.51 207.205 400C207.205 373.49 228.576 352 254.939 352C281.303 352 302.674 373.49 302.674 400Z" fill="#24A865"/>
<path d="M448 261.333C448 287.843 426.628 309.333 400.265 309.333C373.902 309.333 352.53 287.843 352.53 261.333C352.53 234.824 373.902 213.333 400.265 213.333C426.628 213.333 448 234.824 448 261.333Z" fill="#0089E3"/>
<path d="M159.47 112C159.47 138.51 138.098 160 111.735 160C85.3716 160 64 138.51 64 112C64 85.4903 85.3716 64 111.735 64C138.098 64 159.47 85.4903 159.47 112Z" fill="black"/>
<path d="M159.47 400C159.47 426.51 138.098 448 111.735 448C85.3716 448 64 426.51 64 400C64 373.49 85.3716 352 111.735 352C138.098 352 159.47 373.49 159.47 400Z" fill="black"/>
<path d="M254.939 309.333C281.303 309.333 302.674 287.843 302.674 261.333C302.674 234.824 281.303 213.333 254.939 213.333C228.576 213.333 207.205 234.824 207.205 261.333C207.205 287.843 228.576 309.333 254.939 309.333Z" fill="black"/>
<path d="M448 112C448 138.51 426.628 160 400.265 160C373.902 160 352.53 138.51 352.53 112C352.53 85.4903 373.902 64 400.265 64C426.628 64 448 85.4903 448 112Z" fill="black"/>
<path d="M400.265 448C426.628 448 448 426.51 448 400C448 373.49 426.628 352 400.265 352C373.902 352 352.53 373.49 352.53 400C352.53 426.51 373.902 448 400.265 448Z" fill="black"/>
</svg>
