<svg xmlns="http://www.w3.org/2000/svg" xmlns:xlink="http://www.w3.org/1999/xlink" preserveAspectRatio="xMidYMid" width="64" height="64" viewBox="0 0 64 64">
<path fill="white" d="M41.343,22.370 C40.781,19.965 39.923,18.834 39.094,18.834 C37.792,18.834 35.957,19.654 34.389,20.842 C32.731,22.087 31.488,23.473 31.488,24.491 C31.488,27.009 39.183,26.698 41.254,28.311 C42.024,28.989 42.557,29.895 42.557,31.479 C42.557,32.978 41.491,35.468 40.130,36.712 C37.230,39.315 32.702,41.409 28.706,41.409 C21.811,41.409 18.467,36.967 18.467,31.026 C18.467,28.395 19.088,26.132 20.035,24.039 L21.189,24.407 C20.538,26.302 20.272,27.914 20.272,29.357 C20.272,34.704 24.089,37.590 28.973,37.590 C30.808,37.590 33.974,36.911 36.963,35.242 C38.857,34.166 40.633,32.837 40.633,32.413 C40.633,31.564 38.472,30.913 36.016,30.574 C33.412,30.206 31.370,29.669 30.600,28.848 C29.979,28.197 29.505,27.405 29.505,26.302 C29.505,23.445 30.778,21.040 32.790,19.031 C34.862,16.995 38.088,15.014 40.130,15.014 C41.077,15.014 41.758,15.467 42.290,16.514 C42.764,17.476 43.001,18.409 43.001,19.173 C43.001,19.852 42.290,21.323 41.787,22.313 L41.343,22.370 ZM27.404,50.009 C26.191,48.905 25.125,48.000 23.941,47.067 C24.711,46.048 25.540,45.115 26.279,44.379 C27.493,45.284 28.499,46.218 29.653,47.406 C28.825,48.538 28.233,49.273 27.404,50.009 ZM33.116,49.641 C31.903,48.538 30.837,47.632 29.653,46.699 C30.423,45.680 31.251,44.747 31.991,44.011 C33.205,44.917 34.211,45.850 35.365,47.038 C34.537,48.170 33.945,48.905 33.116,49.641 Z" class="cls-2"/>
</svg>
