<svg data-fixedcolors="true" viewBox="0 0 512 512" fill="none" xmlns="http://www.w3.org/2000/svg">
<g id="arabic">
<g id="Vector">
<path d="M469.315 239.336C469.523 225.003 467.947 210.7 464.624 196.756C457.512 170.33 445.092 145.625 428.121 124.141C411.149 102.657 389.979 84.8431 365.898 71.7818C337.096 55.6815 305.146 45.9943 272.241 43.385C239.336 40.7758 206.255 45.3063 175.269 56.6657C132.661 73.4477 96.4616 103.257 71.8512 141.827C59.1739 160.277 50.2617 181.04 45.6237 202.93C41.6809 224.968 41.6809 247.53 45.6237 269.568C53.7347 314.131 76.9179 354.563 111.299 384.11C116.494 388.648 121.978 392.843 127.718 396.671C131.578 398.761 134.871 401.757 137.313 405.4C139.336 410.898 139.336 416.934 137.313 422.432C134.131 436.009 129.705 449.264 124.093 462.032C124.093 464.161 122.174 466.716 124.093 468.419C125.298 469.176 126.735 469.478 128.144 469.271C153.059 469.654 177.227 460.776 195.952 444.361C198.536 441.814 201.481 439.662 204.695 437.974C209.528 436.8 214.574 436.8 219.407 437.974C252.715 442.241 286.552 439.316 318.631 429.399C350.709 419.482 380.28 402.803 405.346 380.49C424.964 362.464 440.741 340.673 451.732 316.42C462.723 292.167 468.704 265.95 469.315 239.336Z" fill="#0C114D"/>
<path fill-rule="evenodd" clip-rule="evenodd" d="M401.611 169.92C395.435 162.182 386.035 157.857 376.245 158.249C370.355 158.26 364.545 159.642 359.261 162.289C352.911 165.764 346.795 169.662 340.953 173.959L289.338 211.888L275 222.212C269.917 225.47 264.024 227.183 258.016 227.149C258.115 220.372 257.524 213.603 256.251 206.951C254.908 201.126 252.91 195.478 250.296 190.118L245.443 180.243C243.458 176.653 241.473 173.959 239.046 180.243L230.223 208.073C229.107 210.88 229.107 214.018 230.223 216.825C234.473 224.732 238.23 232.902 241.473 241.288C243.513 247.124 244.558 253.272 244.561 259.467C243.758 270.556 236.829 280.217 226.694 284.378C213.101 291.587 197.896 295.068 182.579 294.478C167.704 295.133 152.928 291.723 139.787 284.603C130.286 279.631 124.323 269.664 124.346 258.794C124.424 251.098 125.92 243.485 128.758 236.351C134.235 223.907 140.498 211.838 147.507 200.218C147.507 194.831 143.978 191.914 138.904 193.934C128.497 209.066 119.767 225.324 112.876 242.41C108.664 254.436 106.574 267.124 106.7 279.89C106.111 294.785 113.331 308.881 125.67 316.921C142.107 326.59 160.98 331.118 179.932 329.938C199.53 331.306 219.09 326.779 236.179 316.921C248.783 307.503 256.365 292.656 256.692 276.748C257.147 270.865 261.922 266.297 267.721 266.2H400.067C406.158 266.2 411.096 261.176 411.096 254.978V210.093C412.406 196.002 409.069 181.868 401.611 169.92ZM344.924 227.148H306.543C317.582 218.89 329.152 211.392 341.174 204.705C347.915 200.817 355.486 198.66 363.232 198.421C370.805 198.149 378.342 199.606 385.289 202.685C391.319 205.528 394.333 208.82 394.333 212.56C393.598 222.286 377.128 227.148 344.924 227.148Z" fill="#FEDD8E"/>
<path d="M319.117 289.54L339.851 301.21L351.321 277.869L378.232 292.906L363.233 321.633L341.837 310.636L329.484 334.425L303.236 319.389L319.117 289.54Z" fill="#FEDD8E"/>
</g>
</g>
</svg>
