<svg data-fixedcolors="true" viewBox="0 0 512 512" fill="none" xmlns="http://www.w3.org/2000/svg">
<g id="art">
<g id="Vector">
<path d="M249.201 42.7794C194.606 44.6221 142.788 67.2819 104.381 106.108C65.9738 144.934 43.8916 196.982 42.6663 251.569C42.4143 266.903 43.7036 282.224 46.5147 297.302C47.8159 303.694 50.5155 309.72 54.4201 314.947C58.3247 320.175 63.3377 324.474 69.0999 327.538C74.8621 330.601 81.2309 332.353 87.7499 332.668C94.269 332.982 100.777 331.852 106.808 329.357C118.921 324.711 131.953 322.955 144.865 324.228C163.231 326.283 180.356 334.504 193.444 347.546C206.531 360.588 214.806 377.682 216.917 396.033C217.811 403.128 217.811 410.308 216.917 417.403C215.766 423.703 216.003 430.177 217.613 436.375C219.222 442.573 222.166 448.346 226.237 453.29C230.308 458.234 235.409 462.231 241.185 465.002C246.961 467.773 253.272 469.251 259.678 469.334H261.816C289.893 468.492 317.529 462.13 343.147 450.613C368.764 439.095 391.862 422.647 411.119 402.208C430.377 381.768 445.419 357.737 455.386 331.487C465.352 305.237 470.048 277.282 469.206 249.218C468.364 221.154 461.999 193.53 450.476 167.925C438.954 142.319 422.498 119.233 402.049 99.9838C381.599 80.7349 357.557 65.7003 331.295 55.7384C305.033 45.7766 277.278 41.9375 249.201 42.7794ZM142.299 246.012C134.434 245.97 126.758 243.597 120.242 239.195C113.726 234.792 108.662 228.557 105.692 221.277C102.721 213.998 101.976 206.002 103.552 198.3C105.128 190.598 108.954 183.535 114.545 178.006C120.136 172.477 127.243 168.73 134.965 167.238C142.687 165.745 150.679 166.575 157.929 169.623C165.179 172.67 171.363 177.798 175.697 184.358C180.032 190.918 182.323 198.616 182.28 206.477C182.28 217.019 178.091 227.13 170.633 234.584C163.175 242.038 153.06 246.226 142.513 246.226L142.299 246.012Z" fill="#FBBE2E"/>
<path d="M320.184 408.642C342.147 408.642 359.952 390.845 359.952 368.893C359.952 346.94 342.147 329.143 320.184 329.143C298.221 329.143 280.417 346.94 280.417 368.893C280.417 390.845 298.221 408.642 320.184 408.642Z" fill="#5B3100"/>
<path d="M382.829 307.132C404.792 307.132 422.597 289.336 422.597 267.383C422.597 245.43 404.792 227.634 382.829 227.634C360.866 227.634 343.061 245.43 343.061 267.383C343.061 289.336 360.866 307.132 382.829 307.132Z" fill="#163BF3"/>
<path d="M340.496 197.501C362.459 197.501 380.263 179.705 380.263 157.752C380.263 135.8 362.459 118.003 340.496 118.003C318.533 118.003 300.728 135.8 300.728 157.752C300.728 179.705 318.533 197.501 340.496 197.501Z" fill="#6D83F3"/>
</g>
</g>
</svg>
