<svg xmlns="http://www.w3.org/2000/svg" xmlns:xlink="http://www.w3.org/1999/xlink" preserveAspectRatio="xMidYMid" width="64" height="64" viewBox="0 0 64 64">
<path fill="white" d="M44.717,21.370 C44.717,21.370 33.549,34.711 31.208,37.039 C28.867,39.367 26.568,39.410 25.771,38.616 C24.973,37.823 25.016,35.537 27.357,33.209 C29.698,30.880 43.112,19.774 43.112,19.774 C44.082,18.810 44.872,18.033 45.670,18.826 C46.468,19.619 45.686,20.406 44.717,21.370 ZM23.990,43.944 C22.630,45.220 16.356,46.488 18.416,44.341 C18.793,43.947 19.638,43.875 19.810,43.101 C20.072,41.923 19.123,41.395 20.251,40.004 C22.659,37.744 24.316,38.407 25.090,39.223 C25.865,40.039 26.397,41.684 23.990,43.944 Z" class="cls-2"/>
</svg>
