<svg xmlns="http://www.w3.org/2000/svg" xmlns:xlink="http://www.w3.org/1999/xlink" viewBox="0 0 24 24">
    <defs>
        <style>
            .b {
            fill: #020a1a;
            }

            .c {
            fill: #ff796b;
            }

            .d {
            fill: #fec83c;
            }
        </style>
    </defs>
    <title>art_music</title>
    <circle class="b" cx="6.5" cy="18.49" r="3.5" />
    <rect class="b" x="8" y="2.99" width="2" height="15" />
    <circle class="b" cx="17.5" cy="18.49" r="3.5" />
    <rect class="b" x="19" y="1.99" width="2" height="17.43" rx="1" ry="1" />
    <rect class="c" x="8" y="1.99" width="8" height="2" rx="1" ry="1" transform="translate(24 5.98) rotate(-180)" />
    <path class="d" d="M12.22,21.57c1.46-.41,1.95-2.12,2.42-3.76l.13-.46a6.42,6.42,0,0,1,.71-.71L16,18.3l2.22-.73-1,2.13,2.14.32a4.54,4.54,0,0,1-2.33,1.47H12.53Z" />
    <path class="b" d="M15.25,17.55l.14.42.31,1,1-.31.66-.22-.22.49-.54,1.2,1.3.2.45.07A2.8,2.8,0,0,1,17,21H13.86a9.42,9.42,0,0,0,1.26-3l.1-.36,0,0m.47-1.78a10.07,10.07,0,0,0-1.41,1.37c-.51,1.73-.91,3.64-2.29,4a.59.59,0,0,0,.51.88h4.58c1.47-.17,2.64-1.65,3.36-2.31L18,19.3l1.16-2.56-2.82.93-.62-1.9Z"
    />
</svg>
