<svg xmlns="http://www.w3.org/2000/svg" xmlns:xlink="http://www.w3.org/1999/xlink" preserveAspectRatio="xMidYMid" width="64" height="64" viewBox="0 0 64 64">
<path fill="white" d="M47.631,12.932 C47.631,12.932 46.855,34.902 46.333,39.041 C45.810,43.180 43.575,45.010 42.180,44.840 C40.784,44.670 39.071,42.360 39.593,38.222 C40.115,34.082 44.822,12.591 44.822,12.591 C45.039,10.876 45.222,9.488 46.618,9.657 C48.014,9.827 47.847,11.218 47.631,12.932 ZM41.974,45.974 C43.365,46.184 45.152,47.408 44.513,51.531 C44.151,53.859 38.935,60.000 39.319,56.260 C39.388,55.575 40.166,54.846 39.742,53.941 C39.096,52.565 37.755,52.777 37.800,50.514 C38.440,46.391 40.584,45.763 41.974,45.974 ZM30.920,44.130 C31.246,45.560 31.550,47.009 31.910,48.444 C32.832,52.121 31.395,54.636 27.786,55.639 C27.319,55.769 25.782,56.073 24.774,55.981 C23.181,55.837 21.716,55.357 20.592,54.120 C19.402,52.809 19.127,51.036 19.896,49.680 C20.709,48.247 22.490,47.512 24.187,47.909 C25.568,48.232 26.605,49.416 26.707,50.787 C26.809,52.162 26.183,53.067 24.711,53.677 C24.623,53.713 24.543,53.769 24.384,53.859 C25.626,54.177 26.750,54.102 27.851,53.677 C29.244,53.139 30.097,52.144 30.184,50.615 C30.302,48.535 29.465,46.629 29.126,44.597 C28.757,44.645 28.488,44.689 28.217,44.714 C23.560,45.134 19.628,43.730 16.779,39.865 C16.112,38.961 15.588,38.066 15.312,36.751 C15.027,35.396 14.991,35.225 15.118,33.828 C15.743,30.045 18.069,27.368 20.783,24.953 C21.646,24.186 22.532,23.443 23.445,22.740 C23.886,22.401 24.014,22.090 23.872,21.526 C23.252,19.059 22.817,16.568 23.303,14.011 C23.646,12.206 24.295,10.517 25.372,9.039 C26.078,8.069 26.881,7.178 28.222,7.058 C28.871,6.999 29.320,7.223 29.737,7.673 C31.062,9.100 31.749,10.841 32.056,12.722 C32.529,15.615 32.454,18.468 31.042,21.141 C30.123,22.881 28.707,24.179 27.244,25.421 C26.829,25.775 26.725,26.091 26.864,26.613 C27.175,27.775 27.422,28.955 27.691,30.110 C32.841,30.475 35.244,32.044 35.985,35.492 C36.798,39.280 35.388,41.699 30.920,44.130 ZM29.336,16.478 C29.746,15.516 30.043,14.452 30.125,13.413 C30.231,12.070 29.127,11.518 27.995,12.245 C27.728,12.417 27.485,12.647 27.278,12.890 C26.117,14.256 25.477,15.877 25.323,17.640 C25.231,18.700 25.436,19.786 25.518,21.035 C27.130,19.627 28.556,18.303 29.336,16.478 ZM26.794,34.429 C26.343,34.645 25.981,34.756 25.691,34.968 C24.679,35.706 23.931,36.613 24.076,37.989 C24.210,39.265 25.030,39.936 26.135,40.350 C26.242,40.390 26.390,40.406 26.445,40.485 C26.578,40.677 26.776,40.918 26.743,41.103 C26.710,41.291 26.458,41.503 26.256,41.580 C26.034,41.663 25.754,41.639 25.508,41.601 C22.715,41.167 20.770,38.222 21.445,35.447 C21.984,33.228 23.434,31.799 25.392,30.803 C25.584,30.705 25.843,30.415 25.816,30.260 C25.647,29.288 25.405,28.329 25.162,27.258 C24.589,27.738 24.092,28.140 23.611,28.560 C21.922,30.035 20.235,31.513 19.125,33.520 C17.516,36.429 18.095,39.490 20.638,41.409 C22.054,42.477 23.663,43.104 25.424,43.174 C26.503,43.218 27.590,43.049 28.744,42.971 C28.076,40.046 27.449,37.298 26.794,34.429 ZM32.906,37.060 C32.361,35.438 30.171,34.037 28.677,34.390 C29.228,36.807 29.778,39.224 30.333,41.640 C30.379,41.841 30.455,42.036 30.530,42.270 C32.654,41.328 33.615,39.167 32.906,37.060 Z" class="cls-2"/>
</svg>
