<svg xmlns="http://www.w3.org/2000/svg" xmlns:xlink="http://www.w3.org/1999/xlink" viewBox="0 0 24 24">
  <defs>
    <style>
      .b {
        fill: #020a1a;
      }

      .c {
        fill: #ff796b;
      }

      .d {
        fill: #fec83c;
      }
    </style>
  </defs>
  <title>art_music_2</title>
  <circle class="b" cx="6.5" cy="18.49" r="3.5" />
  <rect class="b" x="8" y="2.99" width="2" height="15.51" />
  <rect class="b" x="19" y="1.99" width="2" height="17.43" rx="1" ry="1" />
  <rect class="c" x="8" y="1.99" width="8" height="2" rx="1" ry="1" transform="translate(24 5.98) rotate(-180)" />
  <path class="b" d="M21,18.49a3.49,3.49,0,0,0-6.78-1.2S13.4,20.77,12,21.11a.59.59,0,0,0,.51.88h5A3.5,3.5,0,0,0,21,18.49Z" />
  <path class="d" d="M18.3,20.36l-1.75-.27.76-1.69-1.62.53s-.46-1.36-.47-1.35A15.79,15.79,0,0,1,13.86,21H17A2.8,2.8,0,0,0,18.3,20.36Z" />
</svg>
