<svg data-fixedcolors="true" viewBox="0 0 512 512" fill="none" xmlns="http://www.w3.org/2000/svg">
<g id="astronomy">
<g id="Vector">
<path d="M409.021 274.773C408.358 265.033 406.716 255.384 404.119 245.973C401.093 233.37 396.36 221.24 390.053 209.92C377.28 185.386 358.072 164.797 334.492 150.365C310.913 135.932 283.851 128.2 256.214 128C220.409 128.822 185.992 142.018 158.8 165.348C131.608 188.679 113.317 220.707 107.029 256C104.564 266.501 103.136 277.219 102.767 288C102.661 289.563 102.661 291.131 102.767 292.693C103.354 301.907 104.78 311.047 107.029 320C109.279 332.469 113.148 344.589 118.538 356.053C130.241 382.996 149.449 405.994 173.863 422.3C198.278 438.605 226.867 447.528 256.214 448C293.763 447.43 329.828 433.228 357.7 408.035C385.573 382.843 403.356 348.374 407.742 311.04C409.024 303.427 409.666 295.72 409.66 288C409.66 283.52 409.447 279.04 409.021 274.773Z" fill="#0C114D"/>
<path d="M407.742 311.04C448.022 293.547 469.333 273.92 469.333 252.587C469.333 228.054 442.693 213.334 390.053 209.707C396.36 221.027 401.092 233.157 404.119 245.76C412.432 246.307 420.582 248.174 428.269 251.272C433.388 253.334 434.352 259.882 430.082 263.38C423.724 268.589 416.633 272.862 409.02 276.054C386.525 285.892 357.115 295.232 333.363 301.44L317.592 305.067L297.772 309.334L296.706 309.529C284.216 311.822 270.718 314.299 256.213 316.374C224.059 320.486 191.656 322.34 159.243 321.92H136.226C128.412 321.494 120.35 320.916 107.029 320C99.15 320.012 91.3635 318.609 84.0324 315.887C78.7083 313.911 77.9018 307.115 82.4856 303.76C88.7149 299.201 95.5328 295.476 102.767 292.693C102.661 291.131 102.661 289.563 102.767 288C103.136 277.219 104.564 266.501 107.029 256C64.4054 273.067 42.6666 291.627 42.6666 315.52C42.6666 339.414 67.6017 353.707 117.259 358.187H153.276C187.724 357.821 222.111 355.184 256.213 350.294C306.85 342.984 356.571 330.327 404.545 312.534L407.742 311.04Z" fill="#6D83F3"/>
<path d="M114.062 140.587C110.226 152.32 103.833 152.32 99.7833 140.587C97.7028 134.418 94.2397 128.808 89.6591 124.186C85.0785 119.564 79.5019 116.052 73.3564 113.92C61.4216 109.867 61.4216 103.467 73.3564 99.6267C79.5019 97.4947 85.0785 93.9831 89.6591 89.361C94.2397 84.7388 97.7028 79.1286 99.7833 72.96C103.833 61.0133 110.226 61.0133 114.062 72.96C116.186 79.1738 119.714 84.813 124.372 89.4384C129.03 94.0637 134.691 97.5503 140.915 99.6267C152.637 103.467 152.637 109.867 140.915 113.707C134.668 115.805 128.992 119.324 124.333 123.988C119.674 128.652 116.158 134.333 114.062 140.587Z" fill="#FBBE2E"/>
</g>
</g>
</svg>
