<svg xmlns="http://www.w3.org/2000/svg" xmlns:xlink="http://www.w3.org/1999/xlink" viewBox="0 0 24 24">
  <defs>
    <style>
      .a {
        fill: none;
      }

      .b {
        fill: #57b2f8;
      }

      .c {
        fill: #020a1a;
      }
    </style>
  </defs>
  <title>БЕЛ</title>
  <path class="b" d="M6.6,3H21.09a.9.9,0,0,1,.9.9V16.2a1.8,1.8,0,0,1-1.8,1.8H7.5a1.8,1.8,0,0,1-1.8-1.8V3.91A.9.9,0,0,1,6.6,3Z" />
  <circle class="a" cx="5.7" cy="15.16" r="0.76" />
  <path class="c" d="M9.37,17,6.85,7.14a.42.42,0,0,0-.41-.33A.43.43,0,0,0,6,7.23L5.7,13.71,5.38,7.23A.43.43,0,0,0,5,6.81a.42.42,0,0,0-.41.33L2,17a.73.73,0,0,0,.2.73,8.24,8.24,0,0,1,2,4.31h3a8.24,8.24,0,0,1,2-4.31A.73.73,0,0,0,9.37,17Zm-3.67-.8a1,1,0,1,1,1-1A1,1,0,0,1,5.7,16.16Z"
  />
  <path class="c" d="M11.1,5.38H10c-.06,0-.12,0-.12-.11V5a.18.18,0,0,1,.19-.18h2c.08,0,.27,0,.28-.17V4c0-.14-.07-.22-.2-.22h-3a.5.5,0,0,0-.5.5V7.9a.5.5,0,0,0,.5.5H11.1a1.47,1.47,0,0,0,1.58-1.51A1.46,1.46,0,0,0,11.1,5.38Zm-.15,2h-.87c-.07,0-.15,0-.16-.16V6.62c0-.13,0-.18.17-.19H11a.46.46,0,1,1,0,.92Z"
  />
  <path class="c" d="M14.39,4.78h1.87c.11,0,.18,0,.21-.1V3.93a.23.23,0,0,0-.21-.2H13.55a.5.5,0,0,0-.5.5V7.9a.5.5,0,0,0,.5.5h2.92V7.35H14.39c-.1,0-.16,0-.14-.14V6.72c0-.13.05-.16.13-.16H16.2c.16,0,.22-.07.23-.18V5.62c0-.08-.11-.11-.2-.12H14.4c-.07,0-.14,0-.15-.12V4.93C14.25,4.85,14.26,4.77,14.39,4.78Z"
  />
  <path class="c" d="M20.54,3.66H18a.5.5,0,0,0-.5.44L17.27,6c-.13,1.06-.42,1.33-.85,1.33l0,1.05c1,0,1.79-.4,2-2.29l.15-1.22c0-.12.06-.19.18-.19h.86c.1,0,.17.06.18.19V8.16c0,.15.1.17.18.16h.85c.1,0,.18,0,.17-.18v-4A.5.5,0,0,0,20.54,3.66Z" />
</svg>
