<svg xmlns="http://www.w3.org/2000/svg" xmlns:xlink="http://www.w3.org/1999/xlink" viewBox="0 0 24 24">
  <defs>
    <style>
      .b {
      fill: #020a1a;
      }

      .c {
      fill: #abe1ff;
      }
    </style>
  </defs>
  <title>belarus</title>
  <path class="b" d="M21,4H3A1,1,0,0,0,2,5V20.8a.5.5,0,0,0,.85.35L7,17H21a1,1,0,0,0,1-1V5A1,1,0,0,0,21,4Z" />
  <path class="c" d="M11,10.41a1.56,1.56,0,0,0,1.19-1.6,1.83,1.83,0,0,0-2-1.78H6.67a.5.5,0,0,0-.5.5v6a.5.5,0,0,0,.5.5h3.58a1.86,1.86,0,0,0,2.05-1.89A1.67,1.67,0,0,0,11,10.41ZM8,9.14a.48.48,0,0,1,.4-.45H9.72a.58.58,0,1,1,0,1.16H8.42A.47.47,0,0,1,8,9.32,1,1,0,0,1,8,9.14Zm1.79,3.3H8.44a.47.47,0,0,1-.45-.5,2.5,2.5,0,0,1,0-.28.46.46,0,0,1,.44-.47H9.79a.63.63,0,0,1,.69.63A.62.62,0,0,1,9.79,12.44Z"
  />
  <path class="c" d="M15.44,8.62,18,8.6a.5.5,0,0,0,.5-.5V7.53A.5.5,0,0,0,18,7H13.89a.5.5,0,0,0-.5.5v6a.5.5,0,0,0,.5.5H18a.5.5,0,0,0,.5-.5v-.57a.5.5,0,0,0-.5-.5H15.44c-.76,0-.75-1.43,0-1.43h1.49c.28,0,1,0,1-.25a1.74,1.74,0,0,0,0-.57c0-.3-.72-.2-1-.2H15.45C14.76,10,14.76,8.63,15.44,8.62Z"
  />
</svg>
