<svg xmlns="http://www.w3.org/2000/svg" xmlns:xlink="http://www.w3.org/1999/xlink" viewBox="0 0 24 24">
    <defs>
        <style>
            .a {
            fill: none;
            }

            .b {
            fill: #57b2f8;
            }

            .c {
            fill: #020a1a;
            }
        </style>
    </defs>
    <title>belarus_alt</title>
    <path class="b" d="M6.77,2H21.26a.73.73,0,0,1,.73.73v7.82A1.46,1.46,0,0,1,20.53,12H7.5A1.46,1.46,0,0,1,6,10.54V2.72A.73.73,0,0,1,6.77,2Z" />
    <circle class="a" cx="5.7" cy="15.16" r="0.76" />
    <path class="c" d="M9.37,17,6.85,7.14a.42.42,0,0,0-.41-.33A.43.43,0,0,0,6,7.23L5.7,13.71,5.38,7.23A.43.43,0,0,0,5,6.81a.42.42,0,0,0-.41.33L2,17a.73.73,0,0,0,.2.73,8.24,8.24,0,0,1,2,4.31h3a8.24,8.24,0,0,1,2-4.31A.73.73,0,0,0,9.37,17Zm-3.67-.8a1,1,0,1,1,1-1A1,1,0,0,1,5.7,16.16Z"
    />
    <path class="c" d="M10.59,5.38H9.53c-.06,0-.12,0-.12-.11V5a.18.18,0,0,1,.19-.18h2c.08,0,.27,0,.28-.17V4c0-.14-.07-.22-.2-.22h-3a.5.5,0,0,0-.5.5V7.9a.5.5,0,0,0,.5.5h1.88a1.47,1.47,0,0,0,1.58-1.51A1.46,1.46,0,0,0,10.59,5.38Zm-.15,2H9.58c-.07,0-.15,0-.16-.16V6.62c0-.13,0-.18.17-.19h.86a.46.46,0,1,1,0,.92Z"
    />
    <path class="c" d="M13.88,4.78h1.87c.11,0,.18,0,.21-.1V3.93a.23.23,0,0,0-.21-.2H13a.5.5,0,0,0-.5.5V7.9a.5.5,0,0,0,.5.5H16V7.35H13.88c-.1,0-.16,0-.14-.14V6.72c0-.13.05-.16.13-.16h1.82c.16,0,.22-.07.23-.18V5.62c0-.08-.11-.11-.2-.12H13.89c-.07,0-.14,0-.15-.12V4.93C13.74,4.85,13.75,4.77,13.88,4.78Z"
    />
    <path class="c" d="M20,3.66H17.49a.5.5,0,0,0-.5.44L16.76,6c-.13,1.06-.42,1.33-.85,1.33l0,1.05c1,0,1.79-.4,2-2.29l.15-1.22c0-.12.06-.19.18-.19h.86c.1,0,.17.06.18.19V8.16c0,.15.1.17.18.16h.85c.1,0,.18,0,.17-.18v-4A.5.5,0,0,0,20,3.66Z" />
</svg>
