<svg xmlns="http://www.w3.org/2000/svg" xmlns:xlink="http://www.w3.org/1999/xlink" viewBox="0 0 24 24">
  <defs>
    <style>
      .b {
      fill: #020a1a;
      }

      .c {
      fill: #abe1ff;
      }
    </style>
  </defs>
  <title>belarus_2</title>
  <path class="b" d="M21,4H3A1,1,0,0,0,2,5V20.8a.5.5,0,0,0,.85.35L7,17H21a1,1,0,0,0,1-1V5A1,1,0,0,0,21,4Z" />
  <path class="c" d="M12.82,10.41A1.56,1.56,0,0,0,14,8.81,1.83,1.83,0,0,0,12,7H8.51a.5.5,0,0,0-.5.5v6a.5.5,0,0,0,.5.5h3.58a1.86,1.86,0,0,0,2.05-1.89A1.67,1.67,0,0,0,12.82,10.41Zm-3-1.27a.48.48,0,0,1,.4-.45h1.32a.58.58,0,1,1,0,1.16h-1.3a.47.47,0,0,1-.43-.53A1,1,0,0,1,9.83,9.14Zm1.79,3.3H10.27a.47.47,0,0,1-.45-.5,2.5,2.5,0,0,1,0-.28.46.46,0,0,1,.44-.47h1.35a.63.63,0,0,1,.69.63A.62.62,0,0,1,11.62,12.44Z"
  />
  <path class="c" d="M17.08,8.62l2.57,0a.5.5,0,0,0,.5-.5V7.53a.5.5,0,0,0-.5-.5H15.53a.5.5,0,0,0-.5.5v6a.5.5,0,0,0,.5.5h4.12a.5.5,0,0,0,.5-.5v-.57a.5.5,0,0,0-.5-.5H17.08c-.76,0-.75-1.43,0-1.43h1.49c.28,0,1,0,1-.25a1.74,1.74,0,0,0,0-.57c0-.3-.72-.2-1-.2H17.08C16.39,10,16.39,8.63,17.08,8.62Z"
  />
</svg>
