<svg data-fixedcolors="true" viewBox="0 0 512 512" fill="none" xmlns="http://www.w3.org/2000/svg">
<g id="belarus">
<g id="Vector">
<path d="M469.315 239.336C469.523 225.003 467.947 210.7 464.624 196.756C457.512 170.33 445.092 145.625 428.121 124.141C411.149 102.657 389.979 84.8431 365.898 71.7818C337.096 55.6815 305.146 45.9943 272.241 43.385C239.336 40.7758 206.255 45.3063 175.269 56.6657C132.661 73.4477 96.4616 103.257 71.8512 141.827C59.1739 160.277 50.2617 181.04 45.6237 202.93C41.6809 224.968 41.6809 247.53 45.6237 269.568C53.7347 314.131 76.9179 354.563 111.299 384.11C116.494 388.648 121.978 392.843 127.718 396.671C131.578 398.761 134.871 401.757 137.313 405.4C139.336 410.898 139.336 416.934 137.313 422.432C134.131 436.009 129.705 449.264 124.093 462.032C124.093 464.161 122.174 466.716 124.093 468.419C125.298 469.176 126.735 469.478 128.144 469.271C153.059 469.654 177.227 460.776 195.952 444.361C198.536 441.814 201.481 439.662 204.695 437.974C209.528 436.8 214.574 436.8 219.407 437.974C252.715 442.241 286.552 439.316 318.631 429.399C350.709 419.482 380.28 402.803 405.346 380.49C424.964 362.464 440.741 340.673 451.732 316.42C462.723 292.167 468.704 265.95 469.315 239.336Z" fill="#0C114D"/>
<path fill-rule="evenodd" clip-rule="evenodd" d="M373.786 205.408L320.638 205.832C306.521 206.044 306.521 235.106 320.846 234.682H351.572C352.6 234.682 353.913 234.615 355.378 234.541C362.203 234.197 372.333 233.685 372.333 238.924C372.983 242.927 372.983 247.012 372.333 251.015C372.333 256.319 357.385 256.319 351.572 256.319H320.638C305.068 256.319 304.86 286.653 320.638 286.653H373.786C379.519 286.653 384.167 291.401 384.167 297.259V309.351C384.167 315.208 379.519 319.957 373.786 319.957H288.459C282.726 319.957 278.079 315.208 278.079 309.351V182.074C278.079 176.216 282.726 171.467 288.459 171.467H373.786C376.651 171.462 379.39 172.667 381.355 174.796C383.321 176.924 384.338 179.789 384.167 182.71V194.802C384.167 200.659 379.519 205.408 373.786 205.408ZM253.165 209.864C254.005 225.78 243.62 240.047 228.46 243.804C245.045 247.621 256.475 263.163 255.449 280.502C255.686 291.814 251.158 302.685 243.017 310.355C234.876 318.024 223.904 321.753 212.889 320.595H138.565C132.832 320.595 128.185 315.846 128.185 309.988V182.712C128.185 176.854 132.832 172.105 138.565 172.105H211.643C222.138 171.102 232.568 174.598 240.441 181.758C248.314 188.918 252.923 199.097 253.165 209.864ZM174.481 207.316C169.861 208.108 166.405 212.081 166.177 216.862C166.064 218.132 166.064 219.41 166.177 220.68C165.826 223.362 166.557 226.073 168.201 228.193C169.845 230.313 172.262 231.659 174.896 231.923H201.885C208.536 231.923 213.927 226.415 213.927 219.62C213.927 212.825 208.536 207.316 201.885 207.316H174.481ZM203.339 286.865H175.312C172.685 286.756 170.212 285.569 168.454 283.572C166.695 281.576 165.799 278.939 165.969 276.258C165.861 274.28 165.861 272.297 165.969 270.319C165.851 265.009 169.911 260.578 175.104 260.349H203.339C207.018 259.989 210.674 261.236 213.403 263.783C216.133 266.329 217.68 269.936 217.664 273.713C217.687 277.474 216.134 281.066 213.395 283.58C210.657 286.094 206.996 287.289 203.339 286.865Z" fill="#FEDD8E"/>
</g>
</g>
</svg>
