<svg xmlns="http://www.w3.org/2000/svg" xmlns:xlink="http://www.w3.org/1999/xlink" preserveAspectRatio="xMidYMid" width="64" height="64" viewBox="0 0 64 64">
<path fill="white" d="M36.950,39.778 C30.763,45.965 26.264,45.514 22.835,42.579 L19.272,46.142 C18.882,46.533 18.248,46.533 17.858,46.142 C17.467,45.752 17.467,45.118 17.858,44.728 L21.421,41.165 C18.486,37.736 18.035,33.237 24.222,27.050 C30.861,20.411 46.142,17.858 46.142,17.858 C46.142,17.858 43.589,33.139 36.950,39.778 ZM28.050,35.950 C28.441,36.340 28.441,36.973 28.050,37.364 L25.272,40.142 C24.882,40.533 24.248,40.533 23.858,40.142 C23.467,39.752 23.467,39.118 23.858,38.728 L26.636,35.950 C27.027,35.559 27.660,35.559 28.050,35.950 Z" class="cls-2"/>
</svg>
