<svg xmlns="http://www.w3.org/2000/svg" xmlns:xlink="http://www.w3.org/1999/xlink" preserveAspectRatio="xMidYMid" width="64" height="64" viewBox="0 0 64 64">
    <path fill="white" d="M23.839,26.301 C17.587,32.554 18.043,37.100 21.009,40.566 L17.408,44.166 C17.013,44.561 17.013,45.201 17.408,45.595 C17.802,45.991 18.443,45.991 18.837,45.595 L22.438,41.995 C25.903,44.961 30.450,45.417 36.702,39.164 C43.412,32.455 45.992,17.012 45.992,17.012 C45.992,17.012 30.549,19.592 23.839,26.301 ZM27.708,36.724 L24.901,39.532 C24.506,39.927 23.866,39.927 23.472,39.532 C23.076,39.138 23.076,38.497 23.472,38.103 L26.279,35.295 C26.674,34.900 27.314,34.900 27.708,35.295 C28.103,35.690 28.103,36.329 27.708,36.724 Z" class="cls-2"/>
</svg>
