<svg viewBox="0 0 512 512" fill="none" xmlns="http://www.w3.org/2000/svg">
<g id="biology">
<g id="Vector">
<path d="M272 383.276C347.018 376.253 405.333 320.411 405.333 252.648C405.333 194.427 309.333 88.8605 271.36 49.1931C269.37 47.1291 266.984 45.4873 264.345 44.366C261.706 43.2446 258.868 42.6667 256 42.6667C253.132 42.6667 250.294 43.2446 247.655 44.366C245.016 45.4873 242.63 47.1291 240.64 49.1931C202.667 88.8605 106.667 194.427 106.667 252.648C106.667 320.411 164.982 376.253 240 383.276V432.005C240 436.247 241.686 440.316 244.686 443.315C247.687 446.315 251.756 448 256 448C260.243 448 264.313 446.315 267.314 443.315C270.314 440.316 272 436.247 272 432.005V383.276Z" fill="#24A865"/>
<path d="M240 302.752L203.314 266.077C197.065 259.831 186.935 259.831 180.686 266.077C174.438 272.324 174.438 282.451 180.686 288.698L240 347.993V384.02H272V347.993L331.314 288.698C337.562 282.451 337.562 272.324 331.314 266.077C325.065 259.831 314.935 259.831 308.686 266.077L272 302.752V262.686L309.98 224.718C316.229 218.472 316.229 208.344 309.98 202.098C303.732 195.851 293.601 195.851 287.353 202.098L272 217.446V165.423C272 161.181 270.314 157.113 267.314 154.113C264.313 151.113 260.243 149.428 256 149.428C251.756 149.428 247.687 151.113 244.686 154.113C241.686 157.113 240 161.181 240 165.423V217.446L224.647 202.098C218.399 195.851 208.268 195.851 202.02 202.098C195.771 208.344 195.771 218.472 202.02 224.718L240 262.686V302.752Z" fill="#133191"/>
</g>
</g>
</svg>
