<svg xmlns="http://www.w3.org/2000/svg" xmlns:xlink="http://www.w3.org/1999/xlink" viewBox="0 0 24 24">
    <defs>
        <style>
            .b {
            fill: #020a1a;
            }

            .c {
            fill: #b4efc2;
            }
        </style>
    </defs>
    <title>biology</title>
    <path class="b" d="M22.05,3.05,22,3h0S11.48,1.71,7,6,5.67,14.37,5.54,16.12C5.42,17.69,3.25,20.77,2.09,22A.67.67,0,0,0,2,23a.73.73,0,0,0,.94,0c1.41-.94,4.48-3.25,6-3.47,1.74-.25,6,2.95,10.13-1.44S22.05,3.05,22.05,3.05Z" />
    <path class="c" d="M18.94,5.91A42.36,42.36,0,0,0,7,17.78a.15.15,0,0,0,.22.19A42.47,42.47,0,0,0,19.15,6.12C19.22,5.91,19.14,5.85,18.94,5.91Z" />
    <path class="c" d="M9.67,6.28a19.47,19.47,0,0,0,.09,7.91A19.92,19.92,0,0,0,9.9,6.29C9.85,6.09,9.69,6.15,9.67,6.28Z" />
    <path class="c" d="M13.19,5.4a13.3,13.3,0,0,0-.07,5.26,13.84,13.84,0,0,0,.29-5.29A.11.11,0,0,0,13.19,5.4Z" />
    <path class="c" d="M18.42,15.09a20,20,0,0,0-7.7.17,19.34,19.34,0,0,0,7.77.12C18.64,15.34,18.67,15.15,18.42,15.09Z" />
    <path class="c" d="M19.75,11.63a13.81,13.81,0,0,0-5.37.28,13.37,13.37,0,0,0,5.4-.1C20,11.77,19.92,11.64,19.75,11.63Z" />
</svg>
