<svg xmlns="http://www.w3.org/2000/svg" xmlns:xlink="http://www.w3.org/1999/xlink" viewBox="0 0 24 24">
  <defs>
    <style>
      .b {
        fill: #020a1a;
      }

      .c {
        fill: #b4efc2;
      }
    </style>
  </defs>
  <title>biology</title>
  <path class="b" d="M21.89,2.21l-.08,0h0S11.48.9,7.05,5.1s-1.29,8.25-1.42,10c-.12,1.54-2.25,4.57-3.39,5.82a.66.66,0,0,0-.08.94.72.72,0,0,0,.93,0c1.38-.92,4.41-3.2,5.88-3.41,1.71-.25,5.86,2.9,10-1.42S21.89,2.21,21.89,2.21Z" />
  <path class="c" d="M19.65,10.83a7.39,7.39,0,0,1-5.19.12A44.11,44.11,0,0,1,11,14.18a13,13,0,0,1,7.35-.12c.25.06.22.25.06.29a10.3,10.3,0,0,1-7.51-.09,41.55,41.55,0,0,1-3.55,2.64.15.15,0,0,1-.22-.19,34.12,34.12,0,0,1,2.68-3.63A11.17,11.17,0,0,1,9.7,5.39c0-.13.18-.19.23,0A10.41,10.41,0,0,1,9.83,13,41,41,0,0,1,13.07,9.6a6.51,6.51,0,0,1,.09-5.07.11.11,0,0,1,.22,0,7.33,7.33,0,0,1-.25,5A43.35,43.35,0,0,1,18.82,5c.2-.07.27,0,.21.2a36,36,0,0,1-4.51,5.65,6.89,6.89,0,0,1,5.1-.23C19.79,10.67,19.81,10.75,19.65,10.83Z"
  />
</svg>
