<svg xmlns="http://www.w3.org/2000/svg" xmlns:xlink="http://www.w3.org/1999/xlink" viewBox="0 0 24 24">
  <defs>
    <style>
      .b {
        fill: #020a1a;
      }

      .c {
        fill: #b4efc2;
      }
    </style>
  </defs>
  <title>biology</title>
  <path class="b" d="M20.88,3.22l-.07,0h0S11.54,2,7.57,5.81s-1.16,7.4-1.27,8.95c-.1,1.38-2,4.1-3,5.22a.59.59,0,0,0-.07.84.65.65,0,0,0,.83,0c1.24-.83,4-2.87,5.27-3.06,1.53-.22,5.26,2.6,8.95-1.27S20.88,3.22,20.88,3.22Z" />
  <path class="c" d="M19.07,10.81a6.71,6.71,0,0,1-4.72.11,40.08,40.08,0,0,1-3.18,2.93,11.79,11.79,0,0,1,6.68-.11c.23.05.2.23.06.26a9.36,9.36,0,0,1-6.82-.08,37.75,37.75,0,0,1-3.23,2.39.13.13,0,0,1-.2-.17,31,31,0,0,1,2.43-3.3,10.15,10.15,0,0,1-.06-7c0-.12.16-.17.21,0a9.46,9.46,0,0,1-.09,6.91,37.25,37.25,0,0,1,2.95-3.1,5.91,5.91,0,0,1,.08-4.6.1.1,0,0,1,.2,0,6.66,6.66,0,0,1-.22,4.58,39.39,39.39,0,0,1,5.17-4.1c.18-.06.25,0,.19.18a32.75,32.75,0,0,1-4.1,5.13A6.26,6.26,0,0,1,19,10.66C19.2,10.67,19.22,10.74,19.07,10.81Z"
  />
</svg>
