<svg xmlns="http://www.w3.org/2000/svg" xmlns:xlink="http://www.w3.org/1999/xlink" preserveAspectRatio="xMidYMid" width="64" height="64" viewBox="0 0 64 64">
    <path fill="white" d="M45.400,45.000 L19.600,45.000 C17.059,45.000 15.000,42.953 15.000,40.429 L15.000,29.000 L29.003,29.000 L29.003,31.857 C29.003,32.488 29.525,33.000 30.169,33.000 L34.831,33.000 C35.475,33.000 35.997,32.488 35.997,31.857 L35.997,29.000 L50.000,29.000 L50.000,40.429 C50.000,42.953 47.940,45.000 45.400,45.000 ZM15.000,26.495 L15.000,26.000 L15.000,24.429 C15.000,21.904 17.059,19.857 19.600,19.857 L23.564,19.998 L23.564,17.665 C23.564,15.089 25.639,13.000 28.198,13.000 L36.306,13.000 C38.865,13.000 40.939,15.089 40.939,17.665 L40.939,19.998 L45.400,19.857 C47.940,19.857 50.000,21.904 50.000,24.429 L50.000,26.000 L50.000,26.495 L50.000,27.000 L15.000,27.000 L15.000,26.495 ZM38.623,17.665 C38.623,16.377 37.440,15.505 36.136,15.505 L27.868,15.505 C26.564,15.505 25.881,16.377 25.881,17.665 L25.881,19.998 L38.623,19.998 L38.623,17.665 Z" class="cls-2"/>
</svg>
