<svg xmlns="http://www.w3.org/2000/svg" xmlns:xlink="http://www.w3.org/1999/xlink" preserveAspectRatio="xMidYMid" width="64" height="64" viewBox="0 0 64 64">
  <defs>
    <style>
      .cls-1 {
        fill: #abe3ff;
        fill-opacity: 0.01;
      }

      .cls-2 {
        fill: #fff;
        fill-rule: evenodd;
      }
    </style>
  </defs>
  <g>
    <circle cx="32" cy="32" r="32" class="cls-1"/>
    <path d="M44.900,45.500 L19.100,45.500 C16.559,45.500 14.500,43.453 14.500,40.929 L14.500,24.929 C14.500,22.404 16.559,20.357 19.100,20.357 L23.064,20.498 L23.064,18.165 C23.064,15.589 25.139,13.500 27.698,13.500 L35.806,13.500 C38.365,13.500 40.439,15.589 40.439,18.165 L40.439,20.498 L44.900,20.357 C47.440,20.357 49.500,22.404 49.500,24.929 L49.500,40.929 C49.500,43.453 47.440,45.500 44.900,45.500 ZM38.123,18.165 C38.123,16.877 36.940,16.005 35.636,16.005 L27.368,16.005 C26.064,16.005 25.381,16.877 25.381,18.165 L25.381,20.498 L38.123,20.498 L38.123,18.165 ZM14.500,29.500 L14.500,26.995 L49.500,26.995 L49.500,29.500 L14.500,29.500 ZM28.503,29.500 L35.497,29.500 L35.497,32.357 C35.497,32.988 34.975,33.500 34.331,33.500 L29.669,33.500 C29.025,33.500 28.503,32.988 28.503,32.357 L28.503,29.500 Z" class="cls-2"/>
  </g>
</svg>
