<svg xmlns="http://www.w3.org/2000/svg" xmlns:xlink="http://www.w3.org/1999/xlink" viewBox="0 0 24 24">
    <defs>
        <style>
            .b {
            fill: #020a1a;
            }

            .c {
            fill: #abe1ff;
            }
        </style>
    </defs>
    <title>catala_3</title>
    <path class="b" d="M21,4H3A1,1,0,0,0,2,5V17H2V20.8a.5.5,0,0,0,.85.35L7,17H21a1,1,0,0,0,1-1V5A1,1,0,0,0,21,4Z" />
    <path class="c" d="M5.79,10.27A3.56,3.56,0,0,1,9.56,6.8a3.18,3.18,0,0,1,2.75,1.38.5.5,0,0,1-.21.73l-.64.3a.5.5,0,0,1-.61-.15,1.66,1.66,0,0,0-1.3-.67,1.93,1.93,0,0,0-1.95,2,1.93,1.93,0,0,0,1.95,2,1.66,1.66,0,0,0,1.3-.67.5.5,0,0,1,.61-.15l.64.3a.5.5,0,0,1,.2.73A3.21,3.21,0,0,1,9.52,14,3.74,3.74,0,0,1,5.79,10.27Z"
    />
    <path class="c" d="M19.94,13.34l-2.27-6A.5.5,0,0,0,17.2,7H15.63a.5.5,0,0,0-.47.32l-2.26,6a.5.5,0,0,0,.47.68h1a.61.61,0,0,0,.52-.42l.2-.58h2.74s.1.32.19.56a.67.67,0,0,0,.56.44h.92A.5.5,0,0,0,19.94,13.34Zm-3.33-2h-.38a.5.5,0,0,1-.47-.66s.43-2,.67-2,.67,2,.67,2A.5.5,0,0,1,16.61,11.37Z"
    />
</svg>
