<svg xmlns="http://www.w3.org/2000/svg" xmlns:xlink="http://www.w3.org/1999/xlink" preserveAspectRatio="xMidYMid" width="64" height="64" viewBox="0 0 64 64">
<path fill="white" d="M32.002,18.010 C41.524,18.010 49.244,24.245 49.244,31.936 C49.244,39.628 41.524,45.863 32.002,45.863 C31.520,45.863 31.045,45.843 30.573,45.812 L30.573,45.812 C30.557,45.812 29.257,45.687 29.232,45.684 C29.204,45.681 29.174,45.679 29.143,45.679 C28.935,45.679 28.676,45.751 28.536,45.863 C26.824,47.235 25.173,48.576 23.474,49.964 C23.458,49.977 23.430,49.973 23.367,49.985 C23.367,49.842 23.367,49.706 23.367,49.570 C23.367,47.780 23.364,45.990 23.369,44.199 C23.370,43.993 23.327,43.981 23.111,43.871 C23.106,43.869 23.101,43.866 23.096,43.863 C18.512,41.626 15.326,37.713 14.831,33.176 C14.824,33.129 14.817,33.083 14.811,33.036 C14.803,32.969 14.802,32.903 14.799,32.837 C14.775,32.539 14.759,32.239 14.759,31.936 C14.759,24.245 22.479,18.010 32.002,18.010 M32.002,15.243 C26.767,15.243 21.821,16.909 18.075,19.935 C14.155,23.101 11.996,27.363 11.996,31.936 C11.996,32.267 12.010,32.606 12.040,32.998 C12.043,33.082 12.049,33.213 12.068,33.370 C12.074,33.422 12.082,33.474 12.090,33.526 C12.643,38.434 15.788,42.885 20.604,45.669 C20.603,46.561 20.603,47.452 20.604,48.344 L20.604,49.571 L20.604,49.843 L20.604,49.985 C20.604,50.807 20.969,51.587 21.600,52.113 C22.101,52.529 22.727,52.752 23.367,52.752 C23.511,52.752 23.655,52.741 23.798,52.718 C24.336,52.646 24.813,52.441 25.220,52.108 C26.873,50.758 28.301,49.600 29.659,48.508 C29.923,48.533 30.202,48.558 30.391,48.571 L30.391,48.573 C30.973,48.611 31.500,48.630 32.002,48.630 C37.236,48.630 42.182,46.964 45.928,43.938 C49.848,40.772 52.007,36.510 52.007,31.936 C52.007,27.363 49.848,23.101 45.928,19.935 C42.182,16.909 37.236,15.243 32.002,15.243 L32.002,15.243 Z" class="cls-2"/>
<path fill="white" d="M40.780,37.876 L40.208,36.212 L35.649,36.212 L35.077,37.876 L31.697,37.876 L36.048,26.314 L39.809,26.314 L44.160,37.876 L40.780,37.876 ZM37.937,29.261 L36.464,33.611 L39.393,33.611 L37.937,29.261 ZM26.740,35.449 C27.849,35.449 28.837,34.686 29.219,33.767 L31.784,34.981 C31.039,36.454 29.531,38.084 26.740,38.084 C23.186,38.084 20.482,35.657 20.482,32.103 C20.482,28.533 23.186,26.123 26.740,26.123 C29.531,26.123 31.039,27.701 31.784,29.209 L29.219,30.439 C28.837,29.521 27.849,28.758 26.740,28.758 C24.850,28.758 23.516,30.197 23.516,32.103 C23.516,33.993 24.850,35.449 26.740,35.449 Z" class="cls-2"/>
</svg>
