<svg xmlns="http://www.w3.org/2000/svg" xmlns:xlink="http://www.w3.org/1999/xlink" viewBox="0 0 24 24">
    <defs>
        <style>
            .b {
            fill: #020a1a;
            }

            .c {
            fill: #abe1ff;
            }
        </style>
    </defs>
    <title>catala</title>
    <path class="b" d="M21,4H3A1,1,0,0,0,2,5V20.8a.5.5,0,0,0,.85.35L7,17H21a1,1,0,0,0,1-1V5A1,1,0,0,0,21,4Z" />
    <path class="c" d="M5.3,10.43A3.56,3.56,0,0,1,9.07,7a3.18,3.18,0,0,1,2.75,1.38.5.5,0,0,1-.21.73l-.64.3a.5.5,0,0,1-.61-.15,1.66,1.66,0,0,0-1.3-.67,1.93,1.93,0,0,0-1.95,2,1.93,1.93,0,0,0,1.95,2,1.66,1.66,0,0,0,1.3-.67.5.5,0,0,1,.61-.15l.64.3a.5.5,0,0,1,.2.73A3.21,3.21,0,0,1,9,14.19,3.74,3.74,0,0,1,5.3,10.43Z"
    />
    <path class="c" d="M19.44,13.38l-2.26-6a.5.5,0,0,0-.47-.32H15.14a.5.5,0,0,0-.47.32l-2.25,6a.5.5,0,0,0,.47.68h.95a.61.61,0,0,0,.52-.42l.2-.58h2.75s.1.32.19.56a.67.67,0,0,0,.56.45H19A.5.5,0,0,0,19.44,13.38Zm-3.32-1.9h-.38a.5.5,0,0,1-.47-.66s.43-2,.67-2,.67,2,.67,2A.5.5,0,0,1,16.12,11.48Z"
    />
</svg>
