<svg xmlns="http://www.w3.org/2000/svg" xmlns:xlink="http://www.w3.org/1999/xlink" preserveAspectRatio="xMidYMid" width="64" height="64" viewBox="0 0 64 64">
<path fill="white" d="M47.000,42.528 C47.000,44.434 46.249,45.809 44.767,46.616 C42.188,48.737 37.428,50.000 32.000,50.000 C26.201,50.000 21.275,48.589 18.799,46.223 C17.605,45.333 17.000,44.091 17.000,42.528 C17.000,42.508 17.001,42.481 17.003,42.454 C17.001,42.426 17.000,42.398 17.000,42.370 C17.000,42.043 17.034,41.755 17.104,41.491 C17.302,40.460 17.789,39.539 18.480,38.881 L26.503,28.871 L26.503,18.284 C26.503,17.691 25.370,16.805 24.552,16.394 C24.138,16.186 23.921,15.720 24.028,15.270 C24.135,14.819 24.537,14.500 25.000,14.500 L39.000,14.500 C39.464,14.500 39.867,14.819 39.974,15.271 C40.080,15.723 39.861,16.188 39.446,16.395 C38.630,16.805 37.497,17.691 37.497,18.284 L37.497,28.871 L45.520,38.881 C46.211,39.538 46.697,40.460 46.896,41.490 C46.966,41.754 47.000,42.042 47.000,42.370 C47.000,42.389 46.999,42.416 46.997,42.443 C46.999,42.471 47.000,42.499 47.000,42.528 ZM35.717,29.848 C35.575,29.670 35.497,29.449 35.497,29.222 L35.497,18.284 C35.497,17.615 35.777,17.013 36.168,16.500 L27.832,16.500 C28.223,17.013 28.503,17.615 28.503,18.284 L28.503,29.222 C28.503,29.449 28.426,29.670 28.283,29.848 L20.256,39.863 C22.306,40.421 27.089,41.563 31.893,41.563 C36.766,41.563 41.657,40.414 43.740,39.858 L35.717,29.848 Z" class="cls-2"/>
</svg>
