<svg xmlns="http://www.w3.org/2000/svg" xmlns:xlink="http://www.w3.org/1999/xlink" viewBox="0 0 24 24">
    <defs>
        <style>
            .b {
            fill: #020a1a;
            }

            .c {
            fill: #fff;
            }

            .d {
            fill: #abe1ff;
            }
        </style>
    </defs>
    <title>chemistry</title>
    <path class="b" d="M14,8.26V5h0a1,1,0,0,0,1-1c0-.06,0-1,0-1a1,1,0,0,0-1-1H10A1,1,0,0,0,9,3V4H9a1,1,0,0,0,1,1V8.28a7,7,0,1,0,4,0Z" />
    <circle class="c" cx="14.46" cy="13.5" r="1.27" />
    <circle class="c" cx="11.29" cy="11.4" r="0.81" />
    <path class="d" d="M12,20a5,5,0,0,0,4.76-3.45,5.22,5.22,0,0,1-4.74-1.33C10,13.6,8.39,13.35,7.21,13.64A5,5,0,0,0,7,15,5,5,0,0,0,12,20Z" />
</svg>
