<svg viewBox="0 0 512 512" fill="none" xmlns="http://www.w3.org/2000/svg">
<g id="chemistry">
<g id="Vector">
<path d="M339.184 167.9L332.784 164.273C324.694 160.293 317.45 154.788 311.45 148.06C310.447 146.809 309.589 145.449 308.89 144.006C306.577 137.739 305.702 131.031 306.33 124.38C305.864 114.886 308.732 105.529 314.437 97.9264L316.997 95.1531C320.406 92.468 323.089 88.9731 324.803 84.9864C326.517 80.9997 327.207 76.6477 326.81 72.3264C326.399 69.9354 325.134 67.7747 323.251 66.2448C321.369 64.7149 318.995 63.9197 316.57 64.0064H195.824C193.472 64.0221 191.2 64.8641 189.407 66.385C187.613 67.9058 186.41 70.0089 186.01 72.3264C185.613 76.6477 186.303 80.9997 188.017 84.9864C189.731 88.9731 192.415 92.468 195.824 95.1531L198.597 98.1397C204.178 105.713 206.967 114.984 206.49 124.38C207.099 130.944 206.299 137.563 204.144 143.793C203.345 145.293 202.417 146.721 201.37 148.06C195.37 154.788 188.126 160.293 180.037 164.273L173.637 167.9C148.381 183.514 127.75 205.587 113.874 231.838C99.9979 258.09 93.3801 287.569 94.7035 317.233C97.0011 346.999 107.265 375.599 124.418 400.034C141.571 424.469 164.982 443.839 192.197 456.113C212.448 464.704 234.2 469.199 256.197 469.34C278.198 469.239 299.958 464.742 320.197 456.113C347.302 443.797 370.606 424.434 387.679 400.044C404.752 375.654 414.969 347.13 417.264 317.446C418.714 287.83 412.244 258.361 398.52 232.076C384.796 205.791 364.314 183.638 339.184 167.9Z" fill="#133191"/>
<path d="M256.197 433.073C239.472 433.052 222.926 429.641 207.557 423.046C186.827 413.483 169.031 398.55 156.015 379.795C142.999 361.04 135.236 339.145 133.53 316.379C132.991 308.347 139.784 302.086 147.834 302.086H365.413C373.463 302.086 380.256 308.347 379.717 316.379C378.148 339.211 370.414 361.19 357.341 379.974C344.267 398.759 326.342 413.644 305.477 423.046C289.894 429.675 273.131 433.085 256.197 433.073Z" fill="#4FB3F6"/>
</g>
</g>
</svg>
