<svg xmlns="http://www.w3.org/2000/svg" xmlns:xlink="http://www.w3.org/1999/xlink" viewBox="0 0 24 24">
  <defs>
    <style>
      .b {
        fill: #020a1a;
      }

      .c {
        fill: #b4efc2;
      }
    </style>
  </defs>
  <title>chemistry_1</title>
  <path class="b" d="M14,8.26V5h0a1,1,0,0,0,1-1c0-.06,0-1,0-1a1,1,0,0,0-1-1H10A1,1,0,0,0,9,3V4H9a1,1,0,0,0,1,1V8.28a7,7,0,1,0,4,0Zm-2.7,3.95a.81.81,0,1,1,.81-.81A.81.81,0,0,1,11.29,12.21Zm3.17,2.56a1.27,1.27,0,1,1,1.27-1.27A1.27,1.27,0,0,1,14.46,14.77Z"
  />
  <path class="c" d="M12,20a5,5,0,0,0,4.76-3.45,5.22,5.22,0,0,1-4.74-1.33C10,13.6,8.39,13.35,7.21,13.64A5,5,0,0,0,7,15,5,5,0,0,0,12,20Z" />
</svg>
