<svg data-fixedcolors="true" viewBox="0 0 512 512" fill="none" xmlns="http://www.w3.org/2000/svg">
<g id="chinese">
<g id="Vector">
<path d="M469.315 239.336C469.523 225.003 467.947 210.7 464.624 196.756C457.512 170.33 445.092 145.625 428.121 124.141C411.149 102.657 389.979 84.8431 365.898 71.7818C337.096 55.6815 305.146 45.9943 272.241 43.385C239.336 40.7758 206.255 45.3063 175.269 56.6657C132.661 73.4477 96.4616 103.257 71.8512 141.827C59.1739 160.277 50.2617 181.04 45.6237 202.93C41.6809 224.968 41.6809 247.53 45.6237 269.568C53.7347 314.131 76.9179 354.563 111.299 384.11C116.494 388.648 121.978 392.843 127.718 396.671C131.578 398.761 134.871 401.757 137.313 405.4C139.336 410.898 139.336 416.934 137.313 422.432C134.131 436.009 129.705 449.264 124.093 462.032C124.093 464.161 122.174 466.716 124.093 468.419C125.298 469.176 126.735 469.478 128.144 469.271C153.059 469.654 177.227 460.776 195.952 444.361C198.536 441.814 201.481 439.662 204.695 437.974C209.528 436.8 214.574 436.8 219.407 437.974C252.715 442.241 286.552 439.316 318.631 429.399C350.709 419.482 380.28 402.803 405.346 380.49C424.964 362.464 440.741 340.673 451.732 316.42C462.723 292.167 468.704 265.95 469.315 239.336Z" fill="#0C114D"/>
<path fill-rule="evenodd" clip-rule="evenodd" d="M302.687 260.599H351.843C354.671 260.599 356.963 262.98 356.963 265.918V310.165C356.963 316.039 361.548 320.801 367.204 320.801H383.589C389.245 320.801 393.83 316.039 393.83 310.165V182.529C393.83 176.655 389.245 171.893 383.589 171.893H367.204C361.548 171.893 356.963 176.655 356.963 182.529V221.883C356.963 224.821 354.671 227.202 351.843 227.202H302.687C299.859 227.202 297.567 224.821 297.567 221.883V182.104C297.567 176.229 292.982 171.467 287.326 171.467H270.941C265.285 171.467 260.7 176.229 260.7 182.104V309.739C260.7 315.613 265.285 320.375 270.941 320.375H287.326C292.982 320.375 297.567 315.613 297.567 309.739V265.918C297.567 262.98 299.859 260.599 302.687 260.599ZM183.485 212.736L130.847 286.978C129.518 288.819 128.799 291.058 128.799 293.359V309.739C128.799 315.614 133.384 320.376 139.04 320.376H229.568C235.224 320.376 239.809 315.614 239.809 309.739V297.614C239.809 291.74 235.224 286.978 229.568 286.978H187.376C185.437 286.978 183.664 285.84 182.797 284.038C181.929 282.236 182.116 280.08 183.28 278.469L235.713 205.291C237.042 203.45 237.761 201.211 237.761 198.909V182.529C237.761 176.655 233.176 171.893 227.52 171.893H138.426C132.77 171.893 128.185 176.655 128.185 182.529V193.591C128.185 199.465 132.77 204.227 138.426 204.227H179.389C181.328 204.227 183.101 205.366 183.968 207.167C184.836 208.969 184.649 211.125 183.485 212.736Z" fill="#FEDD8E"/>
</g>
</g>
</svg>
