<svg xmlns="http://www.w3.org/2000/svg" xmlns:xlink="http://www.w3.org/1999/xlink" viewBox="0 0 24 24">
    <defs>
        <style>
            .b {
            fill: #020a1a;
            }

            .c {
            fill: #fec83c;
            }
        </style>
    </defs>
    <title>exam</title>
    <path class="b" d="M3.74,6.2,11.5,2.32a1,1,0,0,1,.89,0l9,4.5a1,1,0,0,1,.55.9l0,7.38-2,1V8.91a.5.5,0,0,0-.72-.45l-6.83,3.42a1,1,0,0,1-.89,0L3.74,8A1,1,0,0,1,3.74,6.2Z" />
    <path class="b" d="M5.22,10.57" />
    <path class="b" d="M17.56,11.25l-5.11,2.53a1,1,0,0,1-.89,0L6.44,11.25a1,1,0,0,0-1.44.9v.79a1,1,0,0,0,.56.9l6,2.94a1,1,0,0,0,.89,0l6-3a1,1,0,0,0,.56-.9v-.76A1,1,0,0,0,17.56,11.25Z" />
    <path class="c" d="M20,17.1l2-1s0,1.28,0,2.74c0,.84-.4,1.26-1,1.26a1,1,0,0,1-1,1Z" />
</svg>
