<svg xmlns="http://www.w3.org/2000/svg" xmlns:xlink="http://www.w3.org/1999/xlink" viewBox="0 0 24 24">
  <defs>
    <style>    
      .b {
        fill: #020a1a;
      }

      .c {
        fill: #fec83c;
      }
    </style>
  </defs>
  <title>exam_3</title>
  <path class="b" d="M2.73,7.1l7.76-3.88a1,1,0,0,1,.89,0l9,4.5a1,1,0,0,1,.55.9L21,16l-2,1V9.81a.5.5,0,0,0-.72-.45l-6.83,3.42a1,1,0,0,1-.89,0L2.73,8.89A1,1,0,0,1,2.73,7.1Z" />
  <path class="b" d="M4.21,10.57" />
  <path class="b" d="M16.55,11.13l-5.11,2.53a1,1,0,0,1-.89,0L5.43,11.13A1,1,0,0,0,4,12v.79a1,1,0,0,0,.56.9l6,2.94a1,1,0,0,0,.89,0l6-3a1,1,0,0,0,.56-.9V12A1,1,0,0,0,16.55,11.13Z" />
  <path class="c" d="M19,18l2-1s0,1.28,0,2.74c0,.84-.4,1.26-1,1.26a1,1,0,0,1-1,1Z" />
</svg>
