<svg xmlns="http://www.w3.org/2000/svg" xmlns:xlink="http://www.w3.org/1999/xlink" preserveAspectRatio="xMidYMid" width="64" height="64" viewBox="0 0 64 64">
<path fill="white" d="M49.804,24.644 L33.347,41.349 C32.481,42.228 31.077,42.228 30.212,41.349 L21.591,32.599 C20.726,31.720 20.726,30.296 21.591,29.417 L23.942,27.030 C24.808,26.152 26.212,26.152 27.077,27.030 L31.779,31.803 L44.318,19.076 C45.184,18.197 46.587,18.197 47.453,19.076 L49.804,21.462 C50.669,22.341 50.669,23.765 49.804,24.644 ZM32.185,16.812 C23.922,16.812 17.224,23.612 17.224,32.000 C17.224,40.388 23.922,47.188 32.185,47.188 C40.449,47.188 47.147,40.388 47.147,32.000 C47.147,31.557 47.124,31.119 47.088,30.685 L49.522,28.215 C49.779,29.435 49.918,30.701 49.918,32.000 C49.918,41.941 41.979,50.000 32.185,50.000 C22.392,50.000 14.453,41.941 14.453,32.000 C14.453,22.059 22.392,14.000 32.185,14.000 C36.155,14.000 39.820,15.325 42.775,17.562 L40.789,19.578 C38.355,17.838 35.389,16.812 32.185,16.812 Z" class="cls-2"/>
</svg>
