<svg data-fixedcolors="true" viewBox="0 0 512 512" fill="none" xmlns="http://www.w3.org/2000/svg">
<g id="english">
<g id="Vector">
<path d="M469.315 239.334C469.523 225.001 467.947 210.698 464.624 196.754C457.512 170.328 445.092 145.623 428.121 124.139C411.149 102.655 389.979 84.8412 365.898 71.7798C337.096 55.6795 305.146 45.9923 272.241 43.3831C239.336 40.7739 206.255 45.3044 175.269 56.6638C132.661 73.4458 96.4616 103.255 71.8512 141.825C59.1739 160.275 50.2617 181.038 45.6237 202.928C41.6809 224.966 41.6809 247.528 45.6237 269.566C53.7347 314.129 76.9179 354.562 111.299 384.108C116.494 388.646 121.978 392.842 127.718 396.669C131.578 398.759 134.871 401.755 137.313 405.398C139.336 410.896 139.336 416.932 137.313 422.43C134.131 436.007 129.705 449.262 124.093 462.03C124.093 464.159 122.174 466.714 124.093 468.417C125.298 469.174 126.735 469.476 128.144 469.269C153.059 469.652 177.227 460.774 195.952 444.359C198.536 441.812 201.481 439.66 204.695 437.972C209.528 436.798 214.574 436.798 219.407 437.972C252.715 442.239 286.552 439.314 318.631 429.397C350.709 419.48 380.28 402.801 405.346 380.488C424.964 362.462 440.741 340.671 451.732 316.418C462.723 292.165 468.704 265.948 469.315 239.334Z" fill="#0C114D"/>
<path fill-rule="evenodd" clip-rule="evenodd" d="M293.9 308.759V250.251C294.149 248.223 295.51 246.526 297.395 245.893C299.279 245.261 301.348 245.806 302.707 247.294L350.838 315.307C352.729 318.046 355.771 319.693 359.031 319.743H379.513C385.168 319.743 389.753 315.014 389.753 309.182V182.449C389.753 176.616 385.168 171.888 379.513 171.888H362.923C357.267 171.888 352.682 176.616 352.682 182.449V235.888C352.682 238.161 351.272 240.179 349.181 240.897C347.09 241.616 344.788 240.875 343.465 239.056L297.996 175.69C296.062 173.031 293.027 171.465 289.804 171.465H267.274C261.618 171.465 257.033 176.194 257.033 182.027V308.759C257.033 314.592 261.618 319.32 267.274 319.32H283.659C289.315 319.32 293.9 314.592 293.9 308.759ZM222.624 206.317H169.987C155.855 206.528 155.855 234.62 169.987 235.676H200.709C201.723 235.676 203.019 235.61 204.464 235.537C211.197 235.194 221.191 234.684 221.191 239.901C221.832 243.887 221.832 247.954 221.191 251.94C221.191 257.221 206.444 257.221 200.709 257.221H169.987C154.626 257.221 154.421 287.426 169.987 287.426H222.624C228.28 287.426 232.865 292.154 232.865 297.987V310.237C232.865 316.07 228.28 320.798 222.624 320.798H138.241C132.585 320.798 128 316.07 128 310.237V183.505C128 177.672 132.585 172.944 138.241 172.944H222.624C228.28 172.944 232.865 177.672 232.865 183.505V195.756C232.865 201.588 228.28 206.317 222.624 206.317Z" fill="#FEDD8E"/>
</g>
</g>
</svg>
