<svg xmlns="http://www.w3.org/2000/svg" xmlns:xlink="http://www.w3.org/1999/xlink" viewBox="0 0 24 24">
    <defs>
        <style>
            .b {
            fill: #020a1a;
            }

            .c {
            fill: #fff;
            }

            .d {
            fill: #fec83c;
            }
        </style>
    </defs>
    <title>entrepreneurship</title>
    <path class="b" d="M12,2" />
    <circle class="b" cx="12.03" cy="10" r="8" />
    <path class="c" d="M15.47,7.45l1.06-1.06L17.6,7.45a1.5,1.5,0,1,1-2.12,0Z" />
    <path class="d" d="M12.55,6.21l1.06-1.06,1.06,1.06a1.5,1.5,0,1,1-2.12,0Z" />
    <path class="c" d="M11.51,6.21,10.45,5.15,9.39,6.21a1.5,1.5,0,1,0,2.12,0Z" />
    <path class="d" d="M8.58,7.45,7.52,6.39,6.46,7.45a1.5,1.5,0,1,0,2.12,0Z" />
    <rect class="b" x="7.03" y="16.31" width="10" height="1.69" rx="0.84" ry="0.84" />
    <path class="d" d="M9.81,16.31h1.08L9.59,12a.5.5,0,0,1,.28-.61A5.94,5.94,0,0,1,12.09,11a5.88,5.88,0,0,1,2.21.42.5.5,0,0,1,.28.6L13.3,16.31h1.08L15.61,12a1,1,0,0,0-.46-1.3,7,7,0,0,0-6.13,0A1,1,0,0,0,8.56,12Z" />
    <rect class="b" x="8.96" y="19" width="6.08" height="2" rx="1" ry="1" />
</svg>
