<svg xmlns="http://www.w3.org/2000/svg" xmlns:xlink="http://www.w3.org/1999/xlink" viewBox="0 0 24 24">
  <defs>
    <style>
      .b {
        fill: #020a1a;
      }

      .c {
        fill: #53cf92;
      }
    </style>
  </defs>
  <title>environment_2</title>
  <path class="b" d="M15,2c-2.88.45-5.12,3.64-5.12,7.5S12.12,16.54,15,17Z" />
  <path class="c" d="M15,2c2.88.45,5.12,3.64,5.12,7.5S17.88,16.54,15,17Z" />
  <path class="b" d="M15.09,11.38l3.47-2.23a.19.19,0,0,1,.26.25L15,15.82V11.54A.19.19,0,0,1,15.09,11.38Z" />
  <path class="b" d="M15,7.89a.19.19,0,0,1,.06-.14l2.19-2.11a.19.19,0,0,1,.3.21L15,11.44Z" />
  <path class="c" d="M14.91,11.38,11.45,9.15a.19.19,0,0,0-.26.25L15,15.74a0,0,0,0,0,0,0V11.54A.19.19,0,0,0,14.91,11.38Z" />
  <path class="c" d="M15,7.89a.19.19,0,0,0-.06-.14L12.75,5.65a.19.19,0,0,0-.3.21L15,11.44Z" />
  <path class="b" d="M16.2,3.73l-1.2,1v3L16.35,3.9C16.39,3.75,16.33,3.66,16.2,3.73Z" />
  <path class="c" d="M13.8,3.73l1.2,1v3L13.65,3.9C13.61,3.75,13.67,3.66,13.8,3.73Z" />
  <path class="b" d="M8.14,21.46a4,4,0,0,0-2,.4A1,1,0,0,1,5,21.72l-.45-.43a1,1,0,0,1,.13-1.55l1.47-1a6.89,6.89,0,0,1,2.44-1.14c.63-.11,4.27.09,4.27.09,1.55,0,1.25,1.25.39,1.27l-2.16.14a9.82,9.82,0,0,0,5.31-.2.77.77,0,0,1,.41,1.44,8.64,8.64,0,0,1-4.45,1.51Z"
  />
</svg>
