<svg viewBox="0 0 512 512" fill="none" xmlns="http://www.w3.org/2000/svg">
<g id="environment">
<g id="Vector">
<path d="M469.333 338.489C469.333 396.089 450.154 423.822 419.893 447.716C373.436 481.422 317.815 475.449 272.85 431.289H239.606C221.799 452.109 196.773 465.401 169.568 468.488C142.363 471.576 115 464.23 92.9894 447.929C75.9579 435.538 62.4161 418.95 53.6786 399.774C44.9411 380.598 41.3048 359.487 43.1227 338.489C43.1227 218.169 220.426 87.609 251.54 65.4223C252.888 64.4959 254.486 64 256.121 64C257.757 64 259.355 64.4959 260.703 65.4223C292.03 87.609 469.333 218.169 469.333 338.489Z" fill="#00672E"/>
<path d="M353.43 339.38C356.158 336.135 357.507 331.952 357.188 327.725C356.869 323.498 354.907 319.564 351.723 316.766C350.129 315.389 348.277 314.341 346.276 313.681C344.275 313.021 342.163 312.763 340.062 312.922C337.961 313.08 335.912 313.652 334.032 314.605C332.153 315.557 330.48 316.872 329.11 318.473L272.79 384.18V331.486L273.857 330.206L334.23 260.233C335.631 258.65 336.706 256.807 337.395 254.808C338.083 252.81 338.371 250.696 338.242 248.586C338.113 246.476 337.57 244.412 336.644 242.512C335.718 240.613 334.426 238.914 332.843 237.513C331.261 236.112 329.417 235.037 327.419 234.349C325.42 233.66 323.306 233.372 321.196 233.501C319.086 233.63 317.023 234.173 315.123 235.099C313.223 236.025 311.524 237.317 310.123 238.9L272.79 281.566V209.46C272.79 205.216 271.104 201.147 268.104 198.146C265.103 195.145 261.034 193.46 256.79 193.46C252.547 193.46 248.477 195.145 245.476 198.146C242.476 201.147 240.79 205.216 240.79 209.46V282.633L203.457 239.966C200.628 236.741 196.634 234.772 192.353 234.492C188.072 234.212 183.855 235.644 180.63 238.473C177.405 241.302 175.436 245.296 175.156 249.577C174.876 253.858 176.308 258.075 179.137 261.3L239.51 331.273C239.51 331.273 239.51 332.553 240.79 332.766V384.18L184.257 318.473C182.887 316.872 181.214 315.557 179.334 314.605C177.455 313.652 175.406 313.08 173.305 312.922C171.203 312.763 169.092 313.021 167.091 313.681C165.089 314.341 163.238 315.389 161.643 316.766C158.459 319.564 156.498 323.498 156.179 327.725C155.86 331.952 157.209 336.135 159.937 339.38L239.51 431.326H272.79L353.43 339.38Z" fill="#FBBE2E"/>
</g>
</g>
</svg>
