<svg xmlns="http://www.w3.org/2000/svg" xmlns:xlink="http://www.w3.org/1999/xlink" preserveAspectRatio="xMidYMid" width="64" height="64" viewBox="0 0 64 64">
<path fill="white" d="M31.929,27.607 C33.082,26.829 34.005,26.189 34.005,25.229 C34.005,24.222 33.267,23.444 31.284,23.444 C29.533,23.444 27.735,24.359 26.444,25.823 L22.019,20.792 C24.554,17.956 28.380,16.492 32.161,16.492 C38.245,16.492 42.026,19.420 42.026,23.810 C42.026,27.607 39.676,29.345 37.646,30.854 C36.171,31.906 34.879,32.822 34.879,34.285 C34.879,35.063 35.204,35.749 35.573,36.115 L29.440,37.671 C28.566,36.616 28.011,35.199 28.011,33.462 C28.011,30.306 30.224,28.751 31.929,27.607 ZM32.253,39.408 C34.603,39.408 36.586,41.373 36.586,43.707 C36.586,46.040 34.603,48.005 32.253,48.005 C29.902,48.005 27.919,46.040 27.919,43.707 C27.919,41.373 29.902,39.408 32.253,39.408 Z" class="cls-2"/>
</svg>
