<svg data-fixedcolors="true" viewBox="0 0 512 512" fill="none" xmlns="http://www.w3.org/2000/svg">
<g id="ethics">
<g id="Vector">
<path d="M277.333 64L213.333 234.667H277.333V448H405.333C416.649 448 427.502 443.505 435.503 435.503C443.505 427.502 448 416.649 448 405.333V106.667C448 95.3508 443.505 84.4983 435.503 76.4968C427.502 68.4952 416.649 64 405.333 64H277.333Z" fill="#002E13"/>
<path d="M341.333 192C345.553 192 349.677 190.749 353.186 188.405C356.694 186.061 359.428 182.729 361.043 178.831C362.657 174.932 363.08 170.643 362.257 166.505C361.434 162.366 359.402 158.565 356.418 155.582C353.435 152.598 349.634 150.566 345.495 149.743C341.357 148.92 337.068 149.343 333.169 150.957C329.271 152.572 325.939 155.306 323.595 158.815C321.251 162.323 320 166.447 320 170.667C320 176.325 322.248 181.751 326.248 185.752C330.249 189.752 335.675 192 341.333 192Z" fill="#FBBE2E"/>
<path d="M154.027 265.6L234.667 64H85.3333C79.6754 64 74.2492 66.2476 70.2484 70.2484C66.2476 74.2492 64 79.6754 64 85.3333V426.667C64 432.325 66.2476 437.751 70.2484 441.752C74.2492 445.752 79.6754 448 85.3333 448H234.667V277.333H161.92C160.524 277.331 159.15 276.985 157.919 276.328C156.687 275.671 155.636 274.721 154.857 273.563C154.078 272.405 153.595 271.073 153.45 269.685C153.305 268.297 153.503 266.894 154.027 265.6Z" fill="#FBBE2E"/>
<path d="M128 192C132.219 192 136.344 190.749 139.852 188.405C143.36 186.061 146.095 182.729 147.709 178.831C149.324 174.932 149.747 170.643 148.923 166.505C148.1 162.366 146.068 158.565 143.085 155.582C140.101 152.598 136.3 150.566 132.162 149.743C128.024 148.92 123.734 149.343 119.836 150.957C115.938 152.572 112.606 155.306 110.262 158.815C107.918 162.323 106.667 166.447 106.667 170.667C106.667 176.325 108.914 181.751 112.915 185.752C116.916 189.752 122.342 192 128 192Z" fill="#002E13"/>
</g>
</g>
</svg>
