<svg xmlns="http://www.w3.org/2000/svg" xmlns:xlink="http://www.w3.org/1999/xlink" viewBox="0 0 24 24">
    <defs>
        <style>
            .b {
            fill: #020a1a;
            }

            .c {
            fill: #fff;
            }
        </style>
    </defs>
    <title>ethics</title>
    <path class="b" d="M2,10.89C1.57,5.92,6.33,2,9.92,2A4.28,4.28,0,0,1,13,3.09C8.3,7,12,12,12,12S12,15.22,12,15.3c-.18,2.89-1.15,6.57-5.29,6.69C2,21.88,2,18.67,2,14.53H2l0-3.64Z" />
    <circle class="c" cx="7" cy="7.01" r="0.98" />
    <path class="c" d="M22,10.91C22,6,21.94,1.9,16.32,2A5.91,5.91,0,0,0,13,3.11h0a11,11,0,0,0-4,8.4.49.49,0,0,0,.5.49H22v-1.1Z" />
    <path class="c" d="M12,15.3c.18,2.89,1.15,6.57,5.29,6.69,4.71-.11,4.67-3.32,4.69-7.46L22,12H11.91S12,15.23,12,15.3Z" />
    <path class="b" d="M22,10.91c0-3.52,0-6.63-2.13-8.06C21.6,5,21,7.06,21,9.91h0V12h1v-1.1Z" />
    <path class="b" d="M21,13.53c0,4.14.24,7.5-4.47,7.61a5.78,5.78,0,0,1-3.1-1.06A4.67,4.67,0,0,0,17.27,22c4.71-.11,4.67-3.32,4.69-7.46L22,12H21Z" />
    <circle class="b" cx="14.04" cy="9" r="0.98" />
</svg>
