<svg data-fixedcolors="true" viewBox="0 0 512 512" fill="none" xmlns="http://www.w3.org/2000/svg">
<g id="euskara">
<g id="Vector">
<path d="M469.315 239.336C469.523 225.003 467.947 210.7 464.624 196.756C457.512 170.33 445.092 145.625 428.121 124.141C411.149 102.657 389.979 84.8431 365.898 71.7818C337.096 55.6815 305.146 45.9943 272.241 43.385C239.336 40.7758 206.255 45.3063 175.269 56.6657C132.661 73.4477 96.4616 103.257 71.8512 141.827C59.1739 160.277 50.2617 181.04 45.6237 202.93C41.6809 224.968 41.6809 247.53 45.6237 269.568C53.7347 314.131 76.9179 354.563 111.299 384.11C116.494 388.648 121.978 392.843 127.718 396.671C131.578 398.761 134.871 401.757 137.313 405.4C139.336 410.898 139.336 416.934 137.313 422.432C134.131 436.009 129.705 449.264 124.093 462.032C124.093 464.161 122.174 466.716 124.093 468.419C125.298 469.176 126.735 469.478 128.144 469.271C153.059 469.654 177.227 460.776 195.952 444.361C198.536 441.814 201.481 439.662 204.695 437.974C209.528 436.8 214.574 436.8 219.407 437.974C252.715 442.241 286.552 439.316 318.631 429.399C350.709 419.482 380.28 402.803 405.346 380.49C424.964 362.464 440.741 340.673 451.732 316.42C462.723 292.167 468.704 265.95 469.315 239.336Z" fill="#0C114D"/>
<path fill-rule="evenodd" clip-rule="evenodd" d="M282.82 171.467H265.82C260.165 171.467 255.58 176.143 255.58 181.91V258.143C255.58 295.111 277.7 320.801 323.373 320.801C369.047 320.801 390.757 294.485 390.757 258.143V181.91C390.757 176.143 386.173 171.467 380.517 171.467H363.722C358.066 171.467 353.481 176.143 353.481 181.91V256.89C354.002 265.094 350.96 273.116 345.161 278.828C339.363 284.54 331.395 287.363 323.373 286.548C315.301 287.506 307.231 284.738 301.366 279C295.502 273.263 292.456 265.155 293.061 256.89V181.91C293.061 176.143 288.476 171.467 282.82 171.467ZM222.809 206.139H170.172C156.04 206.348 156.04 234.126 170.172 235.17H200.894C201.908 235.17 203.203 235.105 204.649 235.032C211.382 234.693 221.376 234.189 221.376 239.347C222.017 243.289 222.017 247.311 221.376 251.252C221.376 256.474 206.629 256.474 200.894 256.474H170.172C154.811 256.474 154.606 286.34 170.172 286.34H222.809C228.465 286.34 233.05 291.016 233.05 296.783V308.897C233.05 314.664 228.465 319.34 222.809 319.34H138.426C132.77 319.34 128.185 314.664 128.185 308.897V183.582C128.185 177.815 132.77 173.139 138.426 173.139H222.809C228.465 173.139 233.05 177.815 233.05 183.582V195.696C233.05 201.463 228.465 206.139 222.809 206.139Z" fill="#FEDD8E"/>
</g>
</g>
</svg>
