<svg xmlns="http://www.w3.org/2000/svg" xmlns:xlink="http://www.w3.org/1999/xlink" viewBox="0 0 24 24">
    <defs>
        <style>
            .b {
            fill: #020a1a;
            }

            .c {
            fill: #abe1ff;
            }
        </style>
    </defs>
    <title>euskara</title>
    <path class="b" d="M21,4H3A1,1,0,0,0,2,5V20.79a.5.5,0,0,0,.85.35L7,17H21a1,1,0,0,0,1-1V5A1,1,0,0,0,21,4Z" />
    <path class="c" d="M12.8,7h.83a.5.5,0,0,1,.5.5v3.59a1.33,1.33,0,0,0,1.48,1.42,1.34,1.34,0,0,0,1.47-1.42V7.5a.5.5,0,0,1,.5-.5h.82a.5.5,0,0,1,.5.5v3.65c0,1.74-1.06,3-3.29,3s-3.31-1.23-3.31-3V7.5A.5.5,0,0,1,12.8,7Z" />
    <path class="c" d="M8.13,8.66l2.57,0a.5.5,0,0,0,.5-.5V7.58a.5.5,0,0,0-.5-.5H6.58a.5.5,0,0,0-.5.5v6a.5.5,0,0,0,.5.5H10.7a.5.5,0,0,0,.5-.5V13a.5.5,0,0,0-.5-.5H8.13c-.76,0-.75-1.43,0-1.43H9.63c.28,0,1,0,1-.25a1.74,1.74,0,0,0,0-.57c0-.3-.72-.2-1-.2H8.13C7.44,10,7.44,8.67,8.13,8.66Z"
    />
</svg>
