<svg xmlns="http://www.w3.org/2000/svg" xmlns:xlink="http://www.w3.org/1999/xlink" viewBox="0 0 24 24">
  <defs>
    <style>
      .b {
        fill: #53cf92;
      }

      .c {
        fill: #020a1a;
      }

      .d {
        fill: #ff796b;
      }
    </style>
  </defs>
  <title>security_1</title>
  <path class="b" d="M10,6a2.24,2.24,0,0,1,4,0h1.86A4,4,0,0,0,8.14,6Z" />
  <path class="c" d="M22.05,8a2,2,0,0,0-2-2H4A2,2,0,0,0,2,8V18a2,2,0,0,0,2,2H20a2,2,0,0,0,2-2Z" />
  <rect class="d" x="11" y="10" width="2" height="6" rx="1" ry="1" />
  <rect class="d" x="9" y="12" width="6" height="2" rx="1" ry="1" />
</svg>
