<svg data-fixedcolors="true" viewBox="0 0 512 512" fill="none" xmlns="http://www.w3.org/2000/svg">
<g id="first-aid">
<g id="Vector">
<path d="M64 170.666C64 147.102 83.1025 128 106.667 128H405.333C428.898 128 448 147.102 448 170.666V362.666C448 386.23 428.898 405.333 405.333 405.333H106.667C83.1025 405.333 64 386.23 64 362.666V170.666Z" fill="#FF341A"/>
<path fill-rule="evenodd" clip-rule="evenodd" d="M341.333 248.917C341.333 245.446 339.961 242.117 337.515 239.655C335.069 237.193 331.748 235.798 328.277 235.776H289.109C288.815 235.788 288.521 235.739 288.246 235.631C287.972 235.524 287.722 235.361 287.514 235.153C287.305 234.944 287.142 234.695 287.035 234.42C286.928 234.145 286.879 233.852 286.891 233.557V194.389C286.868 190.919 285.474 187.598 283.012 185.152C280.55 182.706 277.22 181.333 273.749 181.333H238.251C234.78 181.333 231.45 182.706 228.988 185.152C226.526 187.598 225.132 190.919 225.109 194.389V233.557C225.121 233.852 225.072 234.145 224.965 234.42C224.858 234.695 224.695 234.944 224.486 235.153C224.278 235.361 224.028 235.524 223.754 235.631C223.479 235.739 223.185 235.788 222.891 235.776H183.723C180.252 235.798 176.932 237.193 174.485 239.655C172.039 242.117 170.667 245.446 170.667 248.917V284.416C170.667 287.886 172.039 291.216 174.485 293.678C176.932 296.14 180.252 297.534 183.723 297.557H222.891C223.185 297.545 223.479 297.594 223.754 297.701C224.028 297.809 224.278 297.972 224.486 298.18C224.695 298.389 224.858 298.638 224.965 298.913C225.072 299.187 225.121 299.481 225.109 299.776V338.944C225.132 342.414 226.526 345.735 228.988 348.181C231.45 350.627 234.78 352 238.251 352H273.749C277.22 352 280.55 350.627 283.012 348.181C285.474 345.735 286.868 342.414 286.891 338.944V299.776C286.879 299.481 286.928 299.187 287.035 298.913C287.142 298.638 287.305 298.389 287.514 298.18C287.722 297.972 287.972 297.809 288.246 297.701C288.521 297.594 288.815 297.545 289.109 297.557H328.277C331.748 297.534 335.069 296.14 337.515 293.678C339.961 291.216 341.333 287.886 341.333 284.416V248.917Z" fill="#FFF1F0"/>
<path d="M149.333 85.333C137.551 85.333 128 94.8843 128 106.666V128H192V106.666C192 94.8843 182.449 85.333 170.667 85.333H149.333Z" fill="#0C114D"/>
<path d="M341.333 85.333C329.551 85.333 320 94.8843 320 106.666V128H384V106.666C384 94.8843 374.449 85.333 362.667 85.333H341.333Z" fill="#0C114D"/>
</g>
</g>
</svg>
