<svg viewBox="0 0 512 512" fill="none" xmlns="http://www.w3.org/2000/svg">
<g id="french">
<g id="Vector">
<path d="M469.315 239.334C469.523 225.001 467.947 210.698 464.624 196.754C457.512 170.328 445.092 145.623 428.121 124.139C411.149 102.655 389.979 84.8412 365.898 71.7798C337.096 55.6795 305.146 45.9923 272.241 43.3831C239.336 40.7739 206.255 45.3044 175.269 56.6638C132.661 73.4458 96.4616 103.255 71.8512 141.825C59.1739 160.275 50.2617 181.038 45.6237 202.928C41.6809 224.966 41.6809 247.528 45.6237 269.566C53.7347 314.129 76.9179 354.562 111.299 384.108C116.494 388.646 121.978 392.842 127.718 396.669C131.578 398.759 134.871 401.755 137.313 405.398C139.336 410.896 139.336 416.932 137.313 422.43C134.131 436.007 129.705 449.262 124.093 462.03C124.093 464.159 122.174 466.714 124.093 468.417C125.298 469.174 126.735 469.476 128.144 469.269C153.059 469.652 177.227 460.774 195.952 444.359C198.536 441.812 201.481 439.66 204.695 437.972C209.528 436.798 214.574 436.798 219.407 437.972C252.715 442.239 286.552 439.314 318.631 429.397C350.709 419.48 380.28 402.801 405.346 380.488C424.964 362.462 440.741 340.671 451.732 316.418C462.723 292.165 468.704 265.948 469.315 239.334Z" fill="#0C114D"/>
<path fill-rule="evenodd" clip-rule="evenodd" d="M324.378 278.025C320.688 269.512 302.033 268.023 302.033 278.025V309.52C302.033 315.396 297.444 320.16 291.783 320.16H275.383C269.722 320.16 265.133 315.396 265.133 309.52V181.836C265.353 176.126 269.878 171.617 275.383 171.621H336.883C349.995 170.521 362.936 175.285 372.451 184.715C381.967 194.145 387.15 207.344 386.698 220.992C387.195 237.162 379.391 252.391 366.198 261C361.4 263.879 359.675 270.194 362.303 275.258L377.883 305.051C379.623 308.352 379.554 312.362 377.701 315.596C375.848 318.831 372.488 320.809 368.863 320.799H350.413C346.493 320.807 342.912 318.494 341.188 314.84C341.188 314.84 328.068 286.537 324.378 278.025ZM149.102 171.621H234.382C240.042 171.621 244.632 176.385 244.632 182.261V195.03C244.632 200.906 240.042 205.67 234.382 205.67H181.082C175.137 205.67 171.857 228.653 183.952 228.44H232.947C238.607 228.44 243.197 233.204 243.197 239.081V251.211C243.197 257.087 238.607 261.851 232.947 261.851H186.002C180.341 261.851 175.752 266.615 175.752 272.491V309.732C175.752 315.609 171.162 320.373 165.502 320.373H149.102C143.441 320.373 138.852 315.609 138.852 309.732V182.048C138.963 176.255 143.52 171.62 149.102 171.621ZM312.281 205.67H331.141C337.233 204.634 343.34 207.43 346.712 212.798C350.083 218.167 350.083 225.095 346.712 230.464C343.34 235.832 337.233 238.628 331.141 237.591H312.281C306.62 237.591 302.031 232.827 302.031 226.951V216.311C302.031 210.434 306.62 205.67 312.281 205.67Z" fill="#FEDD8E"/>
</g>
</g>
</svg>
