<svg data-fixedcolors="true" viewBox="0 0 512 512" fill="none" xmlns="http://www.w3.org/2000/svg">
<g id="galego">
<g id="Vector">
<path d="M469.315 239.336C469.523 225.003 467.947 210.7 464.624 196.756C457.512 170.33 445.092 145.625 428.121 124.141C411.149 102.657 389.979 84.8431 365.898 71.7818C337.096 55.6815 305.146 45.9943 272.241 43.385C239.336 40.7758 206.255 45.3063 175.269 56.6657C132.661 73.4477 96.4616 103.257 71.8512 141.827C59.1739 160.277 50.2617 181.04 45.6237 202.93C41.6809 224.968 41.6809 247.53 45.6237 269.568C53.7347 314.131 76.9179 354.563 111.299 384.11C116.494 388.648 121.978 392.843 127.718 396.671C131.578 398.761 134.871 401.757 137.313 405.4C139.336 410.898 139.336 416.934 137.313 422.432C134.131 436.009 129.705 449.264 124.093 462.032C124.093 464.161 122.174 466.716 124.093 468.419C125.298 469.176 126.735 469.478 128.144 469.271C153.059 469.654 177.227 460.776 195.952 444.361C198.536 441.814 201.481 439.662 204.695 437.974C209.528 436.8 214.574 436.8 219.407 437.974C252.715 442.241 286.552 439.316 318.631 429.399C350.709 419.482 380.28 402.803 405.346 380.49C424.964 362.464 440.741 340.673 451.732 316.42C462.723 292.167 468.704 265.95 469.315 239.336Z" fill="#0C114D"/>
<path fill-rule="evenodd" clip-rule="evenodd" d="M259.908 196.804C246.698 180.225 226.608 170.9 205.632 171.611C185.201 170.317 165.176 177.814 150.451 192.268C135.725 206.723 127.655 226.804 128.212 247.605C127.887 268.263 136.06 288.121 150.758 302.391C165.456 316.66 185.346 324.046 205.632 322.767C228.275 323.354 250.147 314.385 266.052 297.99C267.938 295.971 268.968 293.279 268.92 290.495V247.397C268.92 241.648 264.335 236.987 258.679 236.987H210.138C204.482 236.987 199.897 241.648 199.897 247.397V259.473C199.897 265.302 204.403 266.76 210.138 266.76H234.101C237.583 267.385 237.583 277.17 234.101 281.126C225.643 285.819 216.076 288.052 206.451 287.58C195.643 287.701 185.258 283.318 177.712 275.451C170.167 267.584 166.12 256.92 166.512 245.94C166.759 229.703 176.047 215.015 190.476 208.047C204.361 200.99 221.179 204.324 231.439 216.166C234.497 219.747 239.55 220.775 243.727 218.665L256.426 212.419C259.139 211.016 261.097 208.459 261.77 205.441C262.443 202.424 261.761 199.258 259.908 196.804ZM319.919 174.109H303.533C298.183 174.092 293.721 178.265 293.293 183.687V308.609C293.293 314.358 297.878 319.019 303.533 319.019H377.472C383.127 319.019 387.712 314.358 387.712 308.609V296.741C387.712 290.992 383.127 286.331 377.472 286.331H335.28C332.452 286.331 330.159 284.001 330.159 281.126V184.52C330.159 178.77 325.574 174.109 319.919 174.109Z" fill="#FEDD8E"/>
</g>
</g>
</svg>
