<svg xmlns="http://www.w3.org/2000/svg" xmlns:xlink="http://www.w3.org/1999/xlink" viewBox="0 0 24 24">
    <defs>
        <style>
            .b {
            fill: #020a1a;
            }

            .c {
            fill: #abe1ff;
            }
        </style>
    </defs>
    <title>galego</title>
    <path class="b" d="M21,4H3A1,1,0,0,0,2,5V20.79a.5.5,0,0,0,.85.35L7,17H21a1,1,0,0,0,1-1V5A1,1,0,0,0,21,4Z" />
    <path class="c" d="M11.12,6.74a3.27,3.27,0,0,1,2.65,1.21.5.5,0,0,1-.17.75L13,9a.5.5,0,0,1-.6-.12,1.67,1.67,0,0,0-2-.39,2.05,2.05,0,0,0-1.17,1.82,1.93,1.93,0,0,0,1.95,2A2.56,2.56,0,0,0,12.51,12c.17-.19.17-.66,0-.69H11.34c-.28,0-.5-.07-.5-.35v-.58a.5.5,0,0,1,.5-.5h2.37a.5.5,0,0,1,.5.5v2.07a.51.51,0,0,1-.14.36A4,4,0,0,1,11.12,14a3.56,3.56,0,0,1-3.78-3.61A3.56,3.56,0,0,1,11.12,6.74Z"
    />
    <path class="c" d="M15.9,6.86h.8a.5.5,0,0,1,.5.5V12a.25.25,0,0,0,.25.25H19.5a.5.5,0,0,1,.5.5v.57a.5.5,0,0,1-.5.5H15.9a.5.5,0,0,1-.5-.5v-6A.5.5,0,0,1,15.9,6.86Z" />
</svg>
