<svg data-fixedcolors="true" viewBox="0 0 512 512" fill="none" xmlns="http://www.w3.org/2000/svg">
<path d="M256 469.333C373.821 469.333 469.334 373.821 469.334 256C469.334 138.179 373.821 42.6665 256 42.6665C138.18 42.6665 42.667 138.179 42.667 256C42.667 373.821 138.18 469.333 256 469.333Z" fill="#0089E3"/>
<path d="M121.175 334.933C159.788 359.893 236.375 324.053 223.788 238.72C212.73 164.393 247.97 119.916 266.42 96.6284C282.497 76.3367 285.826 72.1346 234.668 78.2934C93.8683 94.9334 41.3883 283.52 121.175 334.933Z" fill="#60D399"/>
<path d="M354.347 409.386C388.054 387.626 437.547 327.466 394.881 294.613C381.441 284.373 295.04 224.213 256 330.88C246.4 355.626 244.054 402.559 277.334 419.626C289.821 425.398 303.691 427.5 317.327 425.687C330.963 423.874 343.803 418.22 354.347 409.386Z" fill="#60D399"/>
</svg>
