<svg xmlns="http://www.w3.org/2000/svg" xmlns:xlink="http://www.w3.org/1999/xlink" viewBox="0 0 24 24">
    <defs>
        <style>
            .b {
            fill: #020a1a;
            }

            .c {
            fill: #57b2f8;
            }

            .d {
            fill: #53cf92;
            }
        </style>
    </defs>
    <title>geography</title>
    <rect class="b" x="11.04" y="18.06" width="2" height="4" rx="0.98" ry="0.98" />
    <circle class="b" cx="12.03" cy="9.05" r="6.99" />
    <path class="c" d="M18.75,7.06h0a5.37,5.37,0,0,1-2.41.79c-1.08,0-1.16.18-1.27.47a.66.66,0,0,0,.6.83c.74.1,1,.88,1.24,1.41s1.47.27,2.06-.49A6.86,6.86,0,0,0,18.75,7.06Z" />
    <path class="d" d="M9.84,4.23c.25,1.68-1.35,1.63-1.8,2A3.3,3.3,0,0,0,6.7,8.4c-.13.75.32.81.65.62s.41-.79.69-.82c.61-.05.91,1.16,1.38.82s0-.82-.07-1.19c-.32-1,1.19-1.5,2.21-1.27.62.24,1.08.79,1.79.47a3.86,3.86,0,0,0,1.14-1.17c.28-.35.36-.66.86-.55s.5,1.15,1.19,1.08S17.92,5.21,17.6,4.8A6.89,6.89,0,0,0,11.15,2.1,1.85,1.85,0,0,0,9.84,4.23Z"
    />
    <path class="c" d="M11.22,14.06c.17.57.14,1.32.8,1.36.9.05,1-.95,1-1.88s-1-.94-1-1.5c0-1,.9-.62,1.3-1.49.83-1.83.13-2.69-.76-2.51s-1.85,1.43-2.3,2A1.63,1.63,0,0,1,9,10.65a21.3,21.3,0,0,1-2.17-.33c-.64,0-1.13.58-1.45,1a6.57,6.57,0,0,0,2.22,3.21,10.57,10.57,0,0,1,.84-1A1.62,1.62,0,0,1,11.22,14.06Z"
    />
    <path class="b" d="M12,19.06a10,10,0,0,1-7.07-2.92,1,1,0,1,1,1.4-1.4A8,8,0,1,0,17.66,3.41,1,1,0,0,1,19.06,2,10,10,0,0,1,12,19.06Z" />
</svg>
