<svg xmlns="http://www.w3.org/2000/svg" xmlns:xlink="http://www.w3.org/1999/xlink" preserveAspectRatio="xMidYMid" width="64" height="64" viewBox="0 0 64 64">
<path fill="white" d="M32.000,52.000 C20.954,52.000 12.000,43.046 12.000,32.000 C12.000,20.954 20.954,12.000 32.000,12.000 C39.311,12.000 45.702,15.924 49.191,21.780 C49.326,21.909 49.422,22.075 49.468,22.262 C51.079,25.144 52.000,28.464 52.000,32.000 C52.000,43.046 43.046,52.000 32.000,52.000 ZM29.200,49.776 C26.444,48.043 24.134,45.530 22.521,42.500 L17.394,42.500 C20.144,46.319 24.349,49.016 29.200,49.776 ZM24.990,21.500 L31.000,21.500 L31.000,15.950 C28.613,17.234 26.553,19.146 24.990,21.500 ZM31.000,31.000 L31.000,23.500 L23.833,23.500 C22.715,25.750 22.015,28.292 21.849,31.000 L31.000,31.000 ZM21.832,33.000 C21.931,35.695 22.556,38.235 23.600,40.500 L31.000,40.500 L31.000,33.000 L21.832,33.000 ZM24.669,42.500 C26.265,45.083 28.446,47.175 31.000,48.549 L31.000,42.500 L24.669,42.500 ZM16.148,40.500 L21.601,40.500 C20.669,38.197 20.118,35.667 20.030,33.000 L14.030,33.000 C14.178,35.705 14.935,38.243 16.148,40.500 ZM16.178,23.442 C14.947,25.713 14.179,28.272 14.030,31.000 L20.047,31.000 C20.195,28.324 20.807,25.791 21.802,23.500 L16.500,23.500 C16.387,23.500 16.279,23.477 16.178,23.442 ZM17.394,21.500 L22.809,21.500 C24.623,18.312 27.210,15.725 30.288,14.089 C24.979,14.591 20.348,17.398 17.394,21.500 ZM49.970,33.000 L43.970,33.000 C43.882,35.667 43.331,38.197 42.400,40.500 L47.852,40.500 C49.065,38.243 49.822,35.705 49.970,33.000 ZM46.606,42.500 L41.480,42.500 C39.866,45.530 37.558,48.043 34.801,49.775 C39.652,49.015 43.856,46.318 46.606,42.500 ZM33.000,48.550 C35.554,47.176 37.736,45.083 39.332,42.500 L33.000,42.500 L33.000,48.550 ZM33.000,40.500 L40.401,40.500 C41.444,38.235 42.069,35.695 42.168,33.000 L33.000,33.000 L33.000,40.500 ZM33.000,31.000 L42.151,31.000 C41.985,28.292 41.285,25.750 40.167,23.500 L33.000,23.500 L33.000,31.000 ZM33.000,21.500 L39.009,21.500 C37.447,19.147 35.387,17.235 33.000,15.951 L33.000,21.500 ZM33.710,14.089 C36.788,15.725 39.376,18.312 41.191,21.500 L46.606,21.500 C43.652,17.398 39.020,14.590 33.710,14.089 ZM47.852,23.500 L42.198,23.500 C43.193,25.791 43.805,28.324 43.953,31.000 L49.970,31.000 C49.822,28.295 49.065,25.757 47.852,23.500 Z" class="cls-2"/>
</svg>
