<svg data-fixedcolors="true" viewBox="0 0 512 512" fill="none" xmlns="http://www.w3.org/2000/svg">
<g id="geography">
<g id="Vector">
<path d="M256 469.334C298.193 469.334 339.439 456.822 374.522 433.38C409.604 409.939 436.948 376.621 453.094 337.639C469.241 298.658 473.466 255.764 465.234 214.381C457.003 172.998 436.685 134.986 406.849 105.151C377.014 75.3155 339.002 54.9975 297.619 46.766C256.237 38.5345 213.342 42.7592 174.361 58.9059C135.379 75.0526 102.061 102.396 78.6198 137.479C55.1784 172.561 42.6666 213.807 42.6666 256C42.6666 312.58 65.1428 366.842 105.151 406.85C124.96 426.659 148.478 442.374 174.361 453.094C200.244 463.815 227.985 469.334 256 469.334Z" fill="#0089E3"/>
<path d="M352.641 205.44C388.694 165.76 370.774 103.04 348.161 64.0001C382.258 80.2157 411.442 105.19 432.73 136.374C454.019 167.557 466.65 203.832 469.334 241.493C465.758 254.496 459.67 266.672 451.414 277.333C442.699 288.971 431.563 298.579 418.774 305.493C354.774 339.413 288.641 276.693 352.641 205.44Z" fill="#60D399"/>
<path d="M100.907 346.027C127.573 401.707 219.947 466.347 273.067 412.16C300.011 385.047 281.326 369.001 254.526 345.987C213.425 310.69 153.236 259.003 209.28 125.867C220.587 98.7733 155.52 120.96 129.28 147.2C104.396 173.237 88.2813 206.406 83.1933 242.061C78.1053 277.716 84.299 314.069 100.907 346.027Z" fill="#60D399"/>
</g>
</g>
</svg>
