<svg data-fixedcolors="true" viewBox="0 0 512 512" fill="none" xmlns="http://www.w3.org/2000/svg">
<path d="M437.809 275.253H72.4631C70.134 275.408 67.9525 276.501 66.3755 278.303C64.7984 280.105 63.9481 282.477 64.0025 284.921V349.174C63.9989 350.512 64.272 351.835 64.8031 353.052C65.3342 354.269 66.1107 355.351 67.0791 356.224L154.185 436.792C162.209 444.023 172.443 448 183.028 448C193.613 448 203.847 444.023 211.871 436.792L240.522 414.032C244.963 410.201 250.537 408.107 256.29 408.107C262.042 408.107 267.616 410.201 272.057 414.032L300.323 436.188C308.348 443.419 318.581 447.396 329.166 447.396C339.751 447.396 349.985 443.419 358.01 436.188L444.923 355.62C445.892 354.747 446.668 353.665 447.199 352.448C447.73 351.231 448.003 349.908 448 348.57V284.921C448.007 283.562 447.74 282.217 447.218 280.973C446.695 279.729 445.928 278.614 444.966 277.702C444.004 276.79 442.87 276.1 441.637 275.678C440.403 275.256 439.099 275.111 437.809 275.253Z" fill="#935000"/>
<path d="M439.33 236.802H73.2504C72.0287 236.774 70.8143 237.009 69.6804 237.492C68.5464 237.975 67.5164 238.697 66.6523 239.613C65.7883 240.53 65.108 241.622 64.6525 242.825C64.1971 244.027 63.9758 245.315 64.0021 246.611V290.137C64.0229 291.491 64.3075 292.825 64.8381 294.055C65.3686 295.286 66.1336 296.387 67.0849 297.29L154.366 379.029C162.382 386.257 172.553 390.239 183.074 390.268C193.447 390.252 203.481 386.343 211.397 379.234L240.106 356.346C244.523 352.55 250.026 350.46 255.712 350.42C261.522 350.416 267.161 352.505 271.704 356.346L300.027 379.029C308.067 386.365 318.322 390.4 328.928 390.4C339.534 390.4 349.789 386.365 357.829 379.029L444.917 297.29C445.869 296.387 446.633 295.286 447.164 294.055C447.695 292.825 447.979 291.491 448 290.137V246.611C448.005 244.112 447.11 241.706 445.499 239.883C443.887 238.06 441.681 236.958 439.33 236.802Z" fill="#FBBE2E"/>
<path d="M438.559 179.202H72.4801C70.1463 179.358 67.9604 180.451 66.3802 182.254C64.8 184.056 63.948 186.428 64.0025 188.873V253.145C64.0233 254.479 64.3079 255.795 64.8384 257.008C65.369 258.222 66.134 259.308 67.0852 260.197L154.366 340.789C162.406 348.022 172.661 352 183.267 352C193.873 352 204.128 348.022 212.168 340.789L240.106 318.223C244.556 314.392 250.141 312.296 255.905 312.296C261.669 312.296 267.254 314.392 271.704 318.223L300.027 340.386C308.067 347.619 318.322 351.597 328.928 351.597C339.534 351.597 349.789 347.619 357.829 340.386L444.917 259.794C445.869 258.905 446.633 257.819 447.164 256.605C447.695 255.392 447.979 254.076 448 252.742V188.873C448 187.586 447.755 186.312 447.278 185.125C446.801 183.938 446.103 182.863 445.223 181.962C444.344 181.062 443.302 180.354 442.157 179.88C441.013 179.406 439.79 179.175 438.559 179.202Z" fill="#935000"/>
<path d="M438.559 141.901H72.4777C70.2426 142.049 68.1391 143.061 66.5734 144.74C65.0077 146.419 64.0908 148.648 64 150.995V194.038C64.0208 195.376 64.3054 196.695 64.836 197.913C65.3665 199.13 66.1315 200.219 67.0828 201.111L154.364 281.943C162.38 289.09 172.552 293.028 183.073 293.057C193.303 293.383 203.32 289.953 211.396 283.358L240.104 260.724C244.547 256.992 250.022 254.865 255.711 254.662C261.525 254.822 267.135 256.948 271.703 260.724L300.026 283.155C308.066 290.41 318.321 294.4 328.927 294.4C339.534 294.4 349.788 290.41 357.828 283.155L444.725 202.323C445.73 201.467 446.545 200.39 447.11 199.168C447.676 197.946 447.98 196.609 448 195.25V150.995C447.851 148.493 446.785 146.149 445.025 144.454C443.265 142.759 440.948 141.844 438.559 141.901Z" fill="#FBBE2E"/>
<path d="M443.577 143.213L356.663 73.7935C348.543 67.7172 338.7 64.4366 328.589 64.4366C318.478 64.4366 308.635 67.7172 300.515 73.7935L271.864 93.1845C267.151 96.4353 261.611 98.2526 255.904 98.42C250.006 98.32 244.263 96.5018 239.367 93.1845L211.293 73.7935C202.997 67.4398 192.867 64 182.45 64C172.033 64 161.902 67.4398 153.606 73.7935L67.4612 143.213C66.3825 144.066 65.5103 145.155 64.9107 146.398C64.311 147.641 63.9996 149.005 64 150.388C64.0266 151.765 64.35 153.12 64.9476 154.359C65.5453 155.598 66.403 156.691 67.4612 157.562L154.568 226.982C162.696 233.201 172.632 236.541 182.834 236.484C192.851 236.499 202.613 233.308 210.716 227.37L239.367 207.979C244.281 204.401 250.23 202.56 256.288 202.743C262.21 202.686 267.999 204.519 272.825 207.979L300.899 227.37C309.108 233.494 319.05 236.8 329.262 236.8C339.473 236.8 349.415 233.494 357.624 227.37L444.539 157.95C445.597 157.079 446.455 155.986 447.052 154.747C447.65 153.508 447.973 152.153 448 150.776C447.954 149.241 447.524 147.744 446.751 146.422C445.978 145.1 444.886 143.996 443.577 143.213Z" fill="#24A865"/>
</svg>
