<svg xmlns="http://www.w3.org/2000/svg" xmlns:xlink="http://www.w3.org/1999/xlink" preserveAspectRatio="xMidYMid" width="64" height="64" viewBox="0 0 64 64">
<path fill="white" d="M46.214,28.268 L44.349,27.191 C43.834,26.894 43.955,25.720 43.488,25.451 C43.022,25.182 41.063,25.294 41.551,25.576 L39.686,24.499 L25.687,48.747 C25.092,49.777 23.775,50.130 22.745,49.535 C21.715,48.940 21.362,47.623 21.956,46.593 L35.956,22.345 C35.441,22.048 35.264,21.389 35.561,20.874 C35.561,20.874 35.406,17.174 24.370,14.413 C26.476,10.767 34.357,14.210 38.990,16.662 C39.057,16.684 39.123,16.713 39.186,16.750 L39.589,16.982 C41.306,17.914 42.450,18.634 42.450,18.634 L44.782,19.980 C44.294,19.699 45.164,21.445 45.642,21.721 C46.120,21.997 47.064,21.298 47.580,21.596 L49.445,22.673 C49.960,22.970 50.136,23.629 49.839,24.144 L47.685,27.874 C47.388,28.389 46.729,28.566 46.214,28.268 Z" class="cls-2"/>
</svg>
