<svg viewBox="0 0 512 512" fill="none" xmlns="http://www.w3.org/2000/svg">
<g id="geology">
<g id="Vector">
<path d="M458.009 277.392H52.0699C49.482 277.565 47.0582 278.779 45.3059 280.782C43.5536 282.784 42.6088 285.419 42.6692 288.134V359.527C42.6653 361.014 42.9688 362.484 43.5589 363.836C44.149 365.188 45.0117 366.39 46.0877 367.36L142.872 456.88C151.788 464.915 163.159 469.333 174.92 469.333C186.681 469.333 198.052 464.915 206.968 456.88L238.802 431.591C243.736 427.335 249.93 425.007 256.322 425.007C262.714 425.007 268.907 427.335 273.841 431.591L305.248 456.209C314.164 464.243 325.535 468.662 337.296 468.662C349.057 468.662 360.428 464.243 369.344 456.209L465.915 366.688C466.991 365.719 467.853 364.517 468.443 363.164C469.034 361.812 469.337 360.342 469.333 358.855V288.134C469.341 286.624 469.045 285.13 468.464 283.747C467.883 282.365 467.031 281.127 465.962 280.114C464.894 279.1 463.633 278.334 462.263 277.865C460.892 277.396 459.443 277.235 458.009 277.392Z" fill="#935000"/>
<path d="M459.7 234.669H52.9447C51.5873 234.638 50.238 234.899 48.978 235.436C47.7181 235.972 46.5736 236.774 45.6135 237.792C44.6535 238.811 43.8976 240.024 43.3915 241.361C42.8855 242.697 42.6396 244.128 42.6688 245.568V293.93C42.692 295.434 43.0082 296.916 43.5977 298.284C44.1872 299.652 45.0372 300.875 46.0941 301.877L143.073 392.699C151.98 400.73 163.281 405.154 174.971 405.187C186.497 405.169 197.645 400.826 206.441 392.926L238.339 367.496C243.247 363.277 249.363 360.955 255.68 360.912C262.135 360.907 268.401 363.228 273.449 367.496L304.919 392.699C313.852 400.851 325.246 405.333 337.031 405.333C348.816 405.333 360.209 400.851 369.143 392.699L465.908 301.877C466.965 300.875 467.815 299.652 468.404 298.284C468.994 296.916 469.31 295.434 469.333 293.93V245.568C469.338 242.792 468.344 240.118 466.554 238.093C464.764 236.067 462.312 234.843 459.7 234.669Z" fill="#FBBE2E"/>
<path d="M458.843 170.669H52.0888C49.4957 170.842 47.067 172.057 45.3112 174.06C43.5554 176.063 42.6087 178.698 42.6692 181.415V252.828C42.6924 254.31 43.0086 255.772 43.5981 257.12C44.1876 258.469 45.0376 259.675 46.0945 260.663L143.073 350.21C152.007 358.247 163.401 362.667 175.186 362.667C186.97 362.667 198.364 358.247 207.298 350.21L238.34 325.137C243.284 320.88 249.489 318.552 255.894 318.552C262.299 318.552 268.505 320.88 273.449 325.137L304.919 349.762C313.852 357.799 325.246 362.219 337.031 362.219C348.816 362.219 360.21 357.799 369.143 349.762L465.908 260.216C466.965 259.227 467.815 258.021 468.404 256.673C468.994 255.324 469.31 253.863 469.333 252.38V181.415C469.333 179.984 469.061 178.569 468.531 177.25C468.001 175.932 467.225 174.737 466.248 173.736C465.271 172.735 464.113 171.949 462.841 171.422C461.57 170.895 460.211 170.639 458.843 170.669Z" fill="#935000"/>
<path d="M458.843 129.224H52.0861C49.6027 129.388 47.2655 130.512 45.5258 132.378C43.7861 134.244 42.7674 136.72 42.6665 139.328V187.153C42.6896 188.64 43.0059 190.106 43.5954 191.458C44.1849 192.811 45.0348 194.021 46.0918 195.012L143.071 284.826C151.978 292.767 163.279 297.142 174.97 297.175C186.336 297.537 197.467 293.725 206.44 286.397L238.338 261.249C243.275 257.102 249.357 254.739 255.679 254.513C262.139 254.691 268.372 257.054 273.448 261.249L304.918 286.173C313.851 294.234 325.245 298.667 337.03 298.667C348.815 298.667 360.209 294.234 369.143 286.173L465.694 196.359C466.811 195.408 467.716 194.211 468.345 192.853C468.974 191.496 469.311 190.01 469.333 188.501V139.328C469.168 136.548 467.983 133.944 466.028 132.06C464.072 130.177 461.498 129.16 458.843 129.224Z" fill="#FBBE2E"/>
<path d="M464.419 130.681L367.848 53.5485C358.826 46.797 347.889 43.1519 336.654 43.1519C325.419 43.1519 314.483 46.797 305.461 53.5485L273.626 75.094C268.39 78.706 262.235 80.7251 255.893 80.9112C249.34 80.8001 242.959 78.7798 237.519 75.094L206.325 53.5485C197.108 46.4887 185.852 42.6667 174.277 42.6667C162.703 42.6667 151.447 46.4887 142.229 53.5485L46.5123 130.681C45.3137 131.629 44.3446 132.839 43.6784 134.22C43.0121 135.601 42.6661 137.117 42.6665 138.653C42.6961 140.184 43.0554 141.689 43.7194 143.066C44.3835 144.442 45.3365 145.657 46.5123 146.625L143.297 223.758C152.329 230.668 163.369 234.379 174.705 234.315C185.834 234.333 196.681 230.787 205.684 224.189L237.519 202.643C242.979 198.668 249.589 196.622 256.32 196.826C262.9 196.762 269.332 198.798 274.695 202.643L305.888 224.189C315.009 230.994 326.056 234.667 337.402 234.667C348.748 234.667 359.795 230.994 368.916 224.189L465.487 147.056C466.663 146.088 467.616 144.873 468.28 143.497C468.944 142.12 469.304 140.615 469.333 139.084C469.282 137.38 468.805 135.716 467.946 134.247C467.087 132.778 465.874 131.551 464.419 130.681Z" fill="#24A865"/>
</g>
</g>
</svg>
