<svg data-fixedcolors="true" viewBox="0 0 512 512" fill="none" xmlns="http://www.w3.org/2000/svg">
<g id="geometry">
<g id="Vector">
<path d="M441.813 411.947L100.48 70.6133C97.5218 67.6299 93.7485 65.5864 89.6334 64.7391C85.5183 63.8918 81.2446 64.2785 77.3484 65.8506C73.4522 67.4228 70.107 70.1104 67.7323 73.5764C65.3576 77.0423 64.0592 81.1323 64 85.3333V426.667C64 432.325 66.2476 437.751 70.2484 441.752C74.2492 445.752 79.6754 448 85.3333 448H426.667C430.817 447.943 434.862 446.676 438.303 444.355C441.745 442.034 444.434 438.759 446.042 434.932C447.65 431.104 448.106 426.891 447.355 422.809C446.604 418.726 444.678 414.951 441.813 411.947ZM149.333 354.133V247.467C149.315 245.778 149.798 244.122 150.721 242.709C151.644 241.295 152.966 240.187 154.519 239.524C156.072 238.862 157.786 238.675 159.446 238.988C161.105 239.3 162.634 240.098 163.84 241.28L270.507 347.947C271.676 349.139 272.47 350.649 272.789 352.289C273.109 353.928 272.94 355.625 272.304 357.17C271.668 358.714 270.593 360.038 269.211 360.978C267.83 361.917 266.204 362.43 264.533 362.453H157.867C155.64 362.454 153.501 361.584 151.907 360.03C150.313 358.475 149.389 356.359 149.333 354.133Z" fill="#FBBE2E"/>
<path d="M101.98 197.98C104.981 194.98 106.667 190.91 106.667 186.667C106.667 182.423 104.981 178.354 101.98 175.353C98.9798 172.352 94.9101 170.667 90.6667 170.667H64V202.667H90.6667C94.9101 202.667 98.9798 200.981 101.98 197.98Z" fill="#0089E3"/>
<path d="M106.667 266.667C106.667 270.91 104.981 274.98 101.98 277.98C98.9798 280.981 94.9101 282.667 90.6667 282.667H64V250.667H90.6667C94.9101 250.667 98.9798 252.352 101.98 255.353C104.981 258.354 106.667 262.423 106.667 266.667Z" fill="#0089E3"/>
<path d="M106.667 346.667C106.667 350.91 104.981 354.98 101.98 357.98C98.9798 360.981 94.9101 362.667 90.6667 362.667H64V330.667H90.6667C94.9101 330.667 98.9798 332.352 101.98 335.353C104.981 338.354 106.667 342.423 106.667 346.667Z" fill="#0089E3"/>
</g>
</g>
</svg>
