<svg xmlns="http://www.w3.org/2000/svg" xmlns:xlink="http://www.w3.org/1999/xlink" preserveAspectRatio="xMidYMid" width="64" height="64" viewBox="0 0 64 64">
<path fill="white" d="M45.701,31.766 C44.680,34.057 43.040,36.099 40.862,37.637 L42.920,45.068 C43.268,46.349 41.806,51.005 41.806,51.005 L36.385,39.778 C33.787,40.528 31.075,40.559 28.556,39.883 L23.161,51.005 C23.161,51.005 21.700,46.349 22.048,45.068 L26.641,27.724 C26.742,26.853 26.867,26.244 27.011,25.826 C26.619,25.033 26.393,24.146 26.393,23.205 C26.393,20.743 27.897,18.630 30.048,17.703 L30.048,15.399 C30.048,14.073 31.138,12.997 32.484,12.997 C33.830,12.997 34.920,14.073 34.920,15.399 L34.920,17.703 C37.071,18.630 38.575,20.743 38.575,23.205 C38.575,24.234 38.311,25.202 37.848,26.048 C38.002,26.451 38.159,26.986 38.327,27.724 L40.212,35.096 C41.628,33.915 42.722,32.461 43.449,30.856 C43.577,30.574 44.408,29.997 44.408,29.997 L46.002,31.037 C46.002,31.037 45.808,31.525 45.701,31.766 ZM35.793,37.463 L33.653,29.096 C33.275,29.168 32.884,29.209 32.484,29.209 C32.084,29.209 31.693,29.168 31.315,29.096 L29.137,37.608 C31.255,38.210 33.579,38.141 35.793,37.463 ZM32.484,19.602 C30.466,19.602 28.829,21.215 28.829,23.205 C28.829,25.194 30.466,26.807 32.484,26.807 C34.502,26.807 36.138,25.194 36.138,23.205 C36.138,21.215 34.502,19.602 32.484,19.602 Z" class="cls-2"/>
</svg>
