<svg viewBox="0 0 512 512" fill="none" xmlns="http://www.w3.org/2000/svg">
<g id="german">
<g id="Vector">
<path d="M469.315 239.334C469.523 225.001 467.947 210.698 464.624 196.754C457.512 170.328 445.092 145.623 428.121 124.139C411.149 102.655 389.979 84.8412 365.898 71.7798C337.096 55.6795 305.146 45.9923 272.241 43.3831C239.336 40.7739 206.255 45.3044 175.269 56.6638C132.661 73.4458 96.4616 103.255 71.8512 141.825C59.1739 160.275 50.2617 181.038 45.6237 202.928C41.6809 224.966 41.6809 247.528 45.6237 269.566C53.7347 314.129 76.9179 354.562 111.299 384.108C116.494 388.646 121.978 392.842 127.718 396.669C131.578 398.759 134.871 401.755 137.313 405.398C139.336 410.896 139.336 416.932 137.313 422.43C134.131 436.007 129.705 449.262 124.093 462.03C124.093 464.159 122.174 466.714 124.093 468.417C125.298 469.174 126.735 469.476 128.144 469.269C153.059 469.652 177.227 460.774 195.952 444.359C198.536 441.812 201.481 439.66 204.695 437.972C209.528 436.798 214.574 436.798 219.407 437.972C252.715 442.239 286.552 439.314 318.631 429.397C350.709 419.48 380.28 402.801 405.346 380.488C424.964 362.462 440.741 340.671 451.732 316.418C462.723 292.165 468.704 265.948 469.315 239.334Z" fill="#0C114D"/>
<path fill-rule="evenodd" clip-rule="evenodd" d="M188.196 171.465H138.426C132.77 171.465 128.185 176.23 128.185 182.108V309.817C128.185 315.694 132.77 320.459 138.426 320.459H188.4C208.443 322.472 228.356 315.476 243.113 301.239C257.87 287.001 266.06 266.883 265.616 245.962C265.616 199.561 233.255 171.465 188.196 171.465ZM188.194 286.616H175.086C167.918 286.616 165.665 284.7 165.05 278.528V214.673C164.107 204.383 168.712 204.371 178.216 204.345C181.098 204.337 184.43 204.328 188.194 204.031C198.885 203.127 209.42 207.133 217.024 214.995C224.628 222.856 228.538 233.783 227.724 244.898C228.434 256.079 224.527 267.045 216.981 275.049C209.436 283.053 198.966 287.338 188.194 286.829V286.616ZM381.541 205.521H328.904C314.771 205.521 314.771 235.32 328.904 235.107H359.421C360.435 235.107 361.73 235.041 363.176 234.966C369.909 234.621 379.903 234.108 379.903 239.364C380.544 243.381 380.544 247.48 379.903 251.496C379.903 256.818 365.156 256.818 359.421 256.818H328.904C313.543 256.818 313.338 287.255 328.904 287.255H381.541C387.197 287.255 391.782 292.02 391.782 297.897V310.03C391.782 315.907 387.197 320.672 381.541 320.672H297.157C291.502 320.672 286.917 315.907 286.917 310.03V182.321C286.917 176.443 291.502 171.678 297.157 171.678H381.541C387.197 171.678 391.782 176.443 391.782 182.321V194.879C391.782 200.757 387.197 205.521 381.541 205.521Z" fill="#FEDD8E"/>
</g>
</g>
</svg>
