<svg xmlns="http://www.w3.org/2000/svg" xmlns:xlink="http://www.w3.org/1999/xlink" viewBox="0 0 24 24">
    <defs>
        <style>
            .b {
            fill: #020a1a;
            }

            .c {
            fill: #abe1ff;
            }
        </style>
    </defs>
    <title>german</title>
    <path class="b" d="M21,4H3A1,1,0,0,0,2,5V20.79a.5.5,0,0,0,.85.35L7,17H21a1,1,0,0,0,1-1V5A1,1,0,0,0,21,4Z" />
    <path class="c" d="M8.75,7H6.32a.5.5,0,0,0-.5.5v6a.5.5,0,0,0,.5.5H8.76a3.44,3.44,0,0,0,3.77-3.5C12.53,8.32,10.95,7,8.75,7Zm0,5.41H8.11c-.35,0-.46-.09-.49-.38v-3h0c-.06-.63.34-.44,1.13-.5a1.79,1.79,0,0,1,1.93,1.92A1.85,1.85,0,0,1,8.75,12.42Z" />
    <path class="c" d="M15.62,8.6l2.57,0a.5.5,0,0,0,.5-.5V7.51a.5.5,0,0,0-.5-.5H14.07a.5.5,0,0,0-.5.5v6a.5.5,0,0,0,.5.5h4.12a.5.5,0,0,0,.5-.5v-.57a.5.5,0,0,0-.5-.5H15.62c-.76,0-.75-1.43,0-1.43h1.49c.28,0,1,0,1-.25a1.74,1.74,0,0,0,0-.57c0-.3-.72-.2-1-.2H15.62C14.93,10,14.93,8.6,15.62,8.6Z"
    />
</svg>
