<svg xmlns="http://www.w3.org/2000/svg" xmlns:xlink="http://www.w3.org/1999/xlink" preserveAspectRatio="xMidYMid" width="64" height="64" viewBox="0 0 64 64">
<path fill="white" d="M28.090,49.565 L27.260,47.183 C31.152,45.595 33.384,43.478 33.384,40.567 C33.384,37.762 31.256,35.910 28.350,35.221 C27.986,35.221 27.415,34.533 27.415,33.157 C27.415,31.146 29.336,29.823 31.308,29.823 L31.412,29.823 C34.266,29.823 38.730,32.999 38.730,38.450 C38.730,44.695 33.125,48.136 28.090,49.565 ZM31.854,23.500 C29.680,23.500 27.917,21.709 27.917,19.500 C27.917,17.291 29.680,15.500 31.854,15.500 C34.029,15.500 35.792,17.291 35.792,19.500 C35.792,21.709 34.029,23.500 31.854,23.500 Z" class="cls-2"/>
</svg>
