<svg xmlns="http://www.w3.org/2000/svg" xmlns:xlink="http://www.w3.org/1999/xlink" viewBox="0 0 24 24">
    <defs>
        <style>
            .a {
            fill: none;
            }

            .b {
            fill: #57b2f8;
            }

            .c {
            fill: #ff796b;
            }

            .d {
            fill: #fec83c;
            }

            .e {
            fill: #020a1a;
            }
        </style>
    </defs>
    <title>grammar</title>
    <rect class="b" x="2.05" y="2.02" width="7" height="3" rx="0.5" ry="0.5" />
    <rect class="b" x="4.04" y="2.02" width="3.01" height="20" rx="0.5" ry="0.5" />
    <rect class="c" x="15.05" y="2.02" width="7" height="3" rx="0.5" ry="0.5" />
    <rect class="c" x="17.04" y="2.02" width="3.01" height="20" rx="1" ry="1" />
    <path class="d" d="M9.66,2H7.76a.5.5,0,0,0-.47.67l6.65,19a.5.5,0,0,0,.47.33h1.91a.5.5,0,0,0,.47-.67l-6.65-19A.5.5,0,0,0,9.66,2Z" />
    <path class="d" d="M14.41,2h1.91a.5.5,0,0,1,.47.67l-6.65,19a.5.5,0,0,1-.47.33H7.76a.5.5,0,0,1-.47-.67l6.65-19A.5.5,0,0,1,14.41,2Z" />
    <path class="e" d="M16.89,15.39,13.57,2.46A.55.55,0,0,0,13,2a.56.56,0,0,0-.56.56L12,11.1l-.42-8.53A.56.56,0,0,0,11.07,2a.55.55,0,0,0-.54.44L7.21,15.39a1,1,0,0,0,.27,1c1.14,1,2,3,2.57,5.68h4c.58-2.67,1.43-4.66,2.57-5.68A1,1,0,0,0,16.89,15.39ZM12.05,14a1,1,0,1,1,1-1A1,1,0,0,1,12.05,14Z"
    />
</svg>
