<svg data-fixedcolors="true" viewBox="0 0 512 512" fill="none" xmlns="http://www.w3.org/2000/svg">
<path fill-rule="evenodd" clip-rule="evenodd" d="M256 120.369C208.854 60.0117 144.64 47.6853 92.1603 85.5146C61.867 108.467 42.667 136.945 42.667 194.327C42.667 314.139 220.196 444.209 251.359 466.119C254.201 468.117 257.8 468.117 260.642 466.119C291.805 444.209 469.334 314.139 469.334 194.327C469.334 136.945 449.707 109.317 419.414 85.5146C366.294 47.6853 302.08 60.0117 256 120.369Z" fill="#FF341A"/>
<path fill-rule="evenodd" clip-rule="evenodd" d="M357.547 246.448C357.547 241.735 353.726 237.914 349.013 237.914H294.4C289.687 237.914 285.867 234.094 285.867 229.381V174.768C285.867 170.055 282.046 166.234 277.333 166.234H234.453C229.741 166.234 225.92 170.055 225.92 174.768V229.381C225.92 234.094 222.1 237.914 217.387 237.914H162.987C158.274 237.914 154.453 241.735 154.453 246.448V289.114C154.453 293.827 158.274 297.648 162.987 297.648H217.387C222.1 297.648 225.92 301.468 225.92 306.181V360.794C225.92 365.507 229.741 369.328 234.453 369.328H277.333C282.046 369.328 285.867 365.507 285.867 360.794V306.181C285.867 301.468 289.687 297.648 294.4 297.648H349.013C353.726 297.648 357.547 293.827 357.547 289.114V246.448Z" fill="#FEDD8E"/>
</svg>
