<svg viewBox="0 0 512 512" fill="none" xmlns="http://www.w3.org/2000/svg">
<g id="health">
<g id="Vector">
<path fill-rule="evenodd" clip-rule="evenodd" d="M256 99.0355C208.853 38.6787 144.64 26.3523 92.16 64.1816C61.8666 87.1342 42.6666 115.612 42.6666 172.994C42.6666 292.806 220.195 422.876 251.358 444.786C254.2 446.784 257.8 446.784 260.642 444.786C291.805 422.876 469.333 292.806 469.333 172.994C469.333 115.612 449.707 87.9843 419.413 64.1816C366.293 26.3523 302.08 38.6787 256 99.0355Z" fill="#FF341A"/>
<path fill-rule="evenodd" clip-rule="evenodd" d="M357.546 225.115C357.546 220.402 353.726 216.581 349.013 216.581H294.4C289.687 216.581 285.866 212.761 285.866 208.048V153.435C285.866 148.722 282.046 144.901 277.333 144.901H234.453C229.74 144.901 225.92 148.722 225.92 153.435V208.048C225.92 212.761 222.099 216.581 217.386 216.581H162.986C158.274 216.581 154.453 220.402 154.453 225.115V267.781C154.453 272.494 158.274 276.315 162.986 276.315H217.386C222.099 276.315 225.92 280.135 225.92 284.848V339.461C225.92 344.174 229.74 347.995 234.453 347.995H277.333C282.046 347.995 285.866 344.174 285.866 339.461V284.848C285.866 280.135 289.687 276.315 294.4 276.315H349.013C353.726 276.315 357.546 272.494 357.546 267.781V225.115Z" fill="#FEDD8E"/>
</g>
</g>
</svg>
