<svg xmlns="http://www.w3.org/2000/svg" xmlns:xlink="http://www.w3.org/1999/xlink" viewBox="0 0 24 24">
    <defs>
        <style>
            .b {
            fill: #020a1a;
            }

            .c {
            fill: #ff796b;
            }

            .d {
            fill: #fec83c;
            }
        </style>
    </defs>
    <title>history</title>
    <rect class="b" x="1.97" y="2" width="20" height="4" rx="2" ry="2" />
    <rect class="c" x="5.02" y="7" width="13.92" height="4" rx="0.5" ry="0.5" />
    <path class="d" d="M9,15a1,1,0,1,0-2,0v7H9Z" />
    <path class="d" d="M13,15a1,1,0,0,0-2,0v7h2Z" />
    <path class="d" d="M17,15a1,1,0,1,0-2,0v7h2Z" />
    <path class="b" d="M5,12.5V22H7V15a1,1,0,0,1,2,0v7h2V15a1,1,0,0,1,1-1h0a1,1,0,0,1,1,1v7h2V15a1,1,0,0,1,2,0v7h2V12.5a.5.5,0,0,0-.5-.5h-13A.5.5,0,0,0,5,12.5Z" />
</svg>
