<svg xmlns="http://www.w3.org/2000/svg" xmlns:xlink="http://www.w3.org/1999/xlink" viewBox="0 0 24 24">
    <defs>
        <style>
            .b {
                fill: #ff796b;
            }

            .c {
                fill: #fec83c;
            }

            .d {
                fill: #020a1a;
            }
        </style>
    </defs>
    <title>history</title>
    <rect class="b" x="5.02" y="4.97" width="13.92" height="2.01" rx="0.5" ry="0.5" />
    <path class="c" d="M9,10.92a1,1,0,1,0-2,0V22H9Z" />
    <path class="c" d="M13,10.92a1,1,0,0,0-2,0V22h2Z" />
    <path class="c" d="M17,10.92a1,1,0,0,0-2,0V22h2Z" />
    <path class="d" d="M5,8.42V22H7V10.92a1,1,0,0,1,2,0V22h2V10.92a1,1,0,0,1,1-1h0a1,1,0,0,1,1,1V22h2V10.92a1,1,0,0,1,2,0V22h2V8.42a.5.5,0,0,0-.5-.5h-13A.5.5,0,0,0,5,8.42Z" />
    <rect class="d" x="3" y="1.98" width="18" height="2" rx="1" ry="1" />
</svg>
