<svg xmlns="http://www.w3.org/2000/svg" xmlns:xlink="http://www.w3.org/1999/xlink" preserveAspectRatio="xMidYMid" width="64" height="64" viewBox="0 0 64 64">
<path fill="white" d="M41.555,29.000 C38.967,29.000 36.772,27.329 35.955,25.000 L28.045,25.000 C27.228,27.329 25.033,29.000 22.445,29.000 C19.162,29.000 16.500,26.314 16.500,23.000 C16.500,19.686 19.162,17.000 22.445,17.000 C22.634,17.000 22.819,17.011 23.003,17.028 C23.153,17.011 23.305,17.000 23.461,17.000 L39.437,17.000 C39.763,17.000 40.077,17.044 40.379,17.118 C40.759,17.041 41.152,17.000 41.555,17.000 C44.838,17.000 47.500,19.686 47.500,23.000 C47.500,26.314 44.838,29.000 41.555,29.000 ZM22.500,19.000 C20.291,19.000 18.500,20.791 18.500,23.000 C18.500,25.209 20.291,27.000 22.500,27.000 C24.709,27.000 26.500,25.209 26.500,23.000 C26.500,20.791 24.709,19.000 22.500,19.000 ZM41.500,19.000 C39.291,19.000 37.500,20.791 37.500,23.000 C37.500,25.209 39.291,27.000 41.500,27.000 C43.709,27.000 45.500,25.209 45.500,23.000 C45.500,20.791 43.709,19.000 41.500,19.000 ZM41.500,25.500 C40.119,25.500 39.000,24.381 39.000,23.000 C39.000,21.619 40.119,20.500 41.500,20.500 C42.881,20.500 44.000,21.619 44.000,23.000 C44.000,24.381 42.881,25.500 41.500,25.500 ZM22.500,25.500 C21.119,25.500 20.000,24.381 20.000,23.000 C20.000,21.619 21.119,20.500 22.500,20.500 C23.881,20.500 25.000,21.619 25.000,23.000 C25.000,24.381 23.881,25.500 22.500,25.500 ZM22.000,43.000 L22.500,43.000 L22.500,30.475 C25.446,30.292 27.956,28.520 29.185,26.000 L34.815,26.000 C36.044,28.520 38.554,30.292 41.500,30.475 L41.500,43.000 L42.000,43.000 C43.105,43.000 44.000,43.895 44.000,45.000 C44.000,46.105 43.105,47.000 42.000,47.000 L22.000,47.000 C20.895,47.000 20.000,46.105 20.000,45.000 C20.000,43.895 20.895,43.000 22.000,43.000 ZM36.000,40.000 C36.000,40.552 36.448,41.000 37.000,41.000 C37.552,41.000 38.000,40.552 38.000,40.000 L38.000,34.000 C38.000,33.448 37.552,33.000 37.000,33.000 C36.448,33.000 36.000,33.448 36.000,34.000 L36.000,40.000 ZM31.000,40.000 C31.000,40.552 31.448,41.000 32.000,41.000 C32.552,41.000 33.000,40.552 33.000,40.000 L33.000,32.000 C33.000,31.448 32.552,31.000 32.000,31.000 C31.448,31.000 31.000,31.448 31.000,32.000 L31.000,40.000 ZM26.000,40.000 C26.000,40.552 26.448,41.000 27.000,41.000 C27.552,41.000 28.000,40.552 28.000,40.000 L28.000,34.000 C28.000,33.448 27.552,33.000 27.000,33.000 C26.448,33.000 26.000,33.448 26.000,34.000 L26.000,40.000 Z" class="cls-2"/>
</svg>
