<svg data-fixedcolors="true" viewBox="0 0 512 512" fill="none" xmlns="http://www.w3.org/2000/svg">
<g id="history">
<g id="Vector">
<path d="M448 426.738C448 432.377 445.772 437.785 441.807 441.773C437.841 445.76 432.463 448 426.855 448H85.1458C79.5378 448 74.1594 445.76 70.1938 441.773C66.2283 437.785 64.0005 432.377 64.0005 426.738C63.9749 423.014 64.9229 419.348 66.7494 416.108L72.8816 405.477L97.1987 362.953L109.463 341.692L129.128 307.248L146.044 277.907L182.626 214.122L207.155 171.598L219.207 150.337L237.604 118.444C239.358 114.906 242.058 111.93 245.401 109.849C248.744 107.769 252.597 106.667 256.529 106.667C260.46 106.667 264.314 107.769 267.657 109.849C271 111.93 273.7 114.906 275.454 118.444L292.793 150.337L304.846 171.598L329.375 214.122L365.956 277.907L382.872 307.248L402.326 341.692L414.59 362.953L438.907 405.477L445.04 416.108C446.94 419.327 447.961 422.995 448 426.738Z" fill="#FBBE2E"/>
<path d="M317.745 362.953C328.961 362.953 339.718 367.434 347.649 375.408C355.58 383.383 360.035 394.199 360.035 405.477V448H275.454V405.477C275.454 394.199 279.91 383.383 287.841 375.408C295.772 367.434 306.528 362.953 317.745 362.953Z" fill="#163BF3"/>
<path d="M247.331 109.727L194.256 448H85.1458C79.5378 448 74.1594 445.76 70.1938 441.773C66.2283 437.785 64.0005 432.377 64.0005 426.738C63.9749 423.014 64.9229 419.348 66.7494 416.108L72.8816 405.477L97.1987 362.953L109.463 341.692L129.128 307.248L146.044 277.907L182.626 214.122L207.155 171.598L219.207 150.337L237.604 118.444C239.68 114.443 243.139 111.342 247.331 109.727Z" fill="#C98600"/>
</g>
</g>
</svg>
