<svg xmlns="http://www.w3.org/2000/svg" xmlns:xlink="http://www.w3.org/1999/xlink" viewBox="0 0 24 24">
    <defs>
        <style>
            .b {
            fill: #020a1a;
            }

            .c {
            fill: #abe1ff;
            }
        </style>
    </defs>
    <title>india-lang</title>
    <path class="b" d="M21,4H3A1,1,0,0,0,2,5V20.79a.5.5,0,0,0,.85.35L7,17H21a1,1,0,0,0,1-1V5A1,1,0,0,0,21,4Z" />
    <path class="c" d="M8.09,7h.8a.5.5,0,0,1,.5.5v6a.5.5,0,0,1-.5.5h-.8a.5.5,0,0,1-.5-.5v-6A.5.5,0,0,1,8.09,7Z" />
    <path class="c" d="M12.43,10.71v2.77a.5.5,0,0,1-.5.5h-.8a.5.5,0,0,1-.5-.5v-6a.5.5,0,0,1,.5-.5h1.1a.5.5,0,0,1,.4.2l2.22,3a.25.25,0,0,0,.45-.15V7.51a.5.5,0,0,1,.5-.5h.81a.5.5,0,0,1,.5.5v6a.5.5,0,0,1-.5.5h-1a.5.5,0,0,1-.4-.21l-2.35-3.22A.25.25,0,0,0,12.43,10.71Z"
    />
</svg>
