<svg viewBox="0 0 512 512" fill="none" xmlns="http://www.w3.org/2000/svg">
<g id="india-lang">
<g id="Vector">
<path d="M469.315 239.336C469.523 225.003 467.947 210.7 464.624 196.756C457.512 170.33 445.092 145.625 428.121 124.141C411.149 102.657 389.979 84.8431 365.898 71.7818C337.096 55.6815 305.146 45.9943 272.241 43.385C239.336 40.7758 206.255 45.3063 175.269 56.6657C132.661 73.4477 96.4616 103.257 71.8512 141.827C59.1739 160.277 50.2617 181.04 45.6237 202.93C41.6809 224.968 41.6809 247.53 45.6237 269.568C53.7347 314.131 76.9179 354.563 111.299 384.11C116.494 388.648 121.978 392.843 127.718 396.671C131.578 398.761 134.871 401.757 137.313 405.4C139.336 410.898 139.336 416.934 137.313 422.432C134.131 436.009 129.705 449.264 124.093 462.032C124.093 464.161 122.174 466.716 124.093 468.419C125.298 469.176 126.735 469.478 128.144 469.271C153.059 469.654 177.227 460.776 195.952 444.361C198.536 441.814 201.481 439.662 204.695 437.974C209.528 436.8 214.574 436.8 219.407 437.974C252.715 442.241 286.552 439.316 318.631 429.399C350.709 419.482 380.28 402.803 405.346 380.49C424.964 362.464 440.741 340.673 451.732 316.42C462.723 292.167 468.704 265.95 469.315 239.336Z" fill="#0C114D"/>
<path fill-rule="evenodd" clip-rule="evenodd" d="M259.315 309.542V250.701C259.629 248.699 261.015 247.056 262.888 246.469C264.76 245.882 266.791 246.453 268.122 247.94L316.254 316.34C318.144 319.095 321.187 320.751 324.446 320.801H344.928C350.584 320.801 355.169 316.046 355.169 310.18V182.726C355.169 176.86 350.584 172.105 344.928 172.105H328.338C322.682 172.105 318.097 176.86 318.097 182.726V236.256C318.097 238.542 316.687 240.572 314.596 241.295C312.505 242.017 310.203 241.271 308.88 239.443L263.412 175.716C261.478 173.041 258.442 171.467 255.219 171.467H232.689C227.033 171.467 222.449 176.223 222.449 182.089V309.542C222.449 315.408 227.033 320.164 232.689 320.164H249.074C254.73 320.164 259.315 315.408 259.315 309.542ZM186.811 171.893H170.426C164.77 171.893 160.185 176.648 160.185 182.514V309.967C160.185 315.833 164.77 320.589 170.426 320.589H186.811C192.467 320.589 197.052 315.833 197.052 309.967V182.514C197.052 176.648 192.467 171.893 186.811 171.893Z" fill="#FEDD8E"/>
</g>
</g>
</svg>
