<svg viewBox="0 0 512 512" fill="none" xmlns="http://www.w3.org/2000/svg">
<g id="indonesian-lang">
<g id="Vector">
<path d="M469.315 239.336C469.523 225.003 467.947 210.7 464.624 196.756C457.512 170.33 445.092 145.625 428.121 124.141C411.149 102.657 389.979 84.8431 365.898 71.7818C337.096 55.6815 305.146 45.9943 272.241 43.385C239.336 40.7758 206.255 45.3063 175.269 56.6657C132.661 73.4477 96.4616 103.257 71.8512 141.827C59.1739 160.277 50.2617 181.04 45.6237 202.93C41.6809 224.968 41.6809 247.53 45.6237 269.568C53.7347 314.131 76.9179 354.563 111.299 384.11C116.494 388.648 121.978 392.843 127.718 396.671C131.578 398.761 134.871 401.757 137.313 405.4C139.336 410.898 139.336 416.934 137.313 422.432C134.131 436.009 129.705 449.264 124.093 462.032C124.093 464.161 122.174 466.716 124.093 468.419C125.298 469.176 126.735 469.478 128.144 469.271C153.059 469.654 177.227 460.776 195.952 444.361C198.536 441.814 201.481 439.662 204.695 437.974C209.528 436.8 214.574 436.8 219.407 437.974C252.715 442.241 286.552 439.316 318.631 429.399C350.709 419.482 380.28 402.803 405.346 380.49C424.964 362.464 440.741 340.673 451.732 316.42C462.723 292.167 468.704 265.95 469.315 239.336Z" fill="#0C114D"/>
<path d="M190.893 170.668H174.508C168.852 170.668 164.267 175.423 164.267 181.289V308.743C164.267 314.609 168.852 319.364 174.508 319.364H190.893C196.549 319.364 201.134 314.609 201.134 308.743V181.289C201.134 175.423 196.549 170.668 190.893 170.668Z" fill="#FEDD8E"/>
<path fill-rule="evenodd" clip-rule="evenodd" d="M288.278 170.668H238.508C232.852 170.668 228.267 175.433 228.267 181.31V309.019C228.267 314.897 232.852 319.662 238.508 319.662H288.482C308.525 321.674 328.438 314.679 343.195 300.441C357.952 286.204 366.142 266.085 365.698 245.165C365.698 198.764 333.337 170.668 288.278 170.668ZM288.276 285.819H275.168C268 285.819 265.747 283.903 265.132 277.731V213.876C264.189 203.586 268.794 203.574 278.299 203.548C281.18 203.54 284.512 203.531 288.276 203.234C298.967 202.33 309.502 206.336 317.106 214.198C324.71 222.059 328.62 232.986 327.806 244.101C328.516 255.282 324.609 266.248 317.063 274.252C309.518 282.256 299.048 286.541 288.276 286.032V285.819Z" fill="#FEDD8E"/>
</g>
</g>
</svg>
