<svg xmlns="http://www.w3.org/2000/svg" xmlns:xlink="http://www.w3.org/1999/xlink" viewBox="0 0 24 24">
    <defs>
        <style>
            .b {
            fill: #020a1a;
            }

            .c {
            fill: #abe1ff;
            }
        </style>
    </defs>
    <title>indonesian-lang</title>
    <path class="b" d="M21,4H3A1,1,0,0,0,2,5V20.8a.5.5,0,0,0,.85.35L7,17H21a1,1,0,0,0,1-1V5A1,1,0,0,0,21,4Z" />
    <path class="c" d="M8.41,7h.8a.5.5,0,0,1,.5.5v6a.5.5,0,0,1-.5.5h-.8a.5.5,0,0,1-.5-.5v-6A.5.5,0,0,1,8.41,7Z" />
    <path class="c" d="M13.89,7H11.45a.5.5,0,0,0-.5.5v6a.5.5,0,0,0,.5.5H13.9a3.44,3.44,0,0,0,3.77-3.5C17.66,8.35,16.08,7,13.89,7Zm0,5.41h-.65c-.35,0-.46-.09-.49-.38v-3h0c-.06-.63.34-.44,1.13-.5a1.79,1.79,0,0,1,1.93,1.92A1.85,1.85,0,0,1,13.89,12.45Z" />
</svg>
