<svg data-fixedcolors="true" viewBox="0 0 512 512" fill="none" xmlns="http://www.w3.org/2000/svg">
<g id="informatics">
<g id="Vector">
<path d="M60.335 366.383C61.8152 361.969 64.6959 358.163 68.5372 355.544C72.3785 352.926 76.9692 351.64 81.6081 351.882H430.275C434.888 351.626 439.458 352.881 443.296 355.458C447.134 358.036 450.031 361.796 451.548 366.17L468.779 423.747C469.529 426.837 469.518 430.063 468.747 433.148C467.976 436.233 466.468 439.084 464.354 441.455C462.24 443.827 459.582 445.647 456.61 446.76C453.638 447.873 450.441 448.244 447.293 447.843H64.3769C61.2797 448.147 58.1546 447.714 55.2557 446.58C52.3567 445.445 49.7657 443.641 47.693 441.314C45.6203 438.987 44.1245 436.203 43.3271 433.187C42.5297 430.172 42.4532 427.01 43.1038 423.96L60.335 366.383Z" fill="#0C114D"/>
<path d="M426.02 64H85.65C73.9012 64 64.3769 73.5474 64.3769 85.3246V298.571C64.3769 310.348 73.9012 319.896 85.65 319.896H426.02C437.769 319.896 447.293 310.348 447.293 298.571V85.3246C447.293 73.5474 437.769 64 426.02 64Z" fill="#6D83F3"/>
<path d="M404.747 106.649H106.923V277.246H404.747V106.649Z" fill="#B9E2FE"/>
</g>
</g>
</svg>
