<svg data-fixedcolors="true" viewBox="0 0 512 512" fill="none" xmlns="http://www.w3.org/2000/svg">
<g id="italian">
<g id="Vector">
<path d="M469.315 239.334C469.523 225.001 467.947 210.698 464.624 196.754C457.512 170.328 445.092 145.623 428.121 124.139C411.149 102.655 389.979 84.8412 365.898 71.7798C337.096 55.6795 305.146 45.9923 272.241 43.3831C239.336 40.7739 206.255 45.3044 175.269 56.6638C132.661 73.4458 96.4616 103.255 71.8512 141.825C59.1739 160.275 50.2617 181.038 45.6237 202.928C41.6809 224.966 41.6809 247.528 45.6237 269.566C53.7347 314.129 76.9179 354.562 111.299 384.108C116.494 388.646 121.978 392.842 127.718 396.669C131.578 398.759 134.871 401.755 137.313 405.398C139.336 410.896 139.336 416.932 137.313 422.43C134.131 436.007 129.705 449.262 124.093 462.03C124.093 464.159 122.174 466.714 124.093 468.417C125.298 469.174 126.735 469.476 128.144 469.269C153.059 469.652 177.227 460.774 195.952 444.359C198.536 441.812 201.481 439.66 204.695 437.972C209.528 436.798 214.574 436.798 219.407 437.972C252.715 442.239 286.552 439.314 318.631 429.397C350.709 419.48 380.28 402.801 405.346 380.488C424.964 362.462 440.741 340.671 451.732 316.418C462.723 292.165 468.704 265.948 469.315 239.334Z" fill="#0C114D"/>
<path fill-rule="evenodd" clip-rule="evenodd" d="M208.168 171.465H191.768C186.107 171.465 181.518 176.241 181.518 182.132V310.132C181.518 316.023 186.107 320.799 191.768 320.799H208.168C213.829 320.799 218.418 316.023 218.418 310.132V182.132C218.418 176.241 213.829 171.465 208.168 171.465ZM246.503 204.959H265.773C268.526 204.902 271.186 206 273.153 208.007C275.12 210.013 276.228 212.759 276.228 215.625V309.706C276.228 315.597 280.817 320.372 286.478 320.372H302.878C308.538 320.372 313.128 315.597 313.128 309.706V215.625C313.128 209.734 317.717 204.959 323.378 204.959H342.853C348.513 204.959 353.103 200.183 353.103 194.292V182.132C353.103 176.241 348.513 171.465 342.853 171.465H246.503C240.842 171.465 236.253 176.241 236.253 182.132V194.292C236.253 200.183 240.842 204.959 246.503 204.959Z" fill="#FEDD8E"/>
</g>
</g>
</svg>
