<svg xmlns="http://www.w3.org/2000/svg" xmlns:xlink="http://www.w3.org/1999/xlink" preserveAspectRatio="xMidYMid" width="64" height="64" viewBox="0 0 64 64">
<path fill="white" d="M45.928,43.938 C42.182,46.964 37.236,48.630 32.002,48.630 C31.500,48.630 30.973,48.611 30.391,48.573 L30.391,48.571 C30.202,48.558 29.923,48.533 29.659,48.508 C28.301,49.600 26.873,50.758 25.220,52.108 C24.813,52.441 24.336,52.646 23.798,52.718 C23.655,52.741 23.511,52.752 23.367,52.752 C22.727,52.752 22.101,52.529 21.600,52.113 C20.969,51.587 20.604,50.807 20.604,49.985 L20.604,49.843 L20.604,49.571 L20.604,48.344 C20.603,47.452 20.603,46.561 20.604,45.669 C15.788,42.885 12.643,38.434 12.090,33.526 C12.082,33.474 12.074,33.422 12.068,33.370 C12.049,33.213 12.043,33.082 12.040,32.998 C12.010,32.606 11.996,32.267 11.996,31.936 C11.996,27.363 14.155,23.101 18.075,19.935 C21.821,16.909 26.767,15.243 32.002,15.243 C37.236,15.243 42.182,16.909 45.928,19.935 C49.848,23.101 52.007,27.363 52.007,31.936 C52.007,36.510 49.848,40.772 45.928,43.938 ZM32.002,18.010 C22.479,18.010 14.759,24.245 14.759,31.936 C14.759,32.239 14.775,32.539 14.799,32.837 C14.802,32.903 14.803,32.969 14.811,33.036 C14.817,33.083 14.824,33.129 14.831,33.176 C15.326,37.713 18.512,41.626 23.096,43.863 C23.101,43.866 23.106,43.869 23.111,43.871 C23.327,43.981 23.370,43.993 23.369,44.199 C23.364,45.990 23.367,47.780 23.367,49.570 C23.367,49.706 23.367,49.842 23.367,49.985 C23.430,49.973 23.458,49.977 23.474,49.964 C25.173,48.576 26.824,47.235 28.536,45.863 C28.676,45.751 28.935,45.679 29.143,45.679 C29.174,45.679 29.204,45.681 29.232,45.684 C29.257,45.687 30.557,45.812 30.573,45.812 L30.573,45.812 C31.045,45.843 31.520,45.863 32.002,45.863 C41.524,45.863 49.244,39.628 49.244,31.936 C49.244,24.245 41.524,18.010 32.002,18.010 ZM36.030,37.876 L33.049,37.876 L33.049,28.914 L29.807,28.914 L29.807,26.314 L39.254,26.314 L39.254,28.914 L36.030,28.914 L36.030,37.876 ZM25.405,26.314 L28.386,26.314 L28.386,37.876 L25.405,37.876 L25.405,26.314 Z" class="cls-2"/>
</svg>
