<svg data-fixedcolors="true" viewBox="0 0 512 512" fill="none" xmlns="http://www.w3.org/2000/svg">
<g id="japanese">
<g id="Vector">
<path d="M469.315 239.336C469.523 225.003 467.947 210.7 464.624 196.756C457.512 170.33 445.092 145.625 428.121 124.141C411.149 102.657 389.979 84.8431 365.898 71.7818C337.096 55.6815 305.146 45.9943 272.241 43.385C239.336 40.7758 206.255 45.3063 175.269 56.6657C132.661 73.4477 96.4616 103.257 71.8512 141.827C59.1739 160.277 50.2617 181.04 45.6237 202.93C41.6809 224.968 41.6809 247.53 45.6237 269.568C53.7347 314.131 76.9179 354.563 111.299 384.11C116.494 388.648 121.978 392.843 127.718 396.671C131.578 398.761 134.871 401.757 137.313 405.4C139.336 410.898 139.336 416.934 137.313 422.432C134.131 436.009 129.705 449.264 124.093 462.032C124.093 464.161 122.174 466.716 124.093 468.419C125.298 469.176 126.735 469.478 128.144 469.271C153.059 469.654 177.227 460.776 195.952 444.361C198.536 441.814 201.481 439.662 204.695 437.974C209.528 436.8 214.574 436.8 219.407 437.974C252.715 442.241 286.552 439.316 318.631 429.399C350.709 419.482 380.28 402.803 405.346 380.49C424.964 362.464 440.741 340.673 451.732 316.42C462.723 292.167 468.704 265.95 469.315 239.336Z" fill="#0C114D"/>
<path fill-rule="evenodd" clip-rule="evenodd" d="M372.373 303.835L326.084 177.972C324.485 173.984 320.667 171.404 316.458 171.469H284.302C280.043 171.438 276.209 174.111 274.676 178.181L228.593 304.045C227.372 307.283 227.795 310.929 229.722 313.785C231.649 316.64 234.83 318.334 238.219 318.309H257.676C262.621 317.803 266.803 314.344 268.327 309.499L272.423 297.332H328.133C328.133 297.332 330.181 304.045 332.024 309.079C333.738 314.237 338.207 317.915 343.494 318.519H362.132C365.735 318.834 369.234 317.179 371.336 314.165C373.438 311.151 373.832 307.224 372.373 303.835ZM139.293 284.325C141.406 283.072 144.847 284.107 148.863 285.315C152.243 286.332 156.03 287.471 159.775 287.471C165.188 287.841 170.476 285.693 174.171 281.624C177.866 277.554 179.574 271.997 178.823 266.494V182.165C178.823 176.373 183.407 171.677 189.063 171.677H205.244C210.899 171.677 215.484 176.373 215.484 182.165V267.753C216.814 282.072 211.864 296.257 201.972 306.468C192.081 316.68 178.272 321.863 164.281 320.615C153.621 320.883 143.064 318.432 133.558 313.483C128.544 310.629 126.715 304.167 129.462 299.009C131.782 293.509 135.121 288.523 139.293 284.325ZM296.592 263.978H304.375C307.732 264.091 310.93 262.51 312.933 259.747C314.935 256.985 315.488 253.392 314.411 250.133C314.411 250.133 305.604 208.178 300.688 208.178C295.773 208.178 286.966 250.133 286.966 250.133C285.914 253.321 286.42 256.832 288.326 259.574C290.232 262.315 293.306 263.953 296.592 263.978Z" fill="#FEDD8E"/>
</g>
</g>
</svg>
