<svg xmlns="http://www.w3.org/2000/svg" xmlns:xlink="http://www.w3.org/1999/xlink" viewBox="0 0 24 24">
  <defs>
    <style>
      .b {
      fill: #020a1a;
      }

      .c {
      fill: #abe1ff;
      }
    </style>
  </defs>
  <title>kazach</title>
  <path class="b" d="M21,4H3A1,1,0,0,0,2,5V20.8a.5.5,0,0,0,.85.35L7,17H21a1,1,0,0,0,1-1V5A1,1,0,0,0,21,4Z" />
  <path class="c" d="M18.74,13.53l-2.26-2.94a.5.5,0,0,1,0-.62l2.14-2.58c.11-.23.06-.38-.15-.38H17a.5.5,0,0,0-.4.2L14.75,9.66c-.09.06-.15,0-.17-.07V7.51a.5.5,0,0,0-.5-.5h-.8a.5.5,0,0,0-.5.5v6a.5.5,0,0,0,.5.5h.8a.5.5,0,0,0,.5-.5V12.13a.55.55,0,0,1,.1-.3l.29-.36c.06-.05.11,0,.17,0h0l1.59,2.28a.5.5,0,0,0,.41.21h1.55C19,14,18.91,13.62,18.74,13.53Z"
  />
  <path class="c" d="M11.74,13.53,9.48,10.59a.5.5,0,0,1,0-.62l2.14-2.58c.11-.23.06-.38-.15-.38H10a.5.5,0,0,0-.4.2L7.75,9.65c-.09.06-.15,0-.17-.07V7.51a.5.5,0,0,0-.5-.5h-.8a.5.5,0,0,0-.5.5v6a.5.5,0,0,0,.5.5h.8a.5.5,0,0,0,.5-.5V12.13a.55.55,0,0,1,.1-.3L8,11.46c.06-.05.11,0,.17,0h0l1.59,2.28a.5.5,0,0,0,.41.21h1.55C12,14,11.91,13.62,11.74,13.53Z"
  />
</svg>
