<svg xmlns="http://www.w3.org/2000/svg" xmlns:xlink="http://www.w3.org/1999/xlink" viewBox="0 0 24 24">
  <defs>
    <style>
      .a {
        fill: none;
      }

      .b {
        fill: #53cf92;
      }

      .c {
        fill: #020a1a;
      }
    </style>
  </defs>
  <title>ҚАЗ</title>
  <path class="b" d="M6.61,3H21.1a.9.9,0,0,1,.9.9V16.19a1.8,1.8,0,0,1-1.8,1.8H7.51a1.8,1.8,0,0,1-1.8-1.8V3.9a.9.9,0,0,1,.9-.9Z" />
  <circle class="a" cx="5.71" cy="15.15" r="0.76" />
  <path class="c" d="M9.38,17,6.86,7.13a.42.42,0,0,0-.41-.33A.43.43,0,0,0,6,7.22L5.71,13.7,5.39,7.22A.43.43,0,0,0,5,6.8a.42.42,0,0,0-.41.33L2,17a.73.73,0,0,0,.2.73,8.24,8.24,0,0,1,2,4.31h3a8.24,8.24,0,0,1,2-4.31A.73.73,0,0,0,9.38,17Zm-3.67-.8a1,1,0,1,1,1-1A1,1,0,0,1,5.71,16.15Z"
  />
  <path class="c" d="M12.5,7.35h-.86l-.87-1.12a.5.5,0,0,1,0-.63L12.2,3.9a.11.11,0,0,0-.08-.18h-1a.5.5,0,0,0-.4.2L9.54,5.49c-.06,0-.11,0-.12,0V3.91c0-.12-.07-.18-.15-.18H8.42a.21.21,0,0,0-.2.25V8.25c0,.12.07.13.13.15h.9c.09,0,.16-.06.18-.19v-1a.46.46,0,0,1,0-.24l.18-.23a.14.14,0,0,1,.18,0l1.07,1.53a.27.27,0,0,0,.19.1h.34v.7c0,.17.11.17.16.17h.9a.13.13,0,0,0,.14-.14V7.51A.24.24,0,0,0,12.5,7.35Z"
  />
  <path class="c" d="M15.88,4.05a.5.5,0,0,0-.47-.32h-.82a.5.5,0,0,0-.47.32L12.49,8.4h1.15a.26.26,0,0,0,.27-.15L14,7.88a.16.16,0,0,1,.15-.15H15.8a.28.28,0,0,1,.18.14l.13.37a.28.28,0,0,0,.26.16h1a.14.14,0,0,0,.11-.15Zm-.44,2.63h-.85c-.09,0-.13-.09-.12-.21l.46-1.37c0-.08.08-.08.13,0l.48,1.42C15.57,6.62,15.51,6.65,15.45,6.68Z"
  />
  <path class="c" d="M20.09,6a1.14,1.14,0,0,0,1-1.05c0-.77-.74-1.28-1.93-1.28a2.64,2.64,0,0,0-1.83.66c-.07.05-.07.14,0,.28l.31.41a.2.2,0,0,0,.28.06,2,2,0,0,1,1.08-.34c.48,0,.85.13.85.43s-.33.36-.83.36h-.82c-.07,0-.12.14-.13.31v.48c0,.21.06.26.14.26h.81c.67,0,.9.13.9.39s-.3.46-.85.46A2.31,2.31,0,0,1,18,7.1a.35.35,0,0,0-.39,0l-.46.62a2.71,2.71,0,0,0,2,.74c1.17,0,2-.57,2-1.39A1.17,1.17,0,0,0,20.09,6Z"
  />
</svg>
