<svg data-fixedcolors="true" viewBox="0 0 512 512" fill="none" xmlns="http://www.w3.org/2000/svg">
<g id="kazach">
<g id="Vector">
<path d="M469.315 239.336C469.523 225.003 467.947 210.7 464.624 196.756C457.512 170.33 445.092 145.625 428.121 124.141C411.149 102.657 389.979 84.8431 365.898 71.7818C337.096 55.6815 305.146 45.9943 272.241 43.385C239.336 40.7758 206.255 45.3063 175.269 56.6657C132.661 73.4477 96.4616 103.257 71.8512 141.827C59.1739 160.277 50.2617 181.04 45.6237 202.93C41.6809 224.968 41.6809 247.53 45.6237 269.568C53.7347 314.131 76.9179 354.563 111.299 384.11C116.494 388.648 121.978 392.843 127.718 396.671C131.578 398.761 134.871 401.757 137.313 405.4C139.336 410.898 139.336 416.934 137.313 422.432C134.131 436.009 129.705 449.264 124.093 462.032C124.093 464.161 122.174 466.716 124.093 468.419C125.298 469.176 126.735 469.478 128.144 469.271C153.059 469.654 177.227 460.776 195.952 444.361C198.536 441.814 201.481 439.662 204.695 437.974C209.528 436.8 214.574 436.8 219.407 437.974C252.715 442.241 286.552 439.316 318.631 429.399C350.709 419.482 380.28 402.803 405.346 380.49C424.964 362.464 440.741 340.673 451.732 316.42C462.723 292.167 468.704 265.95 469.315 239.336Z" fill="#0C114D"/>
<path fill-rule="evenodd" clip-rule="evenodd" d="M206.424 247.841L254.214 310.561C257.808 312.481 259.712 320.587 253.791 319.521H221.015C217.574 319.539 214.34 317.868 212.345 315.041L178.723 266.401C178.292 266.401 177.886 266.278 177.487 266.157C176.712 265.922 175.966 265.697 175.128 266.401L168.362 274.294C167.051 276.173 166.316 278.398 166.247 280.694V310.134C166.247 316.025 161.514 320.801 155.674 320.801H138.758C132.919 320.801 128.185 316.025 128.185 310.134V182.134C128.185 176.243 132.919 171.467 138.758 171.467H155.674C161.514 171.467 166.247 176.243 166.247 182.134V226.294C166.67 227.787 167.939 229.067 169.842 227.787L208.962 175.734C210.958 173.048 214.092 171.467 217.42 171.467H248.504C252.945 171.467 254.002 174.667 251.676 179.574L206.424 234.614C203.388 238.491 203.388 243.964 206.424 247.841ZM354.445 247.841L402.235 310.561C405.829 312.481 407.732 320.587 401.177 319.734H368.401C364.961 319.753 361.727 318.082 359.731 315.254L326.11 266.614C325.679 266.614 325.272 266.491 324.873 266.37C324.098 266.136 323.353 265.91 322.515 266.614L316.383 274.294C315.072 276.173 314.337 278.398 314.268 280.694V310.134C314.268 316.025 309.534 320.801 303.695 320.801H286.779C280.939 320.801 276.206 316.025 276.206 310.134V182.134C276.206 176.243 280.939 171.467 286.779 171.467H303.695C309.534 171.467 314.268 176.243 314.268 182.134V226.507C314.691 228.001 315.96 229.281 317.863 228.001L356.983 175.734C358.979 173.048 362.113 171.467 365.441 171.467H396.525C400.966 171.467 402.023 174.667 399.697 179.574L354.445 234.614C351.409 238.491 351.409 243.964 354.445 247.841Z" fill="#FEDD8E"/>
</g>
</g>
</svg>
