<svg xmlns="http://www.w3.org/2000/svg" xmlns:xlink="http://www.w3.org/1999/xlink" viewBox="0 0 24 24">
    <defs>
        <style>
            .b {
            fill: #020a1a;
            }

            .c {
            fill: #abe1ff;
            }
        </style>
    </defs>
    <title>korean</title>
    <path class="b" d="M21,4H3A1,1,0,0,0,2,5V20.79a.5.5,0,0,0,.85.35L7,17H21a1,1,0,0,0,1-1V5A1,1,0,0,0,21,4Z" />
    <path class="c" d="M15.66,6.89a3.54,3.54,0,0,1,3.73,3.61,3.54,3.54,0,0,1-3.73,3.61,3.55,3.55,0,0,1-3.74-3.61A3.55,3.55,0,0,1,15.66,6.89Zm0,1.59a1.88,1.88,0,0,0-1.91,2,1.9,1.9,0,1,0,3.8,0A1.88,1.88,0,0,0,15.66,8.48Z" />
    <path class="c" d="M11.7,13.53,9.44,10.59a.5.5,0,0,1,0-.62L11.6,7.38c.11-.23.06-.38-.15-.38H9.94a.5.5,0,0,0-.4.2L7.71,9.65c-.09.06-.15,0-.17-.07V7.51A.5.5,0,0,0,7,7h-.8a.5.5,0,0,0-.5.5v6a.5.5,0,0,0,.5.5H7a.5.5,0,0,0,.5-.5V12.12a.55.55,0,0,1,.1-.3l.29-.36c.06-.05.11,0,.17,0h0L9.7,13.77a.5.5,0,0,0,.41.21h1.55C11.93,14,11.87,13.61,11.7,13.53Z"
    />
</svg>
