<svg xmlns="http://www.w3.org/2000/svg" xmlns:xlink="http://www.w3.org/1999/xlink" viewBox="0 0 24 24">
    <defs>
        <style>
            .b {
            fill: #020a1a;
            }

            .c {
            fill: #abe1ff;
            }
        </style>
    </defs>
    <title>korean</title>
    <path class="b" d="M21,4H3A1,1,0,0,0,2,5V20.79a.5.5,0,0,0,.85.35L7,17H21a1,1,0,0,0,1-1V5A1,1,0,0,0,21,4Z" />
    <path class="c" d="M16.27,6.89A3.54,3.54,0,0,1,20,10.5a3.54,3.54,0,0,1-3.73,3.61,3.55,3.55,0,0,1-3.74-3.61A3.55,3.55,0,0,1,16.27,6.89Zm0,1.59a1.88,1.88,0,0,0-1.91,2,1.9,1.9,0,1,0,3.8,0A1.88,1.88,0,0,0,16.27,8.48Z" />
    <path class="c" d="M12.31,13.53l-2.26-2.94a.5.5,0,0,1,0-.62l2.14-2.58c.11-.23.06-.38-.15-.38H10.55a.5.5,0,0,0-.4.2L8.32,9.65c-.09.06-.15,0-.17-.07V7.51a.5.5,0,0,0-.5-.5h-.8a.5.5,0,0,0-.5.5v6a.5.5,0,0,0,.5.5h.8a.5.5,0,0,0,.5-.5V12.12a.55.55,0,0,1,.1-.3l.29-.36c.06-.05.11,0,.17,0h0l1.59,2.28a.5.5,0,0,0,.41.21h1.55C12.54,14,12.48,13.61,12.31,13.53Z"
    />
</svg>
