<svg viewBox="0 0 512 512" fill="none" xmlns="http://www.w3.org/2000/svg">
<g id="kyrgyz">
<g id="Vector">
<path d="M469.315 239.334C469.523 225.001 467.947 210.698 464.624 196.754C457.512 170.328 445.092 145.623 428.121 124.139C411.149 102.655 389.979 84.8412 365.898 71.7798C337.096 55.6795 305.146 45.9923 272.241 43.3831C239.336 40.7739 206.255 45.3044 175.269 56.6638C132.661 73.4458 96.4616 103.255 71.8512 141.825C59.1739 160.275 50.2617 181.038 45.6237 202.928C41.6809 224.966 41.6809 247.528 45.6237 269.566C53.7347 314.129 76.9179 354.562 111.299 384.108C116.494 388.646 121.978 392.842 127.718 396.669C131.578 398.759 134.871 401.755 137.313 405.398C139.336 410.896 139.336 416.932 137.313 422.43C134.131 436.007 129.705 449.262 124.093 462.03C124.093 464.159 122.174 466.714 124.093 468.417C125.298 469.174 126.735 469.476 128.144 469.269C153.059 469.652 177.227 460.774 195.952 444.359C198.536 441.812 201.481 439.66 204.695 437.972C209.528 436.798 214.574 436.798 219.407 437.972C252.715 442.239 286.552 439.314 318.631 429.397C350.709 419.48 380.28 402.801 405.346 380.488C424.964 362.462 440.741 340.671 451.732 316.418C462.723 292.165 468.704 265.948 469.315 239.334Z" fill="#0C114D"/>
<path fill-rule="evenodd" clip-rule="evenodd" d="M167.755 228.521C162.231 236.492 162.231 247.316 167.755 255.288L195.075 294.985C195.506 297.48 193.354 298.614 193.354 298.614H178.511C171.508 298.477 165.007 294.753 161.086 288.633C155.33 278.784 149.008 269.314 142.156 260.278C140.247 259.847 140.239 259.871 140.052 260.467C139.943 260.811 139.774 261.345 139.144 262.093L135.487 267.083V294.077C135.631 295.2 135.27 296.329 134.51 297.13C133.75 297.931 132.68 298.312 131.615 298.161H114.62C112.469 298.387 110.963 297.253 110.963 293.624V196.536C110.705 194.354 112.132 192.349 114.19 191.999H131.615C133.346 192.593 134.6 194.18 134.842 196.082V231.923C135.487 233.057 137.423 231.923 137.423 231.923L158.935 201.3C162.907 195.566 169.197 192.124 175.93 191.999H192.064C192.924 192.755 192.637 193.713 192.35 194.671C192.207 195.15 192.064 195.629 192.064 196.082L167.755 228.521ZM349.315 192.226H376.205C385.193 191.695 393.97 195.228 400.336 201.941C406.702 208.653 410.052 217.908 409.548 227.386C410.065 236.948 406.657 246.283 400.194 253.012C393.73 259.74 384.835 263.214 375.775 262.547H352.542V292.943C352.327 296.346 351.036 298.161 345.228 298.161H331.675C329.414 297.545 327.826 295.406 327.803 292.943V214.91C327.803 202.382 337.434 192.226 349.315 192.226ZM232.719 227.839H252.725C261.865 227.158 270.836 230.691 277.315 237.523C283.795 244.355 287.145 253.815 286.499 263.453C287.003 272.931 283.652 282.187 277.286 288.899C270.921 295.612 262.143 299.145 253.155 298.614H226.265C214.384 298.614 204.753 288.458 204.753 275.93V196.309L204.783 196.084C204.993 194.496 205.292 192.226 207.55 192.226H226.265C227.293 192.186 228.278 192.666 228.915 193.518C229.553 194.369 229.767 195.49 229.492 196.536V223.983C229.062 227.839 230.998 227.839 232.719 227.839ZM295.536 192.226H313.606C317.694 192.906 317.694 195.175 317.048 197.897V293.85C317.06 295.939 315.575 297.701 313.606 297.933H295.751C293.815 297.933 292.094 296.346 292.094 293.17V197.897C291.677 195.352 293.17 192.892 295.536 192.226ZM249.068 274.345H232.074C232.074 274.345 228.847 274.345 229.277 270.715V255.063C229.277 252.114 230.783 251.661 232.289 251.661H249.068C255.009 251.661 259.824 256.739 259.824 263.003C259.824 269.267 255.009 274.345 249.068 274.345ZM356.63 238.728C354.048 238.728 353.188 238.728 352.758 235.326V220.581C352.555 219.406 352.879 218.198 353.637 217.31C354.395 216.422 355.5 215.954 356.63 216.044H373.409C379.349 216.044 384.165 221.122 384.165 227.386C384.165 233.65 379.349 238.728 373.409 238.728H356.63Z" fill="#FEDD8E"/>
</g>
</g>
</svg>
