<svg data-fixedcolors="true" viewBox="0 0 512 512" fill="none" xmlns="http://www.w3.org/2000/svg">
<g id="literature">
<g id="Vector">
<path d="M64 128.127H448C459.782 128.127 469.333 137.675 469.333 149.453V426.683C469.333 438.46 459.782 448.008 448 448.008H292.951C291.102 451.209 288.83 454.182 286.17 456.841C278.168 464.84 267.316 469.333 256 469.333C244.684 469.333 233.832 464.84 225.83 456.841C223.17 454.182 220.898 451.209 219.049 448.008H64C52.2179 448.008 42.6666 438.46 42.6666 426.683V149.453C42.6666 137.675 52.2179 128.127 64 128.127Z" fill="#0089E3"/>
<path d="M426.703 64.1512C366.189 62.9386 306.715 80.8915 255.921 115.703C205.05 80.8984 145.514 62.9481 84.9387 64.1512C82.2172 64.1583 79.6096 65.3075 77.6886 67.3466C76.7211 68.2977 75.9526 69.4524 75.4323 70.7365C74.912 72.0205 74.6516 73.4056 74.6677 74.8025V362.386C74.6481 363.815 74.9061 365.233 75.4257 366.552C75.9454 367.872 76.7155 369.064 77.6886 370.055C79.675 371.961 82.257 373.023 84.9387 373.038C143.375 370.859 200.901 388.799 248.873 424.164C249.82 425.068 250.911 425.789 252.095 426.294C253.353 426.611 254.663 426.611 255.921 426.294C257.181 426.596 258.488 426.596 259.748 426.294C260.932 425.789 262.023 425.068 262.97 424.164C310.905 388.866 368.325 370.862 426.703 372.825C429.45 372.842 432.106 371.78 434.154 369.842C436 367.839 437.076 365.182 437.175 362.386V75.4416C437.386 74.0302 437.386 72.5925 437.175 71.1811C436.706 69.8116 435.949 68.5731 434.96 67.5596C433.84 66.1562 432.472 64.9983 430.932 64.1512C429.529 63.9496 428.106 63.9496 426.703 64.1512Z" fill="#B9E2FE"/>
<path fill-rule="evenodd" clip-rule="evenodd" d="M118.59 133.728L113.755 118.482C105.331 121.151 100.667 130.141 103.338 138.561C105.991 146.929 114.89 151.586 123.268 149.023L123.52 148.954C123.837 148.872 124.436 148.724 125.313 148.544C127.066 148.185 129.933 147.698 133.874 147.349C141.744 146.653 153.957 146.503 170.198 149.068C186.439 151.632 198.011 155.538 205.283 158.626C208.924 160.172 211.501 161.518 213.058 162.4C213.837 162.841 214.362 163.167 214.637 163.343L214.856 163.486C222.036 168.505 231.937 166.817 237.042 159.674C242.179 152.487 240.514 142.497 233.324 137.363L233.303 137.348L233.28 137.332L233.23 137.296L233.112 137.213L232.801 137C232.561 136.838 232.254 136.635 231.881 136.396C231.134 135.919 230.119 135.297 228.832 134.568C226.256 133.11 222.591 131.22 217.793 129.183C208.187 125.105 194.095 120.457 175.191 117.471C156.287 114.486 141.448 114.566 131.052 115.486C125.859 115.945 121.79 116.613 118.89 117.207C117.44 117.504 116.283 117.783 115.426 118.007C114.997 118.119 114.643 118.217 114.364 118.298L114.003 118.405L113.864 118.447L113.806 118.465L113.78 118.474C113.78 118.474 113.755 118.482 118.59 133.728ZM233.324 137.363C233.324 137.363 233.326 137.365 232.172 138.979L224.039 150.354L233.324 137.363Z" fill="#24A865"/>
<path d="M118.585 219.016L113.755 203.783C105.331 206.452 100.667 215.442 103.338 223.862C105.991 232.231 114.89 236.887 123.268 234.325L123.52 234.256C123.837 234.173 124.436 234.026 125.313 233.846C127.066 233.487 129.933 233 133.874 232.651C141.744 231.954 153.957 231.805 170.198 234.369C186.439 236.934 198.011 240.839 205.283 243.927C208.924 245.473 211.501 246.82 213.058 247.702C213.837 248.143 214.362 248.468 214.637 248.644L214.856 248.787C222.036 253.807 231.937 252.119 237.042 244.976C242.179 237.788 240.514 227.799 233.324 222.664L224.023 235.678C233.324 222.664 233.324 222.664 233.324 222.664L233.303 222.649L233.28 222.633L233.23 222.598L233.112 222.515L232.801 222.302C232.561 222.139 232.254 221.936 231.881 221.698C231.134 221.22 230.119 220.599 228.832 219.87C226.256 218.411 222.591 216.522 217.793 214.485C208.187 210.406 194.095 205.758 175.191 202.773C156.287 199.788 141.448 199.867 131.052 200.787C125.859 201.247 121.79 201.915 118.89 202.509C117.44 202.806 116.283 203.084 115.426 203.308C114.997 203.42 114.643 203.519 114.364 203.6L114.003 203.706L113.864 203.749L113.806 203.767L113.78 203.775L113.755 203.783C113.755 203.783 113.755 203.783 118.585 219.016Z" fill="#24A865"/>
<path d="M113.755 289.085L118.59 304.331C113.755 289.085 113.755 289.085 113.755 289.085L113.78 289.077L113.806 289.069L113.864 289.05L114.003 289.008L114.364 288.901C114.643 288.821 114.997 288.722 115.426 288.61C116.283 288.386 117.44 288.107 118.89 287.81C121.79 287.216 125.859 286.549 131.052 286.089C141.448 285.169 156.287 285.089 175.191 288.075C194.095 291.06 208.187 295.708 217.793 299.786C222.591 301.823 226.256 303.713 228.832 305.171C230.119 305.901 231.134 306.522 231.881 306.999C232.254 307.238 232.561 307.441 232.801 307.604L233.112 307.817L233.23 307.899L233.28 307.935L233.303 307.951C233.303 307.951 233.324 307.966 224.023 320.98L233.324 307.966C240.514 313.101 242.179 323.09 237.042 330.277C231.937 337.42 222.036 339.108 214.856 334.089L214.637 333.946C214.362 333.77 213.837 333.445 213.058 333.003C211.501 332.122 208.924 330.775 205.283 329.229C198.011 326.141 186.439 322.235 170.198 319.671C153.957 317.106 141.744 317.256 133.874 317.952C129.933 318.301 127.066 318.788 125.313 319.148C124.436 319.327 123.837 319.475 123.52 319.558L123.268 319.626C114.89 322.189 105.991 317.532 103.338 309.164C100.667 300.744 105.331 291.754 113.755 289.085Z" fill="#24A865"/>
<path d="M393.43 133.724L398.263 118.482C406.687 121.151 411.351 130.141 408.681 138.561C406.027 146.929 397.128 151.586 388.75 149.023L388.498 148.954C388.181 148.872 387.582 148.724 386.705 148.544C384.952 148.185 382.085 147.698 378.144 147.349C370.274 146.653 358.061 146.503 341.82 149.068C325.58 151.632 314.008 155.538 306.735 158.626C303.094 160.172 300.517 161.518 298.96 162.4C298.181 162.841 297.656 163.167 297.381 163.343L297.162 163.486C289.982 168.505 280.081 166.817 274.976 159.674C269.839 152.487 271.504 142.497 278.694 137.363L287.991 150.371C278.694 137.363 278.694 137.363 278.694 137.363L278.715 137.348L278.738 137.332L278.788 137.296L278.906 137.213L279.217 137C279.457 136.838 279.764 136.635 280.137 136.396C280.884 135.919 281.899 135.297 283.186 134.568C285.762 133.11 289.427 131.22 294.225 129.183C303.831 125.105 317.924 120.457 336.827 117.471C355.731 114.486 370.57 114.566 380.966 115.486C386.159 115.945 390.228 116.613 393.128 117.207C394.578 117.504 395.735 117.783 396.592 118.007C397.021 118.119 397.376 118.217 397.654 118.298L398.016 118.405L398.154 118.447L398.212 118.465L398.239 118.474L398.263 118.482C398.263 118.482 398.263 118.482 393.43 133.724Z" fill="#00672E"/>
<path d="M393.436 219.007L398.263 203.783C406.687 206.452 411.351 215.442 408.681 223.862C406.027 232.231 397.128 236.887 388.75 234.325L388.498 234.256C388.181 234.173 387.582 234.026 386.705 233.846C384.952 233.487 382.085 233 378.144 232.651C370.274 231.954 358.061 231.805 341.82 234.369C325.58 236.934 314.008 240.839 306.735 243.927C303.094 245.473 300.517 246.82 298.96 247.702C298.181 248.143 297.656 248.468 297.381 248.644L297.162 248.787C289.982 253.807 280.081 252.119 274.976 244.976C269.839 237.788 271.504 227.799 278.694 222.664L287.995 235.678C278.694 222.664 278.694 222.664 278.694 222.664L278.715 222.649L278.738 222.633L278.788 222.598L278.906 222.515L279.217 222.302C279.457 222.139 279.764 221.936 280.137 221.698C280.884 221.22 281.899 220.599 283.186 219.87C285.762 218.411 289.427 216.522 294.225 214.485C303.831 210.406 317.924 205.758 336.827 202.773C355.731 199.788 370.57 199.867 380.966 200.787C386.159 201.247 390.228 201.915 393.128 202.509C394.578 202.806 395.735 203.084 396.592 203.308C397.021 203.42 397.376 203.519 397.654 203.6L398.016 203.706L398.154 203.749L398.212 203.767L398.239 203.775C398.239 203.775 398.263 203.783 393.436 219.007Z" fill="#00672E"/>
<path d="M398.263 289.085L393.429 304.331C398.263 289.085 398.263 289.085 398.263 289.085L398.239 289.077L398.212 289.069L398.154 289.05L398.016 289.008L397.654 288.901C397.376 288.821 397.021 288.722 396.592 288.61C395.735 288.386 394.578 288.107 393.128 287.81C390.228 287.216 386.159 286.549 380.966 286.089C370.57 285.169 355.731 285.089 336.827 288.075C317.924 291.06 303.831 295.708 294.225 299.786C289.427 301.823 285.762 303.713 283.186 305.171C281.899 305.901 280.884 306.522 280.137 306.999C279.764 307.238 279.457 307.441 279.217 307.604L278.906 307.817L278.788 307.899L278.738 307.935L278.715 307.951C278.715 307.951 278.694 307.966 287.995 320.98L278.694 307.966C271.504 313.101 269.839 323.09 274.976 330.277C280.081 337.42 289.982 339.108 297.162 334.089L297.381 333.946C297.656 333.77 298.181 333.445 298.96 333.003C300.517 332.122 303.094 330.775 306.735 329.229C314.008 326.141 325.58 322.235 341.82 319.671C358.061 317.106 370.274 317.256 378.144 317.952C382.085 318.301 384.952 318.788 386.705 319.148C387.582 319.327 388.181 319.475 388.498 319.558L388.75 319.626C397.128 322.189 406.027 317.532 408.681 309.164C411.351 300.744 406.687 291.754 398.263 289.085Z" fill="#00672E"/>
</g>
</g>
</svg>
