<svg xmlns="http://www.w3.org/2000/svg" xmlns:xlink="http://www.w3.org/1999/xlink" preserveAspectRatio="xMidYMid" width="64" height="64" viewBox="0 0 64 64">
<path fill="white" d="M47.101,18.252 C46.850,18.062 46.523,18.003 46.222,18.092 L31.750,22.343 L17.279,18.092 C16.977,18.003 16.651,18.062 16.399,18.252 C16.148,18.442 16.000,18.739 16.000,19.056 L16.000,43.160 C16.000,43.607 16.293,43.999 16.718,44.125 L31.470,48.458 C31.562,48.485 31.657,48.498 31.750,48.498 C31.845,48.498 31.938,48.480 32.029,48.453 L32.030,48.458 L46.782,44.125 C47.208,43.999 47.501,43.607 47.501,43.160 L47.501,19.056 C47.501,18.739 47.352,18.442 47.101,18.252 ZM31.001,45.998 L17.998,42.407 L17.998,20.396 L31.001,24.286 L31.001,45.998 ZM45.503,42.407 L32.999,45.998 L32.999,24.385 L37.500,23.000 L37.500,27.500 C37.500,27.587 37.677,27.625 37.757,27.659 C37.784,27.671 37.813,27.677 37.841,27.677 C37.895,27.677 37.949,27.656 37.990,27.617 L39.563,25.965 L41.136,27.475 C41.199,27.534 41.290,27.551 41.369,27.517 C41.449,27.483 41.500,27.405 41.500,27.318 L41.500,21.631 L45.503,20.396 L45.503,42.407 Z" class="cls-2"/>
</svg>
