<svg xmlns="http://www.w3.org/2000/svg" xmlns:xlink="http://www.w3.org/1999/xlink" viewBox="0 0 24 24">
    <defs>
        <style>
            .b {
            fill: #020a1a;
            }

            .c {
            fill: #57b2f8;
            }

            .d {
            fill: #ff796b;
            }
        </style>
    </defs>
    <title>language</title>
    <path class="b" d="M3,3H21a1,1,0,0,1,1,1V15a2,2,0,0,1-2,2H4a2,2,0,0,1-2-2V4A1,1,0,0,1,3,3Z" />
    <path class="c" d="M20.17,18H14.64a1.08,1.08,0,0,0-.69.28,3,3,0,0,1-3.88,0A1.08,1.08,0,0,0,9.37,18H3.89C2.85,18,2,17.43,2,16.77H2V18H2a2,2,0,0,0,2,2H9a1,1,0,0,1,.61.22,4,4,0,0,0,4.76,0A1,1,0,0,1,15,20h5.09A1.93,1.93,0,0,0,22,18h0V16.85C21.95,17.47,21.16,18,20.17,18Z"
    />
    <path class="d" d="M11,3V17a1,1,0,0,0,2,0V3Z" />
</svg>
