<svg xmlns="http://www.w3.org/2000/svg" xmlns:xlink="http://www.w3.org/1999/xlink" preserveAspectRatio="xMidYMid" width="64" height="64" viewBox="0 0 64 64">
  <defs>
    <style>
      .cls-1 {
        fill: #abe3ff;
        fill-opacity: 0.01;
      }

      .cls-2 {
        fill: #fff;
        fill-rule: evenodd;
      }
    </style>
  </defs>
  <g>
    <circle cx="32" cy="32" r="32" class="cls-1"/>
    <path d="M42.407,41.497 C40.494,41.497 38.804,41.195 36.536,40.377 L36.536,23.319 C36.536,21.489 36.336,21.209 34.491,21.058 L34.491,20.089 C36.136,19.895 38.871,19.486 40.739,18.990 L40.739,28.058 L41.984,27.476 C42.918,27.067 43.474,26.895 44.119,26.895 C48.100,26.895 50.990,29.996 50.990,33.485 C50.990,38.051 47.166,41.497 42.407,41.497 ZM42.140,28.962 C41.517,28.962 41.273,29.027 40.739,29.156 L40.739,37.706 C40.739,38.115 40.806,38.503 40.917,38.718 C41.095,39.214 41.918,40.183 42.985,40.226 C44.786,40.247 46.410,38.438 46.410,34.519 C46.410,30.491 44.208,28.962 42.140,28.962 ZM24.905,40.011 C26.884,39.687 27.018,39.321 26.529,37.986 C26.195,37.060 25.683,35.703 25.128,34.346 L18.679,34.346 C18.301,35.380 17.834,36.543 17.456,37.814 C16.967,39.257 17.033,39.709 19.457,40.011 L19.457,41.130 L12.008,41.130 L12.052,40.011 C14.320,39.752 14.676,39.364 15.810,36.651 L22.637,20.584 L24.349,20.175 C26.484,25.667 28.552,31.159 30.732,36.543 C31.844,39.321 32.289,39.752 34.424,40.011 L34.424,41.130 L24.905,41.130 L24.905,40.011 ZM22.015,25.882 L21.926,25.882 C20.992,28.144 20.102,30.427 19.257,32.666 L24.505,32.666 L22.015,25.882 Z" class="cls-2"/>
  </g>
</svg>
