<svg xmlns="http://www.w3.org/2000/svg" xmlns:xlink="http://www.w3.org/1999/xlink" preserveAspectRatio="xMidYMid" width="64" height="64" viewBox="0 0 64 64">
    <path d="M46.020,40.992 L46.505,35.598 C47.191,35.281 47.700,34.925 48.034,34.531 C48.367,34.137 48.639,33.485 48.849,32.576 C49.060,31.668 49.165,30.478 49.165,29.007 C49.165,27.343 48.989,26.062 48.636,25.163 C48.283,24.264 47.720,23.526 46.946,22.949 C46.172,22.372 45.206,22.084 44.050,22.084 C42.581,22.084 41.363,22.598 40.398,23.627 C39.433,24.656 38.950,26.483 38.950,29.108 C38.950,31.348 39.175,32.932 39.626,33.860 C40.077,34.788 40.738,35.367 41.610,35.598 L42.095,40.992 L33.100,40.992 L33.100,35.511 L33.644,35.511 C33.663,36.098 33.766,36.495 33.953,36.701 C34.139,36.908 34.327,37.076 34.518,37.206 C34.710,37.336 35.187,37.401 35.952,37.401 L40.699,37.401 L40.596,36.233 C38.313,35.848 36.603,34.968 35.467,33.593 C34.330,32.218 33.762,30.665 33.762,28.935 C33.762,26.867 34.631,25.026 36.370,23.411 C38.110,21.795 40.670,20.987 44.050,20.987 C47.431,20.987 49.991,21.795 51.730,23.411 C53.469,25.026 54.339,26.867 54.339,28.935 C54.339,30.588 53.800,32.113 52.722,33.507 C51.644,34.901 49.905,35.810 47.504,36.233 L47.402,37.401 L52.149,37.401 C52.884,37.401 53.352,37.343 53.553,37.228 C53.754,37.112 53.950,36.937 54.141,36.701 C54.332,36.466 54.437,36.069 54.457,35.511 L55.001,35.511 L55.001,40.992 L46.020,40.992 ZM20.512,40.459 L20.909,40.459 C21.683,40.459 22.227,40.353 22.541,40.141 C22.756,39.988 22.864,39.766 22.864,39.478 C22.864,39.305 22.835,39.127 22.776,38.944 C22.756,38.858 22.609,38.497 22.335,37.862 L21.277,35.425 L14.236,35.425 L13.398,37.329 C13.124,37.963 12.987,38.488 12.987,38.901 C12.987,39.449 13.212,39.853 13.663,40.112 C13.928,40.266 14.579,40.382 15.618,40.459 L15.618,40.992 L8.989,40.992 L8.989,40.459 C9.704,40.353 10.292,40.062 10.753,39.586 C11.213,39.110 11.782,38.127 12.458,36.636 L19.586,21.031 L19.866,21.031 L27.053,37.069 C27.739,38.589 28.303,39.545 28.743,39.939 C29.076,40.238 29.547,40.411 30.155,40.459 L30.155,40.992 L20.512,40.992 L20.512,40.459 ZM17.808,27.622 L14.751,34.358 L20.777,34.358 L17.808,27.622 Z"/>
</svg>
