<svg xmlns="http://www.w3.org/2000/svg" xmlns:xlink="http://www.w3.org/1999/xlink" viewBox="0 0 24 24">
    <defs>
        <style>
            .b {
            fill: #020a1a;
            }

            .c {
            fill: #abe1ff;
            }
        </style>
    </defs>
    <title>latin</title>
    <path class="b" d="M21,4H3A1,1,0,0,0,2,5V20.8a.5.5,0,0,0,.85.35L7,17H21a1,1,0,0,0,1-1V5A1,1,0,0,0,21,4Z" />
    <path class="c" d="M16.87,12.18A.5.5,0,0,0,16.2,12a2.41,2.41,0,0,1-1.12.29,1.56,1.56,0,0,1-1.63-1.15h4.12c.35,0,.47-.28.46-.64C18,8.36,16.6,7,14.8,7a3.1,3.1,0,0,0-2,.65.49.49,0,0,1-.66,0,2.73,2.73,0,0,0-2-.63,5,5,0,0,0-2.73.78.49.49,0,0,0-.13.65l.28.51a.49.49,0,0,0,.66.2,3.21,3.21,0,0,1,1.62-.45c.9,0,1.45.4,1.45,1v.78a3.11,3.11,0,0,0-2.2-.75A2.14,2.14,0,0,0,6.7,11.84C6.7,13.36,8,14,9.58,14A4.07,4.07,0,0,0,12,13.24a.47.47,0,0,1,.6,0,3.13,3.13,0,0,0,2.22.77,4.66,4.66,0,0,0,2.22-.57.51.51,0,0,0,.16-.72Zm-5.58-.56c0,.38-.63.83-1.42.83-.52,0-1-.21-1-.7s.54-.7,1.16-.7a1.77,1.77,0,0,1,1.31.49Zm3.41-3A1.24,1.24,0,0,1,16,9.79H13.42A1.28,1.28,0,0,1,14.7,8.63Z"
    />
</svg>
