<svg xmlns="http://www.w3.org/2000/svg" xmlns:xlink="http://www.w3.org/1999/xlink" viewBox="0 0 24 24">
    <defs>
        <style>
            .b {
                fill: #57b2f8;
            }

            .c {
                fill: #020a1a;
            }
        </style>
    </defs>
    <title>law</title>
    <rect class="b" x="6" y="9" width="12" height="1" />
    <path class="c" d="M17.57,9.22l-3.41,5.1a1,1,0,0,0-.17.61,4,4,0,0,0,8,0,1,1,0,0,0-.17-.61L18.4,9.22A.5.5,0,0,0,17.57,9.22Zm-1.55,5L17.42,12a.65.65,0,0,1,1.11,0l1.4,2.25a.5.5,0,0,1-.42.76H16.44A.5.5,0,0,1,16,14.24Z" />
    <path class="c" d="M5.57,9.22l-3.41,5.1a1,1,0,0,0-.17.61,4,4,0,0,0,8,0,1,1,0,0,0-.17-.61L6.4,9.22A.5.5,0,0,0,5.57,9.22ZM4,14.24l1.53-2.46a.5.5,0,0,1,.85,0l1.53,2.46A.5.5,0,0,1,7.5,15H4.44A.5.5,0,0,1,4,14.24Z" />
    <rect class="c" x="11" y="2" width="2" height="10" rx="1" ry="1" />
</svg>
