<svg xmlns="http://www.w3.org/2000/svg" xmlns:xlink="http://www.w3.org/1999/xlink" preserveAspectRatio="xMidYMid" width="64" height="64" viewBox="0 0 64 64">
<path fill="white" d="M43.000,40.500 C39.140,40.500 36.000,37.809 36.000,34.500 C36.000,33.948 36.448,33.500 37.000,33.500 L49.000,33.500 C49.552,33.500 50.000,33.948 50.000,34.500 C50.000,37.809 46.860,40.500 43.000,40.500 ZM47.500,32.196 C47.022,32.472 46.410,32.308 46.134,31.830 L43.000,25.419 L39.866,31.830 C39.590,32.308 38.978,32.472 38.500,32.196 C38.022,31.920 37.858,31.308 38.134,30.830 L41.634,23.670 C41.673,23.602 41.732,23.555 41.784,23.500 L34.000,23.500 L34.000,42.615 C38.564,43.135 42.000,45.274 42.000,46.000 C42.000,46.828 37.523,47.500 32.000,47.500 C26.477,47.500 22.000,46.828 22.000,46.000 C22.000,45.274 25.436,43.135 30.000,42.615 L30.000,23.500 L22.216,23.500 C22.268,23.555 22.327,23.602 22.366,23.670 L25.866,30.830 C26.142,31.308 25.978,31.920 25.500,32.196 C25.022,32.472 24.410,32.308 24.134,31.830 L21.000,25.419 L17.866,31.830 C17.590,32.308 16.978,32.472 16.500,32.196 C16.022,31.920 15.858,31.308 16.134,30.830 L19.634,23.670 C19.678,23.594 19.742,23.540 19.801,23.480 C18.792,23.379 18.000,22.537 18.000,21.500 C18.000,20.395 18.895,19.500 20.000,19.500 L30.000,19.500 L30.000,17.500 C30.000,16.395 30.895,15.500 32.000,15.500 C33.105,15.500 34.000,16.395 34.000,17.500 L34.000,19.500 L44.000,19.500 C45.105,19.500 46.000,20.395 46.000,21.500 C46.000,22.537 45.208,23.379 44.199,23.480 C44.258,23.540 44.322,23.594 44.366,23.670 L47.866,30.830 C48.142,31.308 47.978,31.920 47.500,32.196 ZM28.000,34.500 C28.000,37.809 24.860,40.500 21.000,40.500 C17.140,40.500 14.000,37.809 14.000,34.500 C14.000,33.948 14.448,33.500 15.000,33.500 L27.000,33.500 C27.552,33.500 28.000,33.948 28.000,34.500 Z" class="cls-2"/>
</svg>
