<svg viewBox="0 0 512 512" fill="none" xmlns="http://www.w3.org/2000/svg">
<g id="law">
<g id="Vector">
<path d="M426.667 334.934C420.919 337.599 414.808 339.397 408.533 340.267C400.497 342.176 392.171 342.538 384 341.334C377.792 340.468 371.751 338.67 366.08 336C358.23 332.033 351.25 326.539 345.548 319.841C339.847 313.143 335.54 305.375 332.878 296.991C330.215 288.608 329.253 279.778 330.045 271.017C330.838 262.257 333.37 253.743 337.493 245.974L375.04 170.667H417.707L454.827 244.907C458.966 252.651 461.521 261.141 462.344 269.883C463.167 278.625 462.24 287.443 459.619 295.824C456.998 304.204 452.734 311.978 447.076 318.693C441.419 325.408 434.481 330.929 426.667 334.934Z" fill="#FFC7BF"/>
<path d="M462.293 277.334C462.337 289.306 459.021 301.05 452.724 311.232C446.426 321.415 437.398 329.626 426.667 334.934C420.91 337.573 414.803 339.37 408.533 340.267C404.656 340.93 400.733 341.287 396.8 341.334C392.541 341.686 388.259 341.686 384 341.334C377.805 340.408 371.773 338.612 366.08 336C355.223 330.584 346.13 322.193 339.86 311.806C333.59 301.419 330.402 289.464 330.667 277.334H462.293Z" fill="#163BF3"/>
<path d="M146.56 335.147C141.017 337.717 135.121 339.443 129.067 340.267C125.191 340.939 121.267 341.296 117.333 341.334C113.783 341.595 110.217 341.595 106.667 341.334C100.613 340.509 94.7163 338.784 89.1733 336.214C81.1731 332.587 74.005 327.353 68.1153 320.836C62.2255 314.32 57.7402 306.661 54.9386 298.336C52.1369 290.011 51.0789 281.199 51.8304 272.447C52.5818 263.696 55.1267 255.192 59.3066 247.467L93.6533 175.36C94.4056 173.97 95.5124 172.804 96.8612 171.979C98.21 171.155 99.7529 170.702 101.333 170.667H133.333C134.914 170.702 136.457 171.155 137.805 171.979C139.154 172.804 140.261 173.97 141.013 175.36L176.427 246.4C180.607 254.126 183.151 262.629 183.903 271.38C184.654 280.132 183.596 288.944 180.795 297.269C177.993 305.594 173.508 313.253 167.618 319.77C161.728 326.286 154.56 331.521 146.56 335.147Z" fill="#FFC7BF"/>
<path d="M183.04 277.334C183.064 289.329 179.717 301.089 173.38 311.273C167.043 321.457 157.971 329.656 147.2 334.934C141.443 337.573 135.336 339.37 129.067 340.267C125.191 340.939 121.267 341.296 117.333 341.334C113.783 341.595 110.217 341.595 106.667 341.334C100.397 340.436 94.2902 338.64 88.5333 336C77.3977 330.798 67.9957 322.499 61.4509 312.095C54.9062 301.692 51.4955 289.624 51.6266 277.334H183.04Z" fill="#163BF3"/>
<path d="M256 42.667C261.658 42.667 267.084 44.9146 271.085 48.9154C275.086 52.9162 277.333 58.3424 277.333 64.0003V85.3337H426.667C438.449 85.3337 448 94.8849 448 106.667C448 118.449 438.449 128 426.667 128H277.333V384H384C400.974 384 417.252 390.743 429.255 402.745C441.257 414.748 448 431.026 448 448H64C64 431.026 70.7428 414.748 82.7451 402.745C94.7475 390.743 111.026 384 128 384H234.667V128H85.3333C73.5512 128 64 118.449 64 106.667C64 94.8849 73.5512 85.3337 85.3333 85.3337H234.667V64.0003C234.667 58.3424 236.914 52.9162 240.915 48.9154C244.916 44.9146 250.342 42.667 256 42.667Z" fill="#0C114D"/>
</g>
</g>
</svg>
