<svg xmlns="http://www.w3.org/2000/svg" xmlns:xlink="http://www.w3.org/1999/xlink" viewBox="0 0 24 24">
    <defs>
        <style>
            .a {
            fill: #020a1a;
            }

            .b {
            fill: none;
            }

            .c {
            fill: #57b2f8;
            }

            .d {
            fill: #ff796b;
            }
        </style>
        <symbol id="b" viewBox="0 0 8 10">
            <path class="a" d="M4,0,0,6A4,4,0,0,0,8,6ZM2,5.25,3.44,3A.65.65,0,0,1,4.55,3L6,5.25A.5.5,0,0,1,5.53,6H2.47A.5.5,0,0,1,2,5.25Z" />
        </symbol>
    </defs>
    <title>law15</title>
    <path class="c" d="M10.3,10.95A2,2,0,0,1,12,10h0V8.43A3.51,3.51,0,0,0,8.69,10.5,3.94,3.94,0,0,0,8.38,12H10A2,2,0,0,1,10.3,10.95Z" />
    <rect class="a" x="5.99" y="6.02" width="11.99" height="1" />
    <path class="d" d="M12,15.64Z" />
    <path class="d" d="M12,8.43h0A1.2,1.2,0,1,1,12,6H14.5a2.56,2.56,0,0,0-1.24-1.31A3.06,3.06,0,0,0,12,4.42,2.8,2.8,0,0,0,9.61,5.72a2.87,2.87,0,0,0-.15,2.8A2.72,2.72,0,0,0,12,10h0a2,2,0,0,1,2,2,2,2,0,0,1-2,2v1.6a3.76,3.76,0,0,0,3.56-3.81A3.43,3.43,0,0,0,12,8.43Z"
    />
    <path class="d" d="M13.18,7.23a.8.8,0,1,0,1.6,0c0-.07,0-.13,0-.19H13.14A1.14,1.14,0,0,1,13.18,7.23Z" />
    <use width="8" height="10" transform="translate(13.97 6.01)" xlink:href="#b" />
    <path class="c" d="M14.48,15.56A2.71,2.71,0,0,0,12,14h0A2,2,0,0,1,10.17,13,2.2,2.2,0,0,1,10,12H8.38A3.59,3.59,0,0,0,12,15.64h0a1.2,1.2,0,1,1-1.2,1.21.8.8,0,1,0-1.6,0,2.72,2.72,0,0,0,1.52,2.5,3.06,3.06,0,0,0,1.29.29,2.79,2.79,0,0,0,2.36-1.29A2.87,2.87,0,0,0,14.48,15.56Z"
    />
    <use width="8" height="10" transform="translate(1.98 6.01)" xlink:href="#b" />
</svg>
