<svg data-fixedcolors="true" viewBox="0 0 512 512" fill="none" xmlns="http://www.w3.org/2000/svg">
<path d="M362.335 64H404.917C405.219 68.8987 405.359 73.8081 405.336 78.72C405.376 102.678 401.705 126.498 394.456 149.333C387.631 170.042 377.471 189.498 364.376 206.933C359.528 213.129 354.329 219.041 348.803 224.64C342.911 230.172 336.714 235.372 330.243 240.213C327.955 242.169 326.107 244.587 324.82 247.308C324.6 247.774 324.365 248.247 324.128 248.726C322.979 251.045 321.76 253.506 321.709 256V258.347C322.505 267.095 328.637 271.574 334.978 276.205C337.141 277.785 339.328 279.383 341.336 281.173C349.097 287.993 356.236 295.489 362.669 303.573C376.176 320.799 386.638 340.208 393.603 360.96C401.223 383.435 405.185 406.988 405.336 430.72V433.28C405.359 438.192 405.219 443.101 404.917 448H362.669V433.28C362.424 417.927 360.274 402.664 356.269 387.84C350.105 361.661 336.986 337.633 318.296 318.293C309.877 309.527 299.985 302.307 289.069 296.96C274.06 291.208 257.817 289.444 241.923 291.84C237.188 291.988 232.476 292.559 227.843 293.547L222.296 295.68C220.437 296.548 218.794 297.703 217.158 298.854C215.977 299.684 214.801 300.512 213.549 301.227C210.935 302.662 208.438 304.303 206.083 306.133C201.061 309.712 196.351 313.708 192.003 318.08C183.481 327.579 176.303 338.203 170.669 349.653C156.827 375.365 149.502 404.079 149.336 433.28V448H107.089C106.787 443.101 106.647 438.192 106.669 433.28C106.771 422.142 107.626 411.023 109.229 400C113.497 368.886 124.727 339.134 142.083 312.96C150.083 301.021 159.623 290.19 170.456 280.747C172.851 278.664 175.692 276.81 178.533 274.955C187.332 269.21 196.143 263.458 191.789 250.88C190.258 245.904 186.323 243.331 182.295 240.698C181.833 240.396 181.37 240.094 180.909 239.787C130.136 205.44 106.669 137.6 106.669 78.72C106.733 73.8052 106.959 68.8959 107.347 64H149.928C149.549 68.8952 149.351 73.8052 149.336 78.72C148.995 108.864 156.336 138.599 170.669 165.12C176.448 175.574 183.625 185.192 192.003 193.707C195.796 198.051 200.351 201.666 205.443 204.373C211.729 207.323 218.413 209.336 225.283 210.347C240.927 212.941 256.818 213.728 272.643 212.693H281.603C289.777 211.425 297.743 209.057 305.283 205.653C310.881 202.518 315.867 198.399 320.003 193.493C329.317 183.816 337.153 172.818 343.256 160.853C356.158 135.406 362.813 107.251 362.669 78.72C362.74 73.8084 362.628 68.8984 362.335 64Z" fill="#0C114D"/>
<path d="M144 85.3333C135.164 85.3333 128 92.4968 128 101.333C128 110.17 135.164 117.333 144 117.333H368C376.837 117.333 384 110.17 384 101.333C384 92.4968 376.837 85.3333 368 85.3333H144Z" fill="#FF341A"/>
<path d="M144 394.667C135.164 394.667 128 401.83 128 410.667C128 419.503 135.164 426.667 144 426.667H368C376.837 426.667 384 419.503 384 410.667C384 401.83 376.837 394.667 368 394.667H144Z" fill="#FF341A"/>
<path d="M165.334 149.333C156.497 149.333 149.334 156.497 149.334 165.333C149.334 174.17 156.497 181.333 165.334 181.333H346.667C355.504 181.333 362.667 174.17 362.667 165.333C362.667 156.497 355.504 149.333 346.667 149.333H165.334Z" fill="#0089E3"/>
<path d="M165.334 330.667C156.497 330.667 149.334 337.83 149.334 346.667C149.334 355.503 156.497 362.667 165.334 362.667H346.667C355.504 362.667 362.667 355.503 362.667 346.667C362.667 337.83 355.504 330.667 346.667 330.667H165.334Z" fill="#0089E3"/>
</svg>
