<svg xmlns="http://www.w3.org/2000/svg" xmlns:xlink="http://www.w3.org/1999/xlink" preserveAspectRatio="xMidYMid" width="64" height="64" viewBox="0 0 64 64">
<path fill="white" d="M29.416,54.003 C29.060,53.778 28.616,53.624 28.366,53.313 C27.676,52.455 27.970,51.382 28.979,50.766 C29.589,50.394 30.190,50.006 30.900,49.559 C25.359,46.621 19.922,43.739 14.382,40.802 C14.362,41.244 14.341,41.616 14.330,41.989 C14.313,42.554 14.168,43.064 13.710,43.439 C13.187,43.867 12.609,43.963 11.984,43.696 C11.394,43.444 10.981,42.984 11.007,42.353 C11.061,41.068 11.135,39.774 11.349,38.509 C11.713,36.351 12.530,34.361 13.831,32.574 C15.161,30.746 16.953,29.717 19.145,29.293 C21.193,28.897 23.261,28.838 25.320,29.012 C29.479,29.362 33.626,29.855 37.786,30.195 C39.712,30.353 41.655,30.289 43.591,30.323 C43.685,30.325 43.780,30.299 43.997,30.269 C39.749,27.117 35.590,24.030 31.357,20.889 C31.381,21.935 31.615,22.842 32.067,23.671 C32.429,24.334 32.874,24.955 33.320,25.568 C33.946,26.429 33.886,27.386 33.125,28.023 C32.525,28.525 31.618,28.535 31.036,28.001 C30.167,27.204 29.534,26.224 29.044,25.166 C27.512,21.862 27.536,18.596 29.397,15.413 C30.100,14.212 31.176,13.352 32.245,12.508 C33.122,11.816 34.040,11.169 34.980,10.566 C35.400,10.296 35.920,10.183 36.394,9.998 C36.423,9.998 36.452,9.998 36.480,9.998 C36.543,10.030 36.602,10.074 36.668,10.091 C37.359,10.269 37.796,10.703 37.927,11.403 C38.057,12.102 37.808,12.671 37.234,13.089 C36.969,13.282 36.691,13.455 36.374,13.667 C41.413,16.575 46.411,19.460 51.457,22.372 C51.531,22.064 51.588,21.802 51.658,21.545 C51.992,20.315 53.291,19.794 54.278,20.548 C54.604,20.797 54.766,21.259 55.003,21.624 C55.003,21.768 55.003,21.911 55.003,22.055 C54.878,22.567 54.772,23.086 54.624,23.592 C53.894,26.094 52.621,28.302 50.950,30.289 C50.104,31.295 49.183,32.201 47.942,32.734 C46.069,33.539 44.095,33.736 42.093,33.752 C38.310,33.784 34.572,33.223 30.818,32.868 C28.192,32.620 25.556,32.477 22.924,32.305 C22.473,32.276 22.017,32.338 21.564,32.358 C21.554,32.392 21.545,32.425 21.536,32.459 C25.825,35.384 30.114,38.310 34.476,41.284 C34.437,40.855 34.417,40.528 34.376,40.204 C34.249,39.195 34.087,38.190 33.992,37.179 C33.938,36.615 34.210,36.144 34.681,35.827 C35.805,35.069 37.144,35.731 37.332,37.138 C37.534,38.644 37.768,40.147 37.896,41.659 C38.021,43.130 38.069,44.620 37.544,46.041 C36.161,49.792 33.448,52.283 29.933,54.003 C29.761,54.003 29.588,54.003 29.416,54.003 ZM34.204,45.643 C34.343,44.949 34.489,44.341 34.570,43.725 C34.592,43.564 34.457,43.308 34.315,43.211 C29.324,39.789 24.325,36.379 19.321,32.975 C19.194,32.889 18.992,32.814 18.859,32.852 C17.852,33.139 17.098,33.766 16.501,34.666 C22.382,38.313 28.237,41.943 34.204,45.643 ZM33.308,47.049 C27.376,43.371 21.513,39.737 15.557,36.044 C15.269,36.963 15.025,37.797 14.742,38.618 C14.620,38.972 14.740,39.116 15.044,39.276 C20.619,42.220 26.188,45.174 31.759,48.126 C31.896,48.198 32.037,48.264 32.213,48.351 C32.570,47.927 32.917,47.514 33.308,47.049 ZM50.969,24.018 C49.553,23.200 48.237,22.442 46.922,21.682 C43.022,19.431 39.122,17.178 35.219,14.930 C35.094,14.858 34.879,14.754 34.807,14.805 C34.327,15.149 33.875,15.530 33.375,15.930 C38.799,19.533 44.135,23.077 49.539,26.665 C50.028,25.761 50.487,24.910 50.969,24.018 ZM48.495,27.975 C43.063,24.367 37.679,20.790 32.215,17.160 C32.008,17.652 31.829,18.097 31.633,18.535 C31.504,18.821 31.584,18.996 31.838,19.179 C32.850,19.908 33.847,20.660 34.850,21.404 C38.525,24.131 42.202,26.857 45.873,29.591 C46.108,29.767 46.287,29.788 46.562,29.669 C47.377,29.319 47.899,28.660 48.495,27.975 Z" class="cls-2"/>
</svg>
