<svg data-fixedcolors="true" viewBox="0 0 512 512" fill="none" xmlns="http://www.w3.org/2000/svg">
<g id="life-science">
<g id="Vector">
<path d="M322.773 256C322.834 252.991 323.53 250.029 324.817 247.308C326.104 244.587 327.952 242.169 330.24 240.214C336.712 235.372 342.908 230.173 348.8 224.64C354.326 219.041 359.526 213.129 364.373 206.934C377.468 189.499 387.628 170.043 394.453 149.334C401.703 126.498 405.373 102.679 405.333 78.7203C405.39 66.6472 404.462 54.5895 402.56 42.667H359.893C361.912 54.5754 362.84 66.6432 362.667 78.7203C362.81 107.251 356.156 135.406 343.253 160.854C337.15 172.818 329.314 183.817 320 193.494C315.865 198.399 310.878 202.519 305.28 205.654C297.74 209.057 289.775 211.425 281.6 212.694H272.64C256.816 213.729 240.925 212.941 225.28 210.347C218.41 209.336 211.726 207.324 205.44 204.374C200.348 201.666 195.793 198.051 192 193.707C183.623 185.192 176.446 175.574 170.667 165.12C156.334 138.599 148.992 108.865 149.333 78.7203C149.371 66.6237 150.513 54.5557 152.747 42.667H110.08C107.964 54.5719 106.822 66.6297 106.667 78.7203C106.667 137.6 130.133 205.44 180.907 239.787C185.387 242.774 190.08 245.334 191.787 250.88C197.547 267.52 180.267 272.214 170.453 280.747C159.62 290.19 150.08 301.022 142.08 312.96C124.724 339.135 113.494 368.886 109.227 400C107.623 411.023 106.768 422.142 106.667 433.28C106.611 445.353 107.538 457.411 109.44 469.334H152.107C152.107 466.347 152.107 463.574 150.613 460.587C149.12 457.6 149.333 452.267 149.333 448C149.333 443.734 149.333 438.187 149.333 433.28C149.5 404.08 156.825 375.365 170.667 349.654C176.3 338.203 183.478 327.58 192 318.08C196.348 313.709 201.059 309.712 206.08 306.134C208.435 304.303 210.932 302.662 213.547 301.227C216.533 299.52 219.093 297.174 222.293 295.68L227.84 293.547C232.473 292.559 237.185 291.988 241.92 291.84C257.814 289.445 274.058 291.209 289.067 296.96C299.982 302.307 309.874 309.528 318.293 318.294C336.983 337.633 350.102 361.662 356.267 387.84C360.271 402.664 362.421 417.927 362.667 433.28C362.667 438.258 362.667 443.165 362.667 448C362.667 452.267 362.667 456.534 361.387 460.587C360.107 464.64 360.32 466.347 359.893 469.334H402.56C404.462 457.411 405.39 445.353 405.333 433.28V430.72C405.182 406.989 401.22 383.436 393.6 360.96C386.636 340.208 376.174 320.799 362.667 303.574C356.234 295.489 349.094 287.993 341.333 281.174C333.44 274.134 322.773 270.08 321.707 258.347L322.773 256Z" fill="#0C114D"/>
<path d="M364.8 410.454H146.987C138.15 410.454 130.987 417.617 130.987 426.454C130.987 435.29 138.15 442.454 146.987 442.454H364.8C373.637 442.454 380.8 435.29 380.8 426.454C380.8 417.617 373.637 410.454 364.8 410.454Z" fill="#4FB3F6"/>
<path d="M352.427 346.454H159.573C150.737 346.454 143.573 353.617 143.573 362.454C143.573 371.29 150.737 378.454 159.573 378.454H352.427C361.263 378.454 368.427 371.29 368.427 362.454C368.427 353.617 361.263 346.454 352.427 346.454Z" fill="#FF341A"/>
<path d="M352.427 133.334H159.573C150.737 133.334 143.573 140.497 143.573 149.334C143.573 158.17 150.737 165.334 159.573 165.334H352.427C361.263 165.334 368.427 158.17 368.427 149.334C368.427 140.497 361.263 133.334 352.427 133.334Z" fill="#4FB3F6"/>
<path d="M364.8 69.3337H146.987C138.15 69.3337 130.987 76.4971 130.987 85.3337C130.987 94.1702 138.15 101.334 146.987 101.334H364.8C373.637 101.334 380.8 94.1702 380.8 85.3337C380.8 76.4971 373.637 69.3337 364.8 69.3337Z" fill="#FF341A"/>
</g>
</g>
</svg>
