<svg xmlns="http://www.w3.org/2000/svg" xmlns:xlink="http://www.w3.org/1999/xlink" viewBox="0 0 24 24">
    <defs>
        <style>
            .b {
            fill: #57b2f8;
            }

            .c {
            fill: #ff796b;
            }

            .d {
            fill: #fec83c;
            }

            .e {
            fill: #020a1a;
            }
        </style>
    </defs>
    <title>life-science</title>
    <rect class="b" x="5.46" y="4" width="9" height="1" rx="0.5" ry="0.5" />
    <rect class="c" x="8.46" y="6" width="9" height="1" rx="0.5" ry="0.5" />
    <rect class="d" x="7.48" y="8" width="6" height="1" rx="0.5" ry="0.5" />
    <rect class="b" x="8.48" y="19" width="9" height="1" rx="0.5" ry="0.5" transform="translate(25.97 39) rotate(180)" />
    <rect class="c" x="5.54" y="17" width="9" height="1" rx="0.5" ry="0.5" transform="translate(20.07 35) rotate(-180)" />
    <rect class="d" x="9.47" y="15" width="6.74" height="1" rx="0.5" ry="0.5" transform="translate(25.68 31) rotate(180)" />
    <path class="e" d="M16.45,22.06a.95.95,0,0,1-.9-1.25,6.39,6.39,0,0,0-1.44-6.33,9.58,9.58,0,0,0-2.72-1.73l-1-.49a9.79,9.79,0,0,1-4-3.38,8.13,8.13,0,0,1-.89-6.3.95.95,0,1,1,1.8.57,6.16,6.16,0,0,0,.71,4.76,8.1,8.1,0,0,0,3.24,2.67l.93.47a11.14,11.14,0,0,1,3.24,2.11,8.22,8.22,0,0,1,1.88,8.25A1,1,0,0,1,16.45,22.06Z"
    />
    <path class="e" d="M16.45,1.93a.95.95,0,0,0-.9,1.25A6.39,6.39,0,0,1,14.11,9.5a9.58,9.58,0,0,1-2.72,1.73l-1,.49a9.79,9.79,0,0,0-4,3.38,8.13,8.13,0,0,0-.89,6.3.95.95,0,1,0,1.8-.57,6.16,6.16,0,0,1,.71-4.76,8.1,8.1,0,0,1,3.24-2.67l.93-.47a11.14,11.14,0,0,0,3.24-2.11,8.22,8.22,0,0,0,1.88-8.25A1,1,0,0,0,16.45,1.93Z"
    />
</svg>
