<svg xmlns="http://www.w3.org/2000/svg" xmlns:xlink="http://www.w3.org/1999/xlink" viewBox="0 0 24 24">
    <defs>
        <style>
            .b {
            fill: #020a1a;
            }

            .c {
            fill: #fff;
            }

            .d {
            fill: #57b2f8;
            }

            .e {
            fill: #fec83c;
            }

            .f {
            fill: #ff796b;
            }
        </style>
    </defs>
    <title>logic</title>
    <path class="b" d="M3,10.92a9,9,0,0,1,18.06,0,1,1,0,0,1-1,1H18l0,2.5h0a7.5,7.5,0,0,1-15,.11H3l0-3.64Z" />
    <circle class="c" cx="16.02" cy="9" r="0.98" />
    <path class="d" d="M9.85,6.35l2.66,2.28a.5.5,0,0,1,0,.76L9.79,11.72a.5.5,0,0,1-.65,0L6.48,9.44a.5.5,0,0,1,0-.76L9.2,6.35A.5.5,0,0,1,9.85,6.35Z" />
    <path class="e" d="M8.12,15.16l-2-1.79A.5.5,0,0,1,5.95,13V11.32A.5.5,0,0,1,6.78,11l2,1.79a.5.5,0,0,1,.17.37v1.67A.5.5,0,0,1,8.12,15.16Z" />
    <path class="f" d="M12.12,10.95l-2,1.8a.5.5,0,0,0-.17.37v1.68a.5.5,0,0,0,.83.37l2-1.8a.5.5,0,0,0,.17-.37V11.32A.5.5,0,0,0,12.12,10.95Z" />
</svg>
