<svg viewBox="0 0 512 512" fill="none" xmlns="http://www.w3.org/2000/svg">
<g id="logic">
<g id="Vector">
<path d="M149.299 299.318C152.077 292.39 158.287 289.002 165.574 290.866C171.131 293 175.998 296.613 179.649 301.314C182.475 304.552 186.025 307.076 190.012 308.682C193.998 310.288 198.307 310.93 202.588 310.556C206.87 310.182 211.002 308.802 214.65 306.529C218.297 304.257 221.356 301.155 223.578 297.476C230.218 285.716 233.971 272.548 234.527 259.054C235.083 245.561 232.427 232.128 226.777 219.862C224.987 215.269 222.031 211.221 218.2 208.118C214.37 205.015 209.796 202.965 204.931 202.168C200.065 201.372 195.077 201.857 190.456 203.576C185.836 205.296 181.743 208.19 178.582 211.973C176.379 214.757 173.709 217.138 170.692 219.009C162.669 223.856 153.073 222.022 149.299 212.992V299.318Z" fill="#24A865"/>
<path d="M204.604 384.263H188.395C183.682 384.263 179.862 380.442 179.862 375.729V338.895C188.008 341.873 196.717 343.029 205.373 342.272C214.671 341.46 223.647 338.464 231.568 333.527C239.49 328.591 246.134 321.854 250.959 313.865L251.201 313.464L251.432 313.055C260.563 296.886 265.723 278.779 266.487 260.225C267.24 241.958 263.711 223.771 256.186 207.117C252.346 197.752 246.209 189.497 238.334 183.119C230.183 176.517 220.451 172.153 210.099 170.459C199.869 168.784 189.382 169.773 179.649 173.326V136.49C179.649 131.777 183.469 127.956 188.182 127.956H246.401C263.034 127.956 267.725 116.801 261.541 106.566C259.669 103.55 257.288 100.88 254.504 98.6771C250.72 95.5166 247.826 91.4246 246.107 86.8046C244.387 82.1847 243.902 77.1963 244.698 72.3316C245.495 67.4668 247.546 62.8937 250.649 59.0632C253.752 55.2327 257.8 52.2772 262.394 50.4881C274.662 44.8384 288.096 42.1823 301.591 42.7383C315.086 43.2944 328.255 47.0467 340.017 53.6865C343.695 55.908 346.798 58.9667 349.071 62.6136C351.344 66.2605 352.724 70.3926 353.098 74.6735C353.472 78.9544 352.83 83.2631 351.224 87.249C349.617 91.2348 347.093 94.7851 343.855 97.6109C339.153 101.261 335.54 106.128 333.406 111.684C331.06 120.853 337.031 126.89 347.907 127.956H441.949C447.707 127.956 447.92 129.382 447.92 134.499V213.392C447.92 225.333 434.059 231.09 421.264 225.333C418.223 224.017 415.414 222.216 412.948 220.002C408.609 216.094 403.444 213.216 397.837 211.581C392.231 209.946 386.328 209.597 380.569 210.56C374.809 211.524 369.341 213.774 364.572 217.144C359.803 220.514 355.856 224.917 353.025 230.024C348.285 238.666 345.925 248.412 346.188 258.265C346.45 268.118 349.324 277.725 354.518 286.102C357.519 290.653 361.445 294.52 366.04 297.452C370.636 300.385 375.797 302.316 381.189 303.121C386.581 303.925 392.082 303.585 397.333 302.123C402.585 300.66 407.469 298.107 411.668 294.631C414.253 291.994 417.339 289.9 420.745 288.472C424.151 287.044 427.807 286.311 431.5 286.316C435.31 285.826 439.16 286.846 442.228 289.156C445.297 291.467 447.339 294.886 447.92 298.683C448.027 300.031 448.027 301.386 447.92 302.734V379.495C447.92 384.826 447.92 385.039 441.31 385.039H345.988C343.336 384.774 340.658 385.059 338.121 385.875C335.583 386.69 333.242 388.02 331.241 389.78C329.24 391.541 327.624 393.694 326.492 396.107C325.36 398.519 324.737 401.139 324.663 403.803C324.621 407.19 325.281 410.55 326.603 413.669C327.924 416.788 329.877 419.6 332.34 421.927L337.671 427.044C339.946 429.332 341.673 432.105 342.721 435.157C343.769 438.208 344.11 441.457 343.72 444.659C343.33 447.862 342.218 450.934 340.469 453.645C338.719 456.355 336.377 458.633 333.619 460.308C323.097 466.669 310.931 469.784 298.646 469.263C287.115 469.792 275.645 467.293 265.38 462.013C262.183 460.482 259.418 458.178 257.336 455.31C255.254 452.441 253.919 449.099 253.453 445.585C252.988 442.072 253.405 438.497 254.669 435.186C255.932 431.874 258.001 428.929 260.688 426.618C266.46 422.378 270.721 416.4 272.843 409.56C273.674 406.256 273.639 402.794 272.743 399.508C271.847 396.221 270.118 393.221 267.725 390.796C265.914 388.831 263.7 387.28 261.234 386.249C258.768 385.219 255.924 383.973 253.438 383.41L204.604 384.263Z" fill="#24A865"/>
<path d="M72.5299 383.973C67.819 383.973 64 380.154 64 375.444V136.631C64 131.921 67.819 128.102 72.5299 128.102H139.171C143.884 128.102 147.705 131.923 147.705 136.635V203.82C147.705 220.444 160.493 225.132 170.724 218.952C173.739 217.081 176.408 214.701 178.61 211.919C181.769 208.138 185.86 205.245 190.478 203.527C195.096 201.808 200.082 201.323 204.945 202.119C209.808 202.915 214.379 204.965 218.208 208.066C222.037 211.168 224.991 215.213 226.78 219.804C232.427 232.064 235.082 245.49 234.526 258.977C233.971 272.463 230.22 285.625 223.583 297.379C221.362 301.055 218.305 304.156 214.659 306.427C211.014 308.699 206.883 310.078 202.604 310.452C198.325 310.826 194.018 310.184 190.034 308.579C186.049 306.974 182.5 304.451 179.676 301.215C176.027 296.516 171.162 292.905 165.608 290.772C156.443 288.428 148.983 294.395 147.918 305.264V375.439C147.918 380.152 144.097 383.973 139.384 383.973H72.5299Z" fill="#163BF3"/>
</g>
</g>
</svg>
