<svg xmlns="http://www.w3.org/2000/svg" xmlns:xlink="http://www.w3.org/1999/xlink" viewBox="0 0 24 24">
  <defs>
    <style>
      .b {
        fill: #020a1a;
      }

      .c {
        fill: #57b2f8;
      }

      .d {
        fill: #fec83c;
      }

      .e {
        fill: #ff796b;
      }
    </style>
  </defs>
  <title>logic_2</title>
  <path class="b" d="M20.49,8A9,9,0,0,0,3,10.92H3l0,3.64H3a7.5,7.5,0,1,0,15-.11h0L18,12H20a1,1,0,0,0,1-1A9,9,0,0,0,20.49,8ZM16,10a1,1,0,1,1,1-1A1,1,0,0,1,16,10Z" />
  <path class="c" d="M9.85,6.35l2.66,2.28a.5.5,0,0,1,0,.76L9.79,11.72a.5.5,0,0,1-.65,0L6.48,9.44a.5.5,0,0,1,0-.76L9.2,6.35A.5.5,0,0,1,9.85,6.35Z" />
  <path class="d" d="M8.12,15.16l-2-1.79A.5.5,0,0,1,5.95,13V11.32A.5.5,0,0,1,6.78,11l2,1.79a.5.5,0,0,1,.17.37v1.67A.5.5,0,0,1,8.12,15.16Z" />
  <path class="e" d="M12.12,10.95l-2,1.8a.5.5,0,0,0-.17.37v1.68a.5.5,0,0,0,.83.37l2-1.8a.5.5,0,0,0,.17-.37V11.32A.5.5,0,0,0,12.12,10.95Z" />
</svg>
