<svg xmlns="http://www.w3.org/2000/svg" xmlns:xlink="http://www.w3.org/1999/xlink" preserveAspectRatio="xMidYMid" width="64" height="64" viewBox="0 0 64 64">
<path fill="white" d="M46.966,23.370 C46.961,23.349 46.954,23.328 46.947,23.308 C46.926,23.244 46.899,23.184 46.867,23.127 C46.858,23.112 46.851,23.096 46.842,23.082 C46.798,23.014 46.747,22.952 46.689,22.896 C46.676,22.884 46.661,22.874 46.647,22.862 C46.596,22.818 46.541,22.780 46.481,22.748 C46.470,22.741 46.461,22.732 46.450,22.726 L32.199,14.592 C31.916,14.451 31.583,14.451 31.301,14.592 L17.551,22.726 C17.539,22.732 17.531,22.741 17.519,22.748 C17.460,22.780 17.404,22.818 17.353,22.862 C17.339,22.874 17.325,22.884 17.312,22.896 C17.253,22.952 17.202,23.014 17.158,23.082 C17.149,23.096 17.142,23.112 17.134,23.127 C17.101,23.184 17.075,23.244 17.054,23.308 C17.047,23.328 17.040,23.349 17.034,23.370 C17.014,23.449 17.000,23.531 17.000,23.617 L17.000,39.872 C17.000,39.892 17.004,39.910 17.006,39.930 C17.008,39.966 17.010,40.001 17.016,40.036 C17.022,40.068 17.029,40.099 17.038,40.129 C17.046,40.160 17.055,40.191 17.066,40.221 C17.078,40.252 17.091,40.281 17.106,40.310 C17.120,40.339 17.134,40.367 17.151,40.394 C17.168,40.421 17.186,40.446 17.205,40.471 C17.225,40.498 17.246,40.523 17.268,40.548 C17.290,40.571 17.313,40.592 17.336,40.613 C17.361,40.635 17.385,40.655 17.411,40.675 C17.440,40.695 17.469,40.713 17.500,40.731 C17.517,40.741 17.532,40.754 17.551,40.763 L31.298,48.396 C31.307,48.400 31.316,48.402 31.324,48.406 C31.372,48.428 31.422,48.445 31.473,48.460 C31.493,48.465 31.511,48.473 31.531,48.477 C31.601,48.493 31.674,48.502 31.749,48.502 C31.824,48.502 31.896,48.493 31.967,48.477 C31.986,48.473 32.005,48.465 32.024,48.460 C32.076,48.445 32.126,48.428 32.173,48.406 C32.182,48.402 32.191,48.400 32.199,48.396 L46.450,40.763 C46.787,40.594 47.001,40.249 47.001,39.872 L47.001,23.617 C47.001,23.531 46.986,23.449 46.966,23.370 ZM31.750,16.599 L43.773,23.617 L31.749,30.498 L20.227,23.617 L31.750,16.599 ZM18.997,25.233 L30.994,32.475 L30.994,46.002 L18.997,39.256 L18.997,25.233 ZM33.004,46.002 L33.004,32.475 L45.003,25.233 L45.003,39.256 L33.004,46.002 Z" class="cls-2"/>
</svg>
