<svg xmlns="http://www.w3.org/2000/svg" xmlns:xlink="http://www.w3.org/1999/xlink" viewBox="0 0 24 24">
    <defs>
        <style>
            .b {
            fill: #ff796b;
            }

            .c {
            fill: #020a1a;
            }
        </style>
    </defs>
    <title>mathematics</title>
    <circle class="b" cx="16.49" cy="16.51" r="1.5" />
    <path class="c" d="M16,6h4V4H5A3,3,0,0,0,2,7H4A1,1,0,0,1,5,6H7A1,1,0,0,1,8,7V19h2V7a1,1,0,0,1,1-1h1a1,1,0,0,1,1,1v9.5h0a3.53,3.53,0,0,0,5.1,3.15A3.34,3.34,0,0,0,20,16.51H18a1.5,1.5,0,0,1-3,0h0V7A1,1,0,0,1,16,6Z" />
    <circle class="c" cx="2.99" cy="7.01" r="1" />
    <circle class="c" cx="19.99" cy="4.98" r="1" />
    <circle class="c" cx="18.99" cy="16.51" r="1" />
    <circle class="c" cx="8.99" cy="18.98" r="1" />
</svg>
