<svg viewBox="0 0 512 512" fill="none" xmlns="http://www.w3.org/2000/svg">
<g id="mathematics">
<g id="Vector">
<path d="M277.333 85.3333C277.333 73.5513 286.885 64 298.667 64H426.667C438.449 64 448 73.5513 448 85.3333V213.333C448 225.115 438.449 234.667 426.667 234.667H298.667C286.885 234.667 277.333 225.115 277.333 213.333V85.3333Z" fill="#0C114D"/>
<path d="M85.3333 277.333C73.5513 277.333 64 286.885 64 298.667V426.667C64 438.449 73.5513 448 85.3333 448H213.333C225.115 448 234.667 438.449 234.667 426.667V298.667C234.667 286.885 225.115 277.333 213.333 277.333H85.3333Z" fill="#0C114D"/>
<path d="M298.667 277.333C286.885 277.333 277.333 286.885 277.333 298.667V426.667C277.333 438.449 286.885 448 298.667 448H426.667C438.449 448 448 438.449 448 426.667V298.667C448 286.885 438.449 277.333 426.667 277.333H298.667Z" fill="#0C114D"/>
<path d="M85.3333 64C73.5513 64 64 73.5513 64 85.3333V213.333C64 225.115 73.5513 234.667 85.3333 234.667H213.333C225.115 234.667 234.667 225.115 234.667 213.333V85.3333C234.667 73.5513 225.115 64 213.333 64H85.3333Z" fill="#0C114D"/>
<path d="M128 106.667C128 94.8846 137.551 85.3333 149.333 85.3333C161.115 85.3333 170.667 94.8846 170.667 106.667V128H192C203.782 128 213.333 137.551 213.333 149.333C213.333 161.115 203.782 170.667 192 170.667H170.667V192C170.667 203.782 161.115 213.333 149.333 213.333C137.551 213.333 128 203.782 128 192V170.667H106.667C94.8846 170.667 85.3333 161.115 85.3333 149.333C85.3333 137.551 94.8846 128 106.667 128H128V106.667Z" fill="#60D399"/>
<path d="M104.078 347.582C95.7466 339.251 95.7466 325.743 104.078 317.412C112.409 309.081 125.917 309.081 134.248 317.412L149.333 332.497L164.418 317.412C172.749 309.081 186.256 309.081 194.587 317.412C202.919 325.743 202.919 339.251 194.587 347.582L179.503 362.667L194.587 377.752C202.919 386.083 202.919 399.59 194.587 407.921C186.256 416.253 172.749 416.253 164.418 407.921L149.333 392.837L134.248 407.921C125.917 416.253 112.409 416.253 104.078 407.921C95.7466 399.59 95.7466 386.083 104.078 377.752L119.163 362.667L104.078 347.582Z" fill="#60D399"/>
<path d="M405.333 341.333C417.115 341.333 426.667 350.885 426.667 362.667C426.667 374.449 417.115 384 405.333 384H320C308.218 384 298.667 374.449 298.667 362.667C298.667 350.885 308.218 341.333 320 341.333H405.333Z" fill="#60D399"/>
<path d="M384 117.333C384 129.115 374.449 138.667 362.667 138.667C350.885 138.667 341.333 129.115 341.333 117.333C341.333 105.551 350.885 96 362.667 96C374.449 96 384 105.551 384 117.333Z" fill="#60D399"/>
<path d="M384 181.333C384 193.115 374.449 202.667 362.667 202.667C350.885 202.667 341.333 193.115 341.333 181.333C341.333 169.551 350.885 160 362.667 160C374.449 160 384 169.551 384 181.333Z" fill="#60D399"/>
</g>
</g>
</svg>
