<svg xmlns="http://www.w3.org/2000/svg" xmlns:xlink="http://www.w3.org/1999/xlink" preserveAspectRatio="xMidYMid" width="64" height="64" viewBox="0 0 64 64">
<path fill="white" d="M47.426,22.322 L39.658,22.322 L38.971,32.360 C38.832,34.122 38.765,35.638 38.765,36.902 C38.765,39.978 39.131,41.854 39.865,42.532 C40.643,43.210 41.514,43.548 42.477,43.548 C44.632,43.548 45.915,42.215 46.326,39.548 L47.496,39.548 C46.716,45.516 44.242,48.500 40.071,48.500 C38.099,48.500 36.518,47.946 35.327,46.839 C34.136,45.731 33.539,44.002 33.539,41.650 C33.539,40.882 33.597,39.683 33.711,38.056 C33.825,36.428 33.997,34.372 34.227,31.885 L35.120,22.322 L28.041,22.322 C27.812,26.437 27.548,29.930 27.251,32.801 C26.952,35.672 26.643,38.056 26.322,39.955 C25.681,43.663 24.948,46.058 24.123,47.144 C23.389,48.048 22.312,48.500 20.892,48.500 C19.883,48.500 19.024,48.239 18.314,47.721 C17.604,47.201 17.248,46.466 17.248,45.516 C17.248,44.567 17.844,43.301 19.036,41.719 C19.906,40.544 20.674,39.357 21.339,38.157 C22.003,36.960 22.564,35.707 23.023,34.395 C23.480,33.129 23.870,31.489 24.191,29.478 C24.512,27.466 24.787,25.081 25.017,22.322 L22.679,22.322 C20.845,22.322 19.449,22.730 18.486,23.543 C17.524,24.357 16.607,25.510 15.736,27.002 L14.499,27.002 C15.187,24.652 16.034,22.707 17.043,21.170 C18.096,19.633 19.150,18.638 20.205,18.186 C21.167,17.735 23.091,17.507 25.979,17.507 L47.426,17.507 L47.426,22.322 Z" class="cls-2"/>
</svg>
