<svg data-fixedcolors="true" viewBox="0 0 512 512" fill="none" xmlns="http://www.w3.org/2000/svg">
<g id="music">
<g id="Vector">
<path d="M214.648 170.667H429.624V213.333H214.648V170.667Z" fill="#24A865"/>
<path d="M248.43 128L214.647 362.667C214.647 409.795 176.148 448 128.657 448C81.1658 448 42.6666 409.795 42.6666 362.667C42.6666 315.538 81.1658 277.333 128.657 277.333C148.382 277.333 166.555 283.924 181.064 295.007L210.635 82.4162C212.103 71.8615 221.193 64 231.93 64H451.121V64.2467C462.548 65.9797 470.805 76.5992 469.113 88.3503L429.623 362.667C429.623 409.795 391.124 448 343.633 448C296.142 448 257.643 409.795 257.643 362.667C257.643 315.538 296.142 277.333 343.633 277.333C363.358 277.333 381.531 283.924 396.039 295.007L419.269 128H248.43Z" fill="#133191"/>
</g>
</g>
</svg>
