<svg xmlns="http://www.w3.org/2000/svg" xmlns:xlink="http://www.w3.org/1999/xlink" preserveAspectRatio="xMidYMid" width="64" height="64" viewBox="0 0 64 64">
<path fill="white" d="M39.619,44.504 L36.333,44.504 C33.913,44.504 32.265,43.197 32.265,40.774 C32.265,38.351 33.907,37.020 36.317,37.020 L39.589,37.020 C40.415,37.020 41.522,36.411 42.000,34.500 L42.000,21.804 L27.000,25.603 L27.000,45.500 C27.000,47.932 25.234,49.000 22.765,49.000 L19.412,49.000 C16.943,49.000 15.500,48.084 15.500,45.661 C15.500,43.238 16.531,42.000 19.000,42.000 L23.000,42.000 C23.847,42.000 24.522,41.205 25.000,39.294 L25.000,20.484 C25.000,20.082 25.231,19.746 25.559,19.555 L25.559,19.387 L42.422,15.116 C42.548,15.048 42.693,15.000 42.882,15.000 C43.500,15.000 44.000,15.491 44.000,16.097 L44.000,40.774 C44.000,43.197 42.038,44.504 39.619,44.504 Z" class="cls-2"/>
</svg>
