<svg xmlns="http://www.w3.org/2000/svg" xmlns:xlink="http://www.w3.org/1999/xlink" viewBox="0 0 24 24">
    <defs>
        <style>
            .b {
            fill: #020a1a;
            }

            .c {
            fill: #abe1ff;
            }
        </style>
    </defs>
    <title>nigerian-lang</title>
    <path class="b" d="M21,4H3A1,1,0,0,0,2,5V20.8a.5.5,0,0,0,.85.35L7,17H21a1,1,0,0,0,1-1V5A1,1,0,0,0,21,4Z" />
    <path class="c" d="M7.22,10.78v2.73a.49.49,0,0,1-.49.49H5.95a.49.49,0,0,1-.49-.49V7.63a.49.49,0,0,1,.49-.49H7a.49.49,0,0,1,.4.2l2.19,3a.25.25,0,0,0,.44-.15V7.63a.49.49,0,0,1,.49-.49h.8a.49.49,0,0,1,.49.49v5.88a.49.49,0,0,1-.49.49h-1a.49.49,0,0,1-.4-.2L7.67,10.63A.25.25,0,0,0,7.22,10.78Z"
    />
    <path class="c" d="M16.43,7A3.22,3.22,0,0,1,19,8.2a.49.49,0,0,1-.17.74l-.62.32a.49.49,0,0,1-.59-.11,1.65,1.65,0,0,0-2-.39,2,2,0,0,0-1.15,1.79,1.9,1.9,0,0,0,1.91,2,2.52,2.52,0,0,0,1.36-.41c.16-.18.16-.65,0-.68H16.65c-.27,0-.49-.07-.49-.34v-.57a.49.49,0,0,1,.49-.49H19a.49.49,0,0,1,.49.49v2a.5.5,0,0,1-.14.35,4,4,0,0,1-2.89,1.19,3.5,3.5,0,0,1-3.72-3.55A3.5,3.5,0,0,1,16.43,7Z"
    />
</svg>
