<svg viewBox="0 0 512 512" fill="none" xmlns="http://www.w3.org/2000/svg">
<g id="others">
<g id="Vector">
<path d="M405.333 458.667C434.789 458.667 458.667 434.789 458.667 405.334C458.667 375.879 434.789 352.001 405.333 352.001C375.878 352.001 352 375.879 352 405.334C352 434.789 375.878 458.667 405.333 458.667Z" fill="#00672E"/>
<path d="M106.667 458.667C136.122 458.667 160 434.789 160 405.334C160 375.879 136.122 352.001 106.667 352.001C77.2115 352.001 53.3334 375.879 53.3334 405.334C53.3334 434.789 77.2115 458.667 106.667 458.667Z" fill="#4FB3F6"/>
<path d="M256 309.334C285.455 309.334 309.333 285.456 309.333 256.001C309.333 226.545 285.455 202.667 256 202.667C226.545 202.667 202.667 226.545 202.667 256.001C202.667 285.456 226.545 309.334 256 309.334Z" fill="black"/>
<path d="M405.333 160.001C434.789 160.001 458.667 136.123 458.667 106.667C458.667 77.2121 434.789 53.334 405.333 53.334C375.878 53.334 352 77.2121 352 106.667C352 136.123 375.878 160.001 405.333 160.001Z" fill="#60D399"/>
<path d="M106.667 160.001C136.122 160.001 160 136.123 160 106.667C160 77.2121 136.122 53.334 106.667 53.334C77.2115 53.334 53.3334 77.2121 53.3334 106.667C53.3334 136.123 77.2115 160.001 106.667 160.001Z" fill="#0089E3"/>
</g>
</g>
</svg>
