<svg xmlns="http://www.w3.org/2000/svg" xmlns:xlink="http://www.w3.org/1999/xlink" viewBox="0 0 24 24">
  <defs>
    <style>
      .b {
      fill: #020a1a;
      }

      .c {
      fill: #abe1ff;
      }
    </style>
  </defs>
  <title>otherlanguages</title>
  <path class="b" d="M21,4H3A1,1,0,0,0,2,5V20.79a.5.5,0,0,0,.85.35L7,17H21a1,1,0,0,0,1-1V5A1,1,0,0,0,21,4Z" />
  <path class="c" d="M7.29,11.15a1.5,1.5,0,1,1-1.5,1.5A1.52,1.52,0,0,1,7.29,11.15Z" />
  <path class="c" d="M12.24,11.15a1.5,1.5,0,1,1-1.5,1.5A1.52,1.52,0,0,1,12.24,11.15Z" />
  <path class="c" d="M17.18,11.15a1.5,1.5,0,1,1-1.5,1.5A1.52,1.52,0,0,1,17.18,11.15Z" />
</svg>
