<svg xmlns="http://www.w3.org/2000/svg" xmlns:xlink="http://www.w3.org/1999/xlink" preserveAspectRatio="xMidYMid" width="64" height="64" viewBox="0 0 64 64">
<path fill="white" d="M46.598,37.250 C43.837,37.250 41.598,35.012 41.598,32.250 C41.598,29.488 43.837,27.250 46.598,27.250 C49.360,27.250 51.599,29.488 51.599,32.250 C51.599,35.012 49.360,37.250 46.598,37.250 ZM32.250,37.250 C29.488,37.250 27.250,35.012 27.250,32.250 C27.250,29.488 29.488,27.250 32.250,27.250 C35.012,27.250 37.250,29.488 37.250,32.250 C37.250,35.012 35.012,37.250 32.250,37.250 ZM17.902,37.250 C15.140,37.250 12.901,35.012 12.901,32.250 C12.901,29.488 15.140,27.250 17.902,27.250 C20.663,27.250 22.902,29.488 22.902,32.250 C22.902,35.012 20.663,37.250 17.902,37.250 Z" class="cls-2"/>
</svg>
