<svg xmlns="http://www.w3.org/2000/svg" xmlns:xlink="http://www.w3.org/1999/xlink" preserveAspectRatio="xMidYMid" width="64" height="64" viewBox="0 0 64 64">
<path fill="white" d="M46.000,40.000 L39.358,40.000 L41.964,48.730 C42.109,49.269 41.789,49.823 41.251,49.967 C40.713,50.112 40.161,49.792 40.016,49.253 L37.254,40.000 L33.000,40.000 L33.000,45.000 C33.000,45.552 32.552,46.000 32.000,46.000 C31.448,46.000 31.000,45.552 31.000,45.000 L31.000,40.000 L26.283,40.000 L23.984,49.253 C23.839,49.792 23.287,50.112 22.749,49.967 C22.211,49.823 21.891,49.269 22.036,48.730 L24.205,40.000 L18.000,40.000 C16.895,40.000 16.000,39.105 16.000,38.000 L16.000,20.000 C16.000,18.895 16.895,18.000 18.000,18.000 L30.500,18.000 L31.000,17.000 C31.000,16.448 31.448,16.000 32.000,16.000 C32.552,16.000 33.000,16.448 33.000,17.000 L33.400,18.000 L46.000,18.000 C47.105,18.000 48.000,18.895 48.000,20.000 L48.000,38.000 C48.000,39.105 47.105,40.000 46.000,40.000 ZM46.000,21.000 C46.000,20.448 45.552,20.000 45.000,20.000 L31.640,20.000 C31.361,20.003 31.128,20.000 31.000,20.000 L19.000,20.000 C18.448,20.000 18.000,20.448 18.000,21.000 L18.000,37.000 C18.000,37.552 18.448,38.000 19.000,38.000 L25.548,38.000 C25.549,38.000 25.550,38.000 25.550,38.000 L37.950,38.000 C37.950,38.000 37.951,38.000 37.952,38.000 L45.000,38.000 C45.552,38.000 46.000,37.552 46.000,37.000 L46.000,21.000 ZM43.000,36.000 L21.000,36.000 C20.448,36.000 20.000,35.552 20.000,35.000 L20.000,23.000 C20.000,22.448 20.448,22.000 21.000,22.000 L43.000,22.000 C43.552,22.000 44.000,22.448 44.000,23.000 L44.000,35.000 C44.000,35.552 43.552,36.000 43.000,36.000 Z" class="cls-2"/>
</svg>
