<svg xmlns="http://www.w3.org/2000/svg" xmlns:xlink="http://www.w3.org/1999/xlink" preserveAspectRatio="xMidYMid" width="64" height="64" viewBox="0 0 64 64">
<path fill="white" d="M47.177,46.500 C46.170,46.500 45.354,45.926 45.354,45.219 C45.354,44.511 46.170,43.937 47.177,43.937 C48.184,43.937 49.000,44.511 49.000,45.219 C49.000,45.926 48.184,46.500 47.177,46.500 ZM41.854,43.667 C39.760,43.667 38.063,42.519 38.063,41.104 C38.063,39.689 39.760,38.542 41.854,38.542 C43.948,38.542 45.646,39.689 45.646,41.104 C45.646,42.519 43.948,43.667 41.854,43.667 ZM30.646,39.125 C22.833,39.125 16.500,34.732 16.500,29.313 C16.500,23.893 22.833,19.500 30.646,19.500 C38.458,19.500 44.792,23.893 44.792,29.313 C44.792,34.732 38.458,39.125 30.646,39.125 Z" class="cls-2"/>
</svg>
