<svg xmlns="http://www.w3.org/2000/svg" xmlns:xlink="http://www.w3.org/1999/xlink" viewBox="0 0 24 24">
  <defs>
    <style>
      .b {
        fill: #020a1a;
      }

      .c {
        fill: #57b2f8;
      }
    </style>
  </defs>
  <title>philosophy</title>
  <path class="b" d="M20.55,8A9,9,0,0,0,3,10.92H3l0,3.64a7.5,7.5,0,0,0,5,7A2.54,2.54,0,0,1,10,22l.55,0A7.5,7.5,0,0,0,18,14.45h0L18,12h2.05a1,1,0,0,0,1-1A9,9,0,0,0,20.55,8Zm-4.48,2a1,1,0,1,1,1-1A1,1,0,0,1,16.07,10Z" />
  <path class="a" d="M12.05,8.54a1.32,1.32,0,0,0-.28-.92C11.24,6.92,10,7,10,8.07V10.5A2.17,2.17,0,0,0,12.05,8.54Z" />
  <path class="a" d="M8,21.57v.49h2V22A7.44,7.44,0,0,1,8,21.57Z" />
  <path class="c" d="M10,12.51a4.15,4.15,0,0,0,4-4C13.75,3.77,8.21,4.4,8,7v3.1a1.9,1.9,0,0,1-1-1.6V8.45a1,1,0,0,0-2-.06s0,.1,0,.15a4.06,4.06,0,0,0,3,3.77v9.27A7.44,7.44,0,0,0,10,22Zm0-4.44c0-1.07,1.19-1.15,1.72-.46a1.32,1.32,0,0,1,.28.92,2.17,2.17,0,0,1-2,2Z"
  />
</svg>
