<svg data-fixedcolors="true" viewBox="0 0 512 512" fill="none" xmlns="http://www.w3.org/2000/svg">
<g id="philosophy">
<g id="Vector">
<path d="M395.058 370.658C440.076 337.687 469.333 284.278 469.333 224C469.333 123.852 388.573 42.6665 288.95 42.6665C194.447 42.6665 116.918 115.722 109.199 208.719L65.6993 281.6C61.455 288.64 65.6993 298.667 72.4902 298.667H119.178V384C119.178 389.658 121.414 395.084 125.394 399.085C129.374 403.086 134.771 405.333 140.4 405.333H182.843V448H395.058V370.658Z" fill="#133191"/>
<path fill-rule="evenodd" clip-rule="evenodd" d="M405.669 224C405.669 255.119 393.372 284.963 371.483 306.967C349.594 328.971 319.906 341.333 288.95 341.333C304.428 341.333 319.272 335.152 330.217 324.15C341.161 313.148 347.31 298.226 347.31 282.667C347.31 267.107 341.161 252.185 330.217 241.183C319.272 230.181 304.428 224 288.95 224C273.472 224 258.629 217.819 247.684 206.817C236.74 195.815 230.591 180.893 230.591 165.333C230.591 149.774 236.74 134.852 247.684 123.85C258.629 112.847 273.472 106.667 288.95 106.667C319.906 106.667 349.594 119.028 371.483 141.033C393.372 163.037 405.669 192.881 405.669 224ZM288.951 188.8C293.568 188.8 298.081 187.423 301.92 184.845C305.759 182.266 308.751 178.601 310.518 174.313C312.284 170.025 312.747 165.307 311.846 160.755C310.945 156.203 308.722 152.021 305.457 148.74C302.193 145.458 298.033 143.223 293.505 142.317C288.977 141.412 284.283 141.877 280.018 143.653C275.752 145.429 272.106 148.437 269.541 152.296C266.976 156.155 265.607 160.692 265.607 165.333C265.607 171.557 268.067 177.526 272.444 181.926C276.822 186.327 282.76 188.8 288.951 188.8Z" fill="#FBBE2E"/>
<path d="M301.92 302.178C298.081 304.757 293.568 306.133 288.951 306.133C282.76 306.133 276.822 303.661 272.444 299.26C268.067 294.859 265.607 288.89 265.607 282.666C265.607 278.025 266.976 273.488 269.541 269.629C272.106 265.77 275.752 262.762 280.018 260.986C284.283 259.21 288.977 258.745 293.505 259.651C298.033 260.556 302.193 262.791 305.457 266.073C308.722 269.355 310.945 273.536 311.846 278.088C312.747 282.64 312.284 287.359 310.518 291.647C308.751 295.935 305.759 299.6 301.92 302.178Z" fill="#FBBE2E"/>
</g>
</g>
</svg>
