<svg viewBox="0 0 512 512" fill="none" xmlns="http://www.w3.org/2000/svg">
<path d="M469.334 256C469.334 373.821 373.821 469.334 256 469.334C138.18 469.334 42.667 373.821 42.667 256C42.667 138.18 138.18 42.667 256 42.667C373.821 42.667 469.334 138.18 469.334 256Z" fill="#FEDD8E"/>
<path d="M429.336 131.61C393.8 161.352 371.2 206.037 371.2 256C371.2 305.964 393.8 350.649 429.336 380.39C419.323 394.318 407.673 406.991 394.667 418.125C348.964 378.998 320 320.881 320 256C320 191.119 348.964 133.003 394.667 93.8759C407.673 105.01 419.323 117.682 429.336 131.61Z" fill="#FF341A"/>
<path d="M117.334 418.125C163.037 378.998 192 320.881 192 256C192 191.119 163.037 133.003 117.334 93.8758C104.328 105.01 92.678 117.682 82.6652 131.61C118.2 161.352 140.8 206.037 140.8 256C140.8 305.964 118.2 350.649 82.6652 380.39C92.6781 394.318 104.328 406.991 117.334 418.125Z" fill="#FF341A"/>
</svg>
