<svg data-fixedcolors="true" viewBox="0 0 512 512" fill="none" xmlns="http://www.w3.org/2000/svg">
<g id="physical-education">
<g id="Vector">
<path d="M469.334 256.001C469.347 285.774 463.128 315.221 451.077 342.446C439.026 369.671 421.409 394.073 399.36 414.081L375.254 433.281C339.457 457.152 297.311 469.713 254.286 469.333C211.26 468.953 169.343 455.648 133.974 431.147C125.619 425.339 117.704 418.921 110.294 411.947C88.9455 391.99 71.9254 367.859 60.2891 341.051C48.6528 314.244 42.6484 285.331 42.6484 256.107C42.6484 226.883 48.6528 197.971 60.2891 171.163C71.9254 144.356 88.9455 120.225 110.294 100.267C117.649 93.231 125.569 86.8094 133.974 81.0673C169.276 56.3988 211.218 42.9926 254.283 42.6119C297.349 42.2311 339.521 54.8936 375.254 78.934C383.795 84.6717 391.857 91.0928 399.36 98.134C421.382 118.118 438.983 142.485 451.034 169.671C463.084 196.858 469.317 226.263 469.334 256.001Z" fill="#FF341A"/>
<path d="M451.077 342.446C463.128 315.221 469.347 285.774 469.334 256.001C469.317 226.263 463.084 196.858 451.034 169.671C440.426 145.739 425.517 123.992 407.077 105.497C406.674 105.919 406.233 106.312 405.759 106.667L404.111 107.904C381.477 125.376 363.15 147.804 350.536 173.465C337.911 199.147 331.346 227.383 331.346 256.001C331.346 284.618 337.911 312.854 350.536 338.537C363.16 364.219 381.508 386.663 404.167 404.142C404.341 404.276 404.511 404.415 404.676 404.56L406.383 406.053C406.625 406.265 406.857 406.488 407.077 406.718C425.542 388.198 440.467 366.416 451.077 342.446Z" fill="#FEDD8E"/>
<path d="M365.744 439.269C339.418 417.264 318.133 389.833 303.356 358.836C288.06 326.75 280.122 291.653 280.122 256.107C280.122 220.562 288.06 185.465 303.356 153.379C318.14 122.368 339.437 94.9255 365.78 72.9157C332.172 52.7879 293.6 42.2642 254.283 42.6119C214.649 42.9623 175.966 54.3453 142.535 75.3864C168.541 97.3116 189.53 124.584 204.066 155.356C218.93 186.821 226.683 221.174 226.774 255.973C226.818 290.982 219.134 325.584 204.27 357.281C189.87 387.99 169.074 415.252 143.29 437.249C176.598 457.852 214.98 468.985 254.286 469.333C293.557 469.68 332.096 459.246 365.744 439.269Z" fill="#FEDD8E"/>
<path d="M102.686 404.47C84.8785 386.071 70.5079 364.593 60.2891 341.051C48.6528 314.244 42.6484 285.331 42.6484 256.107C42.6484 226.883 48.6528 197.971 60.2891 171.163C70.4117 147.843 84.8333 125.834 103.099 107.35C104.437 108.915 105.686 109.981 107.269 111.563C128.246 128.745 145.233 150.305 157.031 174.745C169.263 200.081 175.602 227.856 175.574 255.99L175.574 256.058C175.726 284.393 169.447 312.393 157.211 337.95C145.404 362.608 128.349 384.372 107.253 401.723C105.518 402.239 103.947 403.188 102.686 404.47Z" fill="#FEDD8E"/>
</g>
</g>
</svg>
