<svg xmlns="http://www.w3.org/2000/svg" xmlns:xlink="http://www.w3.org/1999/xlink" preserveAspectRatio="xMidYMid" width="64" height="64" viewBox="0 0 64 64">
<path fill="white" d="M50.000,38.000 C48.895,38.000 48.000,37.105 48.000,36.000 L48.000,30.000 C48.000,28.895 48.895,28.000 50.000,28.000 C51.105,28.000 52.000,28.895 52.000,30.000 L52.000,36.000 C52.000,37.105 51.105,38.000 50.000,38.000 ZM45.000,41.000 C43.895,41.000 43.000,40.105 43.000,39.000 L43.000,27.000 C43.000,25.895 43.895,25.000 45.000,25.000 C46.105,25.000 47.000,25.895 47.000,27.000 L47.000,39.000 C47.000,40.105 46.105,41.000 45.000,41.000 ZM40.000,43.000 C38.895,43.000 38.000,42.105 38.000,41.000 L38.000,35.000 L26.500,35.000 L26.500,41.000 C26.500,42.105 25.605,43.000 24.500,43.000 C23.395,43.000 22.500,42.105 22.500,41.000 L22.500,25.000 C22.500,23.895 23.395,23.000 24.500,23.000 C25.605,23.000 26.500,23.895 26.500,25.000 L26.500,31.000 L38.000,31.000 L38.000,25.000 C38.000,23.895 38.895,23.000 40.000,23.000 C41.105,23.000 42.000,23.895 42.000,25.000 L42.000,41.000 C42.000,42.105 41.105,43.000 40.000,43.000 ZM19.500,41.000 C18.395,41.000 17.500,40.105 17.500,39.000 L17.500,27.000 C17.500,25.895 18.395,25.000 19.500,25.000 C20.605,25.000 21.500,25.895 21.500,27.000 L21.500,39.000 C21.500,40.105 20.605,41.000 19.500,41.000 ZM14.500,38.000 C13.395,38.000 12.500,37.105 12.500,36.000 L12.500,30.000 C12.500,28.895 13.395,28.000 14.500,28.000 C15.605,28.000 16.500,28.895 16.500,30.000 L16.500,36.000 C16.500,37.105 15.605,38.000 14.500,38.000 Z" class="cls-2"/>
</svg>
