<svg viewBox="0 0 512 512" fill="none" xmlns="http://www.w3.org/2000/svg">
<g id="physics">
<g id="Vector">
<path d="M448 376.533C448 371.82 444.18 368 439.467 368H328.533C323.821 368 320 371.82 320 376.533V426.667C320 432.325 322.248 437.751 326.248 441.752C330.249 445.752 335.675 448 341.333 448H426.667C432.325 448 437.751 445.752 441.752 441.752C445.752 437.751 448 432.325 448 426.667V376.533Z" fill="#0089E3"/>
<path d="M64 376.533C64 371.82 67.8205 368 72.5333 368H183.467C188.179 368 192 371.82 192 376.533V426.667C192 432.325 189.752 437.751 185.752 441.752C181.751 445.752 176.325 448 170.667 448H85.3333C79.6754 448 74.2492 445.752 70.2484 441.752C66.2476 437.751 64 432.325 64 426.667V376.533Z" fill="#FF341A"/>
<path d="M256 42.6666V170.667C272.974 170.667 289.253 177.409 301.255 189.412C313.257 201.414 320 217.693 320 234.667V327.467C320 332.179 323.821 336 328.533 336H439.467C444.18 336 448 332.179 448 327.467V234.667C448 183.745 427.771 134.909 391.764 98.9021C355.758 62.8951 306.922 42.6666 256 42.6666Z" fill="#4FB3F6"/>
<path d="M256 42.6666V170.667C239.026 170.667 222.747 177.409 210.745 189.412C198.743 201.414 192 217.693 192 234.667V327.467C192 332.179 188.179 336 183.467 336H72.5333C67.8205 336 64 332.179 64 327.467V234.667C64 183.745 84.2285 134.909 120.235 98.9021C156.242 62.8951 205.078 42.6666 256 42.6666Z" fill="#FF7968"/>
</g>
</g>
</svg>
