<svg data-fixedcolors="true" viewBox="0 0 512 512" fill="none" xmlns="http://www.w3.org/2000/svg">
<path d="M448 376.533C448 371.82 444.18 367.999 439.467 367.999H328.533C323.821 367.999 320 371.82 320 376.533V426.666C320 432.324 322.248 437.75 326.248 441.751C330.249 445.752 335.675 447.999 341.333 447.999H426.667C432.325 447.999 437.751 445.752 441.752 441.751C445.752 437.75 448 432.324 448 426.666V376.533Z" fill="#0089E3"/>
<path d="M64 376.533C64 371.82 67.8205 367.999 72.5333 367.999H183.467C188.179 367.999 192 371.82 192 376.533V426.666C192 432.324 189.752 437.75 185.752 441.751C181.751 445.752 176.325 447.999 170.667 447.999H85.3333C79.6754 447.999 74.2492 445.752 70.2484 441.751C66.2476 437.75 64 432.324 64 426.666V376.533Z" fill="#FF341A"/>
<path d="M256 42.666V170.666C272.974 170.666 289.253 177.409 301.255 189.411C313.257 201.414 320 217.692 320 234.666V327.466C320 332.179 323.821 335.999 328.533 335.999H439.467C444.18 335.999 448 332.179 448 327.466V234.666C448 183.744 427.771 134.908 391.764 98.9015C355.758 62.8945 306.922 42.666 256 42.666Z" fill="#4FB3F6"/>
<path d="M256 42.666V170.666C239.026 170.666 222.747 177.409 210.745 189.411C198.743 201.414 192 217.692 192 234.666V327.466C192 332.179 188.179 335.999 183.467 335.999H72.5333C67.8205 335.999 64 332.179 64 327.466V234.666C64 183.744 84.2285 134.908 120.235 98.9015C156.242 62.8945 205.078 42.666 256 42.666Z" fill="#FF7968"/>
</svg>
