<svg data-fixedcolors="true" viewBox="0 0 512 512" fill="none" xmlns="http://www.w3.org/2000/svg">
<path d="M78.6449 312.925C81.5202 315.8 86.182 315.8 89.0574 312.925L156.738 245.244C159.614 242.369 159.614 237.707 156.738 234.832L126.152 204.245C122.7 200.793 118.018 198.854 113.136 198.854C108.254 198.854 103.573 200.793 100.121 204.245L48.0582 256.307C44.6063 259.759 42.667 264.441 42.667 269.323C42.667 274.205 44.6063 278.886 48.0582 282.338L78.6449 312.925Z" fill="#0089E3"/>
<path d="M312.926 78.6444C315.801 81.5197 315.801 86.1815 312.926 89.0569L245.244 156.738C242.369 159.613 237.707 159.613 234.832 156.738L204.245 126.151C200.793 122.699 198.854 118.017 198.854 113.136C198.854 108.254 200.793 103.572 204.245 100.12L256.308 48.0577C259.76 44.6058 264.442 42.6665 269.323 42.6665C274.205 42.6665 278.887 44.6058 282.339 48.0577L312.926 78.6444Z" fill="#FF341A"/>
<path d="M399.479 399.479L321.386 321.385C311.03 331.741 296.984 337.559 282.339 337.559C267.694 337.559 253.648 331.741 243.292 321.385L186.674 264.767C183.799 261.892 179.137 261.892 176.262 264.767L108.581 332.448C105.705 335.324 105.705 339.986 108.581 342.861L165.199 399.479C196.266 430.546 238.403 448 282.339 448C326.275 448 368.412 430.546 399.479 399.479Z" fill="#4FB3F6"/>
<path d="M399.479 399.479L321.386 321.385C331.742 311.029 337.559 296.984 337.559 282.338C337.559 267.693 331.742 253.647 321.386 243.292L264.768 186.674C261.893 183.798 261.893 179.137 264.768 176.261L332.449 108.58C335.324 105.705 339.986 105.705 342.861 108.58L399.479 165.198C430.547 196.266 448 238.402 448 282.338C448 326.275 430.547 368.411 399.479 399.479Z" fill="#FF7968"/>
</svg>
