<svg xmlns="http://www.w3.org/2000/svg" xmlns:xlink="http://www.w3.org/1999/xlink" viewBox="0 0 24 24">
  <defs>
    <style>
      .b {
        fill: #020a1a;
      }

      .c {
        fill: #ff796b;
      }
    </style>
  </defs>
  <title>physical_education</title>
  <path class="b" d="M21,12a9,9,0,0,1-2,5.62A4.86,4.86,0,0,0,17.6,19,9,9,0,0,1,6.41,19,8,8,0,0,0,5,17.62,9,9,0,0,1,5,6.31,3.27,3.27,0,0,0,6.47,4.91a9,9,0,0,1,11.08,0A6.81,6.81,0,0,0,19,6.31,9,9,0,0,1,21,12Z" />
  <path class="c" d="M6.41,19a10.26,10.26,0,0,0,2.84-7.1,10.26,10.26,0,0,0-2.78-7A9.07,9.07,0,0,0,5,6.31a8.25,8.25,0,0,1,2.21,5.63A8.26,8.26,0,0,1,5,17.62,9,9,0,0,0,6.41,19Z" />
  <path class="c" d="M19,17.62A8.26,8.26,0,0,1,19,6.31a9.06,9.06,0,0,0-1.44-1.4A10.27,10.27,0,0,0,17.6,19,9,9,0,0,0,19,17.62Z" />
</svg>
