<svg xmlns="http://www.w3.org/2000/svg" xmlns:xlink="http://www.w3.org/1999/xlink" preserveAspectRatio="xMidYMid" width="64" height="64" viewBox="0 0 64 64">
<path fill="white" d="M52.000,31.827 C52.000,34.577 48.640,37.007 43.503,38.479 C44.795,43.665 44.378,47.792 42.000,49.166 C39.627,50.538 35.860,48.840 32.029,45.139 C28.062,49.097 24.117,50.943 21.662,49.524 C19.216,48.110 18.832,43.794 20.254,38.403 C15.257,36.925 12.000,34.533 12.000,31.827 C12.000,29.077 15.360,26.647 20.497,25.175 C19.205,19.989 19.622,15.862 22.000,14.488 C24.376,13.114 28.150,14.819 31.987,18.530 C35.734,15.005 39.390,13.414 41.713,14.756 C44.043,16.103 44.491,20.090 43.300,25.125 C48.548,26.591 52.000,29.042 52.000,31.827 ZM40.750,46.999 C42.297,46.105 42.373,43.057 41.246,39.039 C39.765,39.354 38.169,39.589 36.500,39.746 C35.562,41.091 34.590,42.321 33.609,43.440 C36.524,46.435 39.201,47.894 40.750,46.999 ZM39.648,34.570 C39.358,35.118 39.059,35.667 38.742,36.217 C38.571,36.513 38.393,36.795 38.218,37.084 C39.008,36.986 39.779,36.877 40.510,36.746 C40.256,36.040 39.962,35.310 39.648,34.570 ZM40.331,26.884 C39.683,26.771 39.017,26.667 38.324,26.581 C38.563,26.971 38.804,27.357 39.036,27.760 C39.238,28.110 39.416,28.459 39.607,28.809 C39.875,28.150 40.111,27.512 40.331,26.884 ZM24.964,35.894 C24.691,35.422 24.446,34.951 24.194,34.479 C23.863,35.237 23.559,35.982 23.290,36.705 C24.052,36.846 24.848,36.970 25.676,37.073 C25.437,36.683 25.196,36.297 24.964,35.894 ZM25.518,26.599 C24.819,26.689 24.141,26.791 23.490,26.908 C23.712,27.525 23.959,28.157 24.227,28.801 C24.364,28.555 24.491,28.309 24.633,28.062 C24.921,27.562 25.219,27.078 25.518,26.599 ZM27.129,34.643 C27.674,35.589 28.238,36.493 28.809,37.360 C29.845,37.422 30.909,37.458 32.000,37.458 C33.062,37.458 34.090,37.417 35.099,37.358 C35.598,36.587 36.092,35.794 36.571,34.963 C37.206,33.863 37.783,32.770 38.308,31.695 C37.862,30.808 37.392,29.914 36.871,29.011 C36.326,28.065 35.762,27.161 35.191,26.294 C34.155,26.232 33.091,26.196 32.000,26.196 C30.856,26.196 29.751,26.242 28.670,26.310 C28.034,27.262 27.409,28.267 26.804,29.317 C26.352,30.101 25.936,30.879 25.539,31.652 C26.028,32.638 26.548,33.635 27.129,34.643 ZM31.987,41.640 C32.431,41.100 32.876,40.526 33.319,39.928 C32.880,39.940 32.447,39.961 32.000,39.961 C31.539,39.961 31.082,39.952 30.629,39.940 C31.081,40.538 31.535,41.103 31.987,41.640 ZM22.915,47.351 C24.523,48.280 27.348,46.670 30.393,43.449 C29.392,42.336 28.400,41.096 27.441,39.746 C25.705,39.581 24.061,39.322 22.531,38.987 C21.288,43.203 21.316,46.426 22.915,47.351 ZM21.141,27.416 C17.100,28.447 14.500,30.038 14.500,31.827 C14.500,33.584 17.011,35.148 20.932,36.179 C21.430,34.703 22.037,33.174 22.772,31.616 C22.127,30.182 21.582,28.774 21.141,27.416 ZM23.250,16.655 C21.703,17.549 21.627,20.597 22.754,24.615 C24.182,24.312 25.714,24.079 27.319,23.922 C28.307,22.553 29.325,21.292 30.353,20.175 C27.452,17.207 24.792,15.764 23.250,16.655 ZM31.966,21.957 C31.485,22.515 31.002,23.101 30.519,23.730 C31.011,23.715 31.498,23.693 32.000,23.693 C32.461,23.693 32.918,23.702 33.371,23.714 C32.903,23.095 32.434,22.510 31.966,21.957 ZM40.460,16.929 C38.960,16.062 36.403,17.397 33.597,20.193 C34.601,21.309 35.596,22.553 36.559,23.908 C38.138,24.058 39.641,24.287 41.052,24.578 C42.087,20.713 41.969,17.801 40.460,16.929 ZM42.687,27.376 C42.254,28.758 41.699,30.199 41.049,31.666 C41.768,33.227 42.380,34.763 42.859,36.238 C46.900,35.206 49.500,33.616 49.500,31.827 C49.500,30.013 46.828,28.404 42.687,27.376 ZM32.000,29.333 C33.381,29.333 34.500,30.448 34.500,31.823 C34.500,33.198 33.381,34.313 32.000,34.313 C30.619,34.313 29.500,33.198 29.500,31.823 C29.500,30.448 30.619,29.333 32.000,29.333 Z" class="cls-2"/>
</svg>
