<svg data-fixedcolors="true" viewBox="0 0 512 512" fill="none" xmlns="http://www.w3.org/2000/svg">
<g id="politics">
<g id="Vector">
<path d="M128 277.333C116.218 277.333 106.667 286.885 106.667 298.667V362.667C106.667 374.449 116.218 384 128 384C139.782 384 149.333 374.449 149.333 362.667V298.667C149.333 286.885 139.782 277.333 128 277.333Z" fill="#C98600"/>
<path d="M192 298.667C192 286.885 201.551 277.333 213.333 277.333C225.115 277.333 234.667 286.885 234.667 298.667V362.667C234.667 374.449 225.115 384 213.333 384C201.551 384 192 374.449 192 362.667V298.667Z" fill="#C98600"/>
<path d="M298.667 277.333C286.885 277.333 277.333 286.885 277.333 298.667V362.667C277.333 374.449 286.885 384 298.667 384C310.449 384 320 374.449 320 362.667V298.667C320 286.885 310.449 277.333 298.667 277.333Z" fill="#C98600"/>
<path d="M384 277.333C372.218 277.333 362.667 286.885 362.667 298.667V362.667C362.667 374.449 372.218 384 384 384C395.782 384 405.333 374.449 405.333 362.667V298.667C405.333 286.885 395.782 277.333 384 277.333Z" fill="#C98600"/>
<path d="M459.789 256H52.2106C42.5476 256 39.0228 244.475 47.3087 239.972L251.098 129.23C254.115 127.59 257.885 127.59 260.902 129.23L464.691 239.972C472.977 244.475 469.452 256 459.789 256Z" fill="#FBBE2E"/>
<path d="M72.5333 405.333C67.8205 405.333 64 409.154 64 413.867V439.467C64 444.18 67.8205 448 72.5333 448H439.467C444.179 448 448 444.18 448 439.467V413.867C448 409.154 444.179 405.333 439.467 405.333H72.5333Z" fill="#FBBE2E"/>
<path d="M256 64H332.8C337.513 64 341.333 67.8205 341.333 72.5333V98.1333C341.333 102.846 337.513 106.667 332.8 106.667H256V64Z" fill="#163BF3"/>
</g>
</g>
</svg>
