<svg xmlns="http://www.w3.org/2000/svg" xmlns:xlink="http://www.w3.org/1999/xlink" preserveAspectRatio="xMidYMid" width="64" height="64" viewBox="0 0 64 64">
<path fill="white" d="M52.250,45.500 L11.750,45.500 C10.784,45.500 10.000,44.716 10.000,43.750 C10.000,42.784 10.784,42.000 11.750,42.000 L13.025,42.000 C13.147,41.153 13.869,40.500 14.750,40.500 L16.500,40.500 L16.500,25.500 L13.001,25.500 L31.000,14.198 L31.000,12.500 C31.000,11.948 31.448,11.500 32.000,11.500 C32.552,11.500 33.000,11.948 33.000,12.500 L33.000,14.038 L51.999,25.500 L48.500,25.500 L48.500,40.500 L50.250,40.500 C51.131,40.500 51.853,41.153 51.975,42.000 L52.250,42.000 C53.216,42.000 54.000,42.784 54.000,43.750 C54.000,44.716 53.216,45.500 52.250,45.500 ZM20.000,25.500 L27.000,25.500 L27.000,40.500 L20.000,40.500 L20.000,25.500 ZM29.000,25.500 L36.000,25.500 L36.000,40.500 L29.000,40.500 L29.000,25.500 ZM38.000,25.500 L45.000,25.500 L45.000,40.500 L38.000,40.500 L38.000,25.500 Z" class="cls-2"/>
</svg>
