<svg xmlns="http://www.w3.org/2000/svg" xmlns:xlink="http://www.w3.org/1999/xlink" preserveAspectRatio="xMidYMid" width="64" height="64" viewBox="0 0 64 64">
    <path fill="white" d="M52.250,42.500 L51.975,42.500 C51.853,41.653 51.131,41.000 50.250,41.000 L48.500,41.000 L48.500,26.000 L51.999,26.000 L33.000,14.538 L33.000,13.000 C33.000,12.448 32.552,12.000 32.000,12.000 C31.448,12.000 31.000,12.448 31.000,13.000 L31.000,14.698 L13.001,26.000 L16.500,26.000 L16.500,41.000 L14.750,41.000 C13.869,41.000 13.147,41.653 13.025,42.500 L11.750,42.500 C10.784,42.500 10.000,43.284 10.000,44.250 C10.000,45.216 10.784,46.000 11.750,46.000 L52.250,46.000 C53.216,46.000 54.000,45.216 54.000,44.250 C54.000,43.284 53.216,42.500 52.250,42.500 ZM27.000,41.000 L20.000,41.000 L20.000,26.000 L27.000,26.000 L27.000,41.000 ZM36.000,41.000 L29.000,41.000 L29.000,26.000 L36.000,26.000 L36.000,41.000 ZM45.000,41.000 L38.000,41.000 L38.000,26.000 L45.000,26.000 L45.000,41.000 Z" class="cls-2"/>
</svg>
