<svg xmlns="http://www.w3.org/2000/svg" xmlns:xlink="http://www.w3.org/1999/xlink" viewBox="0 0 24 24">
    <defs>
        <style>
            .b {
            fill: #020a1a;
            }

            .c {
            fill: #fff;
            }

            .d {
            fill: #ff796b;
            }
        </style>
    </defs>
    <title>psychology</title>
    <path class="b" d="M3,10.94a9,9,0,0,1,18,0,1,1,0,0,1-1,1H18l0,2.5h0a7.5,7.5,0,0,1-15,.11h0l0-3.64Z" />
    <circle class="c" cx="16.02" cy="9.08" r="0.98" />
    <path class="d" d="M14.71,6.57c1-.72,2-.11,2-1.11S15,4.29,13.93,4.88c-1.5.84-2.43,2.47-2.18,5.41a1.81,1.81,0,0,1-1.8,1.79H8.06A1.69,1.69,0,0,1,6.28,10C6.5,7.48,6,6,5.26,5a8.58,8.58,0,0,0-1.1,1.56c.39.84.46,2.05.18,4.16-.21,1.89,1.71,3.39,3.53,3.39h2.26a3.43,3.43,0,0,0,3.47-3.26C13.55,8.46,13.76,7.31,14.71,6.57Z"
    />
    <path class="d" d="M10,22a7.46,7.46,0,0,1-2-.41V2.87a9,9,0,0,1,2-.71Z" />
</svg>
