<svg xmlns="http://www.w3.org/2000/svg" xmlns:xlink="http://www.w3.org/1999/xlink" viewBox="0 0 24 24">
  <defs>
    <style>
      .b {
        fill: #020a1a;
      }

      .c {
        fill: #ff796b;
      }
    </style>
  </defs>
  <title>psychology</title>
  <path class="b" d="M20.53,8a9,9,0,0,0-7.2-5.9A9.17,9.17,0,0,0,10,2.25C9.65,2.85,8,3,8,3a9.24,9.24,0,0,0-2.72,2.1A2.61,2.61,0,0,1,4.16,6.65,9,9,0,0,0,3,10.94H3l0,3.64a7.55,7.55,0,0,0,5,7A3.85,3.85,0,0,1,10,22h.58A7.5,7.5,0,0,0,18,14.47h0L18,12h2.05a1,1,0,0,0,1-1A9,9,0,0,0,20.53,8ZM16,10.06a1,1,0,1,1,1-1A1,1,0,0,1,16,10.06Z"
  />
  <path class="c" d="M14.71,6.57c1-.72,2-.11,2-1.11S15,4.29,13.93,4.88c-1.5.84-2.43,2.47-2.18,5.41a1.81,1.81,0,0,1-1.8,1.79H8.06A1.69,1.69,0,0,1,6.28,10c.22-2.53-.23-4-1-4.93A8.81,8.81,0,0,0,4.16,6.65c.39.84.46,2,.18,4.08-.21,1.89,1.71,3.39,3.53,3.39h2.26a3.43,3.43,0,0,0,3.47-3.26C13.55,8.46,13.76,7.31,14.71,6.57Z"
  />
  <path class="c" d="M10,22a7.46,7.46,0,0,1-2-.41V3a9,9,0,0,1,2-.73Z" />
</svg>
