<svg xmlns="http://www.w3.org/2000/svg" xmlns:xlink="http://www.w3.org/1999/xlink" preserveAspectRatio="xMidYMid" width="64" height="64" viewBox="0 0 64 64">
<path fill="white" d="M38.478,18.006 C38.478,18.406 38.478,18.799 38.478,19.197 C38.462,19.200 38.447,19.205 38.432,19.206 C37.951,19.225 37.469,19.234 36.989,19.267 C36.582,19.295 36.182,19.376 35.790,19.491 C35.088,19.698 34.679,20.182 34.473,20.855 C34.327,21.330 34.315,21.824 34.314,22.315 C34.312,27.200 34.313,32.085 34.313,36.971 C34.313,37.000 34.313,37.029 34.313,37.074 C34.428,37.066 34.535,37.061 34.643,37.051 C36.088,36.922 37.497,36.653 38.810,36.005 C39.758,35.537 40.493,34.851 40.961,33.898 C41.205,33.403 41.339,32.874 41.431,32.334 C41.603,31.336 41.655,30.329 41.673,29.319 C41.690,28.382 41.690,27.444 41.714,26.507 C41.730,25.894 41.758,25.280 41.812,24.670 C41.873,23.978 41.952,23.286 42.055,22.599 C42.180,21.771 42.390,20.963 42.714,20.186 C43.100,19.259 43.787,18.678 44.734,18.375 C45.311,18.190 45.903,18.087 46.506,18.035 C47.277,17.968 48.047,18.015 48.817,18.031 C49.042,18.035 49.268,18.032 49.500,18.032 C49.500,18.422 49.500,18.783 49.500,19.160 C49.462,19.160 49.423,19.160 49.385,19.160 C48.856,19.160 48.328,19.156 47.800,19.161 C47.400,19.165 47.097,19.356 46.875,19.678 C46.641,20.017 46.540,20.405 46.476,20.804 C46.382,21.391 46.406,21.983 46.404,22.573 C46.398,24.240 46.418,25.907 46.389,27.573 C46.355,29.533 45.956,31.417 45.079,33.186 C44.650,34.050 44.108,34.838 43.387,35.491 C42.929,35.907 42.389,36.198 41.829,36.454 C40.818,36.917 39.756,37.235 38.678,37.504 C37.611,37.769 36.529,37.969 35.442,38.135 C35.071,38.192 34.699,38.236 34.313,38.287 C34.313,38.317 34.313,38.352 34.313,38.387 C34.313,39.951 34.309,41.516 34.314,43.081 C34.316,43.778 34.404,44.464 34.716,45.099 C34.831,45.334 34.983,45.554 35.141,45.764 C35.419,46.134 35.803,46.342 36.254,46.440 C36.784,46.555 37.321,46.614 37.861,46.638 C38.203,46.653 38.544,46.658 38.894,46.669 C38.894,46.942 38.894,47.218 38.894,47.500 C34.301,47.500 29.707,47.500 25.105,47.500 C25.105,47.225 25.105,46.949 25.105,46.667 C25.130,46.665 25.156,46.660 25.181,46.660 C25.816,46.667 26.450,46.642 27.079,46.555 C27.383,46.512 27.685,46.444 27.983,46.369 C28.419,46.260 28.720,45.964 28.978,45.619 C29.328,45.151 29.511,44.615 29.607,44.046 C29.679,43.615 29.688,43.180 29.688,42.744 C29.685,41.299 29.687,39.853 29.687,38.407 C29.687,38.368 29.687,38.329 29.687,38.289 C29.328,38.239 28.976,38.199 28.628,38.140 C27.883,38.014 27.138,37.890 26.397,37.744 C25.331,37.534 24.281,37.257 23.257,36.892 C22.456,36.606 21.678,36.273 20.978,35.782 C20.452,35.413 20.040,34.935 19.668,34.422 C18.906,33.372 18.417,32.196 18.082,30.952 C17.859,30.123 17.705,29.280 17.652,28.424 C17.610,27.753 17.609,27.079 17.605,26.406 C17.596,24.920 17.598,23.435 17.594,21.950 C17.593,21.408 17.578,20.867 17.421,20.343 C17.365,20.158 17.293,19.975 17.201,19.805 C16.965,19.371 16.596,19.147 16.091,19.154 C15.602,19.161 15.114,19.158 14.625,19.160 C14.586,19.160 14.547,19.160 14.500,19.160 C14.500,18.790 14.500,18.429 14.500,18.058 C14.573,18.053 14.648,18.045 14.724,18.043 C15.428,18.028 16.132,17.997 16.836,18.003 C17.692,18.010 18.533,18.130 19.349,18.404 C20.311,18.728 20.963,19.357 21.332,20.294 C21.597,20.966 21.787,21.657 21.904,22.365 C22.008,23.002 22.101,23.642 22.158,24.285 C22.225,25.027 22.263,25.772 22.284,26.517 C22.313,27.553 22.305,28.590 22.331,29.626 C22.354,30.536 22.410,31.445 22.569,32.343 C22.691,33.038 22.880,33.712 23.267,34.314 C23.744,35.056 24.390,35.608 25.179,36.002 C25.964,36.394 26.797,36.639 27.653,36.814 C28.275,36.940 28.903,37.019 29.535,37.067 C29.581,37.070 29.627,37.067 29.687,37.067 C29.687,37.031 29.687,36.996 29.687,36.961 C29.687,32.092 29.688,27.223 29.685,22.355 C29.685,21.873 29.676,21.389 29.545,20.921 C29.379,20.328 29.067,19.837 28.469,19.593 C28.219,19.491 27.954,19.420 27.689,19.366 C27.010,19.227 26.320,19.200 25.628,19.205 C25.595,19.205 25.563,19.205 25.525,19.205 C25.525,18.804 25.525,18.409 25.525,18.006 C29.839,18.006 34.153,18.006 38.478,18.006 Z" class="cls-2"/>
</svg>
