<svg viewBox="0 0 512 512" fill="none" xmlns="http://www.w3.org/2000/svg">
<g id="psychology">
<g id="Vector">
<path d="M396.799 370.658C442.055 337.687 471.466 284.278 471.466 224C471.466 123.853 390.28 42.667 290.133 42.667C195.131 42.667 117.192 115.724 109.434 208.722L65.707 281.6C61.4403 288.64 65.707 298.667 72.5336 298.667H119.466V384C119.466 389.658 121.714 395.085 125.714 399.085C129.715 403.086 135.141 405.334 140.799 405.334H183.466V448H396.799V370.658Z" fill="#133191"/>
<path d="M321.295 258.851C345.821 246.612 362.667 221.274 362.667 192C362.667 150.763 329.237 117.334 288 117.334C246.763 117.334 213.333 150.763 213.333 192C213.333 221.273 230.179 246.612 254.705 258.851L240.322 331.135C239.272 336.413 243.31 341.334 248.691 341.334H327.308C332.689 341.334 336.727 336.413 335.677 331.135L321.295 258.851Z" fill="#FBBE2E"/>
</g>
</g>
</svg>
