<svg xmlns="http://www.w3.org/2000/svg" xmlns:xlink="http://www.w3.org/1999/xlink" preserveAspectRatio="xMidYMid" width="64" height="64" viewBox="0 0 64 64">
  <defs>
    <style>
      .cls-1 {
        fill: #abe3ff;
        fill-opacity: 0.01;
      }

      .cls-2 {
        fill: #fff;
        fill-rule: evenodd;
      }
    </style>
  </defs>
  <g>
    <circle cx="32" cy="32" r="32" class="cls-1"/>
    <path d="M41.872,41.191 C39.512,41.921 38.622,43.605 38.677,46.051 C38.704,47.253 38.518,49.220 37.679,49.682 C36.839,50.144 35.256,50.142 34.383,49.383 C33.510,48.624 33.415,43.238 33.840,39.985 C34.016,38.630 35.285,37.225 36.405,36.217 C38.292,34.518 39.662,33.069 41.767,31.623 C42.294,31.261 43.095,30.571 43.799,31.171 C44.502,31.770 44.020,32.690 43.685,33.224 C43.045,34.243 40.969,35.918 41.941,36.019 C47.349,34.994 46.522,26.993 48.018,26.772 C49.514,26.550 49.393,27.601 49.446,28.202 C49.859,32.901 47.091,39.578 41.872,41.191 ZM32.000,31.958 C26.799,31.958 22.583,27.714 22.583,22.479 C22.583,17.244 26.799,13.000 32.000,13.000 C37.201,13.000 41.417,17.244 41.417,22.479 C41.417,27.714 37.201,31.958 32.000,31.958 ZM30.160,39.985 C30.585,43.238 30.490,48.624 29.617,49.383 C28.744,50.142 27.161,50.144 26.321,49.682 C25.482,49.220 25.296,47.253 25.323,46.051 C25.378,43.605 24.488,41.921 22.128,41.191 C16.909,39.578 14.141,32.901 14.554,28.202 C14.607,27.601 14.486,26.550 15.982,26.772 C17.478,26.993 16.651,34.994 22.059,36.019 C23.031,35.918 20.955,34.243 20.315,33.224 C19.980,32.690 19.498,31.770 20.201,31.171 C20.905,30.571 21.706,31.261 22.233,31.623 C24.338,33.069 25.708,34.518 27.595,36.217 C28.715,37.225 29.984,38.630 30.160,39.985 Z" class="cls-2"/>
  </g>
</svg>
