<svg xmlns="http://www.w3.org/2000/svg" xmlns:xlink="http://www.w3.org/1999/xlink" preserveAspectRatio="xMidYMid" width="64" height="64" viewBox="0 0 64 64">
    <path fill="white" d="M42.247,42.376 C39.797,43.125 38.873,44.854 38.930,47.366 C38.958,48.600 38.765,50.619 37.894,51.094 C37.022,51.568 35.379,51.566 34.472,50.787 C33.566,50.007 33.467,44.478 33.908,41.138 C34.091,39.746 35.409,38.304 36.571,37.269 C38.531,35.525 39.953,34.037 42.138,32.552 C42.685,32.181 43.517,31.472 44.248,32.088 C44.978,32.703 44.477,33.648 44.130,34.196 C43.465,35.242 41.310,36.962 42.319,37.066 C47.934,36.013 47.075,27.799 48.628,27.572 C50.181,27.344 50.056,28.423 50.111,29.040 C50.539,33.864 47.666,40.720 42.247,42.376 ZM31.998,32.896 C26.598,32.896 22.221,28.539 22.221,23.164 C22.221,17.789 26.598,13.432 31.998,13.432 C37.398,13.432 41.775,17.789 41.775,23.164 C41.775,28.539 37.398,32.896 31.998,32.896 ZM30.088,41.138 C30.529,44.478 30.430,50.007 29.524,50.787 C28.618,51.566 26.974,51.568 26.102,51.094 C25.231,50.619 25.038,48.600 25.066,47.366 C25.123,44.854 24.199,43.125 21.749,42.376 C16.331,40.720 13.457,33.864 13.886,29.040 C13.941,28.423 13.815,27.344 15.368,27.572 C16.921,27.799 16.063,36.013 21.677,37.066 C22.686,36.962 20.531,35.242 19.867,34.196 C19.519,33.648 19.019,32.703 19.748,32.088 C20.479,31.472 21.311,32.181 21.858,32.552 C24.043,34.037 25.466,35.525 27.425,37.269 C28.588,38.304 29.905,39.746 30.088,41.138 Z" class="cls-2"/>
</svg>
