<svg data-fixedcolors="true" viewBox="0 0 512 512" fill="none" xmlns="http://www.w3.org/2000/svg">
<g id="religion">
<g id="Vector">
<path d="M460.642 277.588C461.881 277.608 463.102 277.887 464.226 278.405C465.349 278.924 466.35 279.671 467.164 280.597C467.977 281.523 468.585 282.609 468.947 283.783C469.309 284.957 469.418 286.193 469.267 287.412C461.625 338.016 435.893 384.221 396.752 417.619C357.611 451.016 307.664 469.387 256 469.387C204.336 469.387 154.389 451.016 115.248 417.619C76.1074 384.221 50.3747 338.016 42.7328 287.412C42.5814 286.193 42.6905 284.957 43.0529 283.783C43.4152 282.609 44.0228 281.523 44.8362 280.597C45.6496 279.671 46.6506 278.924 47.7742 278.405C48.8978 277.887 50.1189 277.608 51.3583 277.588H460.642Z" fill="#0C114D"/>
<path d="M337.08 150.517C337.572 161.313 335.898 172.098 332.156 182.249C328.414 192.401 322.678 201.717 315.279 209.66C307.88 217.604 298.966 224.016 289.05 228.527C279.134 233.038 268.414 235.559 257.509 235.943C246.614 235.559 235.904 233.037 225.999 228.524C216.095 224.01 207.194 217.594 199.813 209.648C192.431 201.701 186.716 192.383 182.998 182.233C179.28 172.082 177.634 161.302 178.154 150.517C178.154 118.482 215.46 74.9149 238.964 50.5685C241.36 48.0877 244.238 46.1133 247.426 44.7643C250.613 43.4154 254.043 42.72 257.509 42.72C260.976 42.72 264.406 43.4154 267.593 44.7643C270.78 46.1133 273.659 48.0877 276.054 50.5685C299.128 74.9149 337.08 118.482 337.08 150.517Z" fill="#FBBE2E"/>
<path d="M299.128 190.453C299.359 196.081 298.463 201.698 296.494 206.982C294.524 212.265 291.518 217.111 287.65 221.239C283.782 225.368 279.128 228.698 273.955 231.038C268.782 233.378 263.193 234.682 257.509 234.875C251.807 234.71 246.195 233.426 240.997 231.098C235.8 228.771 231.12 225.445 227.229 221.313C223.338 217.182 220.314 212.327 218.33 207.03C216.347 201.732 215.445 196.098 215.675 190.453C215.675 165.893 257.509 128.092 257.509 128.092C257.509 128.092 299.128 165.893 299.128 190.453Z" fill="#C98600"/>
</g>
</g>
</svg>
