<svg xmlns="http://www.w3.org/2000/svg" xmlns:xlink="http://www.w3.org/1999/xlink" viewBox="0 0 24 24">
    <defs>
        <style>
            .b {
            fill: #020a1a;
            }

            .c {
            fill: #abe1ff;
            }
        </style>
    </defs>
    <title>rpa-lang</title>
    <path class="b" d="M21,4H3A1,1,0,0,0,2,5V20.8a.5.5,0,0,0,.85.35L7,17H21a1,1,0,0,0,1-1V5A1,1,0,0,0,21,4Z" />
    <path class="c" d="M6.86,12.44,9.44,9a.25.25,0,0,0-.2-.4h-2a.5.5,0,0,1-.5-.5V7.53a.5.5,0,0,1,.5-.5h4.35a.5.5,0,0,1,.5.5V8.3a.5.5,0,0,1-.1.3L9.43,12a.25.25,0,0,0,.2.4h2.06a.5.5,0,0,1,.5.5v.57a.5.5,0,0,1-.5.5H7.26a.5.5,0,0,1-.5-.5v-.77A.5.5,0,0,1,6.86,12.44Z"
    />
    <path class="c" d="M19.9,13.31l-2.26-6A.5.5,0,0,0,17.17,7H15.6a.5.5,0,0,0-.47.32l-2.25,6a.5.5,0,0,0,.47.68h.95a.61.61,0,0,0,.52-.42L15,13h2.75s.1.32.19.56a.67.67,0,0,0,.56.45h.91A.5.5,0,0,0,19.9,13.31Zm-3.32-1.9H16.2a.5.5,0,0,1-.47-.66s.43-2,.67-2,.67,2,.67,2A.5.5,0,0,1,16.58,11.41Z"
    />
</svg>
