<svg data-fixedcolors="true" viewBox="0 0 512 512" fill="none" xmlns="http://www.w3.org/2000/svg">
<g id="russian">
<g id="Vector">
<path d="M469.315 239.334C469.523 225.001 467.947 210.698 464.624 196.754C457.512 170.328 445.092 145.623 428.121 124.139C411.149 102.655 389.979 84.8412 365.898 71.7798C337.096 55.6795 305.146 45.9923 272.241 43.3831C239.336 40.7739 206.255 45.3044 175.269 56.6638C132.661 73.4458 96.4616 103.255 71.8512 141.825C59.1739 160.275 50.2617 181.038 45.6237 202.928C41.6809 224.966 41.6809 247.528 45.6237 269.566C53.7347 314.129 76.9179 354.562 111.299 384.108C116.494 388.646 121.978 392.842 127.718 396.669C131.578 398.759 134.871 401.755 137.313 405.398C139.336 410.896 139.336 416.932 137.313 422.43C134.131 436.007 129.705 449.262 124.093 462.03C124.093 464.159 122.174 466.714 124.093 468.417C125.298 469.174 126.735 469.476 128.144 469.269C153.059 469.652 177.227 460.774 195.952 444.359C198.536 441.812 201.481 439.66 204.695 437.972C209.528 436.798 214.574 436.798 219.407 437.972C252.715 442.239 286.552 439.314 318.631 429.397C350.709 419.48 380.28 402.801 405.346 380.488C424.964 362.462 440.741 340.671 451.732 316.418C462.723 292.165 468.704 265.948 469.315 239.334Z" fill="#0C114D"/>
<path fill-rule="evenodd" clip-rule="evenodd" d="M183.769 268.44H164.968V306.67C164.968 312.408 160.394 317.059 154.751 317.059H138.402C132.759 317.059 128.185 312.408 128.185 306.67V182.006C128.185 176.269 132.759 171.618 138.402 171.618H199.708C212.779 170.543 225.679 175.194 235.164 184.402C244.649 193.609 249.816 206.496 249.366 219.821C249.861 235.608 242.082 250.477 228.93 258.882C224.148 261.693 222.428 267.859 225.048 272.803L240.578 301.268C242.313 304.491 242.244 308.406 240.397 311.564C238.55 314.722 235.2 316.653 231.587 316.643H213.195C209.288 316.651 205.719 314.393 203.999 310.826L183.769 268.44ZM193.985 204.654H175.389C169.746 204.654 165.172 209.305 165.172 215.043V225.431C165.497 230.924 169.977 235.206 175.389 235.197H194.19C200.263 236.208 206.35 233.479 209.711 228.237C213.072 222.996 213.072 216.231 209.711 210.99C206.35 205.748 200.058 203.642 193.985 204.654Z" fill="#FEDD8E"/>
<path d="M292.075 172.862H275.113C269.701 172.852 265.221 177.135 264.896 182.628V258.465C264.896 295.241 286.966 320.797 332.536 320.797C378.107 320.797 399.768 294.617 399.768 258.465V182.628C399.768 176.89 395.193 172.239 389.55 172.239H372.794C367.151 172.239 362.576 176.89 362.576 182.628V257.841C363.096 266.003 360.06 273.983 354.275 279.665C348.49 285.347 340.54 288.156 332.536 287.345C324.482 288.298 316.43 285.544 310.579 279.837C304.728 274.129 301.689 266.063 302.292 257.841V183.251C302.292 177.513 297.718 172.862 292.075 172.862Z" fill="#FEDD8E"/>
</g>
</g>
</svg>
