<svg xmlns="http://www.w3.org/2000/svg" xmlns:xlink="http://www.w3.org/1999/xlink" viewBox="0 0 24 24">
    <defs>
        <style>
            .a {
                fill: none;
            }

            .b {
                fill: #ff796b;
            }

            .c {
                fill: #020a1a;
            }
        </style>
    </defs>
    <title>russian_alt</title>
    <path class="b" d="M6.76,2H21.31a.73.73,0,0,1,.73.73v7.83A1.46,1.46,0,0,1,20.58,12H7.49A1.46,1.46,0,0,1,6,10.54V2.71A.73.73,0,0,1,6.76,2Z" />
    <circle class="a" cx="5.71" cy="15.15" r="0.76" />
    <path class="c" d="M9.38,17,6.86,7.13a.42.42,0,0,0-.41-.33A.43.43,0,0,0,6,7.22L5.71,13.7,5.39,7.22A.43.43,0,0,0,5,6.8a.42.42,0,0,0-.41.33L2,17a.73.73,0,0,0,.2.73,8.24,8.24,0,0,1,2,4.31h3a8.24,8.24,0,0,1,2-4.31A.73.73,0,0,0,9.38,17Zm-3.67-.8a1,1,0,1,1,1-1A1,1,0,0,1,5.71,16.15Z"
    />
    <path class="c" d="M10.35,3.73H8.51a.5.5,0,0,0-.5.5V8.12a.23.23,0,0,0,.22.28h.71a.27.27,0,0,0,.28-.23V7.11c0-.15,0-.28.18-.28h1A1.51,1.51,0,0,0,12,5.28,1.51,1.51,0,0,0,10.35,3.73Zm-.16,2.05H9.36c-.06,0-.13,0-.14-.16V5c0-.14,0-.22.19-.21h.79a.5.5,0,1,1,0,1Z"
    />
    <path class="c" d="M16.26,3.73h-.8A.5.5,0,0,0,15,4l-.43.92c-.3.77-.66.71-.91,0L13.25,4a.5.5,0,0,0-.45-.29H12a.23.23,0,0,0-.1.27l1.51,3h0a.21.21,0,0,1,0,.13.56.56,0,0,1-.54.3.93.93,0,0,1-.47-.16.18.18,0,0,0-.2.06l-.31.6c0,.17,0,.29.11.32h0a2.13,2.13,0,0,0,1,.22,1.69,1.69,0,0,0,1.63-1L16.36,4C16.41,3.84,16.35,3.76,16.26,3.73Z"
    />
    <path class="c" d="M20.45,7.15l-.74-.35c-.08-.05-.15-.05-.21.06a1.11,1.11,0,0,1-.92.55,1.29,1.29,0,0,1-1.3-1.35,1.29,1.29,0,0,1,1.3-1.35,1.1,1.1,0,0,1,.9.5.23.23,0,0,0,.31.08L20.44,5a.22.22,0,0,0,.05-.31,2.13,2.13,0,0,0-1.91-1,2.39,2.39,0,0,0-2.53,2.42,2.39,2.39,0,0,0,2.53,2.42,2.15,2.15,0,0,0,1.92-1C20.62,7.28,20.58,7.19,20.45,7.15Z"
    />
</svg>
