<svg xmlns="http://www.w3.org/2000/svg" xmlns:xlink="http://www.w3.org/1999/xlink" viewBox="0 0 24 24">
    <defs>
        <style>
            .b {
            fill: #020a1a;
            }

            .c {
            fill: #abe1ff;
            }
        </style>
    </defs>
    <title>russian</title>
    <path class="b" d="M21,4H3A1,1,0,0,0,2,5V20.75a.5.5,0,0,0,.85.35L7,17H21a1,1,0,0,0,1-1V5A1,1,0,0,0,21,4Z" />
    <path class="c" d="M9.39,11.6H8.47v1.84a.5.5,0,0,1-.5.5h-.8a.5.5,0,0,1-.5-.5v-6a.5.5,0,0,1,.5-.5h3a2.25,2.25,0,0,1,2.43,2.32,2.14,2.14,0,0,1-1,1.88.5.5,0,0,0-.19.67l.76,1.37a.5.5,0,0,1-.44.74h-.9a.5.5,0,0,1-.45-.28Zm.5-3.07H9a.5.5,0,0,0-.5.5v.5A.5.5,0,0,0,9,10h.92a.76.76,0,1,0,0-1.5Z"
    />
    <path class="c" d="M14.07,7h.83a.5.5,0,0,1,.5.5v3.59a1.33,1.33,0,0,0,1.48,1.42,1.34,1.34,0,0,0,1.47-1.42V7.47a.5.5,0,0,1,.5-.5h.82a.5.5,0,0,1,.5.5v3.65c0,1.74-1.06,3-3.29,3s-3.31-1.23-3.31-3V7.47A.5.5,0,0,1,14.07,7Z" />
</svg>
