<svg xmlns="http://www.w3.org/2000/svg" xmlns:xlink="http://www.w3.org/1999/xlink" viewBox="0 0 24 24">
    <defs>
        <style>
            .b {
            fill: #57b2f8;
            }

            .c {
            fill: #ff796b;
            }

            .d {
            fill: #020a1a;
            }
        </style>
    </defs>
    <title>science</title>
    <path class="b" d="M8.52,2h0A1.5,1.5,0,0,1,10,3.51v6a.5.5,0,0,1-.5.5h-2a.5.5,0,0,1-.5-.5v-6A1.5,1.5,0,0,1,8.52,2Z" />
    <rect class="c" x="7.02" y="11.01" width="3" height="1.96" rx="0.98" ry="0.98" />
    <path class="d" d="M18,20H16.09a7.47,7.47,0,0,0-.48-13.24,7.36,7.36,0,0,0-4.16-.7.5.5,0,0,0-.43.5v1a.49.49,0,0,0,.55.5,5.5,5.5,0,0,1,2,10.82L11,16h0a1,1,0,1,0,0-2H7a1,1,0,0,0,0,2H7.9l3.56,4H5a1,1,0,0,0,0,2H18a1,1,0,0,0,0-2Z" />
</svg>
