<svg xmlns="http://www.w3.org/2000/svg" xmlns:xlink="http://www.w3.org/1999/xlink" preserveAspectRatio="xMidYMid" width="64" height="64" viewBox="0 0 64 64">
<path fill="white" d="M48.500,48.000 C48.500,49.657 47.157,51.000 45.500,51.000 L19.500,51.000 C17.843,51.000 16.500,49.657 16.500,48.000 C16.500,46.343 17.843,45.000 19.500,45.000 L32.806,45.000 C36.877,44.181 40.388,41.194 41.534,36.860 C42.772,32.182 40.958,27.417 37.341,24.693 L31.001,35.817 L32.807,36.873 L31.138,39.801 L29.332,38.744 L29.332,38.744 L27.164,37.476 L25.496,40.404 L22.967,38.925 L24.635,35.998 L22.829,34.941 L22.829,34.941 L21.725,34.296 L22.829,34.941 L21.786,36.771 L19.257,35.292 L20.300,33.462 L18.494,32.406 L20.162,29.478 L24.498,32.014 L31.798,19.205 C32.323,18.285 33.213,17.724 34.175,17.571 L36.845,12.886 L36.122,12.464 L36.956,11.000 L42.737,14.380 L41.903,15.844 L37.301,13.153 L41.180,15.422 L38.646,19.867 C45.000,23.440 48.407,31.030 46.441,38.462 C45.776,40.979 44.557,43.186 42.956,45.000 L45.500,45.000 C47.157,45.000 48.500,46.343 48.500,48.000 Z" class="cls-2"/>
</svg>
