<svg viewBox="0 0 512 512" fill="none" xmlns="http://www.w3.org/2000/svg">
<g id="security">
<g id="Vector">
<path d="M447.991 276.853V130.877C448.047 129.573 447.842 128.27 447.389 127.046C446.936 125.822 446.245 124.702 445.354 123.75C444.464 122.798 443.393 122.034 442.204 121.503C441.016 120.973 439.734 120.685 438.433 120.659C369.034 120.659 324.568 91.0466 261.402 45.7941C260.034 44.1339 258.117 43.0236 256 42.666V469.333C257.381 469.311 258.736 468.954 259.948 468.29C267.844 464.536 447.991 375.908 447.991 276.853Z" fill="#FBBE2E"/>
<path d="M64.0089 276.853V130.877C63.9533 129.573 64.1579 128.27 64.6107 127.046C65.0636 125.822 65.7554 124.702 66.6458 123.75C67.5362 122.798 68.6071 122.034 69.7956 121.503C70.9841 120.973 72.2663 120.685 73.5669 120.659C142.966 120.659 187.432 91.0466 250.598 45.7941C251.966 44.1339 253.883 43.0236 256 42.666V469.333C254.619 469.311 253.264 468.954 252.052 468.29C244.156 464.536 64.0089 375.908 64.0089 276.853Z" fill="#FBBE2E"/>
<path d="M322.944 216.626H302.489V189.968C301.596 178.487 296.23 167.813 287.54 160.23C278.851 152.648 267.53 148.76 256.001 149.401C244.473 148.76 233.152 152.648 224.463 160.23C215.773 167.813 210.407 178.487 209.513 189.968V216.626H189.059C181.393 216.626 174.038 219.647 168.595 225.031C163.153 230.415 160.065 237.726 160.004 245.37V333.226C159.942 337.07 160.648 340.888 162.081 344.457C163.513 348.027 165.643 351.276 168.348 354.016C171.052 356.756 174.276 358.932 177.831 360.417C181.387 361.902 185.204 362.667 189.059 362.666H322.944C330.65 362.666 338.04 359.613 343.489 354.179C348.938 348.745 351.999 341.375 351.999 333.69V245.834C352.03 242.009 351.301 238.216 349.854 234.674C348.408 231.132 346.273 227.91 343.572 225.195C340.871 222.479 337.657 220.324 334.117 218.853C330.577 217.383 326.779 216.626 322.944 216.626ZM256.001 316.768C251.404 316.768 246.91 315.408 243.088 312.861C239.265 310.314 236.286 306.693 234.527 302.458C232.767 298.222 232.307 293.561 233.204 289.064C234.101 284.568 236.315 280.437 239.565 277.195C242.816 273.953 246.958 271.746 251.467 270.851C255.976 269.957 260.649 270.416 264.897 272.17C269.144 273.925 272.774 276.896 275.328 280.708C277.882 284.52 279.245 289.002 279.245 293.587C279.245 299.735 276.796 305.631 272.437 309.978C268.078 314.325 262.166 316.768 256.001 316.768ZM281.802 189.968V216.626H230.201V189.968C230.431 186.855 231.289 183.822 232.724 181.048C234.158 178.274 236.139 175.818 238.549 173.827C240.958 171.835 243.746 170.35 246.745 169.458C249.744 168.567 252.892 168.289 256.001 168.641C259.111 168.289 262.259 168.567 265.258 169.458C268.257 170.35 271.045 171.835 273.454 173.827C275.863 175.818 277.845 178.274 279.279 181.048C280.714 183.822 281.572 186.855 281.802 189.968Z" fill="#0C114D"/>
</g>
</g>
</svg>
