<svg xmlns="http://www.w3.org/2000/svg" xmlns:xlink="http://www.w3.org/1999/xlink" viewBox="0 0 24 24">
    <defs>
        <style>
            .b {
            fill: #020a1a;
            }

            .c {
            fill: #fff;
            }

            .d {
            fill: #57b2f8;
            }

            .e {
            fill: #ff796b;
            }
        </style>
    </defs>
    <title>skills</title>
    <path class="b" d="M20.16,4.22a1.17,1.17,0,0,0-2.05-.78l-4.42,5h0L7.32,15.6A1,1,0,0,0,7.44,17l.24.19a1,1,0,0,0,1.38-.11l7.63-8.59h0l3.23-3.64a1,1,0,0,0,.25-.66Z" />
    <path class="b" d="M10.45,8.43h0l-4.39-5A1.17,1.17,0,0,0,4,4.16H4a1,1,0,0,0,.25.66l3.2,3.7h0l7.36,8.28a1,1,0,0,0,1.28.18l.26-.16a1,1,0,0,0,.21-1.51Z" />
    <circle class="c" cx="12.08" cy="11.99" r="1" />
    <path class="d" d="M17.84,15a3.5,3.5,0,1,0,3.5,3.5A3.5,3.5,0,0,0,17.84,15Zm0,5a1.5,1.5,0,1,1,1.5-1.5A1.5,1.5,0,0,1,17.86,20Z" />
    <path class="e" d="M6.21,15a3.5,3.5,0,1,0,3.5,3.5A3.5,3.5,0,0,0,6.21,15Zm0,5a1.5,1.5,0,1,1,1.5-1.5A1.5,1.5,0,0,1,6.24,20Z" />
</svg>
