<svg viewBox="0 0 512 512" fill="none" xmlns="http://www.w3.org/2000/svg">
<g id="skills">
<g id="Vector">
<path fill-rule="evenodd" clip-rule="evenodd" d="M109.255 133.177C84.2612 108.183 84.2612 67.6605 109.255 42.667L259.422 192.835L409.59 42.667C434.584 67.6605 434.584 108.183 409.59 133.177L304.677 238.09L366.957 300.369C372.464 299.253 378.163 298.667 384 298.667C431.128 298.667 469.333 336.872 469.333 384C469.333 431.128 431.128 469.333 384 469.333C336.872 469.333 298.667 431.128 298.667 384C298.667 366.552 303.903 350.328 312.89 336.812L259.422 283.344L201.739 341.027C209.11 353.648 213.333 368.331 213.333 384C213.333 431.128 175.128 469.333 128 469.333C80.8717 469.333 42.6666 431.128 42.6666 384C42.6666 336.872 80.8717 298.667 128 298.667C136.415 298.667 142.083 299.334 150.75 301.584L214.168 238.09L109.255 133.177ZM170.667 384C170.667 407.565 151.564 426.667 128 426.667C104.436 426.667 85.3333 407.565 85.3333 384C85.3333 360.436 104.436 341.334 128 341.334C151.564 341.334 170.667 360.436 170.667 384ZM426.667 384C426.667 407.565 407.564 426.667 384 426.667C360.436 426.667 341.333 407.565 341.333 384C341.333 360.436 360.436 341.334 384 341.334C407.564 341.334 426.667 360.436 426.667 384Z" fill="#FBBE2E"/>
<path fill-rule="evenodd" clip-rule="evenodd" d="M306.417 236.25L367.061 300.348C372.536 299.246 378.2 298.667 384 298.667C431.128 298.667 469.333 336.872 469.333 384C469.333 431.128 431.128 469.333 384 469.333C336.872 469.333 298.667 431.128 298.667 384C298.667 366.511 303.928 350.251 312.954 336.716L259.5 283.334L306.417 236.25ZM426.667 384C426.667 407.565 407.564 426.667 384 426.667C360.436 426.667 341.333 407.565 341.333 384C341.333 360.436 360.436 341.334 384 341.334C407.564 341.334 426.667 360.436 426.667 384Z" fill="#8D1A00"/>
<path fill-rule="evenodd" clip-rule="evenodd" d="M201.739 341.027L259.5 283.334L212.583 236.25L150.654 301.707C143.44 299.725 135.843 298.667 128 298.667C80.8717 298.667 42.6666 336.872 42.6666 384C42.6666 431.128 80.8717 469.333 128 469.333C175.128 469.333 213.333 431.128 213.333 384C213.333 368.331 209.11 353.648 201.739 341.027ZM170.667 384C170.667 407.565 151.564 426.667 128 426.667C104.436 426.667 85.3333 407.565 85.3333 384C85.3333 360.436 104.436 341.334 128 341.334C151.564 341.334 170.667 360.436 170.667 384Z" fill="#8D1A00"/>
</g>
</g>
</svg>
