<svg xmlns="http://www.w3.org/2000/svg" xmlns:xlink="http://www.w3.org/1999/xlink" preserveAspectRatio="xMidYMid" width="64" height="64" viewBox="0 0 64 64">
<path fill="white" d="M12.597,25.746 C11.855,26.765 11.594,27.942 11.861,29.062 C12.065,30.211 12.744,31.234 13.772,31.944 C14.809,32.661 16.077,32.950 17.251,32.737 C17.820,32.679 18.397,32.585 19.007,32.485 C21.290,32.114 23.877,31.693 27.150,33.019 L28.714,33.653 L28.506,35.122 C28.011,38.619 26.348,40.646 24.881,42.433 C24.488,42.912 24.118,43.364 23.782,43.826 C23.008,44.735 22.622,45.976 22.721,47.234 C22.819,48.479 23.363,49.579 24.254,50.333 C25.089,51.126 26.238,51.491 27.492,51.360 C28.655,51.240 29.777,50.701 30.571,49.882 C31.490,49.053 32.075,47.799 32.138,46.524 C32.192,45.410 31.844,44.388 31.156,43.646 C30.122,42.529 29.523,42.403 29.085,42.311 C28.855,42.262 28.717,42.233 28.545,42.066 C28.278,41.806 28.874,40.860 29.630,39.660 C30.401,38.436 31.455,36.761 32.466,34.535 L47.040,35.847 L47.060,35.848 C49.793,35.912 51.891,34.833 52.970,32.810 L53.177,32.421 L34.311,30.390 L42.087,12.911 L41.647,12.896 C39.356,12.813 37.369,14.087 36.053,16.482 L29.798,29.905 L29.702,29.894 L29.700,29.894 C27.242,29.645 25.247,29.717 23.790,29.770 C22.373,29.821 21.255,29.864 21.164,29.501 C21.106,29.268 21.150,29.134 21.224,28.911 C21.363,28.486 21.555,27.904 21.109,26.449 C20.812,25.482 20.103,24.668 19.112,24.156 C17.978,23.570 16.599,23.447 15.422,23.825 C14.314,24.101 13.285,24.801 12.597,25.746 ZM17.352,25.692 C18.469,25.989 19.286,26.925 19.433,28.077 C19.561,29.078 19.144,29.959 18.318,30.433 L18.302,30.443 C17.438,31.010 16.175,31.008 15.159,30.437 C14.692,30.174 14.334,29.829 14.103,29.429 C13.888,29.056 13.783,28.637 13.802,28.195 L13.802,28.171 C13.776,27.466 14.106,26.803 14.731,26.305 C15.480,25.709 16.509,25.468 17.352,25.692 ZM26.294,44.069 L26.310,44.060 C27.135,43.584 28.106,43.665 28.907,44.278 C29.830,44.984 30.229,46.160 29.926,47.275 C29.696,48.117 28.972,48.886 28.079,49.234 C27.335,49.525 26.597,49.477 26.000,49.101 L25.979,49.089 C25.588,48.884 25.280,48.585 25.066,48.214 C24.834,47.813 24.714,47.328 24.721,46.791 C24.737,45.625 25.369,44.531 26.294,44.069 Z" class="cls-2"/>
</svg>
