<svg xmlns="http://www.w3.org/2000/svg" xmlns:xlink="http://www.w3.org/1999/xlink" preserveAspectRatio="xMidYMid" width="64" height="64" viewBox="0 0 64 64">
<path fill="white" d="M32.000,16.000 C37.801,16.000 42.504,20.384 42.504,25.791 C42.504,29.432 39.002,37.199 36.681,42.532 C35.280,45.752 34.200,48.000 32.000,48.000 C29.682,48.000 28.565,45.308 27.227,42.388 C24.807,37.108 21.496,29.397 21.496,25.791 C21.496,20.384 26.199,16.000 32.000,16.000 ZM32.000,21.000 C34.900,21.000 37.252,23.239 37.252,26.000 C37.252,28.761 34.900,31.000 32.000,31.000 C29.099,31.000 26.748,28.761 26.748,26.000 C26.748,23.239 29.099,21.000 32.000,21.000 Z" class="cls-2"/>
</svg>
