<svg viewBox="0 0 512 512" fill="none" xmlns="http://www.w3.org/2000/svg">
<g id="sociology">
<g id="Vector">
<path d="M469.333 256C469.333 162.773 373.973 128 256 128C138.027 128 42.6666 162.773 42.6666 256C42.6666 349.227 138.027 384 256 384C373.973 384 469.333 349.227 469.333 256Z" fill="#4FB3F6"/>
<path d="M256 362.453C314.91 362.453 362.667 314.793 362.667 256C362.667 197.207 314.91 149.547 256 149.547C197.09 149.547 149.333 197.207 149.333 256C149.333 314.793 197.09 362.453 256 362.453Z" fill="#EBEEFF"/>
<path d="M256 298.667C279.564 298.667 298.667 279.564 298.667 256C298.667 232.436 279.564 213.333 256 213.333C232.436 213.333 213.333 232.436 213.333 256C213.333 279.564 232.436 298.667 256 298.667Z" fill="#0C114D"/>
</g>
</g>
</svg>
