<svg xmlns="http://www.w3.org/2000/svg" xmlns:xlink="http://www.w3.org/1999/xlink" preserveAspectRatio="xMidYMid" width="64" height="64" viewBox="0 0 64 64">
    <path fill="white" d="M32.000,16.000 C26.477,16.000 22.000,20.384 22.000,25.791 C22.000,29.397 25.152,37.108 27.456,42.388 C28.730,45.308 29.793,48.000 32.000,48.000 C34.095,48.000 35.123,45.752 36.457,42.532 C38.666,37.199 42.000,29.432 42.000,25.791 C42.000,20.384 37.523,16.000 32.000,16.000 ZM32.000,31.000 C29.238,31.000 27.000,28.761 27.000,26.000 C27.000,23.239 29.238,21.000 32.000,21.000 C34.761,21.000 37.000,23.239 37.000,26.000 C37.000,28.761 34.761,31.000 32.000,31.000 Z" class="cls-2"/>
</svg>
