<svg xmlns="http://www.w3.org/2000/svg" xmlns:xlink="http://www.w3.org/1999/xlink" viewBox="0 0 24 24">
    <defs>
        <style>
            .b {
            fill: #020a1a;
            }

            .c {
            fill: #ff796b;
            }

            .d {
            fill: #53cf92;
            }

            .e {
            fill: #fec83c;
            }

            .f {
            fill: #57b2f8;
            }
        </style>
    </defs>
    <title>sociology</title>
    <circle class="b" cx="12" cy="14" r="2" />
    <path class="b" d="M15,18.9a3,3,0,0,0-6,0H9V21a1,1,0,0,0,1,1h4a1,1,0,0,0,1-1V18.9Z" />
    <circle class="b" cx="19" cy="9" r="2" />
    <circle class="b" cx="12" cy="4" r="2" />
    <path class="b" d="M22,13.9a3,3,0,0,0-6,0h0V16a1,1,0,0,0,1,1h4a1,1,0,0,0,1-1V13.9Z" />
    <circle class="b" cx="5" cy="9" r="2" />
    <path class="b" d="M8,13.9a3,3,0,0,0-6,0H2V16a1,1,0,0,0,1,1H7a1,1,0,0,0,1-1V13.9Z" />
    <circle class="c" cx="7.5" cy="6.5" r="0.5" />
    <circle class="d" cx="8.03" cy="10.5" r="0.5" />
    <circle class="e" cx="15.96" cy="10.5" r="0.5" />
    <circle class="d" cx="9.5" cy="11.49" r="0.5" />
    <circle class="e" cx="14.5" cy="11.49" r="0.5" />
    <circle class="f" cx="16.5" cy="6.5" r="0.5" />
    <circle class="c" cx="9" cy="5.5" r="0.5" />
    <circle class="f" cx="15" cy="5.5" r="0.5" />
</svg>
