<svg xmlns="http://www.w3.org/2000/svg" xmlns:xlink="http://www.w3.org/1999/xlink" preserveAspectRatio="xMidYMid" width="64" height="64" viewBox="0 0 64 64">
<path fill="white" d="M42.303,42.287 C42.391,41.906 42.442,41.512 42.442,41.101 C42.442,39.706 41.902,38.426 40.883,37.311 C43.194,36.655 45.144,34.436 45.144,33.666 C45.144,33.626 45.133,33.588 45.123,33.549 C48.434,34.370 50.667,35.908 50.667,37.673 C50.667,39.903 47.104,41.770 42.303,42.287 ZM39.622,33.551 C38.173,33.551 36.845,32.933 35.801,31.851 C36.329,30.341 36.624,28.655 36.624,26.846 C36.624,24.335 36.064,22.107 35.062,20.303 C36.176,18.807 37.803,17.994 39.622,17.994 C42.977,17.994 45.696,20.739 45.696,25.495 C45.696,30.251 42.977,33.551 39.622,33.551 ZM26.928,36.276 C23.001,36.276 19.818,32.413 19.818,26.846 C19.818,21.279 23.001,18.067 26.928,18.067 C30.855,18.067 34.038,21.279 34.038,26.846 C34.038,32.413 30.855,36.276 26.928,36.276 ZM20.464,36.411 C20.464,37.473 23.633,40.901 26.928,40.901 C30.223,40.901 33.392,37.473 33.392,36.411 C33.392,36.364 33.378,36.319 33.367,36.274 C37.242,37.236 39.856,39.035 39.856,41.101 C39.856,44.179 34.068,46.674 26.928,46.674 C19.788,46.674 14.000,44.179 14.000,41.101 C14.000,39.035 16.614,37.235 20.489,36.274 C20.478,36.319 20.464,36.364 20.464,36.411 Z" class="cls-2"/>
</svg>
