<svg data-fixedcolors="true" viewBox="0 0 512 512" fill="none" xmlns="http://www.w3.org/2000/svg">
<g id="spanish">
<g id="Vector">
<path d="M469.315 239.334C469.523 225.001 467.947 210.698 464.624 196.754C457.512 170.328 445.092 145.623 428.121 124.139C411.149 102.655 389.979 84.8412 365.898 71.7798C337.096 55.6795 305.146 45.9923 272.241 43.3831C239.336 40.7739 206.255 45.3044 175.269 56.6638C132.661 73.4458 96.4616 103.255 71.8512 141.825C59.1739 160.275 50.2617 181.038 45.6237 202.928C41.6809 224.966 41.6809 247.528 45.6237 269.566C53.7347 314.129 76.9179 354.562 111.299 384.108C116.494 388.646 121.978 392.842 127.718 396.669C131.578 398.759 134.871 401.755 137.313 405.398C139.336 410.896 139.336 416.932 137.313 422.43C134.131 436.007 129.705 449.262 124.093 462.03C124.093 464.159 122.174 466.714 124.093 468.417C125.298 469.174 126.735 469.476 128.144 469.269C153.059 469.652 177.227 460.774 195.952 444.359C198.536 441.812 201.481 439.66 204.695 437.972C209.528 436.798 214.574 436.798 219.407 437.972C252.715 442.239 286.552 439.314 318.631 429.397C350.709 419.48 380.28 402.801 405.346 380.488C424.964 362.462 440.741 340.671 451.732 316.418C462.723 292.165 468.704 265.948 469.315 239.334Z" fill="#0C114D"/>
<path fill-rule="evenodd" clip-rule="evenodd" d="M278.808 275.764C276.115 276.195 273.702 277.699 272.102 279.944L264.312 290.79C262.733 293.113 262.126 295.979 262.626 298.757C263.126 301.535 264.691 303.997 266.977 305.599C283.284 316.98 302.773 322.687 322.532 321.869C361.687 321.869 382.187 302.471 382.187 273.27C382.187 239.062 349.592 231.762 326.017 226.756C312.282 223.419 301.417 220.082 301.417 214.033C301.417 207.984 306.132 203.604 316.792 203.604C328.837 203.663 340.65 206.974 351.027 213.199C355.335 216.09 361.096 215.188 364.352 211.113L372.552 200.267C374.296 197.85 374.957 194.796 374.371 191.857C373.786 188.918 372.008 186.367 369.477 184.832C354.782 175.776 337.863 171.147 320.687 171.483C284.197 171.483 263.697 193.383 263.697 217.787C263.697 253.417 296.25 260.039 319.79 264.827L320.277 264.926C334.012 267.846 344.672 270.767 344.672 277.858C344.672 284.95 336.882 289.956 324.172 289.956C310.639 289.99 297.441 285.684 286.452 277.65C284.252 276.012 281.501 275.333 278.808 275.764ZM233.972 206.941H181.287C167.347 206.941 167.347 236.142 181.492 235.725H211.832C212.846 235.725 214.143 235.66 215.59 235.587C222.329 235.248 232.332 234.746 232.332 239.897C232.974 243.833 232.974 247.85 232.332 251.786C232.332 257 217.572 257 211.832 257H181.287C165.912 257 165.707 286.827 181.287 286.827H233.562C239.222 286.827 243.812 291.496 243.812 297.256V309.145C243.812 314.905 239.222 319.574 233.562 319.574H149.102C143.52 319.575 138.963 315.032 138.852 309.354V184.206C138.852 178.446 143.441 173.777 149.102 173.777H233.972C239.632 173.777 244.222 178.446 244.222 184.206V196.512C244.222 202.272 239.632 206.941 233.972 206.941Z" fill="#FEDD8E"/>
</g>
</g>
</svg>
