<svg xmlns="http://www.w3.org/2000/svg" xmlns:xlink="http://www.w3.org/1999/xlink" viewBox="0 0 24 24">
    <defs>
        <style>
            .b {
            fill: #020a1a;
            }

            .c {
            fill: #abe1ff;
            }
        </style>
    </defs>
    <title>spanish</title>
    <path class="b" d="M21,4H3A1,1,0,0,0,2,5V20.8a.5.5,0,0,0,.85.35L7,17H21a1,1,0,0,0,1-1V5A1,1,0,0,0,21,4Z" />
    <path class="c" d="M14.72,12.1a.5.5,0,0,1,.7-.11,3.14,3.14,0,0,0,1.84.59c.62,0,1-.24,1-.58s-.52-.48-1.19-.62c-1.15-.23-2.76-.54-2.76-2.26,0-1.17,1-2.22,2.78-2.22a4.43,4.43,0,0,1,2.38.64.51.51,0,0,1,.15.74l-.4.52a.49.49,0,0,1-.65.1,3.32,3.32,0,0,0-1.67-.46c-.52,0-.75.21-.75.5s.53.45,1.2.61c1.15.24,2.74.59,2.74,2.23,0,1.4-1,2.33-2.91,2.33a4.47,4.47,0,0,1-2.71-.78.51.51,0,0,1-.13-.71Z"
    />
    <path class="c" d="M10.31,8.6l2.57,0a.5.5,0,0,0,.5-.5V7.51a.5.5,0,0,0-.5-.5H8.76a.5.5,0,0,0-.5.5v6a.5.5,0,0,0,.5.5h4.12a.5.5,0,0,0,.5-.5v-.57a.5.5,0,0,0-.5-.5H10.31c-.76,0-.75-1.43,0-1.43H11.8c.28,0,1,0,1-.25a1.74,1.74,0,0,0,0-.57c0-.3-.72-.2-1-.2H10.31C9.62,10,9.62,8.6,10.31,8.6Z"
    />
</svg>
