<svg xmlns="http://www.w3.org/2000/svg" xmlns:xlink="http://www.w3.org/1999/xlink" preserveAspectRatio="xMidYMid" width="64" height="64" viewBox="0 0 64 64">
    <path fill="white" d="M41.000,15.000 L23.000,15.000 C21.343,15.000 20.000,16.343 20.000,18.000 L20.000,46.000 C20.000,47.657 21.343,49.000 23.000,49.000 L41.000,49.000 C42.657,49.000 44.000,47.657 44.000,46.000 L44.000,18.000 C44.000,16.343 42.657,15.000 41.000,15.000 ZM27.000,44.000 C27.000,44.552 26.552,45.000 26.000,45.000 L23.000,45.000 C22.448,45.000 22.000,44.552 22.000,44.000 L22.000,42.000 C22.000,41.448 22.448,41.000 23.000,41.000 L26.000,41.000 C26.552,41.000 27.000,41.448 27.000,42.000 L27.000,44.000 ZM27.000,38.000 C27.000,38.552 26.552,39.000 26.000,39.000 L23.000,39.000 C22.448,39.000 22.000,38.552 22.000,38.000 L22.000,36.000 C22.000,35.448 22.448,35.000 23.000,35.000 L26.000,35.000 C26.552,35.000 27.000,35.448 27.000,36.000 L27.000,38.000 ZM27.000,32.000 C27.000,32.552 26.552,33.000 26.000,33.000 L23.000,33.000 C22.448,33.000 22.000,32.552 22.000,32.000 L22.000,30.000 C22.000,29.448 22.448,29.000 23.000,29.000 L26.000,29.000 C26.552,29.000 27.000,29.448 27.000,30.000 L27.000,32.000 ZM34.500,44.000 C34.500,44.552 34.052,45.000 33.500,45.000 L30.500,45.000 C29.948,45.000 29.500,44.552 29.500,44.000 L29.500,42.000 C29.500,41.448 29.948,41.000 30.500,41.000 L33.500,41.000 C34.052,41.000 34.500,41.448 34.500,42.000 L34.500,44.000 ZM34.500,38.000 C34.500,38.552 34.052,39.000 33.500,39.000 L30.500,39.000 C29.948,39.000 29.500,38.552 29.500,38.000 L29.500,36.000 C29.500,35.448 29.948,35.000 30.500,35.000 L33.500,35.000 C34.052,35.000 34.500,35.448 34.500,36.000 L34.500,38.000 ZM34.500,32.000 C34.500,32.552 34.052,33.000 33.500,33.000 L30.500,33.000 C29.948,33.000 29.500,32.552 29.500,32.000 L29.500,30.000 C29.500,29.448 29.948,29.000 30.500,29.000 L33.500,29.000 C34.052,29.000 34.500,29.448 34.500,30.000 L34.500,32.000 ZM42.000,44.000 C42.000,44.552 41.552,45.000 41.000,45.000 L38.000,45.000 C37.448,45.000 37.000,44.552 37.000,44.000 L37.000,42.000 C37.000,41.448 37.448,41.000 38.000,41.000 L41.000,41.000 C41.552,41.000 42.000,41.448 42.000,42.000 L42.000,44.000 ZM42.000,38.000 C42.000,38.552 41.552,39.000 41.000,39.000 L38.000,39.000 C37.448,39.000 37.000,38.552 37.000,38.000 L37.000,36.000 C37.000,35.448 37.448,35.000 38.000,35.000 L41.000,35.000 C41.552,35.000 42.000,35.448 42.000,36.000 L42.000,38.000 ZM42.000,32.000 C42.000,32.552 41.552,33.000 41.000,33.000 L38.000,33.000 C37.448,33.000 37.000,32.552 37.000,32.000 L37.000,30.000 C37.000,29.448 37.448,29.000 38.000,29.000 L41.000,29.000 C41.552,29.000 42.000,29.448 42.000,30.000 L42.000,32.000 ZM42.000,25.000 C42.000,26.105 41.105,27.000 40.000,27.000 L24.000,27.000 C22.895,27.000 22.000,26.105 22.000,25.000 L22.000,21.000 C22.000,19.895 22.895,19.000 24.000,19.000 L40.000,19.000 C41.105,19.000 42.000,19.895 42.000,21.000 L42.000,25.000 Z" class="cls-2"/>
</svg>
