<svg xmlns="http://www.w3.org/2000/svg" xmlns:xlink="http://www.w3.org/1999/xlink" viewBox="0 0 24 24">
    <defs>
        <style>
            .b {
            fill: #53cf92;
            }

            .c {
            fill: #fec83c;
            }

            .d {
            fill: #020a1a;
            }
        </style>
    </defs>
    <title>technology</title>
    <rect class="b" x="7" y="2" width="2" height="4" rx="1" ry="1" />
    <rect class="b" x="11" y="2" width="2" height="4" rx="1" ry="1" />
    <rect class="b" x="15" y="2" width="2" height="4" rx="1" ry="1" />
    <rect class="b" x="7" y="18" width="2" height="4" rx="1" ry="1" />
    <rect class="b" x="11" y="18" width="2" height="4" rx="1" ry="1" />
    <rect class="b" x="15" y="18" width="2" height="4" rx="1" ry="1" />
    <rect class="c" x="18" y="7" width="4" height="2" rx="1" ry="1" />
    <rect class="c" x="18" y="11" width="4" height="2" rx="1" ry="1" />
    <rect class="c" x="18" y="15" width="4" height="2" rx="1" ry="1" />
    <rect class="c" x="2" y="7" width="4" height="2" rx="1" ry="1" />
    <rect class="c" x="2" y="11" width="4" height="2" rx="1" ry="1" />
    <rect class="c" x="2" y="15" width="4" height="2" rx="1" ry="1" />
    <rect class="d" x="7" y="7" width="10" height="10" rx="2" ry="2" />
</svg>
