<svg xmlns="http://www.w3.org/2000/svg" xmlns:xlink="http://www.w3.org/1999/xlink" preserveAspectRatio="xMidYMid" width="64" height="64" viewBox="0 0 64 64">
<path fill="white" d="M50.500,36.000 L46.000,36.000 L46.000,33.000 L50.500,33.000 C51.328,33.000 52.000,33.672 52.000,34.500 C52.000,35.328 51.328,36.000 50.500,36.000 ZM50.500,31.000 L46.000,31.000 L46.000,28.000 L50.500,28.000 C51.328,28.000 52.000,28.672 52.000,29.500 C52.000,30.328 51.328,31.000 50.500,31.000 ZM50.500,25.500 L46.000,25.500 L46.000,22.500 L50.500,22.500 C51.328,22.500 52.000,23.172 52.000,24.000 C52.000,24.828 51.328,25.500 50.500,25.500 ZM41.000,44.000 L23.000,44.000 C21.343,44.000 20.000,42.657 20.000,41.000 L20.000,23.000 C20.000,21.343 21.343,20.000 23.000,20.000 L41.000,20.000 C42.657,20.000 44.000,21.343 44.000,23.000 L44.000,41.000 C44.000,42.657 42.657,44.000 41.000,44.000 ZM38.000,29.000 C38.000,27.343 36.657,26.000 35.000,26.000 L29.000,26.000 C27.343,26.000 26.000,27.343 26.000,29.000 L26.000,35.000 C26.000,36.657 27.343,38.000 29.000,38.000 L35.000,38.000 C36.657,38.000 38.000,36.657 38.000,35.000 L38.000,29.000 ZM38.500,13.500 C38.500,12.672 39.172,12.000 40.000,12.000 C40.828,12.000 41.500,12.672 41.500,13.500 L41.500,18.000 L38.500,18.000 L38.500,13.500 ZM33.000,13.500 C33.000,12.672 33.672,12.000 34.500,12.000 C35.328,12.000 36.000,12.672 36.000,13.500 L36.000,18.000 L33.000,18.000 L33.000,13.500 ZM28.000,13.500 C28.000,12.672 28.672,12.000 29.500,12.000 C30.328,12.000 31.000,12.672 31.000,13.500 L31.000,18.000 L28.000,18.000 L28.000,13.500 ZM22.500,13.500 C22.500,12.672 23.172,12.000 24.000,12.000 C24.828,12.000 25.500,12.672 25.500,13.500 L25.500,18.000 L22.500,18.000 L22.500,13.500 ZM12.000,40.000 C12.000,39.172 12.672,38.500 13.500,38.500 L18.000,38.500 L18.000,41.500 L13.500,41.500 C12.672,41.500 12.000,40.828 12.000,40.000 ZM12.000,34.500 C12.000,33.672 12.672,33.000 13.500,33.000 L18.000,33.000 L18.000,36.000 L13.500,36.000 C12.672,36.000 12.000,35.328 12.000,34.500 ZM12.000,29.500 C12.000,28.672 12.672,28.000 13.500,28.000 L18.000,28.000 L18.000,31.000 L13.500,31.000 C12.672,31.000 12.000,30.328 12.000,29.500 ZM12.000,24.000 C12.000,23.172 12.672,22.500 13.500,22.500 L18.000,22.500 L18.000,25.500 L13.500,25.500 C12.672,25.500 12.000,24.828 12.000,24.000 ZM25.500,50.500 C25.500,51.328 24.828,52.000 24.000,52.000 C23.172,52.000 22.500,51.328 22.500,50.500 L22.500,46.000 L25.500,46.000 L25.500,50.500 ZM31.000,50.500 C31.000,51.328 30.328,52.000 29.500,52.000 C28.672,52.000 28.000,51.328 28.000,50.500 L28.000,46.000 L31.000,46.000 L31.000,50.500 ZM36.000,50.500 C36.000,51.328 35.328,52.000 34.500,52.000 C33.672,52.000 33.000,51.328 33.000,50.500 L33.000,46.000 L36.000,46.000 L36.000,50.500 ZM41.500,50.500 C41.500,51.328 40.828,52.000 40.000,52.000 C39.172,52.000 38.500,51.328 38.500,50.500 L38.500,46.000 L41.500,46.000 L41.500,50.500 ZM52.000,40.000 C52.000,40.828 51.328,41.500 50.500,41.500 L46.000,41.500 L46.000,38.500 L50.500,38.500 C51.328,38.500 52.000,39.172 52.000,40.000 Z" class="cls-2"/>
</svg>
