<svg data-fixedcolors="true" viewBox="0 0 512 512" fill="none" xmlns="http://www.w3.org/2000/svg">
<path d="M268.335 52.9034C267.222 46.968 262.039 42.667 256 42.667C249.962 42.667 244.779 46.968 243.666 52.9034L206.019 253.688C205.331 257.357 206.313 261.142 208.697 264.015C211.081 266.887 214.62 268.549 218.353 268.549H293.648C297.381 268.549 300.92 266.887 303.304 264.015C305.688 261.142 306.67 257.357 305.982 253.688L268.335 52.9034Z" fill="#CF1D00"/>
<path d="M218.353 243.451C214.62 243.451 211.081 245.113 208.697 247.986C206.313 250.859 205.331 254.644 206.019 258.313L243.666 459.097C244.779 465.033 249.962 469.334 256 469.334C262.039 469.334 267.222 465.033 268.335 459.097L305.982 258.313C306.67 254.644 305.688 250.859 303.304 247.986C300.92 245.113 297.381 243.451 293.648 243.451H218.353Z" fill="#0089E3"/>
<path d="M268.549 218.353C268.549 214.62 266.887 211.081 264.015 208.697C261.142 206.313 257.357 205.331 253.688 206.019L52.9034 243.666C46.968 244.779 42.667 249.962 42.667 256C42.667 262.039 46.968 267.222 52.9034 268.335L253.688 305.982C257.357 306.67 261.142 305.688 264.015 303.304C266.887 300.92 268.549 297.381 268.549 293.648V218.353Z" fill="#CF1D00"/>
<path d="M258.313 206.019C254.644 205.331 250.859 206.313 247.986 208.697C245.113 211.081 243.451 214.62 243.451 218.353V293.648C243.451 297.381 245.113 300.92 247.986 303.304C250.859 305.688 254.644 306.67 258.313 305.982L459.097 268.335C465.033 267.222 469.334 262.039 469.334 256C469.334 249.962 465.033 244.779 459.097 243.666L258.313 206.019Z" fill="#0089E3"/>
<path d="M248.56 230.813C245.919 228.172 242.241 226.845 238.523 227.191C234.805 227.537 231.434 229.521 229.327 232.603L158.801 335.756C155.394 340.74 156.018 347.444 160.287 351.713C164.556 355.981 171.26 356.606 176.243 353.198L279.396 282.673C282.479 280.565 284.462 277.195 284.809 273.477C285.155 269.759 283.827 266.08 281.187 263.44L248.56 230.813Z" fill="#CF1D00"/>
<path d="M353.198 176.243C356.606 171.26 355.981 164.556 351.713 160.287C347.444 156.018 340.74 155.394 335.756 158.801L232.603 229.327C229.521 231.434 227.537 234.805 227.191 238.523C226.845 242.241 228.172 245.919 230.813 248.56L263.44 281.187C266.08 283.827 269.759 285.155 273.477 284.809C277.195 284.462 280.565 282.479 282.673 279.396L353.198 176.243Z" fill="#0089E3"/>
<path d="M282.673 232.603C280.565 229.521 277.195 227.537 273.477 227.191C269.759 226.845 266.08 228.172 263.44 230.813L230.813 263.44C228.172 266.08 226.845 269.759 227.191 273.477C227.537 277.195 229.521 280.565 232.603 282.673L335.756 353.198C340.74 356.606 347.444 355.981 351.713 351.713C355.981 347.444 356.606 340.74 353.198 335.756L282.673 232.603Z" fill="#CF1D00"/>
<path d="M176.243 158.801C171.26 155.394 164.556 156.018 160.287 160.287C156.018 164.556 155.394 171.26 158.801 176.243L229.327 279.396C231.434 282.479 234.805 284.462 238.523 284.809C242.241 285.155 245.919 283.827 248.56 281.187L281.187 248.56C283.827 245.919 285.155 242.241 284.809 238.523C284.462 234.805 282.479 231.434 279.396 229.327L176.243 158.801Z" fill="#0089E3"/>
<path d="M256.001 308.707C285.11 308.707 308.707 285.11 308.707 256.001C308.707 226.892 285.11 203.295 256.001 203.295C226.892 203.295 203.295 226.892 203.295 256.001C203.295 285.11 226.892 308.707 256.001 308.707Z" fill="#B9E2FE"/>
</svg>
