<svg viewBox="0 0 512 512" fill="none" xmlns="http://www.w3.org/2000/svg">
<g id="tourism">
<g id="Vector">
<path d="M267.101 73.2127C266.099 67.8709 261.435 64 256 64C250.565 64 245.901 67.8709 244.899 73.2127L211.017 253.919C210.398 257.221 211.281 260.627 213.427 263.213C215.573 265.798 218.758 267.294 222.118 267.294H289.882C293.242 267.294 296.428 265.798 298.573 263.213C300.719 260.627 301.602 257.221 300.983 253.919L267.101 73.2127Z" fill="#CF1D00"/>
<path d="M222.118 244.706C218.758 244.706 215.573 246.202 213.427 248.787C211.281 251.373 210.398 254.779 211.017 258.081L244.899 438.787C245.901 444.129 250.565 448 256 448C261.435 448 266.099 444.129 267.101 438.787L300.983 258.081C301.602 254.779 300.719 251.373 298.573 248.787C296.428 246.202 293.242 244.706 289.882 244.706H222.118Z" fill="#0089E3"/>
<path d="M267.294 222.118C267.294 218.758 265.798 215.573 263.213 213.427C260.627 211.281 257.221 210.398 253.919 211.017L73.2127 244.899C67.8709 245.901 64 250.565 64 256C64 261.435 67.8709 266.099 73.2127 267.101L253.919 300.983C257.221 301.602 260.627 300.719 263.213 298.573C265.798 296.428 267.294 293.242 267.294 289.882V222.118Z" fill="#CF1D00"/>
<path d="M258.081 211.017C254.779 210.398 251.373 211.281 248.787 213.427C246.202 215.573 244.706 218.758 244.706 222.118V289.882C244.706 293.242 246.202 296.428 248.787 298.573C251.373 300.719 254.779 301.602 258.081 300.983L438.787 267.101C444.129 266.099 448 261.435 448 256C448 250.565 444.129 245.901 438.787 244.899L258.081 211.017Z" fill="#0089E3"/>
<path d="M249.303 233.331C246.927 230.955 243.616 229.76 240.27 230.072C236.924 230.383 233.891 232.169 231.994 234.943L168.521 327.78C165.454 332.266 166.016 338.299 169.858 342.141C173.7 345.983 179.733 346.545 184.219 343.478L277.056 280.005C279.83 278.109 281.616 275.075 281.927 271.729C282.239 268.383 281.044 265.072 278.668 262.696L249.303 233.331Z" fill="#CF1D00"/>
<path d="M343.478 184.219C346.545 179.733 345.983 173.7 342.141 169.858C338.299 166.016 332.266 165.454 327.78 168.521L234.943 231.994C232.169 233.891 230.383 236.924 230.072 240.27C229.76 243.616 230.955 246.927 233.331 249.303L262.696 278.668C265.072 281.044 268.383 282.239 271.729 281.927C275.075 281.616 278.109 279.83 280.005 277.056L343.478 184.219Z" fill="#0089E3"/>
<path d="M280.005 234.943C278.109 232.169 275.075 230.383 271.729 230.072C268.383 229.76 265.072 230.955 262.696 233.331L233.331 262.696C230.955 265.072 229.76 268.383 230.072 271.729C230.383 275.075 232.169 278.109 234.943 280.005L327.78 343.478C332.266 346.545 338.299 345.983 342.141 342.141C345.983 338.299 346.545 332.266 343.478 327.78L280.005 234.943Z" fill="#CF1D00"/>
<path d="M184.219 168.521C179.733 165.454 173.7 166.016 169.858 169.858C166.016 173.7 165.454 179.733 168.521 184.219L231.994 277.056C233.891 279.83 236.924 281.616 240.27 281.927C243.616 282.239 246.927 281.044 249.303 278.668L278.668 249.303C281.044 246.927 282.239 243.616 281.927 240.27C281.616 236.924 279.83 233.891 277.056 231.994L184.219 168.521Z" fill="#0089E3"/>
<path d="M256.001 303.436C282.198 303.436 303.436 282.198 303.436 256.001C303.436 229.803 282.198 208.565 256.001 208.565C229.803 208.565 208.565 229.803 208.565 256.001C208.565 282.198 229.803 303.436 256.001 303.436Z" fill="#B9E2FE"/>
</g>
</g>
</svg>
