<svg xmlns="http://www.w3.org/2000/svg" xmlns:xlink="http://www.w3.org/1999/xlink" preserveAspectRatio="xMidYMid" width="64" height="64" viewBox="0 0 64 64">
<path fill="white" d="M44.825,27.348 C44.147,27.740 42.874,28.419 41.274,29.253 L37.914,45.195 L35.237,46.740 L34.383,32.794 C29.099,35.482 23.709,38.185 22.724,38.678 L21.238,45.585 L19.979,46.312 L19.570,39.248 C19.378,39.131 19.206,38.975 19.077,38.750 C18.947,38.525 18.898,38.299 18.892,38.074 L12.979,34.188 L14.238,33.461 L20.963,35.627 C21.882,35.021 26.918,31.704 31.888,28.472 L20.237,20.760 L22.914,19.214 L38.400,24.275 C39.922,23.306 41.147,22.544 41.825,22.152 C45.289,20.152 47.900,20.674 48.521,21.750 C49.143,22.826 48.289,25.348 44.825,27.348 Z" class="cls-2"/>
</svg>
