<svg xmlns="http://www.w3.org/2000/svg" xmlns:xlink="http://www.w3.org/1999/xlink" preserveAspectRatio="xMidYMid" width="64" height="64" viewBox="0 0 64 64">
<path fill="white" d="M44.000,27.086 L39.800,35.534 L39.800,38.552 L44.000,38.552 L39.800,47.000 L39.800,49.586 C39.800,50.919 38.726,52.000 37.400,52.000 L26.600,52.000 C25.275,52.000 24.200,50.919 24.200,49.586 L24.200,47.000 L20.000,38.552 L24.200,38.552 L24.200,35.534 L20.000,27.086 L24.200,27.086 L24.200,24.069 L20.000,15.621 L24.200,15.621 L24.200,14.414 C24.200,13.081 25.275,12.000 26.600,12.000 L37.400,12.000 C38.726,12.000 39.800,13.081 39.800,14.414 L39.800,15.621 L44.000,15.621 L39.800,24.069 L39.800,27.086 L44.000,27.086 ZM32.000,15.621 C29.349,15.621 27.200,17.782 27.200,20.448 C27.200,23.114 29.349,25.276 32.000,25.276 C34.651,25.276 36.800,23.114 36.800,20.448 C36.800,17.782 34.651,15.621 32.000,15.621 ZM32.000,27.086 C29.349,27.086 27.200,29.248 27.200,31.914 C27.200,34.580 29.349,36.741 32.000,36.741 C34.651,36.741 36.800,34.580 36.800,31.914 C36.800,29.248 34.651,27.086 32.000,27.086 ZM32.000,38.552 C29.349,38.552 27.200,40.713 27.200,43.379 C27.200,46.046 29.349,48.207 32.000,48.207 C34.651,48.207 36.800,46.046 36.800,43.379 C36.800,40.713 34.651,38.552 32.000,38.552 Z" class="cls-2"/>
</svg>
