<svg viewBox="0 0 512 512" fill="none" xmlns="http://www.w3.org/2000/svg">
<g id="traffic">
<g id="Vector">
<path d="M192 64C180.218 64 170.667 73.5513 170.667 85.3333V149.333H113.722C103.873 149.333 99.2854 161.542 106.698 168.027L170.667 224V234.667H113.722C103.873 234.667 99.2854 246.875 106.698 253.361L170.667 309.334V320H113.722C103.873 320 99.2854 332.208 106.698 338.694L170.667 394.667V426.667C170.667 438.449 180.218 448 192 448H320C331.782 448 341.333 438.449 341.333 426.667V394.666L405.302 338.694C412.714 332.208 408.127 320 398.278 320H341.333V309.333L405.302 253.361C412.714 246.875 408.127 234.667 398.278 234.667H341.333V224L405.302 168.027C412.714 161.542 408.127 149.333 398.278 149.333H341.333V85.3333C341.333 73.5513 331.782 64 320 64H192Z" fill="#0C114D"/>
<path d="M288 373.333C288 391.006 273.673 405.333 256 405.333C238.327 405.333 224 391.006 224 373.333C224 355.66 238.327 341.333 256 341.333C273.673 341.333 288 355.66 288 373.333Z" fill="#60D399"/>
<path d="M288 266.667C288 284.34 273.673 298.667 256 298.667C238.327 298.667 224 284.34 224 266.667C224 248.994 238.327 234.667 256 234.667C273.673 234.667 288 248.994 288 266.667Z" fill="#FBBE2E"/>
<path d="M288 160C288 177.673 273.673 192 256 192C238.327 192 224 177.673 224 160C224 142.327 238.327 128 256 128C273.673 128 288 142.327 288 160Z" fill="#FF341A"/>
</g>
</g>
</svg>
