<svg xmlns="http://www.w3.org/2000/svg" xmlns:xlink="http://www.w3.org/1999/xlink" viewBox="0 0 24 24">
    <defs>
        <style>
            .b {
            fill: #020a1a;
            }

            .c {
            fill: #ff796b;
            }

            .d {
            fill: #fec83c;
            }

            .e {
            fill: #53cf92;
            }
        </style>
    </defs>
    <title>traffic</title>
    <path class="b" d="M18.15,10.86A.5.5,0,0,0,17.8,10H15l3.15-3.15A.5.5,0,0,0,17.8,6H15V5a1,1,0,0,0-1-1H10A1,1,0,0,0,9,5V6H6.21a.5.5,0,0,0-.35.85L9,10H6.21a.5.5,0,0,0-.35.85L9,14H6.21a.5.5,0,0,0-.35.85L9,18v1a1,1,0,0,0,1,1h4a1,1,0,0,0,1-1V18l3.15-3.15A.5.5,0,0,0,17.8,14H15Z"
    />
    <circle class="c" cx="11.94" cy="7.51" r="1.5" />
    <circle class="d" cx="11.94" cy="11.98" r="1.5" />
    <circle class="e" cx="11.94" cy="16.51" r="1.5" />
</svg>
