<svg viewBox="0 0 512 512" fill="none" xmlns="http://www.w3.org/2000/svg">
<g id="turkish">
<g id="Vector">
<path d="M469.315 239.336C469.523 225.003 467.947 210.7 464.624 196.756C457.512 170.33 445.092 145.625 428.121 124.141C411.149 102.657 389.979 84.8431 365.898 71.7818C337.096 55.6815 305.146 45.9943 272.241 43.385C239.336 40.7758 206.255 45.3063 175.269 56.6657C132.661 73.4477 96.4616 103.257 71.8512 141.827C59.1739 160.277 50.2617 181.04 45.6237 202.93C41.6809 224.968 41.6809 247.53 45.6237 269.568C53.7347 314.131 76.9179 354.563 111.299 384.11C116.494 388.648 121.978 392.843 127.718 396.671C131.578 398.761 134.871 401.757 137.313 405.4C139.336 410.898 139.336 416.934 137.313 422.432C134.131 436.009 129.705 449.264 124.093 462.032C124.093 464.161 122.174 466.716 124.093 468.419C125.298 469.176 126.735 469.478 128.144 469.271C153.059 469.654 177.227 460.776 195.952 444.361C198.536 441.814 201.481 439.662 204.695 437.974C209.528 436.8 214.574 436.8 219.407 437.974C252.715 442.241 286.552 439.316 318.631 429.399C350.709 419.482 380.28 402.803 405.346 380.49C424.964 362.464 440.741 340.673 451.732 316.42C462.723 292.167 468.704 265.95 469.315 239.336Z" fill="#0C114D"/>
<path fill-rule="evenodd" clip-rule="evenodd" d="M315.43 278.027C311.74 269.514 293.085 268.025 293.085 278.027V309.522C293.085 315.399 288.496 320.163 282.835 320.163H266.435C260.774 320.163 256.185 315.399 256.185 309.522V181.838C256.405 176.128 260.93 171.619 266.435 171.623H327.935C341.047 170.523 353.989 175.287 363.504 184.717C373.019 194.147 378.202 207.346 377.75 220.995C378.247 237.164 370.443 252.393 357.25 261.002C352.452 263.881 350.727 270.196 353.355 275.26L368.935 305.053C370.675 308.354 370.606 312.364 368.753 315.599C366.9 318.833 363.54 320.811 359.915 320.801H341.465C337.545 320.809 333.964 318.496 332.24 314.842C332.24 314.842 319.12 286.539 315.43 278.027ZM322.193 205.674H303.333C297.672 205.674 293.083 210.438 293.083 216.314V226.955C293.083 232.831 297.672 237.595 303.333 237.595H322.193C328.285 238.631 334.392 235.836 337.764 230.467C341.135 225.099 341.135 218.17 337.764 212.802C334.392 207.433 328.285 204.638 322.193 205.674Z" fill="#FEDD8E"/>
<path d="M138.435 204.878H157.705C160.459 204.821 163.119 205.917 165.086 207.918C167.052 209.92 168.16 212.659 168.16 215.518V309.366C168.16 315.243 172.749 320.007 178.41 320.007H194.81C200.471 320.007 205.06 315.243 205.06 309.366V215.518C205.06 209.642 209.649 204.878 215.31 204.878H234.785C240.446 204.878 245.035 200.114 245.035 194.238V182.108C245.035 176.231 240.446 171.467 234.785 171.467H138.435C132.774 171.467 128.185 176.231 128.185 182.108V194.238C128.185 200.114 132.774 204.878 138.435 204.878Z" fill="#FEDD8E"/>
</g>
</g>
</svg>
