<svg xmlns="http://www.w3.org/2000/svg" xmlns:xlink="http://www.w3.org/1999/xlink" viewBox="0 0 24 24">
  <defs>
    <style>
      .a {
        fill: none;
      }

      .b {
        fill: #020a1a;
      }

      .c {
        fill: #fec83c;
      }
    </style>
  </defs>
  <title>ukrainian_literature</title>
  <path class="b" d="M21,4H15.56A3.52,3.52,0,0,0,12,7.51V8A4,4,0,0,0,8,4H3A1,1,0,0,0,2,5V18H8.06a4,4,0,0,1,3.83,2.94.14.14,0,0,0,.26,0A4,4,0,0,1,16,18h6V5A1,1,0,0,0,21,4Z" />
  <path class="c" d="M10.31,9h-1a.54.54,0,0,0-.49.31l-.46,1c-.31.84-.66.84-1,0L7,9.3A.54.54,0,0,0,6.49,9h-1c-.06,0-.07.07-.05.13l1.68,3.33a.39.39,0,0,1,0,.23.59.59,0,0,1-.54.26,1,1,0,0,1-.48-.15.26.26,0,0,0-.28.13l-.28.54a.34.34,0,0,0,.09.37,2.27,2.27,0,0,0,1.05.25A1.81,1.81,0,0,0,8.42,13l2-3.9C10.39,9,10.37,9,10.31,9Z"
  />
  <path class="c" d="M13.23,11.66a.54.54,0,0,1,0-.67l1.51-1.81c.06-.09.07-.17-.08-.2H13.59a.53.53,0,0,0-.43.21l-1.29,1.73s-.08,0-.09-.06V9.14c0-.09,0-.15-.14-.15h-1c-.12,0-.18.06-.18.15v4.65c0,.1.05.16.17.2h.95c.1,0,.17-.07.17-.18v-1a.55.55,0,0,1,.1-.39l.18-.22c.06-.06.1,0,.13,0l1.09,1.56a.54.54,0,0,0,.44.23h1.12a.11.11,0,0,0,.07-.15Z"
  />
  <path class="c" d="M17.56,9h-2a.54.54,0,0,0-.54.54v4.29c0,.12.06.16.14.17h1a.17.17,0,0,0,.16-.19V12.44a.12.12,0,0,1,.1-.14h1.12a1.66,1.66,0,1,0,0-3.32Zm-.17,2.2h-.93c-.09,0-.11-.1-.11-.2v-.72a.14.14,0,0,1,.13-.16h.91a.54.54,0,1,1,0,1.07Z" />
</svg>
