<svg viewBox="0 0 512 512" fill="none" xmlns="http://www.w3.org/2000/svg">
<g id="ukrainian">
<g id="Vector">
<path d="M469.315 239.334C469.523 225.001 467.947 210.698 464.624 196.754C457.512 170.328 445.092 145.623 428.121 124.139C411.149 102.655 389.979 84.8412 365.898 71.7798C337.096 55.6795 305.146 45.9923 272.241 43.3831C239.336 40.7739 206.255 45.3044 175.269 56.6638C132.661 73.4458 96.4616 103.255 71.8512 141.825C59.1739 160.275 50.2617 181.038 45.6237 202.928C41.6809 224.966 41.6809 247.528 45.6237 269.566C53.7347 314.129 76.9179 354.562 111.299 384.108C116.494 388.646 121.978 392.842 127.718 396.669C131.578 398.759 134.871 401.755 137.313 405.398C139.336 410.896 139.336 416.932 137.313 422.43C134.131 436.007 129.705 449.262 124.093 462.03C124.093 464.159 122.174 466.714 124.093 468.417C125.298 469.174 126.735 469.476 128.144 469.269C153.059 469.652 177.227 460.774 195.952 444.359C198.536 441.812 201.481 439.66 204.695 437.972C209.528 436.798 214.574 436.798 219.407 437.972C252.715 442.239 286.552 439.314 318.631 429.397C350.709 419.48 380.28 402.801 405.346 380.488C424.964 362.462 440.741 340.671 451.732 316.418C462.723 292.165 468.704 265.948 469.315 239.334Z" fill="#0C114D"/>
<path d="M197.827 192.442H217.248C218.543 192.663 218.975 193.548 219.19 194.875L180.132 276.498C173.996 290.615 160.017 299.407 144.959 298.618C137.468 298.759 130.058 297.012 123.38 293.53C121.18 291.643 120.399 288.529 121.438 285.788L127.048 274.507C128.142 272.45 130.422 271.371 132.659 271.852C135.57 273.75 138.921 274.819 142.369 274.949C146.637 275.304 150.76 273.275 153.159 269.64C153.64 268.056 153.64 266.359 153.159 264.774L120.359 194.654C119.064 193.548 119.28 191.999 120.359 191.999H140.643C144.818 192.032 148.6 194.53 150.353 198.414L160.064 218.764C166.322 236.018 173.443 236.239 179.701 218.764L188.98 198.414C190.707 194.974 194.062 192.709 197.827 192.442Z" fill="#FEDD8E"/>
<path fill-rule="evenodd" clip-rule="evenodd" d="M323.847 192.441H363.553C372.458 192.256 381.049 195.817 387.327 202.294C393.605 208.771 397.022 217.6 396.784 226.727C397.059 236.218 393.381 245.38 386.668 251.923C379.956 258.466 370.844 261.772 361.611 261.013H340.032C339.483 261.475 339.164 262.165 339.164 262.893C339.164 263.621 339.483 264.311 340.032 264.773V291.76C340.119 292.863 339.697 293.945 338.892 294.683C338.087 295.422 336.992 295.731 335.932 295.52H315.863C314.137 295.299 313.058 294.414 313.058 291.981V203.501C313.058 197.393 317.888 192.441 323.847 192.441ZM341.329 237.787H360.103L359.887 237.566C365.846 237.566 370.677 232.614 370.677 226.506C370.677 220.398 365.846 215.446 359.887 215.446H341.545C340.758 215.499 340.029 215.888 339.536 216.519C339.043 217.151 338.833 217.966 338.956 218.764V233.585C339.171 235.797 339.387 237.787 341.329 237.787Z" fill="#FEDD8E"/>
<path d="M275.296 247.739C272.198 243.72 272.198 238.045 275.296 234.025L305.723 196.642C306.802 194.873 307.233 193.103 303.996 192.661H282.417C279.021 192.661 275.823 194.3 273.786 197.085L248.754 232.477C248.754 232.477 247.244 232.477 247.028 231.149V195.536C247.028 193.767 247.028 192.439 244.222 192.439H224.586C222.212 192.439 221.133 193.545 220.917 195.536V291.758C220.917 293.97 220.917 295.076 224.37 295.74H243.359C245.517 295.74 246.812 294.412 246.812 291.979V270.965C246.427 268.084 247.12 265.159 248.754 262.781L253.717 258.357C254.62 257.432 255.208 257.797 255.701 258.102C255.915 258.235 256.111 258.357 256.307 258.357L277.886 290.431C279.922 293.363 283.222 295.095 286.733 295.076H308.312C308.916 294.884 309.408 294.43 309.657 293.834C309.907 293.238 309.888 292.56 309.607 291.979L275.296 247.739Z" fill="#FEDD8E"/>
</g>
</g>
</svg>
