<svg xmlns="http://www.w3.org/2000/svg" xmlns:xlink="http://www.w3.org/1999/xlink" viewBox="0 0 24 24">
    <defs>
        <style>
            .b {
            fill: #020a1a;
            }

            .c {
            fill: #abe1ff;
            }
        </style>
    </defs>
    <title>ukrainian</title>
    <path class="b" d="M21,4H3A1,1,0,0,0,2,5V20.79a.5.5,0,0,0,.85.35L7,17H21a1,1,0,0,0,1-1V5A1,1,0,0,0,21,4Z" />
    <path class="c" d="M6.7,7h.83a.5.5,0,0,1,.5.5V11.1a1.33,1.33,0,0,0,1.48,1.42A1.34,1.34,0,0,0,11,11.1V7.51a.5.5,0,0,1,.5-.5h.82a.5.5,0,0,1,.5.5v3.65c0,1.74-1.06,3-3.29,3s-3.31-1.23-3.31-3V7.51A.5.5,0,0,1,6.7,7Z" />
    <path class="c" d="M19.66,13.53,17.4,10.59a.5.5,0,0,1,0-.62l2.14-2.58c.11-.23.06-.38-.15-.38H17.9a.5.5,0,0,0-.4.2L15.67,9.65c-.09.06-.15,0-.17-.07V7.51A.5.5,0,0,0,15,7h-.8a.5.5,0,0,0-.5.5v6a.5.5,0,0,0,.5.5H15a.5.5,0,0,0,.5-.5V12.12a.55.55,0,0,1,.1-.3l.29-.36c.06-.05.11,0,.17,0h0l1.59,2.28a.5.5,0,0,0,.41.21h1.55C19.89,14,19.83,13.61,19.66,13.53Z"
    />
</svg>
