<svg xmlns="http://www.w3.org/2000/svg" xmlns:xlink="http://www.w3.org/1999/xlink" viewBox="0 0 24 24">
    <defs>
        <style>
            .a {
            fill: none;
            }

            .b {
            fill: #fec83c;
            }

            .c {
            fill: #020a1a;
            }
        </style>
    </defs>
    <title>ukrainian_alt</title>
    <path class="b" d="M6.76,2H21.27a.73.73,0,0,1,.73.73v7.82A1.46,1.46,0,0,1,20.54,12h-13A1.46,1.46,0,0,1,6,10.54V2.72A.73.73,0,0,1,6.76,2Z" />
    <circle class="a" cx="5.71" cy="15.16" r="0.76" />
    <path class="c" d="M9.38,17,6.86,7.14a.42.42,0,0,0-.41-.33A.43.43,0,0,0,6,7.23l-.32,6.48L5.39,7.23A.43.43,0,0,0,5,6.81a.42.42,0,0,0-.41.33L2,17a.73.73,0,0,0,.2.73,8.24,8.24,0,0,1,2,4.31h3a8.24,8.24,0,0,1,2-4.31A.73.73,0,0,0,9.38,17Zm-3.67-.8a1,1,0,1,1,1-1A1,1,0,0,1,5.71,16.16Z"
    />
    <path class="c" d="M12.31,3.73h-.9A.5.5,0,0,0,11,4l-.43.92c-.29.79-.62.78-.91,0L9.21,4a.5.5,0,0,0-.45-.29H7.82c-.05,0-.06.07,0,.12L9.34,7a.37.37,0,0,1,0,.22.55.55,0,0,1-.5.24.9.9,0,0,1-.45-.14.24.24,0,0,0-.26.12l-.26.51a.31.31,0,0,0,.09.35,2.12,2.12,0,0,0,1,.23,1.69,1.69,0,0,0,1.63-1L12.4,3.84C12.39,3.78,12.37,3.74,12.31,3.73Z"
    />
    <path class="c" d="M15,6.23a.5.5,0,0,1,0-.62l1.41-1.69c.05-.08.07-.16-.08-.18h-1a.5.5,0,0,0-.4.2L13.77,5.54s-.07,0-.08-.06V3.87c0-.08,0-.14-.13-.14h-.91c-.11,0-.16.05-.17.14V8.22c0,.1,0,.15.16.18h.88c.1,0,.16-.06.16-.17V7.28a.52.52,0,0,1,.09-.37L14,6.71c.06-.06.09,0,.12,0l1,1.45a.5.5,0,0,0,.41.21h1a.1.1,0,0,0,.06-.14Z"
    />
    <path class="c" d="M19.09,3.73H17.25a.5.5,0,0,0-.5.5v4c0,.11.05.15.13.16h.93A.16.16,0,0,0,18,8.22V7A.11.11,0,0,1,18,6.83h1a1.51,1.51,0,0,0,1.63-1.55A1.51,1.51,0,0,0,19.09,3.73Zm-.16,2.05h-.87c-.09,0-.1-.09-.11-.19V4.92a.13.13,0,0,1,.12-.15h.85a.5.5,0,1,1,0,1Z"
    />
</svg>
