<svg data-fixedcolors="true" viewBox="0 0 512 512" fill="none" xmlns="http://www.w3.org/2000/svg">
<g id="ukrainian-literature">
<g id="Vector">
<path d="M64 128.151H448C459.782 128.151 469.333 137.702 469.333 149.484V426.818C469.333 438.6 459.782 448.151 448 448.151H292.95C291.102 451.353 288.83 454.328 286.17 456.988C278.168 464.989 267.316 469.484 256 469.484C244.684 469.484 233.832 464.989 225.83 456.988C223.17 454.328 220.898 451.353 219.049 448.151H64C52.2179 448.151 42.6666 438.6 42.6666 426.818V149.484C42.6666 137.702 52.2179 128.151 64 128.151Z" fill="#163BF3"/>
<path d="M426.703 64.1513C366.189 62.9382 306.715 80.8978 255.921 115.723C205.05 80.9047 145.514 62.9477 84.9387 64.1513C82.2172 64.1584 79.6096 65.308 77.6886 67.3479C76.7211 68.2993 75.9526 69.4544 75.4323 70.739C74.912 72.0235 74.6516 73.4091 74.6677 74.8065V362.498C74.6481 363.927 74.9061 365.346 75.4257 366.665C75.9454 367.985 76.7155 369.177 77.6886 370.169C79.675 372.076 82.257 373.138 84.9387 373.153C143.375 370.973 200.901 388.92 248.873 424.298C249.82 425.203 250.911 425.924 252.095 426.429C253.353 426.746 254.663 426.746 255.921 426.429C257.181 426.731 258.488 426.731 259.748 426.429C260.932 425.924 262.023 425.203 262.97 424.298C310.905 388.987 368.325 370.976 426.703 372.94C429.45 372.958 432.106 371.894 434.154 369.956C436 367.952 437.076 365.294 437.175 362.498V75.4458C437.386 74.0339 437.386 72.5957 437.175 71.1837C436.706 69.8138 435.949 68.5748 434.96 67.561C433.84 66.157 432.472 64.9986 430.932 64.1513C429.529 63.9496 428.106 63.9496 426.703 64.1513Z" fill="#FEDD8E"/>
<path d="M199.96 192.442H219.381C220.676 192.664 221.107 193.548 221.323 194.876L182.265 276.498C176.129 290.616 162.149 299.407 147.091 298.618C139.6 298.759 132.19 297.012 125.512 293.531C123.313 291.644 122.531 288.529 123.57 285.789L129.181 274.507C130.275 272.451 132.555 271.372 134.791 271.853C137.702 273.751 141.054 274.82 144.502 274.95C148.769 275.305 152.892 273.276 155.291 269.641C155.773 268.056 155.773 266.359 155.291 264.775L122.491 194.654C121.196 193.548 121.412 192 122.491 192H142.775C146.95 192.032 150.733 194.531 152.486 198.415L162.197 218.765C168.454 236.019 175.576 236.24 181.833 218.765L191.112 198.415C192.84 194.975 196.195 192.71 199.96 192.442Z" fill="#0C114D"/>
<path fill-rule="evenodd" clip-rule="evenodd" d="M325.981 192.442H365.686C374.591 192.257 383.182 195.817 389.46 202.294C395.738 208.771 399.155 217.601 398.918 226.728C399.193 236.219 395.514 245.381 388.802 251.924C382.089 258.467 372.977 261.772 363.744 261.014H342.165C341.616 261.476 341.298 262.166 341.298 262.894C341.298 263.622 341.616 264.312 342.165 264.774V291.76C342.252 292.864 341.831 293.946 341.026 294.684C340.221 295.422 339.125 295.732 338.065 295.521H317.996C316.27 295.3 315.191 294.415 315.191 291.982V203.502C315.191 197.393 320.022 192.442 325.981 192.442ZM343.463 237.788H362.236L362.021 237.567C367.98 237.567 372.81 232.615 372.81 226.507C372.81 220.399 367.98 215.447 362.021 215.447H343.678C342.891 215.499 342.162 215.889 341.669 216.52C341.177 217.151 340.966 217.966 341.089 218.765V233.585C341.305 235.797 341.521 237.788 343.463 237.788Z" fill="#0C114D"/>
<path d="M277.429 247.74C274.33 243.72 274.33 238.045 277.429 234.026L307.855 196.643C308.934 194.873 309.366 193.104 306.129 192.661H284.55C281.154 192.661 277.956 194.3 275.918 197.085L250.887 232.477C250.887 232.477 249.376 232.477 249.16 231.15V195.537C249.16 193.767 249.16 192.44 246.355 192.44H226.718C224.344 192.44 223.266 193.546 223.05 195.537V291.759C223.05 293.971 223.05 295.077 226.502 295.74H245.492C247.65 295.74 248.945 294.413 248.945 291.98V270.966C248.559 268.084 249.253 265.16 250.887 262.782L255.85 258.358C256.753 257.432 257.341 257.797 257.833 258.103C258.047 258.236 258.243 258.358 258.439 258.358L280.018 290.432C282.055 293.363 285.355 295.096 288.866 295.077H310.445C311.049 294.885 311.541 294.431 311.79 293.835C312.039 293.239 312.021 292.561 311.739 291.98L277.429 247.74Z" fill="#0C114D"/>
</g>
</g>
</svg>
