<svg viewBox="0 0 512 512" fill="none" xmlns="http://www.w3.org/2000/svg">
<g id="uzbek">
<g id="Vector">
<path d="M469.315 239.334C469.523 225.001 467.947 210.698 464.624 196.754C457.512 170.328 445.092 145.623 428.121 124.139C411.149 102.655 389.979 84.8412 365.898 71.7798C337.096 55.6795 305.146 45.9923 272.241 43.3831C239.336 40.7739 206.255 45.3044 175.269 56.6638C132.661 73.4458 96.4616 103.255 71.8512 141.825C59.1739 160.275 50.2617 181.038 45.6237 202.928C41.6809 224.966 41.6809 247.528 45.6237 269.566C53.7347 314.129 76.9179 354.562 111.299 384.108C116.494 388.646 121.978 392.842 127.718 396.669C131.578 398.759 134.871 401.755 137.313 405.398C139.336 410.896 139.336 416.932 137.313 422.43C134.131 436.007 129.705 449.262 124.093 462.03C124.093 464.159 122.174 466.714 124.093 468.417C125.298 469.174 126.735 469.476 128.144 469.269C153.059 469.652 177.227 460.774 195.952 444.359C198.536 441.812 201.481 439.66 204.695 437.972C209.528 436.798 214.574 436.798 219.407 437.972C252.715 442.239 286.552 439.314 318.631 429.397C350.709 419.48 380.28 402.801 405.346 380.488C424.964 362.462 440.741 340.671 451.732 316.418C462.723 292.165 468.704 265.948 469.315 239.334Z" fill="#0C114D"/>
<path fill-rule="evenodd" clip-rule="evenodd" d="M157.152 192.058C170.424 191.626 183.275 197.041 192.664 207.024C202.053 217.006 207.147 230.669 206.74 244.78C207.443 259.078 202.481 273.036 193.057 283.264C183.634 293.493 170.612 299.056 157.152 298.605C143.551 299.312 130.305 293.86 120.695 283.602C111.086 273.343 106.014 259.238 106.734 244.78C106.314 230.51 111.519 216.701 121.093 206.69C130.667 196.679 143.739 191.374 157.152 192.058ZM157.152 215.66C150.104 215.765 143.404 218.941 138.62 224.445C133.835 229.949 131.384 237.299 131.84 244.778C130.972 254.934 135.578 264.739 143.736 270.103C151.894 275.466 162.203 275.466 170.361 270.103C178.519 264.739 183.125 254.934 182.257 244.778C182.712 237.337 180.289 230.021 175.549 224.523C170.81 219.026 164.165 215.825 157.152 215.66Z" fill="#FEDD8E"/>
<path fill-rule="evenodd" clip-rule="evenodd" d="M387.662 244.783C397.718 242.196 404.445 232.127 403.43 221.179C403.693 213.607 400.891 206.278 395.734 201.049C390.577 195.819 383.559 193.189 376.458 193.826H340.771C331.375 193.826 323.758 201.924 323.758 211.914V278.093C323.758 288.083 331.375 296.181 340.771 296.181H378.118C385.35 296.83 392.492 294.119 397.703 288.748C402.913 283.377 405.683 275.871 405.298 268.166C405.116 257.01 397.865 247.395 387.662 244.783ZM376.288 232.045C377.865 230.411 378.727 228.151 378.665 225.811V224.708C378.793 222.348 377.952 220.045 376.361 218.395C374.769 216.745 372.582 215.909 370.366 216.105H349.618C346.714 216.767 346.714 218.531 346.714 219.634V231.546C346.921 234.414 347.751 234.414 349.618 234.414H370.366C372.565 234.538 374.712 233.679 376.288 232.045ZM349.618 275.447H370.366C372.712 275.575 375 273.758 376.661 271.992C378.322 270.226 379.201 267.794 379.08 265.3C379.146 262.744 378.19 260.278 376.451 258.512C374.711 256.747 372.35 255.847 369.951 256.035H349.203C346.714 256.917 346.714 257.799 346.714 259.344V272.359C346.714 275.447 347.543 275.447 349.618 275.447Z" fill="#FEDD8E"/>
<path d="M312.141 273.675H278.529C276.869 273.675 276.247 273.675 277.077 270.587L314.216 216.983C314.649 215.473 314.649 213.86 314.216 212.35V196.909C314.216 194.923 314.216 193.6 310.896 193.82H245.955C243.92 193.82 243.681 195.094 243.477 196.183L243.465 196.247V213.453C243.465 216.1 244.71 216.983 246.577 216.983H280.604C282.056 216.983 282.056 218.085 280.604 219.188L245.747 272.572C244.492 274.936 243.781 277.581 243.672 280.293V293.97C243.672 295.293 243.672 296.617 247.407 296.837H312.556C313.344 296.905 314.12 296.601 314.679 296.007C315.238 295.412 315.524 294.587 315.46 293.749V276.763C315.407 275.885 315.027 275.066 314.404 274.486C313.781 273.906 312.967 273.615 312.141 273.675Z" fill="#FEDD8E"/>
<path d="M222.505 214.338C224.512 208.789 228.058 204.019 232.672 200.661C233.304 200.779 233.935 200.441 234.222 199.831C234.509 199.22 234.385 198.481 233.917 198.014L228.315 192.94C227.168 191.942 225.519 191.942 224.373 192.94C215.75 200.128 210.641 211.072 210.471 222.72C209.822 227.066 210.874 231.505 213.382 235.005C215.891 238.506 219.637 240.762 223.75 241.25C230.921 240.893 236.526 234.543 236.406 226.912C236.636 223.699 235.608 220.528 233.565 218.148C231.523 215.768 228.647 214.389 225.617 214.338H222.505Z" fill="#FEDD8E"/>
</g>
</g>
</svg>
