<svg data-fixedcolors="true" viewBox="0 0 512 512" fill="none" xmlns="http://www.w3.org/2000/svg">
<g id="otherlanguages">
<g id="Vector">
<path d="M469.315 239.336C469.523 225.003 467.947 210.7 464.624 196.756C457.512 170.33 445.092 145.625 428.121 124.141C411.149 102.657 389.979 84.8431 365.898 71.7818C337.096 55.6815 305.146 45.9943 272.241 43.385C239.336 40.7758 206.255 45.3063 175.269 56.6657C132.661 73.4477 96.4616 103.257 71.8512 141.827C59.1739 160.277 50.2617 181.04 45.6237 202.93C41.6809 224.968 41.6809 247.53 45.6237 269.568C53.7347 314.131 76.9179 354.563 111.299 384.11C116.494 388.648 121.978 392.843 127.718 396.671C131.578 398.761 134.871 401.757 137.313 405.4C139.336 410.898 139.336 416.934 137.313 422.432C134.131 436.009 129.705 449.264 124.093 462.032C124.093 464.161 122.174 466.716 124.093 468.419C125.298 469.176 126.735 469.478 128.144 469.271C153.059 469.654 177.227 460.776 195.952 444.361C198.536 441.814 201.481 439.662 204.695 437.974C209.528 436.8 214.574 436.8 219.407 437.974C252.715 442.241 286.552 439.316 318.631 429.399C350.709 419.482 380.28 402.803 405.346 380.49C424.964 362.464 440.741 340.673 451.732 316.42C462.723 292.167 468.704 265.95 469.315 239.336Z" fill="#0C114D"/>
<path d="M148.929 232.895C166.378 232.895 180.524 247.221 180.524 264.895C180.524 282.568 166.378 296.895 148.929 296.895C131.479 296.895 117.333 282.568 117.333 264.895C117.56 247.317 131.574 233.124 148.929 232.895Z" fill="#FEDD8E"/>
<path d="M256 232.895C273.45 232.895 287.596 247.221 287.596 264.895C287.596 282.568 273.45 296.895 256 296.895C238.55 296.895 224.405 282.568 224.405 264.895C224.632 247.317 238.645 233.124 256 232.895Z" fill="#FEDD8E"/>
<path d="M394.667 264.895C394.667 247.221 380.521 232.895 363.072 232.895C345.717 233.124 331.703 247.317 331.476 264.895C331.476 282.568 345.622 296.895 363.072 296.895C380.521 296.895 394.667 282.568 394.667 264.895Z" fill="#FEDD8E"/>
</g>
</g>
</svg>
