<svg xmlns="http://www.w3.org/2000/svg" xmlns:xlink="http://www.w3.org/1999/xlink" preserveAspectRatio="xMidYMid" width="64" height="64" viewBox="0 0 64 64">
<path fill="white" d="M42.469,35.542 C40.518,35.542 38.938,33.961 38.938,32.010 C38.938,30.060 40.518,28.479 42.469,28.479 C44.419,28.479 46.000,30.060 46.000,32.010 C46.000,33.961 44.419,35.542 42.469,35.542 ZM42.469,25.062 C40.518,25.062 38.938,23.482 38.938,21.531 C38.938,19.581 40.518,18.000 42.469,18.000 C44.419,18.000 46.000,19.581 46.000,21.531 C46.000,23.482 44.419,25.062 42.469,25.062 ZM32.010,46.000 C30.060,46.000 28.479,44.419 28.479,42.469 C28.479,40.518 30.060,38.938 32.010,38.938 C33.961,38.938 35.542,40.518 35.542,42.469 C35.542,44.419 33.961,46.000 32.010,46.000 ZM32.010,35.542 C30.060,35.542 28.479,33.961 28.479,32.010 C28.479,30.060 30.060,28.479 32.010,28.479 C33.961,28.479 35.542,30.060 35.542,32.010 C35.542,33.961 33.961,35.542 32.010,35.542 ZM32.010,25.062 C30.060,25.062 28.479,23.482 28.479,21.531 C28.479,19.581 30.060,18.000 32.010,18.000 C33.961,18.000 35.542,19.581 35.542,21.531 C35.542,23.482 33.961,25.062 32.010,25.062 ZM21.531,46.000 C19.581,46.000 18.000,44.419 18.000,42.469 C18.000,40.518 19.581,38.938 21.531,38.938 C23.482,38.938 25.062,40.518 25.062,42.469 C25.062,44.419 23.482,46.000 21.531,46.000 ZM21.531,35.542 C19.581,35.542 18.000,33.961 18.000,32.010 C18.000,30.060 19.581,28.479 21.531,28.479 C23.482,28.479 25.062,30.060 25.062,32.010 C25.062,33.961 23.482,35.542 21.531,35.542 ZM21.531,25.062 C19.581,25.062 18.000,23.482 18.000,21.531 C18.000,19.581 19.581,18.000 21.531,18.000 C23.482,18.000 25.062,19.581 25.062,21.531 C25.062,23.482 23.482,25.062 21.531,25.062 ZM42.469,38.938 C44.419,38.938 46.000,40.518 46.000,42.469 C46.000,44.419 44.419,46.000 42.469,46.000 C40.518,46.000 38.938,44.419 38.938,42.469 C38.938,40.518 40.518,38.938 42.469,38.938 Z" class="cls-2"/>
</svg>
