<svg version="1.1" xmlns="http://www.w3.org/2000/svg" xmlns:xlink="http://www.w3.org/1999/xlink" width="32" height="32" viewBox="0 0 32 32">
<defs>
<linearGradient id="gradient1" x1="50.000%" y1="0.000%" x2="50.000%" y2="100.000%" >
<stop offset="0%" stop-color="#6E6F70" />
<stop offset="100%" stop-color="#1D1D1E" />
</linearGradient>
</defs>
<g id="icon_rank_10_act">
<path id="bg" d="M29.551,7.953 C29.279,7.494 28.897,7.110 28.445,6.844 C28.445,6.844 17.562,0.429 17.562,0.429 C17.088,0.149 16.547,0.002 16.000,0.002 C15.452,0.002 14.912,0.149 14.438,0.429 C14.438,0.429 3.554,6.844 3.554,6.844 C3.083,7.121 2.690,7.522 2.418,8.002 C2.145,8.482 2.001,9.030 2.001,9.585 C2.001,9.585 2.001,22.415 2.001,22.415 C2.001,22.988 2.156,23.552 2.448,24.047 C2.720,24.506 3.102,24.890 3.554,25.156 C3.554,25.156 14.438,31.571 14.438,31.571 C14.912,31.851 15.452,31.998 16.000,31.998 C16.547,31.998 17.088,31.851 17.562,31.571 C17.562,31.571 28.445,25.156 28.445,25.156 C28.916,24.879 29.309,24.478 29.581,23.998 C29.854,23.518 29.998,22.970 29.998,22.415 C29.998,22.415 29.998,9.585 29.998,9.585 C29.998,9.012 29.844,8.448 29.551,7.953 z" fill="url(#gradient1)"/>
<path id="beam" d="M27.042,21.000 C26.698,21.000 26.332,20.674 26.332,20.333 C26.332,20.333 26.332,11.000 26.332,11.000 C26.332,10.523 26.173,10.085 25.759,9.861 C24.390,9.068 17.636,5.154 17.636,5.154 C17.339,4.982 17.239,4.605 17.412,4.310 C17.585,4.016 17.966,3.916 18.263,4.088 C18.263,4.088 26.626,8.921 26.626,8.921 C26.928,9.095 27.183,9.346 27.365,9.647 C27.561,9.972 27.664,10.342 27.664,10.717 C27.664,10.717 27.664,20.383 27.664,20.383 C27.664,20.724 27.385,21.000 27.042,21.000 zM19.636,14.528 L20.666,12.334 L21.696,14.528 L23.999,14.880 L22.332,16.588 L22.726,19.000 L20.666,17.861 L18.606,19.000 L18.999,16.588 L17.333,14.880 L19.636,14.528 zM25.579,22.975 C25.752,23.269 25.655,23.647 25.362,23.821 C25.362,23.821 17.123,28.708 17.123,28.708 C16.827,28.884 16.485,28.983 16.134,28.994 C16.114,28.994 16.094,28.995 16.074,28.995 C15.717,28.995 15.367,28.904 15.058,28.730 C15.058,28.730 6.642,24.010 6.642,24.010 C6.346,23.843 6.239,23.467 6.405,23.169 C6.571,22.871 6.945,22.764 7.242,22.931 C7.242,22.931 15.658,27.651 15.658,27.651 C15.791,27.726 15.944,27.765 16.098,27.759 C16.241,27.754 16.379,27.715 16.497,27.645 C16.497,27.645 24.737,22.757 24.737,22.757 C25.029,22.583 25.406,22.681 25.579,22.975 zM10.303,14.528 L11.333,12.334 L12.363,14.528 L14.666,14.880 L13.000,16.588 L13.393,19.000 L11.333,17.861 L9.274,19.000 L9.667,16.588 L8.000,14.880 L10.303,14.528 zM14.363,5.154 C14.363,5.154 7.609,9.068 6.241,9.861 C5.826,10.085 5.667,10.523 5.667,11.000 C5.667,11.000 5.667,20.333 5.667,20.333 C5.667,20.674 5.301,21.000 4.958,21.000 C4.614,21.000 4.335,20.724 4.335,20.383 C4.335,20.383 4.335,10.717 4.335,10.717 C4.335,10.342 4.439,9.972 4.635,9.647 C4.816,9.346 5.071,9.095 5.373,8.921 C5.373,8.921 13.736,4.088 13.736,4.088 C14.034,3.916 14.414,4.016 14.588,4.310 C14.761,4.605 14.660,4.982 14.363,5.154 z" fill="#FFFFFF" />
</g>
</svg>
