<svg version="1.1" xmlns="http://www.w3.org/2000/svg" xmlns:xlink="http://www.w3.org/1999/xlink" width="32" height="32" viewBox="0 0 32 32"><defs><linearGradient id="gradient1" gradientUnits="userSpaceOnUse" x1="50.000%" y1="0.000%" x2="50.000%" y2="100.000%" ><stop offset="0%" stop-color="#6E6F70" /><stop offset="100%" stop-color="#1D1D1E" /></linearGradient><filter id="bg-fx" filterUnits="userSpaceOnUse"><feFlood flood-color="#E1E3E5" /><feComposite operator="in" in2="SourceAlpha" result="sourceFill" /><feBlend mode="normal" in="SourceGraphic" in2="sourceFill" result="gradientFill" /></filter></defs><g id="icon_rank_11_act"><path id="bg" d="M29.547,7.953 C29.276,7.494 28.893,7.110 28.442,6.844 C28.442,6.844 17.558,0.429 17.558,0.429 C17.084,0.149 16.544,0.002 15.996,0.002 C15.448,0.002 14.908,0.149 14.434,0.429 C14.434,0.429 3.550,6.844 3.550,6.844 C3.080,7.121 2.687,7.522 2.415,8.002 C2.142,8.482 1.997,9.030 1.997,9.585 C1.997,9.585 1.997,22.415 1.997,22.415 C1.997,22.988 2.152,23.552 2.445,24.047 C2.717,24.506 3.099,24.890 3.550,25.156 C3.550,25.156 14.434,31.571 14.434,31.571 C14.908,31.851 15.448,31.998 15.996,31.998 C16.544,31.998 17.084,31.851 17.558,31.571 C17.558,31.571 28.442,25.156 28.442,25.156 C28.913,24.879 29.305,24.478 29.578,23.998 C29.850,23.518 29.995,22.970 29.995,22.415 C29.995,22.415 29.995,9.585 29.995,9.585 C29.995,9.012 29.840,8.448 29.547,7.953 z" fill="url(#gradient1)" filter="url(#bg-fx)" /><path id="beam" d="M27.038,21.000 C26.694,21.000 26.328,20.674 26.328,20.333 C26.328,20.333 26.328,11.000 26.328,11.000 C26.328,10.523 26.170,10.085 25.755,9.861 C24.386,9.068 17.633,5.154 17.633,5.154 C17.336,4.982 17.235,4.605 17.408,4.310 C17.581,4.016 17.962,3.916 18.259,4.088 C18.259,4.088 26.622,8.921 26.622,8.921 C26.924,9.095 27.180,9.346 27.361,9.647 C27.557,9.972 27.660,10.342 27.660,10.717 C27.660,10.717 27.660,20.383 27.660,20.383 C27.660,20.724 27.382,21.000 27.038,21.000 zM17.663,11.255 L18.056,13.667 L15.996,12.528 L13.936,13.667 L14.330,11.255 L12.663,9.547 L14.966,9.195 L15.996,7.001 L17.026,9.195 L19.329,9.547 L17.663,11.255 zM14.360,5.154 C14.360,5.154 7.606,9.068 6.237,9.861 C5.822,10.085 5.664,10.523 5.664,11.000 C5.664,11.000 5.664,20.333 5.664,20.333 C5.664,20.674 5.298,21.000 4.954,21.000 C4.610,21.000 4.332,20.724 4.332,20.383 C4.332,20.383 4.332,10.717 4.332,10.717 C4.332,10.342 4.435,9.972 4.631,9.647 C4.813,9.346 5.068,9.095 5.370,8.921 C5.370,8.921 13.733,4.088 13.733,4.088 C14.030,3.916 14.411,4.016 14.584,4.310 C14.757,4.605 14.657,4.982 14.360,5.154 zM10.300,17.194 L11.330,15.000 L12.360,17.194 L14.663,17.546 L12.996,19.254 L13.390,21.666 L11.330,20.527 L9.270,21.666 L9.663,19.254 L7.997,17.546 L10.300,17.194 zM19.632,17.194 L20.662,15.000 L21.692,17.194 L23.995,17.546 L22.329,19.254 L22.722,21.666 L20.662,20.527 L18.602,21.666 L18.996,19.254 L17.329,17.546 L19.632,17.194 zM7.239,22.931 C7.239,22.931 15.655,27.651 15.655,27.651 C15.788,27.726 15.941,27.765 16.095,27.759 C16.237,27.754 16.375,27.715 16.493,27.645 C16.493,27.645 24.733,22.757 24.733,22.757 C25.026,22.583 25.403,22.681 25.576,22.975 C25.748,23.269 25.651,23.647 25.359,23.821 C25.359,23.821 17.119,28.708 17.119,28.708 C16.823,28.884 16.481,28.983 16.131,28.994 C16.111,28.994 16.090,28.995 16.070,28.995 C15.713,28.995 15.364,28.904 15.055,28.730 C15.055,28.730 6.639,24.010 6.639,24.010 C6.342,23.843 6.236,23.467 6.402,23.169 C6.567,22.871 6.942,22.764 7.239,22.931 z" fill="#FFFFFF" /></g></svg>