<svg version="1.1" xmlns="http://www.w3.org/2000/svg" xmlns:xlink="http://www.w3.org/1999/xlink" width="32" height="32" viewBox="0 0 32 32">
<g id="icon_rank_05">
<path id="beam" d="M29.585,23.998 C29.312,24.478 28.919,24.879 28.449,25.156 C28.449,25.156 17.564,31.571 17.564,31.571 C17.090,31.851 16.550,31.998 16.002,31.998 C15.454,31.998 14.914,31.851 14.440,31.571 C14.440,31.571 3.555,25.156 3.555,25.156 C3.103,24.890 2.721,24.506 2.449,24.047 C2.156,23.552 2.002,22.988 2.002,22.415 C2.002,22.415 2.002,9.585 2.002,9.585 C2.002,9.030 2.146,8.482 2.419,8.002 C2.691,7.522 3.084,7.121 3.555,6.844 C3.555,6.844 14.440,0.429 14.440,0.429 C14.914,0.149 15.454,0.002 16.002,0.002 C16.550,0.002 17.090,0.149 17.564,0.429 C17.564,0.429 28.449,6.844 28.449,6.844 C28.900,7.110 29.283,7.494 29.554,7.953 C29.847,8.448 30.002,9.012 30.002,9.585 C30.002,9.585 30.002,22.415 30.002,22.415 C30.002,22.970 29.857,23.518 29.585,23.998 zM29.002,9.629 C29.002,9.272 28.901,8.931 28.722,8.636 C28.556,8.362 28.324,8.128 28.037,7.963 C28.037,7.963 16.967,1.592 16.967,1.592 C16.668,1.420 16.335,1.334 16.002,1.334 C15.669,1.334 15.335,1.420 15.037,1.592 C15.037,1.592 3.967,7.963 3.967,7.963 C3.669,8.134 3.428,8.378 3.262,8.665 C3.094,8.953 3.002,9.284 3.002,9.629 C3.002,9.629 3.002,22.371 3.002,22.371 C3.002,22.727 3.103,23.069 3.281,23.364 C3.447,23.638 3.680,23.872 3.967,24.037 C3.967,24.037 15.037,30.408 15.037,30.408 C15.335,30.580 15.669,30.666 16.002,30.666 C16.335,30.666 16.668,30.580 16.967,30.408 C16.967,30.408 28.037,24.037 28.037,24.037 C28.334,23.866 28.575,23.622 28.742,23.335 C28.909,23.047 29.002,22.715 29.002,22.371 C29.002,22.371 29.002,9.629 29.002,9.629 zM27.045,21.000 C26.701,21.000 26.335,20.674 26.335,20.333 C26.335,20.333 26.335,11.000 26.335,11.000 C26.335,10.523 26.177,10.085 25.762,9.861 C24.393,9.068 17.638,5.154 17.638,5.154 C17.341,4.982 17.241,4.605 17.414,4.310 C17.587,4.016 17.968,3.916 18.265,4.088 C18.265,4.088 26.629,8.921 26.629,8.921 C26.931,9.095 27.186,9.346 27.368,9.647 C27.564,9.972 27.667,10.342 27.667,10.717 C27.667,10.717 27.667,20.383 27.667,20.383 C27.667,20.724 27.389,21.000 27.045,21.000 zM19.638,14.528 L20.668,12.334 L21.698,14.528 L24.002,14.880 L22.335,16.588 L22.729,19.000 L20.668,17.861 L18.608,19.000 L19.002,16.588 L17.335,14.880 L19.638,14.528 zM25.582,22.975 C25.755,23.269 25.658,23.647 25.365,23.821 C25.365,23.821 17.125,28.708 17.125,28.708 C16.829,28.884 16.487,28.983 16.137,28.994 C16.116,28.994 16.096,28.995 16.076,28.995 C15.719,28.995 15.370,28.904 15.060,28.730 C15.060,28.730 6.644,24.010 6.644,24.010 C6.347,23.843 6.241,23.467 6.406,23.169 C6.572,22.871 6.947,22.764 7.244,22.931 C7.244,22.931 15.660,27.651 15.660,27.651 C15.793,27.726 15.946,27.765 16.101,27.759 C16.243,27.754 16.381,27.715 16.499,27.645 C16.499,27.645 24.740,22.757 24.740,22.757 C25.032,22.583 25.409,22.681 25.582,22.975 zM10.305,14.528 L11.335,12.334 L12.365,14.528 L14.668,14.880 L13.002,16.588 L13.395,19.000 L11.335,17.861 L9.275,19.000 L9.668,16.588 L8.002,14.880 L10.305,14.528 zM14.365,5.154 C14.365,5.154 7.611,9.068 6.242,9.861 C5.827,10.085 5.668,10.523 5.668,11.000 C5.668,11.000 5.668,20.333 5.668,20.333 C5.668,20.674 5.302,21.000 4.959,21.000 C4.615,21.000 4.336,20.724 4.336,20.383 C4.336,20.383 4.336,10.717 4.336,10.717 C4.336,10.342 4.440,9.972 4.636,9.647 C4.817,9.346 5.073,9.095 5.374,8.921 C5.374,8.921 13.738,4.088 13.738,4.088 C14.036,3.916 14.416,4.016 14.589,4.310 C14.763,4.605 14.662,4.982 14.365,5.154 z"  />
</g>
</svg>
