<svg version="1.1" xmlns="http://www.w3.org/2000/svg" xmlns:xlink="http://www.w3.org/1999/xlink" width="32" height="32" viewBox="0 0 32 32"><defs><linearGradient id="gradient1" gradientUnits="userSpaceOnUse" x1="50.000%" y1="3.125%" x2="50.000%" y2="96.875%" ><stop offset="0%" stop-color="#859CFF" /><stop offset="100%" stop-color="#6E85FF" /></linearGradient><filter id="Ellipse-1-fx" filterUnits="userSpaceOnUse"><feFlood flood-color="#6E85FF" /><feComposite operator="in" in2="SourceAlpha" result="sourceFill" /><feBlend mode="normal" in="SourceGraphic" in2="sourceFill" result="gradientFill" /></filter><linearGradient id="gradient2" gradientUnits="userSpaceOnUse" x1="50.000%" y1="76.562%" x2="50.000%" y2="23.438%" ><stop offset="0%" stop-color="#859CFF" /><stop offset="100%" stop-color="#6E85FF" /></linearGradient><filter id="Ellipse-1-fx" filterUnits="userSpaceOnUse"><feFlood flood-color="#6E85FF" /><feComposite operator="in" in2="SourceAlpha" result="sourceFill" /><feBlend mode="normal" in="SourceGraphic" in2="sourceFill" result="gradientFill" /></filter><linearGradient id="gradient3" gradientUnits="userSpaceOnUse" x1="50.000%" y1="35.938%" x2="50.000%" y2="64.062%" ><stop offset="0%" stop-color="#859CFF" /><stop offset="100%" stop-color="#6E85FF" /></linearGradient><filter id="Ellipse-1-fx" filterUnits="userSpaceOnUse"><feFlood flood-color="#6E85FF" /><feComposite operator="in" in2="SourceAlpha" result="sourceFill" /><feBlend mode="normal" in="SourceGraphic" in2="sourceFill" result="gradientFill" /></filter></defs><g id="icon_rank_specia"><path id="Ellipse-1" d="M16.000,1.000 C24.284,1.000 31.000,7.716 31.000,16.000 C31.000,24.284 24.284,31.000 16.000,31.000 C7.716,31.000 1.000,24.284 1.000,16.000 C1.000,7.716 7.716,1.000 16.000,1.000 z" fill="url(#gradient1)" filter="url(#Ellipse-1-fx)" /><path id="Ellipse-1" d="M15.992,7.813 C20.510,7.813 24.172,11.478 24.172,16.000 C24.172,20.522 20.510,24.187 15.992,24.187 C11.475,24.187 7.813,20.522 7.813,16.000 C7.813,11.478 11.475,7.813 15.992,7.813 z" fill="url(#gradient2)" filter="url(#Ellipse-1-fx)" /><path id="Ellipse-1" d="M15.945,11.875 C18.202,11.875 20.031,13.701 20.031,15.953 C20.031,18.205 18.202,20.031 15.945,20.031 C13.689,20.031 11.859,18.205 11.859,15.953 C11.859,13.701 13.689,11.875 15.945,11.875 z" fill="url(#gradient3)" filter="url(#Ellipse-1-fx)" /><path id="beam" d="M28.063,16.438 L27.921,17.417 L27.230,16.709 L26.254,16.876 L26.714,16.000 L26.254,15.124 L27.230,15.291 L27.921,14.583 L28.063,15.562 L28.951,16.000 L28.063,16.438 zM25.156,25.156 L24.218,24.838 L23.424,25.430 L23.437,24.441 L22.629,23.869 L23.574,23.576 L23.868,22.631 L24.440,23.439 L25.430,23.426 L24.838,24.219 L25.156,25.156 zM24.440,8.561 L23.868,9.369 L23.574,8.425 L22.629,8.131 L23.437,7.559 L23.424,6.570 L24.218,7.162 L25.156,6.844 L24.838,7.781 L25.430,8.574 L24.440,8.561 zM17.468,18.044 L15.993,17.229 L14.518,18.044 L14.799,16.318 L13.606,15.095 L15.255,14.843 L15.993,13.273 L16.730,14.843 L18.380,15.095 L17.186,16.318 L17.468,18.044 zM16.869,5.747 L15.993,5.287 L15.116,5.747 L15.284,4.772 L14.574,4.081 L15.554,3.939 L15.993,3.052 L16.431,3.939 L17.411,4.081 L16.702,4.772 L16.869,5.747 zM8.561,25.430 L7.767,24.838 L6.830,25.156 L7.148,24.219 L6.555,23.426 L7.546,23.439 L8.117,22.631 L8.411,23.576 L9.357,23.869 L8.548,24.441 L8.561,25.430 zM8.411,8.425 L8.117,9.369 L7.546,8.561 L6.555,8.574 L7.148,7.781 L6.830,6.844 L7.767,7.162 L8.561,6.570 L8.548,7.559 L9.357,8.131 L8.411,8.425 zM4.756,16.709 L4.065,17.417 L3.922,16.438 L3.034,16.000 L3.922,15.562 L4.065,14.583 L4.756,15.291 L5.732,15.124 L5.271,16.000 L5.732,16.876 L4.756,16.709 zM15.116,26.253 L15.993,26.713 L16.869,26.253 L16.702,27.228 L17.411,27.919 L16.431,28.061 L15.993,28.949 L15.554,28.061 L14.574,27.919 L15.284,27.228 L15.116,26.253 z" fill="#FFFFFF" /></g></svg>