<svg version="1.1" xmlns="http://www.w3.org/2000/svg" xmlns:xlink="http://www.w3.org/1999/xlink" width="32" height="32" viewBox="0 0 32 32"><g id="icon_rank_specia"><path id="beam" d="M16.000,31.000 C7.716,31.000 1.000,24.284 1.000,16.000 C1.000,7.716 7.716,1.000 16.000,1.000 C24.284,1.000 31.000,7.716 31.000,16.000 C31.000,24.284 24.284,31.000 16.000,31.000 zM15.992,2.375 C8.454,2.375 2.344,8.475 2.344,16.000 C2.344,23.525 8.454,29.625 15.992,29.625 C23.530,29.625 29.641,23.525 29.641,16.000 C29.641,8.475 23.530,2.375 15.992,2.375 zM28.063,16.438 L27.921,17.417 L27.230,16.709 L26.254,16.876 L26.714,16.000 L26.254,15.124 L27.230,15.291 L27.921,14.583 L28.063,15.562 L28.951,16.000 L28.063,16.438 zM25.156,25.156 L24.218,24.838 L23.424,25.430 L23.437,24.441 L22.628,23.869 L22.628,23.869 L22.628,23.869 L23.574,23.576 L23.868,22.631 L24.440,23.439 L25.430,23.426 L24.838,24.219 L25.156,25.156 zM24.440,8.561 L23.868,9.369 L23.574,8.425 L22.628,8.131 L23.437,7.559 L23.424,6.570 L24.218,7.162 L25.156,6.844 L24.838,7.781 L25.430,8.574 L24.440,8.561 zM15.984,24.172 C11.463,24.172 7.797,20.513 7.797,16.000 C7.797,11.487 11.463,7.828 15.984,7.828 C20.506,7.828 24.172,11.487 24.172,16.000 C24.172,20.513 20.506,24.172 15.984,24.172 zM15.938,11.859 C13.677,11.859 11.844,13.692 11.844,15.953 C11.844,18.214 13.677,20.047 15.938,20.047 C18.198,20.047 20.031,18.214 20.031,15.953 C20.031,13.692 18.198,11.859 15.938,11.859 zM17.468,18.044 L15.993,17.229 L14.517,18.044 L14.799,16.318 L13.606,15.095 L15.255,14.843 L15.993,13.273 L16.730,14.843 L18.380,15.095 L17.186,16.318 L17.468,18.044 zM16.869,5.747 L15.992,5.287 L15.116,5.747 L15.283,4.772 L14.574,4.081 L15.554,3.939 L15.992,3.052 L16.431,3.939 L17.411,4.081 L16.702,4.772 L16.869,5.747 zM8.411,8.425 L8.117,9.369 L7.545,8.561 L6.555,8.574 L7.147,7.781 L6.829,6.844 L7.767,7.162 L8.561,6.570 L8.548,7.559 L9.357,8.131 L8.411,8.425 zM7.545,23.439 L8.117,22.631 L8.411,23.576 L9.357,23.869 L9.357,23.869 L9.357,23.869 L8.548,24.441 L8.561,25.430 L7.767,24.838 L6.829,25.156 L7.147,24.219 L6.555,23.426 L7.545,23.439 zM15.283,27.228 L15.116,26.253 L15.992,26.713 L16.869,26.253 L16.702,27.228 L17.411,27.919 L17.411,27.919 L17.411,27.919 L16.431,28.061 L15.992,28.949 L15.554,28.061 L14.574,27.919 L14.574,27.919 L14.574,27.919 L15.283,27.228 zM4.755,16.709 L4.064,17.417 L3.922,16.438 L3.034,16.000 L3.922,15.562 L4.064,14.583 L4.755,15.291 L5.731,15.124 L5.271,16.000 L5.731,16.876 L4.755,16.709 z" fill="#283E92" /></g></svg>