<svg viewBox="0 0 305 179" xmlns="http://www.w3.org/2000/svg">
    <title>brainly math solver logo</title>
    <path fill-rule="evenodd" clip-rule="evenodd" d="M272.865 22.8249V10.716L305 4V39.4084L291.046 42.2565V19.6987L272.865 22.8249ZM19.8335 145.996L285.023 100.745V28.0831L19.8335 73.5949V145.996ZM13.1404 66.07L32.8129 62.6909V50.1438L0 56.9777V90.9536L13.1404 88.215V66.07ZM13.1404 136.634L0 139.356V175L32.8129 168.217V153.748L13.1404 157.11V136.634ZM272.865 109.416L291.046 106.315V85.9988L305 83.1675V116.056L272.865 122.73V109.416Z" fill="#CF1D00"/>
    <path fill-rule="evenodd" clip-rule="evenodd" d="M252.159 63.4325L258.335 48.4922L273.305 45.9137L258.928 73.4095V89.4958L256.776 89.875L245.389 91.83L213.093 97.3915V56.2784L226.573 53.9526V84.0523L245.389 80.808V75.7437L231.071 53.1858L246.05 50.6073L252.159 63.4325ZM195.327 74.8673C195.327 77.8419 195.624 82.2658 195.624 82.2658L183.644 61.3764L168.962 63.9044V105.026L182.153 102.759V87.2628C182.153 84.2882 181.856 79.8642 181.856 79.8642L194.429 100.653L208.501 98.2257V57.1041L195.327 59.3624V74.8673ZM150.831 67.039L152.144 66.8199L164.37 64.7217V105.843L150.814 108.177L138.106 110.368L136.488 104.866L124.703 106.897L123.144 112.947L114.155 114.48L109.071 115.323L98.5913 117.143L91.9999 104.562L90.2546 104.866V118.618L76.699 120.952V79.8389L94.6771 76.7379C99.7689 75.87 103.666 76.0722 106.657 77.6564C109.648 79.2406 111.74 82.4511 111.74 86.9256C111.8 89.5768 111.203 92.2018 110.002 94.5692C108.8 96.9366 107.032 98.9737 104.852 100.501L110.927 109.677L123.423 71.7578L138.411 69.1793L150.831 102.582V67.039ZM93.5927 94.1725C94.6886 94.0602 95.7279 93.6327 96.5833 92.9422C97.071 92.5806 97.4624 92.106 97.7238 91.5597C97.9851 91.0134 98.1084 90.412 98.0829 89.8075C98.1463 89.2809 98.0338 88.7482 97.7628 88.2914C97.4918 87.8346 97.0774 87.4791 96.5833 87.2796C95.6509 86.8351 94.5872 86.7452 93.5927 87.0268L90.2038 87.6082V94.7623L93.5927 94.1725ZM130.616 84.5241L127.558 96.0684L133.675 95.0236L130.616 84.5241ZM70.4065 96.8321C69.3909 98.599 67.9451 100.084 66.202 101.15C70.9972 101.638 74.1235 104.68 74.1235 109.45C74.1978 111.365 73.8178 113.271 73.0142 115.013C72.2106 116.755 71.0059 118.284 69.4976 119.477C66.8035 121.727 62.6182 123.345 58.721 124.011L34.4311 128.165V118.449L38.3453 117.801V96.119L34.4311 96.7595V87.0521L55.4253 83.4624C59.0175 82.8472 62.9147 82.4764 65.9054 83.1506C67.7031 83.5225 69.3075 84.5224 70.428 85.9692C71.5485 87.416 72.1111 89.2141 72.0139 91.0378C71.9748 93.0727 71.4221 95.0652 70.4065 96.8321ZM54.5018 93.3298L51.7992 93.7933L51.8246 99.7509L54.5272 99.2958C55.624 99.2315 56.6715 98.8212 57.5179 98.1245C57.9077 97.8301 58.2205 97.4467 58.4298 97.0067C58.6392 96.5667 58.7391 96.083 58.721 95.5966C58.7803 95.1497 58.6927 94.6957 58.4713 94.3024C58.2499 93.909 57.9065 93.5975 57.4925 93.4141C56.6085 92.9745 56.02 93.0738 54.5715 93.3181L54.5018 93.3298ZM56.2979 114.464C57.4084 114.365 58.4573 113.913 59.2886 113.174L59.3056 113.183C59.6977 112.85 60.0084 112.433 60.214 111.962C60.4195 111.492 60.5145 110.982 60.4917 110.469C60.5523 110.002 60.47 109.526 60.2555 109.105C60.0409 108.685 59.704 108.338 59.2886 108.11C58.3906 107.672 57.7975 107.655 56.2979 107.916L51.7992 108.683V115.239L56.2979 114.464Z" fill="white"/>
</svg>
