<svg viewBox="0 0 305 179" xmlns="http://www.w3.org/2000/svg">
    
    <path d="M269.673 25.2017L30.5803 66.2075C27.3381 66.7618 24.3978 68.4351 22.2787 70.9319C20.1597 73.4287 18.9984 76.5883 19 79.8524V124.445C19 124.871 19 125.288 19.0573 125.7V153.99C19.0573 153.99 37.6335 155.013 43.4881 136.701L274.405 97.3254C277.65 96.7742 280.594 95.1021 282.716 92.605C284.838 90.1079 286.001 86.9466 286 83.6805V38.8466C286 36.8291 285.556 34.8358 284.699 33.0064C283.841 31.177 282.591 29.5556 281.036 28.2558C279.481 26.956 277.658 26.0092 275.695 25.4817C273.732 24.9541 271.677 24.8586 269.673 25.2017Z" fill="#0089E3"/>
    <path fill-rule="evenodd" clip-rule="evenodd" d="M258.652 83.9706V67.8529L273.058 40.2949L258.058 42.8772L251.863 57.8503L245.749 44.9959L230.74 47.5829L245.088 70.1845V75.2638L226.233 78.5129V48.3538L212.73 50.6806V91.8828L245.088 86.3069L256.499 84.3536L258.652 83.9706ZM208.114 92.7009L194.008 95.1271L181.404 74.3179C181.404 74.3179 181.699 78.7493 181.699 81.7288V97.2553L168.491 99.5301V58.3279L183.201 55.7977L195.206 76.7251C195.206 76.7251 194.906 72.2937 194.906 69.3095V53.7783L208.114 51.5082V92.7009ZM150.339 61.4587L151.651 61.2364L163.908 59.1224V100.358L150.339 102.699L137.588 104.893L135.967 99.3787L124.138 101.408L122.578 107.471L113.574 109.017L108.467 109.892L97.9651 111.708L91.3613 99.1092L89.6164 99.4118V113.127L76.0475 115.463V74.2564L94.0617 71.1208C99.1631 70.2743 103.071 70.4918 106.071 72.0667C109.071 73.6416 111.168 76.8623 111.168 81.341C111.168 89.648 106.132 93.5202 104.302 94.9271L104.269 94.9521L110.355 104.141L122.878 66.1881L137.887 63.6011L150.339 97.0756V61.4587ZM92.9825 88.6573C94.4801 88.4019 95.4453 87.9431 95.9825 87.4229C96.4691 87.0644 96.8604 86.5931 97.1222 86.0499C97.3841 85.5068 97.5085 84.9082 97.4849 84.3063C97.4849 82.63 96.7236 82.1857 96.1161 81.8311L96.116 81.831C96.0705 81.8045 96.0259 81.7784 95.9825 81.7524C95.3597 81.3788 94.4801 81.237 92.9825 81.4971L89.5594 82.0788V89.2484L92.9825 88.6573ZM130.081 78.9905L127.019 90.5632L133.143 89.5086L130.081 78.9905ZM69.7587 91.3219C68.741 93.0936 67.2921 94.5826 65.5451 95.652V95.6757C70.347 96.1628 73.4754 99.2132 73.4754 103.99C73.4754 108.767 71.5546 111.77 68.8399 114.035C66.1251 116.3 61.946 117.913 58.0427 118.58L33.71 122.747V113.009L37.6275 112.361V90.6058L33.71 91.2537V81.5207L54.7385 77.9264C58.3423 77.3116 62.2456 76.9379 65.2456 77.6142C68.2456 78.2905 71.3692 80.7309 71.3692 85.5123C71.3301 87.5525 70.7763 89.5501 69.7587 91.3219ZM53.8399 87.8296L51.1347 88.3026V94.2757L53.8399 93.8028C55.3423 93.5427 55.9413 93.3819 56.8399 92.6347C57.2311 92.3389 57.5447 91.9536 57.7541 91.5114C57.9635 91.0693 58.0625 90.5834 58.0427 90.095C58.0427 89.0214 57.7385 88.3641 56.8399 87.9148C55.9418 87.4657 55.3429 87.5694 53.8422 87.8292L53.8399 87.8296ZM55.6418 109.027C57.1394 108.771 57.7385 108.488 58.6418 107.736V107.74C59.0376 107.409 59.3519 106.993 59.5604 106.522C59.769 106.051 59.8662 105.539 59.8446 105.026C59.8446 103.947 59.5451 103.106 58.6418 102.661C57.7385 102.216 57.1394 102.202 55.6418 102.467L51.1347 103.233V109.802L55.6418 109.027Z" fill="white"/>
</svg>
