<svg viewBox="0 0 305 179" xmlns="http://www.w3.org/2000/svg">
    <title>brainly textbook detective logo</title>
    <path fill-rule="evenodd" clip-rule="evenodd" d="M154.426 134.651C154.426 134.651 163.699 124.795 184.292 117.206C206.769 108.917 254.228 118.503 286 108.946V23C259.4 29.1577 205.417 19.5633 182.866 27.4207C157.603 36.2174 153 47.2654 153 47.2654C153 47.2654 148.397 37.9021 123.134 38.3196C100.583 38.6849 46.6 67.9823 20 71.5382V157C51.7722 154.92 100.657 127.054 123.134 127.181C143.727 127.218 154.426 134.651 154.426 134.651Z" fill="#24A865"/>
    <path fill-rule="evenodd" clip-rule="evenodd" d="M253.075 58.9992L259.267 43.8212L274.259 41.2046L259.858 69.1377V85.4861L257.708 85.8663L246.299 87.8567L213.951 93.5075V51.7308L227.45 49.3676V79.9472L246.299 76.6596V71.5083L231.958 48.5923L246.957 45.9682L253.075 58.9992ZM196.151 70.6138C196.151 73.6479 196.454 78.1357 196.454 78.1357L184.447 56.9194L169.751 59.4838V101.231L182.955 98.9272V83.2199C182.955 80.1932 182.652 75.698 182.652 75.698L195.257 96.81L209.355 94.3499V52.603L196.151 54.8693V70.6138ZM151.589 62.6669L152.897 62.4433V62.488L165.147 60.356V102.103L151.589 104.436L138.843 106.673L137.225 101.082L125.402 103.139L123.836 109.289L114.836 110.855L109.738 111.742L99.2384 113.591L92.6328 100.813L90.889 101.119V115.044L77.3304 117.415V75.6308L95.3297 72.4849C100.428 71.6052 104.337 71.8289 107.337 73.4242C110.337 75.0195 112.435 78.2847 112.435 82.8247C112.497 85.5199 111.9 88.1889 110.697 90.5958C109.493 93.0026 107.72 95.0729 105.534 96.6236L111.622 105.942L124.139 67.4529L139.146 64.8288L151.589 98.778V62.6669ZM94.2953 90.2348C95.3807 90.118 96.4083 89.6826 97.2508 88.9824C97.7344 88.6175 98.122 88.1386 98.3796 87.5875C98.6373 87.0365 98.7571 86.4301 98.7286 85.8216C98.7286 84.1722 97.9935 83.7071 97.4366 83.3549C97.3718 83.3139 97.3094 83.2744 97.2508 83.2347C96.6893 82.8545 95.7731 82.7129 94.2953 82.9738L90.8668 83.5627V90.8312L94.2953 90.2348ZM131.343 80.4317L128.284 92.1656L134.41 91.0996L131.343 80.4317ZM71.0368 92.935C70.0193 94.7314 68.5704 96.2408 66.8234 97.3243C71.6262 97.8238 74.7591 100.91 74.7591 105.756C74.8323 107.701 74.4511 109.636 73.6463 111.405C72.8416 113.174 71.6357 114.727 70.1262 115.939C67.4588 118.235 63.2324 119.875 59.3311 120.546L35.0068 124.773V114.903L38.9229 114.247V92.2103L35.0068 92.8664V82.9962L56.0282 79.3508C59.6266 78.7321 63.5279 78.3519 66.5278 79.0377C69.5277 79.7236 72.6458 82.1986 72.6458 87.0442C72.6075 89.1128 72.0542 91.1386 71.0368 92.935ZM55.1268 89.3924L52.4224 89.8695V95.9452L55.1268 95.4756C56.6489 95.2146 57.2252 95.0357 58.1267 94.2902C58.5176 93.9909 58.8312 93.6008 59.0409 93.153C59.2506 92.7053 59.3501 92.2132 59.3311 91.7183C59.3965 91.2643 59.3146 90.8011 59.0975 90.398C58.8804 89.9949 58.5398 89.6735 58.1267 89.4819C57.2252 89.0272 56.6046 89.1315 55.1268 89.3924ZM56.9444 110.862C58.0423 110.756 59.0779 110.299 59.9 109.558C60.2993 109.228 60.6187 108.811 60.8338 108.338C61.049 107.866 61.1542 107.349 61.1413 106.829C61.2013 106.355 61.1194 105.874 60.9061 105.448C60.6928 105.021 60.3578 104.669 59.9443 104.436C59.0429 103.989 58.4222 103.974 56.9444 104.242L52.4372 104.988V111.645L56.9444 110.862Z" fill="white"/>
</svg>
