<svg viewBox="0 0 296 179" xmlns="http://www.w3.org/2000/svg">
    <title>brainly tutor logo</title>
    <path d="M175.619 179C175.619 179 175.619 167.505 175.455 162.046C175.208 152.701 172.741 145.92 168.876 142.86C161.722 137.236 152.184 140.544 143.796 142.033C117.894 146.581 71.2701 154.686 42.2432 159.731C-3.39399 167.67 -19.4287 103.66 31.6357 80.7518C22.1793 52.3029 59.018 19.967 87.3871 36.1763C89.3606 10.7045 136.971 -16.752 174.386 14.0952C197.656 -11.4592 259.986 -2.11406 260.891 40.8902C283.915 42.3788 294.851 59.7459 295.92 78.1054C296.989 96.9611 287.451 116.892 257.848 122.102C243.047 124.748 221.996 128.305 214.185 129.628C202.426 131.613 203.166 148.566 200.534 159.152C197.656 170.813 189.927 178.338 175.619 179Z" fill="#C98600"/>
    <path fill-rule="evenodd" clip-rule="evenodd" d="M256.779 105.645V89.27L271.169 61.3173L256.121 63.9637L249.954 79.1806L243.787 66.1139L228.739 68.7603L243.129 91.6683V96.7958L224.217 100.104V69.5046L210.649 71.9029V113.667L243.129 108.043L254.559 106.058L256.779 105.645ZM206.044 114.494L191.9 116.975L179.237 95.886C179.237 95.886 179.566 100.352 179.566 103.412V119.125L166.327 121.44V79.6767L181.046 77.113L193.134 98.367C193.134 98.367 192.805 93.9012 192.805 90.8413V75.0455L206.044 72.7299V114.494ZM148.072 82.8193L149.388 82.5712L161.722 80.5037V122.267L148.072 124.666L135.245 126.899L133.6 121.275L121.759 123.343L120.197 129.462L111.151 131.034L106.053 131.943L95.5278 133.763L88.8672 120.944L87.1404 121.275V135.169L73.4904 137.567V95.8032L91.5808 92.6606C96.7612 91.7509 100.626 91.999 103.668 93.5703C106.629 95.2243 108.767 98.4497 108.767 102.998C108.767 111.444 103.755 115.337 101.907 116.773L101.859 116.809L107.944 126.154L120.525 87.6159L135.573 84.9695L148.072 118.959V82.8193ZM90.5118 110.359C92.0742 110.11 92.9787 109.614 93.5543 109.118C94.2121 108.539 95.0344 107.795 95.0344 105.975C95.0344 104.249 94.22 103.788 93.645 103.463C93.614 103.446 93.5837 103.429 93.5543 103.412C92.8965 103.081 91.9919 102.915 90.5118 103.164L87.0582 103.742V110.937L90.5118 110.359ZM127.679 100.6L124.637 112.343L130.722 111.268L127.679 100.6ZM68.8033 107.216C68.8033 112.013 65.6786 115.9 62.965 117.471C67.8165 117.967 70.9412 121.11 70.9412 125.906C70.9412 130.703 68.9677 133.763 66.2542 136.078C63.5406 138.394 59.3469 140.048 55.3999 140.71L30.9778 144.927V135.086L34.9248 134.424V112.343L30.9778 113.005V103.164L52.1108 99.5248C55.7288 98.8632 59.5936 98.5324 62.6361 99.194C65.6786 99.8556 68.8033 102.337 68.8033 107.216ZM51.2885 109.532L48.5749 110.028V116.065L51.2885 115.569C52.8508 115.321 53.4264 115.155 54.3309 114.411C55.2355 113.667 55.5644 112.84 55.5644 111.847C55.5644 110.772 55.2355 110.028 54.3309 109.614C53.4264 109.201 52.7686 109.283 51.2885 109.532ZM53.0153 131.034C54.5776 130.786 55.1532 130.455 56.0578 129.71C56.9623 128.966 57.2912 127.974 57.2912 126.899C57.2912 125.824 56.9623 124.914 56.0578 124.5C55.1532 124.087 54.4954 124.087 53.0153 124.335L48.4927 125.079V131.778L53.0153 131.034Z" fill="white"/>
</svg>
