<svg viewBox="0 0 80 80" xmlns="http://www.w3.org/2000/svg">
    <title>brainly textbook detective logo</title>
    <path d="M77.9922 25.1837L68.3175 20.3831L66.6452 10.3716C66.4035 9.25884 65.758 8.27504 64.8334 7.61012C63.9088 6.94521 62.7706 6.64633 61.6385 6.77118L51.1327 8.37138L43.5304 1.191C42.7386 0.426976 41.6812 0 40.5808 0C39.4804 0 38.4229 0.426976 37.6311 1.191L29.2491 8.37138L18.7433 6.77118C18.1746 6.6686 17.5912 6.68088 17.0273 6.80729C16.4634 6.93371 15.9306 7.17171 15.4601 7.50725C14.9897 7.8428 14.5912 8.26911 14.2882 8.76105C13.9851 9.25299 13.7837 9.80061 13.6956 10.3716L12.0233 20.3831L2.36906 25.1837C1.39779 25.7014 0.651486 26.5588 0.272919 27.5921C-0.105648 28.6254 -0.0898983 29.762 0.317153 30.7844L5.32381 40.0163L0.768573 49.2483C0.390092 50.2355 0.348884 51.3201 0.651372 52.3332C0.95386 53.3462 1.58305 54.2308 2.44088 54.849L12.0951 59.6598L13.7674 69.6611C14.014 70.7814 14.6681 71.7701 15.6027 72.4354C16.5374 73.1007 17.6859 73.3951 18.8254 73.2615L29.2799 71.61L36.8309 78.7904C37.6129 79.5653 38.6693 80 39.7703 80C40.8712 80 41.9276 79.5653 42.7096 78.7904L50.2094 71.61L60.7151 73.2102C61.2858 73.3176 61.8723 73.3094 62.4397 73.1861C63.0072 73.0627 63.5441 72.8268 64.0187 72.4922C64.4902 72.1527 64.8898 71.7231 65.1945 71.2284C65.4991 70.7337 65.7027 70.1836 65.7936 69.6098L67.4659 59.6085L77.1202 54.7977C77.6139 54.5595 78.0519 54.2198 78.4055 53.8009C78.759 53.382 79.0203 52.8933 79.1721 52.3666C79.3285 51.8477 79.3765 51.3021 79.3129 50.7639C79.2494 50.2256 79.0757 49.7062 78.8027 49.238L75.0683 40.0061L79.6953 30.7742C80.0639 29.7849 80.0991 28.7022 79.7953 27.6912C79.4916 26.6801 78.8656 25.7959 78.0128 25.1735" fill="#E3F7ED"/>
    <path d="M60.1223 50.5515C50.9801 52.1003 44.3765 46.6411 40.1798 54.9054C40.1365 54.9679 40.071 55.0115 39.9966 55.0275C39.9215 55.041 39.8441 55.0273 39.7781 54.9889C34.3474 47.0074 26.1082 55.2749 19.3375 56.6276C19.2963 56.6372 19.2534 56.6372 19.2122 56.6276C19.1711 56.6174 19.133 56.5979 19.1007 56.5706C19.0684 56.5433 19.0427 56.5089 19.0258 56.4702C19.0078 56.432 18.999 56.3902 19.0001 56.3481V30.3215C19.0015 30.2542 19.0239 30.189 19.0644 30.1351C19.1082 30.0836 19.1683 30.0485 19.2347 30.0355C26.015 28.6667 32.3005 22.2404 39.0969 29.3093C39.1618 29.3504 39.2403 29.3643 39.3154 29.3479C39.3884 29.3309 39.4532 29.2888 39.4985 29.229C43.7081 20.9616 50.8773 24.5507 60.0195 23.0019C60.1035 22.9927 60.1878 23.0169 60.2541 23.0694C60.2866 23.0967 60.3129 23.1307 60.3312 23.169C60.3475 23.2067 60.3573 23.2469 60.3601 23.2879V50.2784C60.3581 50.3448 60.3331 50.4084 60.2894 50.4583C60.2466 50.5083 60.1873 50.5414 60.1223 50.5515Z" fill="#24A865"/>
</svg>
