<svg viewBox="0 0 80 80" xmlns="http://www.w3.org/2000/svg">
    
    <path d="M78.0023 25.1757L68.317 20.3782L66.6446 10.3731C66.4029 9.26099 65.7574 8.27782 64.8328 7.61333C63.9081 6.94884 62.7699 6.65015 61.6378 6.77492L51.1317 8.3741L43.5291 1.19829C42.7398 0.429971 41.6814 0 40.5794 0C39.4774 0 38.419 0.429971 37.6297 1.19829L29.2474 8.3741L18.7515 6.77492C18.1822 6.67234 17.5981 6.68452 17.0336 6.81074C16.469 6.93697 15.9355 7.17468 15.4642 7.50991C14.993 7.84515 14.5935 8.27113 14.2894 8.76283C13.9853 9.25452 13.7827 9.802 13.6934 10.3731L12.021 20.3782L2.36648 25.1757C1.3968 25.6947 0.651914 26.5518 0.273554 27.5838C-0.104806 28.6158 -0.0902303 29.7508 0.314506 30.7729L5.32133 39.9989L0.765941 49.2249C0.387447 50.2115 0.346238 51.2954 0.648736 52.3079C0.951234 53.3203 1.58044 54.2043 2.4383 54.822L12.0928 59.6196L13.7652 69.6247C14.0118 70.7443 14.6659 71.7324 15.6006 72.3973C16.5352 73.0622 17.6838 73.3564 18.8233 73.2229L29.3294 71.6237L36.8807 78.7995C37.6653 79.5689 38.7208 80 39.8202 80C40.9196 80 41.975 79.5689 42.7596 78.7995L50.2596 71.6237L60.7657 73.2229C61.3402 73.3361 61.9317 73.332 62.5046 73.2108C63.0775 73.0896 63.6199 72.8538 64.0992 72.5177C64.5785 72.1815 64.9848 71.7519 65.2935 71.2547C65.6022 70.7575 65.807 70.2031 65.8957 69.6247L67.568 59.6196L77.2226 54.822C77.7139 54.5758 78.1484 54.2298 78.4983 53.8062C78.8482 53.3826 79.1057 52.8907 79.2545 52.3619C79.4032 51.8332 79.4398 51.2792 79.362 50.7355C79.2842 50.1918 79.0936 49.6703 78.8026 49.2044L75.068 39.9784L79.6952 30.7523C80.0632 29.7646 80.099 28.6839 79.7972 27.6739C79.4955 26.664 78.8726 25.7798 78.0228 25.1552" fill="#FFF3D6"/>
    <path d="M44.6352 56.0604C44.6352 56.0604 44.6352 54.0015 44.6055 53.0239C44.5611 51.3501 44.1167 50.1355 43.4205 49.5874C42.1319 48.5802 40.4136 49.1727 38.9028 49.4393C34.2369 50.254 25.8383 51.7056 20.6095 52.6092C12.3886 54.0312 9.50021 42.5664 18.6987 38.4633C16.9953 33.3679 23.6312 27.5763 28.7415 30.4795C29.097 25.9173 37.6733 20.9996 44.413 26.5246C48.6049 21.9476 59.8326 23.6214 59.9956 31.3238C64.143 31.5904 66.1131 34.701 66.3057 37.9894C66.4982 41.3666 64.78 44.9364 59.4475 45.8695C56.7813 46.3435 52.9893 46.9805 51.5822 47.2175C49.464 47.573 49.5973 50.6095 49.1233 52.5055C48.6049 54.594 47.2125 55.9419 44.6352 56.0604Z" fill="#C98600"/>
</svg>
