<svg viewBox="0 0 80 80" xmlns="http://www.w3.org/2000/svg">
    <title>brainly community qa logo</title>
    <path d="M78.0014 25.1725L68.3163 20.3756L66.644 10.382C66.4044 9.26816 65.7599 8.28268 64.835 7.61622C63.9102 6.94975 62.7708 6.64968 61.6372 6.77405L51.1313 8.37302L43.5289 1.19814C42.7396 0.429916 41.6812 0 40.5793 0C39.4773 0 38.4189 0.429916 37.6296 1.19814L29.2475 8.37302L18.7416 6.77405C18.1721 6.67162 17.5879 6.68426 17.0234 6.81122C16.459 6.93817 15.9257 7.17688 15.4551 7.51322C14.9846 7.84956 14.5863 8.27671 14.2838 8.76945C13.9812 9.26218 13.7806 9.81049 13.6938 10.382L12.0215 20.3756L2.36714 25.1725C1.3967 25.6933 0.65155 26.5521 0.273262 27.5857C-0.105026 28.6194 -0.0900986 29.7558 0.315207 30.7792L5.32192 40.004L0.766632 49.2289C0.388146 50.2153 0.346938 51.2991 0.649429 52.3114C0.951921 53.3237 1.58112 54.2076 2.43896 54.8253L12.0933 59.6222L13.7656 69.626C14.0122 70.7455 14.6663 71.7335 15.6009 72.3983C16.5356 73.0631 17.6841 73.3573 18.8236 73.2237L29.3295 71.6247L36.8807 78.7996C37.6652 79.569 38.7207 80 39.8201 80C40.9194 80 41.9749 79.569 42.7594 78.7996L50.2593 71.6247L60.7652 73.2237C61.3397 73.337 61.9312 73.3328 62.5041 73.2117C63.0769 73.0905 63.6193 72.8547 64.0986 72.5186C64.5779 72.1825 64.9841 71.7529 65.2928 71.2558C65.6016 70.7587 65.8064 70.2043 65.895 69.626L67.5673 59.6222L77.2217 54.8253C77.7145 54.5792 78.1503 54.2329 78.5012 53.8085C78.852 53.3842 79.1101 52.8912 79.2589 52.3612C79.4077 51.8313 79.4439 51.2761 79.3652 50.7313C79.2864 50.1866 79.0945 49.6643 78.8017 49.1981L75.0671 39.9733L79.6942 30.7484C80.063 29.7592 80.0992 28.677 79.7975 27.6654C79.4958 26.6538 78.8725 25.7679 78.0219 25.1417" fill="#D9F0FF"/>
    <path d="M52.3728 21.6978L27.2059 27.2737C26.0282 27.4767 24.9602 28.089 24.1905 29.0024C23.4208 29.9157 22.9989 31.0714 22.9994 32.2654V48.5729C22.9994 48.7266 22.9994 48.8804 22.9994 49.0341V59.3762C24.9668 59.434 26.899 58.8472 28.5014 57.7053C30.1037 56.5635 31.2882 54.9293 31.874 53.052L54.0964 48.0706C55.2759 47.8575 56.3434 47.2385 57.1137 46.321C57.8839 45.4036 58.3083 44.2456 58.3132 43.0482V26.6485C58.3018 25.9137 58.1324 25.1899 57.8165 24.5262C57.5005 23.8626 57.0454 23.2746 56.482 22.8021C55.9186 22.3297 55.26 21.9838 54.551 21.7879C53.842 21.5921 53.0992 21.5509 52.3728 21.6671" fill="#0089E3"/>
</svg>
