<svg viewBox="0 0 80 80" xmlns="http://www.w3.org/2000/svg">
    <title>brainly math solver logo</title>
    <path d="M78.0014 25.1725L68.3163 20.3756L66.644 10.382C66.4064 9.26781 65.762 8.28197 64.8363 7.6168C63.9106 6.95163 62.7701 6.65483 61.6372 6.7843L51.1313 8.37302L43.5289 1.19814C42.7396 0.429916 41.6812 0 40.5793 0C39.4773 0 38.4189 0.429916 37.6296 1.19814L29.2475 8.37302L18.7416 6.7843C18.1727 6.68034 17.5888 6.69155 17.0244 6.81727C16.4599 6.94299 15.9265 7.18066 15.4558 7.51618C14.985 7.85171 14.5865 8.27826 14.2838 8.77053C13.9812 9.26281 13.7805 9.81079 13.6938 10.382L12.0215 20.3756L2.36714 25.1725C1.3967 25.6933 0.65155 26.5521 0.273262 27.5857C-0.105026 28.6194 -0.0900986 29.7558 0.315207 30.7792L5.32192 40.004L0.766632 49.2289C0.388146 50.2153 0.346938 51.2991 0.649429 52.3114C0.951921 53.3237 1.58112 54.2076 2.43896 54.8253L12.0933 59.6222L13.7656 69.626C14.0122 70.7455 14.6663 71.7335 15.6009 72.3983C16.5356 73.0631 17.6841 73.3573 18.8236 73.2237L29.3295 71.6247L36.8807 78.7996C37.6652 79.569 38.7207 80 39.8201 80C40.9194 80 41.9749 79.569 42.7594 78.7996L50.2593 71.6247L60.7652 73.2237C61.3397 73.337 61.9312 73.3328 62.5041 73.2117C63.0769 73.0905 63.6193 72.8547 64.0986 72.5186C64.5779 72.1825 64.9841 71.7529 65.2928 71.2558C65.6016 70.7587 65.8064 70.2043 65.895 69.626L67.5673 59.6222L77.2217 54.8253C77.7145 54.5792 78.1503 54.2329 78.5012 53.8085C78.852 53.3842 79.1101 52.8912 79.2589 52.3612C79.4077 51.8313 79.4439 51.2761 79.3652 50.7313C79.2864 50.1866 79.0945 49.6643 78.8017 49.1981L75.0671 39.9733L79.6942 30.7484C80.063 29.7592 80.0992 28.677 79.7975 27.6654C79.4958 26.6538 78.8725 25.7679 78.0219 25.1417" fill="#FFE8E5"/>
    <path fill-rule="evenodd" clip-rule="evenodd" d="M48.3817 27.6119V23.758L58.0258 22.0873V31.7529L52.9062 32.4704V26.833L48.3817 27.6119ZM31.5252 30.1129L26.6313 30.9636V36.4883L21.7067 37.175V28.0732L31.5252 26.3615V30.1129ZM26.6313 48.5934L21.7067 49.2699V58.792L31.5252 57.1007V52.8676L26.6313 53.7081V48.5934ZM48.3817 49.2493L52.9062 48.4704V43.3967L58.0258 42.6895V51.7298L48.3817 53.4005V49.2493Z" fill="#CF1D00"/>
</svg>
