<?xml version="1.0" encoding="utf-8"?><svg xmlns="http://www.w3.org/2000/svg" xmlns:xlink="http://www.w3.org/1999/xlink"><symbol viewBox="0 0 512 512" style="overflow: visible" id="icon-mobile-answer_bubble" xmlns="http://www.w3.org/2000/svg"><path fill-rule="evenodd" d="M388.503 63.997h-265a38.16 38.16 0 0 0-38.17 38.16v265.01a38.159 38.159 0 0 0 38.17 38.17h81.3L256 469.334l51.197-63.997h81.306a38.156 38.156 0 0 0 26.993-11.177 38.156 38.156 0 0 0 11.177-26.993v-265a38.158 38.158 0 0 0-38.17-38.17zm-25.83 106.67h-213.34c-11.783 0-21.335-9.552-21.335-21.335 0-11.783 9.552-21.335 21.335-21.335h213.34c11.783 0 21.335 9.552 21.335 21.335 0 11.783-9.552 21.335-21.335 21.335zm-213.34 85.33h213.34c11.78 0 21.33-9.549 21.33-21.33 0-11.78-9.55-21.33-21.33-21.33h-213.34c-11.78 0-21.33 9.55-21.33 21.33 0 11.781 9.55 21.33 21.33 21.33zm0 85.34h85.34c11.783 0 21.335-9.552 21.335-21.335 0-11.783-9.552-21.335-21.335-21.335h-85.34c-11.783 0-21.335 9.552-21.335 21.335 0 11.783 9.552 21.335 21.335 21.335z"/></symbol><symbol viewBox="0 0 512 512" style="overflow: visible" id="icon-mobile-arrow" xmlns="http://www.w3.org/2000/svg"><title>arrow</title><path d="M269.224 67.075l1.86 1.657 150.85 150.85c8.332 8.33 8.332 21.838 0 30.17-7.736 7.736-19.935 8.288-28.309 1.657l-1.86-1.657L277.333 135.32v291.346c0 11.782-9.55 21.333-21.333 21.333-11.782 0-21.333-9.551-21.333-21.333V135.32L120.234 249.752c-7.736 7.736-19.935 8.288-28.309 1.657l-1.86-1.657c-7.736-7.736-8.29-19.936-1.658-28.31l1.658-1.86 150.85-150.85c7.735-7.736 19.935-8.288 28.308-1.657z" xmlns:xlink="http://www.w3.org/1999/xlink" xlink:href="#a"/></symbol><symbol viewBox="0 0 512 512" style="overflow: visible" id="icon-mobile-ask_bubble" xmlns="http://www.w3.org/2000/svg"><path fill-rule="evenodd" d="M85.333 106.667C85.333 83.103 104.436 64 128 64h256c23.564 0 42.667 19.103 42.667 42.667v256c0 23.564-19.103 42.666-42.667 42.666h-76.8l-51.2 64-51.2-64H128c-23.564 0-42.667-19.102-42.667-42.666v-256zm138.627 82.589c.006-15.178 11.602-28.07 27.276-30.325 15.674-2.255 30.714 6.805 35.377 21.311 4.663 14.506-2.453 30.097-16.738 36.673-18.173 8.302-29.777 25.835-29.86 45.116 0 8.451 7.155 15.302 15.98 15.302 8.826 0 15.98-6.851 15.98-15.302 0-7.4 4.502-14.225 11.779-17.529 28.524-13.15 42.722-44.294 33.398-73.264-9.323-28.97-39.366-47.059-70.671-42.552-31.305 4.507-54.465 30.255-54.481 60.57 0 8.451 7.154 15.302 15.98 15.302s15.98-6.851 15.98-15.302zM256 341.333c11.782 0 21.333-9.551 21.333-21.333 0-11.782-9.551-21.333-21.333-21.333-11.782 0-21.333 9.551-21.333 21.333 0 11.782 9.551 21.333 21.333 21.333z"/></symbol><symbol style="overflow: visible" viewBox="0 0 512 512" id="icon-mobile-backward_5s"><title>backward_5s</title><path d="M260.65 364.97c30.913 0 51.265-17.087 51.265-44.351 0-25.92-19.392-41.472-41.088-41.472-11.712 0-22.08 4.608-28.224 10.752v-31.296h60.672v-24h-87.936v73.536l19.008 4.992c7.68-7.296 16.32-10.368 26.88-10.368 14.592 0 23.04 7.68 23.04 19.008 0 10.368-8.64 19.008-23.808 19.008-13.44 0-25.344-4.992-33.984-14.016l-15.168 19.008c10.944 11.904 27.072 19.2 49.344 19.2z"/><path d="M285.442 36.59l-1.86 1.658-60.34 60.34c-7.736 7.736-8.289 19.936-1.658 28.31l1.658 1.86 60.34 60.34c8.33 8.331 21.838 8.331 30.17 0 7.736-7.736 8.288-19.936 1.657-28.31l-1.657-1.86-27.962-27.963c68.563 13.851 119.543 74.513 119.543 146.368 0 82.475-66.858 149.334-149.333 149.334s-149.333-66.86-149.333-149.334c0-19.432 3.702-38.315 10.814-55.914 4.414-10.924-.863-23.358-11.787-27.772-10.923-4.415-23.357.862-27.772 11.786C68.766 228.091 64 252.4 64 277.333c0 106.039 85.961 192 192 192s192-85.961 192-192c0-92.753-66.046-170.983-154.773-188.393l20.525-20.522c7.736-7.736 8.288-19.935 1.657-28.309l-1.657-1.86c-7.736-7.737-19.936-8.29-28.31-1.658zm-106.666 0l-1.86 1.658-60.34 60.34c-7.737 7.736-8.29 19.936-1.658 28.31l1.657 1.86 60.34 60.34c8.331 8.331 21.839 8.331 30.17 0 7.736-7.736 8.289-19.936 1.658-28.31l-1.658-1.86-45.255-45.255 45.255-45.255c7.736-7.736 8.289-19.935 1.658-28.309l-1.658-1.86c-7.736-7.737-19.936-8.29-28.31-1.658z"/></symbol><symbol viewBox="0 0 512 512" style="overflow: visible" id="icon-mobile-backward_end" xmlns="http://www.w3.org/2000/svg"><title>backward_end</title><path d="M381.051 90.03c5.924-4 12.477-5.45 19.677-4.33 7.037 1.032 13.527 4.56 18.39 10 5.086 5.56 7.62 12.78 7.62 21.68v277.438c0 8-2.429 14.9-7.286 20.68-4.665 5.657-11.065 9.428-18.096 10.66-7.006 1.372-14.248-.054-20.305-4L170.666 291.505V384c0 23.564-19.102 42.667-42.666 42.667-23.564 0-42.667-19.103-42.667-42.667V128c0-23.564 19.103-42.667 42.667-42.667s42.667 19.103 42.667 42.667v92.681z"/></symbol><symbol viewBox="0 0 512 512" style="overflow: visible" id="icon-mobile-barcode_scanner" xmlns="http://www.w3.org/2000/svg"><title>barcode-scanner</title><path d="M64 341.333c10.94 0 19.957 8.236 21.19 18.846l.143 2.488v64h64c11.782 0 21.334 9.55 21.334 21.333 0 10.94-8.236 19.957-18.846 21.19l-2.488.143h-64c-22.493 0-40.92-17.405-42.55-39.482l-.116-3.184v-64c0-11.782 9.55-21.334 21.333-21.334zm384 0c10.94 0 19.957 8.236 21.19 18.846l.143 2.488v64c0 22.493-17.405 40.92-39.482 42.55l-3.184.116h-64c-11.782 0-21.334-9.55-21.334-21.333 0-10.94 8.236-19.957 18.846-21.19l2.488-.143h64v-64c0-11.782 9.55-21.334 21.333-21.334zm-277.333-192v213.334h-21.334V149.333h21.334zm42.666 0v213.334H192V149.333h21.333zm64 0v213.334h-42.666V149.333h42.666zm42.667 0v213.334h-21.333V149.333H320zm42.667 0v213.334h-21.334V149.333h21.334zM149.333 42.667c11.782 0 21.334 9.55 21.334 21.333 0 10.94-8.236 19.957-18.846 21.19l-2.488.143h-64v64c0 11.782-9.55 21.334-21.333 21.334-10.94 0-19.957-8.236-21.19-18.846l-.143-2.488v-64c0-22.493 17.405-40.92 39.482-42.55l3.184-.116h64zm277.334 0c22.493 0 40.92 17.405 42.55 39.482l.116 3.184v64c0 11.782-9.55 21.334-21.333 21.334-10.94 0-19.957-8.236-21.19-18.846l-.143-2.488v-64h-64c-11.782 0-21.334-9.55-21.334-21.333 0-10.94 8.236-19.957 18.846-21.19l2.488-.143h64z"/></symbol><symbol viewBox="0 0 512 512" style="overflow: visible" id="icon-mobile-bookmark" xmlns="http://www.w3.org/2000/svg"><title>bookmark</title><path d="M362.667 64c23.564 0 42.667 19.103 42.667 42.667V422.95c0 11.782-9.552 21.333-21.334 21.333a21.328 21.328 0 0 1-13.883-5.136L256 341.333l-114.116 97.814c-8.946 7.668-22.413 6.632-30.081-2.313a21.337 21.337 0 0 1-5.136-13.884V106.667C106.667 83.103 125.77 64 149.334 64h213.333z"/></symbol><symbol viewBox="0 0 512 512" style="overflow: visible" id="icon-mobile-bookmark_outlined" xmlns="http://www.w3.org/2000/svg"><title>bookmark_outlined</title><path d="M362.664 64c23.564 0 42.667 19.103 42.667 42.667V422.95c0 11.782-9.552 21.334-21.334 21.334a21.329 21.329 0 0 1-13.883-5.137l-114.117-97.814-114.116 97.814c-8.946 7.668-22.413 6.632-30.081-2.314a21.333 21.333 0 0 1-5.136-13.883V106.667c0-23.564 19.103-42.667 42.667-42.667h213.333zm0 42.667H149.331v269.888l106.666-91.417 106.667 91.438V106.667z"/></symbol><symbol viewBox="0 0 512 512" style="overflow: visible" id="icon-mobile-bring_front" xmlns="http://www.w3.org/2000/svg"><title>bring front</title><path fill-rule="evenodd" clip-rule="evenodd" d="M398.443 85.334H217.927a28.395 28.395 0 0 0-20.091 8.33 28.458 28.458 0 0 0-8.322 20.114v85.333h-75.768a28.399 28.399 0 0 0-20.09 8.331 28.463 28.463 0 0 0-8.323 20.114v170.666a28.463 28.463 0 0 0 8.322 20.114 28.399 28.399 0 0 0 20.091 8.331h180.327a28.397 28.397 0 0 0 20.091-8.331 28.46 28.46 0 0 0 8.322-20.114v-85.333h75.768a28.4 28.4 0 0 0 20.091-8.331 28.461 28.461 0 0 0 8.322-20.113V113.778a28.464 28.464 0 0 0-8.255-20.047 28.399 28.399 0 0 0-19.969-8.397zm-28.413 56.888V256h-46.976v-28.444a28.46 28.46 0 0 0-8.322-20.114 28.396 28.396 0 0 0-20.09-8.331H246.34v-56.889h123.69z"/></symbol><symbol viewBox="0 0 512 512" style="overflow: visible" id="icon-mobile-chapter" xmlns="http://www.w3.org/2000/svg"><title>chapter</title><path fill-rule="evenodd" d="M192 213.333l42.667-32 42.666 32v-128h85.334c11.782 0 21.333 9.552 21.333 21.334v234.666c0 11.782-9.551 21.334-21.333 21.334h-192c-11.782 0-21.334 9.55-21.334 21.333 0 11.664 9.362 21.142 20.98 21.33l.354.003h202.666c5.891 0 10.667 4.776 10.667 10.667s-4.776 10.667-10.667 10.667H170.667C147.103 426.667 128 407.564 128 384V128c0-23.564 19.103-42.667 42.667-42.667H192v128z"/></symbol><symbol viewBox="0 0 512 512" style="overflow: visible" id="icon-mobile-circle_fill" xmlns="http://www.w3.org/2000/svg"><title>circle fill</title><ellipse cx="256" cy="256.004" rx="157.538" ry="157.541"/></symbol><symbol viewBox="0 0 512 512" style="overflow: visible" id="icon-mobile-clear" xmlns="http://www.w3.org/2000/svg"><title>clear</title><path d="M256 85.333c94.257 0 170.667 76.41 170.667 170.667S350.257 426.667 256 426.667 85.333 350.257 85.333 256 161.743 85.333 256 85.333zm79.085 91.582c-8.331-8.331-21.839-8.331-30.17 0L256 225.83l-48.915-48.915-2.01-1.775c-8.369-6.507-20.47-5.915-28.16 1.775-8.331 8.331-8.331 21.839 0 30.17L225.83 256l-48.915 48.915-1.775 2.01c-6.507 8.369-5.915 20.47 1.775 28.16 8.331 8.331 21.839 8.331 30.17 0L256 286.17l48.915 48.915 2.01 1.775c8.369 6.507 20.47 5.915 28.16-1.775 8.331-8.331 8.331-21.839 0-30.17L286.17 256l48.915-48.915 1.775-2.01c6.507-8.369 5.915-20.47-1.775-28.16z" fill-rule="evenodd"/></symbol><symbol viewBox="0 0 512 512" style="overflow: visible" id="icon-mobile-comment" xmlns="http://www.w3.org/2000/svg"><title>comment</title><path d="M392.533 128c18.235-.516 33.473 13.77 34.134 32v192c-.66 18.23-15.9 32.516-34.134 32h-243.2l-38.441 38.44a14.972 14.972 0 0 1-25.559-10.586V160c.66-18.23 15.9-32.516 34.134-32zM170.667 234.667c-11.782 0-21.334 9.55-21.334 21.333 0 11.782 9.552 21.333 21.334 21.333S192 267.783 192 256c0-11.782-9.551-21.333-21.333-21.333zm170.666 0c-11.782 0-21.333 9.55-21.333 21.333 0 11.782 9.551 21.333 21.333 21.333 11.782 0 21.334-9.55 21.334-21.333 0-11.782-9.552-21.333-21.334-21.333zm-85.333 0c-11.782 0-21.333 9.55-21.333 21.333 0 11.782 9.55 21.333 21.333 21.333 11.782 0 21.333-9.55 21.333-21.333 0-11.782-9.55-21.333-21.333-21.333z"/></symbol><symbol viewBox="0 0 512 512" style="overflow: visible" id="icon-mobile-crown" xmlns="http://www.w3.org/2000/svg"><title>crown</title><path d="M265.54 156.622a21.333 21.333 0 0 1 9.541 9.54l66.252 132.505 62.154-49.723c9.2-7.36 22.625-5.868 29.985 3.332a21.333 21.333 0 0 1 4.33 17.143l-29.284 161.064C406.674 440.627 397.84 448 387.53 448H124.471c-10.31 0-19.145-7.373-20.99-17.517L74.198 269.419c-2.107-11.592 5.581-22.698 17.173-24.806a21.333 21.333 0 0 1 17.143 4.331l62.154 49.723 66.252-132.505c5.269-10.538 18.083-14.81 28.622-9.54zm171.793-7.289c17.673 0 32 14.327 32 32 0 17.673-14.327 32-32 32-17.673 0-32-14.327-32-32 0-17.673 14.327-32 32-32zm-362.666 0c17.673 0 32 14.327 32 32 0 17.673-14.327 32-32 32-17.673 0-32-14.327-32-32 0-17.673 14.327-32 32-32zM256 64c17.673 0 32 14.327 32 32 0 17.673-14.327 32-32 32-17.673 0-32-14.327-32-32 0-17.673 14.327-32 32-32z" fill-rule="evenodd"/></symbol><symbol viewBox="0 0 512 512" style="overflow: visible" id="icon-mobile-crown_outlined" xmlns="http://www.w3.org/2000/svg"><title>crown-outline</title><path d="M265.54 156.622a21.333 21.333 0 0 1 9.541 9.54l66.252 132.505 62.154-49.723c9.2-7.36 22.625-5.868 29.985 3.332a21.333 21.333 0 0 1 4.33 17.143l-29.284 161.064C406.674 440.627 397.84 448 387.53 448H124.471c-10.31 0-19.145-7.373-20.99-17.517L74.198 269.419c-2.107-11.592 5.581-22.698 17.173-24.806a21.333 21.333 0 0 1 17.143 4.331l62.154 49.723 66.252-132.505c5.269-10.538 18.083-14.81 28.622-9.54zm-9.54 66.78l-58.965 117.933-41.206.094-29.472-23.584 15.915 87.488h227.435l15.914-87.488-29.434 23.564-41.208-.047L256 223.402zm181.333-74.069c17.673 0 32 14.327 32 32 0 17.673-14.327 32-32 32-17.673 0-32-14.327-32-32 0-17.673 14.327-32 32-32zm-362.666 0c17.673 0 32 14.327 32 32 0 17.673-14.327 32-32 32-17.673 0-32-14.327-32-32 0-17.673 14.327-32 32-32zM256 64c17.673 0 32 14.327 32 32 0 17.673-14.327 32-32 32-17.673 0-32-14.327-32-32 0-17.673 14.327-32 32-32z" fill-rule="evenodd"/></symbol><symbol viewBox="0 0 512 512" style="overflow: visible" id="icon-mobile-cup" xmlns="http://www.w3.org/2000/svg"><title>cup</title><path d="M384 64v42.666h64c11.664 0 21.142 9.362 21.33 20.981l.003.353v64c0 47.128-38.205 85.333-85.333 85.333l-7.284.001c-15.28 43.23-53.124 75.802-99.382 83.563l-.001 44.436H320c23.564 0 42.667 19.103 42.667 42.667v21.333H149.333V448c0-23.564 19.103-42.667 42.667-42.667h42.667l-.001-44.436c-46.258-7.761-84.102-40.332-99.382-83.563H128c-47.128 0-85.333-38.206-85.333-85.334v-64c0-11.782 9.55-21.333 21.333-21.333l64-.001V64h256zm42.667 85.333H384v85.334l.706-.006c23.238-.377 41.96-19.332 41.96-42.661v-42.667zm-298.667 0H85.333V192c0 23.329 18.723 42.284 41.961 42.661l.706.006v-85.334z" fill-rule="evenodd"/></symbol><symbol viewBox="0 0 512 512" style="overflow: visible" id="icon-mobile-cursor_select" xmlns="http://www.w3.org/2000/svg"><path d="M330.667 181.333c16.362-9.822 12.811-34.499-5.656-39.31l-212.69-55.972c-15.917-4.147-30.42 10.356-26.273 26.273l55.976 212.686c4.811 18.467 29.486 22.018 39.309 5.657l28.277-57.439 140.605 140.607a43.654 43.654 0 0 0 14.4 9.565 44.213 44.213 0 0 0 17.053 3.265 45.02 45.02 0 0 0 17.109-3.531 45.595 45.595 0 0 0 14.558-9.791c8.439-8.439 13.233-19.831 13.328-31.671.094-11.84-4.518-23.157-12.823-31.462L273.234 209.602l57.433-28.269z"/></symbol><symbol viewBox="0 0 512 512" style="overflow: visible" id="icon-mobile-dashed_line" xmlns="http://www.w3.org/2000/svg"><title>dashed line</title><path fill-rule="evenodd" clip-rule="evenodd" d="M143.159 416.684l-12.571 12.571L85.333 384l12.571-12.571 45.255 45.255zm50.283-50.283l-25.141 25.141-45.255-45.254 25.141-25.142 45.255 45.255zm50.283-50.283l-25.141 25.141-45.255-45.255 25.141-25.141 45.255 45.255zm50.283-50.283l-25.141 25.141-45.255-45.255 25.142-25.141 45.254 45.255zm50.284-50.284l-25.142 25.142-45.255-45.255 25.142-25.141 45.255 45.254zm50.283-50.283l-25.142 25.142-45.255-45.255 25.142-25.142 45.255 45.255zm37.712-37.712l-12.571 12.571-45.255-45.255 12.571-12.57 45.255 45.254z"/></symbol><symbol viewBox="0 0 512 512" style="overflow: visible" id="icon-mobile-draw" xmlns="http://www.w3.org/2000/svg"><title>draw</title><path fill-rule="evenodd" clip-rule="evenodd" d="M200.262 125.081c0-46.345-35.027-61.081-53.608-61.081-28.192 0-52.753 21.358-58.093 26.696l-.025.025c-6.63 6.631-12.308 12.309-16.755 17.444A26.613 26.613 0 0 0 64 127.003c0 14.743 11.953 26.697 26.698 26.697a26.59 26.59 0 0 0 16.74-5.9l.045.043c4.117-3.59 8.033-7.246 11.693-10.663 10.899-10.175 19.532-18.235 24.488-16.157 11.661 3.675 2.198 18.739-4.45 29.323-.692 1.101-1.354 2.154-1.958 3.141-.689 1.158-2.22 3.404-4.364 6.549-14.447 21.194-56.718 83.206-56.718 128.213 0 27.338 10.252 49.976 28.62 63.644 16.018 11.96 37.162 15.591 56.384 9.825 22.766-6.597 41.506-29.726 65.088-58.832l.266-.328c25.843-31.821 60.442-73.467 87.139-73.467 32.568 0 35.042 18.878 37.149 34.951.145 1.108.289 2.203.44 3.277-80.732 13.669-114.904 78.381-114.904 114.688S267.111 448 304.914 448c34.813 0 91.625-28.405 100.167-130.278H448V264.33h-43.132c-3.203-35.239-23.279-89.7-86.071-89.7-48.055 0-89.275 40.791-105.507 60.653-12.387 15.592-43.997 52.966-48.909 58.092l-.684.823c-5.418 6.522-14.22 17.117-23.023 17.117-9.611 0-15.377-17.727-7.688-41.006 7.474-23.278 29.9-61.081 39.511-75.176 16.659-24.347 27.765-41.006 27.765-70.052zm89.488 255.644c0-12.814 15.592-46.985 61.297-58.946-6.407 57.451-30.542 74.323-45.492 74.323-6.621 0-15.805-5.552-15.805-15.377z"/></symbol><symbol style="overflow: visible" viewBox="0 0 512 512" id="icon-mobile-filters"><title>filters</title><path d="M277.333 320c11.782 0 21.334 9.551 21.334 21.333v21.333h128v42.667h-128v21.334c0 11.782-9.552 21.333-21.334 21.333S256 438.449 256 426.667v-85.334c0-11.782 9.551-21.333 21.333-21.333zm-64 42.667v42.666h-128v-42.666h128zM170.667 192c11.782 0 21.333 9.551 21.333 21.333v85.334c0 11.782-9.551 21.333-21.333 21.333-11.782 0-21.334-9.551-21.334-21.333v-21.334h-64v-42.666l64-.001v-21.333c0-11.782 9.552-21.333 21.334-21.333zm256 42.667v42.666h-192v-42.666h192zM341.333 64c11.782 0 21.334 9.551 21.334 21.333v21.333h64v42.667h-64v21.334c0 11.782-9.552 21.333-21.334 21.333S320 182.449 320 170.667V85.333C320 73.551 329.551 64 341.333 64zm-64 42.667v42.666h-192v-42.666h192z"/></symbol><symbol viewBox="0 0 512 512" style="overflow: visible" id="icon-mobile-flashlight_off" xmlns="http://www.w3.org/2000/svg"><title>flashlight-off</title><path d="M105.15 83.817l65.522 65.522v-.001l63.994 63.995L406.85 385.516c8.332 8.331 8.332 21.839 0 30.17-8.33 8.331-21.838 8.331-30.17 0l-69.924-69.924-72.082 123.571v-192h-42.667c-11.669 0-21.142-9.365-21.33-20.99l-.003-.353V209.68L74.98 113.987c-8.332-8.331-8.332-21.839 0-30.17 8.33-8.331 21.838-8.331 30.17 0zm257.523-41.15c11.669 0 16.955 8.372 11.947 18.765l-.154.316-75.793 151.585h63.992c11.662 0 16.434 8.085 10.769 18.12l-.175.304-22.043 37.787L170.672 88.999v-24.99c0-11.68 9.362-21.151 20.981-21.34l.353-.002h170.667z" fill-rule="evenodd"/></symbol><symbol viewBox="0 0 512 512" style="overflow: visible" id="icon-mobile-flashlight_on" xmlns="http://www.w3.org/2000/svg"><title>flashlight-on</title><path d="M192 42.667c-11.782 0-21.333 9.544-21.333 21.343v191.98c0 11.788 9.547 21.343 21.333 21.343h42.667v192l138.586-237.576c5.935-10.175 1.186-18.424-10.594-18.424h-63.992L374.46 61.748c5.269-10.539-.006-19.081-11.793-19.081H192z" fill-rule="evenodd"/></symbol><symbol viewBox="0 0 512 512" style="overflow: visible" id="icon-mobile-forward_5s" xmlns="http://www.w3.org/2000/svg"><title>forward_5s</title><path d="M226.558 36.59l1.86 1.658 60.34 60.34c7.736 7.736 8.289 19.936 1.658 28.31l-1.658 1.86-60.34 60.34c-8.33 8.331-21.838 8.331-30.17 0-7.736-7.736-8.288-19.936-1.657-28.31l1.657-1.86 27.952-27.96c-68.558 13.854-119.533 74.514-119.533 146.365 0 82.475 66.858 149.334 149.333 149.334s149.333-66.86 149.333-149.334c0-19.432-3.702-38.315-10.814-55.914-4.414-10.924.863-23.358 11.787-27.772 10.923-4.415 23.357.862 27.772 11.786C443.234 228.091 448 252.4 448 277.333c0 106.039-85.961 192-192 192s-192-85.961-192-192C64 184.58 130.046 106.35 218.773 88.94l-20.525-20.522c-7.736-7.736-8.288-19.935-1.657-28.309l1.657-1.86c7.736-7.737 19.936-8.29 28.31-1.658zm106.666 0l1.86 1.658 60.34 60.34c7.737 7.736 8.29 19.936 1.658 28.31l-1.657 1.86-60.34 60.34c-8.331 8.331-21.839 8.331-30.17 0-7.736-7.736-8.289-19.936-1.658-28.31l1.658-1.86 45.248-45.261-45.248-45.249c-7.736-7.736-8.289-19.935-1.658-28.309l1.658-1.86c7.736-7.737 19.936-8.29 28.31-1.658z"/><path d="M260.65 364.97c30.913 0 51.265-17.087 51.265-44.351 0-25.92-19.392-41.472-41.088-41.472-11.712 0-22.08 4.608-28.224 10.752v-31.296h60.672v-24h-87.936v73.536l19.008 4.992c7.68-7.296 16.32-10.368 26.88-10.368 14.592 0 23.04 7.68 23.04 19.008 0 10.368-8.64 19.008-23.808 19.008-13.44 0-25.344-4.992-33.984-14.016l-15.168 19.008c10.944 11.904 27.072 19.2 49.344 19.2z"/></symbol><symbol viewBox="0 0 512 512" style="overflow: visible" id="icon-mobile-hand_move" xmlns="http://www.w3.org/2000/svg"><title>hand move</title><path fill-rule="evenodd" clip-rule="evenodd" d="M268.795 64.017c-11.095.034-21.853 3.683-30.527 10.354-8.674 6.672-14.756 15.975-17.257 26.399a60.776 60.776 0 0 0-22.839 4.214c-7.246 2.855-13.83 7.074-19.365 12.412-5.535 5.338-9.911 11.686-12.872 18.674a55.013 55.013 0 0 0-4.37 22.023v51.838c-10.541-7.244-23.513-10.416-36.359-8.893-12.846 1.523-24.635 7.631-33.042 17.121a22.698 22.698 0 0 0-5.142 7.561 22.048 22.048 0 0 0-1.684 8.895 44.55 44.55 0 0 0 1.706 11.245c6.258 25.234 19.91 48.547 28.443 73.506l7.964 23.039c9.166 30.263 28.196 56.874 54.272 75.893 26.075 19.019 57.81 29.434 90.503 29.702 21.054-.215 41.857-4.431 61.219-12.408 19.362-7.976 36.903-19.556 51.618-34.077 14.715-14.522 26.316-31.698 34.14-50.548 7.823-18.849 11.714-39.001 11.451-59.303v-83.653c.169-16.125-5.379-31.821-15.724-44.49-10.345-12.67-24.867-21.552-41.162-25.176-3.285-10.749-10.058-20.199-19.324-26.963-9.266-6.763-20.537-10.483-32.158-10.612-2.611-10.678-8.958-20.163-17.972-26.857-9.015-6.694-20.145-10.189-31.519-9.896zm-107.23 214.482c0-19.473-3.698-33.736-13.653-40.044-4.096-2.981-9.089-4.594-14.221-4.594s-10.125 1.613-14.222 4.594c7.111 23.862 19.342 45.804 28.443 69.391l7.964 23.039c7.029 23.507 21.726 44.205 41.911 59.026 20.185 14.821 44.786 22.976 70.155 23.256 33.119-.362 64.745-13.34 87.978-36.103 23.233-22.762 36.186-53.462 36.034-85.4v-83.653c-.003-6.727-1.878-13.33-5.431-19.119-3.552-5.79-8.651-10.554-14.764-13.794v71.037c0 4.437-1.828 8.692-5.082 11.83-3.253 3.138-7.667 4.9-12.268 4.9-4.602 0-9.015-1.762-12.269-4.9-3.253-3.138-5.081-7.393-5.081-11.83v-91.882a18.077 18.077 0 0 0-1.363-7.158 18.605 18.605 0 0 0-4.101-6.111 19.387 19.387 0 0 0-6.213-4.132 19.964 19.964 0 0 0-7.38-1.524v76.797c-1.005 3.568-3.207 6.715-6.263 8.949s-6.794 3.428-10.628 3.397c-3.835-.031-7.551-1.287-10.567-3.57s-5.163-5.466-6.105-9.051v-99.287a13.818 13.818 0 0 0-1.016-5.479 14.224 14.224 0 0 0-3.114-4.687 14.826 14.826 0 0 0-4.737-3.18 15.257 15.257 0 0 0-5.639-1.19c-1.942.036-3.858.44-5.639 1.19-1.78.75-3.39 1.831-4.737 3.18a14.224 14.224 0 0 0-3.114 4.687 13.818 13.818 0 0 0-1.016 5.479v99.287a16.21 16.21 0 0 1-1.421 6.667c-.942 2.105-2.322 4-4.056 5.569a17.473 17.473 0 0 1-6.021 3.551 17.957 17.957 0 0 1-6.99.944c-4.601 0-9.015-1.763-12.268-4.9-3.254-3.138-5.082-7.393-5.082-11.831v-76.796c-3.1.036-6.163.66-9.013 1.837a23.665 23.665 0 0 0-7.598 5.024 22.71 22.71 0 0 0-5.025 7.445 22.039 22.039 0 0 0-1.687 8.733v120.406c0 4.437-1.828 8.693-5.082 11.83-3.254 3.138-7.667 4.901-12.269 4.901-4.601 0-9.014-1.763-12.268-4.901-3.254-3.137-5.082-7.393-5.082-11.83z"/></symbol><symbol viewBox="0 0 512 512" style="overflow: visible" id="icon-mobile-heart_outlined" xmlns="http://www.w3.org/2000/svg"><title>heart-outline</title><path d="M403.01 104.49a105.799 105.799 0 0 1 44.91 82.98c2.507 69.933-54.647 126.928-143.983 209.02L281.9 416.67c-14.633 13.393-37.086 13.31-51.62-.18l-35.068-32.095C113.321 308.808 61.852 254 64.06 187.47a105.799 105.799 0 0 1 44.92-82.98c47.186-31.752 110.76-22.554 147.01 21.27 36.203-43.917 99.855-53.125 147.02-21.27zm-179.897 48.466c-22.27-26.923-61.325-32.574-89.606-13.553-16.208 11.387-26.133 29.72-26.804 49.482l-.041 4.977c.707 40.403 27.612 75.758 124.95 165.933l24.559 22.562 23.595-21.671C346 299.404 372.312 271.56 389.035 243.201l4.158-7.419c8.834-16.588 12.636-31.496 12.085-46.866a63.133 63.133 0 0 0-23.423-46.971l-3.018-2.276-3.228-2.046c-27.332-16.135-62.313-11.074-83.951 12.146l-2.745 3.131-32.866 39.87-32.934-39.814z"/></symbol><symbol viewBox="0 0 512 512" style="overflow: visible" id="icon-mobile-hexagon" xmlns="http://www.w3.org/2000/svg"><title>hexagon</title><path fill-rule="evenodd" clip-rule="evenodd" d="M366.933 190.266L256 125.17l-110.08 65.096v130.405L256 385.767l110.08-65.096.853-130.405zM289.707 73.05A64.139 64.139 0 0 0 256.853 64 64.135 64.135 0 0 0 224 73.05l-104.96 62.118a67.744 67.744 0 0 0-24.636 24.669 67.505 67.505 0 0 0-9.07 33.62V317.48a67.503 67.503 0 0 0 9.228 33.258 67.74 67.74 0 0 0 24.478 24.392L224 438.95a64.14 64.14 0 0 0 32.853 9.05 64.144 64.144 0 0 0 32.854-9.05l104.96-63.82a67.73 67.73 0 0 0 23.514-24.677 67.504 67.504 0 0 0 8.486-32.973V193.457a67.512 67.512 0 0 0-8.328-33.333 67.735 67.735 0 0 0-23.672-24.956L289.707 73.05z"/></symbol><symbol viewBox="0 0 512 512" style="overflow: visible" id="icon-mobile-info" xmlns="http://www.w3.org/2000/svg"><title>info</title><path d="M255.778 42.667c76.216-.08 146.686 40.508 184.863 106.474 38.177 65.966 38.262 147.288.222 213.333-38.04 66.045-108.424 106.78-184.64 106.859-117.821.123-213.433-95.29-213.556-213.11-.123-117.821 95.29-213.433 213.11-213.556zM256 213.333c-11.782 0-21.333 9.552-21.333 21.334v128c0 11.782 9.55 21.333 21.333 21.333 11.782 0 21.333-9.551 21.333-21.333v-128c0-11.782-9.55-21.334-21.333-21.334zm0-96c-14.728 0-26.667 11.94-26.667 26.667s11.94 26.667 26.667 26.667 26.667-11.94 26.667-26.667-11.94-26.667-26.667-26.667z"/></symbol><symbol viewBox="0 0 512 512" style="overflow: visible" id="icon-mobile-keyboard" xmlns="http://www.w3.org/2000/svg"><title>keyboard</title><path d="M426.667 106.667c23.466 0 42.666 19.2 42.666 42.666v213.334c0 23.466-19.2 42.666-42.666 42.666H85.333c-23.466 0-42.666-19.2-42.666-42.666l.213-213.334c0-23.466 18.987-42.666 42.453-42.666zM341.333 320H170.667v42.667h170.666V320zm-64-85.333h-42.666v42.666h42.666v-42.666zm-64 0h-42.666v42.666h42.666v-42.666zm-64 0h-42.666v42.666h42.666v-42.666zm192 0h-42.666v42.666h42.666v-42.666zm64 0h-42.666v42.666h42.666v-42.666zm-128-64h-42.666v42.666h42.666v-42.666zm-64 0h-42.666v42.666h42.666v-42.666zm-64 0h-42.666v42.666h42.666v-42.666zm192 0h-42.666v42.666h42.666v-42.666zm64 0h-42.666v42.666h42.666v-42.666z" fill-rule="evenodd"/></symbol><symbol viewBox="0 0 512 512" style="overflow: visible" id="icon-mobile-options" xmlns="http://www.w3.org/2000/svg"><title>options</title><path d="M256 362.667c23.564 0 42.667 19.102 42.667 42.666C298.667 428.897 279.564 448 256 448s-42.667-19.103-42.667-42.667 19.103-42.666 42.667-42.666zm0-149.334c23.564 0 42.667 19.103 42.667 42.667S279.564 298.667 256 298.667 213.333 279.564 213.333 256s19.103-42.667 42.667-42.667zM256 64c23.564 0 42.667 19.103 42.667 42.667S279.564 149.333 256 149.333s-42.667-19.102-42.667-42.666C213.333 83.103 232.436 64 256 64z" fill-rule="evenodd"/></symbol><symbol viewBox="0 0 512 512" style="overflow: visible" id="icon-mobile-replay" xmlns="http://www.w3.org/2000/svg"><title>replay</title><path d="M132.996 170.762c40.68-59.399 118.013-81.212 183.736-51.827 65.723 29.384 101.034 101.56 83.896 171.485-17.138 69.924-81.822 117.592-153.684 113.254-71.862-4.337-130.343-59.44-138.947-130.917-1.104-11.874-11.625-20.604-23.498-19.5-11.874 1.105-20.604 11.626-19.5 23.5 9.89 90.942 82.569 162.277 173.679 170.466 91.11 8.188 175.344-49.044 201.29-136.767 25.945-87.722-13.604-181.566-94.51-224.257-80.906-42.69-180.694-22.367-238.46 48.565v-28c0-11.873-9.626-21.498-21.5-21.498C73.626 85.266 64 94.89 64 106.765v84.996c0 12 10 20.999 20.999 20.999h85.995a20.999 20.999 0 0 0 0-41.998h-37.998z"/></symbol><symbol viewBox="0 0 512 512" style="overflow: visible" id="icon-mobile-send_back" xmlns="http://www.w3.org/2000/svg"><title>send back</title><path fill-rule="evenodd" clip-rule="evenodd" d="M398.443 85.334H217.927a28.395 28.395 0 0 0-20.091 8.33 28.458 28.458 0 0 0-8.322 20.114v85.333h-75.768a28.399 28.399 0 0 0-20.09 8.331 28.463 28.463 0 0 0-8.323 20.114v170.666a28.463 28.463 0 0 0 8.322 20.114 28.399 28.399 0 0 0 20.091 8.331h180.327a28.397 28.397 0 0 0 20.091-8.331 28.46 28.46 0 0 0 8.322-20.114v-85.333h75.768a28.4 28.4 0 0 0 20.091-8.331 28.461 28.461 0 0 0 8.322-20.113V113.778a28.464 28.464 0 0 0-8.255-20.047 28.399 28.399 0 0 0-19.969-8.397zM265.85 256v113.778H142.348V256H265.85z"/></symbol><symbol viewBox="0 0 512 512" style="overflow: visible" id="icon-mobile-share_on_ios" xmlns="http://www.w3.org/2000/svg"><title>share-on-ios</title><path d="M170.666 149.333V192L128 192v234.667h256V192h-42.667v-42.667h64c11.782 0 21.334 9.552 21.334 21.334V448c0 11.782-9.552 21.333-21.334 21.333H106.667c-11.782 0-21.334-9.55-21.334-21.333V170.667c0-11.782 9.552-21.334 21.334-21.334h64zm85.517-106.666c5.656 0 11.08 2.25 15.077 6.25l45.25 45.25a21.331 21.331 0 0 1-30.166 30.167l-8.834-8.834-.156 160.32c-.032 11.774-9.58 21.312-21.354 21.333-.007.021-.014.021-.02.021-11.783-.011-21.325-9.572-21.293-21.354l.157-160.318-8.834 8.833c-8.33 8.33-21.836 8.33-30.167 0-8.33-8.331-8.33-21.838 0-30.168l45.259-45.258a21.33 21.33 0 0 1 15.08-6.242z"/></symbol><symbol viewBox="0 0 512 512" style="overflow: visible" id="icon-mobile-spark" xmlns="http://www.w3.org/2000/svg"><title>spark</title><path fill-rule="evenodd" d="M256 64c11.782 0 21.333 9.551 21.333 21.333 0 81.65 65.529 147.995 146.864 149.314l2.47.02c11.782 0 21.333 9.55 21.333 21.333 0 11.782-9.551 21.333-21.333 21.333-81.65 0-147.995 65.529-149.314 146.864l-.02 2.47c0 11.782-9.55 21.333-21.333 21.333-11.782 0-21.333-9.551-21.333-21.333 0-82.475-66.86-149.334-149.334-149.334l-.352-.003C73.36 277.142 64 267.664 64 256c0-11.782 9.551-21.333 21.333-21.333 82.475 0 149.334-66.86 149.334-149.334l.003-.352C234.858 73.36 244.336 64 256 64z"/></symbol><symbol viewBox="0 0 512 512" style="overflow: visible" id="icon-mobile-star_outlined" xmlns="http://www.w3.org/2000/svg"><title>star-outline</title><path d="M255.965 52.02c9.08 0 17.363 4.925 21.741 12.72l1.194 2.423 47.11 110.93 120.639 10.46a24.82 24.82 0 0 1 16.105 41.559l-2.145 2.06-91.48 79.27 27.42 117.9a24.87 24.87 0 0 1-34.508 28.323l-2.632-1.394-103.45-62.57-103.439 62.32a24.87 24.87 0 0 1-37.644-23.985l.505-2.934 27.42-117.66-91.48-79.27a24.87 24.87 0 0 1 11.516-43.25l2.684-.37 120.4-10.22L233.03 67.164a24.94 24.94 0 0 1 22.935-15.142zm40.8 166.364l-40.786-96.059-40.813 96.345-104.083 8.829 79.113 68.556-23.732 101.726 89.539-53.917 89.426 54.088-23.686-101.905 79.196-68.655-104.173-9.008z"/></symbol><symbol viewBox="0 0 512 512" style="overflow: visible" id="icon-mobile-text" xmlns="http://www.w3.org/2000/svg"><title>text</title><path d="M250.005 431.625c16.156 0 26.857-10.063 26.857-25.813 0-6.125-1.469-13.343-4.406-22.75l-72.179-215.687c-9.022-28-21.612-39.375-45.321-39.375-23.92 0-36.72 11.594-45.742 39.375L37.036 383.063C33.469 394.219 32 401 32 406.906c0 14.875 10.7 24.719 26.228 24.719 15.107 0 23.5-8.094 29.375-28.656l15.946-50.75h100.505l16.156 50.75c5.665 20.344 14.478 28.656 29.795 28.656zm-58.33-123.375h-75.536l36.509-120.75h2.727l36.3 120.75zm172.084 123.813c27.277 0 49.308-11.813 60.638-32.594h2.728v8.094c1.678 15.093 11.33 23.625 26.018 23.625 17.205 0 26.857-11.157 26.857-30.844V273.469c0-51.406-32.732-80.281-91.063-80.281-24.339 0-43.013 4.375-57.071 12.03-19.514 10.282-28.536 24.063-28.536 37.626 0 11.812 7.554 20.344 19.723 20.344 9.023 0 14.898-2.407 21.192-7.657 12.38-11.594 24.34-18.156 41.125-18.156 25.389 0 39.447 12.25 39.447 35.656v19.031h-52.875c-50.567 0-80.991 26.47-80.991 69.344 0 42.219 29.375 70.656 72.808 70.656zm18.464-41.563c-21.612 0-36.3-13.344-36.3-32.594 0-19.031 13.43-30.406 36.09-30.406h42.804v24.063c0 21.875-18.674 38.937-42.594 38.937z"/></symbol><symbol viewBox="0 0 512 512" style="overflow: visible" id="icon-mobile-textbook" xmlns="http://www.w3.org/2000/svg"><title>textbook</title><path fill-rule="evenodd" d="M362.667 85.333c11.782 0 21.333 9.552 21.333 21.334v234.666c0 11.782-9.551 21.334-21.333 21.334h-192c-11.782 0-21.334 9.55-21.334 21.333 0 11.664 9.362 21.142 20.98 21.33l.354.003h202.666c5.891 0 10.667 4.776 10.667 10.667s-4.776 10.667-10.667 10.667H170.667C147.103 426.667 128 407.564 128 384V128c0-23.564 19.103-42.667 42.667-42.667h192zm-42.667 64H192v64h128v-64z"/></symbol><symbol viewBox="0 0 512 512" style="overflow: visible" id="icon-mobile-time_speed" xmlns="http://www.w3.org/2000/svg"><title>time_speed</title><g fill-rule="evenodd"><path d="M298.467 64c68.595-.07 132.017 36.459 166.376 95.828 34.36 59.369 34.436 132.559.2 192-34.235 59.44-97.582 96.101-166.176 96.172-25.07.027-49.511-4.766-72.282-13.995a191.31 191.31 0 0 1-23.886-11.676c-10.2-5.897-13.69-18.946-7.793-29.146 5.897-10.2 18.946-13.69 29.147-7.793a148.644 148.644 0 0 0 18.558 9.073c17.688 7.169 36.673 10.891 56.211 10.87 53.352-.055 102.621-28.569 129.249-74.8 26.627-46.232 26.568-103.157-.156-149.333s-76.052-74.588-129.404-74.533c-53.916.057-102.763 28.902-129.253 74.752-5.894 10.202-18.942 13.694-29.144 7.8-10.202-5.894-13.694-18.942-7.8-29.144 34.03-58.9 96.858-96.002 166.153-96.075z" fill-rule="nonzero"/><path d="M383.967 277.3h-85.3c-11.741-.054-21.246-9.558-21.3-21.3V149.302c0-11.764 9.536-21.3 21.3-21.3 11.763 0 21.3 9.536 21.3 21.3v85.4h64c11.763 0 21.3 9.536 21.3 21.3 0 11.763-9.537 21.3-21.3 21.3z" fill-rule="nonzero"/><rect x="42.667" y="234.668" width="192" height="42.667" rx="21.333"/><rect x="42.667" y="320.001" width="149.333" height="42.667" rx="21.333"/></g></symbol><symbol viewBox="0 0 512 512" style="overflow: visible" id="icon-mobile-unbookmark" xmlns="http://www.w3.org/2000/svg"><title>unbookmark</title><path d="M106.667 117.337v-.004L405.333 416v.004l23.434 23.434a1 1 0 0 1 0 1.414l-28.756 28.756a1 1 0 0 1-1.414 0L252.57 323.581 141.883 439.147c-8.945 7.668-22.413 6.632-30.081-2.314a21.332 21.332 0 0 1-5.135-13.883V177.677l-68.694-68.694a1 1 0 0 1 0-1.414l28.755-28.756a1 1 0 0 1 1.415 0l38.524 38.524zm298.666-10.67V355.66L122.869 73.196A42.486 42.486 0 0 1 149.333 64h213.334c23.564 0 42.666 19.103 42.666 42.667z"/></symbol></svg>