<svg viewBox="0 0 512 512" xmlns="http://www.w3.org/2000/svg">
<path fill-rule="evenodd" d="M388.503 63.9974H123.503C113.381 63.9948 103.672 68.014 96.5137 75.1707C89.3551 82.3273 85.3333 92.035 85.3333 102.157V367.167C85.3307 377.291 89.3513 387.002 96.5101 394.16C103.669 401.319 113.379 405.34 123.503 405.337H204.803L256 469.334L307.197 405.337H388.503C398.627 405.34 408.338 401.319 415.496 394.16C422.655 387.002 426.676 377.291 426.673 367.167V102.167C426.676 92.0433 422.655 82.333 415.496 75.1742C408.338 68.0154 398.627 63.9948 388.503 63.9974ZM362.673 170.667H149.333C137.55 170.667 127.998 161.115 127.998 149.332C127.998 137.549 137.55 127.997 149.333 127.997H362.673C374.456 127.997 384.008 137.549 384.008 149.332C384.008 161.115 374.456 170.667 362.673 170.667ZM149.333 255.997H362.673C374.453 255.997 384.003 246.448 384.003 234.667C384.003 222.887 374.453 213.337 362.673 213.337H149.333C137.553 213.337 128.003 222.887 128.003 234.667C128.003 246.448 137.553 255.997 149.333 255.997ZM149.333 341.337H234.673C246.456 341.337 256.008 331.785 256.008 320.002C256.008 308.219 246.456 298.667 234.673 298.667H149.333C137.55 298.667 127.998 308.219 127.998 320.002C127.998 331.785 137.55 341.337 149.333 341.337Z"/>
</svg>
