<svg xmlns="http://www.w3.org/2000/svg" viewBox="0 0 512 512">
  <title>barcode-scanner</title>
  <path d="M64 341.333333c10.940498 0 19.957486 8.235524 21.189808 18.845416l.143525 2.487918v64h64c11.782075 0 21.333334 9.551258 21.333334 21.333333 0 10.940498-8.235524 19.957486-18.845416 21.189808l-2.487918.143525h-64c-22.493051 0-40.920856-17.405393-42.549637-39.482403l-.11703-3.184263v-64c0-11.782075 9.55126-21.333334 21.333334-21.333334zm384 0c10.940498 0 19.957486 8.235524 21.189808 18.845416l.143525 2.487918v64c0 22.493051-17.405393 40.920856-39.482403 42.549637l-3.184263.117029h-64c-11.782075 0-21.333334-9.551258-21.333334-21.333333 0-10.940498 8.235524-19.957486 18.845416-21.189808l2.487918-.143525h64v-64c0-11.782075 9.551258-21.333334 21.333333-21.333334zm-277.333333-192v213.333334h-21.333334V149.333333h21.333334zm42.666666 0v213.333334H192V149.333333h21.333333zm64 0v213.333334h-42.666666V149.333333h42.666666zm42.666667 0v213.333334h-21.333333V149.333333H320zm42.666667 0v213.333334h-21.333334V149.333333h21.333334zM149.333333 42.666667c11.782075 0 21.333334 9.551258 21.333334 21.333333 0 10.940498-8.235524 19.957486-18.845416 21.189808l-2.487918.143525h-64v64c0 11.782075-9.551258 21.333334-21.333333 21.333334-10.940498 0-19.957486-8.235524-21.189808-18.845416l-.143525-2.487918v-64c0-22.493051 17.405393-40.920856 39.482403-42.549637l3.184263-.11703h64zm277.333334 0c22.493051 0 40.920856 17.405393 42.549637 39.482403l.117029 3.184263v64c0 11.782075-9.551258 21.333334-21.333333 21.333334-10.940498 0-19.957486-8.235524-21.189808-18.845416l-.143525-2.487918v-64h-64c-11.782075 0-21.333334-9.551258-21.333334-21.333333 0-10.940498 8.235524-19.957486 18.845416-21.189808l2.487918-.143525h64z"/>
</svg>
