<svg viewBox="0 0 512 512" xmlns="http://www.w3.org/2000/svg" xmlns:xlink="http://www.w3.org/1999/xlink">
  <title>cup</title>
  <path d="M384,64 L383.999667,106.666 L448,106.666667 C459.664254,106.666667 469.142085,116.027855 469.330475,127.647214 L469.333333,128 L469.333333,192 C469.333333,239.128299 431.128299,277.333333 384,277.333333 L384,277.333333 L376.716221,277.334283 C361.436112,320.564596 323.591738,353.13582 277.334332,360.896719 L277.332667,405.333 L320,405.333333 C343.564149,405.333333 362.666667,424.435851 362.666667,448 L362.666667,469.333333 L149.333333,469.333333 L149.333333,448 C149.333333,424.435851 168.435851,405.333333 192,405.333333 L234.666667,405.333 L234.665668,360.896719 C188.408262,353.13582 150.563888,320.564596 135.283779,277.334283 L128,277.333333 C80.8717013,277.333333 42.6666667,239.128299 42.6666667,192 L42.6666667,128 C42.6666667,116.217925 52.2179253,106.666667 64,106.666667 L127.999667,106.666 L128,64 L384,64 Z M426.666667,149.333333 L383.999667,149.333 L384,234.666667 L384.705571,234.660951 C407.944289,234.28417 426.666667,215.328508 426.666667,192 L426.666667,192 L426.666667,149.333333 Z M127.999667,149.333 L85.3333333,149.333333 L85.3333333,192 C85.3333333,215.328508 104.055711,234.28417 127.294429,234.660951 L128,234.666667 L128,234.666667 L127.999667,149.333 Z" fill="#000" stroke="none" stroke-width="1" fill-rule="evenodd"></path>
</svg>
