<svg xmlns="http://www.w3.org/2000/svg" viewBox="0 0 512 512">
  <title>
    info
  </title>
  <path fill="#000" fill-rule="nonzero" d="M255.777792 42.666771c76.216612-.079276 146.686022 40.5084038 184.863085 106.474169 38.177062 65.965766 38.261772 147.287848.222222 213.333006-38.039551 66.045158-108.42425 106.77956-184.640863 106.859071-117.820675.122611-213.4326963-95.290336-213.5555445-213.110902C42.5440799 138.401549 137.957116 42.789617 255.777792 42.666771zM256 213.333333c-11.782075 0-21.333333 9.551259-21.333333 21.333334v128C234.666667 374.448741 244.217925 384 256 384c11.782075 0 21.333333-9.551259 21.333333-21.333333v-128c0-11.782075-9.551258-21.333334-21.333333-21.333334zm0-96c-14.727593 0-26.666667 11.939074-26.666667 26.666667S241.272407 170.666667 256 170.666667 282.666667 158.727593 282.666667 144 270.727593 117.333333 256 117.333333z"/>
</svg>
