<?xml version="1.0" encoding="utf-8"?>
<!-- Generator: Adobe Illustrator 19.0.0, SVG Export Plug-In . SVG Version: 6.00 Build 0)  -->
<svg version="1.1" id="Layer_1" xmlns="http://www.w3.org/2000/svg" xmlns:xlink="http://www.w3.org/1999/xlink" x="0px" y="0px"
	 viewBox="0 0 858 384" enable-background="new 0 0 858 384" xml:space="preserve">
<polygon fill="#231F20" points="0,148.048 0,383.553 860,236.368 860,0 "/>
<g>
	<path fill="#FFFFFF" d="M150.024,237.676c8.731-4.99,18.807-17.401,18.807-32.91c0-15.522-10.076-23.454-19.774-25.651
		c-9.685-2.198-22.287-0.974-33.92,1.013l-67.903,11.674v31.599l12.654-2.106v70.548l-12.654,2.104v31.603l78.568-13.523
		c12.603-2.163,26.165-7.407,34.875-14.75c8.73-7.3,14.959-17.107,14.959-32.609C175.636,249.153,165.533,239.258,150.024,237.676z
		 M103.504,213.746l8.726-1.514c4.855-0.834,6.789-1.173,9.691,0.273c2.908,1.432,3.881,3.599,3.881,7.085
		c0,3.286-0.973,5.772-3.881,8.241c-2.902,2.426-4.836,2.956-9.691,3.796l-8.726,1.497V213.746z M127.741,276.817
		c-2.913,2.442-4.847,3.367-9.691,4.201l-14.546,2.506v-21.315l14.546-2.498c4.844-0.854,6.779-0.803,9.691,0.629
		c2.896,1.424,3.875,4.185,3.875,7.663C131.617,271.285,130.637,274.356,127.741,276.817z"/>
	<path fill="#FFFFFF" d="M428.051,125.987l-4.236,0.729V242.33l-40.197-108.665l-48.471,8.394l-40.425,123.204l-19.658-29.828
		c5.818-4.493,22.281-17.054,22.281-44.181c0-14.541-6.775-24.999-16.463-30.114c-9.71-5.116-22.309-5.815-38.78-2.991
		l-58.156,10.078v133.756l43.807-7.589v-44.58l5.63-0.981l21.328,40.906l33.916-5.902l16.476-2.848l29.075-5.011l5.045-19.683
		l38.193-6.593l5.237,17.9l41.16-7.124v0.018l43.813-7.591V119.14l-39.577,6.829V125.987z M248.306,210.959
		c-1.737,1.688-4.844,3.189-9.683,4.012l-11.054,1.922v-23.272l11.054-1.89c4.839-0.844,7.751-0.394,9.683,0.829
		c1.945,1.014,4.85,2.441,4.85,8.29C253.155,206.643,250.426,209.067,248.306,210.959z M348.529,221.149l9.876-37.559l9.898,34.143
		L348.529,221.149z"/>
	<path fill="#FFFFFF" d="M567.772,152.163c0,9.691,0.971,24.071,0.971,24.071l-38.773-67.932l-47.491,8.22v133.759l42.648-7.381
		v-50.4c0-9.685-0.959-24.065-0.959-24.065l40.705,67.58l45.539-7.879V94.387l-42.64,7.367V152.163z"/>
	<polygon fill="#FFFFFF" points="771.631,66.376 751.637,114.974 731.882,73.251 683.42,81.641 729.753,155.012 729.753,171.503 
		668.879,182.046 668.879,84.139 625.272,91.705 625.272,225.444 729.753,207.348 766.596,200.995 773.555,199.762 773.555,147.433 
		820.063,57.991 	"/>
</g>
</svg>
