<svg xmlns="http://www.w3.org/2000/svg" width="512" height="512" viewBox="0 0 512 512">
  <title>bold</title>
  <path fill="#000" fill-rule="nonzero" d="M332.80128,251.527253 C353.20636,238.292709 366.234,216.264153 368.00128,192.007253 C368.334004,169.275078 359.450438,147.376355 343.374641,131.300559 C327.298845,115.224762 305.400122,106.341196 282.667947,106.67392 L170.667947,106.67392 C158.900169,106.708366 149.369059,116.239476 149.334613,128.007253 L149.334613,384.007253 C149.369059,395.775031 158.900169,405.306141 170.667947,405.341006 L293.974613,405.341006 C339.165907,405.481542 376.474805,370.052186 378.667947,324.91392 C379.234701,293.534401 361.255942,264.768387 332.80128,251.527253 L332.80128,251.527253 Z M213.334613,160.007253 L277.334613,160.007253 C295.007725,160.007253 309.334613,174.334141 309.334613,192.007253 C309.334613,209.680365 295.007725,224.007253 277.334613,224.007253 L213.334613,224.007253 L213.334613,160.007253 Z M288.00128,352.007253 L213.334613,352.007253 L213.334613,288.007253 L288.00128,288.007253 C305.674392,288.007253 320.00128,302.334141 320.00128,320.007253 C320.00128,337.680365 305.674392,352.007253 288.00128,352.007253 L288.00128,352.007253 Z"/>
</svg>
