<svg xmlns="http://www.w3.org/2000/svg" width="512" height="512" viewBox="0 0 512 512">
  <title>facebook</title>
  <path fill="#000" fill-rule="nonzero" d="M256,42.6666667 C138.179253,42.6666667 42.6666667,138.179253 42.6666667,256 C42.6666667,373.820747 138.179253,469.333333 256,469.333333 C373.820747,469.333333 469.333333,373.820747 469.333333,256 C469.333333,199.420482 446.857207,145.158314 406.849447,105.150553 C366.841686,65.1427926 312.579518,42.6666667 256,42.6666667 Z M316.586667,177.706667 L295.253333,177.706667 C277.973333,177.706667 273.92,185.813333 273.92,197.973333 L273.92,226.56 L312.96,226.56 L307.626667,269.226667 L273.706667,269.226667 L273.706667,373.333333 L231.04,373.333333 L231.04,268.373333 L195.413333,268.373333 L195.413333,225.706667 L230.613333,225.706667 L230.613333,193.706667 C229.114888,178.92802 234.247378,164.2458 244.626747,153.619304 C255.006116,142.992807 269.563525,137.51632 284.373333,138.666667 C295.136011,138.571655 305.894279,139.141629 316.586667,140.373333 L316.586667,177.706667 Z"/>
</svg>
