<svg xmlns="http://www.w3.org/2000/svg" width="512" height="512" viewBox="0 0 512 512">
  <title>search</title>
  <path fill="#000" fill-rule="nonzero" d="M420.48,390.186667 L332.8,302.72 C379.738428,240.002193 370.234282,151.674155 311.027845,100.377594 C251.821408,49.0810331 163.040214,52.254481 107.647348,107.647348 C52.254481,163.040214 49.0810331,251.821408 100.377594,311.027845 C151.674155,370.234282 240.002193,379.738428 302.72,332.8 L390.186667,420.48 C398.55194,428.845272 412.114727,428.845272 420.479999,420.479999 C428.845272,412.114727 428.845272,398.55194 420.48,390.186667 Z M213.333333,320 C154.42296,320 106.666667,272.243707 106.666667,213.333333 C106.666667,154.42296 154.42296,106.666667 213.333333,106.666667 C272.243707,106.666667 320,154.42296 320,213.333333 C320,241.623092 308.761937,268.754176 288.758057,288.758057 C268.754176,308.761937 241.623092,320 213.333333,320 Z"/>
</svg>
