<svg xmlns="http://www.w3.org/2000/svg" width="512" height="512" viewBox="0 0 512 512">
  <title>title</title>
  <path fill="#000" fill-rule="nonzero" d="M106.667918,138.666667 C106.656603,147.157067 110.02438,155.302984 116.028004,161.306609 C122.031629,167.310234 130.177547,170.67801 138.667947,170.666667 L224.00128,170.666667 L224.00128,394.666667 C224.00128,412.339779 238.328168,426.666667 256.00128,426.666667 C273.674392,426.666667 288.00128,412.339779 288.00128,394.666667 L288.00128,170.666667 L373.334613,170.666667 C391.007725,170.666667 405.334613,156.339779 405.334613,138.666667 C405.334613,120.993555 391.007725,106.666638 373.334613,106.666638 L138.667947,106.666638 C130.177547,106.655323 122.031629,110.0231 116.028004,116.026724 C110.02438,122.030349 106.656603,130.176267 106.667918,138.666667 Z"/>
</svg>
