<svg xmlns="http://www.w3.org/2000/svg" width="512" height="512" viewBox="0 0 512 512">
  <title>seen</title>
  <path fill="#000" fill-rule="nonzero" d="M256,106.666667 C161.254754,108.788873 77.0902671,167.704014 42.6666667,256 C77.0902671,344.295986 161.254754,403.211127 256,405.333333 C350.745489,403.211869 434.910347,344.296469 469.333333,256 C434.910347,167.703531 350.745489,108.788131 256,106.666667 Z M256,341.333333 C208.871701,341.333333 170.666667,303.128299 170.666667,256 C170.666667,208.871701 208.871701,170.666667 256,170.666667 C303.128299,170.666667 341.333333,208.871701 341.333333,256 C341.333333,278.631807 332.342883,300.336674 316.339779,316.339779 C300.336674,332.342883 278.631807,341.333333 256,341.333333 Z"/>
  <circle cx="256" cy="256" r="53.333" fill="#000" fill-rule="nonzero"/>
</svg>
