<svg xmlns="http://www.w3.org/2000/svg" viewBox="0 0 512 512">
  <title>
    twitter
  </title>
  <path d="M256 42.67c-117.82 0-213.33 95.5-213.33 213.33 0 117.82 95.5 213.33 213.33 213.33 117.82 0 213.33-95.5 213.33-213.33A213.33 213.33 0 0 0 256 42.67zm105.39 175.78v6.4a137.81 137.81 0 0 1-212.06 116.48c3.91.22 7.83.22 11.74 0A97.28 97.28 0 0 0 221.23 320a48.85 48.85 0 0 1-45.44-33.7c3.05.2 6.12.2 9.17 0 4.32-.02 8.62-.6 12.8-1.71A48.43 48.43 0 0 1 158.93 237a46.93 46.93 0 0 0 21.34 6.19 48 48 0 0 1-21.34-40.32 50.13 50.13 0 0 1 6.62-24.53 138.03 138.03 0 0 0 100.05 50.77 47.79 47.79 0 0 1-1.28-11.1 48.43 48.43 0 0 1 48.64-47.35 47.8 47.8 0 0 1 35.41 15.36 95.57 95.57 0 0 0 30.72-11.74 48.21 48.21 0 0 1-21.33 26.67 101.97 101.97 0 0 0 27.95-7.47 100.05 100.05 0 0 1-24.32 24.96z"/>
</svg>
