<svg xmlns="http://www.w3.org/2000/svg" viewBox="0 0 512 512">
  <title>
    more
  </title>
  <path d="M256 64C149.96 64 64 149.98 64 256c0 106.05 85.96 192 192 192s192-85.95 192-192c0-106.03-85.96-192-192-192zm0 341.34c-82.47 0-149.33-66.86-149.33-149.33 0-82.48 66.86-149.34 149.33-149.34 82.48 0 149.33 66.86 149.33 149.34-.09 82.43-66.9 149.24-149.33 149.33z"/>
  <path d="M320 234.67h-42.67v-42.66a21.33 21.33 0 0 0-42.66 0v42.66H192a21.33 21.33 0 0 0 0 42.67h42.67v42.67a21.33 21.33 0 1 0 42.66 0v-42.67H320a21.33 21.33 0 0 0 0-42.67z"/>
</svg>
