<svg xmlns="http://www.w3.org/2000/svg" viewBox="0 0 512 512">
  <title>
    youtube
  </title>
  <path d="M231.23 292.01l63.3-36.01-63.3-36.01z"/>
  <path d="M256 42.67c-117.82 0-213.33 95.5-213.33 213.33 0 117.82 95.5 213.33 213.33 213.33 117.82 0 213.33-95.5 213.33-213.33A213.33 213.33 0 0 0 256 42.67zm116.06 272.01a30.43 30.43 0 0 1-21.42 21.56 719.24 719.24 0 0 1-94.64 5.1 719.24 719.24 0 0 1-94.64-5.1 30.43 30.43 0 0 1-21.42-21.56c-3.49-19.36-5.18-39-5.06-58.68a319.24 319.24 0 0 1 5.06-58.68 30.44 30.44 0 0 1 21.42-21.56 719.42 719.42 0 0 1 94.64-5.1 719.42 719.42 0 0 1 94.64 5.1 30.44 30.44 0 0 1 21.42 21.56c3.49 19.36 5.18 39 5.06 58.68a319.25 319.25 0 0 1-5.06 58.68z"/>
</svg>
