<svg xmlns="http://www.w3.org/2000/svg" viewBox="0 0 512 512">
  <title>
    attachment
  </title>
  <path d="M429.5 127.78a85.4 85.4 0 0 0-120.7 0L173.03 263.56l-.01.03v-.01a53.34 53.34 0 1 0 75.45 75.4l105.58-105.6a21.33 21.33 0 1 0-30.17-30.16L218.3 308.79v.02a10.67 10.67 0 0 1-15.1-15.1l135.77-135.76v-.01a42.67 42.67 0 0 1 60.38 60.33l-.04.02-158.38 158.38a74.67 74.67 0 1 1-105.6-105.58l83.44-83.44a20.72 20.72 0 0 0 0-29.22l-.96-.95a20.72 20.72 0 0 0-29.21 0l-83.93 83.92c-.17.17-.22.4-.38.58-45.07 46.12-44.44 119.97 1.4 165.32 45.85 45.35 119.71 45.17 165.34-.4l.06-.04 158.39-158.4h.01a85.48 85.48 0 0 0 0-120.68z"/>
</svg>
