<svg xmlns="http://www.w3.org/2000/svg" viewBox="0 0 512 512">
  <title>
    instagram
  </title>
  <path d="M256 42.67c-117.82 0-213.33 95.5-213.33 213.33 0 117.82 95.5 213.33 213.33 213.33 117.82 0 213.33-95.5 213.33-213.33A213.33 213.33 0 0 0 256 42.67zm111.36 259.62a68.05 68.05 0 0 1-18.13 46.94 66.99 66.99 0 0 1-46.94 17.92c-18.56 1.06-74.02 1.06-92.58 0a66.99 66.99 0 0 1-46.94-17.92 67.2 67.2 0 0 1-18.13-46.94v-92.58a68.05 68.05 0 0 1 18.13-46.94 66.99 66.99 0 0 1 46.94-17.92h92.58a66.99 66.99 0 0 1 46.94 17.92 67.2 67.2 0 0 1 18.13 46.94c1.07 18.56 1.07 74.02 0 92.58z"/>
  <path d="M343.47 189.87a37.76 37.76 0 0 0-21.34-21.34 242.13 242.13 0 0 0-66.13-4.48 241.07 241.07 0 0 0-65.92 4.7 36.48 36.48 0 0 0-21.33 21.33c-4.5 21.67-6 43.85-4.48 65.92a243.41 243.41 0 0 0 4.48 66.13 37.12 37.12 0 0 0 21.33 21.34 240.64 240.64 0 0 0 65.92 4.69c22.16 1.48 44.4-.1 66.13-4.7a37.76 37.76 0 0 0 21.34-21.33 251.52 251.52 0 0 0 4.48-66.13 252.16 252.16 0 0 0-4.48-66.13zM256 313.39A57.39 57.39 0 1 1 313.39 256 57.18 57.18 0 0 1 256 313.39zm59.73-103.68a13.44 13.44 0 1 1 .43-26.88 13.44 13.44 0 0 1-.43 26.88z"/>
  <circle cx="256" cy="256" r="37.33"/>
</svg>
