<svg xmlns="http://www.w3.org/2000/svg" viewBox="0 0 512 512">
  <title>
    points
  </title>
  <path d="M282.4 215.9a16.52 16.52 0 0 0 6.48-13.82 11.42 11.42 0 0 0-6.47-11.88c-4.84-2.43-8.07-1.86-16.16-.46l-14.55 2.54v32.5l14.55-2.52a27.9 27.9 0 0 0 16.16-6.36zm-6.45 53.45l-24.25 4.2v35.74l24.25-4.2a28.1 28.1 0 0 0 16.16-7.05 18.35 18.35 0 0 0 6.47-14.78 12.84 12.84 0 0 0-6.47-12.85 22.06 22.06 0 0 0-16.16-1.06z"/>
  <path d="M256 42.67c-117.82 0-213.33 95.5-213.33 213.33 0 117.82 95.5 213.33 213.33 213.33 117.82 0 213.33-95.5 213.33-213.33A213.33 213.33 0 0 0 256 42.67zm91.04 289.67a128.25 128.25 0 0 1-58.16 24.74l-131.01 22.67v-52.99l21.1-3.53v-118.3l-21.1 3.54v-52.99l113.23-19.57c18.59-4.03 37.76-4.6 56.56-1.7a41.66 41.66 0 0 1 32.97 43.01 66.33 66.33 0 0 1-31.36 55.18 43.58 43.58 0 0 1 42.7 45.26 66.72 66.72 0 0 1-24.93 54.68z"/>
</svg>
