<svg xmlns="http://www.w3.org/2000/svg" viewBox="0 0 512 512">
  <title>
    medium
  </title>
  <path d="M256 42.67c-117.82 0-213.33 95.5-213.33 213.33 0 117.82 95.5 213.33 213.33 213.33 117.82 0 213.33-95.5 213.33-213.33A213.33 213.33 0 0 0 256 42.67zm106.67 131.62l-17.07 16.43a4.9 4.9 0 0 0-1.92 4.9v120.75a4.9 4.9 0 0 0 1.92 4.91l16.64 16.43v3.62h-83.41v-3.62l17.28-16.86c1.7-1.7 1.7-2.13 1.7-4.69v-97.92l-48.21 123.1h-6.61l-56.11-123.1v82.35a11.1 11.1 0 0 0 2.99 9.38l23.46 27.31v4.05h-64v-3.41l21.34-27.95c2.36-2.51 3.38-6 2.77-9.38v-95.15a8.1 8.1 0 0 0-2.77-7.04l-19.42-24.1v-3.63h62.08l48.43 106.66 42.67-105.6h58.24v2.56z"/>
</svg>
