<svg xmlns="http://www.w3.org/2000/svg" width="512" height="512" viewBox="0 0 512 512">
  <title>italic</title>
  <path fill="#000" fill-rule="nonzero" d="M213.334613,138.67392 C213.32327,147.16432 216.691046,155.310238 222.694671,161.313862 C228.698296,167.317487 236.844213,170.685263 245.334613,170.67392 L260.48128,170.67392 L187.52128,341.340587 L160.00128,341.340587 C142.328168,341.340587 128.00128,355.667475 128.00128,373.340587 C128.00128,391.013699 142.328168,405.340587 160.00128,405.340587 L266.667947,405.340587 C284.341059,405.340587 298.667947,391.013699 298.667947,373.340587 C298.667947,355.667475 284.341059,341.340587 266.667947,341.340587 L251.52128,341.340587 L324.48128,170.67392 L352.00128,170.67392 C369.674392,170.67392 384.00128,156.347032 384.00128,138.67392 C384.00128,121.000808 369.674392,106.673891 352.00128,106.673891 L245.334613,106.673891 C236.844213,106.662577 228.698296,110.030353 222.694671,116.033978 C216.691046,122.037602 213.32327,130.18352 213.334613,138.67392 Z"/>
</svg>
