<svg xmlns="http://www.w3.org/2000/svg" viewBox="0 0 512 512">
  <title>
    lock with play
  </title>
  <path d="M170.67 224.6v-58.48c0-44.98 38.54-80.79 85.33-80.79 46.8 0 85.33 35.8 85.33 80.79a21.33 21.33 0 1 1-42.66 0c0-20.69-18.77-38.12-42.67-38.12-23.9 0-42.67 17.43-42.67 38.12v33.16A127.8 127.8 0 0 1 256 192c70.7 0 128 57.3 128 128s-57.3 128-128 128-128-57.3-128-128c0-37.9 16.48-71.97 42.67-95.4zm141.28 103.63a8.96 8.96 0 0 0 0-15.73l-79.72-46.08a8.96 8.96 0 0 0-13.53 8.6v91.43a8.96 8.96 0 0 0 13.53 7.86l79.72-46.08z"/>
</svg>
