<svg xmlns="http://www.w3.org/2000/svg" width="512" height="512" viewBox="0 0 512 512">
  <title>arrow-double-down</title>
  <path fill="#000" fill-rule="nonzero" d="M240.915413,293.934933 C249.26105,302.230477 262.73895,302.230477 271.084587,293.934933 L421.934933,143.084587 C427.376112,137.705791 429.52023,129.825049 427.554176,122.430963 C425.588122,115.036878 419.812991,109.261828 412.418877,107.295879 C405.024764,105.329929 397.144052,107.474159 391.765333,112.915413 L256,248.67968 L120.235733,112.915413 C111.88945,104.674494 98.4558191,104.717136 90.1620213,113.010875 C81.8682234,121.304614 81.8254865,134.738245 90.0663467,143.084587 L240.915413,293.934933 Z"/>
  <path fill="#000" fill-rule="nonzero" d="M391.765333,240.915413 L256,376.67968 L120.235733,240.914347 C114.858086,235.467867 106.974788,233.319672 99.5774349,235.284972 C92.1800819,237.250272 86.4024699,243.027843 84.437118,250.425182 C82.4717661,257.822521 84.6199047,265.705834 90.0663467,271.08352 L240.914347,421.933867 C249.259984,430.229411 262.737883,430.229411 271.08352,421.933867 L421.933867,271.08352 C427.414884,265.713111 429.589383,257.812821 427.62849,250.394079 C425.667598,242.975337 419.873464,237.181285 412.454694,235.220497 C405.035924,233.259709 397.135665,235.43432 391.765333,240.915413 Z"/>
</svg>
