<svg xmlns="http://www.w3.org/2000/svg" width="512" height="512" viewBox="0 0 512 512">
  <title>bulleted list</title>
  <path fill="#000" fill-rule="nonzero" d="M405.332267 234.658773L191.998933 234.658773C180.216859 234.658773 170.6656 244.210032 170.6656 255.992107 170.6656 267.774181 180.216859 277.32544 191.998933 277.32544L405.332267 277.32544C417.114341 277.32544 426.6656 267.774181 426.6656 255.992107 426.6656 244.210032 417.114341 234.658773 405.332267 234.658773zM191.998933 149.32544L405.332267 149.32544C417.114341 149.32544 426.6656 139.774181 426.6656 127.992107 426.6656 116.210032 417.114341 106.658773 405.332267 106.658773L191.998933 106.658773C180.216859 106.658773 170.6656 116.210032 170.6656 127.992107 170.6656 139.774181 180.216859 149.32544 191.998933 149.32544zM405.332267 362.658773L191.998933 362.658773C180.216859 362.658773 170.6656 372.210032 170.6656 383.992107 170.6656 395.774181 180.216859 405.32544 191.998933 405.32544L405.332267 405.32544C417.114341 405.32544 426.6656 395.774181 426.6656 383.992107 426.6656 372.210032 417.114341 362.658773 405.332267 362.658773z"/>
  <circle cx="95.999" cy="127.992" r="32" fill="#000" fill-rule="nonzero"/>
  <circle cx="95.999" cy="255.992" r="32" fill="#000" fill-rule="nonzero"/>
  <circle cx="95.999" cy="383.992" r="32" fill="#000" fill-rule="nonzero"/>
</svg>
