<svg xmlns="http://www.w3.org/2000/svg" viewBox="0 0 512 512">
  <title>
    money transfer
  </title>
  <circle cx="298.84" cy="298.88" r="21.33"/>
  <path d="M426.84 181.54a33.22 33.22 0 0 0-34.13-32h-115.2v42.67a21.33 21.33 0 0 1-42.67 0v-42.67h-115.2a33.22 33.22 0 0 0-34.13 32v192a33.22 33.22 0 0 0 34.13 32h273.07a33.22 33.22 0 0 0 34.13-32v-32h-128a42.67 42.67 0 0 1 0-85.33h128v-74.67z"/>
  <path d="M277.51 115.71l8.83 8.83a21.33 21.33 0 1 0 30.17-30.16l-45.25-45.25a21.32 21.32 0 0 0-30.16-.01l-45.26 45.26a21.33 21.33 0 1 0 30.17 30.16l8.83-8.83v33.83h42.67v-33.83z"/>
</svg>
