<svg xmlns="http://www.w3.org/2000/svg" width="512" height="512" viewBox="0 0 512 512">
  <title>counter</title>
  <path fill="#000" fill-rule="nonzero" d="M255.786667,42.6664287 C137.993762,42.7844596 42.588205,138.349143 42.6666656,256.14208 C42.7452231,373.935017 138.278083,469.37244 256.07104,469.333227 C373.863997,469.29399 469.333359,373.792963 469.333359,256 C469.36127,199.374944 446.864817,145.064194 406.804846,105.044243 C366.744875,65.0242913 312.411667,42.5821336 255.786667,42.6664287 Z M362.666667,277.333333 L256,277.333333 C244.232513,277.298189 234.701811,267.767487 234.666667,256 L234.666667,128 C234.666667,116.217925 244.217925,106.666667 256,106.666667 C267.782075,106.666667 277.333333,116.217925 277.333333,128 L277.333333,234.666667 L362.666667,234.666667 C374.448741,234.666667 384,244.217925 384,256 C384,267.782075 374.448741,277.333333 362.666667,277.333333 Z"/>
</svg>
