<svg xmlns="http://www.w3.org/2000/svg" viewBox="0 0 512 512">
  <title>
    less
  </title>
  <path d="M256 64C149.96 64 64 149.98 64 256c0 106.05 85.96 192 192 192s192-85.95 192-192c0-106.03-85.96-192-192-192zm0 341.34c-82.47 0-149.33-66.86-149.33-149.33 0-82.48 66.86-149.34 149.33-149.34 82.48 0 149.34 66.86 149.34 149.34-.1 82.43-66.9 149.24-149.34 149.33z"/>
  <path d="M316.34 195.67a21.4 21.4 0 0 0-30.17 0L256 225.84l-30.17-30.17a21.33 21.33 0 1 0-30.17 30.17L225.83 256l-30.17 30.17a21.33 21.33 0 1 0 30.17 30.17L256 286.18l30.17 30.17a21.33 21.33 0 1 0 30.17-30.17L286.17 256l30.17-30.17a21.4 21.4 0 0 0 0-30.17z"/>
</svg>
