<svg xmlns="http://www.w3.org/2000/svg" width="512" height="512" viewBox="0 0 512 512">
  <title>symbols</title>
  <path fill="#000" fill-rule="nonzero" d="M384,384 L330.666667,384 L330.666667,376.067627 C395.717838,341.743711 428.988925,267.491841 411.308551,196.09723 C393.628177,124.70262 329.551248,74.5583023 256,74.5583023 C182.448752,74.5583023 118.371823,124.70262 100.691449,196.09723 C83.0110753,267.491841 116.282162,341.743711 181.333333,376.067627 L181.333333,384 L128,384 C116.217925,384 106.666667,393.551259 106.666667,405.333333 C106.666667,417.115408 116.217925,426.666667 128,426.666667 L213.333333,426.666667 C225.10082,426.631522 234.631522,417.10082 234.666667,405.333333 L234.666667,339.183573 C181.014118,328.231793 144.369716,278.432668 149.873477,223.951055 C155.377238,169.469443 201.241097,128.005344 256,128.005344 C310.758903,128.005344 356.622762,169.469443 362.126523,223.951055 C367.630284,278.432668 330.985882,328.231793 277.333333,339.183573 L277.333333,405.333333 C277.368478,417.10082 286.89918,426.631522 298.666667,426.666667 L384,426.666667 C395.782075,426.666667 405.333333,417.115408 405.333333,405.333333 C405.333333,393.551259 395.782075,384 384,384 L384,384 Z"/>
</svg>
