<svg xmlns="http://www.w3.org/2000/svg" width="512" height="512" viewBox="0 0 512 512">
  <title>close</title>
  <path fill="#000" fill-rule="nonzero" d="M120.32,150.4 L362.666667,391.68 C367.066724,399.590509 375.979898,403.863014 384.902514,402.338693 C393.825131,400.814372 400.814372,393.825131 402.338693,384.902514 C403.863014,375.979898 399.590509,367.066724 391.68,362.666667 L150.4,120.32 C141.935781,113.071428 129.318524,113.558778 121.438651,121.438651 C113.558778,129.318524 113.071428,141.935781 120.32,150.4 Z"/>
  <path fill="#000" fill-rule="nonzero" d="M362.666667,120.32 L120.32,362.666667 C114.231975,367.880317 111.580119,376.066526 113.454717,383.859605 C115.329316,391.652684 121.413983,397.737351 129.207062,399.61195 C137.000141,401.486548 145.186349,398.834691 150.4,392.746667 L391.68,150.4 C398.998038,145.765651 402.787399,137.166405 401.26951,128.638398 C399.751621,120.110392 393.227842,113.346769 384.760171,111.522098 C376.2925,109.697428 367.5621,113.173979 362.666667,120.32 Z"/>
</svg>
