<svg xmlns="http://www.w3.org/2000/svg" width="512" height="512" viewBox="0 0 512 512">
  <title>linkedin</title>
  <path fill="#000" fill-rule="nonzero" d="M256,42.6666667 C138.179253,42.6666667 42.6666667,138.179253 42.6666667,256 C42.6666667,373.820747 138.179253,469.333333 256,469.333333 C373.820747,469.333333 469.333333,373.820747 469.333333,256 C469.333333,199.420482 446.857207,145.158314 406.849447,105.150553 C366.841686,65.1427926 312.579518,42.6666667 256,42.6666667 Z M197.12,362.666667 L152.746667,362.666667 L152.746667,220.16 L197.12,220.16 L197.12,362.666667 Z M175.786667,200.746667 C165.259985,201.182022 155.52515,195.176313 151.191506,185.573183 C146.857863,175.970053 148.795234,164.696982 156.086293,157.091653 C163.377352,149.486324 174.558684,147.075232 184.336042,151.000004 C194.1134,154.924776 200.524335,164.397656 200.533333,174.933333 C200.533333,189.106746 189.106262,200.629531 174.933333,200.746667 L175.786667,200.746667 Z M362.666667,362.666667 L318.506667,362.666667 L318.506667,293.333333 C318.506667,276.906667 318.506667,255.573333 295.466667,255.573333 C272.426667,255.573333 269.013333,273.493333 269.013333,292.053333 L269.013333,362.666667 L224.853333,362.666667 L224.853333,220.16 L267.52,220.16 L267.52,239.573333 L267.52,239.573333 C276.421313,224.654134 292.835832,215.872367 310.186667,216.746667 C354.773333,216.746667 363.093333,246.186667 363.093333,284.373333 L362.666667,362.666667 Z"/>
</svg>
