<svg xmlns="http://www.w3.org/2000/svg" viewBox="0 0 512 512">
  <title>
    linkedin
  </title>
  <path d="M256 42.67c-117.82 0-213.33 95.5-213.33 213.33 0 117.82 95.5 213.33 213.33 213.33 117.82 0 213.33-95.5 213.33-213.33A213.33 213.33 0 0 0 256 42.67zm-58.88 320h-44.37V220.16h44.37v142.5zm-21.33-161.92a25.81 25.81 0 1 1 24.74-25.82 25.81 25.81 0 0 1-25.6 25.82h.86zm186.88 161.92H318.5v-69.34c0-16.42 0-37.76-23.04-37.76S269 273.5 269 292.05v70.62h-44.16V220.16h42.67v19.41a46.93 46.93 0 0 1 42.67-22.82c44.58 0 52.9 29.44 52.9 67.62l-.42 78.3z"/>
</svg>
