<svg xmlns="http://www.w3.org/2000/svg" width="512" height="512" viewBox="0 0 512 512">
  <title>messeges</title>
  <path fill="#000" fill-rule="nonzero" d="M341.332053,266.700587 L341.332053,117.333333 C341.053908,108.567884 337.305079,100.27194 330.910272,94.2705302 C324.515465,88.2691202 315.998515,85.053852 307.233067,85.3320533 L98.1333333,85.3333333 C89.3680698,85.0453766 80.8474545,88.2514026 74.446126,94.2460467 C68.0447976,100.240691 64.2871819,108.532844 63.9987198,117.298133 L63.9987198,326.613333 C63.9987198,332.681446 67.6689625,338.146739 73.286776,340.440679 C78.9045894,342.73462 85.3519259,341.401033 89.59872,337.066667 L127.99872,298.666667 L307.19872,298.666667 C315.963888,298.95393 324.484168,295.747459 330.885178,289.752649 C337.286188,283.757838 341.043584,275.465757 341.332053,266.700587 Z"/>
  <path fill="#000" fill-rule="nonzero" d="M447.99744,245.298133 C447.710475,236.533226 443.953282,228.241336 437.552461,222.246718 C431.151641,216.2521 422.631557,213.045841 413.866667,213.333333 L384,213.333333 C384,250.67712 384,309.36064 383.99872,309.367253 C383.711531,318.132423 379.954135,326.424505 373.553125,332.419315 C367.152115,338.414126 358.631834,341.620597 349.866667,341.333333 L192,341.333333 L192,373.367253 C192.287186,382.132652 196.044759,390.424933 202.446048,396.41978 C208.847337,402.414627 217.367948,405.620943 226.133333,405.333333 L384,405.333333 L422.4,443.733333 C426.646794,448.0677 433.094131,449.401286 438.711944,447.107346 C444.329757,444.813405 448,439.348113 448,433.28 L447.99744,245.298133 Z"/>
</svg>
