<svg xmlns="http://www.w3.org/2000/svg" viewBox="0 0 512 512">
  <title>
    friends
  </title>
  <path d="M192 277.33c-49.7 0-128 24.96-128 74.67v32a21.4 21.4 0 0 0 21.33 21.33h213.34A21.4 21.4 0 0 0 320 384v-32c0-49.7-78.3-74.67-128-74.67zm0-42.66a64 64 0 1 0-64-64 63.74 63.74 0 0 0 64 64zm149.33 7.1A53.33 53.33 0 1 0 288 188.45a53.11 53.11 0 0 0 53.33 53.34zm0 35.56c-9.23.08-18.44.96-27.52 2.63 28.01 14.5 48.86 35.5 48.86 63.15V384h67.55A17.83 17.83 0 0 0 448 366.22v-26.67c0-41.42-65.24-62.22-106.67-62.22z"/>
</svg>
