<svg xmlns="http://www.w3.org/2000/svg" width="512" height="512" viewBox="0 0 512 512">
  <title>underlined</title>
  <path fill="#000" fill-rule="nonzero" d="M362.667947 384.006613L149.334613 384.006613C137.552539 384.006613 128.00128 393.557872 128.00128 405.339947 128.00128 417.122021 137.552539 426.67328 149.334613 426.67328L362.667947 426.67328C374.450021 426.67328 384.00128 417.122021 384.00128 405.339947 384.00128 393.557872 374.450021 384.006613 362.667947 384.006613zM256.00128 341.339947C320.770819 341.263067 373.257734 288.776153 373.334613 224.006613L373.334613 117.339947C373.334613 99.6668347 359.007725 85.3399467 341.334613 85.3399467 323.661501 85.3399467 309.334613 99.6668347 309.334613 117.339947L309.334613 224.006613C309.334613 253.4618 285.456467 277.339947 256.00128 277.339947 226.546093 277.339947 202.667947 253.4618 202.667947 224.006613L202.667947 117.339947C202.667947 99.6668347 188.341059 85.3399467 170.667947 85.3399467 152.994835 85.3399467 138.667947 99.6668347 138.667947 117.339947L138.667947 224.006613C138.744826 288.776153 191.231741 341.263067 256.00128 341.339947z"/>
</svg>
