<svg xmlns="http://www.w3.org/2000/svg" xmlns:xlink="http://www.w3.org/1999/xlink" viewBox="0 0 24 24">
  <path d="M10,3H4A1,1,0,0,0,3,4v6a1,1,0,0,0,1,1h6a1,1,0,0,0,1-1V4A1,1,0,0,0,10,3ZM9,8H8V9A1,1,0,0,1,6,9V8H5A1,1,0,0,1,5,6H6V5A1,1,0,0,1,8,5V6H9A1,1,0,0,1,9,8Z" />
  <path d="M10,13H4a1,1,0,0,0-1,1v6a1,1,0,0,0,1,1h6a1,1,0,0,0,1-1V14A1,1,0,0,0,10,13Zm-.9,4.68a1,1,0,0,1-1.41,1.41L7,18.39l-.71.71a1,1,0,1,1-1.41-1.41L5.56,17l-.71-.71a1,1,0,1,1,1.41-1.41l.71.71.71-.71A1,1,0,1,1,9.1,16.26L8.39,17Z" />
  <path d="M20,3H14a1,1,0,0,0-1,1v6a1,1,0,0,0,1,1h6a1,1,0,0,0,1-1V4A1,1,0,0,0,20,3Zm0,4a1,1,0,0,1-1,1H15a1,1,0,0,1-1-1h0a1,1,0,0,1,1-1h4a1,1,0,0,1,1,1Z" />
  <path d="M20,13H14a1,1,0,0,0-1,1v6a1,1,0,0,0,1,1h6a1,1,0,0,0,1-1V14A1,1,0,0,0,20,13Zm-6,2a1,1,0,1,1,1,1A1,1,0,0,1,14,15Zm.85,4.09a1,1,0,0,1,0-1.41l2.83-2.83a1,1,0,1,1,1.41,1.41l-2.83,2.83A1,1,0,0,1,14.85,19.09ZM19,20a1,1,0,1,1,1-1A1,1,0,0,1,19,20Z"
  />
</svg>
