<svg xmlns="http://www.w3.org/2000/svg" xmlns:xlink="http://www.w3.org/1999/xlink" viewBox="0 0 24 24">
  <path d="M17,7A5,5,0,1,0,7.46,9.06L10,16h4L16.6,9h0A5,5,0,0,0,17,7Z" />
  <path d="M2,20v1a2.5,2.5,0,0,1,.56.28A4.46,4.46,0,0,0,5.13,22a4.46,4.46,0,0,0,2.57-.71A1.46,1.46,0,0,1,8.56,21h0a1.46,1.46,0,0,1,.86.32A4.46,4.46,0,0,0,12,22a4.46,4.46,0,0,0,2.57-.71,1.46,1.46,0,0,1,.86-.32h0a1.46,1.46,0,0,1,.86.32,4.46,4.46,0,0,0,2.57.71,4.46,4.46,0,0,0,2.57-.71A2.48,2.48,0,0,1,22,21V20Z"
  />
  <path d="M22,19V18a1,1,0,0,0-1-1H3a1,1,0,0,0-1,1V19Z" />
</svg>
