<svg viewBox="0 0 512 512" xmlns="http://www.w3.org/2000/svg">
<path d="M458.068 285.572C463.113 292.837 466.052 301.355 466.56 310.186C467.02 313.451 467.426 316.722 467.78 319.999H44.2829C44.6226 316.936 45.0084 313.878 45.4403 310.826C45.9491 301.995 48.8879 293.477 53.9324 286.212C58.977 278.946 65.9311 273.215 74.027 269.653C80.1479 268.046 86.4809 267.399 92.8003 267.733H142.72C157.863 269.869 173.231 269.869 188.374 267.733C210.774 260.266 209.28 225.919 202.88 208.639C200.299 201.042 196.634 193.857 192 187.306C179.936 168.065 174.567 145.377 176.728 122.769C178.888 100.161 188.457 78.901 203.947 62.2927C218.619 50.1196 236.944 43.21 256 42.666C274.98 43.0288 293.297 49.71 308.054 61.6527C323.577 78.2361 333.185 99.4841 335.384 122.092C337.583 144.701 332.25 167.402 320.214 186.666C315.58 193.217 311.915 200.402 309.334 207.999C302.507 224.426 302.507 259.626 323.84 267.093C338.983 269.229 354.351 269.229 369.494 267.093H419.2C425.52 266.759 431.853 267.406 437.974 269.013C446.07 272.575 453.024 278.306 458.068 285.572Z" fill="#323C45"/>
<path d="M42.667 362.666V399.999C42.667 426.666 76.1603 447.999 117.12 447.999C139.135 448.258 160.528 440.698 177.494 426.666C181.362 423.233 186.407 421.428 191.575 421.627C196.743 421.825 201.634 424.013 205.227 427.733C218.897 440.794 237.093 448.057 256 447.999C274.67 448.499 292.827 441.861 306.774 429.439C310.367 425.72 315.258 423.532 320.426 423.333C325.594 423.134 330.639 424.94 334.507 428.373C351.642 441.761 372.934 448.708 394.667 447.999C435.84 447.999 469.334 426.666 469.334 399.999V362.666H42.667Z" fill="#323C45"/>
</svg>
