<svg viewBox="0 0 512 512" xmlns="http://www.w3.org/2000/svg">
<g id="mono_administration">
<g id="Vector">
<path d="M466.56 310.186C466.051 301.355 463.113 292.837 458.068 285.572C453.023 278.306 446.069 272.575 437.973 269.013C431.852 267.406 425.52 266.759 419.2 267.093H369.493C354.351 269.229 338.983 269.229 323.84 267.093C302.507 259.626 302.507 224.426 309.333 207.999C311.915 200.402 315.58 193.217 320.213 186.666C332.249 167.402 337.583 144.701 335.384 122.092C333.184 99.4841 323.576 78.2361 308.053 61.6527C293.297 49.71 274.98 43.0288 256 42.666C236.944 43.21 218.618 50.1196 203.947 62.2927C188.457 78.901 178.888 100.161 176.728 122.769C174.567 145.377 179.936 168.065 192 187.306C196.634 193.857 200.298 201.042 202.88 208.639C209.28 225.919 210.773 260.266 188.373 267.733C173.231 269.869 157.863 269.869 142.72 267.733H92.8001C86.4807 267.399 80.1477 268.046 74.0267 269.653C65.9308 273.215 58.9768 278.946 53.9322 286.212C48.8877 293.477 45.9488 301.995 45.4401 310.826C44.0086 320.942 43.083 331.124 42.6667 341.333H469.333C468.939 330.91 468.013 320.514 466.56 310.186Z"/>
<path d="M42.6667 421.333V383.999H469.333V421.333C469.333 447.999 435.84 469.333 394.667 469.333C372.933 470.041 351.641 463.095 334.507 449.706C330.639 446.273 325.594 444.468 320.426 444.667C315.258 444.865 310.367 447.053 306.773 450.773C292.827 463.195 274.67 469.832 256 469.333C237.093 469.391 218.897 462.128 205.227 449.066C201.634 445.346 196.742 443.159 191.574 442.96C186.407 442.761 181.362 444.567 177.493 447.999C160.528 462.032 139.135 469.591 117.12 469.333C76.1601 469.333 42.6667 447.999 42.6667 421.333Z"/>
</g>
</g>
</svg>
