<svg xmlns="http://www.w3.org/2000/svg" xmlns:xlink="http://www.w3.org/1999/xlink" viewBox="0 0 24 24">
  <title>agricultural</title>
  <path d="M9.5,9.05H8v1.5a1.5,1.5,0,1,0,1.5-1.5Z" />
  <path d="M14.5,9.05H16v1.5a1.5,1.5,0,1,1-1.5-1.5Z" />
  <path d="M9.5,13.05H8v1.5a1.5,1.5,0,1,0,1.5-1.5Z" />
  <path d="M14.5,13.05H16v1.5a1.5,1.5,0,1,1-1.5-1.5Z" />
  <path d="M9.5,17.05H8v1.5a1.5,1.5,0,1,0,1.5-1.5Z" />
  <path d="M14.5,17.05H16v1.5a1.5,1.5,0,1,1-1.5-1.5Z" />
  <rect x="8.03" y="2" width="1.03" height="6" rx="0.51" ry="0.51" />
  <rect x="9.76" y="2" width="1.03" height="6" rx="0.51" ry="0.51" />
  <rect x="11.49" y="2" width="1.03" height="20" rx="0.51" ry="0.51" />
  <rect x="13.22" y="2" width="1.03" height="6" rx="0.51" ry="0.51" />
  <rect x="14.95" y="2" width="1.03" height="6" rx="0.51" ry="0.51" />
</svg>
