<svg viewBox="0 0 512 512" xmlns="http://www.w3.org/2000/svg">
<g id="mono_all">
<g id="Vector">
<path d="M106.667 160C136.122 160 160 136.122 160 106.667C160 77.2115 136.122 53.3333 106.667 53.3333C77.2114 53.3333 53.3333 77.2115 53.3333 106.667C53.3333 136.122 77.2114 160 106.667 160Z"/>
<path d="M256 160C285.455 160 309.333 136.122 309.333 106.667C309.333 77.2115 285.455 53.3333 256 53.3333C226.545 53.3333 202.667 77.2115 202.667 106.667C202.667 136.122 226.545 160 256 160Z"/>
<path d="M458.667 106.667C458.667 136.122 434.788 160 405.333 160C375.878 160 352 136.122 352 106.667C352 77.2115 375.878 53.3333 405.333 53.3333C434.788 53.3333 458.667 77.2115 458.667 106.667Z"/>
<path d="M106.667 309.333C136.122 309.333 160 285.455 160 256C160 226.545 136.122 202.667 106.667 202.667C77.2114 202.667 53.3333 226.545 53.3333 256C53.3333 285.455 77.2114 309.333 106.667 309.333Z"/>
<path d="M309.333 256C309.333 285.455 285.455 309.333 256 309.333C226.545 309.333 202.667 285.455 202.667 256C202.667 226.545 226.545 202.667 256 202.667C285.455 202.667 309.333 226.545 309.333 256Z"/>
<path d="M405.333 309.333C434.788 309.333 458.667 285.455 458.667 256C458.667 226.545 434.788 202.667 405.333 202.667C375.878 202.667 352 226.545 352 256C352 285.455 375.878 309.333 405.333 309.333Z"/>
<path d="M160 405.333C160 434.789 136.122 458.667 106.667 458.667C77.2114 458.667 53.3333 434.789 53.3333 405.333C53.3333 375.878 77.2114 352 106.667 352C136.122 352 160 375.878 160 405.333Z"/>
<path d="M256 458.667C285.455 458.667 309.333 434.789 309.333 405.333C309.333 375.878 285.455 352 256 352C226.545 352 202.667 375.878 202.667 405.333C202.667 434.789 226.545 458.667 256 458.667Z"/>
<path d="M458.667 405.333C458.667 434.789 434.788 458.667 405.333 458.667C375.878 458.667 352 434.789 352 405.333C352 375.878 375.878 352 405.333 352C434.788 352 458.667 375.878 458.667 405.333Z"/>
</g>
</g>
</svg>
