<svg xmlns="http://www.w3.org/2000/svg" xmlns:xlink="http://www.w3.org/1999/xlink" viewBox="0 0 24 24">
  <path d="M17.78,8.68a2.3,2.3,0,0,0-1-.19,2.17,2.17,0,0,0-1,.28,14,14,0,0,0-1.57,1H16q2.21,0,2.21-.67Q18.19,8.87,17.78,8.68Z" />
  <path d="M21,4H3A1,1,0,0,0,2,5V20.8a.5.5,0,0,0,.85.35L7,17H21a1,1,0,0,0,1-1V5A1,1,0,0,0,21,4ZM16.83,14l-1-.49-.55,1.06-1.19-.67.72-1.34.93.53.52-1,1.22.67Zm2.23-2.93a.5.5,0,0,1-.5.5h-6A.51.51,0,0,0,12,12a2.28,2.28,0,0,1-.95,1.72,4.54,4.54,0,0,1-2.55.58,4.39,4.39,0,0,1-2.46-.58,1.87,1.87,0,0,1-.86-1.65,4.82,4.82,0,0,1,.28-1.67A11.13,11.13,0,0,1,6.66,8.28c.23-.09.34,0,.39.28a14.13,14.13,0,0,0-.85,1.61,2.74,2.74,0,0,0-.2,1,1.28,1.28,0,0,0,.74,1.13,3.78,3.78,0,0,0,1.94.44,4,4,0,0,0,2-.45,1.3,1.3,0,0,0,.81-1.11,2.42,2.42,0,0,0-.14-.81,9.6,9.6,0,0,0-.51-1.08.52.52,0,0,1,0-.39l.4-1.24c.12-.25.2-.14.29,0l.22.44a3.47,3.47,0,0,1,.27.75,4.37,4.37,0,0,1,.08.9,1.43,1.43,0,0,0,.77-.22l.65-.46,2.35-1.68a7.38,7.38,0,0,1,.83-.52,1.75,1.75,0,0,1,.77-.18,1.41,1.41,0,0,1,1.15.52,2.85,2.85,0,0,1,.49,1.82Z"
  />
</svg>
