<svg viewBox="0 0 512 512" xmlns="http://www.w3.org/2000/svg">
<g id="mono_arabic">
<g id="Vector">
<path d="M306.542 227.149H344.923C377.127 227.149 393.597 222.286 394.332 212.561C394.332 208.82 391.317 205.529 385.288 202.686C378.341 199.606 370.804 198.149 363.23 198.422C355.485 198.66 347.914 200.817 341.173 204.706C329.15 211.393 317.581 218.89 306.542 227.149Z"/>
<path fill-rule="evenodd" clip-rule="evenodd" d="M464.624 196.756C467.948 210.7 469.523 225.003 469.315 239.336C468.704 265.95 462.723 292.167 451.732 316.42C440.741 340.673 424.964 362.464 405.346 380.49C380.28 402.803 350.709 419.482 318.631 429.399C286.552 439.316 252.715 442.241 219.408 437.974C214.574 436.8 209.529 436.8 204.695 437.974C201.482 439.662 198.536 441.814 195.952 444.361C177.227 460.776 153.059 469.654 128.144 469.271C126.735 469.478 125.299 469.176 124.093 468.419C122.814 467.284 123.24 465.77 123.667 464.256C123.88 463.499 124.093 462.742 124.093 462.032C129.705 449.264 134.131 436.009 137.313 422.432C139.336 416.934 139.336 410.898 137.313 405.4C134.871 401.757 131.578 398.761 127.718 396.671C121.978 392.843 116.494 388.648 111.299 384.11C76.9181 354.563 53.7348 314.131 45.6238 269.568C41.6811 247.53 41.6811 224.968 45.6238 202.93C50.2618 181.04 59.174 160.277 71.8513 141.827C96.4617 103.257 132.661 73.4477 175.269 56.6657C206.255 45.3063 239.336 40.7758 272.241 43.385C305.146 45.9943 337.096 55.6815 365.898 71.7818C389.979 84.8431 411.149 102.657 428.121 124.141C445.093 145.625 457.512 170.33 464.624 196.756ZM376.245 158.25C386.035 157.857 395.435 162.182 401.612 169.92C409.069 181.868 412.406 196.002 411.096 210.093V254.979C411.096 261.176 406.159 266.2 400.068 266.2H267.721C261.922 266.298 257.147 270.865 256.693 276.748C256.365 292.656 248.784 307.503 236.179 316.921C219.091 326.779 199.53 331.306 179.932 329.938C160.98 331.118 142.107 326.591 125.67 316.921C113.331 308.881 106.111 294.786 106.7 279.89C106.574 267.125 108.665 254.436 112.876 242.411C119.768 225.324 128.497 209.066 138.905 193.934C143.978 191.914 147.507 194.832 147.507 200.218C140.498 211.838 134.235 223.908 128.758 236.351C125.92 243.485 124.424 251.098 124.346 258.794C124.323 269.664 130.286 279.632 139.787 284.603C152.928 291.723 167.704 295.133 182.579 294.478C197.896 295.068 213.101 291.587 226.694 284.379C236.829 280.218 243.758 270.557 244.561 259.467C244.558 253.273 243.513 247.125 241.473 241.289C238.23 232.903 234.473 224.732 230.223 216.826C229.107 214.019 229.107 210.88 230.223 208.073L239.046 180.244C241.473 173.96 243.458 176.653 245.443 180.244L250.296 190.119C252.91 195.478 254.908 201.126 256.251 206.951C257.524 213.604 258.115 220.373 258.016 227.15C264.024 227.183 269.917 225.47 275 222.212L289.338 211.888L340.953 173.96C346.796 169.663 352.912 165.764 359.261 162.29C364.545 159.642 370.355 158.26 376.245 158.25ZM339.852 301.21L319.117 289.54L303.236 319.389L329.484 334.426L341.837 310.636L363.233 321.633L378.232 292.907L351.322 277.87L339.852 301.21Z"/>
</g>
</g>
</svg>
