<svg xmlns="http://www.w3.org/2000/svg" xmlns:xlink="http://www.w3.org/1999/xlink" viewBox="0 0 24 24">
  <defs>
    <style>
      .b {
        fill: #020a1a;
      }
    </style>
  </defs>
  <title>art_mono</title>
  <path class="b" d="M12.32,4a7.5,7.5,0,0,0,.15,15,1.25,1.25,0,0,0,.92-2.09,1.25,1.25,0,0,1,.93-2.08h1.4A4.28,4.28,0,0,0,20,11.08C20.21,7.18,16.68,4,12.32,4ZM7.89,12.22a1.5,1.5,0,1,1,1.5-1.5A1.5,1.5,0,0,1,7.89,12.22Zm2.5-3.33a1.5,1.5,0,1,1,1.5-1.5A1.5,1.5,0,0,1,10.39,8.88Zm2.67-1.5a1.5,1.5,0,1,1,1.5,1.5A1.5,1.5,0,0,1,13.06,7.38Zm4,4.83a1.5,1.5,0,1,1,1.5-1.5A1.5,1.5,0,0,1,17.06,12.22Z"
  />
</svg>
