<svg viewBox="0 0 512 512" xmlns="http://www.w3.org/2000/svg">
<g id="mono_art">
<path id="Vector" fill-rule="evenodd" clip-rule="evenodd" d="M104.381 106.108C142.788 67.282 194.607 44.6222 249.201 42.7795C277.279 41.9376 305.033 45.7767 331.295 55.7386C357.557 65.7004 381.599 80.735 402.049 99.984C422.498 119.233 438.954 142.319 450.476 167.925C461.999 193.531 468.364 221.154 469.206 249.218C470.048 277.282 465.352 305.237 455.386 331.487C445.419 357.737 430.378 381.768 411.12 402.208C391.862 422.647 368.764 439.095 343.147 450.613C317.529 462.13 289.893 468.492 261.816 469.334H259.678C253.272 469.251 246.961 467.773 241.185 465.002C235.41 462.231 230.308 458.234 226.237 453.29C222.166 448.346 219.223 442.573 217.613 436.375C216.003 430.177 215.766 423.703 216.917 417.404C217.811 410.308 217.811 403.129 216.917 396.033C214.806 377.682 206.531 360.589 193.444 347.546C180.357 334.504 163.231 326.284 144.865 324.228C131.953 322.955 118.921 324.711 106.808 329.357C100.777 331.852 94.2691 332.982 87.75 332.668C81.231 332.353 74.8622 330.601 69.1 327.538C63.3378 324.474 58.3249 320.175 54.4203 314.947C50.5156 309.72 47.816 303.694 46.5149 297.302C43.7038 282.225 42.4145 266.903 42.6664 251.569C43.8917 196.982 65.9739 144.935 104.381 106.108ZM120.242 239.195C126.758 243.598 134.434 245.97 142.299 246.013L142.513 246.226C153.06 246.226 163.175 242.038 170.633 234.584C178.091 227.13 182.281 217.019 182.281 206.477C182.323 198.616 180.032 190.918 175.697 184.358C171.363 177.798 165.179 172.67 157.929 169.623C150.679 166.575 142.687 165.745 134.965 167.238C127.243 168.73 120.137 172.478 114.545 178.007C108.954 183.536 105.128 190.598 103.552 198.3C101.976 206.002 102.721 213.998 105.692 221.277C108.662 228.557 113.726 234.792 120.242 239.195ZM380.263 157.753C380.263 179.705 362.458 197.502 340.495 197.502C318.532 197.502 300.727 179.705 300.727 157.753C300.727 135.8 318.532 118.004 340.495 118.004C362.458 118.004 380.263 135.8 380.263 157.753ZM422.598 267.383C422.598 289.336 404.794 307.132 382.83 307.132C360.867 307.132 343.063 289.336 343.063 267.383C343.063 245.43 360.867 227.634 382.83 227.634C404.794 227.634 422.598 245.43 422.598 267.383ZM320.185 408.641C342.148 408.641 359.952 390.845 359.952 368.892C359.952 346.94 342.148 329.143 320.185 329.143C298.222 329.143 280.417 346.94 280.417 368.892C280.417 390.845 298.222 408.641 320.185 408.641Z"/>
</g>
</svg>
