<svg xmlns="http://www.w3.org/2000/svg" xmlns:xlink="http://www.w3.org/1999/xlink" viewBox="0 0 24 24">
  <path d="M11.72,4a8,8,0,0,0,.17,16.07,1.34,1.34,0,0,0,1-2.24,1.33,1.33,0,0,1,1-2.22h1.5a4.59,4.59,0,0,0,4.53-4.06C20.17,7.36,16.38,3.91,11.72,4ZM7,12.76a1.61,1.61,0,1,1,1.61-1.61A1.6,1.6,0,0,1,7,12.76ZM9.65,9.19a1.61,1.61,0,1,1,1.61-1.61A1.61,1.61,0,0,1,9.65,9.19Zm2.86-1.61a1.61,1.61,0,1,1,1.61,1.61A1.61,1.61,0,0,1,12.51,7.58Zm4.29,5.18a1.61,1.61,0,1,1,1.61-1.61A1.6,1.6,0,0,1,16.79,12.76Z"
  />
</svg>
