<svg viewBox="0 0 512 512" xmlns="http://www.w3.org/2000/svg">
<g id="mono_astronomy">
<g id="Vector">
<path d="M154.551 390.235H138.978C153.009 408.197 170.939 422.736 191.414 432.751C211.888 442.767 234.372 447.997 257.164 448.049C287.93 447.801 317.901 438.256 343.143 420.666C368.386 403.077 387.719 378.265 398.604 349.489C354.29 364.324 308.741 375.176 262.498 381.915C226.748 387.156 190.681 389.936 154.551 390.235Z"/>
<path d="M389.973 209.973C377.187 185.439 357.96 164.851 334.357 150.418C310.754 135.985 283.665 128.254 256 128.053C220.16 128.875 185.708 142.071 158.489 165.402C131.27 188.732 112.961 220.761 106.667 256.053C64.0001 273.12 42.6667 292.747 42.6667 314.293C42.6667 335.84 59.0339 352.634 117.451 358.134H125.367C135.181 358.134 143.247 358.134 153.701 358.134C188.013 358.173 221.977 354.79 256 350.347C306.318 343.033 355.728 330.448 403.413 312.8L406.613 311.307C448 293.6 469.333 273.973 469.333 252.64C469.333 230.609 447.063 212.251 389.973 209.973ZM83.8605 315.94C78.5312 313.964 77.7238 307.168 82.3122 303.813C88.5478 299.254 95.372 295.529 102.613 292.747C103.13 301.953 104.487 311.094 106.667 320.053C98.8516 320.04 91.1323 318.637 83.8605 315.94ZM408.96 274.827C408.296 265.086 406.653 255.437 404.053 246.027C412.2 246.518 420.198 248.275 427.763 251.214C433.046 253.267 433.945 260.025 429.418 263.436C423.168 268.144 416.287 271.981 408.96 274.827Z"/>
<path d="M72.9609 113.973C79.09 116.083 84.6578 119.562 89.2414 124.146C93.8251 128.73 97.304 134.298 99.4142 140.427C103.468 152.373 109.868 152.373 113.708 140.427C115.805 134.173 119.325 128.492 123.989 123.828C128.653 119.164 134.334 115.645 140.588 113.547C152.321 109.707 152.321 103.307 140.588 99.4667C134.357 97.3903 128.69 93.9037 124.027 89.2784C119.365 84.653 115.833 79.0138 113.708 72.8C109.868 61.0667 103.468 61.0667 99.4142 72.8C97.3099 78.9911 93.8108 84.6158 89.1871 89.2395C84.5633 93.8633 78.9387 97.3624 72.7476 99.4667C61.0142 103.52 61.0142 109.92 72.9609 113.973Z"/>
</g>
</g>
</svg>
