<svg xmlns="http://www.w3.org/2000/svg" xmlns:xlink="http://www.w3.org/1999/xlink" viewBox="0 0 24 24">
  <circle cx="6.02" cy="6.1" r="1"/>
  <circle cx="11.04" cy="3.1" r="1"/>
  <circle cx="18" cy="14.12" r="1"/>
  <circle cx="20.52" cy="11.47" r=".5"/>
  <circle cx="3.51" cy="3.59" r=".5"/>
  <path d="M18.15 3.06l-5.41 3.06a1.2 1.2 0 0 0-.52 1.45L5.3 11.49a1.12 1.12 0 0 0-.47 1.42l-2.18 1.23a1 1 0 1 0 1 1.74l2.18-1.24a1.12 1.12 0 0 0 1.43.36L11 12.83V21a1 1 0 0 0 1 1 1 1 0 0 0 1-1v-9.3l1.19-.7a1.2 1.2 0 0 0 1.51.3l5.39-3.05a4.25 4.25 0 0 0-2.94-5.19zM11 9.74a1 1 0 1 1 .7 1.22 1 1 0 0 1-.7-1.22z"/>
</svg>
