<svg viewBox="0 0 512 512" xmlns="http://www.w3.org/2000/svg">
<g id="mono_belarus">
<g id="Vector">
<path d="M166.177 216.862C166.405 212.081 169.861 208.108 174.481 207.316H201.886C208.536 207.316 213.927 212.825 213.927 219.62C213.927 226.415 208.536 231.923 201.886 231.923H174.896C172.262 231.659 169.845 230.313 168.201 228.193C166.557 226.073 165.826 223.362 166.177 220.68C166.065 219.41 166.065 218.132 166.177 216.862Z"/>
<path d="M175.312 286.865H203.339C206.997 287.289 210.657 286.094 213.395 283.58C216.134 281.066 217.687 277.474 217.664 273.713C217.681 269.936 216.133 266.329 213.404 263.783C210.674 261.236 207.018 259.989 203.339 260.349H175.104C169.911 260.578 165.851 265.009 165.969 270.319C165.861 272.297 165.861 274.28 165.969 276.258C165.799 278.939 166.695 281.576 168.454 283.572C170.212 285.569 172.685 286.756 175.312 286.865Z"/>
<path fill-rule="evenodd" clip-rule="evenodd" d="M464.624 196.756C467.948 210.7 469.523 225.003 469.315 239.336C468.704 265.95 462.723 292.167 451.732 316.42C440.741 340.673 424.964 362.464 405.346 380.49C380.28 402.803 350.709 419.482 318.631 429.399C286.552 439.316 252.715 442.241 219.408 437.974C214.574 436.8 209.529 436.8 204.695 437.974C201.482 439.662 198.536 441.814 195.952 444.361C177.227 460.776 153.059 469.654 128.144 469.271C126.735 469.478 125.299 469.176 124.093 468.419C122.814 467.284 123.24 465.77 123.667 464.256C123.88 463.499 124.093 462.742 124.093 462.032C129.705 449.264 134.131 436.009 137.313 422.432C139.336 416.934 139.336 410.898 137.313 405.4C134.871 401.757 131.578 398.761 127.718 396.671C121.978 392.843 116.494 388.648 111.299 384.11C76.9181 354.563 53.7348 314.131 45.6238 269.568C41.6811 247.53 41.6811 224.968 45.6238 202.93C50.2618 181.04 59.174 160.277 71.8513 141.827C96.4617 103.257 132.661 73.4477 175.269 56.6657C206.255 45.3063 239.336 40.7758 272.241 43.385C305.146 45.9943 337.096 55.6815 365.898 71.7818C389.979 84.8431 411.149 102.657 428.121 124.141C445.093 145.625 457.512 170.33 464.624 196.756ZM320.638 205.832L373.786 205.408C379.519 205.408 384.167 200.659 384.167 194.802V182.71C384.339 179.789 383.321 176.924 381.356 174.796C379.39 172.667 376.651 171.462 373.786 171.467H288.459C282.726 171.467 278.079 176.216 278.079 182.074V309.351C278.079 315.208 282.726 319.957 288.459 319.957H373.786C379.519 319.957 384.167 315.208 384.167 309.351V297.259C384.167 291.401 379.519 286.653 373.786 286.653H320.638C304.86 286.653 305.068 256.319 320.638 256.319H351.572C357.385 256.319 372.333 256.319 372.333 251.015C372.983 247.012 372.983 242.927 372.333 238.924C372.333 233.685 362.203 234.197 355.378 234.541C353.913 234.615 352.6 234.682 351.572 234.682H320.846C306.521 235.106 306.521 206.044 320.638 205.832ZM228.46 243.804C243.62 240.047 254.005 225.78 253.165 209.864C252.923 199.097 248.315 188.918 240.441 181.758C232.568 174.598 222.138 171.102 211.644 172.105H138.565C132.832 172.105 128.185 176.854 128.185 182.712V309.988C128.185 315.846 132.832 320.595 138.565 320.595H212.889C223.904 321.753 234.876 318.024 243.017 310.355C251.159 302.685 255.686 291.814 255.449 280.502C256.475 263.163 245.045 247.621 228.46 243.804Z"/>
</g>
</g>
</svg>
