<svg xmlns="http://www.w3.org/2000/svg" xmlns:xlink="http://www.w3.org/1999/xlink" viewBox="0 0 24 24">
  <path d="M10.26,9.86h1.3a.58.58,0,1,0,0-1.16H10.24a.48.48,0,0,0-.4.45.94.94,0,0,0,0,.18A.47.47,0,0,0,10.26,9.86Z" />
  <path d="M11.62,11.19H10.27a.46.46,0,0,0-.44.47,2.5,2.5,0,0,0,0,.28.47.47,0,0,0,.45.5h1.35a.62.62,0,0,0,.69-.63A.63.63,0,0,0,11.62,11.19Z" />
  <path d="M21,4H3A1,1,0,0,0,2,5V20.8a.5.5,0,0,0,.85.35L7,17H21a1,1,0,0,0,1-1V5A1,1,0,0,0,21,4ZM12.09,14H8.51a.5.5,0,0,1-.5-.5v-6a.5.5,0,0,1,.5-.5H12a1.83,1.83,0,0,1,2,1.78,1.56,1.56,0,0,1-1.19,1.6,1.67,1.67,0,0,1,1.33,1.71A1.86,1.86,0,0,1,12.09,14ZM20.14,8.1a.5.5,0,0,1-.5.5l-2.57,0c-.69,0-.69,1.37,0,1.37h1.49c.28,0,1-.1,1,.2a1.73,1.73,0,0,1,0,.57c0,.26-.72.25-1,.25H17.08c-.76,0-.76,1.42,0,1.43h2.57a.5.5,0,0,1,.5.5v.57a.5.5,0,0,1-.5.5H15.53a.5.5,0,0,1-.5-.5v-6a.5.5,0,0,1,.5-.5h4.12a.5.5,0,0,1,.5.5Z"
  />
</svg>
