<svg xmlns="http://www.w3.org/2000/svg" xmlns:xlink="http://www.w3.org/1999/xlink" viewBox="0 0 24 24">
  <path d="M8.42,9.85h1.3a.58.58,0,1,0,0-1.16H8.4a.47.47,0,0,0-.4.45.94.94,0,0,0,0,.18A.47.47,0,0,0,8.42,9.85Z" />
  <path d="M9.79,11.19H8.43a.46.46,0,0,0-.44.47,2.51,2.51,0,0,0,0,.28.47.47,0,0,0,.45.5H9.79a.62.62,0,0,0,.69-.63A.63.63,0,0,0,9.79,11.19Z" />
  <path d="M21,4H3A1,1,0,0,0,2,5V20.8a.5.5,0,0,0,.85.35L7,17H21a1,1,0,0,0,1-1V5A1,1,0,0,0,21,4ZM10.26,14H6.67a.5.5,0,0,1-.5-.5v-6a.5.5,0,0,1,.5-.5h3.46a1.83,1.83,0,0,1,2,1.78A1.56,1.56,0,0,1,11,10.41a1.67,1.67,0,0,1,1.33,1.71A1.86,1.86,0,0,1,10.26,14ZM18.51,8.1a.5.5,0,0,1-.5.5l-2.57,0c-.69,0-.69,1.37,0,1.37h1.49c.28,0,1-.1,1,.2a1.74,1.74,0,0,1,0,.57c0,.26-.72.25-1,.25H15.45c-.76,0-.76,1.42,0,1.43H18a.5.5,0,0,1,.5.5v.57a.5.5,0,0,1-.5.5H13.89a.5.5,0,0,1-.5-.5v-6a.5.5,0,0,1,.5-.5H18a.5.5,0,0,1,.5.5Z"
  />
</svg>
