<svg xmlns="http://www.w3.org/2000/svg" xmlns:xlink="http://www.w3.org/1999/xlink" viewBox="0 0 24 24">
    <path d="M10.58,5.37H9.52c-.06,0-.12,0-.12-.11V4.95a.18.18,0,0,1,.19-.18h2c.08,0,.27,0,.28-.17V3.94c0-.14-.07-.22-.2-.22h-3a.5.5,0,0,0-.5.5V7.89a.5.5,0,0,0,.5.5h1.88a1.47,1.47,0,0,0,1.58-1.51A1.46,1.46,0,0,0,10.58,5.37ZM9.4,7.18V6.61c0-.13,0-.18.17-.19,1,0,1.37-.1,1.36.46,0,.4-.23.41-1.42.41C9.4,7.29,9.4,7.21,9.4,7.18Z"
    />
    <path d="M13.87,4.77h1.87c.11,0,.18,0,.21-.1V3.92a.23.23,0,0,0-.21-.2H13a.5.5,0,0,0-.5.5V7.89a.5.5,0,0,0,.5.5H16V7.34H13.87c-.1,0-.16,0-.14-.14V6.71c0-.13.05-.16.13-.16h1.82c.16,0,.22-.07.23-.18V5.61c0-.08-.11-.11-.2-.12H13.88c-.07,0-.14,0-.15-.12V4.92C13.73,4.84,13.74,4.76,13.87,4.77Z"
    />
    <path d="M20,3.65H17.48a.5.5,0,0,0-.5.44L16.75,6c-.13,1.06-.42,1.33-.85,1.33l0,1.05c1,0,1.79-.4,2-2.29l.15-1.22c0-.12.06-.19.18-.19h.86c.1,0,.17.06.18.19V8.15c0,.15.1.17.18.16h.85c.1,0,.18,0,.17-.18v-4A.5.5,0,0,0,20,3.65Z" />
    <path d="M9.36,16.94,6.84,7.12a.42.42,0,0,0-.41-.33A.43.43,0,0,0,6,7.21l-.32,6.48L5.37,7.21a.43.43,0,0,0-.43-.42.42.42,0,0,0-.41.33L2,16.94a.73.73,0,0,0,.2.73,8.24,8.24,0,0,1,2,4.31h3a8.24,8.24,0,0,1,2-4.31A.73.73,0,0,0,9.36,16.94Zm-3.67-.8a1,1,0,1,1,1-1A1,1,0,0,1,5.69,16.14Z"
    />
</svg>
