<svg xmlns="http://www.w3.org/2000/svg" xmlns:xlink="http://www.w3.org/1999/xlink" viewBox="0 0 24 24">
  <path d="M20.93,3.22l-.07,0h0S11.59,2,7.63,5.81s-1.16,7.4-1.27,8.95c-.1,1.38-2,4.1-3,5.22a.59.59,0,0,0-.07.84.65.65,0,0,0,.83,0c1.24-.83,4-2.87,5.27-3.06,1.53-.22,5.26,2.6,8.95-1.27S20.93,3.22,20.93,3.22Zm-1.81,7.6a6.71,6.71,0,0,1-4.72.11,40.11,40.11,0,0,1-3.18,2.93,11.78,11.78,0,0,1,6.68-.11c.23.05.2.23.06.26a9.36,9.36,0,0,1-6.82-.08,37.82,37.82,0,0,1-3.23,2.39.13.13,0,0,1-.2-.17,30.92,30.92,0,0,1,2.43-3.3,10.15,10.15,0,0,1-.06-7c0-.12.16-.17.21,0a9.45,9.45,0,0,1-.09,6.91,37.29,37.29,0,0,1,2.95-3.1,5.91,5.91,0,0,1,.08-4.6.1.1,0,0,1,.2,0,6.66,6.66,0,0,1-.22,4.58,39.41,39.41,0,0,1,5.17-4.1c.18-.06.25,0,.19.18a32.71,32.71,0,0,1-4.1,5.13,6.26,6.26,0,0,1,4.63-.21C19.25,10.67,19.28,10.74,19.13,10.81Z"
  />
</svg>
