<svg xmlns="http://www.w3.org/2000/svg" xmlns:xlink="http://www.w3.org/1999/xlink" viewBox="0 0 24 24">
  <defs>
    <style>
      .b {
        fill: #020a1a;
      }
    </style>
  </defs>
  <title>biology_mono</title>
  <path class="b" d="M22.1,3,22,3h0S11.53,1.7,7,6,5.72,14.36,5.59,16.11C5.47,17.68,3.31,20.76,2.14,22a.67.67,0,0,0-.08,1A.73.73,0,0,0,3,23C4.41,22,7.48,19.7,9,19.48c1.74-.25,6,2.95,10.13-1.44S22.1,3,22.1,3Zm-2.28,8.75a7.5,7.5,0,0,1-5.27.13A44.81,44.81,0,0,1,11,15.2a13.18,13.18,0,0,1,7.47-.12c.26.06.23.26.07.29a10.47,10.47,0,0,1-7.63-.09A42.21,42.21,0,0,1,7.3,18a.15.15,0,0,1-.22-.19,34.66,34.66,0,0,1,2.72-3.69,11.35,11.35,0,0,1-.07-7.81c0-.14.18-.19.23,0A10.57,10.57,0,0,1,9.86,14a41.65,41.65,0,0,1,3.29-3.47,6.61,6.61,0,0,1,.09-5.15.11.11,0,0,1,.22,0,7.44,7.44,0,0,1-.25,5.12A44,44,0,0,1,19,5.9c.2-.07.28,0,.21.2a36.62,36.62,0,0,1-4.58,5.74,7,7,0,0,1,5.18-.23C20,11.63,20,11.71,19.83,11.79Z"
  />
</svg>
