<svg viewBox="0 0 512 512" xmlns="http://www.w3.org/2000/svg">
<g id="mono_business">
<path id="Vector" fill-rule="evenodd" clip-rule="evenodd" d="M128 170.667C128 136.719 141.486 104.162 165.49 80.1573C189.495 56.1527 222.052 42.667 256 42.667C289.948 42.667 322.505 56.1527 346.51 80.1573C370.514 104.162 384 136.719 384 170.667H424.192C437.341 170.667 448 180.931 448 193.593V425.074C448 437.736 437.341 448 424.192 448H87.808C74.6592 448 64 437.736 64 425.074V193.593C64 180.931 74.6592 170.667 87.808 170.667H128ZM316.34 110.327C332.343 126.33 341.333 148.035 341.333 170.667H170.667C170.667 148.035 179.657 126.33 195.66 110.327C211.663 94.3241 233.368 85.3337 256 85.3337C278.632 85.3337 300.337 94.3241 316.34 110.327Z"/>
</g>
</svg>
