<svg xmlns="http://www.w3.org/2000/svg" xmlns:xlink="http://www.w3.org/1999/xlink" viewBox="0 0 24 24">
  <title>catala</title>
  <path d="M15.93,8.86c-.24,0-.67,2-.67,2a.5.5,0,0,0,.47.66h.38a.5.5,0,0,0,.47-.66S16.17,8.86,15.93,8.86Z" />
  <path d="M21,4H3A1,1,0,0,0,2,5V20.79a.5.5,0,0,0,.85.35L7,17H21a1,1,0,0,0,1-1V5A1,1,0,0,0,21,4ZM9.07,12.59a1.66,1.66,0,0,0,1.3-.67.5.5,0,0,1,.61-.15l.64.3a.5.5,0,0,1,.2.73A3.21,3.21,0,0,1,9,14.19,3.74,3.74,0,0,1,5.3,10.43,3.56,3.56,0,0,1,9.07,7a3.18,3.18,0,0,1,2.75,1.38.5.5,0,0,1-.21.73l-.64.3a.5.5,0,0,1-.61-.15,1.66,1.66,0,0,0-1.3-.67,1.93,1.93,0,0,0-1.95,2A1.93,1.93,0,0,0,9.07,12.59ZM19,14.06h-.91a.67.67,0,0,1-.56-.45c-.09-.23-.19-.56-.19-.56H14.56l-.2.58a.61.61,0,0,1-.52.42h-.95a.5.5,0,0,1-.47-.68l2.25-6a.5.5,0,0,1,.47-.32h1.57a.5.5,0,0,1,.47.32l2.26,6A.5.5,0,0,1,19,14.06Z"
  />
</svg>
