<svg viewBox="0 0 512 512" xmlns="http://www.w3.org/2000/svg">
<g id="mono_catala">
<g id="Vector">
<path d="M328.663 265.043H320.873C317.584 265.019 314.507 263.39 312.599 260.664C310.692 257.939 310.185 254.447 311.238 251.277C311.238 251.277 320.053 209.561 324.973 209.561C329.893 209.561 338.708 251.277 338.708 251.277C339.786 254.518 339.233 258.09 337.228 260.837C335.224 263.584 332.023 265.155 328.663 265.043Z"/>
<path fill-rule="evenodd" clip-rule="evenodd" d="M464.624 196.756C467.948 210.7 469.523 225.003 469.315 239.336C468.704 265.95 462.723 292.167 451.732 316.42C440.741 340.673 424.964 362.464 405.346 380.49C380.28 402.803 350.709 419.482 318.631 429.399C286.552 439.316 252.715 442.241 219.408 437.974C214.574 436.8 209.529 436.8 204.695 437.974C201.482 439.662 198.536 441.814 195.952 444.361C177.227 460.776 153.059 469.654 128.144 469.271C126.735 469.478 125.299 469.176 124.093 468.419C122.814 467.284 123.24 465.77 123.667 464.256C123.88 463.499 124.093 462.742 124.093 462.032C129.705 449.264 134.131 436.009 137.313 422.432C139.336 416.934 139.336 410.898 137.313 405.4C134.871 401.757 131.578 398.761 127.718 396.671C121.978 392.843 116.494 388.648 111.299 384.11C76.9181 354.563 53.7348 314.131 45.6238 269.568C41.6811 247.53 41.6811 224.968 45.6238 202.93C50.2618 181.04 59.174 160.277 71.8513 141.827C96.4617 103.257 132.661 73.4477 175.269 56.6657C206.255 45.3063 239.336 40.7758 272.241 43.385C305.146 45.9943 337.096 55.6815 365.898 71.7818C389.979 84.8431 411.149 102.657 428.121 124.141C445.093 145.625 457.512 170.33 464.624 196.756ZM130.676 190.798C116.126 204.267 107.536 223.141 106.853 243.142C106.625 286.064 140.519 321.11 182.703 321.569C205.552 322.75 227.365 311.772 240.308 292.576C241.968 290.059 242.47 286.932 241.683 284.008C240.896 281.084 238.897 278.654 236.208 277.35L223.088 271.092C218.715 269.008 213.507 270.311 210.583 274.221C204.304 282.824 194.463 287.985 183.933 288.196C173.115 288.317 162.72 283.926 155.168 276.045C147.616 268.164 143.565 257.48 143.958 246.48C143.565 235.48 147.616 224.796 155.168 216.915C162.72 209.033 173.115 204.642 183.933 204.764C194.463 204.975 204.304 210.135 210.583 218.739C213.507 222.648 218.715 223.951 223.088 221.867L236.208 215.61C238.932 214.346 240.976 211.932 241.804 209.005C242.632 206.077 242.16 202.927 240.513 200.384C227.838 181.562 206.544 170.69 184.138 171.6C164.502 170.407 145.225 177.329 130.676 190.798ZM350.393 179.526L396.723 304.674C397.995 307.815 397.684 311.39 395.888 314.254C394.093 317.119 391.039 318.914 387.703 319.066H368.433C363.142 318.465 358.668 314.808 356.953 309.679C355.108 304.674 353.058 297.999 353.058 297.999H296.683L292.583 310.097C291.058 314.914 286.872 318.354 281.923 318.857H262.448C259.056 318.881 255.872 317.197 253.944 314.358C252.015 311.519 251.592 307.893 252.813 304.674L298.938 179.526C300.473 175.478 304.309 172.82 308.573 172.851H340.758C345.021 172.82 348.858 175.478 350.393 179.526Z"/>
</g>
</g>
</svg>
