<svg viewBox="0 0 512 512" xmlns="http://www.w3.org/2000/svg">
<g id="mono_chemistry">
<path id="Vector" fill-rule="evenodd" clip-rule="evenodd" d="M332.782 164.273L339.182 167.9C364.313 183.638 384.795 205.791 398.519 232.076C412.242 258.361 418.712 287.83 417.262 317.446C414.967 347.13 404.751 375.654 387.677 400.044C370.604 424.434 347.3 443.797 320.196 456.113C299.956 464.742 278.197 469.239 256.196 469.34C234.198 469.199 212.447 464.704 192.196 456.113C164.981 443.839 141.57 424.469 124.416 400.034C107.263 375.599 96.9997 346.999 94.7022 317.233C93.3788 287.569 99.9966 258.09 113.872 231.838C127.748 205.587 148.379 183.514 173.636 167.9L180.036 164.273C188.125 160.293 195.369 154.788 201.369 148.06C202.416 146.721 203.344 145.293 204.142 143.793C206.298 137.563 207.098 130.944 206.489 124.38C206.966 114.984 204.177 105.713 198.596 98.1397L195.822 95.1531C192.413 92.468 189.73 88.9731 188.016 84.9864C186.302 80.9997 185.612 76.6477 186.009 72.3264C186.409 70.0089 187.611 67.9058 189.405 66.385C191.199 64.8641 193.47 64.0221 195.822 64.0064H316.569C318.993 63.9197 321.367 64.7149 323.25 66.2448C325.133 67.7747 326.397 69.9354 326.809 72.3264C327.206 76.6477 326.516 80.9997 324.802 84.9864C323.088 88.9731 320.405 92.468 316.996 95.1531L314.435 97.9264C308.731 105.529 305.863 114.886 306.329 124.38C305.701 131.031 306.576 137.739 308.889 144.006C309.587 145.449 310.446 146.809 311.449 148.06C317.449 154.788 324.693 160.293 332.782 164.273ZM207.555 423.046C222.924 429.641 239.471 433.052 256.195 433.073C273.13 433.085 289.892 429.675 305.475 423.046C326.341 413.644 344.266 398.759 357.339 379.974C370.413 361.19 378.146 339.211 379.715 316.379C380.255 308.347 373.462 302.086 365.411 302.086H147.833C139.782 302.086 132.989 308.347 133.529 316.379C135.234 339.145 142.998 361.04 156.014 379.795C169.03 398.55 186.825 413.483 207.555 423.046Z"/>
</g>
</svg>
