<svg xmlns="http://www.w3.org/2000/svg" xmlns:xlink="http://www.w3.org/1999/xlink" viewBox="0 0 24 24">
  <defs>
    <style>
      .b {
        fill: #020a1a;
      }
    </style>
  </defs>
  <title>chinese_mono</title>
  <path class="b" d="M21,4H3A1,1,0,0,0,2,5V20.79a.5.5,0,0,0,.85.35L7,17H21a1,1,0,0,0,1-1V5A1,1,0,0,0,21,4Zm-8.82,9.56a.5.5,0,0,1-.5.5H7.26a.5.5,0,0,1-.5-.5v-.77a.5.5,0,0,1,.1-.3L9.43,9a.25.25,0,0,0-.2-.4h-2a.5.5,0,0,1-.5-.5V7.58a.5.5,0,0,1,.5-.5h4.35a.5.5,0,0,1,.5.5v.77a.5.5,0,0,1-.1.3L9.42,12.09a.25.25,0,0,0,.2.4h2.06a.5.5,0,0,1,.5.5Zm7.63,0a.5.5,0,0,1-.5.5h-.8a.5.5,0,0,1-.5-.5V11.5a.25.25,0,0,0-.25-.25h-2.4a.25.25,0,0,0-.25.25v2.06a.5.5,0,0,1-.5.5h-.8a.5.5,0,0,1-.5-.5v-6a.5.5,0,0,1,.5-.5h.8a.5.5,0,0,1,.5.5V9.43a.25.25,0,0,0,.25.25h2.4A.25.25,0,0,0,18,9.43V7.58a.5.5,0,0,1,.5-.5h.8a.5.5,0,0,1,.5.5Z"
  />
</svg>
