<svg viewBox="0 0 512 512" xmlns="http://www.w3.org/2000/svg">
<g id="mono_chinese">
<path id="Vector" fill-rule="evenodd" clip-rule="evenodd" d="M464.624 196.756C467.948 210.7 469.523 225.003 469.315 239.336C468.704 265.95 462.723 292.167 451.732 316.42C440.741 340.673 424.964 362.464 405.346 380.49C380.28 402.803 350.709 419.482 318.631 429.399C286.552 439.316 252.715 442.241 219.408 437.974C214.574 436.8 209.529 436.8 204.695 437.974C201.482 439.662 198.536 441.814 195.952 444.361C177.227 460.776 153.059 469.654 128.144 469.271C126.735 469.478 125.299 469.176 124.093 468.419C122.814 467.284 123.24 465.77 123.667 464.256C123.88 463.499 124.093 462.742 124.093 462.032C129.705 449.264 134.131 436.009 137.313 422.432C139.336 416.934 139.336 410.898 137.313 405.4C134.871 401.757 131.578 398.761 127.718 396.671C121.978 392.843 116.494 388.648 111.299 384.11C76.9181 354.563 53.7348 314.131 45.6238 269.568C41.6811 247.53 41.6811 224.968 45.6238 202.93C50.2618 181.04 59.174 160.277 71.8513 141.827C96.4617 103.257 132.661 73.4477 175.269 56.6657C206.255 45.3063 239.336 40.7758 272.241 43.385C305.146 45.9943 337.096 55.6815 365.898 71.7818C389.979 84.8431 411.149 102.657 428.121 124.141C445.093 145.625 457.512 170.33 464.624 196.756ZM351.843 260.599H302.687C299.859 260.599 297.567 262.98 297.567 265.918V309.739C297.567 315.613 292.982 320.375 287.326 320.375H270.941C265.285 320.375 260.7 315.613 260.7 309.739V182.104C260.7 176.229 265.285 171.467 270.941 171.467H287.326C292.982 171.467 297.567 176.229 297.567 182.104V221.883C297.567 224.821 299.859 227.202 302.687 227.202H351.843C354.671 227.202 356.963 224.821 356.963 221.883V182.529C356.963 176.655 361.548 171.893 367.204 171.893H383.589C389.245 171.893 393.83 176.655 393.83 182.529V310.165C393.83 316.039 389.245 320.801 383.589 320.801H367.204C361.548 320.801 356.963 316.039 356.963 310.165V265.918C356.963 262.98 354.671 260.599 351.843 260.599ZM130.848 286.978L183.485 212.736C184.649 211.125 184.836 208.969 183.968 207.167C183.101 205.366 181.328 204.227 179.389 204.227H138.426C132.77 204.227 128.185 199.465 128.185 193.591V182.529C128.185 176.655 132.77 171.893 138.426 171.893H227.52C233.176 171.893 237.761 176.655 237.761 182.529V198.909C237.761 201.211 237.042 203.45 235.713 205.291L183.28 278.469C182.116 280.08 181.929 282.236 182.797 284.038C183.664 285.84 185.437 286.978 187.376 286.978H229.568C235.224 286.978 239.809 291.74 239.809 297.614V309.739C239.809 315.614 235.224 320.376 229.568 320.376H139.04C133.384 320.376 128.799 315.614 128.799 309.739V293.359C128.799 291.058 129.518 288.819 130.848 286.978Z"/>
</g>
</svg>
