<svg xmlns="http://www.w3.org/2000/svg" xmlns:xlink="http://www.w3.org/1999/xlink" viewBox="0 0 24 24">
  <title>egzam</title>
  <path d="M2.73,6.2l7.76-3.88a1,1,0,0,1,.89,0l9,4.5a1,1,0,0,1,.55.9l0,7.38-2,1V8.91a.5.5,0,0,0-.72-.45l-6.83,3.42a1,1,0,0,1-.89,0L2.73,8A1,1,0,0,1,2.73,6.2Z" />
  <path d="M4.21,10.57" />
  <path d="M16.56,10.38l-5.11,2.53a1,1,0,0,1-.89,0L5.45,10.38a1,1,0,0,0-1.44.9v.79a1,1,0,0,0,.56.9l6,2.94a1,1,0,0,0,.89,0l6-3A1,1,0,0,0,18,12v-.76A1,1,0,0,0,16.56,10.38Z" />
  <path d="M19,17.1l2-1s0,1.28,0,2.74c0,.84-.4,1.26-1,1.26a1,1,0,0,1-1,1Z" />
</svg>
