<svg xmlns="http://www.w3.org/2000/svg" xmlns:xlink="http://www.w3.org/1999/xlink" viewBox="0 0 24 24">
  <defs>
    <style>
      .b {
        fill: #020a1a;
      }
    </style>
  </defs>
  <title>english_mono</title>
  <path class="b" d="M21,4H3A1,1,0,0,0,2,5V20.79a.5.5,0,0,0,.85.35L7,17H21a1,1,0,0,0,1-1V5A1,1,0,0,0,21,4ZM12.13,8.15a.5.5,0,0,1-.5.5l-2.57,0c-.69,0-.69,1.37,0,1.37h1.49c.28,0,1-.1,1,.2a1.73,1.73,0,0,1,0,.57c0,.26-.72.25-1,.25H9.07c-.76,0-.76,1.42,0,1.43h2.57a.5.5,0,0,1,.5.5v.57a.5.5,0,0,1-.5.5H7.52a.5.5,0,0,1-.5-.5v-6a.5.5,0,0,1,.5-.5h4.12a.5.5,0,0,1,.5.5Zm7.67,5.37a.5.5,0,0,1-.5.5h-1a.5.5,0,0,1-.4-.21l-2.35-3.22a.25.25,0,0,0-.45.15v2.77a.5.5,0,0,1-.5.5h-.8a.5.5,0,0,1-.5-.5v-6a.5.5,0,0,1,.5-.5h1.1a.5.5,0,0,1,.4.2l2.23,3a.25.25,0,0,0,.45-.15V7.53a.5.5,0,0,1,.5-.5h.81a.5.5,0,0,1,.5.5Z"
  />
</svg>
