<svg xmlns="http://www.w3.org/2000/svg" xmlns:xlink="http://www.w3.org/1999/xlink" viewBox="0 0 24 24">
  <title>english</title>
  <path d="M21,4H3A1,1,0,0,0,2,5V20.79a.5.5,0,0,0,.85.35L7,17H21a1,1,0,0,0,1-1V5A1,1,0,0,0,21,4ZM10.91,8.15a.5.5,0,0,1-.5.5l-2.57,0c-.69,0-.69,1.37,0,1.37H9.34c.28,0,1-.1,1,.2a1.75,1.75,0,0,1,0,.57c0,.26-.72.25-1,.25H7.85c-.76,0-.76,1.42,0,1.43h2.57a.5.5,0,0,1,.5.5v.57a.5.5,0,0,1-.5.5H6.29a.5.5,0,0,1-.5-.5v-6a.5.5,0,0,1,.5-.5h4.12a.5.5,0,0,1,.5.5Zm7.67,5.37a.5.5,0,0,1-.5.5h-1a.5.5,0,0,1-.4-.2l-2.35-3.22a.25.25,0,0,0-.45.15v2.77a.5.5,0,0,1-.5.5h-.8a.5.5,0,0,1-.5-.5v-6a.5.5,0,0,1,.5-.5h1.1a.5.5,0,0,1,.4.2l2.22,3a.25.25,0,0,0,.45-.15V7.53a.5.5,0,0,1,.5-.5h.81a.5.5,0,0,1,.5.5Z"
  />
</svg>
