<svg xmlns="http://www.w3.org/2000/svg" xmlns:xlink="http://www.w3.org/1999/xlink" viewBox="0 0 24 24">
  <defs>
    <style>
      .b {
        fill: #020a1a;
      }
    </style>
  </defs>
  <title>entrepreneurship_mono</title>
  <path class="b" d="M12,2" />
  <rect class="b" x="7.03" y="16.31" width="10" height="1.69" rx="0.84" ry="0.84" />
  <path class="b" d="M12,2a8,8,0,1,0,8,8A8,8,0,0,0,12,2Zm.52,4.21,1.06-1.06,1.06,1.06a1.5,1.5,0,1,1-2.12,0Zm-3.15,0,1.06-1.06,1.06,1.06a1.5,1.5,0,1,1-2.12,0ZM6.46,9.57a1.5,1.5,0,0,1,0-2.12L7.52,6.39,8.58,7.45A1.5,1.5,0,0,1,6.46,9.57ZM15.61,12l-1.23,4.31H13.3L14.57,12a.5.5,0,0,0-.28-.6A5.88,5.88,0,0,0,12.09,11a6,6,0,0,0-2.21.42.51.51,0,0,0-.28.61l1.3,4.29H9.81L8.56,12A1,1,0,0,1,9,10.69a7,7,0,0,1,6.13,0A1,1,0,0,1,15.61,12Zm2-2.43a1.5,1.5,0,1,1-2.12-2.12l1.06-1.06L17.6,7.45A1.5,1.5,0,0,1,17.6,9.57Z"
  />
  <rect class="b" x="8.96" y="19" width="6.08" height="2" rx="1" ry="1" />
</svg>
