<svg viewBox="0 0 512 512" xmlns="http://www.w3.org/2000/svg">
<path d="M419.922 426.454C450.183 402.561 469.362 374.827 469.362 317.227C469.362 196.907 292.058 66.3473 260.732 44.1606C259.383 43.2341 257.786 42.7383 256.15 42.7383C254.514 42.7383 252.917 43.2341 251.568 44.1606C220.455 66.3473 43.1514 196.907 43.1514 317.227C41.3335 338.225 44.9698 359.337 53.7073 378.512C62.4448 397.688 75.9866 414.277 93.018 426.667C115.029 442.968 142.392 450.314 169.597 447.226C196.785 444.141 221.798 430.863 239.603 410.065H239.539L159.965 318.118C157.237 314.874 155.888 310.69 156.207 306.463C156.526 302.236 158.488 298.303 161.672 295.505C163.267 294.127 165.118 293.079 167.119 292.419C169.12 291.759 171.232 291.501 173.333 291.66C175.434 291.818 177.484 292.39 179.363 293.343C181.243 294.296 182.915 295.61 184.285 297.211L240.819 362.918V311.505C239.539 311.291 239.539 310.011 239.539 310.011L179.165 240.038C176.336 236.813 174.904 232.596 175.185 228.315C175.465 224.034 177.434 220.04 180.659 217.211C183.884 214.382 188.101 212.95 192.381 213.23C196.662 213.51 200.656 215.48 203.485 218.705L240.819 261.371V188.198C240.819 183.954 242.504 179.885 245.505 176.884C248.506 173.884 252.575 172.198 256.819 172.198C261.062 172.198 265.132 173.884 268.132 176.884C271.133 179.885 272.819 183.954 272.819 188.198V260.305L310.152 217.638C311.553 216.055 313.252 214.764 315.152 213.837C317.051 212.911 319.115 212.368 321.225 212.239C323.335 212.11 325.449 212.398 327.448 213.087C329.446 213.775 331.289 214.85 332.872 216.251C334.455 217.652 335.746 219.351 336.673 221.251C337.599 223.151 338.142 225.214 338.271 227.324C338.4 229.434 338.112 231.548 337.423 233.547C336.735 235.545 335.66 237.388 334.259 238.971L273.885 308.945L272.819 310.225V362.918L329.139 297.211C330.509 295.61 332.182 294.296 334.061 293.343C335.941 292.39 337.99 291.818 340.091 291.66C342.192 291.501 344.304 291.759 346.305 292.419C348.306 293.079 350.157 294.127 351.752 295.505C354.936 298.303 356.898 302.236 357.217 306.463C357.536 310.69 356.187 314.874 353.459 318.118L272.851 410.027H272.879C317.844 454.187 373.465 460.161 419.922 426.454Z" fill="#323C45"/>
</svg>
