<svg xmlns="http://www.w3.org/2000/svg" xmlns:xlink="http://www.w3.org/1999/xlink" viewBox="0 0 24 24">
  <title>environment</title>
  <path d="M8.16,21.5a4,4,0,0,0-2,.4A1,1,0,0,1,5,21.76l-.45-.43a1,1,0,0,1,.13-1.55l1.47-1A6.89,6.89,0,0,1,8.6,17.66c.63-.11,4.27.09,4.27.09,1.55,0,1.25,1.25.39,1.27l-2.16.14a9.82,9.82,0,0,0,5.31-.2.77.77,0,0,1,.41,1.44,8.64,8.64,0,0,1-4.45,1.51Z"
  />
  <path d="M15,2c-2.88.45-5.12,3.64-5.12,7.5S12.12,16.55,15,17c2.88-.45,5.12-3.64,5.12-7.5S17.89,2.44,15,2ZM13.8,3.62l1.2,1,1.2-1c.13-.06.19,0,.15.17L15,7.7,13.65,3.79C13.61,3.64,13.67,3.56,13.8,3.62Zm-1,2,2.19,2.1a.19.19,0,0,1,.06.14.19.19,0,0,1,.06-.14l2.19-2.1a.19.19,0,0,1,.3.21L15,11.41,12.45,5.83A.19.19,0,0,1,12.75,5.62ZM15,15.86,11.19,9.44a.19.19,0,0,1,.26-.25l3.47,2.23a.19.19,0,0,1,.09.16.19.19,0,0,1,.09-.16l3.47-2.23a.19.19,0,0,1,.26.25Z"
  />
</svg>
