<svg viewBox="0 0 512 512" xmlns="http://www.w3.org/2000/svg">
<g id="mono_environment">
<path id="Vector" d="M419.922 447.787C450.183 423.894 469.362 396.16 469.362 338.56C469.362 218.24 292.058 87.6803 260.732 65.4936C259.383 64.5672 257.786 64.0713 256.15 64.0713C254.514 64.0713 252.917 64.5672 251.568 65.4936C220.455 87.6803 43.1514 218.24 43.1514 338.56C41.3335 359.558 44.9698 380.67 53.7073 399.845C62.4448 419.021 75.9866 435.61 93.018 448C115.029 464.301 142.392 471.647 169.597 468.559C196.785 465.474 221.798 452.196 239.603 431.398H239.539L159.965 339.451C157.237 336.207 155.888 332.023 156.207 327.796C156.526 323.569 158.488 319.636 161.672 316.838C163.267 315.46 165.118 314.412 167.119 313.752C169.12 313.092 171.232 312.834 173.333 312.993C175.434 313.151 177.484 313.723 179.363 314.676C181.243 315.629 182.915 316.943 184.285 318.544L240.819 384.251V332.838C239.539 332.624 239.539 331.344 239.539 331.344L179.165 261.371C176.336 258.146 174.904 253.929 175.185 249.648C175.465 245.367 177.434 241.373 180.659 238.544C183.884 235.715 188.101 234.283 192.381 234.563C196.662 234.843 200.656 236.813 203.485 240.038L240.819 282.704V209.531C240.819 205.287 242.504 201.218 245.505 198.217C248.506 195.217 252.575 193.531 256.819 193.531C261.062 193.531 265.132 195.217 268.132 198.217C271.133 201.218 272.819 205.287 272.819 209.531V281.638L310.152 238.971C311.553 237.388 313.252 236.097 315.152 235.17C317.051 234.244 319.115 233.701 321.225 233.572C323.335 233.443 325.449 233.731 327.448 234.42C329.446 235.108 331.289 236.183 332.872 237.584C334.455 238.985 335.746 240.684 336.673 242.584C337.599 244.484 338.142 246.547 338.271 248.657C338.4 250.767 338.112 252.881 337.423 254.88C336.735 256.878 335.66 258.721 334.259 260.304L273.885 330.278L272.819 331.558V384.251L329.139 318.544C330.509 316.943 332.182 315.629 334.061 314.676C335.941 313.723 337.99 313.151 340.091 312.993C342.192 312.834 344.304 313.092 346.305 313.752C348.306 314.412 350.157 315.46 351.752 316.838C354.936 319.636 356.898 323.569 357.217 327.796C357.536 332.023 356.187 336.207 353.459 339.451L272.851 431.36H272.879C317.844 475.52 373.465 481.494 419.922 447.787Z"/>
</g>
</svg>
