<svg xmlns="http://www.w3.org/2000/svg" xmlns:xlink="http://www.w3.org/1999/xlink" viewBox="0 0 24 24">
  <path d="M11.91,12H9.52a.49.49,0,0,1-.5-.49A11.06,11.06,0,0,1,12.1,4,7.66,7.66,0,0,1,13,3.09,4.29,4.29,0,0,0,9.92,2C6.33,2,1.57,5.92,2,10.89H2l0,3.64C2,18.67,2,21.88,6.69,22c4.13-.12,5.15-3.81,5.21-6.66C11.9,15.32,11.91,12,11.91,12ZM7,8A1,1,0,1,1,8,7,1,1,0,0,1,7,8Z"
  />
  <circle cx="14.04" cy="9" r="0.98" />
  <path d="M22,10.93c0-3.52,0-6.63-2.13-8.06C21.6,5,21,7.08,21,9.92h0l-.08,6.48c-.07,1.39-.25,3.41-2.13,4.31a5.59,5.59,0,0,1-5.39-.64c1.3,1.69,3.17,2.32,5.68,1.68,1.66-.45,2.78-1.82,2.82-4.88.06-1.06.09-5.94.09-5.94Z" />
</svg>
