<svg viewBox="0 0 512 512" xmlns="http://www.w3.org/2000/svg">
<g id="mono_euskara">
<path id="Vector" fill-rule="evenodd" clip-rule="evenodd" d="M464.624 196.756C467.948 210.7 469.523 225.003 469.315 239.336C468.704 265.95 462.723 292.167 451.732 316.42C440.741 340.673 424.964 362.464 405.346 380.49C380.28 402.803 350.709 419.482 318.631 429.399C286.552 439.316 252.715 442.241 219.408 437.974C214.574 436.8 209.529 436.8 204.695 437.974C201.482 439.662 198.536 441.814 195.952 444.361C177.227 460.776 153.059 469.654 128.144 469.271C126.735 469.478 125.299 469.176 124.093 468.419C122.814 467.284 123.24 465.77 123.667 464.256C123.88 463.499 124.093 462.742 124.093 462.032C129.705 449.264 134.131 436.009 137.313 422.432C139.336 416.934 139.336 410.898 137.313 405.4C134.871 401.757 131.578 398.761 127.718 396.671C121.978 392.843 116.494 388.648 111.299 384.11C76.9181 354.563 53.7348 314.131 45.6238 269.568C41.6811 247.53 41.6811 224.968 45.6238 202.93C50.2618 181.04 59.174 160.277 71.8513 141.827C96.4617 103.257 132.661 73.4477 175.269 56.6657C206.255 45.3063 239.336 40.7758 272.241 43.385C305.146 45.9943 337.096 55.6815 365.898 71.7818C389.979 84.8431 411.149 102.657 428.121 124.141C445.093 145.625 457.512 170.33 464.624 196.756ZM265.821 171.467H282.82C288.476 171.467 293.061 176.143 293.061 181.91V256.89C292.457 265.155 295.502 273.263 301.367 279C307.231 284.738 315.301 287.506 323.374 286.548C331.396 287.363 339.363 284.54 345.162 278.828C350.96 273.116 354.002 265.094 353.481 256.89V181.91C353.481 176.143 358.066 171.467 363.722 171.467H380.517C386.173 171.467 390.758 176.143 390.758 181.91V258.143C390.758 294.485 369.047 320.801 323.374 320.801C277.7 320.801 255.58 295.111 255.58 258.143V181.91C255.58 176.143 260.165 171.467 265.821 171.467ZM170.172 206.139H222.809C228.465 206.139 233.05 201.463 233.05 195.696V183.582C233.05 177.815 228.465 173.139 222.809 173.139H138.426C132.77 173.139 128.185 177.815 128.185 183.582V308.897C128.185 314.664 132.77 319.34 138.426 319.34H222.809C228.465 319.34 233.05 314.664 233.05 308.897V296.783C233.05 291.016 228.465 286.34 222.809 286.34H170.172C154.606 286.34 154.811 256.474 170.172 256.474H200.894C206.629 256.474 221.376 256.474 221.376 251.252C222.017 247.311 222.017 243.289 221.376 239.347C221.376 234.189 211.382 234.693 204.649 235.032C203.204 235.105 201.908 235.17 200.894 235.17H170.172C156.04 234.126 156.04 206.348 170.172 206.139Z"/>
</g>
</svg>
