<svg xmlns="http://www.w3.org/2000/svg" xmlns:xlink="http://www.w3.org/1999/xlink" viewBox="0 0 24 24">
  <title>euskara</title>
  <path d="M21,4H3A1,1,0,0,0,2,5V20.79a.5.5,0,0,0,.85.35L7,17H21a1,1,0,0,0,1-1V5A1,1,0,0,0,21,4ZM11.2,8.15a.5.5,0,0,1-.5.5l-2.57,0c-.69,0-.69,1.37,0,1.37H9.63c.28,0,1-.1,1,.2a1.74,1.74,0,0,1,0,.57c0,.26-.72.25-1,.25H8.14c-.76,0-.76,1.42,0,1.43H10.7a.5.5,0,0,1,.5.5v.57a.5.5,0,0,1-.5.5H6.58a.5.5,0,0,1-.5-.5v-6a.5.5,0,0,1,.5-.5H10.7a.5.5,0,0,1,.5.5Zm7.7,3c0,1.74-1.06,3-3.29,3s-3.31-1.24-3.31-3V7.5a.5.5,0,0,1,.5-.5h.83a.5.5,0,0,1,.5.5v3.59a1.33,1.33,0,0,0,1.48,1.42,1.34,1.34,0,0,0,1.47-1.42V7.5a.5.5,0,0,1,.5-.5h.82a.5.5,0,0,1,.5.5Z"
  />
</svg>
