<svg viewBox="0 0 512 512" xmlns="http://www.w3.org/2000/svg">
<g id="mono_first-aid">
<path id="Vector" fill-rule="evenodd" clip-rule="evenodd" d="M320 106.666C320 94.8843 329.551 85.333 341.333 85.333H362.667C374.449 85.333 384 94.8843 384 106.666V128H405.333C428.898 128 448 147.102 448 170.666V362.666C448 386.23 428.898 405.333 405.333 405.333H106.667C83.1025 405.333 64 386.23 64 362.666V170.666C64 147.102 83.1025 128 106.667 128H128V106.666C128 94.8843 137.551 85.333 149.333 85.333H170.667C182.449 85.333 192 94.8843 192 106.666V128H320V106.666ZM337.515 239.655C339.961 242.117 341.333 245.446 341.333 248.917V284.416C341.333 287.886 339.961 291.216 337.515 293.678C335.069 296.14 331.748 297.534 328.277 297.557H289.109C288.815 297.545 288.521 297.594 288.246 297.701C287.972 297.809 287.722 297.972 287.514 298.18C287.305 298.389 287.142 298.638 287.035 298.913C286.928 299.187 286.879 299.481 286.891 299.776V338.944C286.868 342.414 285.474 345.735 283.012 348.181C280.55 350.627 277.22 352 273.749 352H238.251C234.78 352 231.45 350.627 228.988 348.181C226.526 345.735 225.132 342.414 225.109 338.944V299.776C225.121 299.481 225.072 299.187 224.965 298.913C224.858 298.638 224.695 298.389 224.486 298.18C224.278 297.972 224.028 297.809 223.754 297.701C223.479 297.594 223.185 297.545 222.891 297.557H183.723C180.252 297.534 176.932 296.14 174.485 293.678C172.039 291.216 170.667 287.886 170.667 284.416V248.917C170.667 245.446 172.039 242.117 174.485 239.655C176.932 237.193 180.252 235.798 183.723 235.776H222.891C223.185 235.788 223.479 235.739 223.754 235.631C224.028 235.524 224.278 235.361 224.486 235.153C224.695 234.944 224.858 234.695 224.965 234.42C225.072 234.145 225.121 233.852 225.109 233.557V194.389C225.132 190.919 226.526 187.598 228.988 185.152C231.45 182.706 234.78 181.333 238.251 181.333H273.749C277.22 181.333 280.55 182.706 283.012 185.152C285.474 187.598 286.868 190.919 286.891 194.389V233.557C286.879 233.852 286.928 234.145 287.035 234.42C287.142 234.695 287.305 234.944 287.514 235.153C287.722 235.361 287.972 235.524 288.246 235.631C288.521 235.739 288.815 235.788 289.109 235.776H328.277C331.748 235.798 335.069 237.193 337.515 239.655Z"/>
</g>
</svg>
