<svg xmlns="http://www.w3.org/2000/svg" xmlns:xlink="http://www.w3.org/1999/xlink" viewBox="0 0 24 24">
  <title>french</title>
  <path d="M15.73,8.6H14.8a.5.5,0,0,0-.5.5v.5a.5.5,0,0,0,.5.5h.92a.76.76,0,1,0,0-1.5Z" />
  <path d="M21,4H3A1,1,0,0,0,2,5V20.8a.5.5,0,0,0,.85.35L7,17H21a1,1,0,0,0,1-1V5A1,1,0,0,0,21,4ZM11.45,8.1a.5.5,0,0,1-.5.5s-2.31,0-2.6,0-.45,1.08.13,1.07c.41,0,2.39,0,2.39,0a.5.5,0,0,1,.5.5v.57a.5.5,0,0,1-.5.5H8.64a.5.5,0,0,0-.5.5v1.75a.5.5,0,0,1-.5.5h-.8a.5.5,0,0,1-.5-.5v-6a.5.5,0,0,1,.5-.5H11a.5.5,0,0,1,.5.5Zm5.83,3.8L18,13.27a.5.5,0,0,1-.44.74h-.9a.5.5,0,0,1-.45-.28s-.68-1.33-.87-1.73-1.09-.47-1.09,0v1.48a.5.5,0,0,1-.5.5H13a.5.5,0,0,1-.5-.5v-6A.5.5,0,0,1,13,7h3a2.25,2.25,0,0,1,2.43,2.32,2.14,2.14,0,0,1-1,1.88A.51.51,0,0,0,17.28,11.9Z"
  />
</svg>
