<svg viewBox="0 0 512 512" xmlns="http://www.w3.org/2000/svg">
<g id="mono_french">
<g id="Vector">
<path d="M331.141 205.67H312.281C306.62 205.67 302.031 210.434 302.031 216.311V226.951C302.031 232.828 306.62 237.591 312.281 237.591H331.141C337.233 238.628 343.34 235.832 346.712 230.464C350.083 225.095 350.083 218.167 346.712 212.798C343.34 207.43 337.233 204.634 331.141 205.67Z"/>
<path fill-rule="evenodd" clip-rule="evenodd" d="M464.624 196.754C467.948 210.698 469.523 225.001 469.315 239.334C468.704 265.948 462.723 292.165 451.732 316.418C440.741 340.671 424.964 362.462 405.346 380.488C380.28 402.801 350.709 419.48 318.631 429.397C286.552 439.314 252.715 442.239 219.408 437.972C214.574 436.798 209.529 436.798 204.695 437.972C201.482 439.66 198.536 441.812 195.952 444.359C177.227 460.774 153.059 469.652 128.144 469.269C126.735 469.476 125.299 469.174 124.093 468.417C122.814 467.282 123.24 465.768 123.667 464.254C123.88 463.497 124.093 462.74 124.093 462.03C129.705 449.262 134.131 436.007 137.313 422.43C139.336 416.932 139.336 410.896 137.313 405.398C134.871 401.755 131.578 398.759 127.718 396.669C121.978 392.842 116.494 388.646 111.299 384.108C76.9181 354.562 53.7348 314.129 45.6238 269.566C41.6811 247.528 41.6811 224.966 45.6238 202.928C50.2618 181.038 59.174 160.275 71.8513 141.825C96.4617 103.255 132.661 73.4458 175.269 56.6638C206.255 45.3044 239.336 40.7739 272.241 43.3831C305.146 45.9923 337.096 55.6795 365.898 71.7798C389.979 84.8412 411.149 102.655 428.121 124.139C445.093 145.623 457.512 170.328 464.624 196.754ZM302.033 278.025C302.033 268.023 320.688 269.512 324.378 278.025C328.068 286.537 341.188 314.84 341.188 314.84C342.913 318.494 346.493 320.807 350.413 320.799H368.863C372.488 320.809 375.849 318.831 377.701 315.596C379.554 312.362 379.623 308.352 377.883 305.051L362.303 275.258C359.675 270.194 361.4 263.879 366.198 261C379.391 252.391 387.195 237.162 386.698 220.993C387.15 207.344 381.967 194.145 372.452 184.715C362.937 175.285 349.995 170.521 336.883 171.621H275.383C269.878 171.617 265.353 176.126 265.133 181.836V309.52C265.133 315.396 269.722 320.16 275.383 320.16H291.783C297.444 320.16 302.033 315.396 302.033 309.52V278.025ZM234.382 171.621H149.102C143.52 171.62 138.963 176.255 138.852 182.048V309.732C138.852 315.609 143.441 320.373 149.102 320.373H165.502C171.163 320.373 175.752 315.609 175.752 309.732V272.491C175.752 266.615 180.341 261.851 186.002 261.851H232.947C238.608 261.851 243.197 257.087 243.197 251.211V239.081C243.197 233.204 238.608 228.44 232.947 228.44H183.952C171.857 228.653 175.137 205.67 181.082 205.67H234.382C240.043 205.67 244.632 200.906 244.632 195.03V182.261C244.632 176.385 240.043 171.621 234.382 171.621Z"/>
</g>
</g>
</svg>
