<svg xmlns="http://www.w3.org/2000/svg" xmlns:xlink="http://www.w3.org/1999/xlink" viewBox="0 0 24 24">
  <defs>
    <style>
      .b {
        fill: #020a1a;
      }
    </style>
  </defs>
  <title>french_mono</title>
  <path class="b" d="M17.36,8.6h-.92a.5.5,0,0,0-.5.5v.5a.5.5,0,0,0,.5.5h.92a.76.76,0,1,0,0-1.5Z" />
  <path class="b" d="M21,4H3A1,1,0,0,0,2,5V20.8a.5.5,0,0,0,.85.35L7,17H21a1,1,0,0,0,1-1V5A1,1,0,0,0,21,4Zm-7.9,4.1a.5.5,0,0,1-.5.5s-2.31,0-2.6,0-.45,1.08.14,1.07c.4,0,2.39,0,2.39,0a.5.5,0,0,1,.5.5v.57a.5.5,0,0,1-.5.5H10.27a.5.5,0,0,0-.5.5v1.75a.5.5,0,0,1-.5.5h-.8a.5.5,0,0,1-.5-.5v-6a.5.5,0,0,1,.5-.5h4.12a.5.5,0,0,1,.5.5Zm5.83,3.8.76,1.37a.5.5,0,0,1-.44.74h-.9a.5.5,0,0,1-.45-.28S17.21,12.4,17,12s-1.09-.47-1.09,0v1.48a.5.5,0,0,1-.5.5h-.8a.5.5,0,0,1-.5-.5v-6a.5.5,0,0,1,.5-.5h3a2.25,2.25,0,0,1,2.43,2.32,2.14,2.14,0,0,1-1,1.88A.5.5,0,0,0,18.92,11.9Z"
  />
</svg>
