<svg viewBox="0 0 512 512" xmlns="http://www.w3.org/2000/svg">
<g id="mono_galego">
<path id="Vector" fill-rule="evenodd" clip-rule="evenodd" d="M464.624 196.756C467.948 210.7 469.523 225.003 469.315 239.336C468.704 265.95 462.723 292.167 451.732 316.42C440.741 340.673 424.964 362.464 405.346 380.49C380.28 402.803 350.709 419.482 318.631 429.399C286.552 439.316 252.715 442.241 219.408 437.974C214.574 436.8 209.529 436.8 204.695 437.974C201.482 439.662 198.536 441.814 195.952 444.361C177.227 460.776 153.059 469.654 128.144 469.271C126.735 469.478 125.299 469.176 124.093 468.419C122.814 467.284 123.24 465.77 123.667 464.256C123.88 463.499 124.093 462.742 124.093 462.032C129.705 449.264 134.131 436.009 137.313 422.432C139.336 416.934 139.336 410.898 137.313 405.4C134.871 401.757 131.578 398.761 127.718 396.671C121.978 392.843 116.494 388.648 111.299 384.11C76.9181 354.563 53.7348 314.131 45.6238 269.568C41.6811 247.53 41.6811 224.968 45.6238 202.93C50.2618 181.04 59.174 160.277 71.8513 141.827C96.4617 103.257 132.661 73.4477 175.269 56.6657C206.255 45.3063 239.336 40.7758 272.241 43.385C305.146 45.9943 337.096 55.6815 365.898 71.7818C389.979 84.8431 411.149 102.657 428.121 124.141C445.093 145.625 457.512 170.33 464.624 196.756ZM205.632 171.611C226.608 170.9 246.698 180.225 259.908 196.804C261.761 199.258 262.443 202.424 261.77 205.441C261.097 208.459 259.139 211.016 256.426 212.419L243.728 218.665C239.55 220.775 234.497 219.747 231.439 216.166C221.179 204.324 204.361 200.99 190.476 208.047C176.047 215.015 166.759 229.703 166.512 245.94C166.12 256.92 170.167 267.584 177.713 275.451C185.258 283.318 195.643 287.701 206.451 287.58C216.076 288.052 225.643 285.819 234.101 281.126C237.583 277.17 237.583 267.385 234.101 266.76H210.138C204.403 266.76 199.897 265.302 199.897 259.473V247.397C199.897 241.648 204.482 236.987 210.138 236.987H258.679C264.335 236.987 268.92 241.648 268.92 247.397V290.495C268.968 293.279 267.938 295.971 266.052 297.99C250.148 314.385 228.275 323.354 205.632 322.767C185.347 324.046 165.456 316.66 150.758 302.391C136.06 288.121 127.888 268.263 128.212 247.605C127.655 226.804 135.725 206.723 150.451 192.268C165.177 177.814 185.201 170.317 205.632 171.611ZM303.534 174.109H319.919C325.575 174.109 330.159 178.77 330.159 184.52V281.126C330.159 284.001 332.452 286.331 335.28 286.331H377.472C383.127 286.331 387.712 290.992 387.712 296.741V308.609C387.712 314.358 383.127 319.019 377.472 319.019H303.534C297.878 319.019 293.293 314.358 293.293 308.609V183.687C293.721 178.265 298.183 174.092 303.534 174.109Z"/>
</g>
</svg>
