<svg xmlns="http://www.w3.org/2000/svg" xmlns:xlink="http://www.w3.org/1999/xlink" viewBox="0 0 24 24">
  <title>galego</title>
  <path d="M21,4H3A1,1,0,0,0,2,5V20.79a.5.5,0,0,0,.85.35L7,17H21a1,1,0,0,0,1-1V5A1,1,0,0,0,21,4Zm-8.22,8.39a.51.51,0,0,1-.14.36A4,4,0,0,1,9.69,14a3.56,3.56,0,0,1-3.78-3.61A3.56,3.56,0,0,1,9.69,6.74a3.27,3.27,0,0,1,2.65,1.21.5.5,0,0,1-.17.75L11.55,9a.5.5,0,0,1-.6-.12,1.67,1.67,0,0,0-2-.39,2.05,2.05,0,0,0-1.17,1.82,1.93,1.93,0,0,0,1.95,2A2.56,2.56,0,0,0,11.08,12c.17-.19.17-.66,0-.69H9.91c-.28,0-.5-.07-.5-.35v-.58a.5.5,0,0,1,.5-.5h2.37a.5.5,0,0,1,.5.5Zm5.79.94a.5.5,0,0,1-.5.5H14.47a.5.5,0,0,1-.5-.5v-6a.5.5,0,0,1,.5-.5h.8a.5.5,0,0,1,.5.5V12a.25.25,0,0,0,.25.25h2.06a.5.5,0,0,1,.5.5Z"
  />
</svg>
