<svg viewBox="0 0 512 512" xmlns="http://www.w3.org/2000/svg">
<g id="mono_geography">
<path id="Vector" fill-rule="evenodd" clip-rule="evenodd" d="M374.522 433.38C339.439 456.822 298.193 469.334 256 469.334C227.985 469.334 200.244 463.815 174.361 453.094C148.478 442.374 124.96 426.659 105.151 406.85C65.1429 366.842 42.6667 312.58 42.6667 256C42.6667 213.807 55.1785 172.561 78.6199 137.479C102.061 102.396 135.379 75.0526 174.361 58.9059C213.343 42.7592 256.237 38.5345 297.619 46.766C315.507 50.324 332.764 56.1402 349.004 64.007C371.615 103.048 388.693 165.762 352.642 205.44C288.642 276.693 354.775 339.413 418.775 305.493C431.565 298.579 442.701 288.971 451.415 277.333C459.369 267.062 465.311 255.386 468.932 242.919C470.913 275.161 465.552 307.565 453.094 337.639C436.948 376.621 409.604 409.939 374.522 433.38ZM273.068 412.16C219.948 466.347 127.575 401.707 100.908 346.027C84.3004 314.069 78.1067 277.716 83.1947 242.061C88.2828 206.406 104.398 173.237 129.281 147.2C155.521 120.96 220.588 98.7733 209.281 125.867C153.238 259.003 213.426 310.69 254.527 345.987C281.327 369.001 300.012 385.047 273.068 412.16Z"/>
</g>
</svg>
