<svg xmlns="http://www.w3.org/2000/svg" xmlns:xlink="http://www.w3.org/1999/xlink" viewBox="0 0 24 24">
  <defs>
    <style>
      .b {
        fill: #020a1a;
      }
    </style>
  </defs>
  <title>geography_4_m</title>
  <rect class="b" x="11.04" y="18.06" width="2" height="4" rx="0.98" ry="0.98" />
  <path class="b" d="M16.9,10.56c-.21-.53-.5-1.31-1.24-1.41a.66.66,0,0,1-.6-.83c.11-.29.2-.49,1.27-.47a5.35,5.35,0,0,0,2.4-.78,7,7,0,0,0-1.11-2.21c.23.44-.43,1.45-1.09,1.52s-.72-1-1.19-1.08-.59.2-.86.55A3.86,3.86,0,0,1,13.35,7c-.71.32-1.17-.22-1.79-.47-1-.23-2.53.28-2.21,1.27.12.37.55.85.07,1.19S8.65,8.15,8,8.2c-.28,0-.37.63-.69.82s-.78.14-.65-.62A3.3,3.3,0,0,1,8,6.2c.45-.34,2-.29,1.8-2A1.85,1.85,0,0,1,11,2.13a7,7,0,0,0-5.62,9.15c.32-.38.81-1,1.45-1A21.32,21.32,0,0,0,9,10.65,1.63,1.63,0,0,0,10.25,10c.45-.57,1.54-1.85,2.3-2s1.59.68.76,2.51c-.4.87-1.3.49-1.3,1.49,0,.56,1,.57,1,1.5s-.1,1.94-1,1.88c-.66,0-.63-.79-.8-1.36a1.62,1.62,0,0,0-2.76-.6,10.29,10.29,0,0,0-.83,1,7,7,0,0,0,11.31-4.39C18.34,10.84,17.15,11.2,16.9,10.56Z"
  />
  <path class="b" d="M12,19.06a10,10,0,0,1-7.07-2.92,1,1,0,1,1,1.4-1.4A8,8,0,1,0,17.66,3.41,1,1,0,0,1,19.06,2,10,10,0,0,1,12,19.06Z" />
</svg>
