<svg viewBox="0 0 512 512" fill="none" xmlns="http://www.w3.org/2000/svg">
<path d="M256 42.6665C213.807 42.6665 172.561 55.1783 137.479 78.6197C102.396 102.061 75.0528 135.379 58.9061 174.361C42.7594 213.342 38.5347 256.236 46.7662 297.619C54.9977 339.002 75.3158 377.014 105.151 406.849C134.986 436.685 172.999 457.002 214.381 465.234C255.764 473.466 298.658 469.241 337.64 453.094C376.621 436.947 409.939 409.604 433.381 374.522C456.822 339.439 469.334 298.193 469.334 256C469.334 199.42 446.858 145.158 406.85 105.15C366.842 65.1427 312.58 42.6665 256 42.6665ZM121.814 334.293C42.6671 283.52 94.5071 94.7198 234.667 78.2932C345.387 65.0665 203.947 99.6265 224.64 238.72C236.8 323.413 160.427 359.893 121.814 334.293ZM354.987 408.747C344.365 417.301 331.552 422.697 318.01 424.319C304.468 425.941 290.743 423.724 278.4 417.92C245.12 400.853 247.254 353.92 257.067 329.173C296.32 223.573 382.72 283.733 395.947 293.973C438.187 327.467 388.48 387.627 354.987 409.387V408.747Z" fill="#323C45"/>
</svg>
