<svg xmlns="http://www.w3.org/2000/svg" xmlns:xlink="http://www.w3.org/1999/xlink" viewBox="0 0 24 24">
  <title>geology</title>
  <path d="M6.95,3.88,2,8l4.94,2.45A2,2,0,0,0,9,10.24l1.81-1.36a2,2,0,0,1,2.4,0L14.77,10A2,2,0,0,0,17.26,10L22,6,17.21,2.81a2,2,0,0,0-2.4.15L13.12,4.4a2,2,0,0,1-2.3.21L9.24,3.69A2,2,0,0,0,6.95,3.88Z" />
  <path d="M2,15l4.88,2.44A2,2,0,0,0,9,17.24l1.78-1.34a2,2,0,0,1,2.43,0l1.52,1.19a2,2,0,0,0,2.53-.06L22,13v3.3a1.51,1.51,0,0,1-.54,1.15L17.2,21a2,2,0,0,1-2.48.06l-1.53-1.15a2,2,0,0,0-2.4,0L9,21.23a2,2,0,0,1-2.1.19L3.11,19.53A2,2,0,0,1,2,17.74Z"
  />
  <path d="M22,8l-4.8,4a2,2,0,0,1-2.48.06L13.2,10.89a2,2,0,0,0-2.4,0L9,12.24a2,2,0,0,1-2.09.19L2,10v3l4.88,2.45A2,2,0,0,0,9,15.24l1.81-1.36a2,2,0,0,1,2.4,0L14.73,15A2,2,0,0,0,17.21,15L22,11Z" />
</svg>
