<svg viewBox="0 0 512 512"  xmlns="http://www.w3.org/2000/svg">
<path d="M356.663 73.7935L443.577 143.213C444.886 143.996 445.978 145.1 446.751 146.422C447.524 147.744 447.954 149.241 448 150.776C447.973 152.153 447.65 153.508 447.052 154.747C446.455 155.986 445.597 157.079 444.539 157.95L357.624 227.37C349.415 233.494 339.473 236.8 329.262 236.8C319.05 236.8 309.108 233.494 300.899 227.37L272.825 207.979C267.999 204.518 262.21 202.686 256.288 202.743C250.23 202.56 244.281 204.401 239.367 207.979L210.716 227.37C202.613 233.308 192.851 236.499 182.834 236.483C172.632 236.54 162.696 233.201 154.568 226.982L67.4612 157.562C66.403 156.691 65.5453 155.598 64.9476 154.359C64.35 153.12 64.0266 151.765 64 150.388C63.9996 149.005 64.311 147.641 64.9107 146.398C65.5103 145.155 66.3825 144.066 67.4612 143.213L153.606 73.7935C161.902 67.4398 172.033 64 182.45 64C192.867 64 202.997 67.4398 211.293 73.7935L239.367 93.1845C244.263 96.5017 250.006 98.32 255.904 98.42C261.611 98.2525 267.151 96.4353 271.864 93.1845L300.515 73.7935C308.635 67.7172 318.478 64.4366 328.589 64.4366C338.7 64.4366 348.543 67.7172 356.663 73.7935Z" fill="#323C45"/>
<path d="M64.0023 194.153V253.145C64.0232 254.479 64.3078 255.794 64.8383 257.008C65.3689 258.222 66.1338 259.307 67.0851 260.197L154.366 340.789C162.406 348.022 172.661 352 183.267 352C193.873 352 204.128 348.022 212.168 340.789L240.106 318.223C244.555 314.391 250.141 312.296 255.905 312.296C261.669 312.296 267.254 314.391 271.704 318.223L300.027 340.386C308.067 347.619 318.322 351.597 328.928 351.597C339.534 351.597 349.789 347.619 357.829 340.386L444.917 259.794C445.868 258.904 446.633 257.819 447.164 256.605C447.694 255.392 447.979 254.076 448 252.742V195.25C447.98 196.608 447.676 197.945 447.11 199.167C446.544 200.389 445.73 201.466 444.724 202.322L357.828 283.155C349.788 290.409 339.533 294.399 328.927 294.399C318.321 294.399 308.066 290.409 300.026 283.155L271.703 260.724C267.135 256.947 261.525 254.821 255.711 254.661C250.021 254.864 244.547 256.991 240.104 260.724L211.396 283.357C203.32 289.952 193.303 293.382 183.073 293.057C172.551 293.027 162.38 289.089 154.364 281.942L67.0827 201.11C66.1314 200.218 65.3664 199.129 64.8359 197.912C64.3206 196.73 64.0373 195.451 64.0023 194.153Z" fill="#323C45"/>
<path d="M64.0021 284.496C63.9993 284.632 63.9993 284.768 64.0021 284.904V284.496Z" fill="#323C45"/>
<path d="M64.0025 290.159C64.026 291.505 64.3104 292.831 64.8381 294.056C65.3686 295.286 66.1336 296.388 67.0849 297.29L154.366 379.029C162.382 386.257 172.553 390.239 183.074 390.268C193.447 390.252 203.481 386.343 211.397 379.234L240.106 356.347C244.523 352.55 250.026 350.46 255.712 350.42C261.522 350.416 267.161 352.506 271.704 356.347L300.027 379.029C308.067 386.366 318.322 390.4 328.928 390.4C339.534 390.4 349.789 386.366 357.829 379.029L444.917 297.29C445.869 296.388 446.633 295.286 447.164 294.056C447.693 292.828 447.978 291.497 448 290.147V348.57C448.003 349.908 447.73 351.231 447.199 352.448C446.668 353.665 445.892 354.747 444.923 355.62L358.01 436.188C349.985 443.419 339.751 447.396 329.166 447.396C318.581 447.396 308.348 443.419 300.323 436.188L272.057 414.032C267.616 410.201 262.042 408.107 256.29 408.107C250.537 408.107 244.963 410.201 240.522 414.032L211.871 436.792C203.847 444.023 193.613 448 183.028 448C172.443 448 162.209 444.023 154.185 436.792L67.0791 356.224C66.1107 355.351 65.3342 354.269 64.8031 353.052C64.272 351.835 63.9989 350.512 64.0025 349.174V290.159Z" fill="#323C45"/>
</svg>
