<svg viewBox="0 0 512 512" xmlns="http://www.w3.org/2000/svg">
<g id="mono_geology">
<g id="Vector">
<path d="M367.848 53.5485L464.419 130.681C465.874 131.551 467.087 132.778 467.946 134.247C468.805 135.716 469.282 137.38 469.333 139.084C469.304 140.615 468.945 142.12 468.281 143.497C467.616 144.873 466.664 146.088 465.488 147.056L368.916 224.189C359.795 230.994 348.748 234.667 337.402 234.667C326.056 234.667 315.009 230.994 305.888 224.189L274.695 202.643C269.332 198.798 262.9 196.762 256.321 196.826C249.589 196.622 242.979 198.668 237.519 202.643L205.685 224.189C196.682 230.787 185.834 234.333 174.705 234.315C163.369 234.379 152.329 230.668 143.298 223.758L46.5125 146.625C45.3367 145.657 44.3837 144.442 43.7197 143.066C43.0556 141.689 42.6963 140.184 42.6667 138.653C42.6663 137.117 43.0123 135.601 43.6786 134.22C44.3449 132.839 45.314 131.629 46.5125 130.681L142.229 53.5485C151.447 46.4887 162.703 42.6667 174.278 42.6667C185.852 42.6667 197.108 46.4887 206.326 53.5485L237.519 75.094C242.959 78.7798 249.34 80.8001 255.893 80.9112C262.235 80.7251 268.39 78.706 273.627 75.094L305.461 53.5485C314.483 46.797 325.42 43.1519 336.654 43.1519C347.889 43.1519 358.826 46.797 367.848 53.5485Z"/>
<path d="M42.6694 187.281V252.828C42.6925 254.31 43.0087 255.772 43.5982 257.12C44.1877 258.469 45.0377 259.675 46.0947 260.663L143.073 350.21C152.007 358.247 163.401 362.667 175.186 362.667C186.97 362.667 198.364 358.247 207.298 350.21L238.34 325.137C243.284 320.88 249.49 318.552 255.894 318.552C262.299 318.552 268.505 320.88 273.449 325.137L304.919 349.762C313.853 357.799 325.246 362.219 337.031 362.219C348.816 362.219 360.21 357.799 369.143 349.762L465.908 260.216C466.965 259.227 467.815 258.021 468.404 256.673C468.994 255.324 469.31 253.863 469.333 252.38V188.5C469.311 190.009 468.974 191.495 468.345 192.853C467.716 194.21 466.811 195.407 465.694 196.359L369.143 286.172C360.209 294.233 348.815 298.666 337.03 298.666C325.245 298.666 313.852 294.233 304.918 286.172L273.448 261.249C268.372 257.053 262.139 254.69 255.679 254.513C249.357 254.738 243.275 257.101 238.338 261.249L206.44 286.397C197.467 293.724 186.337 297.536 174.97 297.174C163.279 297.141 151.978 292.766 143.071 284.825L46.0919 195.011C45.035 194.02 44.185 192.81 43.5955 191.458C43.023 190.144 42.7082 188.724 42.6694 187.281Z"/>
<path d="M42.6691 287.663C42.666 287.814 42.666 287.965 42.6691 288.116V287.663Z"/>
<path d="M42.6695 293.955C42.6956 295.45 43.0116 296.924 43.5979 298.284C44.1874 299.652 45.0374 300.875 46.0944 301.878L143.073 392.7C151.98 400.73 163.281 405.154 174.971 405.188C186.497 405.169 197.645 400.826 206.441 392.927L238.34 367.496C243.248 363.278 249.363 360.956 255.68 360.912C262.136 360.907 268.401 363.229 273.449 367.496L304.919 392.7C313.852 400.851 325.246 405.334 337.031 405.334C348.816 405.334 360.21 400.851 369.143 392.7L465.908 301.878C466.965 300.875 467.815 299.652 468.405 298.284C468.993 296.92 469.309 295.441 469.333 293.941V358.856C469.337 360.343 469.034 361.813 468.444 363.165C467.854 364.517 466.991 365.719 465.915 366.689L369.344 456.209C360.428 464.244 349.057 468.662 337.296 468.662C325.535 468.662 314.164 464.244 305.248 456.209L273.841 431.591C268.907 427.335 262.714 425.008 256.322 425.008C249.93 425.008 243.737 427.335 238.802 431.591L206.968 456.881C198.052 464.915 186.681 469.334 174.92 469.334C163.159 469.334 151.788 464.915 142.872 456.881L46.0879 367.36C45.0119 366.391 44.1492 365.188 43.5591 363.836C42.969 362.484 42.6655 361.014 42.6695 359.527V293.955Z"/>
</g>
</g>
</svg>
