<svg xmlns="http://www.w3.org/2000/svg" viewBox="0 0 24 24">
  <path d="M20,16H10a2,2,0,0,1-2-2V4a2,2,0,0,1,2-2H20a2,2,0,0,1,2,2V14A2,2,0,0,1,20,16ZM10,4V14H20V4Z" />
  <path d="M3,10.62a.54.54,0,0,1-.39-.15.53.53,0,0,1-.21-.4.63.63,0,0,1,.14-.44l1.3-1.52A.63.63,0,0,1,4.69,8a.6.6,0,0,1,.06.85l-1.3,1.52A.6.6,0,0,1,3,10.62ZM6.9,6.06a.62.62,0,0,1-.39-.14.63.63,0,0,1-.21-.41.61.61,0,0,1,.15-.44L8.54,2.63a.62.62,0,0,1,.85-.06.56.56,0,0,1,.2.4.55.55,0,0,1-.14.44L7.36,5.86A.61.61,0,0,1,6.9,6.06ZM6.2,7a.6.6,0,1,1-.6-.6A.6.6,0,0,1,6.2,7Z"
  />
  <path d="M15,10.62a.58.58,0,0,1-.39-.14.6.6,0,0,1-.07-.85l1.3-1.52A.63.63,0,0,1,16.69,8a.6.6,0,0,1,.06.85l-1.3,1.52A.6.6,0,0,1,15,10.62Zm3.9-4.56a.62.62,0,0,1-.39-.14.6.6,0,0,1-.06-.85l2.09-2.44a.62.62,0,0,1,.85-.06.58.58,0,0,1,.2.41.53.53,0,0,1-.14.43L19.36,5.86A.61.61,0,0,1,18.9,6.06ZM18.2,7a.6.6,0,1,1-.6-.6A.6.6,0,0,1,18.2,7Z"
  />
  <path d="M15.05,21.54a.58.58,0,0,1-.43-.18.6.6,0,0,1,0-.84L16,19.1a.63.63,0,0,1,.85,0,.61.61,0,0,1,0,.85l-1.42,1.41A.56.56,0,0,1,15.05,21.54Zm4.24-4.24a.62.62,0,0,1-.6-.6.6.6,0,0,1,.18-.43l1.83-1.83a.6.6,0,0,1,1,.43.59.59,0,0,1-.17.42l-1.84,1.83A.56.56,0,0,1,19.29,17.3Zm-.8.81a.6.6,0,1,1-.6-.6A.6.6,0,0,1,18.49,18.11Z"
  />
  <path d="M3,21.61a.63.63,0,0,1-.43-.17.61.61,0,0,1,0-.85L4,19.17a.61.61,0,0,1,.84,0,.58.58,0,0,1,.18.43.59.59,0,0,1-.17.42L3.45,21.43A.56.56,0,0,1,3,21.61Zm4.21-4.27a.59.59,0,0,1-.42-.17.6.6,0,0,1,0-.85l1.78-1.8a.62.62,0,0,1,.85,0,.61.61,0,0,1,0,.85l-1.78,1.8A.58.58,0,0,1,7.24,17.34Zm-.75.77a.6.6,0,1,1-.6-.6A.6.6,0,0,1,6.49,18.11Z"
  />
  <path d="M14,22H4a2,2,0,0,1-2-2V11A2,2,0,0,1,4,9H14a2,2,0,0,1,2,2v9A2,2,0,0,1,14,22ZM4,11v9H14V11Z" />
</svg>
