<svg viewBox="0 0 512 512" xmlns="http://www.w3.org/2000/svg">
<g id="mono_geometry">
<path id="Vector" fill-rule="evenodd" clip-rule="evenodd" d="M100.48 70.6133L441.813 411.947C444.678 414.951 446.604 418.726 447.355 422.809C448.106 426.891 447.65 431.104 446.042 434.932C444.434 438.759 441.745 442.034 438.303 444.355C434.862 446.676 430.817 447.943 426.667 448H85.3333C79.6754 448 74.2492 445.752 70.2484 441.752C66.2476 437.751 64 432.325 64 426.667V362.667H90.6667C94.9101 362.667 98.9798 360.981 101.98 357.98C104.981 354.98 106.667 350.91 106.667 346.667C106.667 342.423 104.981 338.354 101.98 335.353C98.9798 332.352 94.9101 330.667 90.6667 330.667H64V282.667H90.6667C94.9101 282.667 98.9798 280.981 101.98 277.98C104.981 274.98 106.667 270.91 106.667 266.667C106.667 262.423 104.981 258.354 101.98 255.353C98.9798 252.352 94.9101 250.667 90.6667 250.667H64V202.667H90.6667C94.9101 202.667 98.9798 200.981 101.98 197.98C104.981 194.98 106.667 190.91 106.667 186.667C106.667 182.423 104.981 178.354 101.98 175.353C98.9798 172.352 94.9101 170.667 90.6667 170.667H64V85.3333C64.0592 81.1323 65.3576 77.0423 67.7323 73.5764C70.107 70.1104 73.4522 67.4228 77.3484 65.8506C81.2446 64.2785 85.5183 63.8918 89.6334 64.7391C93.7485 65.5864 97.5218 67.6299 100.48 70.6133ZM149.333 247.467V354.133C149.389 356.359 150.313 358.475 151.907 360.03C153.501 361.584 155.64 362.454 157.867 362.453H264.533C266.204 362.43 267.83 361.917 269.211 360.978C270.593 360.038 271.668 358.714 272.304 357.17C272.94 355.625 273.109 353.928 272.789 352.289C272.47 350.649 271.676 349.139 270.507 347.947L163.84 241.28C162.634 240.098 161.105 239.3 159.446 238.988C157.786 238.675 156.072 238.862 154.519 239.524C152.966 240.187 151.644 241.295 150.721 242.709C149.798 244.122 149.315 245.778 149.333 247.467Z"/>
</g>
</svg>
