<svg xmlns="http://www.w3.org/2000/svg" xmlns:xlink="http://www.w3.org/1999/xlink" viewBox="0 0 24 24">
  <defs>
    <style>
      .b {
        fill: #020a1a;
      }
    </style>
  </defs>
  <title>german_3_m</title>
  <path class="b" d="M10.19,8.58c-.8.06-1.19-.13-1.13.5,0,0,0,3,0,3,0,.29.13.4.49.38h.65a1.85,1.85,0,0,0,1.94-1.93A1.79,1.79,0,0,0,10.19,8.58Z" />
  <path class="b" d="M21,4H3A1,1,0,0,0,2,5V20.79a.5.5,0,0,0,.85.35L7,17H21a1,1,0,0,0,1-1V5A1,1,0,0,0,21,4ZM10.19,14H7.75a.5.5,0,0,1-.5-.5v-6a.5.5,0,0,1,.5-.5h2.43C12.38,7,14,8.32,14,10.49A3.44,3.44,0,0,1,10.19,14Zm9.93-5.91a.5.5,0,0,1-.5.5l-2.57,0c-.69,0-.69,1.37,0,1.37h1.49c.28,0,1-.1,1,.2a1.73,1.73,0,0,1,0,.57c0,.26-.72.25-1,.25H17.05c-.76,0-.76,1.42,0,1.43h2.57a.5.5,0,0,1,.5.5v.57a.5.5,0,0,1-.5.5H15.5a.5.5,0,0,1-.5-.5v-6a.5.5,0,0,1,.5-.5h4.12a.5.5,0,0,1,.5.5Z"
  />
</svg>
