<svg xmlns="http://www.w3.org/2000/svg" xmlns:xlink="http://www.w3.org/1999/xlink" viewBox="0 0 24 24">
  <title>german</title>
  <path d="M21,4H3A1,1,0,0,0,2,5V20.79a.5.5,0,0,0,.85.35L7,17H21a1,1,0,0,0,1-1V5A1,1,0,0,0,21,4ZM8.76,14H6.32a.5.5,0,0,1-.5-.5v-6a.5.5,0,0,1,.5-.5H8.75c2.2,0,3.78,1.32,3.78,3.49A3.44,3.44,0,0,1,8.76,14Zm9.93-5.91a.5.5,0,0,1-.5.5l-2.57,0c-.69,0-.69,1.37,0,1.37h1.49c.28,0,1-.1,1,.2a1.73,1.73,0,0,1,0,.57c0,.26-.72.25-1,.25H15.63c-.76,0-.76,1.42,0,1.43h2.57a.5.5,0,0,1,.5.5v.57a.5.5,0,0,1-.5.5H14.07a.5.5,0,0,1-.5-.5v-6a.5.5,0,0,1,.5-.5h4.12a.5.5,0,0,1,.5.5Z"
  />
  <path d="M8.76,8.58c-.8.06-1.19-.13-1.13.5h0v3c0,.29.13.4.49.38h.65a1.85,1.85,0,0,0,1.94-1.93A1.79,1.79,0,0,0,8.76,8.58Z" />
</svg>
