<svg viewBox="0 0 512 512" xmlns="http://www.w3.org/2000/svg">
<g id="mono_german">
<g id="Vector">
<path d="M175.086 286.616H188.194V286.829C198.966 287.338 209.436 283.053 216.982 275.049C224.527 267.045 228.434 256.079 227.724 244.898C228.538 233.783 224.628 222.856 217.024 214.995C209.42 207.133 198.885 203.127 188.194 204.031C184.43 204.328 181.098 204.337 178.217 204.345C168.712 204.371 164.107 204.383 165.05 214.673V278.528C165.665 284.7 167.918 286.616 175.086 286.616Z"/>
<path fill-rule="evenodd" clip-rule="evenodd" d="M464.624 196.754C467.948 210.698 469.523 225.001 469.315 239.334C468.704 265.948 462.723 292.165 451.732 316.418C440.741 340.671 424.964 362.462 405.346 380.488C380.28 402.801 350.709 419.48 318.631 429.397C286.552 439.314 252.715 442.239 219.408 437.972C214.574 436.798 209.529 436.798 204.695 437.972C201.482 439.66 198.536 441.812 195.952 444.359C177.227 460.774 153.059 469.652 128.144 469.269C126.735 469.476 125.299 469.174 124.093 468.417C122.814 467.282 123.24 465.768 123.667 464.254C123.88 463.497 124.093 462.74 124.093 462.03C129.705 449.262 134.131 436.007 137.313 422.43C139.336 416.932 139.336 410.896 137.313 405.398C134.871 401.755 131.578 398.759 127.718 396.669C121.978 392.842 116.494 388.646 111.299 384.108C76.9181 354.562 53.7348 314.129 45.6238 269.566C41.6811 247.528 41.6811 224.966 45.6238 202.928C50.2618 181.038 59.174 160.275 71.8513 141.825C96.4617 103.255 132.661 73.4458 175.269 56.6638C206.255 45.3044 239.336 40.7739 272.241 43.3831C305.146 45.9923 337.096 55.6795 365.898 71.7798C389.979 84.8412 411.149 102.655 428.121 124.139C445.093 145.623 457.512 170.328 464.624 196.754ZM138.426 171.465H188.196C233.255 171.465 265.616 199.561 265.616 245.962C266.06 266.883 257.87 287.001 243.113 301.239C228.357 315.476 208.443 322.472 188.401 320.459H138.426C132.77 320.459 128.185 315.694 128.185 309.817V182.108C128.185 176.23 132.77 171.465 138.426 171.465ZM328.904 205.521H381.541C387.197 205.521 391.782 200.757 391.782 194.879V182.321C391.782 176.443 387.197 171.678 381.541 171.678H297.157C291.502 171.678 286.917 176.443 286.917 182.321V310.03C286.917 315.907 291.502 320.672 297.157 320.672H381.541C387.197 320.672 391.782 315.907 391.782 310.03V297.897C391.782 292.02 387.197 287.255 381.541 287.255H328.904C313.338 287.255 313.543 256.818 328.904 256.818H359.421C365.156 256.818 379.903 256.818 379.903 251.496C380.544 247.48 380.544 243.381 379.903 239.364C379.903 234.108 369.909 234.621 363.176 234.966C361.73 235.041 360.435 235.107 359.421 235.107H328.904C314.772 235.32 314.772 205.521 328.904 205.521Z"/>
</g>
</g>
</svg>
