<svg xmlns="http://www.w3.org/2000/svg" xmlns:xlink="http://www.w3.org/1999/xlink" viewBox="0 0 24 24.08">
  <defs>
    <style>
      .b {
        fill: #020a1a;
      }
    </style>
  </defs>
  <title>Asset 258</title>
  <use width="48" height="48" transform="translate(0 0.08) scale(0.5)" xlink:href="#a" />
  <circle class="a" cx="12.05" cy="13.1" r="1" />
  <path class="b" d="M16.89,15.47,13.57,2.54A.55.55,0,0,0,13,2.1a.56.56,0,0,0-.56.56L12,11.18l-.42-8.53a.56.56,0,0,0-.56-.56.55.55,0,0,0-.54.44L7.21,15.47a1,1,0,0,0,.27,1c1.14,1,2,3,2.57,5.68h4c.58-2.67,1.43-4.66,2.57-5.68A1,1,0,0,0,16.89,15.47ZM12.05,14.1a1,1,0,1,1,1-1A1,1,0,0,1,12.05,14.1Z"
  />
  <rect class="b" x="2.03" y="2.1" width="7" height="3" rx="0.5" ry="0.5" />
  <rect class="b" x="4.03" y="2.1" width="3" height="20" rx="0.5" ry="0.5" />
  <rect class="b" x="15.03" y="2.1" width="7" height="3" rx="0.5" ry="0.5" />
  <rect class="b" x="17.03" y="2.1" width="3" height="20" rx="1" ry="1" />
</svg>
