<svg viewBox="0 0 512 512" xmlns="http://www.w3.org/2000/svg">
<g id="mono_grammar">
<path id="Vector" d="M362.667 314.668C325.12 339.841 320 401.068 316.373 448.001H195.627C192 401.068 186.88 339.841 149.333 314.668C145.71 312.104 143.062 308.388 141.822 304.126C140.582 299.864 140.823 295.308 142.507 291.201L225.067 91.9475V90.2409C225.313 88.8837 226.021 87.6536 227.071 86.7592C228.121 85.8648 229.448 85.3613 230.827 85.3342C232.081 85.3244 233.295 85.7751 234.238 86.6008C235.182 87.4266 235.79 88.57 235.947 89.8142V89.8142V91.3075L248.107 197.974C248.554 201.021 248.285 204.13 247.322 207.055C246.36 209.981 244.729 212.642 242.56 214.828C240.405 216.624 238.675 218.876 237.495 221.422C236.315 223.967 235.713 226.742 235.733 229.548C235.733 234.866 237.846 239.967 241.607 243.727C245.368 247.488 250.468 249.601 255.787 249.601C261.105 249.601 266.206 247.488 269.967 243.727C273.727 239.967 275.84 234.866 275.84 229.548C275.86 226.742 275.259 223.967 274.078 221.422C272.898 218.876 271.168 216.624 269.013 214.828C266.844 212.642 265.214 209.981 264.251 207.055C263.288 204.13 263.02 201.021 263.467 197.974L275.84 91.3075C275.711 90.5491 275.754 89.7712 275.966 89.0317C276.179 88.2922 276.555 87.6101 277.068 87.0362C277.58 86.4622 278.216 86.0111 278.926 85.7165C279.637 85.4218 280.405 85.2912 281.173 85.3342C282.515 85.4089 283.792 85.9339 284.799 86.8243C285.805 87.7146 286.482 88.9183 286.72 90.2409V91.9475L369.28 291.201C370.985 295.285 371.26 299.826 370.059 304.086C368.858 308.346 366.253 312.075 362.667 314.668V314.668Z"/>
</g>
</svg>
