<svg xmlns="http://www.w3.org/2000/svg" xmlns:xlink="http://www.w3.org/1999/xlink" viewBox="0 0 24 24">
  <path d="M17.72,8h0A2.94,2.94,0,0,0,12,8.86,2.94,2.94,0,0,0,6.28,8h0C5.79,9.24,5,14.61,12,18h0C19,14.61,18.2,9.24,17.72,8Z" />
  <circle cx="7.47" cy="3.52" r="0.5" />
  <circle cx="10.47" cy="3.52" r="0.5" />
  <circle cx="13.47" cy="3.52" r="0.5" />
  <circle cx="16.48" cy="3.52" r="0.5" />
  <circle cx="7.47" cy="20.48" r="0.5" />
  <circle cx="10.47" cy="20.48" r="0.5" />
  <circle cx="13.47" cy="20.48" r="0.5" />
  <circle cx="16.48" cy="20.48" r="0.5" />
  <circle cx="3.53" cy="16.46" r="0.5" />
  <circle cx="3.53" cy="13.47" r="0.5" />
  <circle cx="3.53" cy="10.47" r="0.5" />
  <circle cx="3.53" cy="7.47" r="0.5" />
  <circle cx="20.47" cy="16.51" r="0.5" />
  <circle cx="20.47" cy="13.47" r="0.5" />
  <circle cx="20.47" cy="10.53" r="0.5" />
  <circle cx="20.47" cy="7.57" r="0.5" />
</svg>
