<svg viewBox="0 0 512 512" xmlns="http://www.w3.org/2000/svg">
<g id="mono_health">
<path id="Vector" fill-rule="evenodd" clip-rule="evenodd" d="M92.1601 64.2734C144.64 26.2826 208.853 38.6616 256 99.2761C302.08 38.6616 366.293 26.2826 419.413 64.2734C449.707 88.1777 469.333 115.924 469.333 173.55C469.333 293.857 291.856 424.462 260.655 446.493C257.808 448.503 254.192 448.503 251.345 446.493C220.144 424.462 42.6667 293.857 42.6667 173.55C42.6667 115.924 61.8668 87.324 92.1601 64.2734ZM349.013 216.661C353.726 216.661 357.547 220.484 357.547 225.199V267.885C357.547 272.6 353.726 276.422 349.013 276.422H294.4C289.687 276.422 285.867 280.244 285.867 284.959V339.598C285.867 344.313 282.046 348.135 277.333 348.135H234.453C229.74 348.135 225.92 344.313 225.92 339.598V284.959C225.92 280.244 222.099 276.422 217.387 276.422H162.987C158.274 276.422 154.453 272.6 154.453 267.885V225.199C154.453 220.484 158.274 216.661 162.987 216.661H217.387C222.099 216.661 225.92 212.839 225.92 208.124V153.486C225.92 148.771 229.74 144.948 234.453 144.948H277.333C282.046 144.948 285.867 148.771 285.867 153.486V208.124C285.867 212.839 289.687 216.661 294.4 216.661H349.013Z"/>
</g>
</svg>
