<svg xmlns="http://www.w3.org/2000/svg" xmlns:xlink="http://www.w3.org/1999/xlink" viewBox="0 0 24 24">
  <defs>
    <style>
      .b {
        fill: #020a1a;
      }
    </style>
  </defs>
  <title>history_1_m</title>
  <rect class="b" x="2" y="3.01" width="20" height="4" rx="2" ry="2" />
  <rect class="b" x="5.04" y="8.01" width="13.92" height="4" rx="0.5" ry="0.5" />
  <path class="b" d="M5,13.51V21H7V16a1,1,0,0,1,2,0v5h2V16a1,1,0,0,1,1-1h0a1,1,0,0,1,1,1v5h2V16a1,1,0,0,1,2,0v5h2V13.51a.5.5,0,0,0-.5-.5H5.5A.5.5,0,0,0,5,13.51Z" />
</svg>
