<svg viewBox="0 0 512 512" xmlns="http://www.w3.org/2000/svg">
<g id="mono_history">
<path id="Vector" fill-rule="evenodd" clip-rule="evenodd" d="M441.807 441.773C445.772 437.785 448 432.377 448 426.738C447.961 422.995 446.94 419.327 445.04 416.108L438.907 405.477L414.59 362.953L402.326 341.692L382.872 307.248L365.956 277.907L329.375 214.122L304.846 171.598L292.793 150.337L275.454 118.444C273.7 114.906 271 111.93 267.657 109.849C264.314 107.769 260.46 106.667 256.529 106.667C252.597 106.667 248.744 107.769 245.401 109.849C242.058 111.93 239.358 114.906 237.604 118.444L219.207 150.337L207.155 171.598L182.626 214.122L146.044 277.907L129.128 307.248L109.463 341.692L97.1987 362.953L72.8816 405.477L66.7494 416.108C64.9229 419.348 63.9749 423.014 64.0005 426.738C64.0005 432.377 66.2283 437.785 70.1938 441.773C74.1594 445.76 79.5378 448 85.1458 448H426.855C432.463 448 437.841 445.76 441.807 441.773ZM347.648 375.408C339.717 367.433 328.96 362.953 317.744 362.953C306.528 362.953 295.771 367.433 287.84 375.408C279.909 383.383 275.453 394.199 275.453 405.477V448H360.035V405.477C360.035 394.199 355.579 383.383 347.648 375.408Z"/>
</g>
</svg>
