<svg xmlns="http://www.w3.org/2000/svg" xmlns:xlink="http://www.w3.org/1999/xlink" viewBox="0 0 24 24">
  <defs>
    <style>
      .b {
        fill: #020a1a;
      }
    </style>
  </defs>
  <title>india-lang_2_m</title>
  <path class="b" d="M21,4H3A1,1,0,0,0,2,5V20.79a.5.5,0,0,0,.85.35L7,17H21a1,1,0,0,0,1-1V5A1,1,0,0,0,21,4ZM12.3,13.49a.5.5,0,0,1-.5.5H11a.5.5,0,0,1-.5-.5v-6A.5.5,0,0,1,11,7h.8a.5.5,0,0,1,.5.5Zm7.84,0a.5.5,0,0,1-.5.5h-1a.5.5,0,0,1-.4-.21L15.9,10.57a.25.25,0,0,0-.45.15v2.77a.5.5,0,0,1-.5.5h-.8a.5.5,0,0,1-.5-.5v-6a.5.5,0,0,1,.5-.5h1.1a.5.5,0,0,1,.4.2l2.23,3a.25.25,0,0,0,.45-.15V7.51a.5.5,0,0,1,.5-.5h.81a.5.5,0,0,1,.5.5Z"
  />
</svg>
