<svg viewBox="0 0 512 512" xmlns="http://www.w3.org/2000/svg">
<g id="mono_india-lang">
<path id="Vector" fill-rule="evenodd" clip-rule="evenodd" d="M464.624 196.756C467.948 210.7 469.523 225.003 469.315 239.336C468.704 265.95 462.723 292.167 451.732 316.42C440.741 340.673 424.964 362.464 405.346 380.49C380.28 402.803 350.709 419.482 318.631 429.399C286.552 439.316 252.715 442.241 219.408 437.974C214.574 436.8 209.529 436.8 204.695 437.974C201.482 439.662 198.536 441.814 195.952 444.361C177.227 460.776 153.059 469.654 128.144 469.271C126.735 469.478 125.299 469.176 124.093 468.419C122.814 467.284 123.24 465.77 123.667 464.256C123.88 463.499 124.093 462.742 124.093 462.032C129.705 449.264 134.131 436.009 137.313 422.432C139.336 416.934 139.336 410.898 137.313 405.4C134.871 401.757 131.578 398.761 127.718 396.671C121.978 392.843 116.494 388.648 111.299 384.11C76.9181 354.563 53.7348 314.131 45.6238 269.568C41.6811 247.53 41.6811 224.968 45.6238 202.93C50.2618 181.04 59.174 160.277 71.8513 141.827C96.4617 103.257 132.661 73.4477 175.269 56.6657C206.255 45.3063 239.336 40.7758 272.241 43.385C305.146 45.9943 337.096 55.6815 365.898 71.7818C389.979 84.8431 411.149 102.657 428.121 124.141C445.093 145.625 457.512 170.33 464.624 196.756ZM259.315 250.701V309.542C259.315 315.408 254.73 320.164 249.075 320.164H232.689C227.034 320.164 222.449 315.408 222.449 309.542V182.089C222.449 176.223 227.034 171.467 232.689 171.467H255.219C258.442 171.467 261.478 173.041 263.412 175.716L308.881 239.443C310.203 241.271 312.505 242.017 314.596 241.295C316.687 240.572 318.097 238.542 318.097 236.256V182.726C318.097 176.86 322.682 172.105 328.338 172.105H344.928C350.584 172.105 355.169 176.86 355.169 182.726V310.18C355.169 316.046 350.584 320.801 344.928 320.801H324.446C321.187 320.751 318.144 319.095 316.254 316.34L268.122 247.94C266.792 246.453 264.76 245.882 262.888 246.469C261.015 247.056 259.629 248.699 259.315 250.701ZM170.426 171.893H186.811C192.467 171.893 197.052 176.648 197.052 182.514V309.967C197.052 315.833 192.467 320.589 186.811 320.589H170.426C164.77 320.589 160.185 315.833 160.185 309.967V182.514C160.185 176.648 164.77 171.893 170.426 171.893Z"/>
</g>
</svg>
