<svg xmlns="http://www.w3.org/2000/svg" xmlns:xlink="http://www.w3.org/1999/xlink" viewBox="0 0 24 24">
  <title>india_lang</title>
  <path d="M21,4H3A1,1,0,0,0,2,5V20.79a.5.5,0,0,0,.85.35L7,17H21a1,1,0,0,0,1-1V5A1,1,0,0,0,21,4ZM9.39,13.49a.5.5,0,0,1-.5.5h-.8a.5.5,0,0,1-.5-.5v-6a.5.5,0,0,1,.5-.5h.8a.5.5,0,0,1,.5.5Zm7.73,0a.5.5,0,0,1-.5.5h-1a.5.5,0,0,1-.4-.2l-2.35-3.22a.25.25,0,0,0-.45.15v2.77a.5.5,0,0,1-.5.5h-.8a.5.5,0,0,1-.5-.5v-6a.5.5,0,0,1,.5-.5h1.1a.5.5,0,0,1,.4.2l2.23,3a.25.25,0,0,0,.45-.15V7.51a.5.5,0,0,1,.5-.5h.81a.5.5,0,0,1,.5.5Z"
  />
</svg>
