<svg xmlns="http://www.w3.org/2000/svg" xmlns:xlink="http://www.w3.org/1999/xlink" viewBox="0 0 24 24">
  <path d="M16.34,8.6c-.8.06-1.19-.13-1.13.5h0v3c0,.29.13.4.49.38h.65a1.85,1.85,0,0,0,1.94-1.93A1.79,1.79,0,0,0,16.34,8.6Z" />
  <path d="M21,4H3A1,1,0,0,0,2,5V20.8a.5.5,0,0,0,.85.35L7,17H21a1,1,0,0,0,1-1V5A1,1,0,0,0,21,4Zm-8.93,9.51a.5.5,0,0,1-.5.5h-.8a.5.5,0,0,1-.5-.5v-6a.5.5,0,0,1,.5-.5h.8a.5.5,0,0,1,.5.5Zm4.29.5H13.9a.5.5,0,0,1-.5-.5v-6a.5.5,0,0,1,.5-.5h2.43c2.2,0,3.78,1.32,3.78,3.49A3.44,3.44,0,0,1,16.34,14Z"
  />
</svg>
