<svg viewBox="0 0 512 512" xmlns="http://www.w3.org/2000/svg">
<g id="mono_informatics">
<g id="Vector">
<path fill-rule="evenodd" clip-rule="evenodd" d="M426.019 64H85.6493C73.9005 64 64.3762 73.5474 64.3762 85.3246V298.571C64.3762 310.348 73.9005 319.895 85.6493 319.895H426.019C437.768 319.895 447.293 310.348 447.293 298.571V85.3246C447.293 73.5474 437.768 64 426.019 64ZM404.746 106.649H106.922V277.246H404.746V106.649Z"/>
<path d="M68.5373 355.544C64.696 358.163 61.8153 361.97 60.3351 366.383L43.1039 423.96C42.4533 427.01 42.5298 430.172 43.3272 433.187C44.1247 436.203 45.6205 438.987 47.6931 441.314C49.7658 443.641 52.3569 445.445 55.2558 446.58C58.1547 447.714 61.2798 448.147 64.377 447.843H447.294C450.441 448.244 453.638 447.873 456.61 446.76C459.582 445.647 462.24 443.827 464.354 441.455C466.468 439.084 467.976 436.233 468.747 433.148C469.518 430.063 469.529 426.837 468.779 423.747L451.548 366.17C450.031 361.796 447.134 358.036 443.296 355.459C439.458 352.881 434.888 351.626 430.275 351.883H81.6083C76.9693 351.64 72.3786 352.926 68.5373 355.544Z"/>
</g>
</g>
</svg>
