<svg viewBox="0 0 512 512" xmlns="http://www.w3.org/2000/svg">
<g id="mono_italian">
<path id="Vector" fill-rule="evenodd" clip-rule="evenodd" d="M464.624 196.754C467.948 210.698 469.523 225.001 469.315 239.334C468.704 265.948 462.723 292.165 451.732 316.418C440.741 340.671 424.964 362.462 405.346 380.488C380.28 402.801 350.709 419.48 318.631 429.397C286.552 439.314 252.715 442.239 219.408 437.972C214.574 436.798 209.529 436.798 204.695 437.972C201.482 439.66 198.536 441.812 195.952 444.359C177.227 460.774 153.059 469.652 128.144 469.269C126.735 469.476 125.299 469.174 124.093 468.417C122.814 467.282 123.24 465.768 123.667 464.254C123.88 463.497 124.093 462.74 124.093 462.03C129.705 449.262 134.131 436.007 137.313 422.43C139.336 416.932 139.336 410.896 137.313 405.398C134.871 401.755 131.578 398.759 127.718 396.669C121.978 392.842 116.494 388.646 111.299 384.108C76.9181 354.562 53.7348 314.129 45.6238 269.566C41.6811 247.528 41.6811 224.966 45.6238 202.928C50.2618 181.038 59.174 160.275 71.8513 141.825C96.4617 103.255 132.661 73.4458 175.269 56.6638C206.255 45.3044 239.336 40.7739 272.241 43.3831C305.146 45.9923 337.096 55.6795 365.898 71.7798C389.979 84.8412 411.149 102.655 428.121 124.139C445.093 145.623 457.512 170.328 464.624 196.754ZM191.768 171.465H208.168C213.829 171.465 218.418 176.241 218.418 182.132V310.132C218.418 316.023 213.829 320.799 208.168 320.799H191.768C186.107 320.799 181.518 316.023 181.518 310.132V182.132C181.518 176.241 186.107 171.465 191.768 171.465ZM265.773 204.959H246.503C240.842 204.959 236.253 200.183 236.253 194.292V182.132C236.253 176.241 240.842 171.465 246.503 171.465H342.853C348.514 171.465 353.103 176.241 353.103 182.132V194.292C353.103 200.183 348.514 204.959 342.853 204.959H323.378C317.717 204.959 313.128 209.734 313.128 215.625V309.706C313.128 315.597 308.539 320.372 302.878 320.372H286.478C280.817 320.372 276.228 315.597 276.228 309.706V215.625C276.228 212.759 275.12 210.013 273.153 208.007C271.187 206 268.526 204.902 265.773 204.959Z"/>
</g>
</svg>
