<svg xmlns="http://www.w3.org/2000/svg" xmlns:xlink="http://www.w3.org/1999/xlink" viewBox="0 0 24 24">
  <defs>
    <style>
      .b {
        fill: #020a1a;
      }
    </style>
  </defs>
  <title>italian_2_m</title>
  <path class="b" d="M21,4H3A1,1,0,0,0,2,5V20.8a.5.5,0,0,0,.85.35L7,17H21a1,1,0,0,0,1-1V5A1,1,0,0,0,21,4Zm-7.6,9.48a.5.5,0,0,1-.5.5h-.8a.5.5,0,0,1-.5-.5v-6a.5.5,0,0,1,.5-.5h.8a.5.5,0,0,1,.5.5Zm6.45-5.41a.5.5,0,0,1-.5.5h-.95a.5.5,0,0,0-.5.5v4.41a.5.5,0,0,1-.5.5h-.8a.5.5,0,0,1-.5-.5V9.07a.5.5,0,0,0-.5-.5h-1a.5.5,0,0,1-.5-.5V7.5a.5.5,0,0,1,.5-.5h4.7a.5.5,0,0,1,.5.5Z"
  />
</svg>
