<svg xmlns="http://www.w3.org/2000/svg" xmlns:xlink="http://www.w3.org/1999/xlink" viewBox="0 0 24 24">
  <path d="M14.65,8.78c-.24,0-.67,2-.67,2a.5.5,0,0,0,.47.66h.38a.5.5,0,0,0,.47-.66S14.89,8.78,14.65,8.78Z" />
  <path d="M21,4H3A1,1,0,0,0,2,5V20.79a.5.5,0,0,0,.85.35L7,17H21a1,1,0,0,0,1-1V5A1,1,0,0,0,21,4ZM10.53,11.59A2.31,2.31,0,0,1,8,14.11a3.14,3.14,0,0,1-1.5-.34.51.51,0,0,1-.2-.69,2.21,2.21,0,0,1,.52-.71c.19-.11.6.15,1,.15a.88.88,0,0,0,.93-1V7.51a.5.5,0,0,1,.5-.5H10a.5.5,0,0,1,.5.5ZM17.69,14h-.91a.67.67,0,0,1-.56-.45C16.13,13.31,16,13,16,13H13.28l-.2.58a.61.61,0,0,1-.52.42h-.95a.5.5,0,0,1-.47-.68l2.25-6A.5.5,0,0,1,13.86,7h1.57a.5.5,0,0,1,.47.32l2.26,6A.5.5,0,0,1,17.69,14Z"
  />
</svg>
