<svg viewBox="0 0 512 512" xmlns="http://www.w3.org/2000/svg">
<g id="mono_kazach">
<path id="Vector" fill-rule="evenodd" clip-rule="evenodd" d="M464.624 196.756C467.948 210.7 469.523 225.003 469.315 239.336C468.704 265.95 462.723 292.167 451.732 316.42C440.741 340.673 424.964 362.464 405.346 380.49C380.28 402.803 350.709 419.482 318.631 429.399C286.552 439.316 252.715 442.241 219.408 437.974C214.574 436.8 209.529 436.8 204.695 437.974C201.482 439.662 198.536 441.814 195.952 444.361C177.227 460.776 153.059 469.654 128.144 469.271C126.735 469.478 125.299 469.176 124.093 468.419C122.814 467.284 123.24 465.77 123.667 464.256C123.88 463.499 124.093 462.742 124.093 462.032C129.705 449.264 134.131 436.009 137.313 422.432C139.336 416.934 139.336 410.898 137.313 405.4C134.871 401.757 131.578 398.761 127.718 396.671C121.978 392.843 116.494 388.648 111.299 384.11C76.9181 354.563 53.7348 314.131 45.6238 269.568C41.6811 247.53 41.6811 224.968 45.6238 202.93C50.2618 181.04 59.174 160.277 71.8513 141.827C96.4617 103.257 132.661 73.4477 175.269 56.6657C206.255 45.3063 239.336 40.7758 272.241 43.385C305.146 45.9943 337.096 55.6815 365.898 71.7818C389.979 84.8431 411.149 102.657 428.121 124.141C445.093 145.625 457.512 170.33 464.624 196.756ZM254.214 310.561L206.424 247.841C203.388 243.964 203.388 238.491 206.424 234.614L251.676 179.574C254.002 174.667 252.945 171.467 248.504 171.467H217.42C214.092 171.467 210.959 173.048 208.962 175.734L169.842 227.787C167.939 229.067 166.67 227.787 166.247 226.294V182.134C166.247 176.243 161.514 171.467 155.674 171.467H138.758C132.919 171.467 128.185 176.243 128.185 182.134V310.134C128.185 316.025 132.919 320.801 138.758 320.801H155.674C161.514 320.801 166.247 316.025 166.247 310.134V280.694C166.316 278.398 167.051 276.173 168.362 274.294L175.129 266.401C175.966 265.697 176.712 265.922 177.487 266.157C177.886 266.278 178.292 266.401 178.723 266.401L212.345 315.041C214.34 317.868 217.575 319.539 221.015 319.521H253.791C259.712 320.587 257.809 312.481 254.214 310.561ZM402.235 310.561L354.445 247.841C351.409 243.964 351.409 238.491 354.445 234.614L399.697 179.574C402.023 174.667 400.966 171.467 396.525 171.467H365.441C362.113 171.467 358.979 173.048 356.983 175.734L317.863 228.001C315.96 229.281 314.691 228.001 314.268 226.507V182.134C314.268 176.243 309.535 171.467 303.695 171.467H286.779C280.939 171.467 276.206 176.243 276.206 182.134V310.134C276.206 316.025 280.939 320.801 286.779 320.801H303.695C309.535 320.801 314.268 316.025 314.268 310.134V280.694C314.337 278.398 315.072 276.173 316.383 274.294L322.515 266.614C323.353 265.91 324.098 266.136 324.873 266.37C325.272 266.491 325.679 266.614 326.11 266.614L359.732 315.254C361.727 318.082 364.961 319.753 368.401 319.734H401.177C407.733 320.587 405.829 312.481 402.235 310.561Z"/>
</g>
</svg>
