<svg xmlns="http://www.w3.org/2000/svg" xmlns:xlink="http://www.w3.org/1999/xlink" viewBox="0 0 24 24">
  <path class="b" d="M21,4H3A1,1,0,0,0,2,5V20.8a.5.5,0,0,0,.85.35L7,17H21a1,1,0,0,0,1-1V5A1,1,0,0,0,21,4ZM12.92,14H11.37a.5.5,0,0,1-.41-.21L9.37,11.5h0c-.06-.08-.11-.08-.17,0l-.29.36a.55.55,0,0,0-.1.3v1.36a.5.5,0,0,1-.5.5H7.5a.5.5,0,0,1-.5-.5v-6A.5.5,0,0,1,7.5,7h.8a.5.5,0,0,1,.5.5V9.58c0,.11.07.14.17.07L10.8,7.21a.5.5,0,0,1,.4-.2h1.51c.2,0,.26.15.15.38L10.71,10a.5.5,0,0,0,0,.62L13,13.53C13.13,13.62,13.19,14,12.92,14Zm6.9,0H18.27a.5.5,0,0,1-.41-.21L16.27,11.5h0c-.06-.08-.11-.08-.17,0l-.29.36a.55.55,0,0,0-.1.3v1.36a.5.5,0,0,1-.5.5h-.8a.5.5,0,0,1-.5-.5v-6a.5.5,0,0,1,.5-.5h.8a.5.5,0,0,1,.5.5V9.58c0,.11.07.14.17.07L17.7,7.21a.5.5,0,0,1,.4-.2h1.51c.2,0,.26.15.15.38L17.62,10a.5.5,0,0,0,0,.62l2.26,2.94C20,13.62,20.09,14,19.82,14Z"
  />
</svg>
