<svg xmlns="http://www.w3.org/2000/svg" xmlns:xlink="http://www.w3.org/1999/xlink" viewBox="0 0 24 24">
  <title>kazach</title>
  <path d="M21,4H3A1,1,0,0,0,2,5V20.8a.5.5,0,0,0,.85.35L7,17H21a1,1,0,0,0,1-1V5A1,1,0,0,0,21,4ZM11.69,14H10.14a.5.5,0,0,1-.41-.21L8.15,11.5h0c-.06-.08-.11-.08-.17,0l-.29.36a.55.55,0,0,0-.1.3v1.36a.5.5,0,0,1-.5.5h-.8a.5.5,0,0,1-.5-.5v-6a.5.5,0,0,1,.5-.5h.8a.5.5,0,0,1,.5.5V9.58c0,.11.07.14.17.07L9.58,7.21A.5.5,0,0,1,10,7h1.51c.2,0,.26.15.15.38L9.49,10a.5.5,0,0,0,0,.62l2.26,2.94C11.91,13.62,12,14,11.69,14Zm7,0H17.15a.5.5,0,0,1-.41-.21L15.15,11.5h0c-.06-.08-.11-.08-.17,0l-.29.36a.55.55,0,0,0-.1.3v1.36a.5.5,0,0,1-.5.5h-.8a.5.5,0,0,1-.5-.5v-6a.5.5,0,0,1,.5-.5h.8a.5.5,0,0,1,.5.5V9.58c0,.11.07.14.17.07l1.83-2.45A.5.5,0,0,1,17,7h1.51c.2,0,.26.14.15.38L16.49,10a.5.5,0,0,0,0,.62l2.26,2.94C18.91,13.62,19,14,18.69,14Z"
  />
</svg>
