<svg xmlns="http://www.w3.org/2000/svg" xmlns:xlink="http://www.w3.org/1999/xlink" viewBox="0 0 24 24">
  <defs>
    <style>
      .b {
        fill: #020a1a;
      }
    </style>
  </defs>
  <title>korean_3_m</title>
  <path class="b" d="M16.27,8.48a1.88,1.88,0,0,0-1.91,2,1.9,1.9,0,1,0,3.8,0A1.88,1.88,0,0,0,16.27,8.48Z" />
  <path class="b" d="M21,4H3A1,1,0,0,0,2,5V20.79a.5.5,0,0,0,.85.35L7,17H21a1,1,0,0,0,1-1V5A1,1,0,0,0,21,4ZM12.27,14H10.72a.5.5,0,0,1-.41-.21L8.72,11.49h0c-.06-.08-.11-.08-.17,0l-.29.36a.55.55,0,0,0-.1.3v1.36a.5.5,0,0,1-.5.5h-.8a.5.5,0,0,1-.5-.5v-6a.5.5,0,0,1,.5-.5h.8a.5.5,0,0,1,.5.5V9.58c0,.11.07.14.17.07l1.83-2.45a.5.5,0,0,1,.4-.2h1.51c.2,0,.26.15.15.38L10.06,10a.5.5,0,0,0,0,.62l2.26,2.94C12.4,13.64,12.53,14,12.27,14Zm4,.13a3.55,3.55,0,0,1-3.74-3.61,3.55,3.55,0,0,1,3.74-3.61A3.54,3.54,0,0,1,20,10.5,3.54,3.54,0,0,1,16.27,14.11Z"
  />
</svg>
