<svg xmlns="http://www.w3.org/2000/svg" xmlns:xlink="http://www.w3.org/1999/xlink" viewBox="0 0 24 24">
  <title>korean</title>
  <path d="M15.66,8.48a1.88,1.88,0,0,0-1.91,2,1.9,1.9,0,1,0,3.8,0A1.88,1.88,0,0,0,15.66,8.48Z" />
  <path d="M21,4H3A1,1,0,0,0,2,5V20.79a.5.5,0,0,0,.85.35L7,17H21a1,1,0,0,0,1-1V5A1,1,0,0,0,21,4ZM11.65,14H10.11a.5.5,0,0,1-.41-.21L8.11,11.49h0c-.06-.08-.11-.08-.17,0l-.29.36a.55.55,0,0,0-.1.3v1.36A.5.5,0,0,1,7,14h-.8a.5.5,0,0,1-.5-.5v-6a.5.5,0,0,1,.5-.5H7a.5.5,0,0,1,.5.5V9.58c0,.11.07.14.17.07L9.54,7.21a.5.5,0,0,1,.4-.2h1.51c.2,0,.26.14.15.38L9.45,10a.5.5,0,0,0,0,.63l2.26,2.94C11.87,13.61,11.93,14,11.65,14Zm4,.13a3.55,3.55,0,0,1-3.74-3.61,3.55,3.55,0,0,1,3.74-3.61,3.54,3.54,0,0,1,3.73,3.61A3.54,3.54,0,0,1,15.66,14.11Z"
  />
</svg>
