<svg viewBox="0 0 512 512" xmlns="http://www.w3.org/2000/svg">
<g id="mono_kyrgyz">
<g id="Vector">
<path d="M352.757 235.326C353.187 238.728 354.047 238.728 356.629 238.728H373.408C379.349 238.728 384.164 233.65 384.164 227.386C384.164 221.122 379.349 216.044 373.408 216.044H356.629C355.499 215.954 354.394 216.422 353.636 217.31C352.878 218.198 352.554 219.406 352.757 220.581V235.326Z"/>
<path d="M232.073 274.345H249.067C255.008 274.345 259.823 269.267 259.823 263.003C259.823 256.739 255.008 251.661 249.067 251.661H232.288C230.782 251.661 229.276 252.114 229.276 255.063V270.715C228.846 274.345 232.073 274.345 232.073 274.345Z"/>
<path fill-rule="evenodd" clip-rule="evenodd" d="M464.624 196.754C467.948 210.698 469.523 225.001 469.315 239.334C468.704 265.948 462.723 292.165 451.732 316.418C440.741 340.671 424.964 362.462 405.346 380.488C380.28 402.801 350.709 419.48 318.631 429.397C286.552 439.314 252.715 442.239 219.408 437.972C214.574 436.798 209.529 436.798 204.695 437.972C201.482 439.66 198.536 441.812 195.952 444.359C177.227 460.774 153.059 469.652 128.144 469.269C126.735 469.476 125.299 469.174 124.093 468.417C122.814 467.282 123.24 465.768 123.667 464.254C123.88 463.497 124.093 462.74 124.093 462.03C129.705 449.262 134.131 436.007 137.313 422.43C139.336 416.932 139.336 410.896 137.313 405.398C134.871 401.755 131.578 398.759 127.718 396.669C121.978 392.842 116.494 388.646 111.299 384.108C76.9181 354.562 53.7348 314.129 45.6238 269.566C41.6811 247.528 41.6811 224.966 45.6238 202.928C50.2618 181.038 59.174 160.275 71.8513 141.825C96.4617 103.255 132.661 73.4458 175.269 56.6638C206.255 45.3044 239.336 40.7739 272.241 43.3831C305.146 45.9923 337.096 55.6795 365.898 71.7798C389.979 84.8412 411.149 102.655 428.121 124.139C445.093 145.623 457.512 170.328 464.624 196.754ZM167.754 255.288C162.23 247.316 162.23 236.492 167.754 228.521L192.063 196.082C192.063 195.629 192.206 195.15 192.35 194.671C192.636 193.713 192.923 192.755 192.063 191.999H175.929C169.196 192.124 162.906 195.566 158.934 201.3L137.422 231.923C137.422 231.923 135.486 233.057 134.841 231.923V196.082C134.599 194.18 133.345 192.593 131.614 191.999H114.189C112.131 192.349 110.704 194.354 110.963 196.536V293.624C110.963 297.253 112.468 298.387 114.62 298.161H131.614C132.679 298.312 133.749 297.931 134.509 297.13C135.269 296.329 135.63 295.2 135.486 294.077V267.083L139.143 262.093C139.773 261.345 139.942 260.811 140.051 260.467C140.238 259.871 140.246 259.847 142.155 260.278C149.007 269.314 155.329 278.784 161.085 288.633C165.006 294.753 171.507 298.477 178.51 298.614H193.353C193.353 298.614 195.505 297.48 195.074 294.985L167.754 255.288ZM376.204 192.226H349.314C337.433 192.226 327.802 202.382 327.802 214.91V292.943C327.825 295.406 329.413 297.545 331.674 298.161H345.227C351.035 298.161 352.326 296.346 352.541 292.943V262.547H375.774C384.834 263.214 393.729 259.74 400.193 253.012C406.656 246.283 410.064 236.948 409.548 227.386C410.052 217.908 406.701 208.653 400.335 201.941C393.969 195.228 385.192 191.695 376.204 192.226ZM252.724 227.839H232.718C230.997 227.839 229.061 227.839 229.491 223.983V196.536C229.766 195.49 229.552 194.369 228.914 193.518C228.277 192.666 227.292 192.186 226.264 192.226H207.549C205.292 192.226 204.992 194.496 204.782 196.084L204.752 196.309V275.93C204.752 288.458 214.384 298.614 226.264 298.614H253.154C262.143 299.145 270.92 295.612 277.285 288.899C283.651 282.187 287.002 272.931 286.498 263.453C287.144 253.815 283.794 244.355 277.315 237.523C270.835 230.691 261.864 227.158 252.724 227.839ZM313.605 192.226H295.535C293.169 192.892 291.676 195.352 292.093 197.897V293.17C292.093 296.346 293.814 297.933 295.75 297.933H313.605C315.574 297.701 317.06 295.939 317.047 293.85V197.897C317.693 195.175 317.693 192.906 313.605 192.226Z"/>
</g>
</g>
</svg>
