<svg xmlns="http://www.w3.org/2000/svg" xmlns:xlink="http://www.w3.org/1999/xlink" viewBox="0 0 24 24">
  <path d="M10.22 6.53a1 1 0 0 1 0-1.18l1.13-1.43c0-.06.06-.13 0-.18h-.75a1 1 0 0 0-.79.41l-1 1.35s-.09.05-.12 0V3.92a.22.22 0 0 0-.15-.18h-.81a.18.18 0 0 0-.15.2v4.28c0 .16.07.21.17.2h.79a.16.16 0 0 0 .18-.18V7.05l.17-.22c.08-.09 0-.11.14-.08A12.51 12.51 0 0 1 9.91 8a1 1 0 0 0 .81.44h.69s.1-.05.08-.16zM17 3.75h-.84A.22.22 0 0 0 16 4v4.2c0 .14.08.21.17.21H17a.18.18 0 0 0 .16-.18V4c.03-.12.03-.22-.16-.25zm-2.83 1.57h-.93c-.08 0-.17 0-.15-.17V3.94a.15.15 0 0 0-.15-.19h-.87c-.11 0-.12.11-.13.18v3.51a1 1 0 0 0 1 1h1.25a1.47 1.47 0 0 0 1.55-1.55 1.47 1.47 0 0 0-1.57-1.57zM14 7.37h-.79s-.15 0-.13-.16v-.69c0-.13.07-.15.14-.15H14a.5.5 0 1 1 0 1zm5.91-3.62h-1.25a1 1 0 0 0-1 1v3.44a.24.24 0 0 0 .18.23h.63c.27 0 .33-.08.34-.23V6.85h1.08a1.47 1.47 0 0 0 1.57-1.55 1.47 1.47 0 0 0-1.55-1.55zm-.15 2.05H19c-.12 0-.16 0-.18-.15V5a.17.17 0 0 1 .18-.2h.78a.5.5 0 1 1 0 1z" />
  <path d="M9.37 17L6.85 7.15a.42.42 0 0 0-.41-.33.43.43 0 0 0-.44.42l-.3 6.48-.32-6.48A.43.43 0 0 0 5 6.82a.42.42 0 0 0-.41.33L2 17a.73.73 0 0 0 .2.73 8.24 8.24 0 0 1 2 4.31h3a8.24 8.24 0 0 1 2-4.31.73.73 0 0 0 .17-.73zm-3.67-.8a1 1 0 1 1 1-1 1 1 0 0 1-1 .98z" />
</svg>
