<svg xmlns="http://www.w3.org/2000/svg" xmlns:xlink="http://www.w3.org/1999/xlink" viewBox="0 0 24 24">
  <defs>
    <style>
      .b {
        fill: #020a1a;
      }
    </style>
  </defs>
  <title>language_3_m</title>
  <path class="b" d="M20.17,18h-6a1.08,1.08,0,0,0-.69.28c-.52.44-.69.71-1.43.71s-.91-.27-1.43-.71A1.08,1.08,0,0,0,9.88,18h-6C2.85,18,2,17.43,2,16.77H2V18H2a2,2,0,0,0,2,2H9.52a1,1,0,0,1,.61.22,2.62,2.62,0,0,0,3.74,0,1,1,0,0,1,.61-.22h5.6A1.93,1.93,0,0,0,22,18h0V16.85C21.95,17.47,21.16,18,20.17,18Z"
  />
  <path class="b" d="M10.51,3H3A1,1,0,0,0,2,4V15a2,2,0,0,0,2,2h6.52a.5.5,0,0,0,.5-.5v-13A.5.5,0,0,0,10.51,3Z" />
  <path class="b" d="M21,3H13.51a.5.5,0,0,0-.5.5v13a.5.5,0,0,0,.5.5H20a2,2,0,0,0,2-2V4A1,1,0,0,0,21,3Z" />
</svg>
