<svg xmlns="http://www.w3.org/2000/svg" xmlns:xlink="http://www.w3.org/1999/xlink" viewBox="0 0 24 24">
  <path d="M10.95,11.76c0,.49.53.7,1,.7.79,0,1.42-.46,1.42-.83v-.07a1.77,1.77,0,0,0-1.31-.49C11.49,11.07,10.95,11.29,10.95,11.76Z" />
  <path d="M16.82,8.63a1.28,1.28,0,0,0-1.28,1.16h2.57A1.24,1.24,0,0,0,16.82,8.63Z" />
  <path d="M21,4H3A1,1,0,0,0,2,5V20.8a.5.5,0,0,0,.85.35L7,17H21a1,1,0,0,0,1-1V5A1,1,0,0,0,21,4Zm-1.35,7.17H15.57a1.56,1.56,0,0,0,1.63,1.15A2.41,2.41,0,0,0,18.32,12a.5.5,0,0,1,.67.14l.38.55a.51.51,0,0,1-.16.72A4.66,4.66,0,0,1,17,14a3.13,3.13,0,0,1-2.22-.77.47.47,0,0,0-.6,0A4.07,4.07,0,0,1,11.7,14c-1.56,0-2.88-.67-2.88-2.18a2.14,2.14,0,0,1,2.39-2.19,3.11,3.11,0,0,1,2.2.75V9.63c0-.57-.54-1-1.45-1a3.21,3.21,0,0,0-1.62.45.49.49,0,0,1-.66-.2L9.39,8.4a.49.49,0,0,1,.13-.65A5,5,0,0,1,12.25,7a2.73,2.73,0,0,1,2,.63.49.49,0,0,0,.66,0,3.1,3.1,0,0,1,2-.65c1.8,0,3.15,1.39,3.23,3.56C20.15,10.9,20,11.16,19.68,11.18Z"
  />
</svg>
