<svg xmlns="http://www.w3.org/2000/svg" xmlns:xlink="http://www.w3.org/1999/xlink" viewBox="0 0 24 24">
  <defs>
    <style>
      .b {
        fill: #020a1a;
      }
    </style>
  </defs>
  <title>latin_2_m</title>
  <path class="b" d="M21,4H3A1,1,0,0,0,2,5V20.8a.5.5,0,0,0,.85.35L7,17H21a1,1,0,0,0,1-1V5A1,1,0,0,0,21,4Zm-.84,9.51a.5.5,0,0,1-.5.5H17.49a.5.5,0,0,1-.5-.5V12.9a.53.53,0,0,1,.29-.45,2.09,2.09,0,0,0,.94-2,2.35,2.35,0,0,0-.39-1.34,1.7,1.7,0,0,0-2-.63.59.59,0,0,0-.23.12,2.32,2.32,0,0,0-.84,1.84,2.09,2.09,0,0,0,.94,2,.53.53,0,0,1,.29.45v.62a.5.5,0,0,1-.5.5H13.28a.5.5,0,0,1-.5-.5V13a.5.5,0,0,1,.5-.5h1a2.06,2.06,0,0,1-1-1A3.18,3.18,0,0,1,12.89,10,2.85,2.85,0,0,1,14,7.7a3.87,3.87,0,0,1,2.49-.81A3.87,3.87,0,0,1,19,7.7,2.85,2.85,0,0,1,20.06,10a3.17,3.17,0,0,1-.36,1.48,2.06,2.06,0,0,1-1,1h1a.5.5,0,0,1,.5.5Z"
  />
</svg>
