<svg viewBox="0 0 512 512" xmlns="http://www.w3.org/2000/svg">
<g id="mono_latin">
<g id="Vector">
<path d="M204.904 285.176C221.099 285.176 234.014 275.79 234.014 267.864L235.039 266.196C227.846 259.182 218.135 255.486 208.184 255.975C195.474 255.975 184.404 260.355 184.404 270.576C184.404 280.796 194.244 285.176 204.904 285.176Z"/>
<path d="M303.919 205.29C317.888 204.58 329.797 215.485 330.569 229.694H277.679C278.953 215.934 290.336 205.438 303.919 205.499V205.29Z"/>
<path fill-rule="evenodd" clip-rule="evenodd" d="M464.624 196.756C467.948 210.7 469.523 225.003 469.315 239.336C468.704 265.95 462.723 292.167 451.732 316.42C440.741 340.673 424.964 362.464 405.346 380.49C380.28 402.803 350.709 419.482 318.631 429.399C286.552 439.316 252.715 442.241 219.408 437.974C214.574 436.8 209.529 436.8 204.695 437.974C201.482 439.662 198.536 441.814 195.952 444.361C177.227 460.776 153.059 469.654 128.144 469.271C126.735 469.478 125.299 469.176 124.093 468.419C122.814 467.284 123.24 465.77 123.667 464.256C123.88 463.499 124.093 462.742 124.093 462.032C129.705 449.264 134.131 436.009 137.313 422.432C139.336 416.934 139.336 410.898 137.313 405.4C134.871 401.757 131.578 398.761 127.718 396.671C121.978 392.843 116.494 388.648 111.299 384.11C76.9181 354.563 53.7348 314.131 45.6238 269.568C41.6811 247.53 41.6811 224.968 45.6238 202.93C50.2618 181.04 59.174 160.277 71.8513 141.827C96.4617 103.257 132.661 73.4477 175.269 56.6657C206.255 45.3063 239.336 40.7758 272.241 43.385C305.146 45.9943 337.096 55.6815 365.898 71.7818C389.979 84.8431 411.149 102.657 428.121 124.141C445.093 145.625 457.512 170.33 464.624 196.756ZM334.669 275.79C339.495 273.081 345.563 274.739 348.404 279.545L355.169 290.808C356.757 293.223 357.305 296.194 356.686 299.03C356.066 301.867 354.333 304.322 351.889 305.826C337.929 313.582 322.286 317.669 306.379 317.715C289.735 318.578 273.414 312.818 260.869 301.654C257.303 298.645 252.136 298.645 248.569 301.654C234.115 312.18 216.733 317.734 198.959 317.506C166.569 317.506 139.919 304.157 139.919 272.453C140.067 259.799 145.486 247.803 154.829 239.45C164.173 231.097 176.562 227.172 188.914 228.651C205.37 227.739 221.533 233.345 234.014 244.295V228.025C234.014 215.511 222.739 207.167 204.289 207.167C192.596 207.238 181.133 210.478 171.079 216.553C166.208 219.174 160.171 217.313 157.549 212.382L151.809 201.744C149.103 197.207 150.261 191.316 154.474 188.187C171.192 177.375 190.631 171.724 210.439 171.917C225.28 170.57 240.037 175.299 251.439 185.058C255.273 188.612 261.136 188.612 264.969 185.058C276.666 175.816 291.168 171.021 305.969 171.5C342.869 171.5 371.569 199.867 372.184 244.503C372.389 252.012 369.929 257.852 362.754 257.852H278.294C282.297 272.996 296.345 283.081 311.709 281.839C319.732 281.749 327.612 279.673 334.669 275.79Z"/>
</g>
</g>
</svg>
