<svg xmlns="http://www.w3.org/2000/svg" xmlns:xlink="http://www.w3.org/1999/xlink" viewBox="0 0 24 24">
  <path d="M21,4H3A1,1,0,0,0,2,5V20.8a.5.5,0,0,0,.85.35L7,17H21a1,1,0,0,0,1-1V5A1,1,0,0,0,21,4Zm-3.46,7.17H13.45a1.56,1.56,0,0,0,1.63,1.15A2.4,2.4,0,0,0,16.2,12a.5.5,0,0,1,.67.14l.38.55a.51.51,0,0,1-.16.72,4.66,4.66,0,0,1-2.22.57,3.13,3.13,0,0,1-2.22-.77.47.47,0,0,0-.6,0A4.07,4.07,0,0,1,9.58,14C8,14,6.7,13.36,6.7,11.84A2.14,2.14,0,0,1,9.09,9.66a3.11,3.11,0,0,1,2.2.75V9.63c0-.57-.54-1-1.45-1a3.22,3.22,0,0,0-1.62.45.49.49,0,0,1-.66-.2L7.28,8.4a.49.49,0,0,1,.13-.65A5,5,0,0,1,10.14,7a2.73,2.73,0,0,1,2,.63.49.49,0,0,0,.66,0,3.1,3.1,0,0,1,2-.65C16.6,7,18,8.36,18,10.53,18,10.9,17.92,11.16,17.57,11.18Z"
  />
  <path d="M14.7,8.63a1.28,1.28,0,0,0-1.28,1.16H16A1.24,1.24,0,0,0,14.7,8.63Z" />
  <path d="M8.83,11.76c0,.49.53.7,1,.7.79,0,1.42-.46,1.42-.83v-.07A1.77,1.77,0,0,0,10,11.07C9.37,11.07,8.83,11.29,8.83,11.76Z" />

</svg>
