<svg viewBox="0 0 512 512" xmlns="http://www.w3.org/2000/svg">
<path fill-rule="evenodd" clip-rule="evenodd" d="M362.335 64H404.917C405.219 68.8987 405.359 73.8081 405.336 78.72C405.376 102.678 401.705 126.498 394.456 149.333C387.631 170.042 377.471 189.498 364.376 206.933C359.528 213.129 354.329 219.041 348.803 224.64C342.911 230.172 336.714 235.372 330.243 240.213C327.955 242.169 326.107 244.587 324.82 247.308C324.6 247.774 324.365 248.247 324.128 248.726C322.979 251.045 321.76 253.506 321.709 256V258.347C322.505 267.095 328.637 271.574 334.978 276.205C337.141 277.785 339.328 279.383 341.336 281.173C349.097 287.993 356.236 295.489 362.669 303.573C376.176 320.799 386.638 340.208 393.603 360.96C401.223 383.435 405.185 406.988 405.336 430.72V433.28C405.359 438.192 405.219 443.101 404.917 448H362.669V433.28C362.634 431.073 362.56 428.869 362.446 426.667H149.496C149.402 428.868 149.349 431.072 149.336 433.28V448H107.089C106.787 443.101 106.647 438.192 106.669 433.28C106.771 422.142 107.626 411.023 109.229 400C113.497 368.886 124.727 339.134 142.083 312.96C150.083 301.021 159.623 290.19 170.456 280.747C172.851 278.664 175.692 276.81 178.533 274.955C187.332 269.21 196.143 263.458 191.789 250.88C190.258 245.904 186.323 243.331 182.295 240.698C181.833 240.396 181.37 240.094 180.909 239.787C130.136 205.44 106.669 137.6 106.669 78.72C106.733 73.8052 106.959 68.8959 107.347 64H149.928C149.549 68.8952 149.351 73.8052 149.336 78.72C149.311 80.927 149.327 83.1318 149.384 85.3333H362.581C362.651 83.1319 362.681 80.9271 362.669 78.72C362.74 73.8084 362.628 68.8984 362.335 64ZM153.786 394.667H357.976C357.45 392.382 356.882 390.106 356.269 387.84C354.227 379.166 351.421 370.729 347.902 362.62C347.495 362.651 347.083 362.667 346.667 362.667H165.334C165.001 362.667 164.671 362.656 164.343 362.636C159.814 372.973 156.283 383.698 153.786 394.667ZM181.96 330.667C185.059 326.286 188.411 322.083 192.003 318.08C196.351 313.708 201.061 309.712 206.083 306.133C208.438 304.303 210.935 302.662 213.549 301.227C214.801 300.512 215.977 299.684 217.158 298.854C218.794 297.703 220.437 296.548 222.296 295.68L227.843 293.547C232.476 292.559 237.188 291.988 241.923 291.84C257.817 289.444 274.06 291.208 289.069 296.96C299.985 302.307 309.877 309.527 318.296 318.293C322.101 322.231 325.675 326.362 329.006 330.667H181.96ZM153.14 117.333C155.456 128.326 158.815 139.09 163.179 149.477C163.883 149.382 164.603 149.333 165.334 149.333H346.667C347.303 149.333 347.931 149.371 348.548 149.443C352.927 139.063 356.312 128.311 358.669 117.333H153.14ZM320.003 193.493C323.71 189.642 327.183 185.581 330.405 181.333H181.262C184.578 185.672 188.164 189.805 192.003 193.707C195.796 198.051 200.351 201.666 205.443 204.373C211.729 207.323 218.413 209.336 225.283 210.347C240.927 212.941 256.818 213.728 272.643 212.693H281.603C289.777 211.425 297.743 209.057 305.283 205.653C310.881 202.518 315.867 198.399 320.003 193.493Z" fill="#323C45"/>
</svg>
