<svg viewBox="0 0 512 512" xmlns="http://www.w3.org/2000/svg">
<g id="mono_life-science">
<path id="Vector" fill-rule="evenodd" clip-rule="evenodd" d="M322.773 256C322.834 252.991 323.53 250.029 324.817 247.308C326.104 244.587 327.952 242.169 330.24 240.214C336.711 235.372 342.908 230.173 348.8 224.64C354.326 219.041 359.525 213.129 364.373 206.934C377.468 189.499 387.628 170.043 394.453 149.334C401.702 126.498 405.373 102.679 405.333 78.7203C405.389 66.6472 404.462 54.5895 402.56 42.667H359.893C361.389 51.4888 362.286 60.398 362.58 69.3337H149.584C150.035 60.3872 151.091 51.4779 152.746 42.667H110.08C107.963 54.5719 106.822 66.6297 106.666 78.7203C106.666 137.6 130.133 205.44 180.906 239.787C181.367 240.094 181.83 240.397 182.292 240.699C186.32 243.332 190.255 245.904 191.786 250.88C196.141 263.459 187.329 269.211 178.53 274.955C175.689 276.81 172.848 278.664 170.453 280.747C159.62 290.19 150.08 301.022 142.08 312.96C124.724 339.135 113.494 368.886 109.226 400C107.623 411.023 106.768 422.142 106.666 433.28C106.61 445.353 107.538 457.411 109.44 469.334H152.106C152.106 466.347 152.106 463.574 150.613 460.587C149.283 457.926 149.307 453.404 149.328 449.432L149.333 448V442.454H362.666V448C362.666 452.267 362.666 456.534 361.386 460.587C360.478 463.464 360.322 465.159 360.155 466.968C360.087 467.708 360.017 468.467 359.893 469.334H402.56C404.462 457.411 405.389 445.353 405.333 433.28V430.72C405.182 406.989 401.22 383.436 393.6 360.96C386.635 340.208 376.174 320.799 362.666 303.574C356.233 295.489 349.094 287.993 341.333 281.174C339.325 279.383 337.138 277.785 334.975 276.205C328.634 271.575 322.502 267.096 321.706 258.347L322.773 256ZM360.889 410.454H150.929C152.397 399.561 154.866 388.832 158.303 378.404C158.722 378.437 159.146 378.454 159.573 378.454H352.426C352.86 378.454 353.29 378.436 353.715 378.403C354.667 381.514 355.518 384.661 356.266 387.84C358.277 395.282 359.82 402.835 360.889 410.454ZM339.684 346.454H172.292C177.658 336.22 184.277 326.689 192 318.08C196.348 313.709 201.058 309.712 206.08 306.134C208.435 304.303 210.932 302.662 213.546 301.227C214.798 300.512 215.975 299.684 217.155 298.854C218.791 297.704 220.434 296.548 222.293 295.68L227.84 293.547C232.473 292.559 237.185 291.988 241.92 291.84C257.814 289.445 274.057 291.209 289.066 296.96C299.982 302.307 309.874 309.528 318.293 318.294C326.55 326.838 333.72 336.298 339.684 346.454ZM150.521 101.334H361.352C360.025 112.235 357.701 122.988 354.413 133.456C353.762 133.375 353.099 133.334 352.426 133.334H159.573C158.816 133.334 158.072 133.386 157.343 133.488C154.082 123.012 151.797 112.248 150.521 101.334ZM170.785 165.334C176.543 175.705 183.68 185.25 192 193.707C195.793 198.051 200.348 201.666 205.44 204.374C211.726 207.324 218.41 209.336 225.28 210.347C240.924 212.941 256.815 213.729 272.64 212.694H281.6C289.774 211.425 297.74 209.057 305.28 205.654C310.878 202.519 315.865 198.399 320 193.494C328.139 185.037 335.15 175.571 340.862 165.334H170.785Z"/>
</g>
</svg>
