<svg xmlns="http://www.w3.org/2000/svg" xmlns:xlink="http://www.w3.org/1999/xlink" viewBox="0 0 24 24">
  <path d="M19,4H15.55A3.52,3.52,0,0,0,12,7.54V8A4,4,0,0,0,8,4H5A1,1,0,0,0,4,5V17.48a.5.5,0,0,0,.5.5H8a4,4,0,0,1,3.83,2.94.14.14,0,0,0,.26,0A4,4,0,0,1,16,18h3.46a.5.5,0,0,0,.5-.5V5A1,1,0,0,0,19,4Z" />
  <path d="M9.24,19H3.48a.5.5,0,0,1-.5-.5v-13a.5.5,0,0,0-1,0v14a.5.5,0,0,0,.5.5H9.73a.25.25,0,0,0,.25-.25A.75.75,0,0,0,9.24,19Z" />
  <path d="M21.48,5a.5.5,0,0,0-.5.5v13a.5.5,0,0,1-.5.5H14.73a.75.75,0,0,0-.75.75.25.25,0,0,0,.25.25h7.25a.5.5,0,0,0,.5-.5v-14A.5.5,0,0,0,21.48,5Z" />
</svg>
