<svg viewBox="0 0 512 512" xmlns="http://www.w3.org/2000/svg">
<g id="mono_literature">
<g id="Vector">
<path d="M118.671 132.721L114.11 117.386C105.64 119.905 100.816 128.814 103.335 137.284C105.839 145.701 114.653 150.518 123.076 148.104L123.329 148.04C123.647 147.963 124.249 147.826 125.129 147.662C126.888 147.334 129.763 146.898 133.71 146.619C141.591 146.063 153.805 146.132 169.997 148.987C186.189 151.842 197.69 155.955 204.906 159.173C208.519 160.784 211.072 162.178 212.613 163.088C213.384 163.543 213.902 163.877 214.174 164.058L214.391 164.205C221.48 169.354 231.41 167.843 236.641 160.789C241.906 153.692 240.42 143.671 233.322 138.407C233.327 138.41 233.322 138.407 223.79 151.257L233.322 138.407L233.301 138.391L233.279 138.375L233.23 138.338L233.113 138.253L232.806 138.035C232.569 137.868 232.266 137.66 231.897 137.414C231.158 136.923 230.155 136.284 228.881 135.531C226.332 134.026 222.701 132.071 217.94 129.948C208.408 125.697 194.401 120.796 175.554 117.473C156.706 114.15 141.868 113.964 131.457 114.699C126.257 115.066 122.177 115.661 119.266 116.203C117.812 116.474 116.65 116.732 115.789 116.941C115.358 117.045 115.002 117.138 114.722 117.213L114.359 117.314L114.22 117.354L114.161 117.371L114.134 117.379C114.128 117.381 114.11 117.386 118.671 132.721Z"/>
<path d="M74.6678 128.072V362.419C74.6482 363.848 74.9062 365.267 75.4258 366.586C75.9455 367.906 76.7157 369.099 77.6887 370.091C79.6751 371.997 82.2571 373.059 84.9388 373.074C143.375 370.894 200.901 388.842 248.873 424.219C249.82 425.124 250.911 425.845 252.095 426.35C253.353 426.667 254.664 426.667 255.921 426.35C257.181 426.652 258.488 426.652 259.748 426.35C260.932 425.845 262.023 425.124 262.97 424.219C310.906 388.908 368.325 370.897 426.703 372.861C429.45 372.879 432.106 371.816 434.154 369.878C436 367.873 437.076 365.215 437.175 362.419V128.072H448C459.782 128.072 469.333 137.624 469.333 149.406V426.739C469.333 438.521 459.782 448.072 448 448.072H292.951C291.102 451.274 288.83 454.249 286.17 456.909C278.168 464.91 267.316 469.406 256 469.406C244.684 469.406 233.832 464.91 225.83 456.909C223.17 454.249 220.898 451.274 219.05 448.072H64.0001C52.218 448.072 42.6667 438.521 42.6667 426.739V149.406C42.6667 137.624 52.218 128.072 64.0001 128.072H74.6678Z"/>
<path d="M114.108 202.719L118.67 218.055C114.108 202.719 114.102 202.721 114.108 202.719L114.133 202.712L114.16 202.704L114.219 202.687L114.357 202.647L114.721 202.546C115.001 202.471 115.357 202.378 115.787 202.274C116.649 202.065 117.811 201.807 119.265 201.536C122.175 200.994 126.256 200.399 131.456 200.032C141.867 199.297 156.705 199.483 175.553 202.806C194.4 206.129 208.407 211.03 217.939 215.281C222.7 217.404 226.331 219.359 228.88 220.864C230.154 221.617 231.157 222.256 231.896 222.747C232.265 222.993 232.568 223.201 232.805 223.368L233.112 223.586L233.229 223.671L233.278 223.708L233.3 223.724C233.305 223.728 233.321 223.74 223.789 236.59L233.321 223.74C240.418 229.004 241.905 239.025 236.64 246.122C231.409 253.176 221.479 254.687 214.39 249.538L214.173 249.391C213.901 249.21 213.383 248.876 212.612 248.421C211.07 247.511 208.518 246.117 204.905 244.506C197.689 241.288 186.188 237.175 169.996 234.32C153.804 231.465 141.59 231.396 133.709 231.952C129.762 232.231 126.887 232.667 125.128 232.995C124.248 233.159 123.646 233.296 123.328 233.373L123.075 233.437C114.652 235.851 105.838 231.034 103.334 222.617C100.815 214.147 105.639 205.238 114.108 202.719Z"/>
<path d="M118.67 303.388L114.108 288.052C105.639 290.572 100.815 299.48 103.334 307.95C105.838 316.367 114.652 321.184 123.075 318.77L123.328 318.706C123.646 318.629 124.248 318.492 125.128 318.328C126.887 318 129.762 317.564 133.709 317.286C141.59 316.73 153.804 316.798 169.996 319.653C186.188 322.508 197.689 326.621 204.905 329.839C208.518 331.451 211.07 332.844 212.612 333.754C213.383 334.209 213.901 334.544 214.173 334.725L214.39 334.872C221.479 340.02 231.409 338.509 236.64 331.455C241.905 324.358 240.418 314.337 233.321 309.073L223.789 321.924C233.321 309.073 233.326 309.077 233.321 309.073L233.3 309.057L233.278 309.041L233.229 309.005L233.112 308.92L232.805 308.701C232.568 308.534 232.265 308.326 231.896 308.08C231.157 307.589 230.154 306.95 228.88 306.198C226.331 304.693 222.7 302.738 217.939 300.614C208.407 296.363 194.4 291.462 175.553 288.139C156.705 284.816 141.867 284.63 131.456 285.365C126.256 285.732 122.175 286.327 119.265 286.87C117.811 287.141 116.649 287.398 115.787 287.607C115.357 287.712 115.001 287.804 114.721 287.88L114.357 287.98L114.219 288.02L114.16 288.037L114.133 288.045L114.108 288.052C114.102 288.054 114.108 288.052 118.67 303.388Z"/>
<path d="M397.91 117.386L393.351 132.715C397.91 117.386 397.917 117.388 397.91 117.386L397.886 117.379L397.859 117.371L397.8 117.354L397.661 117.314L397.298 117.213C397.018 117.138 396.662 117.045 396.231 116.941C395.37 116.732 394.208 116.474 392.754 116.203C389.843 115.661 385.763 115.066 380.563 114.699C370.152 113.964 355.313 114.15 336.466 117.473C317.619 120.796 303.612 125.697 294.08 129.948C289.319 132.071 285.688 134.026 283.139 135.531C281.865 136.284 280.861 136.923 280.123 137.414C279.754 137.66 279.451 137.868 279.214 138.035L278.907 138.253L278.79 138.338L278.741 138.375L278.719 138.391C278.713 138.395 278.698 138.407 288.229 151.257L278.698 138.407C271.6 143.671 270.114 153.692 275.379 160.789C280.61 167.843 290.54 169.354 297.629 164.205L297.845 164.058C298.118 163.877 298.636 163.543 299.407 163.088C300.948 162.178 303.501 160.784 307.114 159.173C314.33 155.955 325.83 151.842 342.023 148.987C358.215 146.132 370.429 146.063 378.31 146.619C382.256 146.898 385.132 147.334 386.891 147.662C387.771 147.826 388.373 147.963 388.691 148.04L388.944 148.104C397.367 150.518 406.181 145.701 408.685 137.284C411.204 128.814 406.38 119.905 397.91 117.386Z"/>
<path d="M393.352 218.055L397.914 202.719C406.384 205.238 411.208 214.147 408.688 222.617C406.185 231.034 397.37 235.851 388.948 233.437L388.695 233.373C388.377 233.296 387.775 233.159 386.895 232.995C385.135 232.667 382.26 232.231 378.314 231.952C370.433 231.396 358.219 231.465 342.027 234.32C325.834 237.175 314.334 241.288 307.118 244.506C303.505 246.117 300.952 247.511 299.411 248.421C298.64 248.876 298.121 249.21 297.849 249.391L297.633 249.538C290.544 254.687 280.614 253.176 275.382 246.122C270.118 239.025 271.604 229.004 278.701 223.74L288.233 236.59C278.701 223.74 278.696 223.743 278.701 223.74L278.722 223.724L278.745 223.708L278.794 223.671L278.911 223.586L279.218 223.368C279.455 223.201 279.758 222.993 280.127 222.747C280.865 222.256 281.868 221.617 283.143 220.864C285.692 219.359 289.323 217.404 294.084 215.281C303.615 211.03 317.622 206.129 336.47 202.806C355.317 199.483 370.156 199.297 380.566 200.032C385.766 200.399 389.847 200.994 392.757 201.536C394.212 201.807 395.373 202.065 396.235 202.274C396.666 202.378 397.022 202.471 397.302 202.546L397.665 202.647L397.804 202.687L397.863 202.704L397.889 202.712C397.895 202.714 397.914 202.719 393.352 218.055Z"/>
<path d="M397.912 288.052L393.351 303.388C397.912 288.052 397.919 288.054 397.912 288.052L397.888 288.045L397.861 288.037L397.802 288.02L397.664 287.98L397.3 287.88C397.02 287.804 396.664 287.712 396.233 287.607C395.372 287.398 394.21 287.141 392.756 286.87C389.846 286.327 385.765 285.732 380.565 285.365C370.154 284.63 355.316 284.816 336.468 288.139C317.621 291.462 303.614 296.363 294.082 300.614C289.321 302.738 285.69 304.693 283.141 306.198C281.867 306.95 280.864 307.589 280.125 308.08C279.756 308.326 279.453 308.534 279.216 308.701L278.909 308.92L278.792 309.005L278.743 309.041L278.721 309.057C278.716 309.061 278.7 309.073 288.232 321.924L278.7 309.073C271.602 314.337 270.116 324.358 275.381 331.455C280.612 338.509 290.542 340.02 297.631 334.872L297.848 334.725C298.12 334.544 298.638 334.209 299.409 333.754C300.951 332.844 303.503 331.451 307.116 329.839C314.332 326.621 325.833 322.508 342.025 319.653C358.217 316.798 370.431 316.73 378.312 317.286C382.259 317.564 385.134 318 386.893 318.328C387.773 318.492 388.375 318.629 388.693 318.706L388.946 318.77C397.369 321.184 406.183 316.367 408.687 307.95C411.206 299.48 406.382 290.572 397.912 288.052Z"/>
</g>
</g>
</svg>
