<svg viewBox="0 0 512 512" xmlns="http://www.w3.org/2000/svg">
<g id="mono_logic">
<g id="Vector">
<path d="M188.395 384.263H204.604L253.438 383.41C255.685 383.919 258.225 384.986 260.514 385.947L261.234 386.249C263.7 387.28 265.914 388.831 267.725 390.796C270.118 393.221 271.847 396.221 272.743 399.508C273.639 402.794 273.674 406.256 272.843 409.56C270.721 416.4 266.46 422.378 260.688 426.618C258.001 428.929 255.932 431.874 254.668 435.186C253.405 438.497 252.988 442.072 253.453 445.585C253.919 449.099 255.253 452.441 257.336 455.31C259.418 458.178 262.183 460.482 265.38 462.014C275.645 467.293 287.115 469.792 298.646 469.263C310.931 469.784 323.097 466.669 333.619 460.308C336.377 458.633 338.719 456.355 340.469 453.645C342.218 450.934 343.33 447.862 343.72 444.66C344.11 441.457 343.769 438.208 342.721 435.157C341.673 432.105 339.946 429.332 337.671 427.045L332.34 421.927C329.877 419.6 327.924 416.788 326.603 413.669C325.281 410.55 324.621 407.19 324.663 403.803C324.737 401.139 325.36 398.519 326.492 396.107C327.624 393.694 329.24 391.541 331.241 389.78C333.242 388.02 335.583 386.69 338.121 385.875C340.658 385.059 343.336 384.774 345.988 385.039H441.31C447.92 385.039 447.92 384.826 447.92 379.495V302.734C448.027 301.386 448.027 300.031 447.92 298.683C447.339 294.886 445.297 291.467 442.228 289.157C439.16 286.846 435.31 285.826 431.5 286.316C427.807 286.311 424.151 287.044 420.745 288.472C417.339 289.9 414.253 291.994 411.668 294.631C407.469 298.107 402.585 300.66 397.333 302.123C392.082 303.585 386.581 303.925 381.189 303.121C375.797 302.316 370.636 300.385 366.04 297.453C361.445 294.52 357.519 290.653 354.518 286.102C349.324 277.725 346.45 268.118 346.188 258.265C345.925 248.412 348.285 238.666 353.025 230.024C355.856 224.917 359.803 220.514 364.572 217.144C369.341 213.774 374.809 211.524 380.569 210.56C386.328 209.597 392.231 209.946 397.837 211.581C403.444 213.216 408.609 216.094 412.948 220.002C415.414 222.216 418.223 224.017 421.264 225.333C434.059 231.09 447.92 225.333 447.92 213.392V134.499C447.92 129.382 447.707 127.956 441.949 127.956H347.907C337.031 126.89 331.06 120.853 333.406 111.684C335.54 106.128 339.153 101.261 343.855 97.6109C347.093 94.7851 349.617 91.2348 351.224 87.249C352.83 83.2631 353.472 78.9544 353.098 74.6735C352.724 70.3926 351.344 66.2605 349.071 62.6136C346.798 58.9667 343.695 55.908 340.017 53.6865C328.255 47.0467 315.086 43.2944 301.591 42.7383C288.096 42.1823 274.662 44.8384 262.394 50.4881C257.8 52.2772 253.752 55.2327 250.649 59.0632C247.546 62.8937 245.495 67.4668 244.698 72.3316C243.902 77.1963 244.387 82.1847 246.107 86.8046C247.826 91.4246 250.72 95.5166 254.504 98.6771C257.288 100.88 259.669 103.55 261.541 106.566C267.725 116.801 263.034 127.956 246.4 127.956H188.182C183.469 127.956 179.649 131.777 179.649 136.49V173.326C189.382 169.773 199.869 168.784 210.099 170.459C220.451 172.153 230.183 176.517 238.334 183.119C246.209 189.497 252.346 197.752 256.186 207.117C263.711 223.771 267.24 241.958 266.487 260.225C265.723 278.779 260.563 296.886 251.432 313.055L251.201 313.464L250.959 313.865C246.134 321.854 239.49 328.591 231.568 333.527C223.647 338.464 214.671 341.46 205.373 342.272C196.717 343.029 188.008 341.873 179.862 338.895V375.729C179.862 380.442 183.682 384.263 188.395 384.263Z"/>
<path d="M149.493 298.854C152.358 292.24 158.452 289.044 165.574 290.866C171.131 293 175.998 296.613 179.649 301.314C182.475 304.552 186.025 307.076 190.012 308.682C193.998 310.288 198.307 310.93 202.588 310.556C206.87 310.182 211.002 308.802 214.65 306.529C218.297 304.257 221.356 301.155 223.578 297.476C230.218 285.716 233.971 272.548 234.527 259.054C234.584 257.662 234.608 256.271 234.597 254.881C234.514 242.782 231.855 230.822 226.78 219.804C224.991 215.213 222.037 211.167 218.208 208.066C214.379 204.965 209.808 202.915 204.945 202.119C200.082 201.323 195.096 201.808 190.478 203.527C185.86 205.245 181.769 208.138 178.61 211.919C176.408 214.701 173.739 217.081 170.724 218.952C160.493 225.132 147.705 220.443 147.705 203.82V136.635C147.705 131.922 143.884 128.102 139.171 128.102H72.5299C67.819 128.102 64 131.92 64 136.631V375.444C64 380.154 67.819 383.973 72.5299 383.973H139.384C144.097 383.973 147.918 380.152 147.918 375.439V305.264C148.152 302.879 148.693 300.73 149.493 298.854Z"/>
</g>
</g>
</svg>
