<svg xmlns="http://www.w3.org/2000/svg" xmlns:xlink="http://www.w3.org/1999/xlink" viewBox="0 0 24 24">
  <title>logic</title>
  <path d="M20.49,8A9,9,0,0,0,3,10.92H3l0,3.64H3a7.5,7.5,0,1,0,15-.11h0L18,12H20a1,1,0,0,0,1-1A9,9,0,0,0,20.49,8ZM8.95,14.79a.5.5,0,0,1-.83.37l-2-1.79A.5.5,0,0,1,5.95,13V11.32A.5.5,0,0,1,6.78,11l2,1.79a.5.5,0,0,1,.17.37Zm.19-3.07L6.48,9.44a.5.5,0,0,1,0-.76L9.2,6.35a.5.5,0,0,1,.65,0l2.66,2.28a.5.5,0,0,1,0,.76L9.79,11.72A.5.5,0,0,1,9.14,11.72ZM12.95,13a.5.5,0,0,1-.17.37l-2,1.8a.5.5,0,0,1-.83-.37V13.12a.5.5,0,0,1,.17-.37l2-1.8a.5.5,0,0,1,.83.37ZM16,10a1,1,0,1,1,1-1A1,1,0,0,1,16,10Z"
  />
</svg>
