<svg viewBox="0 0 512 512" xmlns="http://www.w3.org/2000/svg">
<g id="mono_mathematics">
<g id="Vector">
<path fill-rule="evenodd" clip-rule="evenodd" d="M298.667 64C286.885 64 277.333 73.5513 277.333 85.3333V213.333C277.333 225.115 286.885 234.667 298.667 234.667H426.667C438.449 234.667 448 225.115 448 213.333V85.3333C448 73.5513 438.449 64 426.667 64H298.667ZM384 117.333C384 129.115 374.449 138.667 362.667 138.667C350.885 138.667 341.333 129.115 341.333 117.333C341.333 105.551 350.885 96 362.667 96C374.449 96 384 105.551 384 117.333ZM362.667 202.667C374.449 202.667 384 193.115 384 181.333C384 169.551 374.449 160 362.667 160C350.885 160 341.333 169.551 341.333 181.333C341.333 193.115 350.885 202.667 362.667 202.667Z"/>
<path fill-rule="evenodd" clip-rule="evenodd" d="M64 298.667C64 286.885 73.5513 277.333 85.3333 277.333H213.333C225.115 277.333 234.667 286.885 234.667 298.667V426.667C234.667 438.449 225.115 448 213.333 448H85.3333C73.5513 448 64 438.449 64 426.667V298.667ZM104.078 347.582C95.7466 339.251 95.7466 325.743 104.078 317.412C112.409 309.081 125.917 309.081 134.248 317.412L149.333 332.497L164.418 317.412C172.749 309.081 186.256 309.081 194.587 317.412C202.919 325.743 202.919 339.251 194.587 347.582L179.503 362.667L194.587 377.752C202.919 386.083 202.919 399.59 194.587 407.921C186.256 416.253 172.749 416.253 164.418 407.921L149.333 392.837L134.248 407.921C125.917 416.253 112.409 416.253 104.078 407.921C95.7466 399.59 95.7466 386.083 104.078 377.752L119.163 362.667L104.078 347.582Z"/>
<path fill-rule="evenodd" clip-rule="evenodd" d="M298.667 277.333C286.885 277.333 277.333 286.885 277.333 298.667V426.667C277.333 438.449 286.885 448 298.667 448H426.667C438.449 448 448 438.449 448 426.667V298.667C448 286.885 438.449 277.333 426.667 277.333H298.667ZM426.667 362.667C426.667 350.885 417.115 341.333 405.333 341.333H320C308.218 341.333 298.667 350.885 298.667 362.667C298.667 374.449 308.218 384 320 384H405.333C417.115 384 426.667 374.449 426.667 362.667Z"/>
<path fill-rule="evenodd" clip-rule="evenodd" d="M64 85.3333C64 73.5513 73.5513 64 85.3333 64H213.333C225.115 64 234.667 73.5513 234.667 85.3333V213.333C234.667 225.115 225.115 234.667 213.333 234.667H85.3333C73.5513 234.667 64 225.115 64 213.333V85.3333ZM128 106.667C128 94.8846 137.551 85.3333 149.333 85.3333C161.115 85.3333 170.667 94.8846 170.667 106.667V128H192C203.782 128 213.333 137.551 213.333 149.333C213.333 161.115 203.782 170.667 192 170.667H170.667V192C170.667 203.782 161.115 213.333 149.333 213.333C137.551 213.333 128 203.782 128 192V170.667H106.667C94.8846 170.667 85.3333 161.115 85.3333 149.333C85.3333 137.551 94.8846 128 106.667 128H128V106.667Z"/>
</g>
</g>
</svg>
