<svg xmlns="http://www.w3.org/2000/svg" xmlns:xlink="http://www.w3.org/1999/xlink" viewBox="0 0 24 24">
  <defs>
    <style>
      .b {
        fill: #020a1a;
      }
    </style>
  </defs>
  <title>nigerian-lang</title>
  <path class="b" d="M21,4H3A1,1,0,0,0,2,5V20.8a.5.5,0,0,0,.85.35L7,17H21a1,1,0,0,0,1-1V5A1,1,0,0,0,21,4Zm-8.75,9.51a.5.5,0,0,1-.5.5h-1a.5.5,0,0,1-.4-.21L8,10.59a.25.25,0,0,0-.45.15v2.77a.5.5,0,0,1-.5.5h-.8a.5.5,0,0,1-.5-.5v-6a.5.5,0,0,1,.5-.5h1.1a.5.5,0,0,1,.4.2l2.23,3a.25.25,0,0,0,.45-.15V7.53a.5.5,0,0,1,.5-.5h.81a.5.5,0,0,1,.5.5Zm7.86-.95a.51.51,0,0,1-.14.36A4,4,0,0,1,17,14.14a3.56,3.56,0,0,1-3.78-3.61A3.56,3.56,0,0,1,17,6.91a3.27,3.27,0,0,1,2.65,1.21.5.5,0,0,1-.17.75l-.63.33a.5.5,0,0,1-.6-.12,1.67,1.67,0,0,0-2-.39,2.05,2.05,0,0,0-1.17,1.82,1.93,1.93,0,0,0,1.95,2,2.56,2.56,0,0,0,1.39-.42c.17-.19.17-.66,0-.69H17.24c-.28,0-.5-.07-.5-.35V10.5a.5.5,0,0,1,.5-.5h2.37a.5.5,0,0,1,.5.5Z"
  />
</svg>
