<svg xmlns="http://www.w3.org/2000/svg" xmlns:xlink="http://www.w3.org/1999/xlink" viewBox="0 0 24 24">
  <defs>
    <style>
      .b {
        fill: #020a1a;
      }
    </style>
  </defs>
  <title>other-languages_m</title>
  <path class="b" d="M21,4H3A1,1,0,0,0,2,5V20.8a.5.5,0,0,0,.85.35L7,17H21a1,1,0,0,0,1-1V5A1,1,0,0,0,21,4ZM8.6,14.17a1.5,1.5,0,1,1,1.5-1.5A1.52,1.52,0,0,1,8.6,14.17Zm4.94,0a1.5,1.5,0,1,1,1.5-1.5A1.52,1.52,0,0,1,13.54,14.17Zm4.94,0a1.5,1.5,0,1,1,1.5-1.5A1.52,1.52,0,0,1,18.48,14.17Z"
  />
</svg>
