<svg viewBox="0 0 512 512" xmlns="http://www.w3.org/2000/svg">
<g id="mono_pedagogics">
<path id="Vector" fill-rule="evenodd" clip-rule="evenodd" d="M426.667 64H85.3333C73.5513 64 64 73.5513 64 85.3333V341.333C64 353.115 73.5513 362.667 85.3333 362.667H192V416C192 430.145 198.743 443.71 210.745 453.712C222.747 463.714 239.026 469.333 256 469.333C272.974 469.333 289.253 463.714 301.255 453.712C313.257 443.71 320 430.145 320 416V362.667H426.667C438.449 362.667 448 353.115 448 341.333V85.3333C448 73.5513 438.449 64 426.667 64ZM320 362.667H192V298.667C192 281.693 198.743 265.414 210.745 253.412C222.747 241.41 239.026 234.667 256 234.667C272.974 234.667 289.253 241.41 301.255 253.412C313.257 265.414 320 281.693 320 298.667V362.667ZM298.667 170.667C298.667 194.231 279.564 213.333 256 213.333C232.436 213.333 213.333 194.231 213.333 170.667C213.333 147.103 232.436 128 256 128C279.564 128 298.667 147.103 298.667 170.667Z"/>
</g>
</svg>
