<svg xmlns="http://www.w3.org/2000/svg" xmlns:xlink="http://www.w3.org/1999/xlink" viewBox="0 0 24 24">
  <defs>
    <style>
      .b {
        fill: #020a1a;
      }
    </style>
  </defs>
  <title>philosophy_1_m</title>
  <path class="b" d="M20.55,8A9,9,0,0,0,3,10.92H3l0,3.64a7.5,7.5,0,0,0,5,7V12.31A4.06,4.06,0,0,1,5,8.54s0-.1,0-.15a1,1,0,0,1,2,.06v.09a1.9,1.9,0,0,0,1,1.6V7c.16-2.64,5.69-3.27,6,1.5a4.15,4.15,0,0,1-4,4V22l.55,0A7.5,7.5,0,0,0,18,14.45h0L18,12h2.05a1,1,0,0,0,1-1A9,9,0,0,0,20.55,8Zm-4.48,2a1,1,0,1,1,1-1A1,1,0,0,1,16.07,10Z"
  />
  <path class="b" d="M10,8.07c0-1.07,1.19-1.15,1.72-.46a1.32,1.32,0,0,1,.28.92,2.17,2.17,0,0,1-2,2Z" />
</svg>
