<svg viewBox="0 0 512 512" xmlns="http://www.w3.org/2000/svg">
<g id="mono_philosophy">
<g id="Vector">
<path d="M301.92 184.845C298.081 187.423 293.568 188.8 288.951 188.8C282.76 188.8 276.822 186.327 272.444 181.926C268.067 177.526 265.607 171.557 265.607 165.333C265.607 160.692 266.976 156.155 269.541 152.296C272.106 148.437 275.752 145.429 280.018 143.653C284.283 141.877 288.977 141.412 293.505 142.317C298.033 143.223 302.193 145.458 305.457 148.74C308.722 152.021 310.945 156.203 311.846 160.755C312.747 165.307 312.284 170.025 310.518 174.313C308.751 178.601 305.759 182.266 301.92 184.845Z"/>
<path fill-rule="evenodd" clip-rule="evenodd" d="M469.333 224C469.333 284.278 440.076 337.687 395.058 370.658V448H182.843V405.333H140.4C134.771 405.333 129.374 403.086 125.394 399.085C121.414 395.084 119.178 389.658 119.178 384V298.667H72.4902C65.6993 298.667 61.455 288.64 65.6993 281.6L109.199 208.719C116.918 115.722 194.447 42.6665 288.95 42.6665C388.573 42.6665 469.333 123.852 469.333 224ZM371.483 306.967C393.372 284.963 405.669 255.119 405.669 224C405.669 192.881 393.372 163.037 371.483 141.033C349.594 119.028 319.906 106.667 288.95 106.667C273.472 106.667 258.629 112.847 247.684 123.85C236.74 134.852 230.591 149.774 230.591 165.333C230.591 180.893 236.74 195.815 247.684 206.817C258.629 217.819 273.472 224 288.95 224C304.428 224 319.272 230.181 330.217 241.183C341.161 252.185 347.31 267.107 347.31 282.667C347.31 298.226 341.161 313.148 330.217 324.15C319.272 335.152 304.428 341.333 288.95 341.333C319.906 341.333 349.594 328.971 371.483 306.967ZM288.951 306.133C293.568 306.133 298.081 304.757 301.92 302.178C305.759 299.6 308.751 295.935 310.518 291.647C312.284 287.359 312.747 282.64 311.846 278.088C310.945 273.536 308.722 269.355 305.457 266.073C302.193 262.791 298.033 260.556 293.505 259.651C288.977 258.745 284.283 259.21 280.018 260.986C275.752 262.762 272.106 265.77 269.541 269.629C266.976 273.488 265.607 278.025 265.607 282.666C265.607 288.89 268.067 294.859 272.444 299.26C276.822 303.661 282.76 306.133 288.951 306.133Z"/>
</g>
</g>
</svg>
