<svg viewBox="0 0 512 512" fill="none" xmlns="http://www.w3.org/2000/svg">
<path d="M429.336 380.39C454.509 345.374 469.334 302.418 469.334 256C469.334 209.582 454.509 166.627 429.336 131.61C393.801 161.352 371.2 206.037 371.2 256C371.2 305.964 393.801 350.649 429.336 380.39Z" fill="#323C45"/>
<path d="M394.667 418.125C348.964 378.998 320 320.881 320 256C320 191.119 348.964 133.003 394.667 93.8759C357.376 61.95 308.94 42.667 256 42.667C138.18 42.667 42.667 138.18 42.667 256C42.667 302.418 57.492 345.374 82.6652 380.39C118.2 350.649 140.8 305.964 140.8 256C140.8 206.037 118.2 161.352 82.6652 131.61C92.6781 117.682 104.328 105.01 117.334 93.8758C163.037 133.003 192 191.119 192 256C192 320.881 163.037 378.998 117.334 418.125C154.625 450.051 203.061 469.334 256 469.334C308.94 469.334 357.376 450.051 394.667 418.125Z" fill="#323C45"/>
</svg>
