<svg viewBox="0 0 512 512" xmlns="http://www.w3.org/2000/svg">
<path d="M78.6449 312.925C81.5202 315.801 86.182 315.801 89.0574 312.925L156.738 245.244C159.614 242.369 159.614 237.707 156.738 234.832L126.152 204.245C122.7 200.793 118.018 198.854 113.136 198.854C108.254 198.854 103.573 200.793 100.121 204.245L48.0582 256.307C44.6063 259.759 42.667 264.441 42.667 269.323C42.667 274.205 44.6063 278.887 48.0582 282.339L78.6449 312.925Z" fill="#323C45"/>
<path d="M312.926 78.6446C315.801 81.52 315.801 86.1818 312.926 89.0571L245.244 156.738C242.369 159.614 237.707 159.614 234.832 156.738L204.245 126.152C200.793 122.7 198.854 118.018 198.854 113.136C198.854 108.254 200.793 103.572 204.245 100.12L256.308 48.058C259.76 44.606 264.442 42.6667 269.323 42.6667C274.205 42.6667 278.887 44.606 282.339 48.058L312.926 78.6446Z" fill="#323C45"/>
<path d="M399.479 399.479L321.386 321.385C311.03 331.741 296.984 337.559 282.339 337.559C267.694 337.559 253.648 331.741 243.292 321.385L186.674 264.768C183.799 261.892 179.137 261.892 176.262 264.768L108.581 332.449C105.705 335.324 105.705 339.986 108.581 342.861L165.199 399.479C196.266 430.547 238.403 448 282.339 448C326.275 448 368.412 430.547 399.479 399.479Z" fill="#323C45"/>
<path d="M399.479 399.479L321.386 321.385C331.742 311.03 337.559 296.984 337.559 282.339C337.559 267.693 331.742 253.648 321.386 243.292L264.768 186.674C261.893 183.799 261.893 179.137 264.768 176.262L332.449 108.58C335.324 105.705 339.986 105.705 342.861 108.58L399.479 165.198C430.547 196.266 448 238.403 448 282.339C448 326.275 430.547 368.411 399.479 399.479Z" fill="#323C45"/>
</svg>
