<svg viewBox="0 0 512 512" xmlns="http://www.w3.org/2000/svg">
<g id="mono_physics">
<g id="Vector">
<path d="M210.745 189.412C222.747 177.409 239.026 170.667 256 170.667C272.974 170.667 289.253 177.409 301.255 189.412C313.257 201.414 320 217.693 320 234.667V335.6C320 335.821 320.179 336 320.4 336H447.6C447.821 336 448 335.821 448 335.6V234.667C448 183.745 427.771 134.909 391.764 98.9021C355.758 62.8951 306.922 42.6666 256 42.6666C205.078 42.6666 156.242 62.8951 120.235 98.9021C84.2285 134.909 64 183.745 64 234.667V335.6C64 335.821 64.1791 336 64.4 336H191.6C191.821 336 192 335.821 192 335.6V234.667C192 217.693 198.743 201.414 210.745 189.412Z"/>
<path d="M192 368.4C192 368.179 191.821 368 191.6 368H64.4C64.1791 368 64 368.179 64 368.4V426.667C64 432.325 66.2476 437.751 70.2484 441.752C74.2492 445.752 79.6754 448 85.3333 448H170.667C176.325 448 181.751 445.752 185.752 441.752C189.752 437.751 192 432.325 192 426.667V368.4Z"/>
<path d="M448 368.4C448 368.179 447.821 368 447.6 368H320.4C320.179 368 320 368.179 320 368.4V426.667C320 432.325 322.248 437.751 326.248 441.752C330.249 445.752 335.675 448 341.333 448H426.667C432.325 448 437.751 445.752 441.752 441.752C445.752 437.751 448 432.325 448 426.667V368.4Z"/>
</g>
</g>
</svg>
