<svg xmlns="http://www.w3.org/2000/svg" xmlns:xlink="http://www.w3.org/1999/xlink" viewBox="0 0 24 24">
  <path d="M3.25,12h1a1,1,0,0,1,1,1v.5a.5.5,0,0,1-.5.5h-2a.5.5,0,0,1-.5-.5V13a1,1,0,0,1,1-1Z" transform="translate(-8.06 6.44) rotate(-45)" />
  <path d="M12.44,2.76h1a1,1,0,0,1,1,1v.5a.5.5,0,0,1-.5.5h-2a.5.5,0,0,1-.5-.5v-.5a1,1,0,0,1,1-1Z" transform="translate(1.13 10.25) rotate(-45)" />
  <path d="M17.48,18.2a.5.5,0,0,0-.65,0,5,5,0,0,1-6.36-.59l-3.9-3.9a.5.5,0,0,0-.71,0L4.46,15.08a.5.5,0,0,0,0,.71l3.88,3.88a8,8,0,0,0,10.52.7.5.5,0,0,0,0-.75Z" />
  <path d="M13.65,5.89a.5.5,0,0,0,0,.71l3.9,3.9a5,5,0,0,1,.59,6.36.5.5,0,0,0,0,.65l1.41,1.41a.5.5,0,0,0,.75,0,8,8,0,0,0-.7-10.51L15.77,4.48a.5.5,0,0,0-.71,0Z" />
  <path d="M3.32,4.71,5.73,9.2a1,1,0,0,0,1.57.2L9.4,7.3,7.83,7.1l2.39,4.51c.6,1.14,2.33.13,1.73-1L9.56,6.09A1,1,0,0,0,8,5.88L5.89,8l1.57.2L5.05,3.7c-.61-1.13-2.34-.13-1.73,1Z" />
</svg>
