<svg viewBox="0 0 512 512" xmlns="http://www.w3.org/2000/svg">
<g id="mono_physical-education">
<g id="Subtract">
<path d="M451.095 342.509C463.146 315.283 469.365 285.837 469.352 256.063C469.336 226.326 463.102 196.92 451.052 169.734C440.444 145.802 425.535 124.054 407.096 105.559C406.692 105.982 406.252 106.374 405.777 106.73L404.129 107.966C381.496 125.439 363.168 147.867 350.554 173.528C337.929 199.21 331.365 227.446 331.365 256.063C331.365 284.681 337.929 312.917 350.554 338.599C363.178 364.281 381.526 386.725 404.185 404.204C404.359 404.338 404.529 404.478 404.695 404.623L406.401 406.116C406.644 406.328 406.875 406.55 407.095 406.781C425.56 388.26 440.485 366.479 451.095 342.509Z"/>
<path d="M365.762 439.332C339.436 417.327 318.152 389.896 303.374 358.899C288.078 326.813 280.14 291.716 280.14 256.17C280.14 220.624 288.078 185.527 303.374 153.441C318.158 122.43 339.456 94.988 365.798 72.9782C332.19 52.8504 293.618 42.3267 254.301 42.6744C214.667 43.0248 175.985 54.4078 142.554 75.4489C168.559 97.3741 189.548 124.646 204.085 155.418C218.948 186.884 226.701 221.236 226.792 256.035C226.837 291.045 219.153 325.646 204.288 357.343C189.888 388.052 169.092 415.315 143.308 437.312C176.617 457.914 214.998 469.048 254.304 469.395C293.575 469.743 332.115 459.308 365.762 439.332Z"/>
<path d="M102.704 404.533C84.8968 386.133 70.5262 364.656 60.3074 341.114C48.6711 314.306 42.6667 285.394 42.6667 256.17C42.6667 226.946 48.6711 198.033 60.3074 171.226C70.4301 147.905 84.8516 125.896 103.117 107.412C104.455 108.977 105.705 110.043 107.287 111.626C128.264 128.808 145.251 150.367 157.05 174.808C169.281 200.144 175.62 227.919 175.592 256.053L175.592 256.12C175.744 284.455 169.465 312.455 157.229 338.012C145.423 362.67 128.367 384.434 107.271 401.785C105.537 402.301 103.965 403.251 102.704 404.533Z"/>
</g>
</g>
</svg>
