<svg xmlns="http://www.w3.org/2000/svg" xmlns:xlink="http://www.w3.org/1999/xlink" viewBox="0 0 24 24">
  <title>politics</title>
  <path d="M17.66,22H6.32a2,2,0,0,1-1.84-1.21L2.3,15.7a.5.5,0,0,1,.46-.7H21.22a.5.5,0,0,1,.46.7L19.5,20.79A2,2,0,0,1,17.66,22Z" />
  <path d="M21.57,13.57,17,9v2H7V9L2.43,13.57A.25.25,0,0,0,2.6,14H21.4A.25.25,0,0,0,21.57,13.57Z" />
  <path d="M16.25,3.58a4.31,4.31,0,0,0,1.59-1.07A1,1,0,0,1,19,2.41l.53.33a1,1,0,0,1,.19,1.55L18.53,5.55a3.58,3.58,0,0,1-1,.72l-1.18.57a3.14,3.14,0,0,0-.63.4L13.19,9.17a.87.87,0,0,1-1.14,0h0A.87.87,0,0,1,12,8l1.62-2H9s1.14-1.88,2.34-2" />
</svg>
