<svg viewBox="0 0 512 512" xmlns="http://www.w3.org/2000/svg">
<g id="mono_politics">
<g id="Vector">
<path d="M332.8 64H256V106.667H332.8C337.513 106.667 341.333 102.846 341.333 98.1333V72.5333C341.333 67.8205 337.513 64 332.8 64Z"/>
<path d="M52.2107 256H459.79C469.452 256 472.977 244.475 464.691 239.972L260.902 129.23C257.885 127.59 254.115 127.59 251.098 129.23L47.3089 239.972C39.0229 244.475 42.5477 256 52.2107 256Z"/>
<path d="M106.667 298.667C106.667 286.885 116.218 277.333 128 277.333C139.782 277.333 149.333 286.885 149.333 298.667V362.667C149.333 374.449 139.782 384 128 384C116.218 384 106.667 374.449 106.667 362.667V298.667Z"/>
<path d="M64.0001 413.867C64.0001 409.154 67.8206 405.333 72.5334 405.333H439.467C444.18 405.333 448 409.154 448 413.867V439.467C448 444.179 444.18 448 439.467 448H72.5334C67.8206 448 64.0001 444.179 64.0001 439.467V413.867Z"/>
<path d="M213.333 277.333C201.551 277.333 192 286.885 192 298.667V362.667C192 374.449 201.551 384 213.333 384C225.116 384 234.667 374.449 234.667 362.667V298.667C234.667 286.885 225.116 277.333 213.333 277.333Z"/>
<path d="M277.333 298.667C277.333 286.885 286.885 277.333 298.667 277.333C310.449 277.333 320 286.885 320 298.667V362.667C320 374.449 310.449 384 298.667 384C286.885 384 277.333 374.449 277.333 362.667V298.667Z"/>
<path d="M384 277.333C372.218 277.333 362.667 286.885 362.667 298.667V362.667C362.667 374.449 372.218 384 384 384C395.782 384 405.333 374.449 405.333 362.667V298.667C405.333 286.885 395.782 277.333 384 277.333Z"/>
</g>
</g>
</svg>
