<svg xmlns="http://www.w3.org/2000/svg" xmlns:xlink="http://www.w3.org/1999/xlink" viewBox="0 0 24 24">
  <defs>
    <style>
      .b {
        fill: #020a1a;
      }
    </style>
  </defs>
  <title>psychology_6_m</title>
  <path class="b" d="M6.28,10A1.68,1.68,0,0,0,8,12.07V3A9,9,0,0,0,5.3,5.07C6,6,6.5,7.53,6.28,10Z" />
  <path class="b" d="M8,14.11H7.87c-1.81,0-3.74-1.49-3.53-3.39a8,8,0,0,0-.15-4.08A9,9,0,0,0,3,10.94H3l0,3.64a7.49,7.49,0,0,0,4.94,7Z" />
  <path class="b" d="M20.55,8a9,9,0,0,0-7.2-5.9A9.16,9.16,0,0,0,10,2.26v9.8a1.8,1.8,0,0,0,1.75-1.78c-.25-2.94.68-4.57,2.18-5.41,1-.59,2.79-.36,2.79.58s-1,.4-2,1.11-1.15,1.89-1.11,4.29a3.43,3.43,0,0,1-3.47,3.26H10V22c.2,0,.4,0,.61,0A7.5,7.5,0,0,0,18,14.47h0L18,12h2.05a1,1,0,0,0,1-1A9,9,0,0,0,20.55,8ZM16,10.06a1,1,0,1,1,1-1A1,1,0,0,1,16,10.06Z"
  />
  <path class="b" d="M9.85,22h0Z" />
</svg>
