<svg viewBox="0 0 512 512" xmlns="http://www.w3.org/2000/svg">
<g id="mono_psychology">
<path id="Vector" fill-rule="evenodd" clip-rule="evenodd" d="M471.466 224C471.466 284.278 442.055 337.687 396.799 370.658V448H183.466V405.334H140.799C135.141 405.334 129.715 403.086 125.714 399.085C121.714 395.085 119.466 389.658 119.466 384V298.667H72.5323C65.7056 298.667 61.4389 288.64 65.7056 281.6L109.434 208.719C117.194 115.723 195.132 42.667 290.133 42.667C390.28 42.667 471.466 123.853 471.466 224ZM362.667 192C362.667 221.274 345.821 246.612 321.295 258.851L335.677 331.135C336.727 336.413 332.689 341.334 327.308 341.334H248.691C243.31 341.334 239.272 336.413 240.322 331.135L254.705 258.851C230.179 246.612 213.333 221.273 213.333 192C213.333 150.763 246.763 117.334 288 117.334C329.237 117.334 362.667 150.763 362.667 192Z"/>
</g>
</svg>
