<svg viewBox="0 0 512 512" xmlns="http://www.w3.org/2000/svg">
<g id="mono_religion">
<g id="Vector">
<path fill-rule="evenodd" clip-rule="evenodd" d="M337.08 150.517C337.571 161.313 335.897 172.098 332.155 182.249C328.413 192.401 322.677 201.717 315.279 209.66C307.88 217.604 298.965 224.016 289.05 228.527C279.134 233.038 268.414 235.559 257.509 235.943C246.613 235.559 235.903 233.038 225.999 228.524C216.095 224.01 207.194 217.594 199.812 209.648C192.431 201.702 186.715 192.383 182.997 182.233C179.28 172.082 177.633 161.302 178.154 150.517C178.154 118.482 215.459 74.9149 238.964 50.5685C241.36 48.0877 244.238 46.1133 247.425 44.7643C250.613 43.4154 254.043 42.72 257.509 42.72C260.975 42.72 264.405 43.4154 267.593 44.7643C270.78 46.1133 273.658 48.0877 276.054 50.5685C299.127 74.9149 337.08 118.482 337.08 150.517ZM299.129 190.453C299.36 196.081 298.465 201.698 296.495 206.982C294.525 212.265 291.519 217.111 287.651 221.239C283.783 225.368 279.129 228.698 273.956 231.038C268.783 233.378 263.194 234.682 257.511 234.875C251.809 234.71 246.196 233.426 240.999 231.098C235.801 228.771 231.121 225.445 227.23 221.313C223.34 217.182 220.315 212.327 218.332 207.03C216.349 201.732 215.446 196.098 215.677 190.453C215.677 165.893 257.511 128.092 257.511 128.092C257.511 128.092 299.129 165.893 299.129 190.453Z"/>
<path d="M464.226 278.405C463.102 277.887 461.881 277.608 460.642 277.588H51.3585C50.1191 277.608 48.8979 277.887 47.7743 278.405C46.6507 278.924 45.6497 279.67 44.8363 280.597C44.023 281.523 43.4154 282.609 43.053 283.783C42.6906 284.957 42.5815 286.193 42.7329 287.412C50.3748 338.016 76.1075 384.221 115.248 417.619C154.389 451.016 204.336 469.387 256 469.387C307.664 469.387 357.611 451.016 396.752 417.619C435.893 384.221 461.625 338.016 469.267 287.412C469.419 286.193 469.31 284.957 468.947 283.783C468.585 282.609 467.977 281.523 467.164 280.597C466.35 279.67 465.35 278.924 464.226 278.405Z"/>
</g>
</g>
</svg>
