<svg xmlns="http://www.w3.org/2000/svg" xmlns:xlink="http://www.w3.org/1999/xlink" viewBox="0 0 24 24">
  <defs>
    <style>
      .b {
        fill: #020a1a;
      }
    </style>
  </defs>
  <title>rpa-lang_1_m</title>
  <path class="b" d="M16.39,8.79c-.24,0-.67,2-.67,2a.5.5,0,0,0,.47.66h.38a.5.5,0,0,0,.47-.66S16.63,8.79,16.39,8.79Z" />
  <path class="b" d="M21,4H3A1,1,0,0,0,2,5V20.8a.5.5,0,0,0,.85.35L7,17H21a1,1,0,0,0,1-1V5A1,1,0,0,0,21,4Zm-8.82,9.51a.5.5,0,0,1-.5.5H7.26a.5.5,0,0,1-.5-.5v-.77a.5.5,0,0,1,.1-.3L9.44,9a.25.25,0,0,0-.2-.4h-2a.5.5,0,0,1-.5-.5V7.53a.5.5,0,0,1,.5-.5h4.35a.5.5,0,0,1,.5.5V8.3a.5.5,0,0,1-.1.3L9.43,12a.25.25,0,0,0,.2.4h2.06a.5.5,0,0,1,.5.5Zm7.25.48h-.91a.67.67,0,0,1-.56-.45c-.09-.23-.19-.56-.19-.56H15l-.2.58a.61.61,0,0,1-.52.42h-.95a.5.5,0,0,1-.47-.68l2.25-6A.5.5,0,0,1,15.6,7h1.57a.5.5,0,0,1,.47.32l2.26,6A.5.5,0,0,1,19.43,14Z"
  />
</svg>
