<svg viewBox="0 0 512 512" xmlns="http://www.w3.org/2000/svg">
<g id="mono_russian">
<g id="Vector">
<path d="M175.39 204.654H193.986C200.058 203.642 206.35 205.748 209.711 210.99C213.072 216.231 213.072 222.996 209.711 228.237C206.35 233.479 200.263 236.208 194.19 235.197H175.39C169.978 235.206 165.497 230.924 165.172 225.431V215.043C165.172 209.305 169.747 204.654 175.39 204.654Z"/>
<path fill-rule="evenodd" clip-rule="evenodd" d="M464.624 196.754C467.948 210.698 469.523 225.001 469.315 239.334C468.704 265.948 462.723 292.165 451.732 316.418C440.741 340.671 424.964 362.462 405.346 380.488C380.28 402.801 350.709 419.48 318.631 429.397C286.552 439.314 252.715 442.239 219.408 437.972C214.574 436.798 209.529 436.798 204.695 437.972C201.482 439.66 198.536 441.812 195.952 444.359C177.227 460.774 153.059 469.652 128.144 469.269C126.735 469.476 125.299 469.174 124.093 468.417C122.814 467.282 123.24 465.768 123.667 464.254C123.88 463.497 124.093 462.74 124.093 462.03C129.705 449.262 134.131 436.007 137.313 422.43C139.336 416.932 139.336 410.896 137.313 405.398C134.871 401.755 131.578 398.759 127.718 396.669C121.978 392.842 116.494 388.646 111.299 384.108C76.9181 354.562 53.7348 314.129 45.6238 269.566C41.6811 247.528 41.6811 224.966 45.6238 202.928C50.2618 181.038 59.174 160.275 71.8513 141.825C96.4617 103.255 132.661 73.4458 175.269 56.6638C206.255 45.3044 239.336 40.7739 272.241 43.3831C305.146 45.9923 337.096 55.6795 365.898 71.7798C389.979 84.8412 411.149 102.655 428.121 124.139C445.093 145.623 457.512 170.328 464.624 196.754ZM164.968 268.44H183.769L204 310.826C205.719 314.393 209.288 316.651 213.195 316.643H231.587C235.201 316.653 238.551 314.722 240.397 311.564C242.244 308.406 242.313 304.491 240.578 301.268L225.048 272.803C222.428 267.859 224.148 261.693 228.93 258.882C242.082 250.477 249.861 235.608 249.366 219.821C249.816 206.496 244.649 193.609 235.164 184.402C225.679 175.194 212.779 170.543 199.708 171.618H138.403C132.76 171.618 128.185 176.269 128.185 182.006V306.67C128.185 312.408 132.76 317.059 138.403 317.059H154.751C160.394 317.059 164.968 312.408 164.968 306.67V268.44ZM275.114 172.862H292.075C297.718 172.862 302.293 177.514 302.293 183.251V257.842C301.69 266.063 304.729 274.129 310.58 279.837C316.431 285.545 324.483 288.298 332.537 287.345C340.541 288.156 348.49 285.347 354.276 279.666C360.061 273.984 363.096 266.003 362.577 257.842V182.628C362.577 176.89 367.151 172.239 372.794 172.239H389.551C395.194 172.239 399.769 176.89 399.769 182.628V258.465C399.769 294.618 378.107 320.797 332.537 320.797C286.966 320.797 264.896 295.241 264.896 258.465V182.628C265.221 177.135 269.702 172.853 275.114 172.862Z"/>
</g>
</g>
</svg>
