<svg xmlns="http://www.w3.org/2000/svg" xmlns:xlink="http://www.w3.org/1999/xlink" viewBox="0 0 24 24">
    <path d="M10.34,3.72H8.5a.5.5,0,0,0-.5.5V8.11a.23.23,0,0,0,.22.28h.71a.27.27,0,0,0,.28-.23V7.1c0-.15,0-.28.18-.28h1A1.51,1.51,0,0,0,12,5.27,1.51,1.51,0,0,0,10.34,3.72Zm-.16,2.05H9.35c-.06,0-.13,0-.14-.16V5c0-.14,0-.22.19-.21h.79a.5.5,0,1,1,0,1Z"
    />
    <path d="M16.25,3.72h-.8A.5.5,0,0,0,15,4l-.43.92c-.3.77-.66.71-.91,0L13.24,4a.5.5,0,0,0-.45-.29H12a.23.23,0,0,0-.1.27L13.4,7h0a.21.21,0,0,1,0,.13.56.56,0,0,1-.54.3.93.93,0,0,1-.47-.16.18.18,0,0,0-.2.06l-.31.6c0,.17,0,.29.11.32h0a2.13,2.13,0,0,0,1,.22,1.69,1.69,0,0,0,1.63-1L16.35,4C16.4,3.83,16.34,3.75,16.25,3.72Z"
    />
    <path d="M20.44,7.14l-.74-.35c-.08-.05-.15-.05-.21.06a1.11,1.11,0,0,1-.92.55,1.29,1.29,0,0,1-1.3-1.35,1.29,1.29,0,0,1,1.3-1.35,1.1,1.1,0,0,1,.9.5.23.23,0,0,0,.31.08L20.43,5a.22.22,0,0,0,.05-.31,2.13,2.13,0,0,0-1.91-1A2.39,2.39,0,0,0,16,6.06a2.39,2.39,0,0,0,2.53,2.42,2.15,2.15,0,0,0,1.92-1C20.61,7.27,20.57,7.18,20.44,7.14Z"
    />
    <path d="M9.38,16.94,6.85,7.12a.42.42,0,0,0-.41-.33A.43.43,0,0,0,6,7.21L5.7,13.69,5.38,7.21A.43.43,0,0,0,5,6.79a.42.42,0,0,0-.41.33L2,16.94a.73.73,0,0,0,.2.73,8.24,8.24,0,0,1,2,4.31h3a8.24,8.24,0,0,1,2-4.31A.73.73,0,0,0,9.38,16.94Zm-3.67-.8a1,1,0,1,1,1-1A1,1,0,0,1,5.7,16.14Z"
    />
</svg>
