<svg xmlns="http://www.w3.org/2000/svg" xmlns:xlink="http://www.w3.org/1999/xlink" viewBox="0 0 24 24">
  <title>russian</title>
  <path d="M8.91,8.54H8a.5.5,0,0,0-.5.5v.5A.5.5,0,0,0,8,10h.92a.76.76,0,1,0,0-1.5Z" />
  <path d="M21,4H3A1,1,0,0,0,2,5V20.75a.5.5,0,0,0,.85.35L7,17H21a1,1,0,0,0,1-1V5A1,1,0,0,0,21,4ZM10.47,11.83l.76,1.37a.5.5,0,0,1-.44.74h-.9a.5.5,0,0,1-.45-.28l-1-2.07H7.49v1.84a.5.5,0,0,1-.5.5h-.8a.5.5,0,0,1-.5-.5v-6a.5.5,0,0,1,.5-.5h3a2.25,2.25,0,0,1,2.43,2.32,2.14,2.14,0,0,1-1,1.88A.5.5,0,0,0,10.47,11.83ZM19,11.11c0,1.74-1.06,3-3.29,3s-3.31-1.23-3.31-3V7.47a.5.5,0,0,1,.5-.5h.83a.5.5,0,0,1,.5.5v3.59a1.33,1.33,0,0,0,1.48,1.42,1.34,1.34,0,0,0,1.47-1.42V7.47a.5.5,0,0,1,.5-.5h.82a.5.5,0,0,1,.5.5Z"
  />
</svg>
