<svg viewBox="0 0 512 512" xmlns="http://www.w3.org/2000/svg">
<g id="mono_science">
<path id="Vector" d="M170.667 64H341.333C346.991 64 352.417 66.2476 356.418 70.2484C360.419 74.2492 362.667 79.6754 362.667 85.3333C362.667 90.9913 360.419 96.4175 356.418 100.418C352.417 104.419 346.991 106.667 341.333 106.667V384C341.333 406.632 332.343 428.337 316.34 444.34C300.337 460.343 278.632 469.333 256 469.333C233.368 469.333 211.663 460.343 195.66 444.34C179.657 428.337 170.667 406.632 170.667 384V346.667H234.667C243.503 346.667 250.667 339.503 250.667 330.667C250.667 321.83 243.503 314.667 234.667 314.667H170.667V272H234.667C243.503 272 250.667 264.837 250.667 256C250.667 247.163 243.503 240 234.667 240H170.667V197.333H234.667C243.503 197.333 250.667 190.17 250.667 181.333C250.667 172.497 243.503 165.333 234.667 165.333H170.667V106.667C165.009 106.667 159.582 104.419 155.582 100.418C151.581 96.4175 149.333 90.9913 149.333 85.3333C149.333 79.6754 151.581 74.2492 155.582 70.2484C159.582 66.2476 165.009 64 170.667 64Z"/>
</g>
</svg>
