<svg viewBox="0 0 512 512" xmlns="http://www.w3.org/2000/svg">
<g id="mono_security">
<g id="Vector">
<path d="M243.088 312.861C246.91 315.408 251.404 316.768 256.001 316.768C262.166 316.768 268.078 314.325 272.437 309.978C276.796 305.631 279.245 299.735 279.245 293.587C279.245 289.002 277.882 284.52 275.328 280.708C272.774 276.896 269.144 273.925 264.897 272.17C260.649 270.416 255.976 269.957 251.467 270.851C246.958 271.746 242.816 273.953 239.565 277.195C236.315 280.437 234.101 284.568 233.204 289.064C232.307 293.561 232.767 298.222 234.527 302.458C236.286 306.693 239.265 310.314 243.088 312.861Z"/>
<path d="M281.802 216.626V189.968C281.572 186.855 280.714 183.822 279.279 181.048C277.845 178.274 275.863 175.818 273.454 173.827C271.045 171.835 268.257 170.35 265.258 169.458C262.259 168.567 259.111 168.289 256.001 168.641C252.892 168.289 249.744 168.567 246.745 169.458C243.746 170.35 240.958 171.835 238.549 173.827C236.139 175.818 234.158 178.274 232.724 181.048C231.289 183.822 230.431 186.855 230.201 189.968V216.626H281.802Z"/>
<path fill-rule="evenodd" clip-rule="evenodd" d="M64.0089 276.853V130.877C63.9533 129.573 64.1579 128.27 64.6107 127.046C65.0636 125.822 65.7554 124.702 66.6458 123.75C67.5362 122.798 68.6071 122.034 69.7956 121.503C70.9841 120.973 72.2663 120.685 73.5669 120.659C142.966 120.659 187.432 91.0466 250.598 45.7941C251.966 44.1339 253.883 43.0236 256 42.666C258.117 43.0236 260.034 44.1339 261.402 45.7941C324.568 91.0466 369.034 120.659 438.433 120.659C439.734 120.685 441.016 120.973 442.204 121.503C443.393 122.034 444.464 122.798 445.354 123.75C446.245 124.702 446.936 125.822 447.389 127.046C447.842 128.27 448.047 129.573 447.991 130.877V276.853C447.991 375.908 267.844 464.536 259.948 468.29C258.736 468.954 257.381 469.311 256 469.333C254.619 469.311 253.264 468.954 252.052 468.29C244.156 464.536 64.0089 375.908 64.0089 276.853ZM302.489 216.626H322.944C326.779 216.626 330.577 217.383 334.117 218.853C337.657 220.324 340.871 222.479 343.572 225.195C346.273 227.91 348.408 231.132 349.854 234.674C351.301 238.216 352.03 242.009 351.999 245.834V333.69C351.999 341.375 348.938 348.745 343.489 354.179C338.04 359.613 330.65 362.666 322.944 362.666H189.059C185.204 362.667 181.387 361.902 177.831 360.417C174.276 358.932 171.052 356.756 168.348 354.016C165.643 351.276 163.513 348.027 162.081 344.457C160.648 340.888 159.942 337.07 160.004 333.226V245.37C160.065 237.726 163.153 230.415 168.595 225.031C174.038 219.647 181.393 216.626 189.059 216.626H209.513V189.968C210.407 178.487 215.773 167.813 224.463 160.23C233.152 152.648 244.473 148.76 256.001 149.401C267.53 148.76 278.851 152.648 287.54 160.23C296.23 167.813 301.596 178.487 302.489 189.968V216.626Z"/>
</g>
</g>
</svg>
