<svg xmlns="http://www.w3.org/2000/svg" xmlns:xlink="http://www.w3.org/1999/xlink" viewBox="0 0 24 24">
  <defs>
    <style>
      .b {
        fill: #020a1a;
      }
    </style>
  </defs>
  <title>skills_1_m</title>
  <path class="b" d="M18.11,3.45l-4.42,5h0L7.32,15.6A1,1,0,0,0,7.44,17l.24.19a1,1,0,0,0,1.38-.11l7.63-8.59h0l3.23-3.64a1,1,0,0,0,.25-.66A1.17,1.17,0,0,0,18.11,3.45Zm-6,9.54a1,1,0,1,1,1-1A1,1,0,0,1,12.08,13Z" />
  <path class="b" d="M16.58,15.32l-6.13-6.9h0l-4.39-5A1.17,1.17,0,0,0,4,4.16a1,1,0,0,0,.25.66l3.2,3.7h0l7.36,8.28a1,1,0,0,0,1.28.18l.26-.16A1,1,0,0,0,16.58,15.32ZM12.08,13a1,1,0,1,1,1-1A1,1,0,0,1,12.08,13Z" />
  <path class="b" d="M17.84,15a3.5,3.5,0,1,0,3.5,3.5A3.5,3.5,0,0,0,17.84,15Zm0,5a1.5,1.5,0,1,1,1.5-1.5A1.5,1.5,0,0,1,17.86,20Z" />
  <path class="b" d="M6.21,15a3.5,3.5,0,1,0,3.5,3.5A3.5,3.5,0,0,0,6.21,15Zm0,5a1.5,1.5,0,1,1,1.5-1.5A1.5,1.5,0,0,1,6.24,20Z" />
</svg>
