<svg viewBox="0 0 512 512" xmlns="http://www.w3.org/2000/svg">
<g id="mono_social-science">
<g id="Vector">
<path d="M192 42.6665C273.067 42.6665 341.333 97.0191 341.333 161.215C341.333 250.661 236.16 286.397 162.56 278.694C160.736 278.265 158.838 278.265 157.013 278.694C155.217 279.082 153.536 279.888 152.107 281.048C137.772 292.841 119.65 299.002 101.12 298.38H99.8401V297.311C99.6993 296.971 99.6268 296.608 99.6268 296.241C99.6268 295.873 99.6993 295.51 99.8401 295.171C105.251 286.471 108.945 276.809 110.72 266.71C111.467 264.858 111.467 262.786 110.72 260.933C109.902 259.079 108.47 257.567 106.667 256.653C88.4985 247.895 72.9889 234.434 61.7385 217.657C50.4881 200.88 43.9044 181.396 42.6667 161.215C42.6667 96.8051 110.933 42.6665 192 42.6665Z"/>
<path d="M401.92 417.143C401.185 415.362 401.185 413.361 401.92 411.579C402.362 409.493 403.583 407.655 405.333 406.444C423.441 397.721 438.911 384.326 450.158 367.63C461.404 350.935 468.022 331.54 469.333 311.434C469.333 259.863 426.667 214.926 368 198.449C357.611 231.904 335.176 260.282 305.067 278.052C267.739 300.414 225.024 312.106 181.547 311.862H170.667C170.667 400.88 276.053 436.402 350.08 428.27C351.904 427.842 353.803 427.842 355.627 428.27C357.424 428.659 359.104 429.465 360.533 430.624C374.868 442.418 392.991 448.578 411.52 447.957H412.8C412.9 447.535 412.9 447.095 412.8 446.673C412.901 446.324 412.901 445.953 412.8 445.603C407.355 436.92 403.659 427.251 401.92 417.143Z"/>
</g>
</g>
</svg>
