<svg xmlns="http://www.w3.org/2000/svg" xmlns:xlink="http://www.w3.org/1999/xlink" viewBox="0 0 24 24">
  <defs>
    <style>
      .b {
        fill: #020a1a;
      }
    </style>
  </defs>
  <title>social_science_3_m</title>
  <circle class="b" cx="20.97" cy="12.02" r="1" />
  <circle class="b" cx="2.97" cy="12.02" r="1" />
  <circle class="b" cx="11.97" cy="21.02" r="1" />
  <circle class="b" cx="11.97" cy="3.02" r="1" />
  <circle class="b" cx="18.34" cy="5.65" r="1" transform="translate(1.38 14.62) rotate(-45)" />
  <circle class="b" cx="5.61" cy="18.38" r="1" transform="translate(-11.35 9.35) rotate(-45)" />
  <circle class="b" cx="18.34" cy="18.38" r="1" transform="translate(-7.62 18.35) rotate(-45)" />
  <circle class="b" cx="5.61" cy="5.65" r="1" transform="translate(-2.35 5.62) rotate(-45)" />
  <path class="b" d="M7.82,9.24A5,5,0,0,1,9.2,7.86a1,1,0,0,0-.06-.09L7.73,6.36A1,1,0,0,0,6.32,7.77L7.73,9.19Z" />
  <path class="b" d="M7,12a5,5,0,0,1,.1-1L7,11H5a1,1,0,0,0,0,2H7l.1,0A5,5,0,0,1,7,12Z" />
  <path class="b" d="M7.82,14.79l-.08.06L6.32,16.26a1,1,0,0,0,1.41,1.41l1.41-1.41a1,1,0,0,0,.06-.09A5,5,0,0,1,7.82,14.79Z" />
  <path class="b" d="M12,17a5,5,0,0,1-1-.1,1,1,0,0,0,0,.1v2a1,1,0,0,0,2,0V17a1,1,0,0,0,0-.1A5,5,0,0,1,12,17Z" />
  <path class="b" d="M17.63,16.26l-1.41-1.41-.09-.06a5,5,0,0,1-1.38,1.39,1,1,0,0,0,.06.09l1.41,1.41a1,1,0,0,0,1.41,0h0A1,1,0,0,0,17.63,16.26Z" />
  <path class="b" d="M19,11H17l-.11,0a4.91,4.91,0,0,1,0,2L17,13h2a1,1,0,0,0,0-2Z" />
  <path class="b" d="M17.63,6.36h0a1,1,0,0,0-1.41,0L14.8,7.77a1,1,0,0,0-.06.09,5,5,0,0,1,1.38,1.38l.09-.06,1.41-1.41A1,1,0,0,0,17.63,6.36Z" />
  <path class="b" d="M12,7a5,5,0,0,1,1,.1A1,1,0,0,0,13,7V5a1,1,0,0,0-2,0V7a.94.94,0,0,0,0,.11A5,5,0,0,1,12,7Z" />
  <path class="b" d="M16.93,11v0Z" />
  <path class="b" d="M15.57,8.45l0,0Z" />
  <path class="b" d="M15.5,13.11c-.15-.38-.36-.95-.9-1a.47.47,0,0,1-.43-.6c.08-.21.14-.36.92-.34a3.86,3.86,0,0,0,1.72-.56A5,5,0,0,0,16,9c.11.33-.35,1-.8,1.06s-.52-.71-.86-.78-.43.15-.63.4a2.8,2.8,0,0,1-.82.84c-.52.23-.85-.16-1.3-.34-.74-.17-1.84.2-1.6.92.09.27.4.62.05.86s-.56-.63-1-.59c-.21,0-.27.45-.5.59s-.57.1-.47-.45a2.39,2.39,0,0,1,1-1.59c.33-.25,1.48-.21,1.3-1.43A1.33,1.33,0,0,1,11.2,7a5,5,0,0,0-4,6.59c.23-.28.58-.7,1-.68a15.4,15.4,0,0,0,1.57.24,1.18,1.18,0,0,0,.89-.44c.32-.41,1.11-1.34,1.67-1.45s1.15.49.55,1.82c-.29.63-.94.36-.94,1.08,0,.4.72.41.72,1.09s-.07,1.4-.72,1.36c-.48,0-.46-.57-.58-1a1.17,1.17,0,0,0-2-.44,6.82,6.82,0,0,0-.59.73A5,5,0,0,0,17,12.79C16.53,13.32,15.68,13.57,15.5,13.11Z"
  />
  <path class="b" d="M8.35,15.55l.13.12Z" />
</svg>
