<svg xmlns="http://www.w3.org/2000/svg" xmlns:xlink="http://www.w3.org/1999/xlink" viewBox="0 0 24 24">
  <title>spanish</title>
  <path d="M21,4H3A1,1,0,0,0,2,5V20.8a.5.5,0,0,0,.85.35L7,17H21a1,1,0,0,0,1-1V5A1,1,0,0,0,21,4ZM11.64,8.08a.5.5,0,0,1-.5.5l-2.57,0c-.69,0-.69,1.37,0,1.37h1.49c.28,0,1-.1,1,.2a1.73,1.73,0,0,1,0,.57c0,.26-.72.25-1,.25H8.58c-.76,0-.76,1.42,0,1.43h2.57a.5.5,0,0,1,.5.5v.57a.5.5,0,0,1-.5.5H7a.5.5,0,0,1-.5-.5v-6A.5.5,0,0,1,7,7h4.12a.5.5,0,0,1,.5.5Zm3.8,6a4.46,4.46,0,0,1-2.71-.78.51.51,0,0,1-.12-.71L13,12.1a.5.5,0,0,1,.7-.11,3.15,3.15,0,0,0,1.84.59c.62,0,1-.24,1-.58s-.52-.48-1.19-.62c-1.15-.23-2.76-.54-2.76-2.26,0-1.17,1-2.22,2.78-2.22a4.42,4.42,0,0,1,2.38.64.51.51,0,0,1,.15.74l-.4.52a.49.49,0,0,1-.65.1,3.32,3.32,0,0,0-1.67-.46c-.52,0-.75.21-.75.5s.53.45,1.2.61c1.15.24,2.74.59,2.74,2.23C18.35,13.18,17.31,14.11,15.44,14.11Z"
  />
</svg>
