<svg viewBox="0 0 512 512" xmlns="http://www.w3.org/2000/svg">
<g id="mono_spanish">
<path id="Vector" fill-rule="evenodd" clip-rule="evenodd" d="M464.624 196.754C467.948 210.698 469.523 225.001 469.315 239.334C468.704 265.948 462.723 292.165 451.732 316.418C440.741 340.671 424.964 362.462 405.346 380.488C380.28 402.801 350.709 419.48 318.631 429.397C286.552 439.314 252.715 442.239 219.408 437.972C214.574 436.798 209.529 436.798 204.695 437.972C201.482 439.66 198.536 441.812 195.952 444.359C177.227 460.774 153.059 469.652 128.144 469.269C126.735 469.476 125.299 469.174 124.093 468.417C122.814 467.282 123.24 465.768 123.667 464.254C123.88 463.497 124.093 462.74 124.093 462.03C129.705 449.262 134.131 436.007 137.313 422.43C139.336 416.932 139.336 410.896 137.313 405.398C134.871 401.755 131.578 398.759 127.718 396.669C121.978 392.842 116.494 388.646 111.299 384.108C76.9181 354.562 53.7348 314.129 45.6238 269.566C41.6811 247.528 41.6811 224.966 45.6238 202.928C50.2618 181.038 59.174 160.275 71.8513 141.825C96.4617 103.255 132.661 73.4458 175.269 56.6638C206.255 45.3044 239.336 40.7739 272.241 43.3831C305.146 45.9923 337.096 55.6795 365.898 71.7798C389.979 84.8412 411.149 102.655 428.121 124.139C445.093 145.623 457.512 170.328 464.624 196.754ZM272.102 279.944C273.702 277.699 276.115 276.195 278.808 275.764C281.501 275.334 284.252 276.012 286.452 277.65C297.441 285.684 310.64 289.99 324.172 289.956C336.882 289.956 344.672 284.95 344.672 277.858C344.672 270.767 334.012 267.846 320.277 264.926L319.79 264.827C296.25 260.039 263.697 253.417 263.697 217.787C263.697 193.383 284.197 171.483 320.687 171.483C337.864 171.147 354.782 175.776 369.477 184.832C372.009 186.367 373.786 188.918 374.372 191.857C374.957 194.796 374.296 197.85 372.552 200.267L364.352 211.113C361.096 215.188 355.335 216.09 351.027 213.199C340.651 206.974 328.837 203.663 316.792 203.604C306.132 203.604 301.417 207.984 301.417 214.033C301.417 220.082 312.282 223.419 326.017 226.756C349.592 231.762 382.187 239.062 382.187 273.27C382.187 302.471 361.687 321.869 322.532 321.869C302.773 322.687 283.285 316.98 266.977 305.599C264.691 303.997 263.126 301.535 262.626 298.757C262.127 295.979 262.733 293.113 264.312 290.79L272.102 279.944ZM181.287 206.941H233.972C239.633 206.941 244.222 202.272 244.222 196.512V184.206C244.222 178.446 239.633 173.777 233.972 173.777H149.102C143.441 173.777 138.852 178.446 138.852 184.206V309.354C138.963 315.032 143.52 319.575 149.102 319.574H233.562C239.223 319.574 243.812 314.905 243.812 309.145V297.256C243.812 291.496 239.223 286.827 233.562 286.827H181.287C165.707 286.827 165.912 257 181.287 257H211.832C217.572 257 232.332 257 232.332 251.786C232.974 247.85 232.974 243.833 232.332 239.897C232.332 234.746 222.329 235.248 215.59 235.587C214.143 235.66 212.846 235.725 211.832 235.725H181.492C167.347 236.142 167.347 206.941 181.287 206.941Z"/>
</g>
</svg>
