<svg viewBox="0 0 512 512" xmlns="http://www.w3.org/2000/svg">
<g id="mono_statistics">
<g id="Vector">
<path d="M283.093 240.001H443.947C447.124 240.059 450.275 239.406 453.168 238.09C456.061 236.774 458.624 234.829 460.668 232.396C462.713 229.963 464.188 227.103 464.986 224.027C465.784 220.95 465.884 217.734 465.28 214.614C455.179 161.671 425.297 114.561 381.708 82.8596C338.118 51.1582 284.093 37.2449 230.613 43.9475C227.454 44.3647 224.429 45.4842 221.759 47.2239C219.09 48.9636 216.844 51.2792 215.186 54.0006C213.529 56.7221 212.502 59.7803 212.181 62.9505C211.861 66.1208 212.254 69.3226 213.333 72.3208L263.68 225.281C265.026 229.423 267.608 233.053 271.079 235.685C274.549 238.316 278.742 239.822 283.093 240.001Z"/>
<path d="M256 278.401L136.32 402.134C134.103 404.392 132.417 407.114 131.382 410.104C130.347 413.094 129.991 416.277 130.338 419.421C130.685 422.566 131.727 425.594 133.389 428.287C135.051 430.979 137.291 433.268 139.947 434.987C174.504 457.4 214.811 469.329 256 469.334C305.295 469.044 352.988 451.792 391.061 420.479C429.134 389.166 455.267 345.7 465.067 297.387C465.671 294.267 465.571 291.051 464.773 287.975C463.975 284.898 462.5 282.039 460.455 279.606C458.41 277.173 455.848 275.227 452.955 273.911C450.062 272.596 446.911 271.943 443.733 272.001H271.787C268.857 271.926 265.943 272.456 263.227 273.557C260.511 274.658 258.051 276.307 256 278.401Z"/>
<path d="M234.667 239.574L181.973 82.3475C181.007 79.3642 179.396 76.6305 177.253 74.3411C175.11 72.0516 172.489 70.2627 169.576 69.1016C166.664 67.9405 163.53 67.4359 160.4 67.6235C157.27 67.8112 154.22 68.6867 151.467 70.1875C125.618 84.7777 103.098 104.602 85.3468 128.392C67.596 152.181 55.0051 179.414 48.3791 208.347C41.7531 237.281 41.2379 267.279 46.8664 296.423C52.4949 325.567 64.1433 353.215 81.0667 377.601C82.8922 380.132 85.2506 382.231 87.9757 383.751C90.7008 385.271 93.7262 386.175 96.8385 386.399C99.9509 386.622 103.074 386.161 105.989 385.046C108.903 383.931 111.538 382.191 113.707 379.947L228.907 261.121C231.761 258.41 233.81 254.963 234.827 251.16C235.843 247.357 235.788 243.347 234.667 239.574Z"/>
</g>
</g>
</svg>
