<svg xmlns="http://www.w3.org/2000/svg" xmlns:xlink="http://www.w3.org/1999/xlink" viewBox="0 0 24 24">
  <rect x="7" y="2" width="2" height="4" rx="1" ry="1" />
  <rect x="11" y="2" width="2" height="4" rx="1" ry="1" />
  <rect x="15" y="2" width="2" height="4" rx="1" ry="1" />
  <rect x="7" y="18" width="2" height="4" rx="1" ry="1" />
  <rect x="11" y="18" width="2" height="4" rx="1" ry="1" />
  <rect x="15" y="18" width="2" height="4" rx="1" ry="1" />
  <rect x="19" y="6" width="2" height="4" rx="1" ry="1" transform="translate(28 -12) rotate(90)" />
  <rect x="19" y="10" width="2" height="4" rx="1" ry="1" transform="translate(32 -8) rotate(90)" />
  <rect x="19" y="14" width="2" height="4" rx="1" ry="1" transform="translate(36 -4) rotate(90)" />
  <rect x="3" y="6" width="2" height="4" rx="1" ry="1" transform="translate(12 4) rotate(90)" />
  <rect x="3" y="10" width="2" height="4" rx="1" ry="1" transform="translate(16 8) rotate(90)" />
  <rect x="3" y="14" width="2" height="4" rx="1" ry="1" transform="translate(20 12) rotate(90)" />
  <rect x="7" y="7" width="10" height="10" rx="2" ry="2" />
</svg>
