<svg viewBox="0 0 512 512" fill="none" xmlns="http://www.w3.org/2000/svg">
<path fill-rule="evenodd" clip-rule="evenodd" d="M256 42.667C262.039 42.667 267.222 46.968 268.334 52.9034L293.595 187.627L335.756 158.801C340.74 155.394 347.444 156.018 351.712 160.287C355.981 164.556 356.606 171.26 353.198 176.243L324.372 218.405L459.097 243.666C465.033 244.779 469.334 249.962 469.334 256C469.334 262.039 465.033 267.222 459.097 268.334L324.373 293.595L353.198 335.756C356.606 340.74 355.981 347.444 351.712 351.712C347.444 355.981 340.74 356.606 335.756 353.198L293.595 324.373L268.334 459.097C267.222 465.033 262.039 469.334 256 469.334C249.962 469.334 244.779 465.033 243.666 459.097L218.405 324.373L176.245 353.198C171.261 356.606 164.558 355.981 160.289 351.712C156.02 347.444 155.396 340.74 158.803 335.756L187.628 293.595L52.9034 268.334C46.968 267.222 42.667 262.039 42.667 256C42.667 249.962 46.968 244.779 52.9034 243.666L187.629 218.405L158.803 176.243C155.396 171.26 156.02 164.556 160.289 160.287C164.558 156.018 171.261 155.394 176.245 158.801L218.406 187.627L243.666 52.9034C244.779 46.968 249.962 42.667 256 42.667ZM308.707 256.001C308.707 285.11 285.11 308.707 256.001 308.707C226.892 308.707 203.295 285.11 203.295 256.001C203.295 226.892 226.892 203.295 256.001 203.295C285.11 203.295 308.707 226.892 308.707 256.001Z" fill="#323C45"/>
</svg>
