<svg viewBox="0 0 512 512" xmlns="http://www.w3.org/2000/svg">
<g id="mono_tourism">
<g id="Vector">
<path fill-rule="evenodd" clip-rule="evenodd" d="M256 63.9993C261.435 63.9993 266.099 67.8703 267.101 73.2121L289.835 194.463L327.78 168.52C332.266 165.454 338.299 166.015 342.141 169.857C345.983 173.699 346.545 179.733 343.478 184.218L317.535 222.164L438.787 244.899C444.129 245.9 448 250.564 448 255.999C448 261.434 444.129 266.098 438.787 267.1L317.535 289.835L343.478 327.78C346.545 332.265 345.983 338.298 342.141 342.14C338.299 345.982 332.266 346.544 327.78 343.477L289.836 317.535L267.101 438.787C266.099 444.128 261.435 447.999 256 447.999C250.565 447.999 245.901 444.128 244.899 438.787L222.165 317.535L184.22 343.477C179.735 346.544 173.702 345.982 169.86 342.14C166.018 338.298 165.456 332.265 168.522 327.78L194.465 289.835L73.2128 267.1C67.871 266.098 64.0001 261.434 64.0001 255.999C64.0001 250.564 67.871 245.9 73.2128 244.899L194.466 222.164L168.522 184.218C165.456 179.733 166.018 173.699 169.86 169.857C173.702 166.015 179.735 165.454 184.22 168.52L222.165 194.463L244.899 73.2121C245.901 67.8703 250.565 63.9993 256 63.9993ZM303.436 256C303.436 282.198 282.198 303.435 256.001 303.435C229.803 303.435 208.565 282.198 208.565 256C208.565 229.802 229.803 208.565 256.001 208.565C282.198 208.565 303.436 229.802 303.436 256Z"/>
</g>
</g>
</svg>
