<svg xmlns="http://www.w3.org/2000/svg" xmlns:xlink="http://www.w3.org/1999/xlink" viewBox="0 0 24 24">
  <title>traffic</title>
  <path d="M18.87,10.73a.56.56,0,0,0-.39-1H15.35l3.51-3.51a.56.56,0,0,0-.39-1H15.35V4.19a1.12,1.12,0,0,0-1.12-1.12H9.77A1.12,1.12,0,0,0,8.66,4.19V5.31H5.54a.56.56,0,0,0-.39,1L8.66,9.78H5.54a.56.56,0,0,0-.39,1l3.51,3.51H5.54a.56.56,0,0,0-.39,1l3.51,3.51v1.12a1.12,1.12,0,0,0,1.12,1.12h4.46a1.12,1.12,0,0,0,1.12-1.12V18.71l3.51-3.51a.56.56,0,0,0-.39-1h-3.1l0,0v0Zm-6.93,8A1.67,1.67,0,1,1,13.61,17,1.67,1.67,0,0,1,11.94,18.71Zm0-5.05A1.67,1.67,0,1,1,13.61,12,1.67,1.67,0,0,1,11.94,13.65Zm0-5A1.67,1.67,0,1,1,13.61,7,1.67,1.67,0,0,1,11.94,8.66Z"
  />
</svg>
