<svg xmlns="http://www.w3.org/2000/svg" xmlns:xlink="http://www.w3.org/1999/xlink" viewBox="0 0 24 24">
  <path d="M18.15,10.86A.5.5,0,0,0,17.8,10H15l3.15-3.15A.5.5,0,0,0,17.8,6H15V5a1,1,0,0,0-1-1H10A1,1,0,0,0,9,5V6H6.21a.5.5,0,0,0-.35.85L9,10H6.21a.5.5,0,0,0-.35.85L9,14H6.21a.5.5,0,0,0-.35.85L9,18v1a1,1,0,0,0,1,1h4a1,1,0,0,0,1-1V18l3.15-3.15A.5.5,0,0,0,17.8,14H15ZM11.94,18a1.5,1.5,0,1,1,1.5-1.5A1.5,1.5,0,0,1,11.94,18Zm0-4.53a1.5,1.5,0,1,1,1.5-1.5A1.5,1.5,0,0,1,11.94,13.48Zm0-4.47a1.5,1.5,0,1,1,1.5-1.5A1.5,1.5,0,0,1,11.94,9Z"
  />
</svg>
