<svg viewBox="0 0 512 512" xmlns="http://www.w3.org/2000/svg">
<g id="mono_traffic">
<path id="Vector" fill-rule="evenodd" clip-rule="evenodd" d="M170.667 85.3333C170.667 73.5513 180.218 64 192 64H320C331.782 64 341.333 73.5513 341.333 85.3333V149.333H398.278C408.127 149.333 412.714 161.542 405.302 168.027L341.333 224V234.667H398.278C408.127 234.667 412.714 246.875 405.302 253.361L341.333 309.333V320H398.278C408.127 320 412.714 332.208 405.302 338.694L341.333 394.666V426.667C341.333 438.449 331.782 448 320 448H192C180.218 448 170.667 438.449 170.667 426.667V394.667L106.698 338.694C99.2857 332.208 103.873 320 113.722 320H170.667V309.334L106.698 253.361C99.2857 246.875 103.873 234.667 113.722 234.667H170.667V224L106.698 168.027C99.2857 161.542 103.873 149.333 113.722 149.333H170.667V85.3333ZM256 192C273.673 192 288 177.673 288 160C288 142.327 273.673 128 256 128C238.327 128 224 142.327 224 160C224 177.673 238.327 192 256 192ZM256 298.667C273.673 298.667 288 284.34 288 266.667C288 248.994 273.673 234.667 256 234.667C238.327 234.667 224 248.994 224 266.667C224 284.34 238.327 298.667 256 298.667ZM288 373.333C288 391.006 273.673 405.333 256 405.333C238.327 405.333 224 391.006 224 373.333C224 355.66 238.327 341.333 256 341.333C273.673 341.333 288 355.66 288 373.333Z"/>
</g>
</svg>
