<svg viewBox="0 0 512 512" xmlns="http://www.w3.org/2000/svg">
<g id="mono_turkish">
<g id="Vector">
<path d="M303.333 205.674H322.193C328.286 204.638 334.392 207.433 337.764 212.802C341.135 218.17 341.135 225.099 337.764 230.467C334.392 235.836 328.286 238.631 322.193 237.595H303.333C297.672 237.595 293.083 232.831 293.083 226.955V216.314C293.083 210.438 297.672 205.674 303.333 205.674Z"/>
<path fill-rule="evenodd" clip-rule="evenodd" d="M464.624 196.756C467.948 210.7 469.523 225.003 469.315 239.336C468.704 265.95 462.723 292.167 451.732 316.42C440.741 340.673 424.964 362.464 405.346 380.49C380.28 402.803 350.709 419.482 318.631 429.399C286.552 439.316 252.715 442.241 219.408 437.974C214.574 436.8 209.529 436.8 204.695 437.974C201.482 439.662 198.536 441.814 195.952 444.361C177.227 460.776 153.059 469.654 128.144 469.271C126.735 469.478 125.299 469.176 124.093 468.419C122.814 467.284 123.24 465.77 123.667 464.256C123.88 463.499 124.093 462.742 124.093 462.032C129.705 449.264 134.131 436.009 137.313 422.432C139.336 416.934 139.336 410.898 137.313 405.4C134.871 401.757 131.578 398.761 127.718 396.671C121.978 392.843 116.494 388.648 111.299 384.11C76.9181 354.563 53.7348 314.131 45.6238 269.568C41.6811 247.53 41.6811 224.968 45.6238 202.93C50.2618 181.04 59.174 160.277 71.8513 141.827C96.4617 103.257 132.661 73.4477 175.269 56.6657C206.255 45.3063 239.336 40.7758 272.241 43.385C305.146 45.9943 337.096 55.6815 365.898 71.7818C389.979 84.8431 411.149 102.657 428.121 124.141C445.093 145.625 457.512 170.33 464.624 196.756ZM293.085 278.027C293.085 268.025 311.74 269.514 315.43 278.027C319.12 286.539 332.24 314.842 332.24 314.842C333.965 318.496 337.545 320.809 341.465 320.801H359.915C363.54 320.811 366.901 318.833 368.753 315.599C370.606 312.364 370.675 308.354 368.935 305.053L353.355 275.26C350.727 270.196 352.452 263.881 357.25 261.002C370.444 252.393 378.247 237.164 377.75 220.995C378.202 207.346 373.019 194.147 363.504 184.717C353.989 175.287 341.047 170.523 327.935 171.623H266.435C260.93 171.619 256.405 176.128 256.185 181.838V309.522C256.185 315.399 260.774 320.163 266.435 320.163H282.835C288.496 320.163 293.085 315.399 293.085 309.522V278.027ZM157.705 204.878H138.435C132.774 204.878 128.185 200.114 128.185 194.238V182.108C128.185 176.231 132.774 171.467 138.435 171.467H234.785C240.446 171.467 245.035 176.231 245.035 182.108V194.238C245.035 200.114 240.446 204.878 234.785 204.878H215.31C209.649 204.878 205.06 209.642 205.06 215.518V309.366C205.06 315.243 200.471 320.007 194.81 320.007H178.41C172.749 320.007 168.16 315.243 168.16 309.366V215.518C168.161 212.659 167.053 209.92 165.086 207.918C163.119 205.917 160.459 204.821 157.705 204.878Z"/>
</g>
</g>
</svg>
