<svg xmlns="http://www.w3.org/2000/svg" xmlns:xlink="http://www.w3.org/1999/xlink" viewBox="0 0 24 24">
  <defs>
    <style>
      .b {
        fill: #020a1a;
      }
    </style>
  </defs>
  <title>ukrainian_8_m</title>
  <path class="b" d="M9.39,16.94,6.86,7.12a.42.42,0,0,0-.41-.33A.43.43,0,0,0,6,7.21l-.32,6.48L5.39,7.21A.43.43,0,0,0,5,6.79a.42.42,0,0,0-.41.33L2,16.94a.73.73,0,0,0,.2.73,8.24,8.24,0,0,1,2,4.31h3a8.24,8.24,0,0,1,2-4.31A.73.73,0,0,0,9.39,16.94Zm-3.67-.8a1,1,0,1,1,1-1A1,1,0,0,1,5.71,16.14Z"
  />
  <path class="b" d="M12.95,3.72H12a.5.5,0,0,0-.45.29l-.43.92c-.29.79-.62.78-.91,0L9.84,4a.5.5,0,0,0-.45-.29H8.45c-.05,0-.06.07,0,.12L10,6.95a.37.37,0,0,1,0,.22.55.55,0,0,1-.5.24A.9.9,0,0,1,9,7.27a.24.24,0,0,0-.26.12l-.26.51a.31.31,0,0,0,.09.35,2.12,2.12,0,0,0,1,.23,1.69,1.69,0,0,0,1.62-1L13,3.83C13,3.77,13,3.73,12.95,3.72Z"
  />
  <path class="b" d="M15.67,6.22a.5.5,0,0,1,0-.62L17.09,3.9c.05-.08.07-.16-.08-.18H16a.5.5,0,0,0-.4.2L14.4,5.53s-.07,0-.08-.06V3.86c0-.08,0-.14-.13-.14h-.91c-.11,0-.16.05-.17.14V8.21c0,.1,0,.15.16.18h.88c.1,0,.16-.06.16-.17V7.27a.52.52,0,0,1,.09-.37l.17-.21c.06-.06.09,0,.12,0l1,1.45a.5.5,0,0,0,.41.21h1a.1.1,0,0,0,.06-.14Z"
  />
  <path class="b" d="M19.72,3.72H17.88a.5.5,0,0,0-.5.5v4c0,.11.05.15.13.16h.93a.16.16,0,0,0,.15-.18V6.95a.11.11,0,0,1,.09-.13h1a1.51,1.51,0,0,0,1.63-1.55A1.51,1.51,0,0,0,19.72,3.72Zm-.16,2.05h-.87c-.09,0-.1-.09-.11-.19V4.91a.13.13,0,0,1,.12-.15h.85a.5.5,0,1,1,0,1Z"
  />
</svg>
