<svg xmlns="http://www.w3.org/2000/svg" xmlns:xlink="http://www.w3.org/1999/xlink" viewBox="0 0 24 24">
  <path d="M21,4H3A1,1,0,0,0,2,5V20.79a.5.5,0,0,0,.85.35L7,17H21a1,1,0,0,0,1-1V5A1,1,0,0,0,21,4Zm-8.81,7.15c0,1.74-1.06,3-3.29,3s-3.31-1.24-3.31-3V7.51a.5.5,0,0,1,.5-.5h.83a.5.5,0,0,1,.5.5V11.1A1.33,1.33,0,0,0,8.9,12.52a1.34,1.34,0,0,0,1.47-1.42V7.51a.5.5,0,0,1,.5-.5h.82a.5.5,0,0,1,.5.5ZM19.11,14H17.56a.5.5,0,0,1-.41-.21l-1.59-2.28h0c-.06-.08-.11-.08-.17,0l-.29.36a.55.55,0,0,0-.1.3v1.36a.5.5,0,0,1-.5.5h-.8a.5.5,0,0,1-.5-.5v-6a.5.5,0,0,1,.5-.5h.8a.5.5,0,0,1,.5.5V9.58c0,.11.07.14.17.07L17,7.21a.5.5,0,0,1,.4-.2H18.9c.2,0,.26.14.15.38L16.9,10a.5.5,0,0,0,0,.63l2.26,2.94C19.32,13.61,19.38,14,19.11,14Z"
  />
</svg>
