<svg xmlns="http://www.w3.org/2000/svg" xmlns:xlink="http://www.w3.org/1999/xlink" viewBox="0 0 24 24">
  <defs>
    <style>
      .b {
        fill: #020a1a;
      }
    </style>
  </defs>
  <title>ukrainian_literature_m</title>
  <path class="b" d="M17.4,10.12h-.91a.14.14,0,0,0-.13.16V11c0,.1,0,.2.11.2h.93a.54.54,0,1,0,0-1.07Z" />
  <path class="b" d="M21,4H15.57A3.52,3.52,0,0,0,12,7.52V8A4,4,0,0,0,8,4H3A1,1,0,0,0,2,5V18H8.07a4,4,0,0,1,3.83,2.94.14.14,0,0,0,.26,0A4,4,0,0,1,16,18h6V5A1,1,0,0,0,21,4ZM8.43,13a1.8,1.8,0,0,1-1.74,1.07,2.27,2.27,0,0,1-1.05-.25.34.34,0,0,1-.09-.37l.28-.54a.26.26,0,0,1,.28-.13,1,1,0,0,0,.48.15.59.59,0,0,0,.54-.26.39.39,0,0,0,0-.23L5.45,9.13c0-.06,0-.11.05-.13h1A.54.54,0,0,1,7,9.31l.45,1c.31.84.67.85,1,0l.46-1A.54.54,0,0,1,9.35,9h1c.06,0,.08.06.09.12Zm6.41,1H13.72a.54.54,0,0,1-.44-.23l-1.09-1.56c0-.06-.07-.08-.13,0l-.18.22a.55.55,0,0,0-.1.39v1c0,.11-.07.16-.17.18h-.95c-.12,0-.18-.09-.17-.2V9.15c0-.1.06-.15.18-.15h1c.1,0,.13.06.14.15v1.73c0,.07,0,.09.08.06l1.29-1.73A.53.53,0,0,1,13.59,9h1.08c.15,0,.14.11.08.2L13.25,11a.54.54,0,0,0,0,.67l1.67,2.18A.11.11,0,0,1,14.84,14Zm2.73-1.68H16.45a.12.12,0,0,0-.1.14v1.35a.17.17,0,0,1-.16.19h-1c-.08,0-.14-.06-.14-.17V9.53A.54.54,0,0,1,15.6,9h2a1.66,1.66,0,1,1,0,3.32Z"
  />
</svg>
