<svg xmlns="http://www.w3.org/2000/svg" xmlns:xlink="http://www.w3.org/1999/xlink" viewBox="0 0 24 24">
    <path d="M12.3,3.73h-.9a.5.5,0,0,0-.45.29l-.43.92c-.29.79-.62.78-.91,0L9.19,4a.5.5,0,0,0-.45-.29H7.81c-.05,0-.06.07,0,.12L9.33,7a.37.37,0,0,1,0,.22.55.55,0,0,1-.5.24.9.9,0,0,1-.45-.14.24.24,0,0,0-.26.12l-.26.51a.31.31,0,0,0,.09.35,2.12,2.12,0,0,0,1,.23,1.69,1.69,0,0,0,1.62-1l1.84-3.64C12.38,3.78,12.36,3.74,12.3,3.73Z"
    />
    <path d="M15,6.23a.5.5,0,0,1,0-.62l1.41-1.69c.05-.08.07-.16-.08-.18h-1a.5.5,0,0,0-.4.2L13.76,5.54s-.07,0-.08-.06V3.87c0-.08,0-.14-.13-.14h-.91c-.11,0-.16.05-.17.14V8.22c0,.1,0,.15.16.18h.88c.1,0,.16-.06.16-.17V7.28a.52.52,0,0,1,.09-.37l.17-.21c.06-.06.09,0,.12,0l1,1.45a.5.5,0,0,0,.41.21h1a.1.1,0,0,0,.06-.14Z"
    />
    <path d="M19.07,3.73H17.23a.5.5,0,0,0-.5.5v4c0,.11.05.15.13.16h.93a.16.16,0,0,0,.15-.18V7A.11.11,0,0,1,18,6.83h1A1.51,1.51,0,0,0,20.7,5.28,1.51,1.51,0,0,0,19.07,3.73Zm-.16,2.05H18c-.09,0-.1-.09-.11-.19V4.92a.13.13,0,0,1,.12-.15h.85a.5.5,0,1,1,0,1Z"
    />
    <path d="M9.37,17,6.85,7.14a.42.42,0,0,0-.41-.33A.43.43,0,0,0,6,7.23L5.7,13.71,5.38,7.23A.43.43,0,0,0,5,6.81a.42.42,0,0,0-.41.33L2,17a.73.73,0,0,0,.2.73,8.24,8.24,0,0,1,2,4.31h3a8.24,8.24,0,0,1,2-4.31A.73.73,0,0,0,9.37,17Zm-3.67-.8a1,1,0,1,1,1-1A1,1,0,0,1,5.7,16.16Z"
    />
</svg>
