<svg viewBox="0 0 512 512" xmlns="http://www.w3.org/2000/svg">
<g id="mono_ukrainian">
<g id="Vector">
<path d="M341.329 237.787H360.103L359.887 237.566C365.846 237.566 370.676 232.614 370.676 226.506C370.676 220.398 365.846 215.446 359.887 215.446H341.545C340.758 215.499 340.028 215.888 339.536 216.519C339.043 217.151 338.832 217.966 338.955 218.764V233.585C339.171 235.797 339.387 237.787 341.329 237.787Z"/>
<path fill-rule="evenodd" clip-rule="evenodd" d="M464.624 196.754C467.948 210.698 469.523 225.001 469.315 239.334C468.704 265.948 462.723 292.165 451.732 316.418C440.741 340.671 424.964 362.462 405.346 380.488C380.28 402.801 350.709 419.48 318.631 429.397C286.552 439.314 252.715 442.239 219.408 437.972C214.574 436.798 209.529 436.798 204.695 437.972C201.482 439.66 198.536 441.812 195.952 444.359C177.227 460.774 153.059 469.652 128.144 469.269C126.735 469.476 125.299 469.174 124.093 468.417C122.814 467.282 123.24 465.768 123.667 464.254C123.88 463.497 124.093 462.74 124.093 462.03C129.705 449.262 134.131 436.007 137.313 422.43C139.336 416.932 139.336 410.896 137.313 405.398C134.871 401.755 131.578 398.759 127.718 396.669C121.978 392.842 116.494 388.646 111.299 384.108C76.9181 354.562 53.7348 314.129 45.6238 269.566C41.6811 247.528 41.6811 224.966 45.6238 202.928C50.2618 181.038 59.174 160.275 71.8513 141.825C96.4617 103.255 132.661 73.4458 175.269 56.6638C206.255 45.3044 239.336 40.7739 272.241 43.3831C305.146 45.9923 337.096 55.6795 365.898 71.7798C389.979 84.8412 411.149 102.655 428.121 124.139C445.093 145.623 457.512 170.328 464.624 196.754ZM197.827 192.442H217.248C218.543 192.663 218.974 193.548 219.19 194.875L180.132 276.498C173.996 290.615 160.016 299.407 144.958 298.618C137.467 298.759 130.057 297.012 123.379 293.53C121.18 291.643 120.398 288.529 121.437 285.788L127.048 274.507C128.142 272.45 130.422 271.371 132.658 271.852C135.569 273.75 138.921 274.819 142.369 274.949C146.636 275.304 150.759 273.275 153.158 269.64C153.64 268.056 153.64 266.359 153.158 264.774L120.358 194.654C119.063 193.548 119.279 191.999 120.358 191.999H140.642C144.817 192.032 148.6 194.53 150.353 198.414L160.064 218.764C166.321 236.018 173.443 236.239 179.7 218.764L188.979 198.414C190.707 194.974 194.062 192.709 197.827 192.442ZM323.847 192.441H363.552C372.458 192.256 381.048 195.817 387.326 202.294C393.604 208.771 397.022 217.6 396.784 226.727C397.059 236.218 393.38 245.38 386.668 251.923C379.955 258.466 370.843 261.772 361.61 261.013H340.031C339.482 261.475 339.164 262.165 339.164 262.893C339.164 263.621 339.482 264.311 340.031 264.773V291.76C340.118 292.863 339.697 293.945 338.892 294.683C338.087 295.422 336.991 295.731 335.931 295.52H315.863C314.136 295.299 313.057 294.414 313.057 291.981V203.501C313.057 197.393 317.888 192.441 323.847 192.441ZM275.296 234.025C272.197 238.045 272.197 243.72 275.296 247.739L309.606 291.979C309.888 292.56 309.906 293.238 309.657 293.834C309.408 294.43 308.916 294.884 308.312 295.076H286.733C283.222 295.095 279.922 293.363 277.885 290.431L256.306 258.357C256.11 258.357 255.914 258.235 255.701 258.103C255.208 257.797 254.62 257.432 253.717 258.357L248.754 262.781C247.12 265.159 246.426 268.084 246.812 270.965V291.979C246.812 294.412 245.517 295.74 243.359 295.74H224.369C220.917 295.076 220.917 293.97 220.917 291.758V195.536C221.133 193.545 222.211 192.439 224.585 192.439H244.222C247.027 192.439 247.027 193.767 247.027 195.536V231.149C247.243 232.477 248.754 232.477 248.754 232.477L273.785 197.085C275.823 194.3 279.021 192.661 282.417 192.661H303.996C307.233 193.103 306.801 194.873 305.722 196.642L275.296 234.025Z"/>
</g>
</g>
</svg>
