<svg xmlns="http://www.w3.org/2000/svg" xmlns:xlink="http://www.w3.org/1999/xlink" viewBox="0 0 24 24">
  <path d="M21,4H3A1,1,0,0,0,2,5V20.79a.5.5,0,0,0,.85.35L7,17H21a1,1,0,0,0,1-1V5A1,1,0,0,0,21,4Zm-8.2,7.15c0,1.74-1.06,3-3.29,3s-3.31-1.23-3.31-3V7.51A.5.5,0,0,1,6.7,7h.83a.5.5,0,0,1,.5.5V11.1a1.33,1.33,0,0,0,1.48,1.42A1.34,1.34,0,0,0,11,11.1V7.51a.5.5,0,0,1,.5-.5h.82a.5.5,0,0,1,.5.5ZM19.62,14H18.07a.5.5,0,0,1-.41-.21l-1.59-2.28h0c-.06-.08-.11-.08-.17,0l-.29.36a.55.55,0,0,0-.1.3v1.36a.5.5,0,0,1-.5.5h-.8a.5.5,0,0,1-.5-.5v-6a.5.5,0,0,1,.5-.5H15a.5.5,0,0,1,.5.5V9.58c0,.11.07.14.17.07L17.5,7.21a.5.5,0,0,1,.4-.2h1.51c.2,0,.26.15.15.38L17.41,10a.5.5,0,0,0,0,.62l2.26,2.94C19.83,13.61,19.89,14,19.62,14Z"
  />
</svg>
