<svg viewBox="0 0 512 512" xmlns="http://www.w3.org/2000/svg">
<g id="mono_ukrainian-literature">
<g id="Vector">
<path d="M74.6678 128.15V362.497C74.6482 363.926 74.9062 365.345 75.4258 366.664C75.9455 367.984 76.7157 369.177 77.6887 370.169C79.6751 372.075 82.2571 373.138 84.9388 373.152C143.375 370.972 200.901 388.92 248.873 424.297C249.82 425.202 250.911 425.923 252.095 426.428C253.353 426.745 254.664 426.745 255.921 426.428C257.181 426.73 258.488 426.73 259.748 426.428C260.932 425.923 262.023 425.202 262.97 424.297C310.906 388.986 368.325 370.975 426.703 372.939C429.45 372.957 432.106 371.894 434.154 369.956C436 367.951 437.076 365.293 437.175 362.497V128.15H448C459.782 128.15 469.333 137.702 469.333 149.484V426.817C469.333 438.599 459.782 448.15 448 448.15H292.951C291.102 451.353 288.83 454.328 286.17 456.987C278.168 464.989 267.316 469.484 256 469.484C244.684 469.484 233.832 464.989 225.83 456.987C223.17 454.328 220.898 451.353 219.049 448.15H64.0001C52.218 448.15 42.6667 438.599 42.6667 426.817V149.484C42.6667 137.702 52.218 128.15 64.0001 128.15H74.6678Z"/>
<path d="M219.381 192.442H199.96C196.194 192.709 192.839 194.974 191.112 198.414L181.833 218.764C175.575 236.239 168.454 236.018 162.196 218.764L152.486 198.414C150.732 194.53 146.95 192.032 142.775 191.999H122.491C121.412 191.999 121.196 193.548 122.491 194.654L155.291 264.774C155.772 266.359 155.772 268.056 155.291 269.64C152.892 273.275 148.769 275.304 144.502 274.949C141.054 274.819 137.702 273.75 134.791 271.852C132.554 271.371 130.274 272.45 129.18 274.507L123.57 285.788C122.531 288.529 123.312 291.643 125.512 293.53C132.19 297.012 139.6 298.759 147.091 298.618C162.149 299.407 176.128 290.615 182.265 276.498L221.323 194.875C221.107 193.548 220.675 192.663 219.381 192.442Z"/>
<path fill-rule="evenodd" clip-rule="evenodd" d="M365.686 192.441H325.98C320.022 192.441 315.191 197.393 315.191 203.501V291.981C315.191 294.414 316.27 295.299 317.996 295.52H338.065C339.125 295.731 340.221 295.422 341.026 294.683C341.831 293.945 342.252 292.863 342.165 291.76V264.773C341.616 264.311 341.298 263.621 341.298 262.893C341.298 262.165 341.616 261.475 342.165 261.013H363.744C372.977 261.772 382.089 258.466 388.801 251.923C395.514 245.38 399.192 236.218 398.917 226.727C399.155 217.6 395.738 208.771 389.46 202.294C383.182 195.817 374.591 192.256 365.686 192.441ZM362.236 237.787H343.462C341.52 237.787 341.305 235.797 341.089 233.585V218.764C340.966 217.966 341.176 217.151 341.669 216.519C342.162 215.888 342.891 215.499 343.678 215.446H362.02C367.979 215.446 372.81 220.398 372.81 226.506C372.81 232.614 367.979 237.566 362.02 237.566L362.236 237.787Z"/>
<path d="M277.429 234.025C274.33 238.045 274.33 243.72 277.429 247.739L311.739 291.979C312.021 292.56 312.039 293.238 311.79 293.834C311.541 294.43 311.049 294.884 310.445 295.076H288.866C285.355 295.095 282.054 293.363 280.018 290.431L258.439 258.357C258.243 258.357 258.047 258.235 257.833 258.102C257.34 257.797 256.752 257.432 255.85 258.357L250.886 262.781C249.253 265.159 248.559 268.084 248.944 270.965V291.979C248.944 294.412 247.65 295.74 245.492 295.74H226.502C223.05 295.076 223.05 293.97 223.05 291.758V195.536C223.265 193.545 224.344 192.439 226.718 192.439H246.355C249.16 192.439 249.16 193.767 249.16 195.536V231.149C249.376 232.477 250.886 232.477 250.886 232.477L275.918 197.085C277.956 194.3 281.154 192.661 284.55 192.661H306.129C309.366 193.103 308.934 194.873 307.855 196.642L277.429 234.025Z"/>
</g>
</g>
</svg>
