<svg viewBox="0 0 512 512" xmlns="http://www.w3.org/2000/svg">
<g id="mono_otherlanguages">
<path id="Vector" fill-rule="evenodd" clip-rule="evenodd" d="M464.624 196.756C467.948 210.7 469.523 225.003 469.315 239.336C468.704 265.95 462.723 292.167 451.732 316.42C440.741 340.673 424.964 362.464 405.346 380.49C380.28 402.803 350.709 419.482 318.631 429.399C286.552 439.316 252.715 442.241 219.408 437.974C214.574 436.8 209.529 436.8 204.695 437.974C201.482 439.662 198.536 441.814 195.952 444.361C177.227 460.776 153.059 469.654 128.144 469.271C126.735 469.478 125.299 469.176 124.093 468.419C122.814 467.284 123.24 465.77 123.667 464.256C123.88 463.499 124.093 462.742 124.093 462.032C129.705 449.264 134.131 436.009 137.313 422.432C139.336 416.934 139.336 410.898 137.313 405.4C134.871 401.757 131.578 398.761 127.718 396.671C121.978 392.843 116.494 388.648 111.299 384.11C76.9181 354.563 53.7348 314.131 45.6238 269.568C41.6811 247.53 41.6811 224.968 45.6238 202.93C50.2618 181.04 59.174 160.277 71.8513 141.827C96.4617 103.257 132.661 73.4477 175.269 56.6657C206.255 45.3063 239.336 40.7758 272.241 43.385C305.146 45.9943 337.096 55.6815 365.898 71.7818C389.979 84.8431 411.149 102.657 428.121 124.141C445.093 145.625 457.512 170.33 464.624 196.756ZM180.524 264.895C180.524 247.221 166.379 232.895 148.929 232.895C131.574 233.124 117.56 247.317 117.333 264.895C117.333 282.568 131.479 296.895 148.929 296.895C166.379 296.895 180.524 282.568 180.524 264.895ZM287.596 264.895C287.596 247.221 273.45 232.895 256 232.895C238.645 233.124 224.632 247.317 224.405 264.895C224.405 282.568 238.551 296.895 256 296.895C273.45 296.895 287.596 282.568 287.596 264.895ZM363.072 232.895C380.521 232.895 394.667 247.221 394.667 264.895C394.667 282.568 380.521 296.895 363.072 296.895C345.622 296.895 331.476 282.568 331.476 264.895C331.703 247.317 345.717 233.124 363.072 232.895Z"/>
</g>
</svg>
