<svg viewBox="0 0 512 512" fill="none" xmlns="http://www.w3.org/2000/svg">
<g id="business">
<g id="Vector">
<path d="M384 170.667H341.333C341.333 148.035 332.343 126.33 316.34 110.327C300.337 94.3241 278.632 85.3337 256 85.3337C233.368 85.3337 211.663 94.3241 195.66 110.327C179.657 126.33 170.667 148.035 170.667 170.667H128C128 136.719 141.486 104.162 165.49 80.1573C189.495 56.1527 222.052 42.667 256 42.667C289.948 42.667 322.505 56.1527 346.51 80.1573C370.514 104.162 384 136.719 384 170.667Z" fill="#163BF3"/>
<path d="M424.192 170.667H87.808C74.6592 170.667 64 180.931 64 193.593V425.074C64 437.736 74.6592 448 87.808 448H424.192C437.341 448 448 437.736 448 425.074V193.593C448 180.931 437.341 170.667 424.192 170.667Z" fill="#935000"/>
</g>
</g>
</svg>
