<svg viewBox="0 0 512 512" fill="none" xmlns="http://www.w3.org/2000/svg">
<g id="catala">
<g id="Vector">
<path d="M469.315 239.336C469.523 225.003 467.947 210.7 464.624 196.756C457.512 170.33 445.092 145.625 428.121 124.141C411.149 102.657 389.979 84.8431 365.898 71.7818C337.096 55.6815 305.146 45.9943 272.241 43.385C239.336 40.7758 206.255 45.3063 175.269 56.6657C132.661 73.4477 96.4616 103.257 71.8512 141.827C59.1739 160.277 50.2617 181.04 45.6237 202.93C41.6809 224.968 41.6809 247.53 45.6237 269.568C53.7347 314.131 76.9179 354.563 111.299 384.11C116.494 388.648 121.978 392.843 127.718 396.671C131.578 398.761 134.871 401.757 137.313 405.4C139.336 410.898 139.336 416.934 137.313 422.432C134.131 436.009 129.705 449.264 124.093 462.032C124.093 464.161 122.174 466.716 124.093 468.419C125.298 469.176 126.735 469.478 128.144 469.271C153.059 469.654 177.227 460.776 195.952 444.361C198.536 441.814 201.481 439.662 204.695 437.974C209.528 436.8 214.574 436.8 219.407 437.974C252.715 442.241 286.552 439.316 318.631 429.399C350.709 419.482 380.28 402.803 405.346 380.49C424.964 362.464 440.741 340.673 451.732 316.42C462.723 292.167 468.704 265.95 469.315 239.336Z" fill="#0C114D"/>
<path fill-rule="evenodd" clip-rule="evenodd" d="M106.853 243.142C107.536 223.141 116.126 204.267 130.676 190.798C145.225 177.329 164.502 170.407 184.138 171.6C206.544 170.69 227.837 181.562 240.513 200.384C242.16 202.927 242.632 206.077 241.804 209.005C240.976 211.932 238.932 214.346 236.208 215.61L223.088 221.867C218.715 223.951 213.507 222.648 210.583 218.739C204.303 210.135 194.463 204.975 183.933 204.764C173.115 204.642 162.72 209.033 155.168 216.915C147.616 224.796 143.565 235.48 143.958 246.48C143.565 257.48 147.616 268.164 155.168 276.045C162.72 283.926 173.115 288.317 183.933 288.196C194.463 287.985 204.303 282.824 210.583 274.221C213.507 270.311 218.715 269.008 223.088 271.092L236.208 277.35C238.897 278.654 240.896 281.084 241.683 284.008C242.47 286.932 241.968 290.059 240.308 292.576C227.365 311.772 205.552 322.75 182.703 321.569C140.519 321.11 106.625 286.064 106.853 243.142ZM396.723 304.674L350.393 179.526C348.858 175.478 345.021 172.82 340.758 172.851H308.573C304.309 172.82 300.472 175.478 298.938 179.526L252.813 304.674C251.592 307.893 252.015 311.519 253.943 314.358C255.872 317.197 259.056 318.881 262.448 318.857H281.923C286.872 318.354 291.058 314.914 292.583 310.097L296.683 297.999H353.058C353.058 297.999 355.108 304.674 356.953 309.679C358.668 314.808 363.142 318.465 368.433 319.066H387.703C391.039 318.914 394.093 317.119 395.888 314.254C397.683 311.39 397.995 307.815 396.723 304.674ZM320.873 265.043H328.663C332.023 265.155 335.224 263.583 337.228 260.837C339.233 258.09 339.785 254.518 338.708 251.277C338.708 251.277 329.893 209.561 324.973 209.561C320.053 209.561 311.238 251.277 311.238 251.277C310.185 254.447 310.692 257.939 312.599 260.664C314.507 263.39 317.584 265.019 320.873 265.043Z" fill="#FEDD8E"/>
</g>
</g>
</svg>
