<svg viewBox="0 0 512 512" fill="none" xmlns="http://www.w3.org/2000/svg">
<path d="M469.334 317.156C469.334 374.756 450.154 402.489 419.893 426.383C373.436 460.089 317.816 454.116 272.851 409.956H239.606C221.799 430.776 196.773 444.068 169.569 447.155C142.364 450.243 115.001 442.897 92.9897 426.596C75.9583 414.205 62.4165 397.617 53.679 378.441C44.9415 359.265 41.3052 338.154 43.1231 317.156C43.1231 196.836 220.427 66.276 251.54 44.0893C252.889 43.1629 254.486 42.667 256.122 42.667C257.758 42.667 259.355 43.1629 260.704 44.0893C292.03 66.276 469.334 196.836 469.334 317.156Z" fill="#00672E"/>
<path d="M353.43 318.047C356.158 314.802 357.507 310.619 357.188 306.392C356.869 302.165 354.908 298.231 351.724 295.433C350.129 294.056 348.278 293.008 346.277 292.348C344.275 291.688 342.164 291.43 340.063 291.589C337.961 291.747 335.912 292.319 334.033 293.272C332.153 294.224 330.481 295.539 329.11 297.14L272.79 362.847V310.153L273.857 308.873L334.23 238.9C335.631 237.317 336.707 235.474 337.395 233.475C338.083 231.477 338.371 229.363 338.243 227.253C338.114 225.143 337.571 223.079 336.644 221.179C335.718 219.28 334.427 217.581 332.844 216.18C331.261 214.779 329.418 213.704 327.419 213.016C325.421 212.327 323.306 212.039 321.197 212.168C319.087 212.297 317.023 212.84 315.123 213.766C313.223 214.692 311.525 215.984 310.124 217.567L272.79 260.233V188.127C272.79 183.883 271.105 179.814 268.104 176.813C265.104 173.812 261.034 172.127 256.79 172.127C252.547 172.127 248.477 173.812 245.477 176.813C242.476 179.814 240.79 183.883 240.79 188.127V261.3L203.457 218.633C200.628 215.408 196.634 213.439 192.353 213.159C188.072 212.879 183.855 214.311 180.63 217.14C177.405 219.969 175.436 223.963 175.156 228.244C174.876 232.525 176.308 236.742 179.137 239.967L239.51 309.94C239.51 309.94 239.51 311.22 240.79 311.433V362.847L184.257 297.14C182.887 295.539 181.214 294.224 179.335 293.272C177.455 292.319 175.406 291.747 173.305 291.589C171.204 291.43 169.092 291.688 167.091 292.348C165.09 293.008 163.239 294.056 161.644 295.433C158.46 298.231 156.498 302.165 156.179 306.392C155.86 310.619 157.209 314.802 159.937 318.047L239.51 409.993H272.79L353.43 318.047Z" fill="#FBBE2E"/>
</svg>
