<svg viewBox="0 0 512 512" fill="none" xmlns="http://www.w3.org/2000/svg">
<g id="exam">
<g id="Vector">
<path d="M367.254 267.604L244.593 145.916C242.485 143.803 241.302 140.95 241.302 137.976C241.302 135.003 242.485 132.149 244.593 130.036L306.116 69.1922C308.143 67.0123 310.942 65.6952 313.926 65.5169C316.91 65.3386 319.848 66.3128 322.124 68.2355L444.785 189.923C446.848 192.06 448 194.904 448 197.863C448 200.822 446.848 203.666 444.785 205.803L383.262 266.838C381.235 269.035 378.415 270.348 375.417 270.491C372.418 270.634 369.485 269.597 367.254 267.604Z" fill="#FF7968"/>
<path d="M201.855 447.999L64.0898 310.357L253.96 120.655L391.725 258.298L201.855 447.999Z" fill="#FBBE2E"/>
<path d="M64 310.369L64.7716 447.206L201.731 447.977L64 310.369Z" fill="#FFF3D6"/>
<path d="M64.5794 393.049L118.977 447.398L64.7716 447.206L64.5794 393.049Z" fill="black"/>
</g>
</g>
</svg>
