<svg viewBox="0 0 512 512" fill="none" xmlns="http://www.w3.org/2000/svg">
<g id="grammar">
<g id="Vector">
<path d="M256 149.333C285.455 149.333 309.333 125.455 309.333 95.9994C309.333 66.5442 285.455 42.666 256 42.666C226.545 42.666 202.667 66.5442 202.667 95.9994C202.667 125.455 226.545 149.333 256 149.333Z" fill="#FF7968"/>
<path d="M362.667 314.666C325.12 339.839 320 401.066 316.373 447.999H195.627C192 401.066 186.88 339.839 149.333 314.666C145.71 312.103 143.062 308.387 141.822 304.125C140.582 299.863 140.823 295.306 142.507 291.199L225.067 91.946V90.2394C225.313 88.8822 226.021 87.6521 227.071 86.7577C228.121 85.8633 229.448 85.3598 230.827 85.3327C232.081 85.3229 233.295 85.7736 234.238 86.5993C235.182 87.4251 235.79 88.5685 235.947 89.8127V91.306L248.107 197.973C248.554 201.02 248.285 204.129 247.322 207.054C246.36 209.979 244.729 212.64 242.56 214.826C240.405 216.623 238.675 218.875 237.495 221.42C236.315 223.965 235.713 226.74 235.733 229.546C235.733 234.864 237.846 239.965 241.607 243.726C245.368 247.487 250.468 249.599 255.787 249.599C261.105 249.599 266.206 247.487 269.967 243.726C273.727 239.965 275.84 234.864 275.84 229.546C275.86 226.74 275.259 223.965 274.078 221.42C272.898 218.875 271.168 216.623 269.013 214.826C266.844 212.64 265.214 209.979 264.251 207.054C263.288 204.129 263.02 201.02 263.467 197.973L275.84 91.306C275.711 90.5476 275.754 89.7697 275.966 89.0302C276.179 88.2907 276.555 87.6086 277.068 87.0347C277.58 86.4607 278.216 86.0096 278.926 85.715C279.637 85.4203 280.405 85.2897 281.173 85.3327C282.515 85.4074 283.792 85.9324 284.799 86.8228C285.805 87.7131 286.482 88.9168 286.72 90.2394V91.946L369.28 291.199C370.985 295.284 371.26 299.824 370.059 304.084C368.858 308.344 366.253 312.073 362.667 314.666Z" fill="#133191"/>
</g>
</g>
</svg>
