<svg viewBox="0 0 512 512" fill="none" xmlns="http://www.w3.org/2000/svg">
<g id="latin">
<g id="Vector">
<path d="M469.315 239.336C469.523 225.003 467.947 210.7 464.624 196.756C457.512 170.33 445.092 145.625 428.121 124.141C411.149 102.657 389.979 84.8431 365.898 71.7818C337.096 55.6815 305.146 45.9943 272.241 43.385C239.336 40.7758 206.255 45.3063 175.269 56.6657C132.661 73.4477 96.4616 103.257 71.8512 141.827C59.1739 160.277 50.2617 181.04 45.6237 202.93C41.6809 224.968 41.6809 247.53 45.6237 269.568C53.7347 314.131 76.9179 354.563 111.299 384.11C116.494 388.648 121.978 392.843 127.718 396.671C131.578 398.761 134.871 401.757 137.313 405.4C139.336 410.898 139.336 416.934 137.313 422.432C134.131 436.009 129.705 449.264 124.093 462.032C124.093 464.161 122.174 466.716 124.093 468.419C125.298 469.176 126.735 469.478 128.144 469.271C153.059 469.654 177.227 460.776 195.952 444.361C198.536 441.814 201.481 439.662 204.695 437.974C209.528 436.8 214.574 436.8 219.407 437.974C252.715 442.241 286.552 439.316 318.631 429.399C350.709 419.482 380.28 402.803 405.346 380.49C424.964 362.464 440.741 340.673 451.732 316.42C462.723 292.167 468.704 265.95 469.315 239.336Z" fill="#0C114D"/>
<path fill-rule="evenodd" clip-rule="evenodd" d="M348.404 279.545C345.563 274.739 339.495 273.081 334.669 275.79C327.612 279.673 319.732 281.749 311.709 281.839C296.345 283.081 282.297 272.996 278.294 257.852H362.754C369.929 257.852 372.389 252.012 372.184 244.503C371.569 199.867 342.869 171.5 305.969 171.5C291.167 171.021 276.666 175.816 264.969 185.058C261.135 188.612 255.273 188.612 251.439 185.058C240.037 175.299 225.28 170.57 210.439 171.917C190.631 171.724 171.192 177.375 154.474 188.187C150.261 191.316 149.103 197.207 151.809 201.744L157.549 212.382C160.171 217.313 166.208 219.174 171.079 216.553C181.133 210.478 192.596 207.238 204.289 207.167C222.739 207.167 234.014 215.511 234.014 228.025V244.295C221.533 233.345 205.37 227.739 188.914 228.651C176.562 227.172 164.173 231.097 154.829 239.45C145.486 247.803 140.066 259.799 139.919 272.453C139.919 304.157 166.569 317.506 198.959 317.506C216.733 317.734 234.114 312.18 248.569 301.654C252.136 298.645 257.303 298.645 260.869 301.654C273.414 312.818 289.735 318.578 306.379 317.715C322.285 317.669 337.929 313.582 351.889 305.826C354.333 304.322 356.066 301.867 356.686 299.03C357.305 296.194 356.757 293.223 355.169 290.808L348.404 279.545ZM234.014 267.864C234.014 275.79 221.099 285.176 204.904 285.176C194.244 285.176 184.404 280.796 184.404 270.576C184.404 260.355 195.474 255.975 208.184 255.975C218.135 255.486 227.846 259.182 235.039 266.196L234.014 267.864ZM330.569 229.694C329.797 215.485 317.888 204.58 303.919 205.29V205.499C290.336 205.438 278.953 215.934 277.679 229.694H330.569Z" fill="#FEDD8E"/>
</g>
</g>
</svg>
