<svg viewBox="0 0 512 512" fill="none" xmlns="http://www.w3.org/2000/svg">
<g id="social-science">
<g id="Vector">
<path d="M401.92 411.579C401.185 413.361 401.185 415.362 401.92 417.143C403.659 427.251 407.355 436.92 412.8 445.603C412.901 445.953 412.901 446.324 412.8 446.673C412.9 447.095 412.9 447.535 412.8 447.957H411.52C392.99 448.578 374.868 442.418 360.533 430.624C359.104 429.465 357.423 428.659 355.627 428.27C353.802 427.842 351.904 427.842 350.08 428.27C276.053 436.402 170.667 400.88 170.667 311.862H181.547C225.024 312.106 267.739 300.414 305.067 278.052C335.176 260.282 357.611 231.904 368 198.449C426.667 214.926 469.333 259.863 469.333 311.434C468.022 331.54 461.404 350.935 450.158 367.63C438.911 384.326 423.441 397.721 405.333 406.444C403.583 407.655 402.362 409.493 401.92 411.579Z" fill="#133191"/>
<path d="M341.333 161.215C341.333 97.0191 273.067 42.6665 192 42.6665C110.933 42.6665 42.6666 96.8051 42.6666 161.215C43.9043 181.396 50.488 200.88 61.7384 217.657C72.9888 234.434 88.4983 247.895 106.667 256.653C108.47 257.567 109.902 259.079 110.72 260.933C111.467 262.786 111.467 264.857 110.72 266.71C108.944 276.809 105.251 286.471 99.84 295.171C99.6991 295.51 99.6266 295.873 99.6266 296.241C99.6266 296.608 99.6991 296.971 99.84 297.31V298.38H101.12C119.65 299.002 137.772 292.841 152.107 281.048C153.536 279.888 155.217 279.082 157.013 278.694C158.837 278.265 160.736 278.265 162.56 278.694C236.16 286.397 341.333 250.661 341.333 161.215Z" fill="#00672E"/>
</g>
</g>
</svg>
